<svg xmlns="http://www.w3.org/2000/svg" xmlns:xlink="http://www.w3.org/1999/xlink" viewBox="0 0 690.62 867.76"><defs><style>.cls-1{isolation:isolate;}.cls-2{fill:#0a1920;}.cls-3,.cls-4,.cls-5,.cls-6,.cls-7{stroke:#fff;}.cls-13,.cls-14,.cls-15,.cls-17,.cls-19,.cls-23,.cls-28,.cls-3,.cls-4,.cls-5,.cls-7{stroke-miterlimit:10;}.cls-13,.cls-14,.cls-15,.cls-16,.cls-17,.cls-3,.cls-4,.cls-5,.cls-6,.cls-7{stroke-width:30px;}.cls-3{fill:url(#Gradiente_sem_nome_5);}.cls-14,.cls-16,.cls-17,.cls-19,.cls-23,.cls-25,.cls-28,.cls-32,.cls-4,.cls-6,.cls-7{fill:none;}.cls-14,.cls-16,.cls-23,.cls-24,.cls-25,.cls-26,.cls-32,.cls-4,.cls-6{stroke-linecap:round;}.cls-16,.cls-24,.cls-25,.cls-27,.cls-29,.cls-32,.cls-6{stroke-linejoin:bevel;}.cls-8{fill:#fff;}.cls-9{fill:url(#Gradiente_sem_nome_5-2);}.cls-10{fill:url(#Gradiente_sem_nome_5-3);}.cls-11{fill:url(#Gradiente_sem_nome_5-4);}.cls-12{fill:url(#Gradiente_sem_nome_5-5);}.cls-13,.cls-14,.cls-15,.cls-16,.cls-17,.cls-19,.cls-23,.cls-24,.cls-25,.cls-26,.cls-27,.cls-28,.cls-29,.cls-30,.cls-31,.cls-32{stroke:#000;}.cls-13{fill:url(#Gradiente_sem_nome_5-6);}.cls-18{fill:#562210;}.cls-19{stroke-width:14px;}.cls-20{fill:#efc12e;}.cls-21,.cls-22{fill:#23113f;}.cls-21{opacity:0.7;mix-blend-mode:screen;}.cls-22{mix-blend-mode:overlay;}.cls-23,.cls-28{stroke-width:10px;}.cls-24,.cls-26,.cls-29,.cls-30,.cls-32{stroke-width:4px;}.cls-25{stroke-width:6px;}.cls-26,.cls-30,.cls-31{stroke-linejoin:round;}.cls-27,.cls-31{stroke-width:2px;}</style><linearGradient id="Gradiente_sem_nome_5" x1="31.61" y1="538.58" x2="659.97" y2="538.58" gradientUnits="userSpaceOnUse"><stop offset="0" stop-color="#efc12e"/><stop offset="1" stop-color="#ff5240"/></linearGradient><linearGradient id="Gradiente_sem_nome_5-2" x1="169.25" y1="270.29" x2="169.25" y2="35.87" xlink:href="#Gradiente_sem_nome_5"/><linearGradient id="Gradiente_sem_nome_5-3" x1="284.39" y1="250.08" x2="284.39" y2="35.87" xlink:href="#Gradiente_sem_nome_5"/><linearGradient id="Gradiente_sem_nome_5-4" x1="400.36" y1="250.08" x2="400.36" y2="35.87" xlink:href="#Gradiente_sem_nome_5"/><linearGradient id="Gradiente_sem_nome_5-5" x1="515.47" y1="270.29" x2="515.47" y2="35.87" xlink:href="#Gradiente_sem_nome_5"/><linearGradient id="Gradiente_sem_nome_5-6" x1="46.61" y1="538.58" x2="644.97" y2="538.58" xlink:href="#Gradiente_sem_nome_5"/></defs><title>full-logo_1-dusk</title><g class="cls-1"><g id="Camada_2" data-name="Camada 2"><g id="preview"><g id="amarelo"><path class="cls-2" d="M345.79,852.76a314.18,314.18,0,1,1,222.16-92A312.13,312.13,0,0,1,345.79,852.76Z"/><path class="cls-2" d="M446.54,806.77c-5.59-24-18.78-83.58-20.45-118.46l-.29-6.2,4.18-4.6a135.34,135.34,0,0,0,24.95-39l3.94-10.62,10.9.81c2.24.06,32.25,0,70.38-32.61l1.16-1c15.11-13.15,29.45-29.77,42.77-49.55-33.55-10.92-55.1-8.71-55.34-8.68l-6-29.3c8.14-2.38,31-12,38.65-27.82,3.59-7.42,3.49-15.71-.29-25.32-27.4-52.85-35.35-68.73-35.68-69.38l-.41-.89c-.85-2-20.09-50.12,49.69-94.31l.56-.35.59-.31c11.9-6.14,21.85-11.09,30.62-15.45,36.86-18.32,38.37-20.09,39.13-28.44.46-5-13.65-15.34-28-20.41l-.59-.22c-8.18-3.27-19.39-11.72-25.6-26.05-3.33,9.54-4.39,19.5-.79,28.5l9.59,24-14,5.53c-19.44,7.7-72.7,34.51-85.4,65.54-16.49,40.32-18.57,70.56-7.61,111.28l10.93,27.37-19.46,2.26s-9.76,1.25-24.18,6.36c-29.94,10.61-72,34.47-102.16,87.88l-26.12-14.77c34.75-61.48,83.49-89.07,118.26-101.39,4.66-1.65,8.92-3,12.69-4-11.49-45.27-8.6-81.14,9.89-126.32,15.28-37.37,64.26-64.53,88.45-76-15.82-47.6,32.65-94.69,34.77-96.72l37.48-35.84L619.11,161c-7.43,26,5.75,34.19,9.13,35.82,7.52,2.73,50.12,19.63,47.24,51.21-2.37,26.1-18,33.85-55.64,52.58-8.53,4.25-18.19,9.05-29.63,14.94-44.07,28.15-38.6,53.31-37.53,56.92,2,3.91,11.25,22.25,35.39,68.81l.32.61.26.63c7.22,17.73,7.12,35.18-.31,50.44a67.21,67.21,0,0,1-13.86,18.79,241.57,241.57,0,0,1,38,12.37l16,6.68-8.93,14.88c-16.17,26.94-34.1,49.6-53.39,67.44v.13l-5.15,4.5c-34.91,30.38-66.12,38.31-81.93,40.31a171.8,171.8,0,0,1-22.62,34.74c2.74,34.25,15.33,90.08,19.31,107.16Z"/><path class="cls-2" d="M349.32,640.51l.33-.42.22-.31.36-.55c.36-.55.74-1.17,1-1.7l.18-.33a34.14,34.14,0,0,0,2-4.11c.26-.64.52-1.34.83-2.27.24-.7.49-1.46.63-2l.09-.38.12-.37c.3-1,.57-2.29.87-3.77l.36-1.69,2.54-11.85h25.35L386.11,622a52,52,0,0,1,5.5-2.89l.14-.06A68,68,0,0,1,417,613.27c.8,0,1.59,0,2.38,0a63.61,63.61,0,0,1,23.25,4.26l13.27,5.19-9.18,27.58L433,646.46a35.37,35.37,0,0,0-9.35-1.26,36.49,36.49,0,0,0-4.18.25,37.42,37.42,0,0,0-12.94,3.93,21.33,21.33,0,0,0-2.19,1.33l-1.76,1.3c-1.11.85-2.12,1.5-2.93,2l-.12.08c-3.39,2.17-6.59,3.84-9.68,5.46l-.43.22c-2.84,1.46-6.22,3.16-9.79,4.74s-7.14,2.93-10.67,4.1l-57.42,19Z"/><path class="cls-2" d="M396.68,664a90.78,90.78,0,0,1-22.35-3.07l7.73-29-3.87,14.5L382,631.91c7.85,2.06,18.29,2.69,21.08,1.28a4,4,0,0,0-1.36,1.38l28.16-7c3.71,14.83-2.42,23.63-6.41,27.55C416.49,662,406.21,664,396.68,664Z"/><path class="cls-2" d="M330.32,767.61c-1-30.53-1-42.6-1-43.1v-9.27l8.3-4.15c2.12-1.06,13.3-6.36,24.8-6.36,12,0,21.3,5.79,25.62,15.87,6.83,15.94-1.49,30.65-14.26,38.68-3.73,7.1-11.45,18.42-24.17,22.21L331,787.06Z"/><polygon class="cls-2" points="347.68 637.51 384.53 632.43 391.18 707.22 361.49 711.31 347.68 637.51"/><path class="cls-2" d="M362.87,794.53a13.8,13.8,0,0,0-2.63-1.06,32.7,32.7,0,0,0-4-.81,46.91,46.91,0,0,0-4.79-.36l-1.4,0c-1.21,0-2.34,0-3.28.12l-15.07,1.26L329,757.42l15.5-.65c1,0,2-.07,3-.07,1.74,0,3.51.06,5.56.19q4.38.3,8.49,1l.16,0a69.46,69.46,0,0,1,8.36,2.05l1.38-.78c1.18-.67,2.36-1.33,3.52-2,3.31-1.92,5.35-3.45,6.57-4.95l.1-.11a18.12,18.12,0,0,0,3.09-6.64l.39-1.31.23-1.09c.09-.46.2-.92.3-1.38s.19-.85.27-1.28c.11-.77.22-1.53.34-2.29.21-1.32.4-2.56.47-3.55l0-.26,0-.26c.33-3,.56-6.15.8-9.46l.33-4.38.09-1.13c.32-4.35.66-8.85,1.06-13.32.49-5.49,1-10.43,1.9-15.61l0-.19a54.81,54.81,0,0,1,2.6-9.52,38.42,38.42,0,0,1,5.78-10.11l23.93,18.07a8.72,8.72,0,0,0-1.22,2.3,27.1,27.1,0,0,0-.95,4.33c-.53,4-.76,8-1,12.87-.21,4.31-.36,8.79-.51,13.11l0,1c-.05,1.47-.1,2.87-.15,4.28-.11,3.34-.22,6.79-.45,10.35-.09,2.14-.31,4.11-.52,5.86-.07.68-.15,1.36-.22,2l0,.38c-.15,1.19-.33,2.23-.5,3.15l-.18,1-.43,2.51-.56,2.25A50.77,50.77,0,0,1,407.81,773c-4.73,6.27-10.61,10.42-15.21,13.34l-3.8,2.36c-2.74,1.69-5.32,3.29-7.68,4.94l-8.75,6.1Z"/><path class="cls-2" d="M244,807.32l-29.22-6.81c4-17.19,16.68-73.37,19.44-107.71a171.36,171.36,0,0,1-22.62-34.74c-16-2-47.57-10.07-82.85-41.12-20.9-18.39-40.29-42.36-57.63-71.26L62.15,530.8l16-6.68a240.9,240.9,0,0,1,38-12.37A67.43,67.43,0,0,1,102.28,493c-7.42-15.26-7.53-32.71-.31-50.44l.26-.63.32-.61c24.14-46.57,33.43-64.91,35.39-68.81,1.07-3.61,6.55-28.77-37.53-56.92C89,309.66,79.32,304.86,70.78,300.61,33.11,281.88,17.51,274.13,15.14,248c-2.88-31.58,39.72-48.48,47.24-51.21C65.77,195.19,79,187,71.52,161l-.13-.49-14.57-58.3,37.49,35.85c2.12,2,50.6,49.13,34.77,96.72,24.2,11.51,73.17,38.67,88.46,76,18.48,45.2,21.37,81.06,9.88,126.33,3.59,1,7.63,2.24,12,3.79a212.7,212.7,0,0,1,58,31.24c24.51,18.55,45,42.23,60.92,70.38l-26.12,14.77c-30.32-53.66-72.6-77.52-102.72-88.08-14.1-4.95-23.57-6.15-23.66-6.16l-19.48-2.26,11-27.38c11-40.71,8.88-70.95-7.61-111.27-12.7-31-66-57.84-85.41-65.54l-14-5.55,9.58-24c3.69-9.24,2.57-19.23-.75-28.61-6.2,14.4-17.45,22.88-25.65,26.16l-.61.23C58.66,230,44.56,240.27,45,245.31c.75,8.35,2.27,10.12,39.12,28.44,8.78,4.37,18.72,9.31,30.63,15.45l.58.31.56.35c69.78,44.19,50.54,92.29,49.69,94.31l-.41.89c-.32.65-8.27,16.53-35.67,69.38-3.79,9.61-3.88,17.9-.3,25.32,7.63,15.79,30.51,25.44,38.69,27.83l-6,29.29c-.17,0-21.77-2.24-55.35,8.68,13.09,19.43,27.16,35.81,42,48.86,39.85,35.08,71.92,34.3,72.25,34.31l11.12-.62,3.81,10.47a135.42,135.42,0,0,0,24.93,38.93l4.19,4.6-.3,6.21C262.86,723.25,249.59,783.18,244,807.32Z"/><path class="cls-2" d="M321.66,668.63c-3.53-1.17-7-2.5-10.61-4.08s-7-3.3-9.85-4.76l-.4-.21c-3.1-1.62-6.3-3.3-9.64-5.43L291,654c-.81-.52-1.81-1.17-2.93-2l-1.76-1.31a20.3,20.3,0,0,0-2.19-1.33,37.52,37.52,0,0,0-13-3.94,37.11,37.11,0,0,0-4.13-.24,35.37,35.37,0,0,0-9.35,1.26l-13.73,3.8-9.18-27.58L248,617.49a63.56,63.56,0,0,1,23.24-4.26c.79,0,1.59,0,2.38,0A68,68,0,0,1,298.87,619l.14.06a53.14,53.14,0,0,1,5.51,2.89l1.92-11.23h25.33l2.55,11.84q.19.85.36,1.71c.31,1.48.57,2.76.88,3.76l.11.38.1.38c.13.54.38,1.27.62,2,.32,1,.58,1.65.82,2.24a35.46,35.46,0,0,0,2,4.17l.19.32c.28.54.67,1.15,1,1.7l.15.23c.08.12.16.25.25.36l.13.19.09.13.29.36,37.78,47.12Z"/><path class="cls-2" d="M341,781.49c-12.71-3.79-20.44-15.11-24.16-22.21-12.78-8-21.1-22.74-14.27-38.68,4.32-10.08,13.66-15.87,25.62-15.87,11.51,0,22.68,5.3,24.81,6.36l8.29,4.15v9.27c0,.5,0,12.57-1,43.1l-.63,19.45Z"/><polygon class="cls-2" points="299.44 707.22 306.09 632.43 342.94 637.51 329.13 711.31 299.44 707.22"/><path class="cls-2" d="M309.5,793.61c-2.35-1.65-4.94-3.24-7.68-4.94l-3.77-2.34c-4.62-2.94-10.5-7.09-15.24-13.36a50.61,50.61,0,0,1-8.71-19.09l-.57-2.25-.43-2.51-.18-1c-.17-.92-.35-2-.5-3.15l0-.38c-.06-.68-.14-1.36-.22-2-.2-1.75-.43-3.73-.51-5.88-.24-3.57-.35-7-.46-10.39-.05-1.39-.09-2.78-.15-4.17l0-1.07c-.15-4.33-.31-8.8-.52-13.14-.23-4.67-.46-8.89-1-12.85a26.12,26.12,0,0,0-.93-4.26,8.8,8.8,0,0,0-1.24-2.36l23.93-18.07a38.46,38.46,0,0,1,5.81,10.17,55.84,55.84,0,0,1,2.58,9.46l0,.19c.93,5.17,1.41,10.11,1.9,15.58.4,4.55.75,9.1,1.08,13.5l.08,1c.11,1.38.21,2.83.32,4.28.24,3.32.47,6.45.8,9.5l0,.26,0,.26c.07,1,.27,2.23.47,3.55.12.76.24,1.53.35,2.3.07.42.17.84.26,1.25s.21.94.3,1.4l.24,1.09.39,1.32a17.83,17.83,0,0,0,3.09,6.63l.09.12c1.23,1.49,3.26,3,6.61,5,1.12.65,2.3,1.31,3.48,2l1.39.78a68.54,68.54,0,0,1,8.36-2.05l.16,0c2.73-.46,5.56-.79,8.41-1,2.12-.14,3.89-.2,5.63-.2,1,0,2,0,3,.07l15.5.65-2.75,36.24-15.06-1.26c-.94-.08-2.08-.12-3.29-.12l-1.42,0a47,47,0,0,0-4.76.36,32.49,32.49,0,0,0-4,.81,14.07,14.07,0,0,0-2.63,1.06l-9.5,5.19Z"/><path class="cls-2" d="M345.79,852.76a315.39,315.39,0,0,1-75.56-9.15h0l-1.83-.46A313.89,313.89,0,0,1,31.61,538.58,313.21,313.21,0,0,1,124.8,315.26l21.1,21.32A284.25,284.25,0,0,0,274.82,813.83l.95.24a286.1,286.1,0,0,0,152.8-3.56l2.14-.65c1.44-.44,2.92-.92,4.49-1.44l2.21-1.16h1.2c.85-.29,1.71-.59,2.56-.9l2.37-1H444c4.11-1.51,8.22-3.13,12.24-4.83a284.26,284.26,0,0,0,86.71-466.63l20.82-21.6a314.28,314.28,0,0,1-95.87,515.88c-5.33,2.24-10.78,4.36-16.21,6.3l-.11,0h0l-2.37.83-2.15.74-2.23,1.17h-1.28c-2.17.72-4.23,1.37-6.23,2l-2.14.63A314,314,0,0,1,345.79,852.76Z"/><g id="laranja"><path class="cls-2" d="M80.34,0H183.93l79.73.31L267,2.13c6.3,3.43,9.69,9.73,8.86,16.45-1.37,11-12.17,14.57-16.79,16.1-4.35,1.44-9.82,2.85-15.11,4.21l-.64.17,0,13.53-.51,186.55,0,9.78c6,2.61,11.33,6.62,12.58,14.3,1.08,6.56-1.85,13-7.83,17.27l-2.92,2.08-56.65,8.53-3.72.64c-10.58,1.76-21.2,3.72-31.62,5.82-5.12,1-10.3,2.12-15.38,3.24-6.29,1.37-12.67,2.83-19,4.34l-37.93,9.11Z"/><path class="cls-2" d="M95.34,15h88.59l75.88.3c10.27,5.59-51.5,12.87-40,18.9l8.47,4.43,0,13.93-.51,186.54,0,8.51-7.12,4.65c-11,7.18,28.54,8.63,18.17,16l-53.26,8-3.88.66c-10.69,1.79-21.45,3.77-32,5.91-5.16,1-10.42,2.14-15.63,3.28-6.4,1.4-12.88,2.89-19.24,4.42l-19.43,4.66Z"/><path class="cls-2" d="M200.77,0H363.71l-.08,278.37-30.45.29c-11.59.11-23.35.44-34.95,1-9.66.45-19.45,1.05-29.08,1.79-11.56.88-23.28,2-34.84,3.3L200,288.61Z"/><path class="cls-2" d="M215.73,15h133l-.08,248.51-15.6.15c-11.78.12-23.72.45-35.49,1-9.81.45-19.74,1.06-29.54,1.81-11.75.9-23.65,2-35.38,3.35l-17.57,2Z"/><path class="cls-2" d="M484.75,288.61l-34.31-3.89c-11.55-1.31-23.27-2.42-34.84-3.31-9.67-.73-19.45-1.33-29.09-1.78-11.59-.53-23.35-.86-34.94-1l-30.45-.29,0-131.44H331.4l-10.31-5.33,0-21.79L321,0l30.76,0H484l.32,118.55-1.44,6.24,1.51.88v18.85Zm-133.64-40h.75c11.95.12,24.07.46,36,1,9.94.45,20,1.07,30,1.83,11.93.91,24,2.06,35.92,3.41l.85.1-.3-112.12-.38-.22.38.2V139a13.45,13.45,0,0,0-3.07,11.29c-.12-.43-.44-1.23-.82-2.14a6.19,6.19,0,0,0,.22,1.2c-.07-.25-.34-.94-.51-1.39-.27-.72-.59-1.57-.9-2.54q-.15-.32-.27-.6c-1.06-2.38-2.16-4.85-3-7.11-3.77-10.71.72-16.83,3.74-19.54a15.89,15.89,0,0,1,4.45-2.79l0-.2L454.05,30H351l0,93.33.41.21-.41.78v8.13h-4.21l-7.48,14.48h11.69Z"/><path class="cls-2" d="M344.59,136.86l-8.51-4.4V119.79L336,15H469l.28,101.86L464.65,137c-5.24-.18,4.38,11.54-.88,11.38,8.43,4.73-10.06-23.22-2.22-18.63l7.81,4.56v10.25l.34,127.28-17.58-2c-11.72-1.32-23.62-2.45-35.38-3.35-9.8-.75-19.74-1.36-29.54-1.81-11.77-.54-23.71-.87-35.49-1l-15.6-.15,0-116.58"/><path class="cls-2" d="M604.41,314.25l-37.94-9.11c-11.34-2.72-22.89-5.27-34.33-7.58l-14.28-2.88-14.48-2.46c-11.46-2-23.12-3.72-34.65-5.25l-26.64-3.54L441.31,0h163.1V142.59h-30V30h-103L472,257.14l.66.09c11.89,1.58,23.91,3.4,35.73,5.41l29.07,4.95V268l.59.12c11.79,2.38,23.71,5,35.41,7.82l.93.22v-132h30Z"/><path class="cls-2" d="M589.41,144.19v151L570,290.56c-11.5-2.77-23.23-5.36-34.87-7.7l-12.62-2.55v-.06l-16.58-2.82c-11.65-2-23.5-3.78-35.2-5.33l-13.64-1.81L456.35,15H589.41V142.59"/><path class="cls-2" d="M95.34,15h88.59l75.88.3c10.27,5.59-51.5,12.87-40,18.9l8.47,4.43,0,13.93-.51,186.54,0,8.51-7.12,4.65c-11,7.18,28.54,8.63,18.17,16l-53.26,8-3.88.66c-10.69,1.79-21.45,3.77-32,5.91-5.16,1-10.42,2.14-15.63,3.28-6.4,1.4-12.88,2.89-19.24,4.42l-19.43,4.66Z"/><path class="cls-2" d="M215.73,15h133l-.08,248.51-15.6.15c-11.78.12-23.72.45-35.49,1-9.81.45-19.74,1.06-29.54,1.81-11.75.9-23.65,2-35.38,3.35l-17.57,2Z"/><path class="cls-2" d="M344.59,136.86l-8.51-4.4V119.79L336,15H469l.28,101.86L464.65,137c-5.24-.18,4.38,11.54-.88,11.38,8.43,4.73-10.06-23.22-2.22-18.63l7.81,4.56v10.25l.34,127.28-17.58-2c-11.72-1.32-23.62-2.45-35.38-3.35-9.8-.75-19.74-1.36-29.54-1.81-11.77-.54-23.71-.87-35.49-1l-15.6-.15,0-116.58"/><path class="cls-2" d="M589.41,144.19v151L570,290.56c-11.5-2.77-23.23-5.36-34.87-7.7l-12.62-2.55v-.06l-16.58-2.82c-11.65-2-23.5-3.78-35.2-5.33l-13.64-1.81L456.35,15H589.41V142.59"/><path class="cls-2" d="M186.6,35.87q15.65,8.54,31.29,16.7c0,.55,0,1.11,0,1.66v2.51l-.09,30.6c0,1.39,0,2.78,0,4.17l-.06,21.7q-.09,30.89-.17,61.76l-.06,22c0,1.39,0,2.78,0,4.17q0,15.16-.08,30.32c0,.93,0,1.86,0,2.79,0,.46,0,.92,0,1.39Q201.69,245.88,186.05,257l-.3.05q-15.62,2.61-31.16,5.74-7.64,1.54-15.23,3.2-9.39,2.06-18.75,4.3V35.87h66Zm-3.36,142.44.15-63.24q.06-20.52.1-41-5.27-2.7-10.52-5.43l-18.06.5-.27,160.42q9-1.54,18-2.94,5.25-3.67,10.52-7.27Q183.19,198.83,183.24,178.31Z"/><path class="cls-2" d="M333.27,244.09q-17.29.16-34.58,1-14.4.66-28.78,1.76-17.25,1.32-34.47,3.27,0-15.69.08-31.38.25-91.42.49-182.83h34.35q-.19,90-.38,180,14.37-.93,28.76-1.5.12-89.27.25-178.53h34.34q0,88.86-.05,177.71Q333.28,228.83,333.27,244.09Z"/><path class="cls-2" d="M448.73,35.87l.09,31.39.09,35.52q-17.18-.61-34.38-1,0-17.49-.08-35-14.32-.15-28.65-.26l.06,42.22C406.91,119.92,428,131.5,449,143.8c0,.37,0,.74,0,1.11v1.92q0,14.19.08,28.36c0,.92,0,1.84,0,2.76q0,20.37.1,40.75l.09,31.38q-17.22-2-34.47-3.27-14.38-1.09-28.79-1.76-17.28-.8-34.58-1V213.58q0-25.56,0-51.12,17.25.1,34.49.59,0,25.66.07,51.35,14.39.57,28.76,1.5-.06-26.16-.11-52.32c3.52.16,7,.33,10.57.52l-.6-.3q-5-2.85-10-5.65c-21.08-11.87-42.16-23.08-63.21-34v-2.94q0-13.78,0-27.57V91q0-12.32,0-24.63,0-15.25,0-30.51h97.32Z"/><path class="cls-2" d="M564.14,133.5q-8.25,3.85-16.48,7.62,8.25,5.56,16.48,11.36V270.29q-16.93-4.07-34-7.5L530,173.25q5.25.63,10.49,1.31l-.6-.37q-4.95-3.44-9.9-6.77-14.25-9.69-28.56-18.74.13,54.42.26,108.82-17.1-2.91-34.29-5.19-.17-62.31-.34-124.63c0-1,0-2,0-3.06Q467,110.29,467,96c0-.92,0-1.85,0-2.78q-.08-28.65-.16-57.31h34.35q.1,38.61.19,77.2,14.31,8.69,28.59,17.89l-.15-95.09h34.35Z"/></g><circle class="cls-2" cx="345.79" cy="538.58" r="299.18"/><g id="direita"><path class="cls-2" d="M461.15,803.36c-5-21.55-18.45-81.77-20.07-115.76,20-22,27.93-43.89,27.93-43.89s36.95,2,82.14-37.28h0C569,590.93,588.06,569,606.68,538c-47.89-20-79.81-16-79.81-16s69.84-19.95,47.89-73.82c-27.94-53.88-35.91-69.83-35.91-69.83s-16-37.91,43.89-75.82c61.85-31.92,75.81-33.92,77.81-55.86s-37.91-35.92-37.91-35.92-29.93-12-18-53.87l2-8s-45.89,43.89-29.93,83.8l4,10S504.93,272.6,487,316.49s-20,77.81-8,121.71l4,10s-11,1.28-27.46,7.12c-29.59,10.49-76.89,35.69-110.21,94.63"/><path class="cls-2" d="M437,632a50.23,50.23,0,0,0-19.3-1.46,52.58,52.58,0,0,0-18.22,5.59,36,36,0,0,0-4,2.44l-2,1.46c-.7.54-1.43,1-2.15,1.46-2.89,1.85-5.86,3.4-8.83,5s-6,3-9,4.36-6.13,2.52-9.32,3.58l-9.3,3.08,6.07-7.58c.23-.29.59-.74.88-1.15s.6-.87.9-1.31c.57-.9,1.14-1.82,1.66-2.77a50.17,50.17,0,0,0,2.83-5.91c.42-1,.79-2.07,1.15-3.12s.71-2.12,1-3.21c.65-2.16,1.05-4.39,1.54-6.67h.57a35.34,35.34,0,0,1,.51,7.06,38.24,38.24,0,0,1-.85,7.12,39.83,39.83,0,0,1-2.12,6.93c-.46,1.13-1,2.24-1.54,3.33-.3.54-.59,1.09-.92,1.62a17,17,0,0,1-1.1,1.67l-3.22-4.5c3-1.22,6-2.43,9.06-3.58s6.11-2.27,9.11-3.51a82.52,82.52,0,0,0,8.69-4.12c.69-.39,1.37-.77,2-1.2l1-.64c.37-.25.73-.5,1.11-.73a37.51,37.51,0,0,1,4.58-2.46,53.38,53.38,0,0,1,19.71-4.48,49.57,49.57,0,0,1,19.65,3.2Z"/><path class="cls-2" d="M378.19,646.42s43.91,11.71,37.17-15.25"/><path class="cls-2" d="M344.31,724.51s23.95-12,29.93,2-12,21.94-12,21.94-6,15.39-17,18.67C344.31,736.48,344.31,724.51,344.31,724.51Z"/><polygon class="cls-2" points="370.99 649.44 376.24 708.55 365.32 650.22 370.99 649.44"/><path class="cls-2" d="M345.1,771.75a65.13,65.13,0,0,1,7,.11c2.31.16,4.62.42,6.92.81a53.39,53.39,0,0,1,6.84,1.7,33.81,33.81,0,0,1,6.57,3l-2.48.06c4.12-2.64,8.41-4.92,12.49-7.27s7.84-5,10.69-8.44a32.71,32.71,0,0,0,6-12.19l.49-1.67.37-1.72c.23-1.15.52-2.29.71-3.45.32-2.34.78-4.66.95-7,.52-4.7.8-9.51,1.17-14.27s.72-9.55,1.14-14.32.88-9.56,1.73-14.29a40.83,40.83,0,0,1,1.86-7,23.88,23.88,0,0,1,3.57-6.22,23.5,23.5,0,0,0-3.29,6.32,39.39,39.39,0,0,0-1.57,7c-.65,4.72-.91,9.49-1.14,14.26s-.39,9.56-.56,14.34-.27,9.55-.6,14.38c-.08,2.41-.44,4.82-.68,7.23-.15,1.2-.4,2.4-.59,3.6l-.31,1.81L402,750.3a35.86,35.86,0,0,1-6.09,13.59,41.73,41.73,0,0,1-11.31,9.75c-4.11,2.6-8.18,5-12,7.67l-1.14.79-1.34-.73a29.93,29.93,0,0,0-5.65-2.32,48.67,48.67,0,0,0-6.18-1.26c-2.1-.27-4.23-.43-6.37-.49a62.9,62.9,0,0,0-6.33.15Z"/></g><g id="esquerda"><path class="cls-2" d="M345.31,549.93C311.76,490.58,264,465.44,234.5,455.08c-16.15-5.66-26.85-6.9-26.85-6.9l4-10c12-43.9,10-77.81-8-121.71s-93.77-73.81-93.77-73.81l4-10c16-39.91-29.92-83.8-29.92-83.8l2,8c12,41.9-18,53.87-18,53.87s-39.9,14-37.9,35.92,16,23.94,77.81,55.86c59.85,37.91,43.89,75.82,43.89,75.82s-8,15.95-35.91,69.83c-22,53.87,47.88,73.82,47.88,73.82s-31.92-4-79.8,16c18.31,30.53,37.1,52.26,54.67,67.72,45.57,40.11,83,38,83,38s8,21.94,27.94,43.89c-1.64,34.27-15.29,95.26-20.2,116.31"/><path class="cls-2" d="M253.44,631.46a49.57,49.57,0,0,1,19.65-3.2,53.29,53.29,0,0,1,19.71,4.48,37.63,37.63,0,0,1,4.59,2.46c.37.23.73.48,1.1.73l1,.64c.62.43,1.31.81,2,1.2a82.69,82.69,0,0,0,8.7,4.12c3,1.24,6.05,2.35,9.1,3.51s6.08,2.36,9.07,3.58l-3.23,4.5a17,17,0,0,1-1.1-1.67c-.33-.53-.61-1.08-.91-1.62-.57-1.09-1.09-2.2-1.55-3.33a41.63,41.63,0,0,1-2.12-6.93,39.1,39.1,0,0,1-.85-7.12,35.34,35.34,0,0,1,.51-7.06h.57c.49,2.28.89,4.51,1.55,6.67.27,1.09.62,2.16,1,3.21s.73,2.1,1.15,3.12a48.64,48.64,0,0,0,2.83,5.91c.51,1,1.08,1.87,1.66,2.77.29.44.58.89.89,1.31s.65.86.88,1.15l6.08,7.58-9.31-3.08c-3.19-1.06-6.26-2.25-9.32-3.58s-6-2.83-9-4.36-5.93-3.1-8.83-5c-.72-.46-1.44-.92-2.15-1.46l-1.95-1.46a36.17,36.17,0,0,0-4-2.44,52.58,52.58,0,0,0-18.22-5.59,50.24,50.24,0,0,0-19.3,1.46Z"/><path class="cls-2" d="M346.31,724.51s-23.94-12-29.93,2,12,21.94,12,21.94,6,15.39,17,18.67C346.31,736.48,346.31,724.51,346.31,724.51Z"/><polygon class="cls-2" points="325.3 650.22 314.39 708.55 319.64 649.44 325.3 650.22"/><path class="cls-2" d="M345.1,777.45a63,63,0,0,0-6.34-.15c-2.13.06-4.27.22-6.37.49a48.16,48.16,0,0,0-6.17,1.26,29.39,29.39,0,0,0-5.65,2.32l-1.35.73-1.13-.79c-3.84-2.68-7.92-5.07-12-7.67s-8.23-5.66-11.31-9.75a35.69,35.69,0,0,1-6.08-13.59l-.45-1.78-.32-1.81c-.19-1.2-.44-2.4-.59-3.6-.23-2.41-.6-4.82-.68-7.23-.33-4.83-.41-9.59-.6-14.38s-.33-9.56-.55-14.34-.5-9.54-1.15-14.26a40.27,40.27,0,0,0-1.56-7,23.82,23.82,0,0,0-3.3-6.32,23.88,23.88,0,0,1,3.57,6.22,40.86,40.86,0,0,1,1.87,7c.84,4.73,1.29,9.52,1.72,14.29s.78,9.54,1.14,14.32.66,9.57,1.17,14.27c.17,2.37.63,4.69.95,7,.19,1.16.48,2.3.71,3.45l.37,1.72.5,1.67a32.56,32.56,0,0,0,6,12.19,38.22,38.22,0,0,0,10.68,8.44c4.08,2.35,8.37,4.63,12.49,7.27l-2.48-.06a33.81,33.81,0,0,1,6.57-3,53.8,53.8,0,0,1,6.84-1.7c2.3-.39,4.61-.65,6.92-.81a65.28,65.28,0,0,1,7-.11Z"/></g><path class="cls-2" d="M658.54,248.33a38.85,38.85,0,0,0-2-9.28,17.67,17.67,0,0,0-2.12-8.88,19.32,19.32,0,0,0-16.27-10.1c-.47-.32-.93-.65-1.4-1-3.76-2.5-8-4-11.91-6.08-.83-.44-1.64-.92-2.42-1.43-.26-.17-.84-.58-1-.74-1.92-1.67-3.7-3.5-5.48-5.32a13.64,13.64,0,0,0-7.25-3.83q-.9-3.79-1.47-7.81c-.48-3.39-3-6.25-6.07-8.1a40.67,40.67,0,0,0,.48-4.89c0-.85,1-2.49-.18-1,3.2-4,3.93-9.55,0-13.48-3.33-3.32-10.26-4-13.48,0-5.22,6.57-1.32,11.76-1.87,20.06-.14.22,1.21,19.71,1.07,19.93-6.44,10.71-8.71,14.73-3.85,26.36-.41,1.26-8.48-3-8.64-1.58a34.12,34.12,0,0,0,1.81,14.22,13.55,13.55,0,0,0-3.5,1.46c-11.4,6.76-22.63,13.21-33.09,21a80.75,80.75,0,0,0-22,9.74,15,15,0,0,0-7,11.83c-7.4,5.2-16.43,13.1-20.21,22.12a14.27,14.27,0,0,0-4,4.39,42.91,42.91,0,0,0-5.43,17.21c-1.42,4.6-3,9.12-4.74,13.42s-4.27,9.07-5.1,14c-.91,5.38-.36,10-1.71,13.87-1.67,4.78.22,10.39,3.83,14-.28,1.83-.52,3.68-.7,5.54a50.54,50.54,0,0,0,.28,12.66,11.28,11.28,0,0,0-.36,3.83c1.09,13.74,4.42,27.32,8.15,40.75a18.68,18.68,0,0,0-5.87,1.23c-9.24,3.59-18.8,7-28.31,10.59-1.23.23-2.45.5-3.66.84a81.8,81.8,0,0,0-21.82,9.85c-14.77,7-28.59,15.65-39.95,27.59s-20.07,25.71-27.67,40.2c-3,2.57-5.88,5.2-8.72,7.92-7.64-7.62-14.47-16-21.3-24.36-.18-.21-.35-.43-.53-.65a23.47,23.47,0,0,0-6.91-18,196.48,196.48,0,0,0-77.66-47.25,171,171,0,0,0-18.93-5L207.59,449c.31-1.59.53-3.18.69-4.79,6.13-8.46,7.41-18.59,5.53-28.6a82.85,82.85,0,0,0,2.1-15.48,19,19,0,0,0-1.31-7.72l.21-2c1.25-12.85.74-25.79.22-38.67a24.14,24.14,0,0,0-8.25-17.05,23.28,23.28,0,0,0-2.6-7.75c-1.14-2.08-2.3-4.15-3.46-6.21-.2-1.74-.42-3.49-.67-5.24-.83-5.63-5.45-10.64-10.93-13.53-9.39-13.62-20.52-25.77-35.33-34.32-11.61-6.71-23.88-12.41-35.81-18.51-4.14-2.11-8.26-4.23-12.44-6.21a18.15,18.15,0,0,0,4.81-5.88c5-10,4.46-23.53,2-34.19-2.7-11.74-11.13-22-12-34.13-.51-7.31-12-7.36-11.44,0a43.14,43.14,0,0,0,1.21,7.43,4.32,4.32,0,0,0-3.27,3.9c-.91,6.34-1.7,12.72-2.62,19.07a5.43,5.43,0,0,0-4.8,1.58L69.34,211.24l-8.43,5c-.07,0-.14.1-.22.14a22.69,22.69,0,0,0-4.53.68c-2.19.56-4.48,3.09-4.2,5.51a.17.17,0,0,1,0,.07,20.65,20.65,0,0,0-3.12.6c-14.75,4.06-21.78,21.8-14,34.94a37.14,37.14,0,0,0,17.55,15.07,29.72,29.72,0,0,0,8.93,2.13c4,4.3,5.26-4.07,10-.58,5,3.72,36.39,9.38,41.57,12.86s-12.1,16.49-6.53,19.37c2.68,1.4,5.38,2.76,8,4.29,2,1.17,4.2,3.32,6.35,4.35-1.43-.74-1.89-1.74.32.15h0l.34.16-.32-.13c.94.79,1.86,1.61,2.76,2.45,1.82,1.7,3.58,3.47,5.26,5.31s3.38,3.88,5,5.87a2.31,2.31,0,0,0,.14.19c.73,1,1.48,2.06,2.21,3.1a318.76,318.76,0,0,1,16.93,28.11,19.16,19.16,0,0,0,2.33,3.29,17.17,17.17,0,0,0-2.83,11.09,3.16,3.16,0,0,1,0,.32,22,22,0,0,0-5,14.11c-1.18,1.79-2.51,3.48-3.61,5.32a53.49,53.49,0,0,0-4.66,10.89c0,.15-.13.35-.22.57s-.39.48-.5.6c-.84.91-1.71,1.8-2.53,2.73a48.21,48.21,0,0,0-6.45,8.72,37.42,37.42,0,0,0-4.54,16.2,112.09,112.09,0,0,0-9.78,20c-2.18,5.87-4.09,12.4-3.66,18.69.44,6.59,2.67,12.92,7.28,17.77a24.48,24.48,0,0,0,2.13,2c2.47,5.46,6.24,9.3,11.32,12.61a17,17,0,0,0,3.76,1.83,26.66,26.66,0,0,0,5.84,3.72,21.48,21.48,0,0,0,7.34,4.42,25.39,25.39,0,0,0,5.38,3.06l.71.61h-.16a24.84,24.84,0,0,0-16.14,6.31,5.5,5.5,0,0,0-4.82.44c-.43.34-.89.65-1.34,1A32.77,32.77,0,0,0,120,528a16,16,0,0,0-6.17,3.45h0l-.66.07c-6.14-4.14-15-4.3-20.3,1.5a17,17,0,0,0-2.65,3.87c-5.11,1.17-6.83,9-1.57,10.74a13.71,13.71,0,0,0,4.22,7.63q4.25,3.9,8.28,8a14.55,14.55,0,0,0,1.44,3.29A50.23,50.23,0,0,0,112,578.33a64.35,64.35,0,0,0,5.81,4.59c.59.83,1.2,1.66,1.78,2.49a20.38,20.38,0,0,0,3.19,3.57,50.62,50.62,0,0,0,7.41,10.26c5.28,5.35,12,9.71,18,14.26q3.4,2.61,6.84,5.17a22.59,22.59,0,0,0,3,3.8,23.75,23.75,0,0,0,16.63,7,57.27,57.27,0,0,0,21.94,8.23,19.62,19.62,0,0,0,9.34,5.26c5.19,1.12,10.75,1.26,16.19,1.45A350.69,350.69,0,0,0,247.91,685a19.26,19.26,0,0,0-1.62,8.22,328.78,328.78,0,0,0,2.52,33.76c-1.05,1.8-2.1,3.59-3.17,5.36-4.51,7.47-8.35,15.6-7.59,24.57a62.19,62.19,0,0,0,2.19,11.38,140.55,140.55,0,0,0-7.86,16.47,12.77,12.77,0,0,0-.69,2.28,13.4,13.4,0,0,0-1.12,1.59c-4.1,7-1.31,15.27,5.13,19.56,8.33,5.56,18,8.8,27.6,11.33,1,1.29,7.52,1.6,9.1,2.36,28.61,13.71,46.57,9.41,84.83,11.44a150.44,150.44,0,0,0,50.06-6c7.73-2.34,15.57-4.78,22.89-8.22,3.26-1.53,7-1,10-3,1-.68,2.71.59,3.82,0,.08.07,3-1.93,3.81-1.9,7.45.93,10.72-9.72,10.41-16.77a14.19,14.19,0,0,0-3.86-9.52c-.32-5.08-1.71-10.49-2.48-15.44q-2-12.69-3.95-25.37c-1.65-10.57-3.6-21.12-7-31.17-.77-5.34-1.75-10.68-1.22-16.08a2.34,2.34,0,0,0-1.74-2.28c0-2.21-.08-4.43-.24-6.66a239.66,239.66,0,0,0,32.82-47.67c.16,0,.33-.07.49-.12a55.1,55.1,0,0,0,7.79-3,55.75,55.75,0,0,1,12.41-1.7c8.42-.35,16.05-2.15,23.37-6.44,6.16-3.63,11.65-8.48,17.12-13s11.5-9.31,16.6-14.53c.92-.95,1.8-2,2.64-3,11-8.33,21.42-17.33,30.26-27.92a17.2,17.2,0,0,0,3.8-8,84.09,84.09,0,0,0,11.34-9.66c8.62-8.78,2.39-24.45-10.11-24.41-9.72,0-19.61-2-29.23-3.26L533.06,525a38.2,38.2,0,0,0-.21-8.49,44.5,44.5,0,0,0,13.5-7.23c12.07-5.4,22-13.7,26.83-27a42.17,42.17,0,0,0-1.06-30.22,16.28,16.28,0,0,0-2.61-11c-2.93-4.52-5.18-6.16-7.86-10.07-.47-.68-.92-1.38-1.37-2.07-.48-1.13-1-2.25-1.57-3.36a79.19,79.19,0,0,0-4.33-7,61.7,61.7,0,0,1-3.51-8.36,16.14,16.14,0,0,0-6-8c-.45-1.27-.9-2.56-1.36-3.89-5-14.84-9.46-28.62-8.06-43.88a21.51,21.51,0,0,0,4.18-4.23c3.79-5,6.38-10.66,9.81-15.88,2.82-4.29,7.61-9.14,11.66-13.64,6.31-7,12.5-14.2,19.16-20.91,4.61,2.68,10.76,3.13,14.86.23l13.06-9.26a16.81,16.81,0,0,0,6.44-8.7c14-3.62,27.82-9.06,36.34-21.2C655.43,258.4,659,253.4,658.54,248.33Z"/><path class="cls-2" d="M658.54,248.33a38.85,38.85,0,0,0-2-9.28,17.67,17.67,0,0,0-2.12-8.88,19.32,19.32,0,0,0-16.27-10.1c-.47-.32-.93-.65-1.4-1-3.76-2.5-8-4-11.91-6.08-.83-.44-1.64-.92-2.42-1.43-.26-.17-.84-.58-1-.74-1.92-1.67-3.7-3.5-5.48-5.32a13.64,13.64,0,0,0-7.25-3.83q-.9-3.79-1.47-7.81c-.48-3.39-3-6.25-6.07-8.1a40.67,40.67,0,0,0,.48-4.89c0-.85,1-2.49-.18-1,3.2-4,3.93-9.55,0-13.48-3.33-3.32-10.26-4-13.48,0-5.22,6.57-1.32,11.76-1.87,20.06-.14.22,1.21,19.71,1.07,19.93-6.44,10.71-8.71,14.73-3.85,26.36-.41,1.26-8.48-3-8.64-1.58a34.12,34.12,0,0,0,1.81,14.22,13.55,13.55,0,0,0-3.5,1.46c-11.4,6.76-22.63,13.21-33.09,21a80.75,80.75,0,0,0-22,9.74,15,15,0,0,0-7,11.83c-7.4,5.2-16.43,13.1-20.21,22.12a14.27,14.27,0,0,0-4,4.39,42.91,42.91,0,0,0-5.43,17.21c-1.42,4.6-3,9.12-4.74,13.42s-4.27,9.07-5.1,14c-.91,5.38-.36,10-1.71,13.87-1.67,4.78.22,10.39,3.83,14-.28,1.83-.52,3.68-.7,5.54a50.54,50.54,0,0,0,.28,12.66,11.28,11.28,0,0,0-.36,3.83c1.09,13.74,4.42,27.32,8.15,40.75a18.68,18.68,0,0,0-5.87,1.23c-9.24,3.59-18.8,7-28.31,10.59-1.23.23-2.45.5-3.66.84a81.8,81.8,0,0,0-21.82,9.85c-14.77,7-28.59,15.65-39.95,27.59s-20.07,25.71-27.67,40.2c-3,2.57-5.88,5.2-8.72,7.92-7.64-7.62-14.47-16-21.3-24.36-.18-.21-.35-.43-.53-.65a23.47,23.47,0,0,0-6.91-18,196.48,196.48,0,0,0-77.66-47.25,171,171,0,0,0-18.93-5L207.59,449c.31-1.59.53-3.18.69-4.79,6.13-8.46,7.41-18.59,5.53-28.6a82.85,82.85,0,0,0,2.1-15.48,19,19,0,0,0-1.31-7.72l.21-2c1.25-12.85.74-25.79.22-38.67a24.14,24.14,0,0,0-8.25-17.05,23.28,23.28,0,0,0-2.6-7.75c-1.14-2.08-2.3-4.15-3.46-6.21-.2-1.74-.42-3.49-.67-5.24-.83-5.63-5.45-10.64-10.93-13.53-9.39-13.62-20.52-25.77-35.33-34.32-11.61-6.71-23.88-12.41-35.81-18.51-4.14-2.11-8.26-4.23-12.44-6.21a18.15,18.15,0,0,0,4.81-5.88c5-10,4.46-23.53,2-34.19-2.7-11.74-11.13-22-12-34.13-.51-7.31-12-7.36-11.44,0a43.14,43.14,0,0,0,1.21,7.43,4.32,4.32,0,0,0-3.27,3.9c-.91,6.34-1.7,12.72-2.62,19.07a5.43,5.43,0,0,0-4.8,1.58L69.34,211.24l-8.43,5c-.07,0-.14.1-.22.14a22.69,22.69,0,0,0-4.53.68c-2.19.56-4.48,3.09-4.2,5.51a.17.17,0,0,1,0,.07,20.65,20.65,0,0,0-3.12.6c-14.75,4.06-21.78,21.8-14,34.94a37.14,37.14,0,0,0,17.55,15.07,29.72,29.72,0,0,0,8.93,2.13c4,4.3,5.26-4.07,10-.58,5,3.72,36.39,9.38,41.57,12.86s-12.1,16.49-6.53,19.37c2.68,1.4,5.38,2.76,8,4.29,2,1.17,4.2,3.32,6.35,4.35-1.43-.74-1.89-1.74.32.15h0l.34.16-.32-.13c.94.79,1.86,1.61,2.76,2.45,1.82,1.7,3.58,3.47,5.26,5.31s3.38,3.88,5,5.87a2.31,2.31,0,0,0,.14.19c.73,1,1.48,2.06,2.21,3.1a318.76,318.76,0,0,1,16.93,28.11,19.16,19.16,0,0,0,2.33,3.29,17.17,17.17,0,0,0-2.83,11.09,3.16,3.16,0,0,1,0,.32,22,22,0,0,0-5,14.11c-1.18,1.79-2.51,3.48-3.61,5.32a53.49,53.49,0,0,0-4.66,10.89c0,.15-.13.35-.22.57s-.39.48-.5.6c-.84.91-1.71,1.8-2.53,2.73a48.21,48.21,0,0,0-6.45,8.72,37.42,37.42,0,0,0-4.54,16.2,112.09,112.09,0,0,0-9.78,20c-2.18,5.87-4.09,12.4-3.66,18.69.44,6.59,2.67,12.92,7.28,17.77a24.48,24.48,0,0,0,2.13,2c2.47,5.46,6.24,9.3,11.32,12.61a17,17,0,0,0,3.76,1.83,26.66,26.66,0,0,0,5.84,3.72,21.48,21.48,0,0,0,7.34,4.42,25.39,25.39,0,0,0,5.38,3.06l.71.61h-.16a24.84,24.84,0,0,0-16.14,6.31,5.5,5.5,0,0,0-4.82.44c-.43.34-.89.65-1.34,1A32.77,32.77,0,0,0,120,528a16,16,0,0,0-6.17,3.45h0l-.66.07c-6.14-4.14-15-4.3-20.3,1.5a17,17,0,0,0-2.65,3.87c-5.11,1.17-6.83,9-1.57,10.74a13.71,13.71,0,0,0,4.22,7.63q4.25,3.9,8.28,8a14.55,14.55,0,0,0,1.44,3.29A50.23,50.23,0,0,0,112,578.33a64.35,64.35,0,0,0,5.81,4.59c.59.83,1.2,1.66,1.78,2.49a20.38,20.38,0,0,0,3.19,3.57,50.62,50.62,0,0,0,7.41,10.26c5.28,5.35,12,9.71,18,14.26q3.4,2.61,6.84,5.17a22.59,22.59,0,0,0,3,3.8,23.75,23.75,0,0,0,16.63,7,57.27,57.27,0,0,0,21.94,8.23,19.62,19.62,0,0,0,9.34,5.26c5.19,1.12,10.75,1.26,16.19,1.45A350.69,350.69,0,0,0,247.91,685a19.26,19.26,0,0,0-1.62,8.22,328.78,328.78,0,0,0,2.52,33.76c-1.05,1.8-2.1,3.59-3.17,5.36-4.51,7.47-8.35,15.6-7.59,24.57a62.19,62.19,0,0,0,2.19,11.38,140.55,140.55,0,0,0-7.86,16.47,12.77,12.77,0,0,0-.69,2.28,13.4,13.4,0,0,0-1.12,1.59c-4.1,7-1.31,15.27,5.13,19.56,8.33,5.56,18,8.8,27.6,11.33,1,1.29,7.52,1.6,9.1,2.36,28.61,13.71,46.57,9.41,84.83,11.44a150.44,150.44,0,0,0,50.06-6c7.73-2.34,15.57-4.78,22.89-8.22,3.26-1.53,7-1,10-3,1-.68,2.71.59,3.82,0,.08.07,3-1.93,3.81-1.9,7.45.93,10.72-9.72,10.41-16.77a14.19,14.19,0,0,0-3.86-9.52c-.32-5.08-1.71-10.49-2.48-15.44q-2-12.69-3.95-25.37c-1.65-10.57-3.6-21.12-7-31.17-.77-5.34-1.75-10.68-1.22-16.08a2.34,2.34,0,0,0-1.74-2.28c0-2.21-.08-4.43-.24-6.66a239.66,239.66,0,0,0,32.82-47.67c.16,0,.33-.07.49-.12a55.1,55.1,0,0,0,7.79-3,55.75,55.75,0,0,1,12.41-1.7c8.42-.35,16.05-2.15,23.37-6.44,6.16-3.63,11.65-8.48,17.12-13s11.5-9.31,16.6-14.53c.92-.95,1.8-2,2.64-3,11-8.33,21.42-17.33,30.26-27.92a17.2,17.2,0,0,0,3.8-8,84.09,84.09,0,0,0,11.34-9.66c8.62-8.78,2.39-24.45-10.11-24.41-9.72,0-19.61-2-29.23-3.26L533.06,525a38.2,38.2,0,0,0-.21-8.49,44.5,44.5,0,0,0,13.5-7.23c12.07-5.4,22-13.7,26.83-27a42.17,42.17,0,0,0-1.06-30.22,16.28,16.28,0,0,0-2.61-11c-2.93-4.52-5.18-6.16-7.86-10.07-.47-.68-.92-1.38-1.37-2.07-.48-1.13-1-2.25-1.57-3.36a79.19,79.19,0,0,0-4.33-7,61.7,61.7,0,0,1-3.51-8.36,16.14,16.14,0,0,0-6-8c-.45-1.27-.9-2.56-1.36-3.89-5-14.84-9.46-28.62-8.06-43.88a21.51,21.51,0,0,0,4.18-4.23c3.79-5,6.38-10.66,9.81-15.88,2.82-4.29,7.61-9.14,11.66-13.64,6.31-7,12.5-14.2,19.16-20.91,4.61,2.68,10.76,3.13,14.86.23l13.06-9.26a16.81,16.81,0,0,0,6.44-8.7c14-3.62,27.82-9.06,36.34-21.2C655.43,258.4,659,253.4,658.54,248.33Z"/><path class="cls-2" d="M374.86,789.26s1.95,12.83-7.69,34.69"/><path class="cls-2" d="M315.94,789.58s-2.49,12.51,7.16,34.37"/><path class="cls-2" d="M148,515s98.7,7,144.65,15.43c44.37,8.17,35.8,17.86,50.14,16.07,32.8-4.08,59.73-17.87,82.93-20.57,114.43-13.28,107.57-7.28,107.57-7.28S616.47,496.33,546,395.4c-16.39-64.6-3.86-70.07,97.39-121.18,38.58-23.14,8.68-57.21-33.75-71.67-13.09-12.11-7.07-49.5-7.07-49.5s-24.21,32.29-26.73,80.48c-1.39,26.49-47.2,34.59-47.2,34.59S492,294.8,475.9,351.69c-15.23,53.89-3.08,79.69,4.5,95.14-48.86,12.22-121.07,70.79-135.54,101.65-23.25-36.08-81.1-88.47-135.1-102.93,16.71-93.22,1.75-155.95-91.78-197.42-19.29-9.64,3.71-22.12-4-54.91s-32.78-54-32.78-54,13.17,56.25-9,67.83-78.43,44.35-4.5,70.07c67.48,23.47,89.35,68.78,85.5,90s-51.75,97.07-37.29,120.21S148,515,148,515Z"/><path class="cls-2" d="M148,515s98.7,7,144.65,15.43c44.37,8.17,35.8,17.86,50.14,16.07,32.8-4.08,59.73-17.87,82.93-20.57,114.43-13.28,107.57-7.28,107.57-7.28S616.47,496.33,546,395.4c-16.39-64.6-3.86-70.07,97.39-121.18,38.58-23.14,8.68-57.21-33.75-71.67-13.09-12.11-7.07-49.5-7.07-49.5s-24.21,32.29-26.73,80.48c-1.39,26.49-47.2,34.59-47.2,34.59S492,294.8,475.9,351.69c-15.23,53.89-3.08,79.69,4.5,95.14-48.86,12.22-121.07,70.79-135.54,101.65-23.25-36.08-81.1-88.47-135.1-102.93,16.71-93.22,1.75-155.95-91.78-197.42-19.29-9.64,3.71-22.12-4-54.91s-32.78-54-32.78-54,13.17,56.25-9,67.83-78.43,44.35-4.5,70.07c67.48,23.47,89.35,68.78,85.5,90s-51.75,97.07-37.29,120.21S148,515,148,515Z"/><g id="barba"><path class="cls-2" d="M372.21,773s11.36,22.94,4.23,37C373.1,801,372,799.7,372,799.7s2.55,9.38-1,18.49l-5.28-8.47a40.8,40.8,0,0,1-2.7,19c-4,10.44-25.34,7.07-25.34,7.07l4.9-62.8Z"/><path class="cls-2" d="M318.71,773s-11.36,22.94-4.23,37c3.34-8.91,4.45-10.24,4.45-10.24s-2.49,10,.94,18.49l5.17-8.47s-.91,6.93,1.76,17.85,16.31.38,16.31.38l5.22-55Z"/><path class="cls-2" d="M374.33,776s22.07-42.85-15.22-45.85-16.92,34.5-16.92,34.5S338.54,781.55,374.33,776Z"/><path class="cls-2" d="M347.28,764.62s3.64,16.93-32.14,11.35c0,0-22.07-42.85,15.21-45.85"/></g><path class="cls-2" d="M135.35,325.92A298.25,298.25,0,0,0,46.61,538.58c0,139.79,95.88,257.19,225.46,290h0a301.12,301.12,0,0,0,160.86-3.75h0c2.72-.82,5.43-1.69,8.12-2.59h0c1.77-.6,3.51-1.2,5.25-1.83l.24-.08h0q7.81-2.79,15.42-6C569.53,769,645,662.59,645,538.58a298.33,298.33,0,0,0-91.64-215.49"/><path class="cls-2" d="M307.23,642.8a37.7,37.7,0,0,1-6.61-3.21,76.82,76.82,0,0,0-6.8-4.21c-4.82-2.32-10.13-3.64-15.21-5.24a2.18,2.18,0,0,0-1.24,0,2.33,2.33,0,0,0-.95-.19c-2.79,0-3,3.94-.75,4.65a14.85,14.85,0,0,0,.31,1.7,2.06,2.06,0,0,0-.45,1.37,7.68,7.68,0,0,0,2.3,5.29,11.12,11.12,0,0,0,1,1.28,9.34,9.34,0,0,0,6.89,2.85h.35c1.59.28,3.23.4,4.82.52a74,74,0,0,0,11.63,0,2.44,2.44,0,0,0,1.77-.87c.56.23,1.12.45,1.69.66a2.4,2.4,0,0,0,2.93-1.66A2.42,2.42,0,0,0,307.23,642.8Z"/><path class="cls-2" d="M415.2,631.91a2.29,2.29,0,0,0-2.88-1.81l-8.44,2.23a28.54,28.54,0,0,0-7.76,2.82,46.68,46.68,0,0,0-5.95,4.92c-1.74,1.51-3.76,2.79-6.14,2.61a2.31,2.31,0,0,0-1.37.38c-2.58.46-2.44,4.72.47,4.72a2.36,2.36,0,0,0,1.22-.33,6.77,6.77,0,0,0,.78,0c2.91,0,5.82,0,8.73,0h.2a3.41,3.41,0,0,0,1.4.81c1.67.46,3.81-.19,5.5-.41,3.75-.5,7.56-1.17,10.59-3.61a9.8,9.8,0,0,0,3.77-8.32A2.51,2.51,0,0,0,415.2,631.91Z"/><path class="cls-2" d="M219,400.39c7-40.54-6.84-84.14-36-113.16-13.13-13.07-29.28-24-45.87-32.21-4.29-2.13-36.94-24.87-16.13,1.66,3.68,4.69,8.85,10.32,13.22,13.47a217.26,217.26,0,0,1,65.66,76.58A212.48,212.48,0,0,1,219,400.39Z"/><path class="cls-2" d="M475.23,400.39c-7-40.54,6.84-84.14,36-113.16,13.13-13.07,29.28-24,45.87-32.21,4.3-2.13,36.94-24.87,16.13,1.66-3.68,4.69-8.85,10.32-13.22,13.47a217.36,217.36,0,0,0-65.66,76.58A212.45,212.45,0,0,0,475.23,400.39Z"/><path class="cls-2" d="M609.3,218c2.43,2.36,5.27,4.51,8.59,5.11s7.21-.75,8.61-3.83c1.16-2.53.41-5.59-1.11-7.92s-3.71-4.12-5.73-6a58.24,58.24,0,0,1-13.49-19.35c-1.42-3.29-4-19.32-9.16-10.49-3.25,5.61-1,17,.68,22.74A44.56,44.56,0,0,0,609.3,218Z"/><path class="cls-2" d="M82.26,218c-2.43,2.36-5.27,4.51-8.6,5.11s-7.2-.75-8.61-3.83c-1.15-2.53-.4-5.59,1.12-7.92s3.7-4.12,5.73-6a58.24,58.24,0,0,0,13.49-19.35c1.42-3.29,4-19.32,9.16-10.49,3.25,5.61,1,17-.69,22.74A44.54,44.54,0,0,1,82.26,218Z"/><path class="cls-2" d="M588.06,547.32c3,.56,6.09,1.19,9,.2a9.16,9.16,0,0,0,5.95-8.07c.83-14.33-32.35-7.54-39-9.31-10.32-2.76-15.3-16.22-25.86-15.25-20.85,1.91-43.07,22.25-50,45.21C521.54,548.28,553.41,540.92,588.06,547.32Z"/><path class="cls-2" d="M102.93,547.32c-3,.56-6.1,1.19-9,.2a9.18,9.18,0,0,1-6-8.07c-.83-14.33,32.36-7.54,39-9.31,10.32-2.76,15.3-16.22,25.85-15.25,20.85,1.91,43.08,22.25,50,45.21C169.45,548.28,137.57,540.92,102.93,547.32Z"/><path class="cls-2" d="M477.85,624.28c-5.21,2.31-11,5-12.93,9.75-1.12,2.79-1,5.41,1.91,7.62,3.81,2.86,6.44,4.08,10.37,3.07,42.39-10.91,80.76-36.34,107.89-70.63,5.15-6.5,16.18-18,16.79-26.35-6.27.6-13.28,8.3-18.07,12.08-10.62,8.4-21.47,16.48-32.71,24A481,481,0,0,1,477.85,624.28Z"/><path class="cls-2" d="M211.83,624.28c5.2,2.31,11,5,12.92,9.75,1.12,2.79,1,5.41-1.91,7.62-3.81,2.86-6.44,4.08-10.37,3.07-42.39-10.91-80.76-36.34-107.89-70.63-5.14-6.5-16.18-18-16.79-26.35,6.27.6,13.29,8.3,18.07,12.08,10.63,8.4,21.47,16.48,32.72,24A480,480,0,0,0,211.83,624.28Z"/><path class="cls-2" d="M312.47,698.93c-.11-6.9-.22-13.83-1.36-20.63s-3.38-13.53-7.4-19.13c-1.75-2.43-7.57-6.14-6.53-8.94.93-2.51,7.58-2.57,10.19-3.16a23.63,23.63,0,0,1,6.82-.85,8,8,0,0,1,6,3c1.71,2.37,1.43,5.58,1.07,8.49l-3.51,28.86c-.58,4.76-1.86,10.39-2.44,15.15-.25,2.08,0,8.58-2.6,8C311.48,709.32,312.52,702.47,312.47,698.93Z"/><path class="cls-2" d="M377.54,698.93a136.62,136.62,0,0,1,1.35-20.63c1.15-6.8,3.38-13.53,7.4-19.13,1.75-2.43,7.57-6.14,6.53-8.94-.93-2.51-7.58-2.57-10.19-3.16a23.59,23.59,0,0,0-6.82-.85,8,8,0,0,0-6,3c-1.71,2.37-1.43,5.58-1.07,8.49l3.51,28.86c.58,4.76,1.48,10.39,2.06,15.15.26,2.08.38,8.58,3,8C378.53,709.32,377.48,702.47,377.54,698.93Z"/><path class="cls-2" d="M212.35,453.61c-10.29-1.21-20.65-2.61-30.43-6s-19-9-25.23-17.35a8.24,8.24,0,0,1-2-4.5c0-1.66,1.14-3.46,2.8-3.51a5,5,0,0,1,2.5.89,92.43,92.43,0,0,0,41.38,11.74c2.93.12,6,.12,8.59,1.43s4.62,4.41,3.61,7.16Z"/><path class="cls-2" d="M479.3,453.61c10.29-1.21,20.65-2.61,30.43-6s19-9,25.23-17.35a8.3,8.3,0,0,0,2-4.5c0-1.66-1.13-3.46-2.79-3.51a5.08,5.08,0,0,0-2.51.89,92.39,92.39,0,0,1-41.38,11.74c-2.92.12-6,.12-8.59,1.43s-4.62,4.41-3.6,7.16Z"/><path class="cls-2" d="M131,302.13c-13-12.07-29-20.29-45.31-27.22s-33.09-12.74-48.85-20.83c-3.53,2.56-2.63,8.43.51,11.45s7.62,4.05,11.78,5.36C68,276.83,83.52,290.24,100,301.29c10.14,6.79,20.85,12.79,30.38,20.42a78.33,78.33,0,0,1,14.63,15c1.29,1.77,2.79,6.15,5.34,6.05,3.38-.13,2.69-3.9,2.36-5.91C150.58,323.78,140.33,310.85,131,302.13Z"/><path class="cls-2" d="M559.8,302.13c13-12.07,29-20.29,45.31-27.22s33.1-12.74,48.85-20.83c3.53,2.56,2.64,8.43-.51,11.45s-7.62,4.05-11.78,5.36c-18.94,5.94-34.42,19.35-50.91,30.4-10.14,6.79-20.85,12.79-30.38,20.42a78.63,78.63,0,0,0-14.63,15c-1.28,1.77-2.79,6.15-5.34,6.05-3.38-.13-2.68-3.9-2.35-5.91C540.19,323.78,550.44,310.85,559.8,302.13Z"/><path class="cls-2" d="M404.74,702.86c1.85,18.18,3.67,36.88-1.31,54.47s-18.41,34-36.45,37c1.68-4,1.81-11.83,5.49-15.42s8.17-4.4,12.34-7.42c16.08-11.63,16.26-20.21,18.16-41.18C403.75,721.74,403.93,712.18,404.74,702.86Z"/><path class="cls-2" d="M286,702.86c-1.86,18.18-3.67,36.88,1.31,54.47s18.41,34,36.45,37c-1.68-4-1.81-11.83-5.5-15.42s-8.16-4.4-12.33-7.42c-16.08-11.63-16.26-20.21-18.16-41.18C287,721.74,286.78,712.18,286,702.86Z"/><path class="cls-2" d="M327.32,796.9a29.35,29.35,0,0,0,8.84,1.69c7.33.62,14.76,1.23,22,0,2.91-.51,5.89-1.39,8-3.42,3-2.78,3.78-7.1,4.43-11.11.28-1.71.48-3.7-.73-4.95-.74-.77-4-1.85-5.06-2.08-11.11-2.42-20.39-2.61-31.75-2.11a23.33,23.33,0,0,0-8.42,1.51c-2.62,1.15-4.12,1.59-4.63,4.41C319.11,786.11,322.5,794.88,327.32,796.9Z"/><path class="cls-2" d="M577.93,248.52a73.93,73.93,0,0,0,18.51-8c1.24-.76,2.61-1.85,2.48-3.29a3,3,0,0,0-2.55-2.34,25.34,25.34,0,0,0-3.7-.11,17.49,17.49,0,0,1-5.77-1.7,17.66,17.66,0,0,0-5.76-1.73,6,6,0,0,0-5.33,2.22c-1.15,1.66-.78,4.34,1,5.22"/><path class="cls-2" d="M112.93,248.52a74,74,0,0,1-18.5-8c-1.24-.76-2.61-1.85-2.48-3.29a3,3,0,0,1,2.55-2.34,25.29,25.29,0,0,1,3.7-.11A17.37,17.37,0,0,0,104,233a17.73,17.73,0,0,1,5.76-1.73,6,6,0,0,1,5.34,2.22c1.14,1.66.77,4.34-1,5.22"/><g id="direita-2" data-name="direita"><path class="cls-2" d="M461.15,803.36c-5-21.55-18.45-81.77-20.07-115.76,20-22,27.93-43.89,27.93-43.89s36.95,2,82.14-37.28h0C569,590.93,588.06,569,606.68,538c-47.89-20-79.81-16-79.81-16s69.84-19.95,47.89-73.82c-27.94-53.88-35.91-69.83-35.91-69.83s-16-37.91,43.89-75.82c61.85-31.92,75.81-33.92,77.81-55.86s-37.91-35.92-37.91-35.92-29.93-12-18-53.87l2-8s-45.89,43.89-29.93,83.8l4,10S504.93,272.6,487,316.49s-20,77.81-8,121.71l4,10s-11,1.28-27.46,7.12c-29.59,10.49-76.89,35.69-110.21,94.63"/><path class="cls-2" d="M437,632a50.23,50.23,0,0,0-19.3-1.46,52.58,52.58,0,0,0-18.22,5.59,36,36,0,0,0-4,2.44l-2,1.46c-.7.54-1.43,1-2.15,1.46-2.89,1.85-5.86,3.4-8.83,5s-6,3-9,4.36-6.13,2.52-9.32,3.58l-9.3,3.08,6.07-7.58c.23-.29.59-.74.88-1.15s.6-.87.9-1.31c.57-.9,1.14-1.82,1.66-2.77a50.17,50.17,0,0,0,2.83-5.91c.42-1,.79-2.07,1.15-3.12s.71-2.12,1-3.21c.65-2.16,1.05-4.39,1.54-6.67h.57a35.34,35.34,0,0,1,.51,7.06,38.24,38.24,0,0,1-.85,7.12,39.83,39.83,0,0,1-2.12,6.93c-.46,1.13-1,2.24-1.54,3.33-.3.54-.59,1.09-.92,1.62a17,17,0,0,1-1.1,1.67l-3.22-4.5c3-1.22,6-2.43,9.06-3.58s6.11-2.27,9.11-3.51a82.52,82.52,0,0,0,8.69-4.12c.69-.39,1.37-.77,2-1.2l1-.64c.37-.25.73-.5,1.11-.73a37.51,37.51,0,0,1,4.58-2.46,53.38,53.38,0,0,1,19.71-4.48,49.57,49.57,0,0,1,19.65,3.2Z"/><path class="cls-2" d="M378.19,646.42s43.91,11.71,37.17-15.25"/><path class="cls-2" d="M344.31,724.51s23.95-12,29.93,2-12,21.94-12,21.94-6,15.39-17,18.67C344.31,736.48,344.31,724.51,344.31,724.51Z"/><polygon class="cls-2" points="370.99 649.44 376.24 708.55 365.32 650.22 370.99 649.44"/><path class="cls-2" d="M345.1,771.75a65.13,65.13,0,0,1,7,.11c2.31.16,4.62.42,6.92.81a53.39,53.39,0,0,1,6.84,1.7,33.81,33.81,0,0,1,6.57,3l-2.48.06c4.12-2.64,8.41-4.92,12.49-7.27s7.84-5,10.69-8.44a32.71,32.71,0,0,0,6-12.19l.49-1.67.37-1.72c.23-1.15.52-2.29.71-3.45.32-2.34.78-4.66.95-7,.52-4.7.8-9.51,1.17-14.27s.72-9.55,1.14-14.32.88-9.56,1.73-14.29a40.83,40.83,0,0,1,1.86-7,23.88,23.88,0,0,1,3.57-6.22,23.5,23.5,0,0,0-3.29,6.32,39.39,39.39,0,0,0-1.57,7c-.65,4.72-.91,9.49-1.14,14.26s-.39,9.56-.56,14.34-.27,9.55-.6,14.38c-.08,2.41-.44,4.82-.68,7.23-.15,1.2-.4,2.4-.59,3.6l-.31,1.81L402,750.3a35.86,35.86,0,0,1-6.09,13.59,41.73,41.73,0,0,1-11.31,9.75c-4.11,2.6-8.18,5-12,7.67l-1.14.79-1.34-.73a29.93,29.93,0,0,0-5.65-2.32,48.67,48.67,0,0,0-6.18-1.26c-2.1-.27-4.23-.43-6.37-.49s-4.76-.06-6.76.11Z"/></g><g id="esquerda-2" data-name="esquerda"><path class="cls-2" d="M345.31,549.93C311.76,490.58,264,465.44,234.5,455.08c-16.15-5.66-26.85-6.9-26.85-6.9l4-10c12-43.9,10-77.81-8-121.71s-93.77-73.81-93.77-73.81l4-10c16-39.91-29.92-83.8-29.92-83.8l2,8c12,41.9-18,53.87-18,53.87s-39.9,14-37.9,35.92,16,23.94,77.81,55.86c59.85,37.91,43.89,75.82,43.89,75.82s-8,15.95-35.91,69.83c-22,53.87,47.88,73.82,47.88,73.82s-31.92-4-79.8,16c18.31,30.53,37.1,52.26,54.67,67.72,45.57,40.11,83,38,83,38s8,21.94,27.94,43.89c-1.64,34.27-15.29,95.26-20.2,116.31"/><path class="cls-2" d="M253.44,631.46a49.57,49.57,0,0,1,19.65-3.2,53.29,53.29,0,0,1,19.71,4.48,37.63,37.63,0,0,1,4.59,2.46c.37.23.73.48,1.1.73l1,.64c.62.43,1.31.81,2,1.2a82.69,82.69,0,0,0,8.7,4.12c3,1.24,6.05,2.35,9.1,3.51s6.08,2.36,9.07,3.58l-3.23,4.5a17,17,0,0,1-1.1-1.67c-.33-.53-.61-1.08-.91-1.62-.57-1.09-1.09-2.2-1.55-3.33a41.63,41.63,0,0,1-2.12-6.93,39.1,39.1,0,0,1-.85-7.12,35.34,35.34,0,0,1,.51-7.06h.57c.49,2.28.89,4.51,1.55,6.67.27,1.09.62,2.16,1,3.21s.73,2.1,1.15,3.12a48.64,48.64,0,0,0,2.83,5.91c.51,1,1.08,1.87,1.66,2.77.29.44.58.89.89,1.31s.65.86.88,1.15l6.08,7.58-9.31-3.08c-3.19-1.06-6.26-2.25-9.32-3.58s-6-2.83-9-4.36-5.93-3.1-8.83-5c-.72-.46-1.44-.92-2.15-1.46l-1.95-1.46a36.17,36.17,0,0,0-4-2.44,52.58,52.58,0,0,0-18.22-5.59,50.24,50.24,0,0,0-19.3,1.46Z"/><path class="cls-2" d="M346.31,724.51s-23.94-12-29.93,2,12,21.94,12,21.94,6,15.39,17,18.67C346.31,736.48,346.31,724.51,346.31,724.51Z"/><polygon class="cls-2" points="325.3 650.22 314.39 708.55 319.64 649.44 325.3 650.22"/><path class="cls-2" d="M345.19,777.41a62.12,62.12,0,0,0-6.43-.11c-2.13.06-4.27.22-6.37.49a48.16,48.16,0,0,0-6.17,1.26,29.39,29.39,0,0,0-5.65,2.32l-1.35.73-1.13-.79c-3.84-2.68-7.92-5.07-12-7.67s-8.23-5.66-11.31-9.75a35.69,35.69,0,0,1-6.08-13.59l-.45-1.78-.32-1.81c-.19-1.2-.44-2.4-.59-3.6-.23-2.41-.6-4.82-.68-7.23-.33-4.83-.41-9.59-.6-14.38s-.33-9.56-.55-14.34-.5-9.54-1.15-14.26a40.27,40.27,0,0,0-1.56-7,23.82,23.82,0,0,0-3.3-6.32,23.88,23.88,0,0,1,3.57,6.22,40.86,40.86,0,0,1,1.87,7c.84,4.73,1.29,9.52,1.72,14.29s.78,9.54,1.14,14.32.66,9.57,1.17,14.27c.17,2.37.63,4.69.95,7,.19,1.16.48,2.3.71,3.45l.37,1.72.5,1.67a32.56,32.56,0,0,0,6,12.19,38.22,38.22,0,0,0,10.68,8.44c4.08,2.35,8.37,4.63,12.49,7.27l-2.48-.06a33.81,33.81,0,0,1,6.57-3,53.8,53.8,0,0,1,6.84-1.7c2.3-.39,4.61-.65,6.92-.81a65.28,65.28,0,0,1,7-.11Z"/></g><path class="cls-2" d="M312.18,646.42S268.27,658.13,275,631.17"/><line class="cls-2" x1="551.15" y1="606.43" x2="551.15" y2="606.42"/><path class="cls-2" d="M371,779.37a12.57,12.57,0,0,1,.85,4.81,16.83,16.83,0,0,1-.66,4.73,14.35,14.35,0,0,1-2,4.43,8.12,8.12,0,0,1-3.86,3.19c.49-1.65.79-3,1.15-4.46s.68-2.8,1.09-4.19.85-2.81,1.38-4.22A23.8,23.8,0,0,1,371,779.37Z"/><path class="cls-2" d="M319.58,779.37a23.8,23.8,0,0,1,2.09,4.29c.54,1.41,1,2.82,1.39,4.22s.73,2.8,1.09,4.19.66,2.81,1.15,4.46a8.1,8.1,0,0,1-3.87-3.19,14.58,14.58,0,0,1-2-4.43,17.2,17.2,0,0,1-.66-4.73A13,13,0,0,1,319.58,779.37Z"/><path class="cls-2" d="M368.22,675.69S357.61,668,348,672.26c-8.44,3.75-11-6.24-25.39,1.26l-2.33,14.38s5.14-7.79,19.6-3.42a12.45,12.45,0,0,0,6.9,0c11.59-3.29,23.29,2.82,23.29,2.82Z"/><path class="cls-3" d="M345.79,852.76a314.18,314.18,0,1,1,222.16-92A312.13,312.13,0,0,1,345.79,852.76Z"/><path class="cls-4" d="M446.54,806.77c-5.59-24-18.78-83.58-20.45-118.46l-.29-6.2,4.18-4.6a135.34,135.34,0,0,0,24.95-39l3.94-10.62,10.9.81c2.24.06,32.25,0,70.38-32.61l1.16-1c15.11-13.15,29.45-29.77,42.77-49.55-33.55-10.92-55.1-8.71-55.34-8.68l-6-29.3c8.14-2.38,31-12,38.65-27.82,3.59-7.42,3.49-15.71-.29-25.32-27.4-52.85-35.35-68.73-35.68-69.38l-.41-.89c-.85-2-20.09-50.12,49.69-94.31l.56-.35.59-.31c11.9-6.14,21.85-11.09,30.62-15.45,36.86-18.32,38.37-20.09,39.13-28.44.46-5-13.65-15.34-28-20.41l-.59-.22c-8.18-3.27-19.39-11.72-25.6-26.05-3.33,9.54-4.39,19.5-.79,28.5l9.59,24-14,5.53c-19.44,7.7-72.7,34.51-85.4,65.54-16.49,40.32-18.57,70.56-7.61,111.28l10.93,27.37-19.46,2.26s-9.76,1.25-24.18,6.36c-29.94,10.61-72,34.47-102.16,87.88l-26.12-14.77c34.75-61.48,83.49-89.07,118.26-101.39,4.66-1.65,8.92-3,12.69-4-11.49-45.27-8.6-81.14,9.89-126.32,15.28-37.37,64.26-64.53,88.45-76-15.82-47.6,32.65-94.69,34.77-96.72l37.48-35.84L619.11,161c-7.43,26,5.75,34.19,9.13,35.82,7.52,2.73,50.12,19.63,47.24,51.21-2.37,26.1-18,33.85-55.64,52.58-8.53,4.25-18.19,9.05-29.63,14.94-44.07,28.15-38.6,53.31-37.53,56.92,2,3.91,11.25,22.25,35.39,68.81l.32.61.26.63c7.22,17.73,7.12,35.18-.31,50.44a67.21,67.21,0,0,1-13.86,18.79,241.57,241.57,0,0,1,38,12.37l16,6.68-8.93,14.88c-16.17,26.94-34.1,49.6-53.39,67.44v.13l-5.15,4.5c-34.91,30.38-66.12,38.31-81.93,40.31a171.8,171.8,0,0,1-22.62,34.74c2.74,34.25,15.33,90.08,19.31,107.16Z"/><path class="cls-5" d="M349.32,640.51l.33-.42.22-.31.36-.55c.36-.55.74-1.17,1-1.7l.18-.33a34.14,34.14,0,0,0,2-4.11c.26-.64.52-1.34.83-2.27.24-.7.49-1.46.63-2l.09-.38.12-.37c.3-1,.57-2.29.87-3.77l.36-1.69,2.54-11.85h25.35L386.11,622a52,52,0,0,1,5.5-2.89l.14-.06A68,68,0,0,1,417,613.27c.8,0,1.59,0,2.38,0a63.61,63.61,0,0,1,23.25,4.26l13.27,5.19-9.18,27.58L433,646.46a35.37,35.37,0,0,0-9.35-1.26,36.49,36.49,0,0,0-4.18.25,37.42,37.42,0,0,0-12.94,3.93,21.33,21.33,0,0,0-2.19,1.33l-1.76,1.3c-1.11.85-2.12,1.5-2.93,2l-.12.08c-3.39,2.17-6.59,3.84-9.68,5.46l-.43.22c-2.84,1.46-6.22,3.16-9.79,4.74s-7.14,2.93-10.67,4.1l-57.42,19Z"/><path class="cls-6" d="M396.68,664a90.78,90.78,0,0,1-22.35-3.07l7.73-29-3.87,14.5L382,631.91c7.85,2.06,18.29,2.69,21.08,1.28a4,4,0,0,0-1.36,1.38l28.16-7c3.71,14.83-2.42,23.63-6.41,27.55C416.49,662,406.21,664,396.68,664Z"/><path class="cls-5" d="M330.32,767.61c-1-30.53-1-42.6-1-43.1v-9.27l8.3-4.15c2.12-1.06,13.3-6.36,24.8-6.36,12,0,21.3,5.79,25.62,15.87,6.83,15.94-1.49,30.65-14.26,38.68-3.73,7.1-11.45,18.42-24.17,22.21L331,787.06Z"/><polygon class="cls-5" points="347.68 637.51 384.53 632.43 391.18 707.22 361.49 711.31 347.68 637.51"/><path class="cls-5" d="M362.87,794.53a13.8,13.8,0,0,0-2.63-1.06,32.7,32.7,0,0,0-4-.81,46.91,46.91,0,0,0-4.79-.36l-1.4,0c-1.21,0-2.34,0-3.28.12l-15.07,1.26L329,757.42l15.5-.65c1,0,2-.07,3-.07,1.74,0,3.51.06,5.56.19q4.38.3,8.49,1l.16,0a69.46,69.46,0,0,1,8.36,2.05l1.38-.78c1.18-.67,2.36-1.33,3.52-2,3.31-1.92,5.35-3.45,6.57-4.95l.1-.11a18.12,18.12,0,0,0,3.09-6.64l.39-1.31.23-1.09c.09-.46.2-.92.3-1.38s.19-.85.27-1.28c.11-.77.22-1.53.34-2.29.21-1.32.4-2.56.47-3.55l0-.26,0-.26c.33-3,.56-6.15.8-9.46l.33-4.38.09-1.13c.32-4.35.66-8.85,1.06-13.32.49-5.49,1-10.43,1.9-15.61l0-.19a54.81,54.81,0,0,1,2.6-9.52,38.42,38.42,0,0,1,5.78-10.11l23.93,18.07a8.72,8.72,0,0,0-1.22,2.3,27.1,27.1,0,0,0-.95,4.33c-.53,4-.76,8-1,12.87-.21,4.31-.36,8.79-.51,13.11l0,1c-.05,1.47-.1,2.87-.15,4.28-.11,3.34-.22,6.79-.45,10.35-.09,2.14-.31,4.11-.52,5.86-.07.68-.15,1.36-.22,2l0,.38c-.15,1.19-.33,2.23-.5,3.15l-.18,1-.43,2.51-.56,2.25A50.77,50.77,0,0,1,407.81,773c-4.73,6.27-10.61,10.42-15.21,13.34l-3.8,2.36c-2.74,1.69-5.32,3.29-7.68,4.94l-8.75,6.1Z"/><path class="cls-7" d="M244,807.32l-29.22-6.81c4-17.19,16.68-73.37,19.44-107.71a171.36,171.36,0,0,1-22.62-34.74c-16-2-47.57-10.07-82.85-41.12-20.9-18.39-40.29-42.36-57.63-71.26L62.15,530.8l16-6.68a240.9,240.9,0,0,1,38-12.37A67.43,67.43,0,0,1,102.28,493c-7.42-15.26-7.53-32.71-.31-50.44l.26-.63.32-.61c24.14-46.57,33.43-64.91,35.39-68.81,1.07-3.61,6.55-28.77-37.53-56.92C89,309.66,79.32,304.86,70.78,300.61,33.11,281.88,17.51,274.13,15.14,248c-2.88-31.58,39.72-48.48,47.24-51.21C65.77,195.19,79,187,71.52,161l-.13-.49-14.57-58.3,37.49,35.85c2.12,2,50.6,49.13,34.77,96.72,24.2,11.51,73.17,38.67,88.46,76,18.48,45.2,21.37,81.06,9.88,126.33,3.59,1,7.63,2.24,12,3.79a212.7,212.7,0,0,1,58,31.24c24.51,18.55,45,42.23,60.92,70.38l-26.12,14.77c-30.32-53.66-72.6-77.52-102.72-88.08-14.1-4.95-23.57-6.15-23.66-6.16l-19.48-2.26,11-27.38c11-40.71,8.88-70.95-7.61-111.27-12.7-31-66-57.84-85.41-65.54l-14-5.55,9.58-24c3.69-9.24,2.57-19.23-.75-28.61-6.2,14.4-17.45,22.88-25.65,26.16l-.61.23C58.66,230,44.56,240.27,45,245.31c.75,8.35,2.27,10.12,39.12,28.44,8.78,4.37,18.72,9.31,30.63,15.45l.58.31.56.35c69.78,44.19,50.54,92.29,49.69,94.31l-.41.89c-.32.65-8.27,16.53-35.67,69.38-3.79,9.61-3.88,17.9-.3,25.32,7.63,15.79,30.51,25.44,38.69,27.83l-6,29.29c-.17,0-21.77-2.24-55.35,8.68,13.09,19.43,27.16,35.81,42,48.86,39.85,35.08,71.92,34.3,72.25,34.31l11.12-.62,3.81,10.47a135.42,135.42,0,0,0,24.93,38.93l4.19,4.6-.3,6.21C262.86,723.25,249.59,783.18,244,807.32Z"/><path class="cls-5" d="M321.66,668.63c-3.53-1.17-7-2.5-10.61-4.08s-7-3.3-9.85-4.76l-.4-.21c-3.1-1.62-6.3-3.3-9.64-5.43L291,654c-.81-.52-1.81-1.17-2.93-2l-1.76-1.31a20.3,20.3,0,0,0-2.19-1.33,37.52,37.52,0,0,0-13-3.94,37.11,37.11,0,0,0-4.13-.24,35.37,35.37,0,0,0-9.35,1.26l-13.73,3.8-9.18-27.58L248,617.49a63.56,63.56,0,0,1,23.24-4.26c.79,0,1.59,0,2.38,0A68,68,0,0,1,298.87,619l.14.06a53.14,53.14,0,0,1,5.51,2.89l1.92-11.23h25.33l2.55,11.84q.19.85.36,1.71c.31,1.48.57,2.76.88,3.76l.11.38.1.38c.13.54.38,1.27.62,2,.32,1,.58,1.65.82,2.24a35.46,35.46,0,0,0,2,4.17l.19.32c.28.54.67,1.15,1,1.7l.15.23c.08.12.16.25.25.36l.13.19.09.13.29.36,37.78,47.12Z"/><path class="cls-5" d="M341,781.49c-12.71-3.79-20.44-15.11-24.16-22.21-12.78-8-21.1-22.74-14.27-38.68,4.32-10.08,13.66-15.87,25.62-15.87,11.51,0,22.68,5.3,24.81,6.36l8.29,4.15v9.27c0,.5,0,12.57-1,43.1l-.63,19.45Z"/><polygon class="cls-5" points="299.44 707.22 306.09 632.43 342.94 637.51 329.13 711.31 299.44 707.22"/><path class="cls-5" d="M309.5,793.61c-2.35-1.65-4.94-3.24-7.68-4.94l-3.77-2.34c-4.62-2.94-10.5-7.09-15.24-13.36a50.61,50.61,0,0,1-8.71-19.09l-.57-2.25-.43-2.51-.18-1c-.17-.92-.35-2-.5-3.15l0-.38c-.06-.68-.14-1.36-.22-2-.2-1.75-.43-3.73-.51-5.88-.24-3.57-.35-7-.46-10.39-.05-1.39-.09-2.78-.15-4.17l0-1.07c-.15-4.33-.31-8.8-.52-13.14-.23-4.67-.46-8.89-1-12.85a26.12,26.12,0,0,0-.93-4.26,8.8,8.8,0,0,0-1.24-2.36l23.93-18.07a38.46,38.46,0,0,1,5.81,10.17,55.84,55.84,0,0,1,2.58,9.46l0,.19c.93,5.17,1.41,10.11,1.9,15.58.4,4.55.75,9.1,1.08,13.5l.08,1c.11,1.38.21,2.83.32,4.28.24,3.32.47,6.45.8,9.5l0,.26,0,.26c.07,1,.27,2.23.47,3.55.12.76.24,1.53.35,2.3.07.42.17.84.26,1.25s.21.94.3,1.4l.24,1.09.39,1.32a17.83,17.83,0,0,0,3.09,6.63l.09.12c1.23,1.49,3.26,3,6.61,5,1.12.65,2.3,1.31,3.48,2l1.39.78a68.54,68.54,0,0,1,8.36-2.05l.16,0c2.73-.46,5.56-.79,8.41-1,2.12-.14,3.89-.2,5.63-.2,1,0,2,0,3,.07l15.5.65-2.75,36.24-15.06-1.26c-.94-.08-2.08-.12-3.29-.12l-1.42,0a47,47,0,0,0-4.76.36,32.49,32.49,0,0,0-4,.81,14.07,14.07,0,0,0-2.63,1.06l-9.5,5.19Z"/><path class="cls-7" d="M345.79,852.76a315.39,315.39,0,0,1-75.56-9.15h0l-1.83-.46A313.89,313.89,0,0,1,31.61,538.58,313.21,313.21,0,0,1,124.8,315.26l21.1,21.32A284.25,284.25,0,0,0,274.82,813.83l.95.24a286.1,286.1,0,0,0,152.8-3.56l2.14-.65c1.44-.44,2.92-.92,4.49-1.44l2.21-1.16h1.2c.85-.29,1.71-.59,2.56-.9l2.37-1H444c4.11-1.51,8.22-3.13,12.24-4.83a284.26,284.26,0,0,0,86.71-466.63l20.82-21.6a314.28,314.28,0,0,1-95.87,515.88c-5.33,2.24-10.78,4.36-16.21,6.3l-.11,0h0l-2.37.83-2.15.74-2.23,1.17h-1.28c-2.17.72-4.23,1.37-6.23,2l-2.14.63A314,314,0,0,1,345.79,852.76Z"/><g id="laranja-2" data-name="laranja"><path class="cls-8" d="M80.34,0H183.93l79.73.31L267,2.13c6.3,3.43,9.69,9.73,8.86,16.45-1.37,11-12.17,14.57-16.79,16.1-4.35,1.44-9.82,2.85-15.11,4.21l-.64.17,0,13.53-.51,186.55,0,9.78c6,2.61,11.33,6.62,12.58,14.3,1.08,6.56-1.85,13-7.83,17.27l-2.92,2.08-56.65,8.53-3.72.64c-10.58,1.76-21.2,3.72-31.62,5.82-5.12,1-10.3,2.12-15.38,3.24-6.29,1.37-12.67,2.83-19,4.34l-37.93,9.11Z"/><path d="M95.34,15h88.59l75.88.3c10.27,5.59-51.5,12.87-40,18.9l8.47,4.43,0,13.93-.51,186.54,0,8.51-7.12,4.65c-11,7.18,28.54,8.63,18.17,16l-53.26,8-3.88.66c-10.69,1.79-21.45,3.77-32,5.91-5.16,1-10.42,2.14-15.63,3.28-6.4,1.4-12.88,2.89-19.24,4.42l-19.43,4.66Z"/><path class="cls-8" d="M200.77,0H363.71l-.08,278.37-30.45.29c-11.59.11-23.35.44-34.95,1-9.66.45-19.45,1.05-29.08,1.79-11.56.88-23.28,2-34.84,3.3L200,288.61Z"/><path d="M215.73,15h133l-.08,248.51-15.6.15c-11.78.12-23.72.45-35.49,1-9.81.45-19.74,1.06-29.54,1.81-11.75.9-23.65,2-35.38,3.35l-17.57,2Z"/><path class="cls-8" d="M484.75,288.61l-34.31-3.89c-11.55-1.31-23.27-2.42-34.84-3.31-9.67-.73-19.45-1.33-29.09-1.78-11.59-.53-23.35-.86-34.94-1l-30.45-.29,0-131.44H331.4l-10.31-5.33,0-21.79L321,0l30.76,0H484l.32,118.55-1.44,6.24,1.51.88v18.85Zm-133.64-40h.75c11.95.12,24.07.46,36,1,9.94.45,20,1.07,30,1.83,11.93.91,24,2.06,35.92,3.41l.85.1-.3-112.12-.38-.22.38.2V139a13.45,13.45,0,0,0-3.07,11.29c-.12-.43-.44-1.23-.82-2.14a6.19,6.19,0,0,0,.22,1.2c-.07-.25-.34-.94-.51-1.39-.27-.72-.59-1.57-.9-2.54q-.15-.32-.27-.6c-1.06-2.38-2.16-4.85-3-7.11-3.77-10.71.72-16.83,3.74-19.54a15.89,15.89,0,0,1,4.45-2.79l0-.2L454.05,30H351l0,93.33.41.21-.41.78v8.13h-4.21l-7.48,14.48h11.69Z"/><path d="M344.59,136.86l-8.51-4.4V119.79L336,15H469l.28,101.86L464.65,137c-5.24-.18,4.38,11.54-.88,11.38,8.43,4.73-10.06-23.22-2.22-18.63l7.81,4.56v10.25l.34,127.28-17.58-2c-11.72-1.32-23.62-2.45-35.38-3.35-9.8-.75-19.74-1.36-29.54-1.81-11.77-.54-23.71-.87-35.49-1l-15.6-.15,0-116.58"/><path class="cls-8" d="M604.41,314.25l-37.94-9.11c-11.34-2.72-22.89-5.27-34.33-7.58l-14.28-2.88-14.48-2.46c-11.46-2-23.12-3.72-34.65-5.25l-26.64-3.54L441.31,0h163.1V142.59h-30V30h-103L472,257.14l.66.09c11.89,1.58,23.91,3.4,35.73,5.41l29.07,4.95V268l.59.12c11.79,2.38,23.71,5,35.41,7.82l.93.22v-132h30Z"/><path d="M589.41,144.19v151L570,290.56c-11.5-2.77-23.23-5.36-34.87-7.7l-12.62-2.55v-.06l-16.58-2.82c-11.65-2-23.5-3.78-35.2-5.33l-13.64-1.81L456.35,15H589.41V142.59"/><path d="M95.34,15h88.59l75.88.3c10.27,5.59-51.5,12.87-40,18.9l8.47,4.43,0,13.93-.51,186.54,0,8.51-7.12,4.65c-11,7.18,28.54,8.63,18.17,16l-53.26,8-3.88.66c-10.69,1.79-21.45,3.77-32,5.91-5.16,1-10.42,2.14-15.63,3.28-6.4,1.4-12.88,2.89-19.24,4.42l-19.43,4.66Z"/><path d="M215.73,15h133l-.08,248.51-15.6.15c-11.78.12-23.72.45-35.49,1-9.81.45-19.74,1.06-29.54,1.81-11.75.9-23.65,2-35.38,3.35l-17.57,2Z"/><path d="M344.59,136.86l-8.51-4.4V119.79L336,15H469l.28,101.86L464.65,137c-5.24-.18,4.38,11.54-.88,11.38,8.43,4.73-10.06-23.22-2.22-18.63l7.81,4.56v10.25l.34,127.28-17.58-2c-11.72-1.32-23.62-2.45-35.38-3.35-9.8-.75-19.74-1.36-29.54-1.81-11.77-.54-23.71-.87-35.49-1l-15.6-.15,0-116.58"/><path d="M589.41,144.19v151L570,290.56c-11.5-2.77-23.23-5.36-34.87-7.7l-12.62-2.55v-.06l-16.58-2.82c-11.65-2-23.5-3.78-35.2-5.33l-13.64-1.81L456.35,15H589.41V142.59"/><path class="cls-9" d="M186.6,35.87q15.65,8.54,31.29,16.7c0,.55,0,1.11,0,1.66v2.51l-.09,30.6c0,1.39,0,2.78,0,4.17l-.06,21.7q-.09,30.89-.17,61.76l-.06,22c0,1.39,0,2.78,0,4.17q0,15.16-.08,30.32c0,.93,0,1.86,0,2.79,0,.46,0,.92,0,1.39Q201.69,245.88,186.05,257l-.3.05q-15.62,2.61-31.16,5.74-7.64,1.54-15.23,3.2-9.39,2.06-18.75,4.3V35.87h66Zm-3.36,142.44.15-63.24q.06-20.52.1-41-5.27-2.7-10.52-5.43l-18.06.5-.27,160.42q9-1.54,18-2.94,5.25-3.67,10.52-7.27Q183.19,198.83,183.24,178.31Z"/><path class="cls-10" d="M333.27,244.09q-17.29.16-34.58,1-14.4.66-28.78,1.76-17.25,1.32-34.47,3.27,0-15.69.08-31.38.25-91.42.49-182.83h34.35q-.19,90-.38,180,14.37-.93,28.76-1.5.12-89.27.25-178.53h34.34q0,88.86-.05,177.71Q333.28,228.83,333.27,244.09Z"/><path class="cls-11" d="M448.73,35.87l.09,31.39.09,35.52q-17.18-.61-34.38-1,0-17.49-.08-35-14.32-.15-28.65-.26l.06,42.22C406.91,119.92,428,131.5,449,143.8c0,.37,0,.74,0,1.11v1.92q0,14.19.08,28.36c0,.92,0,1.84,0,2.76q0,20.37.1,40.75l.09,31.38q-17.22-2-34.47-3.27-14.38-1.09-28.79-1.76-17.28-.8-34.58-1V213.58q0-25.56,0-51.12,17.25.1,34.49.59,0,25.66.07,51.35,14.39.57,28.76,1.5-.06-26.16-.11-52.32c3.52.16,7,.33,10.57.52l-.6-.3q-5-2.85-10-5.65c-21.08-11.87-42.16-23.08-63.21-34v-2.94q0-13.78,0-27.57V91q0-12.32,0-24.63,0-15.25,0-30.51h97.32Z"/><path class="cls-12" d="M564.14,133.5q-8.25,3.85-16.48,7.62,8.25,5.56,16.48,11.36V270.29q-16.93-4.07-34-7.5L530,173.25q5.25.63,10.49,1.31l-.6-.37q-4.95-3.44-9.9-6.77-14.25-9.69-28.56-18.74.13,54.42.26,108.82-17.1-2.91-34.29-5.19-.17-62.31-.34-124.63c0-1,0-2,0-3.06Q467,110.29,467,96c0-.92,0-1.85,0-2.78q-.08-28.65-.16-57.31h34.35q.1,38.61.19,77.2,14.31,8.69,28.59,17.89l-.15-95.09h34.35Z"/></g><circle class="cls-13" cx="345.79" cy="538.58" r="299.18"/><g id="direita-3" data-name="direita"><path class="cls-14" d="M461.15,803.36c-5-21.55-18.45-81.77-20.07-115.76,20-22,27.93-43.89,27.93-43.89s36.95,2,82.14-37.28h0C569,590.93,588.06,569,606.68,538c-47.89-20-79.81-16-79.81-16s69.84-19.95,47.89-73.82c-27.94-53.88-35.91-69.83-35.91-69.83s-16-37.91,43.89-75.82c61.85-31.92,75.81-33.92,77.81-55.86s-37.91-35.92-37.91-35.92-29.93-12-18-53.87l2-8s-45.89,43.89-29.93,83.8l4,10S504.93,272.6,487,316.49s-20,77.81-8,121.71l4,10s-11,1.28-27.46,7.12c-29.59,10.49-76.89,35.69-110.21,94.63"/><path class="cls-15" d="M437,632a50.23,50.23,0,0,0-19.3-1.46,52.58,52.58,0,0,0-18.22,5.59,36,36,0,0,0-4,2.44l-2,1.46c-.7.54-1.43,1-2.15,1.46-2.89,1.85-5.86,3.4-8.83,5s-6,3-9,4.36-6.13,2.52-9.32,3.58l-9.3,3.08,6.07-7.58c.23-.29.59-.74.88-1.15s.6-.87.9-1.31c.57-.9,1.14-1.82,1.66-2.77a50.17,50.17,0,0,0,2.83-5.91c.42-1,.79-2.07,1.15-3.12s.71-2.12,1-3.21c.65-2.16,1.05-4.39,1.54-6.67h.57a35.34,35.34,0,0,1,.51,7.06,38.24,38.24,0,0,1-.85,7.12,39.83,39.83,0,0,1-2.12,6.93c-.46,1.13-1,2.24-1.54,3.33-.3.54-.59,1.09-.92,1.62a17,17,0,0,1-1.1,1.67l-3.22-4.5c3-1.22,6-2.43,9.06-3.58s6.11-2.27,9.11-3.51a82.52,82.52,0,0,0,8.69-4.12c.69-.39,1.37-.77,2-1.2l1-.64c.37-.25.73-.5,1.11-.73a37.51,37.51,0,0,1,4.58-2.46,53.38,53.38,0,0,1,19.71-4.48,49.57,49.57,0,0,1,19.65,3.2Z"/><path class="cls-16" d="M378.19,646.42s43.91,11.71,37.17-15.25"/><path class="cls-15" d="M344.31,724.51s23.95-12,29.93,2-12,21.94-12,21.94-6,15.39-17,18.67C344.31,736.48,344.31,724.51,344.31,724.51Z"/><polygon class="cls-15" points="370.99 649.44 376.24 708.55 365.32 650.22 370.99 649.44"/><path class="cls-15" d="M345.1,771.75a65.13,65.13,0,0,1,7,.11c2.31.16,4.62.42,6.92.81a53.39,53.39,0,0,1,6.84,1.7,33.81,33.81,0,0,1,6.57,3l-2.48.06c4.12-2.64,8.41-4.92,12.49-7.27s7.84-5,10.69-8.44a32.71,32.71,0,0,0,6-12.19l.49-1.67.37-1.72c.23-1.15.52-2.29.71-3.45.32-2.34.78-4.66.95-7,.52-4.7.8-9.51,1.17-14.27s.72-9.55,1.14-14.32.88-9.56,1.73-14.29a40.83,40.83,0,0,1,1.86-7,23.88,23.88,0,0,1,3.57-6.22,23.5,23.5,0,0,0-3.29,6.32,39.39,39.39,0,0,0-1.57,7c-.65,4.72-.91,9.49-1.14,14.26s-.39,9.56-.56,14.34-.27,9.55-.6,14.38c-.08,2.41-.44,4.82-.68,7.23-.15,1.2-.4,2.4-.59,3.6l-.31,1.81L402,750.3a35.86,35.86,0,0,1-6.09,13.59,41.73,41.73,0,0,1-11.31,9.75c-4.11,2.6-8.18,5-12,7.67l-1.14.79-1.34-.73a29.93,29.93,0,0,0-5.65-2.32,48.67,48.67,0,0,0-6.18-1.26c-2.1-.27-4.23-.43-6.37-.49a62.9,62.9,0,0,0-6.33.15Z"/></g><g id="esquerda-3" data-name="esquerda"><path class="cls-17" d="M345.31,549.93C311.76,490.58,264,465.44,234.5,455.08c-16.15-5.66-26.85-6.9-26.85-6.9l4-10c12-43.9,10-77.81-8-121.71s-93.77-73.81-93.77-73.81l4-10c16-39.91-29.92-83.8-29.92-83.8l2,8c12,41.9-18,53.87-18,53.87s-39.9,14-37.9,35.92,16,23.94,77.81,55.86c59.85,37.91,43.89,75.82,43.89,75.82s-8,15.95-35.91,69.83c-22,53.87,47.88,73.82,47.88,73.82s-31.92-4-79.8,16c18.31,30.53,37.1,52.26,54.67,67.72,45.57,40.11,83,38,83,38s8,21.94,27.94,43.89c-1.64,34.27-15.29,95.26-20.2,116.31"/><path class="cls-15" d="M253.44,631.46a49.57,49.57,0,0,1,19.65-3.2,53.29,53.29,0,0,1,19.71,4.48,37.63,37.63,0,0,1,4.59,2.46c.37.23.73.48,1.1.73l1,.64c.62.43,1.31.81,2,1.2a82.69,82.69,0,0,0,8.7,4.12c3,1.24,6.05,2.35,9.1,3.51s6.08,2.36,9.07,3.58l-3.23,4.5a17,17,0,0,1-1.1-1.67c-.33-.53-.61-1.08-.91-1.62-.57-1.09-1.09-2.2-1.55-3.33a41.63,41.63,0,0,1-2.12-6.93,39.1,39.1,0,0,1-.85-7.12,35.34,35.34,0,0,1,.51-7.06h.57c.49,2.28.89,4.51,1.55,6.67.27,1.09.62,2.16,1,3.21s.73,2.1,1.15,3.12a48.64,48.64,0,0,0,2.83,5.91c.51,1,1.08,1.87,1.66,2.77.29.44.58.89.89,1.31s.65.86.88,1.15l6.08,7.58-9.31-3.08c-3.19-1.06-6.26-2.25-9.32-3.58s-6-2.83-9-4.36-5.93-3.1-8.83-5c-.72-.46-1.44-.92-2.15-1.46l-1.95-1.46a36.17,36.17,0,0,0-4-2.44,52.58,52.58,0,0,0-18.22-5.59,50.24,50.24,0,0,0-19.3,1.46Z"/><path class="cls-15" d="M346.31,724.51s-23.94-12-29.93,2,12,21.94,12,21.94,6,15.39,17,18.67C346.31,736.48,346.31,724.51,346.31,724.51Z"/><polygon class="cls-15" points="325.3 650.22 314.39 708.55 319.64 649.44 325.3 650.22"/><path class="cls-15" d="M345.1,777.45a63,63,0,0,0-6.34-.15c-2.13.06-4.27.22-6.37.49a48.16,48.16,0,0,0-6.17,1.26,29.39,29.39,0,0,0-5.65,2.32l-1.35.73-1.13-.79c-3.84-2.68-7.92-5.07-12-7.67s-8.23-5.66-11.31-9.75a35.69,35.69,0,0,1-6.08-13.59l-.45-1.78-.32-1.81c-.19-1.2-.44-2.4-.59-3.6-.23-2.41-.6-4.82-.68-7.23-.33-4.83-.41-9.59-.6-14.38s-.33-9.56-.55-14.34-.5-9.54-1.15-14.26a40.27,40.27,0,0,0-1.56-7,23.82,23.82,0,0,0-3.3-6.32,23.88,23.88,0,0,1,3.57,6.22,40.86,40.86,0,0,1,1.87,7c.84,4.73,1.29,9.52,1.72,14.29s.78,9.54,1.14,14.32.66,9.57,1.17,14.27c.17,2.37.63,4.69.95,7,.19,1.16.48,2.3.71,3.45l.37,1.72.5,1.67a32.56,32.56,0,0,0,6,12.19,38.22,38.22,0,0,0,10.68,8.44c4.08,2.35,8.37,4.63,12.49,7.27l-2.48-.06a33.81,33.81,0,0,1,6.57-3,53.8,53.8,0,0,1,6.84-1.7c2.3-.39,4.61-.65,6.92-.81a65.28,65.28,0,0,1,7-.11Z"/></g><path class="cls-18" d="M658.54,248.33a38.85,38.85,0,0,0-2-9.28,17.67,17.67,0,0,0-2.12-8.88,19.32,19.32,0,0,0-16.27-10.1c-.47-.32-.93-.65-1.4-1-3.76-2.5-8-4-11.91-6.08-.83-.44-1.64-.92-2.42-1.43-.26-.17-.84-.58-1-.74-1.92-1.67-3.7-3.5-5.48-5.32a13.64,13.64,0,0,0-7.25-3.83q-.9-3.79-1.47-7.81c-.48-3.39-3-6.25-6.07-8.1a40.67,40.67,0,0,0,.48-4.89c0-.85,1-2.49-.18-1,3.2-4,3.93-9.55,0-13.48-3.33-3.32-10.26-4-13.48,0-5.22,6.57-1.32,11.76-1.87,20.06-.14.22,1.21,19.71,1.07,19.93-6.44,10.71-8.71,14.73-3.85,26.36-.41,1.26-8.48-3-8.64-1.58a34.12,34.12,0,0,0,1.81,14.22,13.55,13.55,0,0,0-3.5,1.46c-11.4,6.76-22.63,13.21-33.09,21a80.75,80.75,0,0,0-22,9.74,15,15,0,0,0-7,11.83c-7.4,5.2-16.43,13.1-20.21,22.12a14.27,14.27,0,0,0-4,4.39,42.91,42.91,0,0,0-5.43,17.21c-1.42,4.6-3,9.12-4.74,13.42s-4.27,9.07-5.1,14c-.91,5.38-.36,10-1.71,13.87-1.67,4.78.22,10.39,3.83,14-.28,1.83-.52,3.68-.7,5.54a50.54,50.54,0,0,0,.28,12.66,11.28,11.28,0,0,0-.36,3.83c1.09,13.74,4.42,27.32,8.15,40.75a18.68,18.68,0,0,0-5.87,1.23c-9.24,3.59-18.8,7-28.31,10.59-1.23.23-2.45.5-3.66.84a81.8,81.8,0,0,0-21.82,9.85c-14.77,7-28.59,15.65-39.95,27.59s-20.07,25.71-27.67,40.2c-3,2.57-5.88,5.2-8.72,7.92-7.64-7.62-14.47-16-21.3-24.36-.18-.21-.35-.43-.53-.65a23.47,23.47,0,0,0-6.91-18,196.48,196.48,0,0,0-77.66-47.25,171,171,0,0,0-18.93-5L207.59,449c.31-1.59.53-3.18.69-4.79,6.13-8.46,7.41-18.59,5.53-28.6a82.85,82.85,0,0,0,2.1-15.48,19,19,0,0,0-1.31-7.72l.21-2c1.25-12.85.74-25.79.22-38.67a24.14,24.14,0,0,0-8.25-17.05,23.28,23.28,0,0,0-2.6-7.75c-1.14-2.08-2.3-4.15-3.46-6.21-.2-1.74-.42-3.49-.67-5.24-.83-5.63-5.45-10.64-10.93-13.53-9.39-13.62-20.52-25.77-35.33-34.32-11.61-6.71-23.88-12.41-35.81-18.51-4.14-2.11-8.26-4.23-12.44-6.21a18.15,18.15,0,0,0,4.81-5.88c5-10,4.46-23.53,2-34.19-2.7-11.74-11.13-22-12-34.13-.51-7.31-12-7.36-11.44,0a43.14,43.14,0,0,0,1.21,7.43,4.32,4.32,0,0,0-3.27,3.9c-.91,6.34-1.7,12.72-2.62,19.07a5.43,5.43,0,0,0-4.8,1.58L69.34,211.24l-8.43,5c-.07,0-.14.1-.22.14a22.69,22.69,0,0,0-4.53.68c-2.19.56-4.48,3.09-4.2,5.51a.17.17,0,0,1,0,.07,20.65,20.65,0,0,0-3.12.6c-14.75,4.06-21.78,21.8-14,34.94a37.14,37.14,0,0,0,17.55,15.07,29.72,29.72,0,0,0,8.93,2.13c4,4.3,5.26-4.07,10-.58,5,3.72,36.39,9.38,41.57,12.86s-12.1,16.49-6.53,19.37c2.68,1.4,5.38,2.76,8,4.29,2,1.17,4.2,3.32,6.35,4.35-1.43-.74-1.89-1.74.32.15h0l.34.16-.32-.13c.94.79,1.86,1.61,2.76,2.45,1.82,1.7,3.58,3.47,5.26,5.31s3.38,3.88,5,5.87a2.31,2.31,0,0,0,.14.19c.73,1,1.48,2.06,2.21,3.1a318.76,318.76,0,0,1,16.93,28.11,19.16,19.16,0,0,0,2.33,3.29,17.17,17.17,0,0,0-2.83,11.09,3.16,3.16,0,0,1,0,.32,22,22,0,0,0-5,14.11c-1.18,1.79-2.51,3.48-3.61,5.32a53.49,53.49,0,0,0-4.66,10.89c0,.15-.13.35-.22.57s-.39.48-.5.6c-.84.91-1.71,1.8-2.53,2.73a48.21,48.21,0,0,0-6.45,8.72,37.42,37.42,0,0,0-4.54,16.2,112.09,112.09,0,0,0-9.78,20c-2.18,5.87-4.09,12.4-3.66,18.69.44,6.59,2.67,12.92,7.28,17.77a24.48,24.48,0,0,0,2.13,2c2.47,5.46,6.24,9.3,11.32,12.61a17,17,0,0,0,3.76,1.83,26.66,26.66,0,0,0,5.84,3.72,21.48,21.48,0,0,0,7.34,4.42,25.39,25.39,0,0,0,5.38,3.06l.71.61h-.16a24.84,24.84,0,0,0-16.14,6.31,5.5,5.5,0,0,0-4.82.44c-.43.34-.89.65-1.34,1A32.77,32.77,0,0,0,120,528a16,16,0,0,0-6.17,3.45h0l-.66.07c-6.14-4.14-15-4.3-20.3,1.5a17,17,0,0,0-2.65,3.87c-5.11,1.17-6.83,9-1.57,10.74a13.71,13.71,0,0,0,4.22,7.63q4.25,3.9,8.28,8a14.55,14.55,0,0,0,1.44,3.29A50.23,50.23,0,0,0,112,578.33a64.35,64.35,0,0,0,5.81,4.59c.59.83,1.2,1.66,1.78,2.49a20.38,20.38,0,0,0,3.19,3.57,50.62,50.62,0,0,0,7.41,10.26c5.28,5.35,12,9.71,18,14.26q3.4,2.61,6.84,5.17a22.59,22.59,0,0,0,3,3.8,23.75,23.75,0,0,0,16.63,7,57.27,57.27,0,0,0,21.94,8.23,19.62,19.62,0,0,0,9.34,5.26c5.19,1.12,10.75,1.26,16.19,1.45A350.69,350.69,0,0,0,247.91,685a19.26,19.26,0,0,0-1.62,8.22,328.78,328.78,0,0,0,2.52,33.76c-1.05,1.8-2.1,3.59-3.17,5.36-4.51,7.47-8.35,15.6-7.59,24.57a62.19,62.19,0,0,0,2.19,11.38,140.55,140.55,0,0,0-7.86,16.47,12.77,12.77,0,0,0-.69,2.28,13.4,13.4,0,0,0-1.12,1.59c-4.1,7-1.31,15.27,5.13,19.56,8.33,5.56,18,8.8,27.6,11.33,1,1.29,7.52,1.6,9.1,2.36,28.61,13.71,46.57,9.41,84.83,11.44a150.44,150.44,0,0,0,50.06-6c7.73-2.34,15.57-4.78,22.89-8.22,3.26-1.53,7-1,10-3,1-.68,2.71.59,3.82,0,.08.07,3-1.93,3.81-1.9,7.45.93,10.72-9.72,10.41-16.77a14.19,14.19,0,0,0-3.86-9.52c-.32-5.08-1.71-10.49-2.48-15.44q-2-12.69-3.95-25.37c-1.65-10.57-3.6-21.12-7-31.17-.77-5.34-1.75-10.68-1.22-16.08a2.34,2.34,0,0,0-1.74-2.28c0-2.21-.08-4.43-.24-6.66a239.66,239.66,0,0,0,32.82-47.67c.16,0,.33-.07.49-.12a55.1,55.1,0,0,0,7.79-3,55.75,55.75,0,0,1,12.41-1.7c8.42-.35,16.05-2.15,23.37-6.44,6.16-3.63,11.65-8.48,17.12-13s11.5-9.31,16.6-14.53c.92-.95,1.8-2,2.64-3,11-8.33,21.42-17.33,30.26-27.92a17.2,17.2,0,0,0,3.8-8,84.09,84.09,0,0,0,11.34-9.66c8.62-8.78,2.39-24.45-10.11-24.41-9.72,0-19.61-2-29.23-3.26L533.06,525a38.2,38.2,0,0,0-.21-8.49,44.5,44.5,0,0,0,13.5-7.23c12.07-5.4,22-13.7,26.83-27a42.17,42.17,0,0,0-1.06-30.22,16.28,16.28,0,0,0-2.61-11c-2.93-4.52-5.18-6.16-7.86-10.07-.47-.68-.92-1.38-1.37-2.07-.48-1.13-1-2.25-1.57-3.36a79.19,79.19,0,0,0-4.33-7,61.7,61.7,0,0,1-3.51-8.36,16.14,16.14,0,0,0-6-8c-.45-1.27-.9-2.56-1.36-3.89-5-14.84-9.46-28.62-8.06-43.88a21.51,21.51,0,0,0,4.18-4.23c3.79-5,6.38-10.66,9.81-15.88,2.82-4.29,7.61-9.14,11.66-13.64,6.31-7,12.5-14.2,19.16-20.91,4.61,2.68,10.76,3.13,14.86.23l13.06-9.26a16.81,16.81,0,0,0,6.44-8.7c14-3.62,27.82-9.06,36.34-21.2C655.43,258.4,659,253.4,658.54,248.33Z"/><path class="cls-19" d="M374.86,789.26s1.95,12.83-7.69,34.69"/><path class="cls-19" d="M315.94,789.58s-2.49,12.51,7.16,34.37"/><path class="cls-2" d="M148,515s98.7,7,144.65,15.43c44.37,8.17,35.8,17.86,50.14,16.07,32.8-4.08,59.73-17.87,82.93-20.57,114.43-13.28,107.57-7.28,107.57-7.28S616.47,496.33,546,395.4c-16.39-64.6-3.86-70.07,97.39-121.18,38.58-23.14,8.68-57.21-33.75-71.67-13.09-12.11-7.07-49.5-7.07-49.5s-24.21,32.29-26.73,80.48c-1.39,26.49-47.2,34.59-47.2,34.59S492,294.8,475.9,351.69c-15.23,53.89-3.08,79.69,4.5,95.14-48.86,12.22-121.07,70.79-135.54,101.65-23.25-36.08-81.1-88.47-135.1-102.93,16.71-93.22,1.75-155.95-91.78-197.42-19.29-9.64,3.71-22.12-4-54.91s-32.78-54-32.78-54,13.17,56.25-9,67.83-78.43,44.35-4.5,70.07c67.48,23.47,89.35,68.78,85.5,90s-51.75,97.07-37.29,120.21S148,515,148,515Z"/><g id="barba-2" data-name="barba"><path class="cls-8" d="M372.21,773s11.36,22.94,4.23,37C373.1,801,372,799.7,372,799.7s2.55,9.38-1,18.49l-5.28-8.47a40.8,40.8,0,0,1-2.7,19c-4,10.44-25.34,7.07-25.34,7.07l4.9-62.8Z"/><path class="cls-8" d="M318.71,773s-11.36,22.94-4.23,37c3.34-8.91,4.45-10.24,4.45-10.24s-2.49,10,.94,18.49l5.17-8.47s-.91,6.93,1.76,17.85,16.31.38,16.31.38l5.22-55Z"/><path class="cls-8" d="M374.33,776s22.07-42.85-15.22-45.85-16.92,34.5-16.92,34.5S338.54,781.55,374.33,776Z"/><path class="cls-8" d="M347.28,764.62s3.64,16.93-32.14,11.35c0,0-22.07-42.85,15.21-45.85"/></g><path class="cls-17" d="M135.35,325.92A298.25,298.25,0,0,0,46.61,538.58c0,139.79,95.88,257.19,225.46,290h0a301.12,301.12,0,0,0,160.86-3.75h0c2.72-.82,5.43-1.69,8.12-2.59h0c1.77-.6,3.51-1.2,5.25-1.83l.24-.08h0q7.81-2.79,15.42-6C569.53,769,645,662.59,645,538.58a298.33,298.33,0,0,0-91.64-215.49"/><path class="cls-20" d="M307.23,642.8a37.7,37.7,0,0,1-6.61-3.21,76.82,76.82,0,0,0-6.8-4.21c-4.82-2.32-10.13-3.64-15.21-5.24a2.18,2.18,0,0,0-1.24,0,2.33,2.33,0,0,0-.95-.19c-2.79,0-3,3.94-.75,4.65a14.85,14.85,0,0,0,.31,1.7,2.06,2.06,0,0,0-.45,1.37,7.68,7.68,0,0,0,2.3,5.29,11.12,11.12,0,0,0,1,1.28,9.34,9.34,0,0,0,6.89,2.85h.35c1.59.28,3.23.4,4.82.52a74,74,0,0,0,11.63,0,2.44,2.44,0,0,0,1.77-.87c.56.23,1.12.45,1.69.66a2.4,2.4,0,0,0,2.93-1.66A2.42,2.42,0,0,0,307.23,642.8Z"/><path class="cls-20" d="M415.2,631.91a2.29,2.29,0,0,0-2.88-1.81l-8.44,2.23a28.54,28.54,0,0,0-7.76,2.82,46.68,46.68,0,0,0-5.95,4.92c-1.74,1.51-3.76,2.79-6.14,2.61a2.31,2.31,0,0,0-1.37.38c-2.58.46-2.44,4.72.47,4.72a2.36,2.36,0,0,0,1.22-.33,6.77,6.77,0,0,0,.78,0c2.91,0,5.82,0,8.73,0h.2a3.41,3.41,0,0,0,1.4.81c1.67.46,3.81-.19,5.5-.41,3.75-.5,7.56-1.17,10.59-3.61a9.8,9.8,0,0,0,3.77-8.32A2.51,2.51,0,0,0,415.2,631.91Z"/><path class="cls-21" d="M219,400.39c7-40.54-6.84-84.14-36-113.16-13.13-13.07-29.28-24-45.87-32.21-4.29-2.13-36.94-24.87-16.13,1.66,3.68,4.69,8.85,10.32,13.22,13.47a217.26,217.26,0,0,1,65.66,76.58A212.48,212.48,0,0,1,219,400.39Z"/><path class="cls-21" d="M475.23,400.39c-7-40.54,6.84-84.14,36-113.16,13.13-13.07,29.28-24,45.87-32.21,4.3-2.13,36.94-24.87,16.13,1.66-3.68,4.69-8.85,10.32-13.22,13.47a217.36,217.36,0,0,0-65.66,76.58A212.45,212.45,0,0,0,475.23,400.39Z"/><path class="cls-21" d="M609.3,218c2.43,2.36,5.27,4.51,8.59,5.11s7.21-.75,8.61-3.83c1.16-2.53.41-5.59-1.11-7.92s-3.71-4.12-5.73-6a58.24,58.24,0,0,1-13.49-19.35c-1.42-3.29-4-19.32-9.16-10.49-3.25,5.61-1,17,.68,22.74A44.56,44.56,0,0,0,609.3,218Z"/><path class="cls-21" d="M82.26,218c-2.43,2.36-5.27,4.51-8.6,5.11s-7.2-.75-8.61-3.83c-1.15-2.53-.4-5.59,1.12-7.92s3.7-4.12,5.73-6a58.24,58.24,0,0,0,13.49-19.35c1.42-3.29,4-19.32,9.16-10.49,3.25,5.61,1,17-.69,22.74A44.54,44.54,0,0,1,82.26,218Z"/><path class="cls-21" d="M588.06,547.32c3,.56,6.09,1.19,9,.2a9.16,9.16,0,0,0,5.95-8.07c.83-14.33-32.35-7.54-39-9.31-10.32-2.76-15.3-16.22-25.86-15.25-20.85,1.91-43.07,22.25-50,45.21C521.54,548.28,553.41,540.92,588.06,547.32Z"/><path class="cls-21" d="M102.93,547.32c-3,.56-6.1,1.19-9,.2a9.18,9.18,0,0,1-6-8.07c-.83-14.33,32.36-7.54,39-9.31,10.32-2.76,15.3-16.22,25.85-15.25,20.85,1.91,43.08,22.25,50,45.21C169.45,548.28,137.57,540.92,102.93,547.32Z"/><path class="cls-22" d="M477.85,624.28c-5.21,2.31-11,5-12.93,9.75-1.12,2.79-1,5.41,1.91,7.62,3.81,2.86,6.44,4.08,10.37,3.07,42.39-10.91,80.76-36.34,107.89-70.63,5.15-6.5,16.18-18,16.79-26.35-6.27.6-13.28,8.3-18.07,12.08-10.62,8.4-21.47,16.48-32.71,24A481,481,0,0,1,477.85,624.28Z"/><path class="cls-22" d="M211.83,624.28c5.2,2.31,11,5,12.92,9.75,1.12,2.79,1,5.41-1.91,7.62-3.81,2.86-6.44,4.08-10.37,3.07-42.39-10.91-80.76-36.34-107.89-70.63-5.14-6.5-16.18-18-16.79-26.35,6.27.6,13.29,8.3,18.07,12.08,10.63,8.4,21.47,16.48,32.72,24A480,480,0,0,0,211.83,624.28Z"/><path class="cls-22" d="M312.47,698.93c-.11-6.9-.22-13.83-1.36-20.63s-3.38-13.53-7.4-19.13c-1.75-2.43-7.57-6.14-6.53-8.94.93-2.51,7.58-2.57,10.19-3.16a23.63,23.63,0,0,1,6.82-.85,8,8,0,0,1,6,3c1.71,2.37,1.43,5.58,1.07,8.49l-3.51,28.86c-.58,4.76-1.86,10.39-2.44,15.15-.25,2.08,0,8.58-2.6,8C311.48,709.32,312.52,702.47,312.47,698.93Z"/><path class="cls-22" d="M377.54,698.93a136.62,136.62,0,0,1,1.35-20.63c1.15-6.8,3.38-13.53,7.4-19.13,1.75-2.43,7.57-6.14,6.53-8.94-.93-2.51-7.58-2.57-10.19-3.16a23.59,23.59,0,0,0-6.82-.85,8,8,0,0,0-6,3c-1.71,2.37-1.43,5.58-1.07,8.49l3.51,28.86c.58,4.76,1.48,10.39,2.06,15.15.26,2.08.38,8.58,3,8C378.53,709.32,377.48,702.47,377.54,698.93Z"/><path class="cls-22" d="M212.35,453.61c-10.29-1.21-20.65-2.61-30.43-6s-19-9-25.23-17.35a8.24,8.24,0,0,1-2-4.5c0-1.66,1.14-3.46,2.8-3.51a5,5,0,0,1,2.5.89,92.43,92.43,0,0,0,41.38,11.74c2.93.12,6,.12,8.59,1.43s4.62,4.41,3.61,7.16Z"/><path class="cls-22" d="M479.3,453.61c10.29-1.21,20.65-2.61,30.43-6s19-9,25.23-17.35a8.3,8.3,0,0,0,2-4.5c0-1.66-1.13-3.46-2.79-3.51a5.08,5.08,0,0,0-2.51.89,92.39,92.39,0,0,1-41.38,11.74c-2.92.12-6,.12-8.59,1.43s-4.62,4.41-3.6,7.16Z"/><path class="cls-22" d="M131,302.13c-13-12.07-29-20.29-45.31-27.22s-33.09-12.74-48.85-20.83c-3.53,2.56-2.63,8.43.51,11.45s7.62,4.05,11.78,5.36C68,276.83,83.52,290.24,100,301.29c10.14,6.79,20.85,12.79,30.38,20.42a78.33,78.33,0,0,1,14.63,15c1.29,1.77,2.79,6.15,5.34,6.05,3.38-.13,2.69-3.9,2.36-5.91C150.58,323.78,140.33,310.85,131,302.13Z"/><path class="cls-22" d="M559.8,302.13c13-12.07,29-20.29,45.31-27.22s33.1-12.74,48.85-20.83c3.53,2.56,2.64,8.43-.51,11.45s-7.62,4.05-11.78,5.36c-18.94,5.94-34.42,19.35-50.91,30.4-10.14,6.79-20.85,12.79-30.38,20.42a78.63,78.63,0,0,0-14.63,15c-1.28,1.77-2.79,6.15-5.34,6.05-3.38-.13-2.68-3.9-2.35-5.91C540.19,323.78,550.44,310.85,559.8,302.13Z"/><path class="cls-22" d="M404.74,702.86c1.85,18.18,3.67,36.88-1.31,54.47s-18.41,34-36.45,37c1.68-4,1.81-11.83,5.49-15.42s8.17-4.4,12.34-7.42c16.08-11.63,16.26-20.21,18.16-41.18C403.75,721.74,403.93,712.18,404.74,702.86Z"/><path class="cls-22" d="M286,702.86c-1.86,18.18-3.67,36.88,1.31,54.47s18.41,34,36.45,37c-1.68-4-1.81-11.83-5.5-15.42s-8.16-4.4-12.33-7.42c-16.08-11.63-16.26-20.21-18.16-41.18C287,721.74,286.78,712.18,286,702.86Z"/><path class="cls-21" d="M327.32,796.9a29.35,29.35,0,0,0,8.84,1.69c7.33.62,14.76,1.23,22,0,2.91-.51,5.89-1.39,8-3.42,3-2.78,3.78-7.1,4.43-11.11.28-1.71.48-3.7-.73-4.95-.74-.77-4-1.85-5.06-2.08-11.11-2.42-20.39-2.61-31.75-2.11a23.33,23.33,0,0,0-8.42,1.51c-2.62,1.15-4.12,1.59-4.63,4.41C319.11,786.11,322.5,794.88,327.32,796.9Z"/><path class="cls-22" d="M577.93,248.52a73.93,73.93,0,0,0,18.51-8c1.24-.76,2.61-1.85,2.48-3.29a3,3,0,0,0-2.55-2.34,25.34,25.34,0,0,0-3.7-.11,17.49,17.49,0,0,1-5.77-1.7,17.66,17.66,0,0,0-5.76-1.73,6,6,0,0,0-5.33,2.22c-1.15,1.66-.78,4.34,1,5.22"/><path class="cls-22" d="M112.93,248.52a74,74,0,0,1-18.5-8c-1.24-.76-2.61-1.85-2.48-3.29a3,3,0,0,1,2.55-2.34,25.29,25.29,0,0,1,3.7-.11A17.37,17.37,0,0,0,104,233a17.73,17.73,0,0,1,5.76-1.73,6,6,0,0,1,5.34,2.22c1.14,1.66.77,4.34-1,5.22"/><g id="direita-4" data-name="direita"><path class="cls-23" d="M461.15,803.36c-5-21.55-18.45-81.77-20.07-115.76,20-22,27.93-43.89,27.93-43.89s36.95,2,82.14-37.28h0C569,590.93,588.06,569,606.68,538c-47.89-20-79.81-16-79.81-16s69.84-19.95,47.89-73.82c-27.94-53.88-35.91-69.83-35.91-69.83s-16-37.91,43.89-75.82c61.85-31.92,75.81-33.92,77.81-55.86s-37.91-35.92-37.91-35.92-29.93-12-18-53.87l2-8s-45.89,43.89-29.93,83.8l4,10S504.93,272.6,487,316.49s-20,77.81-8,121.71l4,10s-11,1.28-27.46,7.12c-29.59,10.49-76.89,35.69-110.21,94.63"/><path class="cls-24" d="M437,632a50.23,50.23,0,0,0-19.3-1.46,52.58,52.58,0,0,0-18.22,5.59,36,36,0,0,0-4,2.44l-2,1.46c-.7.54-1.43,1-2.15,1.46-2.89,1.85-5.86,3.4-8.83,5s-6,3-9,4.36-6.13,2.52-9.32,3.58l-9.3,3.08,6.07-7.58c.23-.29.59-.74.88-1.15s.6-.87.9-1.31c.57-.9,1.14-1.82,1.66-2.77a50.17,50.17,0,0,0,2.83-5.91c.42-1,.79-2.07,1.15-3.12s.71-2.12,1-3.21c.65-2.16,1.05-4.39,1.54-6.67h.57a35.34,35.34,0,0,1,.51,7.06,38.24,38.24,0,0,1-.85,7.12,39.83,39.83,0,0,1-2.12,6.93c-.46,1.13-1,2.24-1.54,3.33-.3.54-.59,1.09-.92,1.62a17,17,0,0,1-1.1,1.67l-3.22-4.5c3-1.22,6-2.43,9.06-3.58s6.11-2.27,9.11-3.51a82.52,82.52,0,0,0,8.69-4.12c.69-.39,1.37-.77,2-1.2l1-.64c.37-.25.73-.5,1.11-.73a37.51,37.51,0,0,1,4.58-2.46,53.38,53.38,0,0,1,19.71-4.48,49.57,49.57,0,0,1,19.65,3.2Z"/><path class="cls-25" d="M378.19,646.42s43.91,11.71,37.17-15.25"/><path d="M344.31,724.51s23.95-12,29.93,2-12,21.94-12,21.94-6,15.39-17,18.67C344.31,736.48,344.31,724.51,344.31,724.51Z"/><polygon class="cls-26" points="370.99 649.44 376.24 708.55 365.32 650.22 370.99 649.44"/><path class="cls-27" d="M345.1,771.75a65.13,65.13,0,0,1,7,.11c2.31.16,4.62.42,6.92.81a53.39,53.39,0,0,1,6.84,1.7,33.81,33.81,0,0,1,6.57,3l-2.48.06c4.12-2.64,8.41-4.92,12.49-7.27s7.84-5,10.69-8.44a32.71,32.71,0,0,0,6-12.19l.49-1.67.37-1.72c.23-1.15.52-2.29.71-3.45.32-2.34.78-4.66.95-7,.52-4.7.8-9.51,1.17-14.27s.72-9.55,1.14-14.32.88-9.56,1.73-14.29a40.83,40.83,0,0,1,1.86-7,23.88,23.88,0,0,1,3.57-6.22,23.5,23.5,0,0,0-3.29,6.32,39.39,39.39,0,0,0-1.57,7c-.65,4.72-.91,9.49-1.14,14.26s-.39,9.56-.56,14.34-.27,9.55-.6,14.38c-.08,2.41-.44,4.82-.68,7.23-.15,1.2-.4,2.4-.59,3.6l-.31,1.81L402,750.3a35.86,35.86,0,0,1-6.09,13.59,41.73,41.73,0,0,1-11.31,9.75c-4.11,2.6-8.18,5-12,7.67l-1.14.79-1.34-.73a29.93,29.93,0,0,0-5.65-2.32,48.67,48.67,0,0,0-6.18-1.26c-2.1-.27-4.23-.43-6.37-.49s-4.76-.06-6.76.11Z"/></g><g id="esquerda-4" data-name="esquerda"><path class="cls-28" d="M345.31,549.93C311.76,490.58,264,465.44,234.5,455.08c-16.15-5.66-26.85-6.9-26.85-6.9l4-10c12-43.9,10-77.81-8-121.71s-93.77-73.81-93.77-73.81l4-10c16-39.91-29.92-83.8-29.92-83.8l2,8c12,41.9-18,53.87-18,53.87s-39.9,14-37.9,35.92,16,23.94,77.81,55.86c59.85,37.91,43.89,75.82,43.89,75.82s-8,15.95-35.91,69.83c-22,53.87,47.88,73.82,47.88,73.82s-31.92-4-79.8,16c18.31,30.53,37.1,52.26,54.67,67.72,45.57,40.11,83,38,83,38s8,21.94,27.94,43.89c-1.64,34.27-15.29,95.26-20.2,116.31"/><path class="cls-29" d="M253.44,631.46a49.57,49.57,0,0,1,19.65-3.2,53.29,53.29,0,0,1,19.71,4.48,37.63,37.63,0,0,1,4.59,2.46c.37.23.73.48,1.1.73l1,.64c.62.43,1.31.81,2,1.2a82.69,82.69,0,0,0,8.7,4.12c3,1.24,6.05,2.35,9.1,3.51s6.08,2.36,9.07,3.58l-3.23,4.5a17,17,0,0,1-1.1-1.67c-.33-.53-.61-1.08-.91-1.62-.57-1.09-1.09-2.2-1.55-3.33a41.63,41.63,0,0,1-2.12-6.93,39.1,39.1,0,0,1-.85-7.12,35.34,35.34,0,0,1,.51-7.06h.57c.49,2.28.89,4.51,1.55,6.67.27,1.09.62,2.16,1,3.21s.73,2.1,1.15,3.12a48.64,48.64,0,0,0,2.83,5.91c.51,1,1.08,1.87,1.66,2.77.29.44.58.89.89,1.31s.65.86.88,1.15l6.08,7.58-9.31-3.08c-3.19-1.06-6.26-2.25-9.32-3.58s-6-2.83-9-4.36-5.93-3.1-8.83-5c-.72-.46-1.44-.92-2.15-1.46l-1.95-1.46a36.17,36.17,0,0,0-4-2.44,52.58,52.58,0,0,0-18.22-5.59,50.24,50.24,0,0,0-19.3,1.46Z"/><path d="M346.31,724.51s-23.94-12-29.93,2,12,21.94,12,21.94,6,15.39,17,18.67C346.31,736.48,346.31,724.51,346.31,724.51Z"/><polygon class="cls-30" points="325.3 650.22 314.39 708.55 319.64 649.44 325.3 650.22"/><path class="cls-31" d="M345.19,777.41a62.12,62.12,0,0,0-6.43-.11c-2.13.06-4.27.22-6.37.49a48.16,48.16,0,0,0-6.17,1.26,29.39,29.39,0,0,0-5.65,2.32l-1.35.73-1.13-.79c-3.84-2.68-7.92-5.07-12-7.67s-8.23-5.66-11.31-9.75a35.69,35.69,0,0,1-6.08-13.59l-.45-1.78-.32-1.81c-.19-1.2-.44-2.4-.59-3.6-.23-2.41-.6-4.82-.68-7.23-.33-4.83-.41-9.59-.6-14.38s-.33-9.56-.55-14.34-.5-9.54-1.15-14.26a40.27,40.27,0,0,0-1.56-7,23.82,23.82,0,0,0-3.3-6.32,23.88,23.88,0,0,1,3.57,6.22,40.86,40.86,0,0,1,1.87,7c.84,4.73,1.29,9.52,1.72,14.29s.78,9.54,1.14,14.32.66,9.57,1.17,14.27c.17,2.37.63,4.69.95,7,.19,1.16.48,2.3.71,3.45l.37,1.72.5,1.67a32.56,32.56,0,0,0,6,12.19,38.22,38.22,0,0,0,10.68,8.44c4.08,2.35,8.37,4.63,12.49,7.27l-2.48-.06a33.81,33.81,0,0,1,6.57-3,53.8,53.8,0,0,1,6.84-1.7c2.3-.39,4.61-.65,6.92-.81a65.28,65.28,0,0,1,7-.11Z"/></g><path class="cls-25" d="M312.18,646.42S268.27,658.13,275,631.17"/><line class="cls-32" x1="551.15" y1="606.43" x2="551.15" y2="606.42"/><path d="M371,779.37a12.57,12.57,0,0,1,.85,4.81,16.83,16.83,0,0,1-.66,4.73,14.35,14.35,0,0,1-2,4.43,8.12,8.12,0,0,1-3.86,3.19c.49-1.65.79-3,1.15-4.46s.68-2.8,1.09-4.19.85-2.81,1.38-4.22A23.8,23.8,0,0,1,371,779.37Z"/><path d="M319.58,779.37a23.8,23.8,0,0,1,2.09,4.29c.54,1.41,1,2.82,1.39,4.22s.73,2.8,1.09,4.19.66,2.81,1.15,4.46a8.1,8.1,0,0,1-3.87-3.19,14.58,14.58,0,0,1-2-4.43,17.2,17.2,0,0,1-.66-4.73A13,13,0,0,1,319.58,779.37Z"/><path class="cls-8" d="M368.22,675.69S357.61,668,348,672.26c-8.44,3.75-11-6.24-25.39,1.26l-2.33,14.38s5.14-7.79,19.6-3.42a12.45,12.45,0,0,0,6.9,0c11.59-3.29,23.29,2.82,23.29,2.82Z"/></g><path d="M373.38,773.72a66.57,66.57,0,0,0,3.89-9.25,54.55,54.55,0,0,0,2.36-9.83,30,30,0,0,0-.2-10,17.87,17.87,0,0,0-4.62-9,18,18,0,0,1,3.41,3.91,19.76,19.76,0,0,1,2.18,4.79,31.36,31.36,0,0,1,1.22,10.47,56.89,56.89,0,0,1-1.46,10.47A69.77,69.77,0,0,1,377,775.45l-.75,1.86-3.78-1.82Z"/><path d="M312.37,775.45a69.72,69.72,0,0,1-3.16-10.17,56.06,56.06,0,0,1-1.47-10.47A31.36,31.36,0,0,1,309,744.34a19.76,19.76,0,0,1,2.18-4.79,18.26,18.26,0,0,1,3.41-3.91,17.87,17.87,0,0,0-4.62,9,29.75,29.75,0,0,0-.19,10,53.69,53.69,0,0,0,2.35,9.83,67.8,67.8,0,0,0,3.89,9.25l.92,1.77-3.78,1.82Z"/><path d="M571.68,525.26c-19.5.52-38.83,1.31-58,2.52-19.12-.81-38.27-.81-57.3.16s-38,3-56.33,7a181,181,0,0,0-26.75,7.83,96.1,96.1,0,0,0-23.7,12.74l-4.38,3.34-4.3-3.49c-6.58-5.33-14.74-9.34-23.26-12.51a187.78,187.78,0,0,0-26.75-7.39c-18.36-3.71-37.27-5.6-56.22-6.63s-38.06-1.15-57.12-.58c-9.57-.76-19.16-1.41-28.79-2-4.81-.31-9.64-.59-14.46-.83s-9.67-.51-14.52-.75c4.71-1.2,9.46-2.2,14.22-3.22s9.53-1.88,14.32-2.75c9.57-1.75,19.19-3.21,28.86-4.48,19.38-.42,38.79-.39,58.23.67s38.92,3,58.28,6.89a201,201,0,0,1,28.81,8c9.44,3.54,18.85,8,27.26,14.81l-8.68-.15a110,110,0,0,1,27.15-14.67A194.5,194.5,0,0,1,397,521.25c19.42-4.19,39-6.24,58.58-7.29s39.1-.93,58.58-.23c9.71,1.38,19.36,3,28.95,4.89S562.27,522.67,571.68,525.26Z"/></g></g></g></svg>