<svg xmlns="http://www.w3.org/2000/svg" xmlns:xlink="http://www.w3.org/1999/xlink" viewBox="0 0 1331.32 749.9"><defs><style>.cls-1{isolation:isolate;}.cls-2{fill:#fff;}.cls-3{fill:url(#Gradiente_sem_nome_5);}.cls-4{fill:url(#Gradiente_sem_nome_5-2);}.cls-5{fill:url(#Gradiente_sem_nome_5-3);}.cls-6{fill:url(#Gradiente_sem_nome_5-4);}.cls-7{fill:#0a1920;}.cls-10,.cls-11,.cls-12,.cls-19,.cls-23,.cls-24,.cls-25,.cls-26,.cls-27,.cls-28,.cls-29,.cls-30,.cls-31,.cls-32,.cls-8,.cls-9{stroke:#000;}.cls-10,.cls-12,.cls-13,.cls-14,.cls-15,.cls-17,.cls-19,.cls-23,.cls-28,.cls-8,.cls-9{stroke-miterlimit:10;}.cls-10,.cls-11,.cls-12,.cls-13,.cls-14,.cls-15,.cls-16,.cls-17,.cls-8,.cls-9{stroke-width:30px;}.cls-8{fill:url(#Gradiente_sem_nome_5-5);}.cls-11,.cls-12,.cls-14,.cls-16,.cls-17,.cls-19,.cls-23,.cls-25,.cls-28,.cls-32,.cls-9{fill:none;}.cls-11,.cls-14,.cls-16,.cls-23,.cls-24,.cls-25,.cls-26,.cls-32,.cls-9{stroke-linecap:round;}.cls-11,.cls-16,.cls-24,.cls-25,.cls-27,.cls-29,.cls-32{stroke-linejoin:bevel;}.cls-13,.cls-14,.cls-15,.cls-16,.cls-17{stroke:#fff;}.cls-13{fill:url(#Gradiente_sem_nome_5-6);}.cls-18{fill:#562210;}.cls-19{stroke-width:14px;}.cls-20{fill:#efc12e;}.cls-21,.cls-22{fill:#23113f;}.cls-21{opacity:0.7;mix-blend-mode:screen;}.cls-22{mix-blend-mode:overlay;}.cls-23,.cls-28{stroke-width:10px;}.cls-24,.cls-26,.cls-29,.cls-30,.cls-32{stroke-width:4px;}.cls-25{stroke-width:6px;}.cls-26,.cls-30,.cls-31{stroke-linejoin:round;}.cls-27,.cls-31{stroke-width:2px;}</style><linearGradient id="Gradiente_sem_nome_5" x1="860.78" y1="518.03" x2="860.78" y2="259.08" gradientUnits="userSpaceOnUse"><stop offset="0" stop-color="#efc12e"/><stop offset="1" stop-color="#ff5240"/></linearGradient><linearGradient id="Gradiente_sem_nome_5-2" x1="987.96" y1="495.71" x2="987.96" y2="259.08" xlink:href="#Gradiente_sem_nome_5"/><linearGradient id="Gradiente_sem_nome_5-3" x1="1116.07" y1="495.71" x2="1116.07" y2="259.08" xlink:href="#Gradiente_sem_nome_5"/><linearGradient id="Gradiente_sem_nome_5-4" x1="1243.23" y1="518.03" x2="1243.23" y2="259.08" xlink:href="#Gradiente_sem_nome_5"/><linearGradient id="Gradiente_sem_nome_5-5" x1="43.98" y1="446.82" x2="592.64" y2="446.82" xlink:href="#Gradiente_sem_nome_5"/><linearGradient id="Gradiente_sem_nome_5-6" x1="30.23" y1="446.82" x2="606.39" y2="446.82" xlink:href="#Gradiente_sem_nome_5"/></defs><title>horizontal-logo_1-dusk</title><g class="cls-1"><g id="Camada_2" data-name="Camada 2"><g id="preview"><g id="preto"><g id="vertical"><g id="laranja"><path d="M787.71,240.89H882.5l81.19.32c11,6-55.1,13.77-42.76,20.23l9.06,4.74,0,14.9-.55,199.58,0,9.1-7.61,5c-11.74,7.67,30.53,9.23,19.43,17.13l-57,8.57-4.15.72c-11.44,1.91-23,4-34.27,6.31-5.52,1.12-11.15,2.3-16.72,3.52-6.85,1.5-13.78,3.09-20.58,4.72l-20.8,5Z"/><path d="M916.52,240.89h142.27l-.08,265.89-16.69.16c-12.6.12-25.38.47-38,1.05-10.49.49-21.13,1.14-31.6,1.94-12.57,1-25.31,2.17-37.86,3.59l-18.8,2.13Z"/><path d="M1054.39,371.27l-9.1-4.7,0-13.56,0-112.1,16.86,0h125.41l.29,109-5,21.52c-5.6-.2,4.68,12.35-.94,12.18,9,5.06-10.77-24.85-2.37-19.94l8.35,4.88v11l.36,136.18-18.8-2.13c-12.54-1.42-25.28-2.63-37.86-3.59-10.48-.8-21.12-1.46-31.6-1.94-12.59-.58-25.37-.93-38-1.05l-16.69-.16,0-124.74"/><path d="M1316.32,379.12V540.7l-20.8-5c-12.3-3-24.85-5.73-37.3-8.24l-13.5-2.72v-.07l-17.75-3c-12.47-2.13-25.14-4-37.66-5.71l-14.6-1.93L1174,240.89h142.36V377.41"/><path class="cls-2" d="M772.71,225.89H882.5l85,.34,3.32,1.81a16.39,16.39,0,0,1,8.94,16.55c-1.38,11.1-12.5,14.79-17.25,16.36s-10.46,3-16.1,4.49l-1.46.38,0,15.29-.55,199.59,0,11.16c6.42,2.69,12.17,6.8,13.48,14.78.52,3.17.78,11.23-8,17.45L947,526.17l-60.37,9.08-4,.69c-11.33,1.89-22.69,4-33.85,6.24-5.5,1.11-11,2.27-16.48,3.46-6.77,1.48-13.6,3.05-20.29,4.66l-39.3,9.43Z"/><path d="M787.71,240.89H882.5l81.19.32c11,6-55.1,13.77-42.76,20.23l9.06,4.74,0,14.9-.55,199.58,0,9.1-7.61,5c-11.74,7.67,30.53,9.23,19.43,17.13l-57,8.57-4.15.72c-11.44,1.91-23,4-34.27,6.31-5.52,1.12-11.15,2.3-16.72,3.52-6.85,1.5-13.78,3.09-20.58,4.72l-20.8,5Z"/><path class="cls-2" d="M901.56,225.89H1073.8l-.09,295.74-31.54.31c-12.42.11-25,.46-37.43,1-10.34.47-20.82,1.11-31.15,1.9-12.39,1-25,2.14-37.31,3.54l-35.54,4Z"/><path d="M916.52,240.89h142.27l-.08,265.89-16.69.16c-12.6.12-25.38.47-38,1.05-10.49.49-21.13,1.14-31.6,1.94-12.57,1-25.31,2.17-37.86,3.59l-18.8,2.13Z"/><path class="cls-2" d="M1203.29,532.45l-35.54-4c-12.35-1.4-24.9-2.59-37.31-3.54-10.35-.79-20.83-1.43-31.15-1.9-12.42-.58-25-.93-37.42-1l-31.55-.31,0-139.58h12.28l-12.27-6.34,0-22.67,0-127.11,31.86,0h140.37l.35,125.67-1.69,7.32,1.75,1v19.56Zm-143-40.53,1.84,0c12.78.12,25.74.48,38.52,1.07,10.62.49,21.41,1.15,32.06,2,12.77,1,25.69,2.2,38.4,3.64l2.07.24-.32-121.73-.92-.54a7.93,7.93,0,0,0,.92.47v-3.11c-3.71,4.14-3.92,9.28-3.33,11.4a22.54,22.54,0,0,0-.86-2.26,6.4,6.4,0,0,0,.22,1.24c-.08-.27-.38-1.05-.57-1.56-.28-.75-.63-1.67-1-2.7l-.32-.71c-1.12-2.53-2.29-5.15-3.13-7.53-3.65-10.33,0-16.45,3.71-19.77a15.73,15.73,0,0,1,4.95-3l.21-.88-.25-92.29H1060.24l0,101.54,1,.52-1,1.93v6.67h-3.46l-8,15.49h11.45Z"/><path d="M1054.39,371.27l-9.1-4.7,0-13.56,0-112.1,16.86,0h125.41l.29,109-5,21.52c-5.6-.2,4.68,12.35-.94,12.18,9,5.06-10.77-24.85-2.37-19.94l8.35,4.88v11l.36,136.18-18.8-2.13c-12.54-1.42-25.28-2.63-37.86-3.59-10.48-.8-21.12-1.46-31.6-1.94-12.59-.58-25.37-.93-38-1.05l-16.69-.16,0-124.74"/><path class="cls-2" d="M1301.32,255.89H1189l.68,245,1.61.21c12.71,1.69,25.56,3.64,38.2,5.79l30.23,5.14v.45l1.46.3c12.6,2.54,25.33,5.35,37.85,8.35l2.29.55"/><path class="cls-2" d="M1331.32,379.12V559.73L1292,550.3c-12.15-2.92-24.53-5.66-36.77-8.12l-15.32-3.09-15.48-2.64c-12.27-2.09-24.76-4-37.11-5.62l-27.59-3.66-.83-301.28h172.4V377.41"/><path d="M1316.32,379.12V540.7l-20.8-5c-12.3-3-24.85-5.73-37.3-8.24l-13.5-2.72v-.07l-17.75-3c-12.47-2.13-25.14-4-37.66-5.71l-14.6-1.93L1174,240.89h142.36V377.41"/><path d="M787.71,240.89H882.5l81.19.32c11,6-55.1,13.77-42.76,20.23l9.06,4.74,0,14.9-.55,199.58,0,9.1-7.61,5c-11.74,7.67,30.53,9.23,19.43,17.13l-57,8.57-4.15.72c-11.44,1.91-23,4-34.27,6.31-5.52,1.12-11.15,2.3-16.72,3.52-6.85,1.5-13.78,3.09-20.58,4.72l-20.8,5Z"/><path d="M916.52,240.89h142.27l-.08,265.89-16.69.16c-12.6.12-25.38.47-38,1.05-10.49.49-21.13,1.14-31.6,1.94-12.57,1-25.31,2.17-37.86,3.59l-18.8,2.13Z"/><path d="M1054.39,371.27l-9.1-4.7,0-13.56,0-112.1,16.86,0h125.41l.29,109-5,21.52c-5.6-.2,4.68,12.35-.94,12.18,9,5.06-10.77-24.85-2.37-19.94l8.35,4.88v11l.36,136.18-18.8-2.13c-12.54-1.42-25.28-2.63-37.86-3.59-10.48-.8-21.12-1.46-31.6-1.94-12.59-.58-25.37-.93-38-1.05l-16.69-.16,0-124.74"/><path d="M1316.32,379.12V540.7l-20.8-5c-12.3-3-24.85-5.73-37.3-8.24l-13.5-2.72v-.07l-17.75-3c-12.47-2.13-25.14-4-37.66-5.71l-14.6-1.93L1174,240.89h142.36V377.41"/><path class="cls-3" d="M879.94,259.08q17.28,9.42,34.56,18.44v1.84c0,.93,0,1.85,0,2.77l-.09,33.8c0,1.54,0,3.08,0,4.61q0,12-.07,24-.09,34.11-.19,68.23,0,12.13-.07,24.27c0,1.54,0,3.08,0,4.61l-.09,33.5c0,1,0,2.05,0,3.07v1.54q-17.34,11.34-34.62,23.61l-.33.06q-17.25,2.88-34.42,6.35-8.43,1.69-16.82,3.53-10.38,2.26-20.71,4.75V259.08h72.89Zm-3.71,157.34q.07-34.92.17-69.86,0-22.65.11-45.31c-3.88-2-7.75-4-11.63-6l-20,.56q-.15,88.6-.29,177.21,9.92-1.71,19.86-3.25,5.81-4.06,11.62-8Q876.17,439.08,876.23,416.42Z"/><path class="cls-4" d="M1042,489.09q-19.11.18-38.2,1.06-15.9.74-31.79,2-19.07,1.45-38.08,3.61L934,461l.54-202h38Q972.26,358.52,972,458q15.88-1,31.77-1.66.13-98.61.28-197.21H1042l-.06,196.3Q1042,472.24,1042,489.09Z"/><path class="cls-5" d="M1169.51,259.08l.09,34.67q0,19.62.11,39.24-19-.67-38-1.13,0-19.32-.08-38.63-15.83-.18-31.65-.29l.07,46.63c23.25,12.35,46.52,25.14,69.77,38.74v1.21c0,.71,0,1.42,0,2.13q0,15.68.08,31.33c0,1,0,2,0,3l.12,45,.09,34.67q-19-2.16-38.08-3.61-15.88-1.22-31.79-2-19.1-.88-38.2-1.06,0-16.86,0-33.71,0-28.23,0-56.46,19.05.1,38.1.64,0,28.37.08,56.73,15.88.63,31.77,1.66-.06-28.9-.13-57.8,5.85.27,11.69.58l-.67-.34q-5.52-3.13-11-6.23c-23.28-13.12-46.56-25.5-69.82-37.52v-3.25q0-15.22,0-30.45v-3q0-13.59,0-27.2,0-16.84,0-33.7h107.51Z"/><path class="cls-6" d="M1297,366.92q-9.09,4.26-18.2,8.42,9.12,6.15,18.2,12.55V518q-18.7-4.49-37.53-8.28-.08-49.47-.16-98.92,5.79.71,11.59,1.45l-.66-.41q-5.48-3.78-10.94-7.48-15.75-10.69-31.55-20.69.13,60.09.29,120.2-18.9-3.21-37.88-5.73-.2-68.84-.38-137.68c0-1.12,0-2.25,0-3.38l-.09-31.65c0-1,0-2,0-3.07q-.09-31.65-.17-63.31h37.94l.21,85.28q15.81,9.58,31.58,19.76-.07-52.53-.17-105H1297Z"/></g></g></g><g id="amarelo"><circle class="cls-7" cx="318.31" cy="446.82" r="274.33"/><g id="direita"><path class="cls-7" d="M424.09,689.6c-4.61-19.76-16.92-75-18.41-106.14,18.3-20.13,25.62-40.25,25.62-40.25s33.88,1.88,75.31-34.18h0c16.34-14.21,33.85-34.32,50.92-62.77-43.91-18.3-73.18-14.64-73.18-14.64s64-18.29,43.91-67.68c-25.61-49.41-32.93-64-32.93-64s-14.64-34.77,40.24-69.52c56.72-29.27,69.52-31.11,71.35-51.23s-34.75-32.93-34.75-32.93-27.45-11-16.47-49.4l1.83-7.31s-42.08,40.24-27.44,76.83l3.66,9.15s-69.52,27.44-86,67.69-18.29,71.34-7.31,111.6l3.65,9.15s-10.07,1.17-25.18,6.53c-27.12,9.61-70.49,32.71-101.05,86.77"/><path class="cls-7" d="M401.94,532.48a46,46,0,0,0-17.69-1.33,47.89,47.89,0,0,0-16.7,5.12,31.78,31.78,0,0,0-3.65,2.24l-1.79,1.33c-.65.5-1.31.92-2,1.35-2.65,1.69-5.37,3.11-8.09,4.53s-5.47,2.77-8.26,4-5.62,2.32-8.54,3.28l-8.53,2.83,5.57-7c.21-.26.54-.68.81-1.06s.54-.79.82-1.2c.52-.82,1-1.66,1.52-2.54a44.24,44.24,0,0,0,2.59-5.42c.39-.93.73-1.89,1.06-2.86s.65-1.94.9-2.94c.6-2,1-4,1.41-6.12h.53a32.56,32.56,0,0,1,.46,6.48,35.18,35.18,0,0,1-.78,6.52,36.72,36.72,0,0,1-1.94,6.36c-.42,1-.9,2-1.42,3-.27.5-.53,1-.84,1.49a16.44,16.44,0,0,1-1,1.53l-3-4.12c2.73-1.12,5.53-2.23,8.31-3.29s5.6-2.08,8.35-3.22a74.69,74.69,0,0,0,8-3.77c.63-.36,1.26-.71,1.83-1.1l.9-.59c.34-.23.68-.46,1-.67a34.73,34.73,0,0,1,4.2-2.25,48.73,48.73,0,0,1,18.07-4.11,45.31,45.31,0,0,1,18,2.93Z"/><path class="cls-7" d="M348,545.69s40.27,10.74,34.09-14"/><path class="cls-7" d="M317,617.3s22-11,27.44,1.83-11,20.12-11,20.12-5.48,14.12-15.55,17.12C317,628.28,317,617.3,317,617.3Z"/><polygon class="cls-7" points="341.41 548.47 346.23 602.66 336.22 549.18 341.41 548.47"/><path class="cls-7" d="M317.67,660.62a57.25,57.25,0,0,1,6.44.1q3.18.21,6.34.74a48.4,48.4,0,0,1,6.28,1.56,31.08,31.08,0,0,1,6,2.77l-2.27.05c3.78-2.42,7.7-4.51,11.45-6.67a35.13,35.13,0,0,0,9.8-7.73,30,30,0,0,0,5.51-11.18l.46-1.53.34-1.58c.21-1,.48-2.1.65-3.16.3-2.15.71-4.27.87-6.45.47-4.31.73-8.72,1.08-13.09s.65-8.75,1-13.13.8-8.75,1.58-13.09a38.13,38.13,0,0,1,1.71-6.39,22.1,22.1,0,0,1,3.27-5.7,22.1,22.1,0,0,0-3,5.8,37.41,37.41,0,0,0-1.44,6.37c-.59,4.33-.83,8.71-1,13.09s-.36,8.76-.51,13.14-.25,8.76-.55,13.19c-.07,2.21-.41,4.41-.62,6.62-.14,1.11-.37,2.21-.55,3.31l-.29,1.65-.41,1.64a32.83,32.83,0,0,1-5.58,12.46,38.29,38.29,0,0,1-10.37,8.94c-3.76,2.38-7.5,4.57-11,7l-1,.73-1.23-.68a27.2,27.2,0,0,0-5.18-2.12,42.34,42.34,0,0,0-5.66-1.15,56.73,56.73,0,0,0-5.84-.45,53,53,0,0,0-5.81.14Z"/></g><g id="esquerda"><path class="cls-7" d="M317.87,457.23c-30.76-54.43-74.52-77.48-101.61-87-14.8-5.19-24.62-6.32-24.62-6.32l3.66-9.15c11-40.26,9.15-71.35-7.32-111.6s-86-67.69-86-67.69l3.66-9.15c14.64-36.59-27.44-76.83-27.44-76.83l1.83,7.31c11,38.42-16.47,49.4-16.47,49.4S27,159,28.83,179.15s14.62,22,71.34,51.23c54.88,34.75,40.25,69.52,40.25,69.52s-7.32,14.62-32.93,64c-20.13,49.39,43.9,67.68,43.9,67.68S122.12,428,78.22,446.25c16.8,28,34,47.92,50.13,62.09,41.79,36.78,76.1,34.87,76.1,34.87s7.31,20.12,25.61,40.25c-1.5,31.42-14,87.34-18.52,106.65"/><path class="cls-7" d="M233.64,532a45.24,45.24,0,0,1,18-2.93,48.74,48.74,0,0,1,18.08,4.11,35.49,35.49,0,0,1,4.2,2.25c.34.21.68.44,1,.67l.91.59c.57.39,1.2.74,1.83,1.1a73.79,73.79,0,0,0,8,3.77c2.74,1.14,5.55,2.16,8.34,3.22s5.58,2.17,8.32,3.29l-3,4.12a16.67,16.67,0,0,1-1-1.53c-.3-.49-.56-1-.84-1.49-.51-1-1-2-1.41-3a37.64,37.64,0,0,1-1.95-6.36,35.18,35.18,0,0,1-.78-6.52,33.32,33.32,0,0,1,.47-6.48h.52c.45,2.09.82,4.14,1.42,6.12.25,1,.57,2,.9,2.94s.67,1.93,1.05,2.86a45.81,45.81,0,0,0,2.6,5.42c.47.88,1,1.72,1.52,2.54.27.41.54.82.82,1.2s.6.8.81,1.06l5.57,7L300.51,553c-2.93-1-5.75-2.06-8.55-3.28s-5.52-2.6-8.25-4-5.44-2.84-8.1-4.53c-.66-.43-1.32-.85-2-1.35l-1.79-1.33a33.61,33.61,0,0,0-3.65-2.24,47.94,47.94,0,0,0-16.71-5.12,46.06,46.06,0,0,0-17.69,1.33Z"/><path class="cls-7" d="M318.79,617.3s-22-11-27.44,1.83,11,20.12,11,20.12,5.49,14.12,15.55,17.12C318.79,628.28,318.79,617.3,318.79,617.3Z"/><polygon class="cls-7" points="299.53 549.18 289.52 602.66 294.33 548.47 299.53 549.18"/><path class="cls-7" d="M317.67,665.85a52.81,52.81,0,0,0-5.8-.14,56.93,56.93,0,0,0-5.85.45,42.66,42.66,0,0,0-5.66,1.15,27.47,27.47,0,0,0-5.18,2.12l-1.23.68-1-.73c-3.52-2.46-7.26-4.65-11-7a38.4,38.4,0,0,1-10.36-8.94A32.85,32.85,0,0,1,265.93,641l-.41-1.64-.29-1.65c-.17-1.1-.4-2.2-.54-3.31-.21-2.21-.55-4.41-.63-6.62-.3-4.43-.37-8.8-.54-13.19s-.3-8.77-.51-13.14-.45-8.76-1.05-13.09a35.6,35.6,0,0,0-1.44-6.37,21.52,21.52,0,0,0-3-5.8,21.54,21.54,0,0,1,3.27,5.7,37.22,37.22,0,0,1,1.72,6.39c.77,4.34,1.18,8.72,1.58,13.09s.71,8.76,1,13.13.6,8.78,1.07,13.09c.16,2.18.58,4.3.87,6.45.18,1.06.44,2.11.66,3.16l.34,1.58.45,1.53A30,30,0,0,0,274,651.44a34.84,34.84,0,0,0,9.8,7.73c3.74,2.16,7.67,4.25,11.45,6.67l-2.27-.05a31.08,31.08,0,0,1,6-2.77,48,48,0,0,1,6.28-1.56c2.1-.35,4.22-.6,6.34-.74a57.07,57.07,0,0,1,6.43-.1Z"/></g><path class="cls-7" d="M125.35,251.82A273.45,273.45,0,0,0,44,446.82C44,575,131.9,682.64,250.71,712.75h0a276,276,0,0,0,147.5-3.43h0c2.5-.75,5-1.55,7.45-2.38h0c1.62-.55,3.22-1.1,4.82-1.68a.81.81,0,0,0,.22-.07h0q7.17-2.56,14.15-5.5c98.56-41.61,167.74-139.16,167.74-252.86a273.53,273.53,0,0,0-84-197.59"/><path class="cls-7" d="M318.31,734.9A288.07,288.07,0,1,1,522,650.52,286.19,286.19,0,0,1,318.31,734.9Z"/><path class="cls-7" d="M410.69,692.72c-5.12-22-17.22-76.63-18.74-108.61l-.28-5.69,3.84-4.22a124.2,124.2,0,0,0,22.88-35.73l3.61-9.74,10,.74c2.06.06,29.58,0,64.54-29.9l1.06-.92c13.85-12.06,27-27.3,39.22-45.43-30.76-10-50.53-8-50.75-8l-5.48-26.87c7.46-2.18,28.44-11,35.43-25.51,3.29-6.8,3.2-14.4-.27-23.21-25.12-48.46-32.41-63-32.71-63.62l-.38-.82c-.78-1.86-18.42-46,45.57-86.47l.51-.33.54-.28c10.91-5.63,20-10.16,28.08-14.17,33.79-16.8,35.18-18.42,35.87-26.07.43-4.62-12.51-14.07-25.63-18.72l-.53-.2c-7.5-3-17.79-10.75-23.48-23.89-3.05,8.75-4,17.89-.72,26.13l8.79,22-12.85,5.08c-17.83,7.06-66.66,31.64-78.31,60.1-15.12,37-17,64.69-7,102l10,25.1-17.85,2.08a117.53,117.53,0,0,0-22.17,5.83c-27.46,9.73-66,31.6-93.67,80.57l-24-13.53c31.86-56.37,76.55-81.67,108.43-93,4.28-1.51,8.18-2.73,11.64-3.69C415.44,312.29,418.08,279.41,435,238c14-34.26,58.93-59.17,81.11-69.72C501.63,124.61,546.08,81.43,548,79.57L582.39,46.7l-13.46,53.9c-6.82,23.85,5.27,31.35,8.37,32.85,6.9,2.5,46,18,43.32,47-2.17,23.93-16.47,31-51,48.22-7.83,3.89-16.68,8.29-27.17,13.69C502,268.12,507,291.19,508,294.5c1.81,3.59,10.32,20.4,32.46,63.1l.29.56.24.58c6.62,16.26,6.52,32.25-.29,46.25A61.47,61.47,0,0,1,528,422.21a221.86,221.86,0,0,1,34.82,11.34l14.69,6.13-8.19,13.65c-14.82,24.7-31.27,45.47-49,61.83v.13l-4.73,4.12c-32,27.86-60.62,35.12-75.12,37a157.3,157.3,0,0,1-20.75,31.86c2.52,31.4,14.06,82.59,17.71,98.25Z"/><path class="cls-7" d="M321.55,540.28l.3-.39.2-.28.34-.51c.32-.5.67-1.07.93-1.55l.17-.31a31.38,31.38,0,0,0,1.8-3.77c.24-.58.47-1.23.76-2.07.22-.65.45-1.34.58-1.85l.08-.35.11-.34c.28-.92.52-2.1.8-3.46.11-.51.21-1,.33-1.55L330.28,513h23.24l1.76,10.29a51.17,51.17,0,0,1,5.05-2.64l.13-.06a62.31,62.31,0,0,1,23.16-5.28c.73,0,1.45,0,2.18,0a58.39,58.39,0,0,1,21.31,3.91l12.18,4.76-8.42,25.29-12.59-3.48a32.11,32.11,0,0,0-8.58-1.16,32.8,32.8,0,0,0-3.83.23,34.32,34.32,0,0,0-11.86,3.6,18.93,18.93,0,0,0-2,1.22l-1.61,1.2c-1,.78-1.95,1.37-2.69,1.85l-.11.07c-3.11,2-6,3.52-8.88,5l-.39.2c-2.61,1.34-5.71,2.9-9,4.34s-6.55,2.69-9.78,3.76l-52.65,17.42Z"/><path class="cls-7" d="M365,561.8A83.27,83.27,0,0,1,344.48,559l7.09-26.58L348,545.69l3.52-13.29c7.2,1.88,16.77,2.46,19.33,1.16a3.6,3.6,0,0,0-1.24,1.27l25.82-6.46c3.4,13.6-2.22,21.67-5.88,25.27C383.14,560,373.71,561.8,365,561.8Z"/><path class="cls-7" d="M304.13,656.82c-.91-28-.93-39.06-.93-39.52v-8.5l7.61-3.8c1.95-1,12.19-5.83,22.74-5.83,11,0,19.53,5.3,23.49,14.54,6.27,14.62-1.37,28.11-13.07,35.47-3.42,6.51-10.5,16.89-22.16,20.37l-17.1,5.11Z"/><polygon class="cls-7" points="320.05 537.52 353.84 532.87 359.93 601.45 332.71 605.2 320.05 537.52"/><path class="cls-7" d="M334,681.51a12.81,12.81,0,0,0-2.4-1,30.14,30.14,0,0,0-3.67-.74c-1.43-.18-2.91-.29-4.39-.33l-1.28,0c-1.11,0-2.15,0-3,.11l-13.81,1.16-2.53-33.23,14.21-.6c1,0,1.87-.06,2.78-.06,1.6,0,3.22,0,5.1.17,2.67.18,5.27.49,7.78.91l.15,0a64,64,0,0,1,7.66,1.87l1.27-.71,3.23-1.83a22.32,22.32,0,0,0,6-4.54l.08-.1a16.63,16.63,0,0,0,2.84-6.09l.35-1.2.22-1c.08-.43.18-.85.27-1.27s.18-.78.25-1.17c.1-.7.2-1.4.31-2.1.19-1.21.37-2.34.44-3.25v-.24l0-.24c.3-2.78.51-5.64.73-8.67l.3-4,.08-1c.3-4,.62-8.11,1-12.21.45-5,.89-9.57,1.74-14.31l0-.18a51,51,0,0,1,2.39-8.73,35.06,35.06,0,0,1,5.3-9.27l21.95,16.57a8.07,8.07,0,0,0-1.13,2.11,24.51,24.51,0,0,0-.86,4c-.49,3.62-.7,7.33-.92,11.8-.19,3.95-.34,8.06-.47,12l0,.92c-.05,1.35-.09,2.64-.13,3.93-.1,3.06-.21,6.23-.42,9.49-.08,2-.29,3.77-.47,5.38-.07.62-.14,1.24-.2,1.86l0,.36c-.14,1.08-.31,2-.46,2.88-.05.31-.11.63-.16.94l-.4,2.31-.52,2.06a46.31,46.31,0,0,1-8,17.5A51.34,51.34,0,0,1,361.23,674c-1.18.75-2.33,1.46-3.48,2.17-2.51,1.55-4.88,3-7,4.53l-8,5.6Z"/><path class="cls-7" d="M224.94,693.23,198.15,687c3.67-15.76,15.29-67.28,17.82-98.76a157.61,157.61,0,0,1-20.74-31.86c-14.63-1.85-43.61-9.23-76-37.7-19.16-16.87-36.94-38.85-52.84-65.34l-8.18-13.65,14.69-6.13a221.52,221.52,0,0,1,34.82-11.34A61.69,61.69,0,0,1,95,405c-6.81-14-6.91-30-.28-46.25l.24-.59.29-.55c22.13-42.7,30.65-59.52,32.45-63.1,1-3.31,6-26.38-34.41-52.18-10.49-5.41-19.34-9.81-27.17-13.7-34.55-17.18-48.85-24.29-51-48.22-2.64-29,36.42-44.45,43.32-47,3.1-1.5,15.18-9,8.37-32.85l-.12-.44L53.35,46.69,87.72,79.57c2,1.86,46.4,45,31.88,88.68,22.19,10.55,67.1,35.46,81.11,69.72,16.95,41.44,19.6,74.32,9.07,115.83,3.29.92,7,2.06,11,3.47A195.08,195.08,0,0,1,274,385.93a209.39,209.39,0,0,1,55.86,64.53L305.9,464c-27.81-49.19-66.57-71.07-94.19-80.76a117.2,117.2,0,0,0-21.7-5.65l-17.85-2.06,10.07-25.11c10.06-37.33,8.14-65.06-7-102-11.64-28.45-60.48-53-78.31-60.1L84.11,183.2l8.78-22c3.39-8.47,2.36-17.62-.68-26.23-5.69,13.2-16,21-23.52,24l-.56.21c-13.09,4.64-26,14.09-25.61,18.71.7,7.65,2.09,9.27,35.88,26.08,8,4,17.17,8.53,28.08,14.16l.54.28.51.33c64,40.51,46.34,84.62,45.56,86.47l-.37.82c-.3.59-7.59,15.16-32.72,63.62-3.47,8.81-3.55,16.41-.26,23.21,7,14.48,28,23.33,35.47,25.52l-5.53,26.86c-.15,0-20-2.06-50.74,8,12,17.81,24.9,32.84,38.49,44.8,36.55,32.16,65.95,31.45,66.26,31.46l10.19-.57,3.49,9.6a124.19,124.19,0,0,0,22.87,35.69l3.83,4.22-.27,5.69C242.27,616.15,230.1,671.09,224.94,693.23Z"/><path class="cls-7" d="M296.19,566.06c-3.24-1.07-6.42-2.29-9.73-3.74s-6.43-3-9-4.36l-.37-.19c-2.84-1.49-5.78-3-8.84-5l-.17-.11c-.75-.48-1.67-1.07-2.69-1.85l-1.61-1.2a17.6,17.6,0,0,0-2-1.22,34.35,34.35,0,0,0-11.91-3.61,33.25,33.25,0,0,0-3.78-.22,32,32,0,0,0-8.57,1.16l-12.59,3.48-8.42-25.29,12.17-4.76A58.41,58.41,0,0,1,250,515.26c.72,0,1.45,0,2.18,0a62.4,62.4,0,0,1,23.16,5.28l.13.06a50.22,50.22,0,0,1,5.05,2.65l1.76-10.3h23.23l2.34,10.86.33,1.56c.28,1.36.52,2.53.8,3.45l.1.35.09.35c.12.49.35,1.17.57,1.81.29.87.53,1.52.75,2.06a33.27,33.27,0,0,0,1.81,3.82l.17.3c.26.49.62,1.05.94,1.55l.14.22.22.33.13.17.08.12.27.33,34.64,43.21Z"/><path class="cls-7" d="M313.94,669.55c-11.66-3.48-18.74-13.86-22.16-20.37-11.71-7.36-19.34-20.85-13.08-35.47,4-9.24,12.53-14.54,23.5-14.54,10.54,0,20.79,4.85,22.74,5.83l7.6,3.8v8.5c0,.46,0,11.52-.92,39.52L331,674.66Z"/><polygon class="cls-7" points="275.82 601.45 281.91 532.87 315.7 537.52 303.04 605.2 275.82 601.45"/><path class="cls-7" d="M285,680.66c-2.16-1.51-4.53-3-7-4.52L274.54,674a51.72,51.72,0,0,1-14-12.25,46.45,46.45,0,0,1-8-17.5l-.52-2.06-.4-2.31c0-.31-.11-.63-.17-.94-.15-.84-.32-1.8-.45-2.88l0-.36c-.06-.62-.13-1.24-.2-1.86-.19-1.6-.4-3.42-.47-5.39-.22-3.27-.32-6.45-.42-9.52,0-1.28-.09-2.55-.14-3.83l0-1c-.14-4-.28-8.07-.47-12.05-.21-4.28-.43-8.15-.92-11.78a25.26,25.26,0,0,0-.85-3.91,7.91,7.91,0,0,0-1.14-2.16l21.95-16.57a35.89,35.89,0,0,1,5.32,9.32,50.41,50.41,0,0,1,2.36,8.68l0,.18c.84,4.73,1.29,9.27,1.74,14.28.37,4.17.68,8.34,1,12.38l.08.95c.1,1.27.19,2.6.29,3.93.22,3,.43,5.91.74,8.7l0,.24,0,.25c.07.91.25,2,.43,3.25.11.7.22,1.4.32,2.1.07.39.16.78.24,1.16s.19.85.28,1.28l.21,1,.36,1.2a16.47,16.47,0,0,0,2.84,6.09l.08.1a22.14,22.14,0,0,0,6.06,4.56l3.2,1.81,1.26.71a64.61,64.61,0,0,1,7.67-1.87l.15,0a77.32,77.32,0,0,1,7.71-.9c2-.13,3.57-.18,5.17-.18.9,0,1.82,0,2.77.06l14.21.6-2.52,33.23-13.81-1.16c-.86-.07-1.9-.11-3-.11l-1.31,0c-1.46,0-2.93.15-4.36.33a29.38,29.38,0,0,0-3.67.74,13.22,13.22,0,0,0-2.41,1l-8.71,4.75Z"/><path class="cls-7" d="M318.31,734.9A288.38,288.38,0,0,1,249,726.5h0l-1.68-.42A287.78,287.78,0,0,1,30.23,446.82,287.21,287.21,0,0,1,115.68,242L135,261.6A260.63,260.63,0,0,0,253.24,699.2l.87.22a262.35,262.35,0,0,0,140.11-3.26l2-.6,4.12-1.32,2-1.06h1.1l2.35-.83,2.18-.92h.38c3.78-1.39,7.54-2.88,11.23-4.43a260.65,260.65,0,0,0,79.51-427.87l19.08-19.81a288.17,288.17,0,0,1-87.9,473c-4.89,2-9.88,4-14.86,5.78l-.11,0h0l-2.18.76-2,.68-2.06,1.08h-1.16c-2,.65-3.88,1.25-5.72,1.8l-2,.58A288.21,288.21,0,0,1,318.31,734.9Z"/><circle class="cls-7" cx="318.31" cy="446.82" r="274.33"/><g id="direita-2" data-name="direita"><path class="cls-7" d="M424.09,689.6c-4.61-19.76-16.92-75-18.41-106.14,18.3-20.13,25.62-40.25,25.62-40.25s33.88,1.88,75.31-34.18h0c16.34-14.21,33.85-34.32,50.92-62.77-43.91-18.3-73.18-14.64-73.18-14.64s64-18.29,43.91-67.68c-25.61-49.41-32.93-64-32.93-64s-14.64-34.77,40.24-69.52c56.72-29.27,69.52-31.11,71.35-51.23s-34.75-32.93-34.75-32.93-27.45-11-16.47-49.4l1.83-7.31s-42.08,40.24-27.44,76.83l3.66,9.15s-69.52,27.44-86,67.69-18.29,71.34-7.31,111.6l3.65,9.15s-10.07,1.17-25.18,6.53c-27.12,9.61-70.49,32.71-101.05,86.77"/><path class="cls-7" d="M401.94,532.48a46,46,0,0,0-17.69-1.33,47.89,47.89,0,0,0-16.7,5.12,31.78,31.78,0,0,0-3.65,2.24l-1.79,1.33c-.65.5-1.31.92-2,1.35-2.65,1.69-5.37,3.11-8.09,4.53s-5.47,2.77-8.26,4-5.62,2.32-8.54,3.28l-8.53,2.83,5.57-7c.21-.26.54-.68.81-1.06s.54-.79.82-1.2c.52-.82,1-1.66,1.52-2.54a44.24,44.24,0,0,0,2.59-5.42c.39-.93.73-1.89,1.06-2.86s.65-1.94.9-2.94c.6-2,1-4,1.41-6.12h.53a32.56,32.56,0,0,1,.46,6.48,35.18,35.18,0,0,1-.78,6.52,36.72,36.72,0,0,1-1.94,6.36c-.42,1-.9,2-1.42,3-.27.5-.53,1-.84,1.49a16.44,16.44,0,0,1-1,1.53l-3-4.12c2.73-1.12,5.53-2.23,8.31-3.29s5.6-2.08,8.35-3.22a74.69,74.69,0,0,0,8-3.77c.63-.36,1.26-.71,1.83-1.1l.9-.59c.34-.23.68-.46,1-.67a34.73,34.73,0,0,1,4.2-2.25,48.73,48.73,0,0,1,18.07-4.11,45.31,45.31,0,0,1,18,2.93Z"/><path class="cls-7" d="M348,545.69s40.27,10.74,34.09-14"/><path class="cls-7" d="M317,617.3s22-11,27.44,1.83-11,20.12-11,20.12-5.48,14.12-15.55,17.12C317,628.28,317,617.3,317,617.3Z"/><polygon class="cls-7" points="341.41 548.47 346.23 602.66 336.22 549.18 341.41 548.47"/><path class="cls-7" d="M317.67,660.62a57.25,57.25,0,0,1,6.44.1q3.18.21,6.34.74a48.4,48.4,0,0,1,6.28,1.56,31.08,31.08,0,0,1,6,2.77l-2.27.05c3.78-2.42,7.7-4.51,11.45-6.67a35.13,35.13,0,0,0,9.8-7.73,30,30,0,0,0,5.51-11.18l.46-1.53.34-1.58c.21-1,.48-2.1.65-3.16.3-2.15.71-4.27.87-6.45.47-4.31.73-8.72,1.08-13.09s.65-8.75,1-13.13.8-8.75,1.58-13.09a38.13,38.13,0,0,1,1.71-6.39,22.1,22.1,0,0,1,3.27-5.7,22.1,22.1,0,0,0-3,5.8,37.41,37.41,0,0,0-1.44,6.37c-.59,4.33-.83,8.71-1,13.09s-.36,8.76-.51,13.14-.25,8.76-.55,13.19c-.07,2.21-.41,4.41-.62,6.62-.14,1.11-.37,2.21-.55,3.31l-.29,1.65-.41,1.64a32.83,32.83,0,0,1-5.58,12.46,38.29,38.29,0,0,1-10.37,8.94c-3.76,2.38-7.5,4.57-11,7l-1,.73-1.23-.68a27.2,27.2,0,0,0-5.18-2.12,42.34,42.34,0,0,0-5.66-1.15,56.73,56.73,0,0,0-5.84-.45,53,53,0,0,0-5.81.14Z"/></g><g id="esquerda-2" data-name="esquerda"><path class="cls-7" d="M317.87,457.23c-30.76-54.43-74.52-77.48-101.61-87-14.8-5.19-24.62-6.32-24.62-6.32l3.66-9.15c11-40.26,9.15-71.35-7.32-111.6s-86-67.69-86-67.69l3.66-9.15c14.64-36.59-27.44-76.83-27.44-76.83l1.83,7.31c11,38.42-16.47,49.4-16.47,49.4S27,159,28.83,179.15s14.62,22,71.34,51.23c54.88,34.75,40.25,69.52,40.25,69.52s-7.32,14.62-32.93,64c-20.13,49.39,43.9,67.68,43.9,67.68S122.12,428,78.22,446.25c16.8,28,34,47.92,50.13,62.09,41.79,36.78,76.1,34.87,76.1,34.87s7.31,20.12,25.61,40.25c-1.5,31.42-14,87.34-18.52,106.65"/><path class="cls-7" d="M233.64,532a45.24,45.24,0,0,1,18-2.93,48.74,48.74,0,0,1,18.08,4.11,35.49,35.49,0,0,1,4.2,2.25c.34.21.68.44,1,.67l.91.59c.57.39,1.2.74,1.83,1.1a73.79,73.79,0,0,0,8,3.77c2.74,1.14,5.55,2.16,8.34,3.22s5.58,2.17,8.32,3.29l-3,4.12a16.67,16.67,0,0,1-1-1.53c-.3-.49-.56-1-.84-1.49-.51-1-1-2-1.41-3a37.64,37.64,0,0,1-1.95-6.36,35.18,35.18,0,0,1-.78-6.52,33.32,33.32,0,0,1,.47-6.48h.52c.45,2.09.82,4.14,1.42,6.12.25,1,.57,2,.9,2.94s.67,1.93,1.05,2.86a45.81,45.81,0,0,0,2.6,5.42c.47.88,1,1.72,1.52,2.54.27.41.54.82.82,1.2s.6.8.81,1.06l5.57,7L300.51,553c-2.93-1-5.75-2.06-8.55-3.28s-5.52-2.6-8.25-4-5.44-2.84-8.1-4.53c-.66-.43-1.32-.85-2-1.35l-1.79-1.33a33.61,33.61,0,0,0-3.65-2.24,47.94,47.94,0,0,0-16.71-5.12,46.06,46.06,0,0,0-17.69,1.33Z"/><path class="cls-7" d="M318.79,617.3s-22-11-27.44,1.83,11,20.12,11,20.12,5.49,14.12,15.55,17.12C318.79,628.28,318.79,617.3,318.79,617.3Z"/><polygon class="cls-7" points="299.53 549.18 289.52 602.66 294.33 548.47 299.53 549.18"/><path class="cls-7" d="M317.67,665.85a52.81,52.81,0,0,0-5.8-.14,56.93,56.93,0,0,0-5.85.45,42.66,42.66,0,0,0-5.66,1.15,27.47,27.47,0,0,0-5.18,2.12l-1.23.68-1-.73c-3.52-2.46-7.26-4.65-11-7a38.4,38.4,0,0,1-10.36-8.94A32.85,32.85,0,0,1,265.93,641l-.41-1.64-.29-1.65c-.17-1.1-.4-2.2-.54-3.31-.21-2.21-.55-4.41-.63-6.62-.3-4.43-.37-8.8-.54-13.19s-.3-8.77-.51-13.14-.45-8.76-1.05-13.09a35.6,35.6,0,0,0-1.44-6.37,21.52,21.52,0,0,0-3-5.8,21.54,21.54,0,0,1,3.27,5.7,37.22,37.22,0,0,1,1.72,6.39c.77,4.34,1.18,8.72,1.58,13.09s.71,8.76,1,13.13.6,8.78,1.07,13.09c.16,2.18.58,4.3.87,6.45.18,1.06.44,2.11.66,3.16l.34,1.58.45,1.53A30,30,0,0,0,274,651.44a34.84,34.84,0,0,0,9.8,7.73c3.74,2.16,7.67,4.25,11.45,6.67l-2.27-.05a31.08,31.08,0,0,1,6-2.77,48,48,0,0,1,6.28-1.56c2.1-.35,4.22-.6,6.34-.74a57.07,57.07,0,0,1,6.43-.1Z"/></g><path class="cls-7" d="M605.08,180.68a35.07,35.07,0,0,0-1.86-8.51,16.26,16.26,0,0,0-1.94-8.15,17.74,17.74,0,0,0-14.92-9.26l-1.29-.88c-3.44-2.29-7.29-3.64-10.92-5.57-.76-.41-1.5-.84-2.22-1.31-.23-.16-.76-.53-.94-.68-1.76-1.54-3.39-3.21-5-4.88a12.49,12.49,0,0,0-6.65-3.51q-.83-3.48-1.35-7.16c-.44-3.11-2.78-5.73-5.57-7.43a35.91,35.91,0,0,0,.44-4.49c0-.77.91-2.28-.16-.93,2.93-3.69,3.6-8.75,0-12.35-3-3-9.41-3.72-12.36,0-4.79,6-5.41,13.85-5.91,21.46l-.4.6c-5.91,9.83-9.55,23-5.1,33.66a19.41,19.41,0,0,0-.78,3.67,31.13,31.13,0,0,0,1.67,13,12.57,12.57,0,0,0-3.21,1.34c-10.46,6.2-20.76,12.11-30.35,19.28a74.24,74.24,0,0,0-20.15,8.93,13.77,13.77,0,0,0-6.41,10.85c-6.79,4.76-15.06,12-18.53,20.28a13.19,13.19,0,0,0-3.69,4,39.6,39.6,0,0,0-5,15.79c-1.3,4.21-2.71,8.36-4.34,12.3s-3.92,8.32-4.68,12.82c-.84,4.93-.33,9.19-1.56,12.72-1.54,4.38.19,9.53,3.51,12.86-.26,1.69-.49,3.38-.65,5.08a45.94,45.94,0,0,0,.26,11.61,10.19,10.19,0,0,0-.33,3.51c1,12.6,4.05,25.06,7.47,37.37a17,17,0,0,0-5.38,1.13c-8.48,3.28-17.24,6.39-26,9.71-1.13.21-2.25.46-3.35.77a74.94,74.94,0,0,0-20,9c-13.55,6.46-26.22,14.35-36.63,25.3s-18.41,23.58-25.38,36.86q-4.09,3.52-8,7.26c-7-7-13.27-14.67-19.53-22.33l-.49-.6a21.52,21.52,0,0,0-6.34-16.5,180.06,180.06,0,0,0-71.2-43.33,161.63,161.63,0,0,0-17.36-4.55l-10.94-4.84c.27-1.45.48-2.91.62-4.38,5.63-7.77,6.79-17,5.08-26.23a75.94,75.94,0,0,0,1.92-14.19,17.49,17.49,0,0,0-1.2-7.08c.06-.61.13-1.22.19-1.82,1.15-11.79.68-23.65.21-35.46a22.11,22.11,0,0,0-7.58-15.64,21.13,21.13,0,0,0-2.38-7.1q-1.56-2.87-3.17-5.7c-.18-1.6-.38-3.2-.62-4.81-.75-5.16-5-9.75-10-12.4-8.61-12.49-18.82-23.63-32.4-31.47-10.64-6.15-21.9-11.37-32.84-17-3.79-1.94-7.57-3.88-11.4-5.7a16.68,16.68,0,0,0,4.41-5.38c4.61-9.22,4.09-21.59,1.84-31.36-2.47-10.76-10.2-20.16-11-31.3-.46-6.69-11-6.74-10.48,0a38.82,38.82,0,0,0,1.1,6.82,4,4,0,0,0-3,3.58c-.83,5.81-1.56,11.66-2.4,17.48A5,5,0,0,0,74.12,137l-9.3,9.67-7.72,4.54-.2.14a20.3,20.3,0,0,0-4.16.61c-2,.52-4.11,2.84-3.85,5.06,0,0,0,0,0,.06a19.72,19.72,0,0,0-2.86.55c-13.52,3.73-20,20-12.81,32a34.14,34.14,0,0,0,16.1,13.82,27.67,27.67,0,0,0,8.19,1.95c3.68,3.94,21.06,1.75,25.37,5,4.59,3.41,9.18,6.81,13.93,10s-3.14,11.42,2,14.07c2.46,1.27,4.93,2.53,7.33,3.93,1.82,1.07,3.85,3,5.82,4-1.32-.69-1.73-1.6.29.13h0a3.13,3.13,0,0,0,.32.15l-.3-.12c.86.73,1.7,1.48,2.53,2.24,1.67,1.56,3.28,3.19,4.83,4.87s3.09,3.56,4.6,5.39l.12.18c.68.94,1.36,1.88,2,2.83a296.57,296.57,0,0,1,15.53,25.78,17.3,17.3,0,0,0,2.13,3A15.74,15.74,0,0,0,141.43,297c0,.1,0,.2,0,.3a20.19,20.19,0,0,0-4.56,12.93c-1.08,1.65-2.31,3.19-3.31,4.88a49,49,0,0,0-4.27,10l-.2.52c-.19.23-.36.44-.47.55-.77.84-1.57,1.65-2.32,2.51a44.46,44.46,0,0,0-5.91,8,34.1,34.1,0,0,0-4.16,14.84,103.07,103.07,0,0,0-9,18.35c-2,5.37-3.75,11.36-3.36,17.13a25.77,25.77,0,0,0,6.68,16.3,23.49,23.49,0,0,0,2,1.81,26.63,26.63,0,0,0,10.38,11.56,15.69,15.69,0,0,0,3.45,1.67,24.6,24.6,0,0,0,5.36,3.41,19.57,19.57,0,0,0,6.73,4.05,22.74,22.74,0,0,0,4.93,2.81l.65.56h-.15A22.72,22.72,0,0,0,129.11,435a5,5,0,0,0-4.42.41c-.4.3-.82.59-1.23.88a30,30,0,0,0-12.14.86,14.67,14.67,0,0,0-5.66,3.17h0l-.61.06c-5.63-3.8-13.73-3.94-18.61,1.38A15.41,15.41,0,0,0,84,445.3c-4.69,1.06-6.27,8.24-1.44,9.84a12.63,12.63,0,0,0,3.87,7q3.9,3.57,7.59,7.35a13.37,13.37,0,0,0,1.32,3,46.17,46.17,0,0,0,8.6,10.77,58.57,58.57,0,0,0,5.33,4.2c.55.77,1.1,1.52,1.63,2.29a18.84,18.84,0,0,0,2.92,3.27,46.69,46.69,0,0,0,6.81,9.41c4.84,4.9,11,8.9,16.46,13.07q3.12,2.4,6.27,4.74a20.54,20.54,0,0,0,2.72,3.49,21.78,21.78,0,0,0,15.24,6.38,52.36,52.36,0,0,0,20.12,7.54,18.08,18.08,0,0,0,8.56,4.83,84.64,84.64,0,0,0,14.85,1.32A320.83,320.83,0,0,0,228.57,581a17.61,17.61,0,0,0-1.49,7.54,302.43,302.43,0,0,0,2.3,31c-1,1.65-1.92,3.29-2.9,4.91-4.13,6.86-7.65,14.31-7,22.54a57.22,57.22,0,0,0,2,10.43,127.52,127.52,0,0,0-7.21,15.1,11.7,11.7,0,0,0-.63,2.09,13.27,13.27,0,0,0-1,1.46c-3.76,6.43-1.2,14,4.71,17.94,7.63,5.09,16.47,8.07,25.3,10.38,1,1.19,6.9,1.47,8.35,2.17,26.23,12.57,42.7,8.62,77.78,10.48a137.83,137.83,0,0,0,45.91-5.48,155.54,155.54,0,0,0,21-7.53c3-1.41,6.39-.91,9.14-2.72.94-.62,2.48.54,3.49,0,.08.07,2.73-1.76,3.5-1.74,6.83.86,9.83-8.91,9.54-15.38a13,13,0,0,0-3.54-8.73c-.29-4.66-1.56-9.62-2.27-14.15q-1.82-11.64-3.62-23.27c-1.51-9.69-3.3-19.36-6.42-28.58-.7-4.9-1.61-9.79-1.12-14.74a2.12,2.12,0,0,0-1.6-2.09q0-3-.21-6.11a220.33,220.33,0,0,0,30.1-43.71c.14,0,.29-.06.44-.11a50.31,50.31,0,0,0,7.14-2.75,51.36,51.36,0,0,1,11.38-1.56,44.5,44.5,0,0,0,21.43-5.91c5.65-3.32,10.68-7.77,15.7-12S499.31,512,504,507.17a32.06,32.06,0,0,0,2.42-2.76c10.06-7.64,19.64-15.9,27.75-25.6a15.85,15.85,0,0,0,3.48-7.36,75.78,75.78,0,0,0,10.4-8.86c7.9-8,2.19-22.42-9.27-22.37-8.91,0-18-1.85-26.81-3L490,434.38a34.84,34.84,0,0,0-.2-7.78A40.74,40.74,0,0,0,502.21,420c11.07-4.94,20.22-12.55,24.6-24.73a38.63,38.63,0,0,0-1-27.7,14.94,14.94,0,0,0-2.39-10.12c-2.69-4.15-4.75-5.65-7.21-9.23-.43-.63-.84-1.27-1.26-1.91-.43-1-.91-2.06-1.43-3.08a73.83,73.83,0,0,0-4-6.38,55.68,55.68,0,0,1-3.21-7.67,14.89,14.89,0,0,0-5.46-7.34c-.42-1.16-.84-2.34-1.25-3.57C495,304.63,491,292,492.25,278a19.9,19.9,0,0,0,3.84-3.88c3.47-4.57,5.85-9.78,9-14.56,2.59-3.94,7-8.38,10.69-12.51,5.79-6.43,11.47-13,17.57-19.17,4.23,2.45,9.87,2.87,13.63.21l12-8.49a15.32,15.32,0,0,0,5.91-8c12.86-3.31,25.51-8.31,33.32-19.44C602.23,189.91,605.53,185.32,605.08,180.68Z"/><path class="cls-7" d="M605.08,180.68a35.07,35.07,0,0,0-1.86-8.51,16.26,16.26,0,0,0-1.94-8.15,17.74,17.74,0,0,0-14.92-9.26l-1.29-.88c-3.44-2.29-7.29-3.64-10.92-5.57-.76-.41-1.5-.84-2.22-1.31-.23-.16-.76-.53-.94-.68-1.76-1.54-3.39-3.21-5-4.88a12.49,12.49,0,0,0-6.65-3.51q-.83-3.48-1.35-7.16c-.44-3.11-2.78-5.73-5.57-7.43a35.91,35.91,0,0,0,.44-4.49c0-.77.91-2.28-.16-.93,2.93-3.69,3.6-8.75,0-12.35-3-3-9.41-3.72-12.36,0-4.79,6-5.41,13.85-5.91,21.46l-.4.6c-5.91,9.83-9.55,23-5.1,33.66a19.41,19.41,0,0,0-.78,3.67,31.13,31.13,0,0,0,1.67,13,12.57,12.57,0,0,0-3.21,1.34c-10.46,6.2-20.76,12.11-30.35,19.28a74.24,74.24,0,0,0-20.15,8.93,13.77,13.77,0,0,0-6.41,10.85c-6.79,4.76-15.06,12-18.53,20.28a13.19,13.19,0,0,0-3.69,4,39.6,39.6,0,0,0-5,15.79c-1.3,4.21-2.71,8.36-4.34,12.3s-3.92,8.32-4.68,12.82c-.84,4.93-.33,9.19-1.56,12.72-1.54,4.38.19,9.53,3.51,12.86-.26,1.69-.49,3.38-.65,5.08a45.94,45.94,0,0,0,.26,11.61,10.19,10.19,0,0,0-.33,3.51c1,12.6,4.05,25.06,7.47,37.37a17,17,0,0,0-5.38,1.13c-8.48,3.28-17.24,6.39-26,9.71-1.13.21-2.25.46-3.35.77a74.94,74.94,0,0,0-20,9c-13.55,6.46-26.22,14.35-36.63,25.3s-18.41,23.58-25.38,36.86q-4.09,3.52-8,7.26c-7-7-13.27-14.67-19.53-22.33l-.49-.6a21.52,21.52,0,0,0-6.34-16.5,180.06,180.06,0,0,0-71.2-43.33,161.63,161.63,0,0,0-17.36-4.55l-10.94-4.84c.27-1.45.48-2.91.62-4.38,5.63-7.77,6.79-17,5.08-26.23a75.94,75.94,0,0,0,1.92-14.19,17.49,17.49,0,0,0-1.2-7.08c.06-.61.13-1.22.19-1.82,1.15-11.79.68-23.65.21-35.46a22.11,22.11,0,0,0-7.58-15.64,21.13,21.13,0,0,0-2.38-7.1q-1.56-2.87-3.17-5.7c-.18-1.6-.38-3.2-.62-4.81-.75-5.16-5-9.75-10-12.4-8.61-12.49-18.82-23.63-32.4-31.47-10.64-6.15-21.9-11.37-32.84-17-3.79-1.94-7.57-3.88-11.4-5.7a16.68,16.68,0,0,0,4.41-5.38c4.61-9.22,4.09-21.59,1.84-31.36-2.47-10.76-10.2-20.16-11-31.3-.46-6.69-11-6.74-10.48,0a38.82,38.82,0,0,0,1.1,6.82,4,4,0,0,0-3,3.58c-.83,5.81-1.56,11.66-2.4,17.48A5,5,0,0,0,74.12,137l-9.3,9.67-7.72,4.54-.2.14a20.3,20.3,0,0,0-4.16.61c-2,.52-4.11,2.84-3.85,5.06,0,0,0,0,0,.06a19.72,19.72,0,0,0-2.86.55c-13.52,3.73-20,20-12.81,32a34.14,34.14,0,0,0,16.1,13.82,27.67,27.67,0,0,0,8.19,1.95c3.68,3.94,21.06,1.75,25.37,5,4.59,3.41,9.18,6.81,13.93,10s-3.14,11.42,2,14.07c2.46,1.27,4.93,2.53,7.33,3.93,1.82,1.07,3.85,3,5.82,4-1.32-.69-1.73-1.6.29.13h0a3.13,3.13,0,0,0,.32.15l-.3-.12c.86.73,1.7,1.48,2.53,2.24,1.67,1.56,3.28,3.19,4.83,4.87s3.09,3.56,4.6,5.39l.12.18c.68.94,1.36,1.88,2,2.83a296.57,296.57,0,0,1,15.53,25.78,17.3,17.3,0,0,0,2.13,3A15.74,15.74,0,0,0,141.43,297c0,.1,0,.2,0,.3a20.19,20.19,0,0,0-4.56,12.93c-1.08,1.65-2.31,3.19-3.31,4.88a49,49,0,0,0-4.27,10l-.2.52c-.19.23-.36.44-.47.55-.77.84-1.57,1.65-2.32,2.51a44.46,44.46,0,0,0-5.91,8,34.1,34.1,0,0,0-4.16,14.84,103.07,103.07,0,0,0-9,18.35c-2,5.37-3.75,11.36-3.36,17.13a25.77,25.77,0,0,0,6.68,16.3,23.49,23.49,0,0,0,2,1.81,26.63,26.63,0,0,0,10.38,11.56,15.69,15.69,0,0,0,3.45,1.67,24.6,24.6,0,0,0,5.36,3.41,19.57,19.57,0,0,0,6.73,4.05,22.74,22.74,0,0,0,4.93,2.81l.65.56h-.15A22.72,22.72,0,0,0,129.11,435a5,5,0,0,0-4.42.41c-.4.3-.82.59-1.23.88a30,30,0,0,0-12.14.86,14.67,14.67,0,0,0-5.66,3.17h0l-.61.06c-5.63-3.8-13.73-3.94-18.61,1.38A15.41,15.41,0,0,0,84,445.3c-4.69,1.06-6.27,8.24-1.44,9.84a12.63,12.63,0,0,0,3.87,7q3.9,3.57,7.59,7.35a13.37,13.37,0,0,0,1.32,3,46.17,46.17,0,0,0,8.6,10.77,58.57,58.57,0,0,0,5.33,4.2c.55.77,1.1,1.52,1.63,2.29a18.84,18.84,0,0,0,2.92,3.27,46.69,46.69,0,0,0,6.81,9.41c4.84,4.9,11,8.9,16.46,13.07q3.12,2.4,6.27,4.74a20.54,20.54,0,0,0,2.72,3.49,21.78,21.78,0,0,0,15.24,6.38,52.36,52.36,0,0,0,20.12,7.54,18.08,18.08,0,0,0,8.56,4.83,84.64,84.64,0,0,0,14.85,1.32A320.83,320.83,0,0,0,228.57,581a17.61,17.61,0,0,0-1.49,7.54,302.43,302.43,0,0,0,2.3,31c-1,1.65-1.92,3.29-2.9,4.91-4.13,6.86-7.65,14.31-7,22.54a57.22,57.22,0,0,0,2,10.43,127.52,127.52,0,0,0-7.21,15.1,11.7,11.7,0,0,0-.63,2.09,13.27,13.27,0,0,0-1,1.46c-3.76,6.43-1.2,14,4.71,17.94,7.63,5.09,16.47,8.07,25.3,10.38,1,1.19,6.9,1.47,8.35,2.17,26.23,12.57,42.7,8.62,77.78,10.48a137.83,137.83,0,0,0,45.91-5.48,155.54,155.54,0,0,0,21-7.53c3-1.41,6.39-.91,9.14-2.72.94-.62,2.48.54,3.49,0,.08.07,2.73-1.76,3.5-1.74,6.83.86,9.83-8.91,9.54-15.38a13,13,0,0,0-3.54-8.73c-.29-4.66-1.56-9.62-2.27-14.15q-1.82-11.64-3.62-23.27c-1.51-9.69-3.3-19.36-6.42-28.58-.7-4.9-1.61-9.79-1.12-14.74a2.12,2.12,0,0,0-1.6-2.09q0-3-.21-6.11a220.33,220.33,0,0,0,30.1-43.71c.14,0,.29-.06.44-.11a50.31,50.31,0,0,0,7.14-2.75,51.36,51.36,0,0,1,11.38-1.56,44.5,44.5,0,0,0,21.43-5.91c5.65-3.32,10.68-7.77,15.7-12S499.31,512,504,507.17a32.06,32.06,0,0,0,2.42-2.76c10.06-7.64,19.64-15.9,27.75-25.6a15.85,15.85,0,0,0,3.48-7.36,75.78,75.78,0,0,0,10.4-8.86c7.9-8,2.19-22.42-9.27-22.37-8.91,0-18-1.85-26.81-3L490,434.38a34.84,34.84,0,0,0-.2-7.78A40.74,40.74,0,0,0,502.21,420c11.07-4.94,20.22-12.55,24.6-24.73a38.63,38.63,0,0,0-1-27.7,14.94,14.94,0,0,0-2.39-10.12c-2.69-4.15-4.75-5.65-7.21-9.23-.43-.63-.84-1.27-1.26-1.91-.43-1-.91-2.06-1.43-3.08a73.83,73.83,0,0,0-4-6.38,55.68,55.68,0,0,1-3.21-7.67,14.89,14.89,0,0,0-5.46-7.34c-.42-1.16-.84-2.34-1.25-3.57C495,304.63,491,292,492.25,278a19.9,19.9,0,0,0,3.84-3.88c3.47-4.57,5.85-9.78,9-14.56,2.59-3.94,7-8.38,10.69-12.51,5.79-6.43,11.47-13,17.57-19.17,4.23,2.45,9.87,2.87,13.63.21l12-8.49a15.32,15.32,0,0,0,5.91-8c12.86-3.31,25.51-8.31,33.32-19.44C602.23,189.91,605.53,185.32,605.08,180.68Z"/><path class="cls-7" d="M345,676.67s1.79,11.77-7.06,31.81"/><path class="cls-7" d="M290.94,677s-2.28,11.47,6.56,31.51"/><path class="cls-7" d="M137,425.17s90.5,6.39,132.63,14.15c40.69,7.49,32.83,16.37,46,14.73,30.07-3.74,54.76-16.39,76-18.86,104.92-12.18,98.63-6.68,98.63-6.68s76.24-20.43,11.59-113c-15-59.24-3.53-64.25,89.31-111.11,35.36-21.22,8-52.46-30.95-65.72-12-11.1-6.48-45.39-6.48-45.39s-22.2,29.61-24.52,73.79C528,191.4,486,198.82,486,198.82s-33.6,24.46-48.34,76.63c-14,49.42-2.82,73.07,4.13,87.24-44.8,11.2-111,64.91-124.28,93.2-21.32-33.08-74.37-81.12-123.88-94.38,15.32-85.47,1.61-143-84.16-181-17.68-8.85,3.4-20.29-3.67-50.35S75.69,80.63,75.69,80.63s12.08,51.58-8.26,62.19-71.91,40.67-4.12,64.25c61.88,21.52,81.93,63.07,78.4,82.53s-47.45,89-34.19,110.22S137,425.17,137,425.17Z"/><path class="cls-7" d="M137,425.17s90.5,6.39,132.63,14.15c40.69,7.49,32.83,16.37,46,14.73,30.07-3.74,54.76-16.39,76-18.86,104.92-12.18,98.63-6.68,98.63-6.68s76.24-20.43,11.59-113c-15-59.24-3.53-64.25,89.31-111.11,35.36-21.22,8-52.46-30.95-65.72-12-11.1-6.48-45.39-6.48-45.39s-22.2,29.61-24.52,73.79C528,191.4,486,198.82,486,198.82s-33.6,24.46-48.34,76.63c-14,49.42-2.82,73.07,4.13,87.24-44.8,11.2-111,64.91-124.28,93.2-21.32-33.08-74.37-81.12-123.88-94.38,15.32-85.47,1.61-143-84.16-181-17.68-8.85,3.4-20.29-3.67-50.35S75.69,80.63,75.69,80.63s12.08,51.58-8.26,62.19-71.91,40.67-4.12,64.25c61.88,21.52,81.93,63.07,78.4,82.53s-47.45,89-34.19,110.22S137,425.17,137,425.17Z"/><g id="barba"><path class="cls-7" d="M342.54,661.74s10.41,21,3.88,33.9c-3.07-8.17-4.09-9.4-4.09-9.4s2.35,8.61-.9,17l-4.83-7.76a37.55,37.55,0,0,1-2.48,17.4c-3.65,9.56-23.23,6.48-23.23,6.48l4.49-57.58Z"/><path class="cls-7" d="M293.48,661.74s-10.42,21-3.88,33.9c3.06-8.17,4.08-9.4,4.08-9.4s-2.28,9.2.87,17l4.74-7.76s-.84,6.35,1.61,16.36,15,.34,15,.34l4.78-50.4Z"/><path class="cls-7" d="M344.48,664.49s20.24-39.3-14-42S315,654.08,315,654.08,311.67,669.6,344.48,664.49Z"/><path class="cls-7" d="M319.68,654.08s3.34,15.52-29.47,10.41c0,0-20.24-39.3,14-42"/></g><path class="cls-7" d="M125.35,251.82A273.45,273.45,0,0,0,44,446.82C44,575,131.9,682.64,250.71,712.75h0a276,276,0,0,0,147.5-3.43h0c2.5-.75,5-1.55,7.45-2.38h0c1.62-.55,3.22-1.1,4.82-1.68a.81.81,0,0,0,.22-.07h0q7.17-2.56,14.15-5.5c98.56-41.61,167.74-139.16,167.74-252.86a273.53,273.53,0,0,0-84-197.59"/><path class="cls-7" d="M283,542.37a34.14,34.14,0,0,1-6.05-2.94,72.71,72.71,0,0,0-6.24-3.86c-4.42-2.12-9.29-3.34-14-4.8a2,2,0,0,0-1.13,0,2.23,2.23,0,0,0-.88-.17c-2.56,0-2.78,3.61-.68,4.26a14.19,14.19,0,0,0,.28,1.56,2,2,0,0,0-.42,1.26,7.12,7.12,0,0,0,2.12,4.85,10.11,10.11,0,0,0,.9,1.17,8.52,8.52,0,0,0,6.31,2.61h.33a44,44,0,0,0,4.41.48,69.1,69.1,0,0,0,10.67,0,2.24,2.24,0,0,0,1.62-.8c.52.21,1,.42,1.55.61a2.19,2.19,0,1,0,1.16-4.22Z"/><path class="cls-7" d="M382,532.4a2.1,2.1,0,0,0-2.64-1.66l-7.74,2a26.28,26.28,0,0,0-7.12,2.58,43.59,43.59,0,0,0-5.46,4.51c-1.59,1.39-3.44,2.56-5.63,2.4a2.1,2.1,0,0,0-1.25.34c-2.37.43-2.23,4.33.43,4.33a2.19,2.19,0,0,0,1.12-.3,5.61,5.61,0,0,0,.71,0c2.67,0,5.34,0,8,0h.19a3,3,0,0,0,1.28.74c1.53.42,3.49-.17,5-.38,3.44-.45,6.93-1.07,9.71-3.3a9,9,0,0,0,3.45-7.63A2.3,2.3,0,0,0,382,532.4Z"/><path class="cls-7" d="M202.05,320.11c6.45-37.17-6.27-77.15-33-103.77-12-12-26.85-22-42.06-29.53-3.94-1.95-33.87-22.8-14.79,1.52,3.37,4.3,8.11,9.47,12.12,12.36a199.14,199.14,0,0,1,60.2,70.21A194.84,194.84,0,0,1,202.05,320.11Z"/><path class="cls-7" d="M437,320.11c-6.45-37.17,6.27-77.15,33-103.77,12-12,26.85-22,42.06-29.53,3.94-1.95,33.87-22.8,14.79,1.52-3.37,4.3-8.11,9.47-12.12,12.36a199.14,199.14,0,0,0-60.2,70.21A194.84,194.84,0,0,0,437,320.11Z"/><path class="cls-7" d="M559.93,152.83c2.23,2.16,4.83,4.13,7.88,4.69s6.61-.7,7.9-3.52c1-2.32.37-5.12-1-7.26a32.36,32.36,0,0,0-5.26-5.53,53.37,53.37,0,0,1-12.37-17.74c-1.3-3-3.7-17.72-8.4-9.62-3,5.14-.87,15.55.63,20.85A40.81,40.81,0,0,0,559.93,152.83Z"/><path class="cls-7" d="M76.67,152.83c-2.23,2.16-4.83,4.13-7.88,4.69s-6.61-.7-7.89-3.52c-1.06-2.32-.38-5.12,1-7.26a32.3,32.3,0,0,1,5.25-5.53,53.37,53.37,0,0,0,12.37-17.74c1.3-3,3.7-17.72,8.4-9.62,3,5.14.88,15.55-.63,20.85A40.81,40.81,0,0,1,76.67,152.83Z"/><path class="cls-7" d="M540.45,454.83c2.76.51,5.6,1.09,8.29.18a8.38,8.38,0,0,0,5.45-7.4c.77-13.13-29.66-6.91-35.75-8.53-9.46-2.53-14-14.87-23.71-14-19.11,1.75-39.49,20.41-45.81,41.46C479.46,455.71,508.69,449,540.45,454.83Z"/><path class="cls-7" d="M95.62,454.83c-2.75.51-5.59,1.09-8.28.18a8.4,8.4,0,0,1-5.46-7.4c-.76-13.13,29.67-6.91,35.76-8.53,9.46-2.53,14-14.87,23.71-14,19.11,1.75,39.49,20.41,45.81,41.46C156.62,455.71,127.39,449,95.62,454.83Z"/><path class="cls-7" d="M439.4,525.4c-4.78,2.12-10.1,4.56-11.85,8.93-1,2.57-.95,5,1.75,7,3.49,2.63,5.9,3.74,9.51,2.82,38.87-10,74.05-33.32,98.93-64.76,4.71-6,14.83-16.49,15.39-24.16-5.75.54-12.18,7.6-16.57,11.07-9.74,7.7-19.68,15.11-30,22A440.82,440.82,0,0,1,439.4,525.4Z"/><path class="cls-7" d="M195.48,525.4c4.77,2.12,10.1,4.56,11.84,8.93,1,2.57,1,5-1.74,7-3.5,2.63-5.91,3.74-9.51,2.82-38.87-10-74.06-33.32-98.93-64.76-4.72-6-14.83-16.49-15.4-24.16,5.75.54,12.18,7.6,16.57,11.07,9.75,7.7,19.69,15.11,30,22A441.4,441.4,0,0,0,195.48,525.4Z"/><path class="cls-7" d="M287.76,593.84a125.77,125.77,0,0,0-1.25-18.91,41.9,41.9,0,0,0-6.78-17.54c-1.6-2.23-7-5.63-6-8.2.86-2.3,6.95-2.36,9.35-2.9a21.7,21.7,0,0,1,6.25-.78,7.33,7.33,0,0,1,5.48,2.72c1.57,2.18,1.31,5.13,1,7.79l-3.23,26.46c-.53,4.37-1.7,9.53-2.24,13.9-.23,1.91,0,7.87-2.38,7.34C286.85,603.37,287.81,597.1,287.76,593.84Z"/><path class="cls-7" d="M347.42,593.84a124.47,124.47,0,0,1,1.25-18.91,41.9,41.9,0,0,1,6.78-17.54c1.6-2.23,6.94-5.63,6-8.2-.86-2.3-6.95-2.36-9.35-2.9a21.78,21.78,0,0,0-6.25-.78,7.35,7.35,0,0,0-5.49,2.72c-1.56,2.18-1.3,5.13-1,7.79l3.22,26.46c.54,4.37,1.36,9.53,1.89,13.9.24,1.91.35,7.87,2.74,7.34C348.33,603.37,347.37,597.1,347.42,593.84Z"/><path class="cls-7" d="M196,368.9c-9.43-1.11-18.93-2.39-27.9-5.52s-17.47-8.29-23.13-15.92a7.59,7.59,0,0,1-1.82-4.12c0-1.52,1-3.17,2.56-3.21a4.58,4.58,0,0,1,2.3.8A84.56,84.56,0,0,0,185.9,351.7c2.68.11,5.48.11,7.88,1.31s4.23,4.05,3.3,6.57Z"/><path class="cls-7" d="M440.73,368.9c9.44-1.11,18.93-2.39,27.9-5.52s17.47-8.29,23.14-15.92a7.5,7.5,0,0,0,1.81-4.12c.05-1.52-1-3.17-2.56-3.21a4.58,4.58,0,0,0-2.3.8,84.56,84.56,0,0,1-37.94,10.77c-2.68.11-5.47.11-7.87,1.31s-4.24,4.05-3.31,6.57Z"/><path class="cls-7" d="M121.34,230c-11.89-11.06-26.6-18.59-41.55-24.95S49.45,193.36,35,186c-3.24,2.35-2.42,7.73.46,10.5s7,3.71,10.81,4.91C63.63,206.81,77.83,219.1,93,229.24c9.3,6.23,19.12,11.73,27.86,18.72a71.48,71.48,0,0,1,13.41,13.73c1.18,1.63,2.56,5.65,4.9,5.55,3.09-.12,2.46-3.58,2.16-5.42C139.32,249.86,129.92,238,121.34,230Z"/><path class="cls-7" d="M514.55,230c11.88-11.06,26.6-18.59,41.54-24.95s30.35-11.69,44.79-19.1c3.24,2.35,2.42,7.73-.46,10.5s-7,3.71-10.8,4.91c-17.37,5.45-31.57,17.74-46.69,27.88-9.3,6.23-19.11,11.73-27.85,18.72a71.82,71.82,0,0,0-13.42,13.73c-1.18,1.63-2.56,5.65-4.9,5.55-3.09-.12-2.45-3.58-2.15-5.42C496.56,249.86,506,238,514.55,230Z"/><path class="cls-7" d="M372.36,597.45c1.71,16.67,3.37,33.82-1.2,49.95s-16.88,31.21-33.42,33.9c1.54-3.65,1.66-10.84,5-14.13s7.49-4,11.31-6.81c14.74-10.67,14.91-18.54,16.66-37.76C371.46,614.76,371.62,606,372.36,597.45Z"/><path class="cls-7" d="M263.46,597.45c-1.7,16.67-3.37,33.82,1.2,49.95s16.89,31.21,33.43,33.9c-1.55-3.65-1.66-10.84-5-14.13s-7.48-4-11.31-6.81c-14.74-10.67-14.9-18.54-16.65-37.76C264.37,614.76,264.21,606,263.46,597.45Z"/><path class="cls-7" d="M301.37,683.68a26.8,26.8,0,0,0,8.11,1.54c6.72.57,13.54,1.14,20.18,0,2.67-.47,5.4-1.28,7.38-3.13,2.71-2.56,3.46-6.51,4.06-10.19.25-1.57.43-3.4-.67-4.54-.68-.71-3.68-1.7-4.64-1.91-10.19-2.22-18.69-2.39-29.11-1.94a21.45,21.45,0,0,0-7.72,1.39c-2.41,1.06-3.78,1.46-4.25,4C293.85,673.78,297,681.82,301.37,683.68Z"/><path class="cls-7" d="M533.31,180.85a67.76,67.76,0,0,0,17-7.38c1.14-.69,2.4-1.69,2.27-3a2.72,2.72,0,0,0-2.33-2.14,23.91,23.91,0,0,0-3.39-.11,15.8,15.8,0,0,1-5.29-1.56,16.58,16.58,0,0,0-5.28-1.58,5.48,5.48,0,0,0-4.89,2c-1,1.53-.71,4,1,4.79"/><path class="cls-7" d="M103.73,181.06a67.37,67.37,0,0,1-17-7.37c-1.14-.69-2.4-1.69-2.27-3a2.73,2.73,0,0,1,2.33-2.14,23.91,23.91,0,0,1,3.39-.1,16.28,16.28,0,0,0,5.29-1.56,16.09,16.09,0,0,1,5.28-1.58,5.49,5.49,0,0,1,4.9,2c1,1.52.7,4-1,4.79"/><g id="direita-3" data-name="direita"><path class="cls-7" d="M424.09,689.6c-4.61-19.76-16.92-75-18.41-106.14,18.3-20.13,25.62-40.25,25.62-40.25s33.88,1.88,75.31-34.18h0c16.34-14.21,33.85-34.32,50.92-62.77-43.91-18.3-73.18-14.64-73.18-14.64s64-18.29,43.91-67.68c-25.61-49.41-32.93-64-32.93-64s-14.64-34.77,40.24-69.52c56.72-29.27,69.52-31.11,71.35-51.23s-34.75-32.93-34.75-32.93-27.45-11-16.47-49.4l1.83-7.31s-42.08,40.24-27.44,76.83l3.66,9.15s-69.52,27.44-86,67.69-18.29,71.34-7.31,111.6l3.65,9.15s-10.07,1.17-25.18,6.53c-27.12,9.61-70.49,32.71-101.05,86.77"/><path class="cls-7" d="M401.94,532.48a46,46,0,0,0-17.69-1.33,47.89,47.89,0,0,0-16.7,5.12,31.78,31.78,0,0,0-3.65,2.24l-1.79,1.33c-.65.5-1.31.92-2,1.35-2.65,1.69-5.37,3.11-8.09,4.53s-5.47,2.77-8.26,4-5.62,2.32-8.54,3.28l-8.53,2.83,5.57-7c.21-.26.54-.68.81-1.06s.54-.79.82-1.2c.52-.82,1-1.66,1.52-2.54a44.24,44.24,0,0,0,2.59-5.42c.39-.93.73-1.89,1.06-2.86s.65-1.94.9-2.94c.6-2,1-4,1.41-6.12h.53a32.56,32.56,0,0,1,.46,6.48,35.18,35.18,0,0,1-.78,6.52,36.72,36.72,0,0,1-1.94,6.36c-.42,1-.9,2-1.42,3-.27.5-.53,1-.84,1.49a16.44,16.44,0,0,1-1,1.53l-3-4.12c2.73-1.12,5.53-2.23,8.31-3.29s5.6-2.08,8.35-3.22a74.69,74.69,0,0,0,8-3.77c.63-.36,1.26-.71,1.83-1.1l.9-.59c.34-.23.68-.46,1-.67a34.73,34.73,0,0,1,4.2-2.25,48.73,48.73,0,0,1,18.07-4.11,45.31,45.31,0,0,1,18,2.93Z"/><path class="cls-7" d="M348,545.69s40.27,10.74,34.09-14"/><path class="cls-7" d="M317,617.3s22-11,27.44,1.83-11,20.12-11,20.12-5.48,14.12-15.55,17.12C317,628.28,317,617.3,317,617.3Z"/><polygon class="cls-7" points="341.41 548.47 346.23 602.66 336.22 549.18 341.41 548.47"/><path class="cls-7" d="M317.67,660.62a57.25,57.25,0,0,1,6.44.1q3.18.21,6.34.74a48.4,48.4,0,0,1,6.28,1.56,31.08,31.08,0,0,1,6,2.77l-2.27.05c3.78-2.42,7.7-4.51,11.45-6.67a35.13,35.13,0,0,0,9.8-7.73,30,30,0,0,0,5.51-11.18l.46-1.53.34-1.58c.21-1,.48-2.1.65-3.16.3-2.15.71-4.27.87-6.45.47-4.31.73-8.72,1.08-13.09s.65-8.75,1-13.13.8-8.75,1.58-13.09a38.13,38.13,0,0,1,1.71-6.39,22.1,22.1,0,0,1,3.27-5.7,22.1,22.1,0,0,0-3,5.8,37.41,37.41,0,0,0-1.44,6.37c-.59,4.33-.83,8.71-1,13.09s-.36,8.76-.51,13.14-.25,8.76-.55,13.19c-.07,2.21-.41,4.41-.62,6.62-.14,1.11-.37,2.21-.55,3.31l-.29,1.65-.41,1.64a32.83,32.83,0,0,1-5.58,12.46,38.29,38.29,0,0,1-10.37,8.94c-3.76,2.38-7.5,4.57-11,7l-1,.73-1.23-.68a27.2,27.2,0,0,0-5.18-2.12,42.34,42.34,0,0,0-5.66-1.15,56.73,56.73,0,0,0-5.84-.45c-1.94-.05-4.37-.06-6.2.09Z"/></g><g id="esquerda-3" data-name="esquerda"><path class="cls-7" d="M317.87,457.23c-30.76-54.43-74.52-77.48-101.61-87-14.8-5.19-24.62-6.32-24.62-6.32l3.66-9.15c11-40.26,9.15-71.35-7.32-111.6s-86-67.69-86-67.69l3.66-9.15c14.64-36.59-27.44-76.83-27.44-76.83l1.83,7.31c11,38.42-16.47,49.4-16.47,49.4S27,159,28.83,179.15s14.62,22,71.34,51.23c54.88,34.75,40.25,69.52,40.25,69.52s-7.32,14.62-32.93,64c-20.13,49.39,43.9,67.68,43.9,67.68S122.12,428,78.22,446.25c16.8,28,34,47.92,50.13,62.09,41.79,36.78,76.1,34.87,76.1,34.87s7.31,20.12,25.61,40.25c-1.5,31.42-14,87.34-18.52,106.65"/><path class="cls-7" d="M233.64,532a45.24,45.24,0,0,1,18-2.93,48.74,48.74,0,0,1,18.08,4.11,35.49,35.49,0,0,1,4.2,2.25c.34.21.68.44,1,.67l.91.59c.57.39,1.2.74,1.83,1.1a73.79,73.79,0,0,0,8,3.77c2.74,1.14,5.55,2.16,8.34,3.22s5.58,2.17,8.32,3.29l-3,4.12a16.67,16.67,0,0,1-1-1.53c-.3-.49-.56-1-.84-1.49-.51-1-1-2-1.41-3a37.64,37.64,0,0,1-1.95-6.36,35.18,35.18,0,0,1-.78-6.52,33.32,33.32,0,0,1,.47-6.48h.52c.45,2.09.82,4.14,1.42,6.12.25,1,.57,2,.9,2.94s.67,1.93,1.05,2.86a45.81,45.81,0,0,0,2.6,5.42c.47.88,1,1.72,1.52,2.54.27.41.54.82.82,1.2s.6.8.81,1.06l5.57,7L300.51,553c-2.93-1-5.75-2.06-8.55-3.28s-5.52-2.6-8.25-4-5.44-2.84-8.1-4.53c-.66-.43-1.32-.85-2-1.35l-1.79-1.33a33.61,33.61,0,0,0-3.65-2.24,47.94,47.94,0,0,0-16.71-5.12,46.06,46.06,0,0,0-17.69,1.33Z"/><path class="cls-7" d="M318.79,617.3s-22-11-27.44,1.83,11,20.12,11,20.12,5.49,14.12,15.55,17.12C318.79,628.28,318.79,617.3,318.79,617.3Z"/><polygon class="cls-7" points="299.53 549.18 289.52 602.66 294.33 548.47 299.53 549.18"/><path class="cls-7" d="M317.76,665.8a63.89,63.89,0,0,0-11.74.36,42.66,42.66,0,0,0-5.66,1.15,27.47,27.47,0,0,0-5.18,2.12l-1.23.68-1-.73c-3.52-2.46-7.26-4.65-11-7a38.4,38.4,0,0,1-10.36-8.94A32.85,32.85,0,0,1,265.93,641l-.41-1.64-.29-1.65c-.17-1.1-.4-2.2-.54-3.31-.21-2.21-.55-4.41-.63-6.62-.3-4.43-.37-8.8-.54-13.19s-.3-8.77-.51-13.14-.45-8.76-1.05-13.09a35.6,35.6,0,0,0-1.44-6.37,21.52,21.52,0,0,0-3-5.8,21.54,21.54,0,0,1,3.27,5.7,37.22,37.22,0,0,1,1.72,6.39c.77,4.34,1.18,8.72,1.58,13.09s.71,8.76,1,13.13.6,8.78,1.07,13.09c.16,2.18.58,4.3.87,6.45.18,1.06.44,2.11.66,3.16l.34,1.58.45,1.53A30,30,0,0,0,274,651.44a34.84,34.84,0,0,0,9.8,7.73c3.74,2.16,7.67,4.25,11.45,6.67l-2.27-.05a31.08,31.08,0,0,1,6-2.77,48,48,0,0,1,6.28-1.56c2.1-.35,4.22-.6,6.34-.74a57.07,57.07,0,0,1,6.43-.1Z"/></g><path class="cls-7" d="M287.49,545.69s-40.26,10.74-34.08-14"/><line class="cls-7" x1="506.61" y1="509.03" x2="506.61" y2="509.02"/><path class="cls-7" d="M341.47,667.6a11.86,11.86,0,0,1,.78,4.42,15.63,15.63,0,0,1-.61,4.34,13.28,13.28,0,0,1-1.87,4,7.36,7.36,0,0,1-3.54,2.92c.44-1.51.73-2.78,1-4.08s.63-2.57,1-3.85.78-2.57,1.27-3.87A21.85,21.85,0,0,1,341.47,667.6Z"/><path class="cls-7" d="M294.28,667.6a22.54,22.54,0,0,1,1.92,3.93c.49,1.3.9,2.59,1.27,3.87s.67,2.57,1,3.85.6,2.57,1,4.08a7.31,7.31,0,0,1-3.54-2.92,13.31,13.31,0,0,1-1.88-4,16,16,0,0,1-.6-4.34A11.66,11.66,0,0,1,294.28,667.6Z"/><path class="cls-7" d="M338.88,572.54s-9.73-7.08-18.57-3.15c-7.73,3.44-10.12-5.72-23.28,1.16l-2.14,13.18s4.72-7.14,18-3.13a11.41,11.41,0,0,0,6.32,0c10.63-3,21.36,2.59,21.36,2.59Z"/><circle class="cls-8" cx="318.31" cy="446.82" r="274.33"/><g id="direita-4" data-name="direita"><path class="cls-9" d="M424.09,689.6c-4.61-19.76-16.92-75-18.41-106.14,18.3-20.13,25.62-40.25,25.62-40.25s33.88,1.88,75.31-34.18h0c16.34-14.21,33.85-34.32,50.92-62.77-43.91-18.3-73.18-14.64-73.18-14.64s64-18.29,43.91-67.68c-25.61-49.41-32.93-64-32.93-64s-14.64-34.77,40.24-69.52c56.72-29.27,69.52-31.11,71.35-51.23s-34.75-32.93-34.75-32.93-27.45-11-16.47-49.4l1.83-7.31s-42.08,40.24-27.44,76.83l3.66,9.15s-69.52,27.44-86,67.69-18.29,71.34-7.31,111.6l3.65,9.15s-10.07,1.17-25.18,6.53c-27.12,9.61-70.49,32.71-101.05,86.77"/><path class="cls-10" d="M401.94,532.48a46,46,0,0,0-17.69-1.33,47.89,47.89,0,0,0-16.7,5.12,31.78,31.78,0,0,0-3.65,2.24l-1.79,1.33c-.65.5-1.31.92-2,1.35-2.65,1.69-5.37,3.11-8.09,4.53s-5.47,2.77-8.26,4-5.62,2.32-8.54,3.28l-8.53,2.83,5.57-7c.21-.26.54-.68.81-1.06s.54-.79.82-1.2c.52-.82,1-1.66,1.52-2.54a44.24,44.24,0,0,0,2.59-5.42c.39-.93.73-1.89,1.06-2.86s.65-1.94.9-2.94c.6-2,1-4,1.41-6.12h.53a32.56,32.56,0,0,1,.46,6.48,35.18,35.18,0,0,1-.78,6.52,36.72,36.72,0,0,1-1.94,6.36c-.42,1-.9,2-1.42,3-.27.5-.53,1-.84,1.49a16.44,16.44,0,0,1-1,1.53l-3-4.12c2.73-1.12,5.53-2.23,8.31-3.29s5.6-2.08,8.35-3.22a74.69,74.69,0,0,0,8-3.77c.63-.36,1.26-.71,1.83-1.1l.9-.59c.34-.23.68-.46,1-.67a34.73,34.73,0,0,1,4.2-2.25,48.73,48.73,0,0,1,18.07-4.11,45.31,45.31,0,0,1,18,2.93Z"/><path class="cls-11" d="M348,545.69s40.27,10.74,34.09-14"/><path class="cls-10" d="M317,617.3s22-11,27.44,1.83-11,20.12-11,20.12-5.48,14.12-15.55,17.12C317,628.28,317,617.3,317,617.3Z"/><polygon class="cls-10" points="341.41 548.47 346.23 602.66 336.22 549.18 341.41 548.47"/><path class="cls-10" d="M317.67,660.62a57.25,57.25,0,0,1,6.44.1q3.18.21,6.34.74a48.4,48.4,0,0,1,6.28,1.56,31.08,31.08,0,0,1,6,2.77l-2.27.05c3.78-2.42,7.7-4.51,11.45-6.67a35.13,35.13,0,0,0,9.8-7.73,30,30,0,0,0,5.51-11.18l.46-1.53.34-1.58c.21-1,.48-2.1.65-3.16.3-2.15.71-4.27.87-6.45.47-4.31.73-8.72,1.08-13.09s.65-8.75,1-13.13.8-8.75,1.58-13.09a38.13,38.13,0,0,1,1.71-6.39,22.1,22.1,0,0,1,3.27-5.7,22.1,22.1,0,0,0-3,5.8,37.41,37.41,0,0,0-1.44,6.37c-.59,4.33-.83,8.71-1,13.09s-.36,8.76-.51,13.14-.25,8.76-.55,13.19c-.07,2.21-.41,4.41-.62,6.62-.14,1.11-.37,2.21-.55,3.31l-.29,1.65-.41,1.64a32.83,32.83,0,0,1-5.58,12.46,38.29,38.29,0,0,1-10.37,8.94c-3.76,2.38-7.5,4.57-11,7l-1,.73-1.23-.68a27.2,27.2,0,0,0-5.18-2.12,42.34,42.34,0,0,0-5.66-1.15,56.73,56.73,0,0,0-5.84-.45,53,53,0,0,0-5.81.14Z"/></g><g id="esquerda-4" data-name="esquerda"><path class="cls-12" d="M317.87,457.23c-30.76-54.43-74.52-77.48-101.61-87-14.8-5.19-24.62-6.32-24.62-6.32l3.66-9.15c11-40.26,9.15-71.35-7.32-111.6s-86-67.69-86-67.69l3.66-9.15c14.64-36.59-27.44-76.83-27.44-76.83l1.83,7.31c11,38.42-16.47,49.4-16.47,49.4S27,159,28.83,179.15s14.62,22,71.34,51.23c54.88,34.75,40.25,69.52,40.25,69.52s-7.32,14.62-32.93,64c-20.13,49.39,43.9,67.68,43.9,67.68S122.12,428,78.22,446.25c16.8,28,34,47.92,50.13,62.09,41.79,36.78,76.1,34.87,76.1,34.87s7.31,20.12,25.61,40.25c-1.5,31.42-14,87.34-18.52,106.65"/><path class="cls-10" d="M233.64,532a45.24,45.24,0,0,1,18-2.93,48.74,48.74,0,0,1,18.08,4.11,35.49,35.49,0,0,1,4.2,2.25c.34.21.68.44,1,.67l.91.59c.57.39,1.2.74,1.83,1.1a73.79,73.79,0,0,0,8,3.77c2.74,1.14,5.55,2.16,8.34,3.22s5.58,2.17,8.32,3.29l-3,4.12a16.67,16.67,0,0,1-1-1.53c-.3-.49-.56-1-.84-1.49-.51-1-1-2-1.41-3a37.64,37.64,0,0,1-1.95-6.36,35.18,35.18,0,0,1-.78-6.52,33.32,33.32,0,0,1,.47-6.48h.52c.45,2.09.82,4.14,1.42,6.12.25,1,.57,2,.9,2.94s.67,1.93,1.05,2.86a45.81,45.81,0,0,0,2.6,5.42c.47.88,1,1.72,1.52,2.54.27.41.54.82.82,1.2s.6.8.81,1.06l5.57,7L300.51,553c-2.93-1-5.75-2.06-8.55-3.28s-5.52-2.6-8.25-4-5.44-2.84-8.1-4.53c-.66-.43-1.32-.85-2-1.35l-1.79-1.33a33.61,33.61,0,0,0-3.65-2.24,47.94,47.94,0,0,0-16.71-5.12,46.06,46.06,0,0,0-17.69,1.33Z"/><path class="cls-10" d="M318.79,617.3s-22-11-27.44,1.83,11,20.12,11,20.12,5.49,14.12,15.55,17.12C318.79,628.28,318.79,617.3,318.79,617.3Z"/><polygon class="cls-10" points="299.53 549.18 289.52 602.66 294.33 548.47 299.53 549.18"/><path class="cls-10" d="M317.67,665.85a52.81,52.81,0,0,0-5.8-.14,56.93,56.93,0,0,0-5.85.45,42.66,42.66,0,0,0-5.66,1.15,27.47,27.47,0,0,0-5.18,2.12l-1.23.68-1-.73c-3.52-2.46-7.26-4.65-11-7a38.4,38.4,0,0,1-10.36-8.94A32.85,32.85,0,0,1,265.93,641l-.41-1.64-.29-1.65c-.17-1.1-.4-2.2-.54-3.31-.21-2.21-.55-4.41-.63-6.62-.3-4.43-.37-8.8-.54-13.19s-.3-8.77-.51-13.14-.45-8.76-1.05-13.09a35.6,35.6,0,0,0-1.44-6.37,21.52,21.52,0,0,0-3-5.8,21.54,21.54,0,0,1,3.27,5.7,37.22,37.22,0,0,1,1.72,6.39c.77,4.34,1.18,8.72,1.58,13.09s.71,8.76,1,13.13.6,8.78,1.07,13.09c.16,2.18.58,4.3.87,6.45.18,1.06.44,2.11.66,3.16l.34,1.58.45,1.53A30,30,0,0,0,274,651.44a34.84,34.84,0,0,0,9.8,7.73c3.74,2.16,7.67,4.25,11.45,6.67l-2.27-.05a31.08,31.08,0,0,1,6-2.77,48,48,0,0,1,6.28-1.56c2.1-.35,4.22-.6,6.34-.74a57.07,57.07,0,0,1,6.43-.1Z"/></g><path class="cls-12" d="M125.35,251.82A273.45,273.45,0,0,0,44,446.82C44,575,131.9,682.64,250.71,712.75h0a276,276,0,0,0,147.5-3.43h0c2.5-.75,5-1.55,7.45-2.38h0c1.62-.55,3.22-1.1,4.82-1.68a.81.81,0,0,0,.22-.07h0q7.17-2.56,14.15-5.5c98.56-41.61,167.74-139.16,167.74-252.86a273.53,273.53,0,0,0-84-197.59"/><path class="cls-13" d="M318.31,734.9A288.07,288.07,0,1,1,522,650.52,286.19,286.19,0,0,1,318.31,734.9Z"/><path class="cls-14" d="M410.69,692.72c-5.12-22-17.22-76.63-18.74-108.61l-.28-5.69,3.84-4.22a124.2,124.2,0,0,0,22.88-35.73l3.61-9.74,10,.74c2.06.06,29.58,0,64.54-29.9l1.06-.92c13.85-12.06,27-27.3,39.22-45.43-30.76-10-50.53-8-50.75-8l-5.48-26.87c7.46-2.18,28.44-11,35.43-25.51,3.29-6.8,3.2-14.4-.27-23.21-25.12-48.46-32.41-63-32.71-63.62l-.38-.82c-.78-1.86-18.42-46,45.57-86.47l.51-.33.54-.28c10.91-5.63,20-10.16,28.08-14.17,33.79-16.8,35.18-18.42,35.87-26.07.43-4.62-12.51-14.07-25.63-18.72l-.53-.2c-7.5-3-17.79-10.75-23.48-23.89-3.05,8.75-4,17.89-.72,26.13l8.79,22-12.85,5.08c-17.83,7.06-66.66,31.64-78.31,60.1-15.12,37-17,64.69-7,102l10,25.1-17.85,2.08a117.53,117.53,0,0,0-22.17,5.83c-27.46,9.73-66,31.6-93.67,80.57l-24-13.53c31.86-56.37,76.55-81.67,108.43-93,4.28-1.51,8.18-2.73,11.64-3.69C415.44,312.29,418.08,279.41,435,238c14-34.26,58.93-59.17,81.11-69.72C501.63,124.61,546.08,81.43,548,79.57L582.39,46.7l-13.46,53.9c-6.82,23.85,5.27,31.35,8.37,32.85,6.9,2.5,46,18,43.32,47-2.17,23.93-16.47,31-51,48.22-7.83,3.89-16.68,8.29-27.17,13.69C502,268.12,507,291.19,508,294.5c1.81,3.59,10.32,20.4,32.46,63.1l.29.56.24.58c6.62,16.26,6.52,32.25-.29,46.25A61.47,61.47,0,0,1,528,422.21a221.86,221.86,0,0,1,34.82,11.34l14.69,6.13-8.19,13.65c-14.82,24.7-31.27,45.47-49,61.83v.13l-4.73,4.12c-32,27.86-60.62,35.12-75.12,37a157.3,157.3,0,0,1-20.75,31.86c2.52,31.4,14.06,82.59,17.71,98.25Z"/><path class="cls-15" d="M321.55,540.28l.3-.39.2-.28.34-.51c.32-.5.67-1.07.93-1.55l.17-.31a31.38,31.38,0,0,0,1.8-3.77c.24-.58.47-1.23.76-2.07.22-.65.45-1.34.58-1.85l.08-.35.11-.34c.28-.92.52-2.1.8-3.46.11-.51.21-1,.33-1.55L330.28,513h23.24l1.76,10.29a51.17,51.17,0,0,1,5.05-2.64l.13-.06a62.31,62.31,0,0,1,23.16-5.28c.73,0,1.45,0,2.18,0a58.39,58.39,0,0,1,21.31,3.91l12.18,4.76-8.42,25.29-12.59-3.48a32.11,32.11,0,0,0-8.58-1.16,32.8,32.8,0,0,0-3.83.23,34.32,34.32,0,0,0-11.86,3.6,18.93,18.93,0,0,0-2,1.22l-1.61,1.2c-1,.78-1.95,1.37-2.69,1.85l-.11.07c-3.11,2-6,3.52-8.88,5l-.39.2c-2.61,1.34-5.71,2.9-9,4.34s-6.55,2.69-9.78,3.76l-52.65,17.42Z"/><path class="cls-16" d="M365,561.8A83.27,83.27,0,0,1,344.48,559l7.09-26.58L348,545.69l3.52-13.29c7.2,1.88,16.77,2.46,19.33,1.16a3.6,3.6,0,0,0-1.24,1.27l25.82-6.46c3.4,13.6-2.22,21.67-5.88,25.27C383.14,560,373.71,561.8,365,561.8Z"/><path class="cls-15" d="M304.13,656.82c-.91-28-.93-39.06-.93-39.52v-8.5l7.61-3.8c1.95-1,12.19-5.83,22.74-5.83,11,0,19.53,5.3,23.49,14.54,6.27,14.62-1.37,28.11-13.07,35.47-3.42,6.51-10.5,16.89-22.16,20.37l-17.1,5.11Z"/><polygon class="cls-15" points="320.05 537.52 353.84 532.87 359.93 601.45 332.71 605.2 320.05 537.52"/><path class="cls-15" d="M334,681.51a12.81,12.81,0,0,0-2.4-1,30.14,30.14,0,0,0-3.67-.74c-1.43-.18-2.91-.29-4.39-.33l-1.28,0c-1.11,0-2.15,0-3,.11l-13.81,1.16-2.53-33.23,14.21-.6c1,0,1.87-.06,2.78-.06,1.6,0,3.22,0,5.1.17,2.67.18,5.27.49,7.78.91l.15,0a64,64,0,0,1,7.66,1.87l1.27-.71,3.23-1.83a22.32,22.32,0,0,0,6-4.54l.08-.1a16.63,16.63,0,0,0,2.84-6.09l.35-1.2.22-1c.08-.43.18-.85.27-1.27s.18-.78.25-1.17c.1-.7.2-1.4.31-2.1.19-1.21.37-2.34.44-3.25v-.24l0-.24c.3-2.78.51-5.64.73-8.67l.3-4,.08-1c.3-4,.62-8.11,1-12.21.45-5,.89-9.57,1.74-14.31l0-.18a51,51,0,0,1,2.39-8.73,35.06,35.06,0,0,1,5.3-9.27l21.95,16.57a8.07,8.07,0,0,0-1.13,2.11,24.51,24.51,0,0,0-.86,4c-.49,3.62-.7,7.33-.92,11.8-.19,3.95-.34,8.06-.47,12l0,.92c-.05,1.35-.09,2.64-.13,3.93-.1,3.06-.21,6.23-.42,9.49-.08,2-.29,3.77-.47,5.38-.07.62-.14,1.24-.2,1.86l0,.36c-.14,1.08-.31,2-.46,2.88-.05.31-.11.63-.16.94l-.4,2.31-.52,2.06a46.31,46.31,0,0,1-8,17.5A51.34,51.34,0,0,1,361.23,674c-1.18.75-2.33,1.46-3.48,2.17-2.51,1.55-4.88,3-7,4.53l-8,5.6Z"/><path class="cls-17" d="M224.94,693.23,198.15,687c3.67-15.76,15.29-67.28,17.82-98.76a157.61,157.61,0,0,1-20.74-31.86c-14.63-1.85-43.61-9.23-76-37.7-19.16-16.87-36.94-38.85-52.84-65.34l-8.18-13.65,14.69-6.13a221.52,221.52,0,0,1,34.82-11.34A61.69,61.69,0,0,1,95,405c-6.81-14-6.91-30-.28-46.25l.24-.59.29-.55c22.13-42.7,30.65-59.52,32.45-63.1,1-3.31,6-26.38-34.41-52.18-10.49-5.41-19.34-9.81-27.17-13.7-34.55-17.18-48.85-24.29-51-48.22-2.64-29,36.42-44.45,43.32-47,3.1-1.5,15.18-9,8.37-32.85l-.12-.44L53.35,46.69,87.72,79.57c2,1.86,46.4,45,31.88,88.68,22.19,10.55,67.1,35.46,81.11,69.72,16.95,41.44,19.6,74.32,9.07,115.83,3.29.92,7,2.06,11,3.47A195.08,195.08,0,0,1,274,385.93a209.39,209.39,0,0,1,55.86,64.53L305.9,464c-27.81-49.19-66.57-71.07-94.19-80.76a117.2,117.2,0,0,0-21.7-5.65l-17.85-2.06,10.07-25.11c10.06-37.33,8.14-65.06-7-102-11.64-28.45-60.48-53-78.31-60.1L84.11,183.2l8.78-22c3.39-8.47,2.36-17.62-.68-26.23-5.69,13.2-16,21-23.52,24l-.56.21c-13.09,4.64-26,14.09-25.61,18.71.7,7.65,2.09,9.27,35.88,26.08,8,4,17.17,8.53,28.08,14.16l.54.28.51.33c64,40.51,46.34,84.62,45.56,86.47l-.37.82c-.3.59-7.59,15.16-32.72,63.62-3.47,8.81-3.55,16.41-.26,23.21,7,14.48,28,23.33,35.47,25.52l-5.53,26.86c-.15,0-20-2.06-50.74,8,12,17.81,24.9,32.84,38.49,44.8,36.55,32.16,65.95,31.45,66.26,31.46l10.19-.57,3.49,9.6a124.19,124.19,0,0,0,22.87,35.69l3.83,4.22-.27,5.69C242.27,616.15,230.1,671.09,224.94,693.23Z"/><path class="cls-15" d="M296.19,566.06c-3.24-1.07-6.42-2.29-9.73-3.74s-6.43-3-9-4.36l-.37-.19c-2.84-1.49-5.78-3-8.84-5l-.17-.11c-.75-.48-1.67-1.07-2.69-1.85l-1.61-1.2a17.6,17.6,0,0,0-2-1.22,34.35,34.35,0,0,0-11.91-3.61,33.25,33.25,0,0,0-3.78-.22,32,32,0,0,0-8.57,1.16l-12.59,3.48-8.42-25.29,12.17-4.76A58.41,58.41,0,0,1,250,515.26c.72,0,1.45,0,2.18,0a62.4,62.4,0,0,1,23.16,5.28l.13.06a50.22,50.22,0,0,1,5.05,2.65l1.76-10.3h23.23l2.34,10.86.33,1.56c.28,1.36.52,2.53.8,3.45l.1.35.09.35c.12.49.35,1.17.57,1.81.29.87.53,1.52.75,2.06a33.27,33.27,0,0,0,1.81,3.82l.17.3c.26.49.62,1.05.94,1.55l.14.22.22.33.13.17.08.12.27.33,34.64,43.21Z"/><path class="cls-15" d="M313.94,669.55c-11.66-3.48-18.74-13.86-22.16-20.37-11.71-7.36-19.34-20.85-13.08-35.47,4-9.24,12.53-14.54,23.5-14.54,10.54,0,20.79,4.85,22.74,5.83l7.6,3.8v8.5c0,.46,0,11.52-.92,39.52L331,674.66Z"/><polygon class="cls-15" points="275.82 601.45 281.91 532.87 315.7 537.52 303.04 605.2 275.82 601.45"/><path class="cls-15" d="M285,680.66c-2.16-1.51-4.53-3-7-4.52L274.54,674a51.72,51.72,0,0,1-14-12.25,46.45,46.45,0,0,1-8-17.5l-.52-2.06-.4-2.31c0-.31-.11-.63-.17-.94-.15-.84-.32-1.8-.45-2.88l0-.36c-.06-.62-.13-1.24-.2-1.86-.19-1.6-.4-3.42-.47-5.39-.22-3.27-.32-6.45-.42-9.52,0-1.28-.09-2.55-.14-3.83l0-1c-.14-4-.28-8.07-.47-12.05-.21-4.28-.43-8.15-.92-11.78a25.26,25.26,0,0,0-.85-3.91,7.91,7.91,0,0,0-1.14-2.16l21.95-16.57a35.89,35.89,0,0,1,5.32,9.32,50.41,50.41,0,0,1,2.36,8.68l0,.18c.84,4.73,1.29,9.27,1.74,14.28.37,4.17.68,8.34,1,12.38l.08.95c.1,1.27.19,2.6.29,3.93.22,3,.43,5.91.74,8.7l0,.24,0,.25c.07.91.25,2,.43,3.25.11.7.22,1.4.32,2.1.07.39.16.78.24,1.16s.19.85.28,1.28l.21,1,.36,1.2a16.47,16.47,0,0,0,2.84,6.09l.08.1a22.14,22.14,0,0,0,6.06,4.56l3.2,1.81,1.26.71a64.61,64.61,0,0,1,7.67-1.87l.15,0a77.32,77.32,0,0,1,7.71-.9c2-.13,3.57-.18,5.17-.18.9,0,1.82,0,2.77.06l14.21.6-2.52,33.23-13.81-1.16c-.86-.07-1.9-.11-3-.11l-1.31,0c-1.46,0-2.93.15-4.36.33a29.38,29.38,0,0,0-3.67.74,13.22,13.22,0,0,0-2.41,1l-8.71,4.75Z"/><path class="cls-17" d="M318.31,734.9A288.38,288.38,0,0,1,249,726.5h0l-1.68-.42A287.78,287.78,0,0,1,30.23,446.82,287.21,287.21,0,0,1,115.68,242L135,261.6A260.63,260.63,0,0,0,253.24,699.2l.87.22a262.35,262.35,0,0,0,140.11-3.26l2-.6,4.12-1.32,2-1.06h1.1l2.35-.83,2.18-.92h.38c3.78-1.39,7.54-2.88,11.23-4.43a260.65,260.65,0,0,0,79.51-427.87l19.08-19.81a288.17,288.17,0,0,1-87.9,473c-4.89,2-9.88,4-14.86,5.78l-.11,0h0l-2.18.76-2,.68-2.06,1.08h-1.16c-2,.65-3.88,1.25-5.72,1.8l-2,.58A288.21,288.21,0,0,1,318.31,734.9Z"/><circle class="cls-8" cx="318.31" cy="446.82" r="274.33"/><g id="direita-5" data-name="direita"><path class="cls-9" d="M424.09,689.6c-4.61-19.76-16.92-75-18.41-106.14,18.3-20.13,25.62-40.25,25.62-40.25s33.88,1.88,75.31-34.18h0c16.34-14.21,33.85-34.32,50.92-62.77-43.91-18.3-73.18-14.64-73.18-14.64s64-18.29,43.91-67.68c-25.61-49.41-32.93-64-32.93-64s-14.64-34.77,40.24-69.52c56.72-29.27,69.52-31.11,71.35-51.23s-34.75-32.93-34.75-32.93-27.45-11-16.47-49.4l1.83-7.31s-42.08,40.24-27.44,76.83l3.66,9.15s-69.52,27.44-86,67.69-18.29,71.34-7.31,111.6l3.65,9.15s-10.07,1.17-25.18,6.53c-27.12,9.61-70.49,32.71-101.05,86.77"/><path class="cls-10" d="M401.94,532.48a46,46,0,0,0-17.69-1.33,47.89,47.89,0,0,0-16.7,5.12,31.78,31.78,0,0,0-3.65,2.24l-1.79,1.33c-.65.5-1.31.92-2,1.35-2.65,1.69-5.37,3.11-8.09,4.53s-5.47,2.77-8.26,4-5.62,2.32-8.54,3.28l-8.53,2.83,5.57-7c.21-.26.54-.68.81-1.06s.54-.79.82-1.2c.52-.82,1-1.66,1.52-2.54a44.24,44.24,0,0,0,2.59-5.42c.39-.93.73-1.89,1.06-2.86s.65-1.94.9-2.94c.6-2,1-4,1.41-6.12h.53a32.56,32.56,0,0,1,.46,6.48,35.18,35.18,0,0,1-.78,6.52,36.72,36.72,0,0,1-1.94,6.36c-.42,1-.9,2-1.42,3-.27.5-.53,1-.84,1.49a16.44,16.44,0,0,1-1,1.53l-3-4.12c2.73-1.12,5.53-2.23,8.31-3.29s5.6-2.08,8.35-3.22a74.69,74.69,0,0,0,8-3.77c.63-.36,1.26-.71,1.83-1.1l.9-.59c.34-.23.68-.46,1-.67a34.73,34.73,0,0,1,4.2-2.25,48.73,48.73,0,0,1,18.07-4.11,45.31,45.31,0,0,1,18,2.93Z"/><path class="cls-11" d="M348,545.69s40.27,10.74,34.09-14"/><path class="cls-10" d="M317,617.3s22-11,27.44,1.83-11,20.12-11,20.12-5.48,14.12-15.55,17.12C317,628.28,317,617.3,317,617.3Z"/><polygon class="cls-10" points="341.41 548.47 346.23 602.66 336.22 549.18 341.41 548.47"/><path class="cls-10" d="M317.67,660.62a57.25,57.25,0,0,1,6.44.1q3.18.21,6.34.74a48.4,48.4,0,0,1,6.28,1.56,31.08,31.08,0,0,1,6,2.77l-2.27.05c3.78-2.42,7.7-4.51,11.45-6.67a35.13,35.13,0,0,0,9.8-7.73,30,30,0,0,0,5.51-11.18l.46-1.53.34-1.58c.21-1,.48-2.1.65-3.16.3-2.15.71-4.27.87-6.45.47-4.31.73-8.72,1.08-13.09s.65-8.75,1-13.13.8-8.75,1.58-13.09a38.13,38.13,0,0,1,1.71-6.39,22.1,22.1,0,0,1,3.27-5.7,22.1,22.1,0,0,0-3,5.8,37.41,37.41,0,0,0-1.44,6.37c-.59,4.33-.83,8.71-1,13.09s-.36,8.76-.51,13.14-.25,8.76-.55,13.19c-.07,2.21-.41,4.41-.62,6.62-.14,1.11-.37,2.21-.55,3.31l-.29,1.65-.41,1.64a32.83,32.83,0,0,1-5.58,12.46,38.29,38.29,0,0,1-10.37,8.94c-3.76,2.38-7.5,4.57-11,7l-1,.73-1.23-.68a27.2,27.2,0,0,0-5.18-2.12,42.34,42.34,0,0,0-5.66-1.15,56.73,56.73,0,0,0-5.84-.45,53,53,0,0,0-5.81.14Z"/></g><g id="esquerda-5" data-name="esquerda"><path class="cls-12" d="M317.87,457.23c-30.76-54.43-74.52-77.48-101.61-87-14.8-5.19-24.62-6.32-24.62-6.32l3.66-9.15c11-40.26,9.15-71.35-7.32-111.6s-86-67.69-86-67.69l3.66-9.15c14.64-36.59-27.44-76.83-27.44-76.83l1.83,7.31c11,38.42-16.47,49.4-16.47,49.4S27,159,28.83,179.15s14.62,22,71.34,51.23c54.88,34.75,40.25,69.52,40.25,69.52s-7.32,14.62-32.93,64c-20.13,49.39,43.9,67.68,43.9,67.68S122.12,428,78.22,446.25c16.8,28,34,47.92,50.13,62.09,41.79,36.78,76.1,34.87,76.1,34.87s7.31,20.12,25.61,40.25c-1.5,31.42-14,87.34-18.52,106.65"/><path class="cls-10" d="M233.64,532a45.24,45.24,0,0,1,18-2.93,48.74,48.74,0,0,1,18.08,4.11,35.49,35.49,0,0,1,4.2,2.25c.34.21.68.44,1,.67l.91.59c.57.39,1.2.74,1.83,1.1a73.79,73.79,0,0,0,8,3.77c2.74,1.14,5.55,2.16,8.34,3.22s5.58,2.17,8.32,3.29l-3,4.12a16.67,16.67,0,0,1-1-1.53c-.3-.49-.56-1-.84-1.49-.51-1-1-2-1.41-3a37.64,37.64,0,0,1-1.95-6.36,35.18,35.18,0,0,1-.78-6.52,33.32,33.32,0,0,1,.47-6.48h.52c.45,2.09.82,4.14,1.42,6.12.25,1,.57,2,.9,2.94s.67,1.93,1.05,2.86a45.81,45.81,0,0,0,2.6,5.42c.47.88,1,1.72,1.52,2.54.27.41.54.82.82,1.2s.6.8.81,1.06l5.57,7L300.51,553c-2.93-1-5.75-2.06-8.55-3.28s-5.52-2.6-8.25-4-5.44-2.84-8.1-4.53c-.66-.43-1.32-.85-2-1.35l-1.79-1.33a33.61,33.61,0,0,0-3.65-2.24,47.94,47.94,0,0,0-16.71-5.12,46.06,46.06,0,0,0-17.69,1.33Z"/><path class="cls-10" d="M318.79,617.3s-22-11-27.44,1.83,11,20.12,11,20.12,5.49,14.12,15.55,17.12C318.79,628.28,318.79,617.3,318.79,617.3Z"/><polygon class="cls-10" points="299.53 549.18 289.52 602.66 294.33 548.47 299.53 549.18"/><path class="cls-10" d="M317.67,665.85a52.81,52.81,0,0,0-5.8-.14,56.93,56.93,0,0,0-5.85.45,42.66,42.66,0,0,0-5.66,1.15,27.47,27.47,0,0,0-5.18,2.12l-1.23.68-1-.73c-3.52-2.46-7.26-4.65-11-7a38.4,38.4,0,0,1-10.36-8.94A32.85,32.85,0,0,1,265.93,641l-.41-1.64-.29-1.65c-.17-1.1-.4-2.2-.54-3.31-.21-2.21-.55-4.41-.63-6.62-.3-4.43-.37-8.8-.54-13.19s-.3-8.77-.51-13.14-.45-8.76-1.05-13.09a35.6,35.6,0,0,0-1.44-6.37,21.52,21.52,0,0,0-3-5.8,21.54,21.54,0,0,1,3.27,5.7,37.22,37.22,0,0,1,1.72,6.39c.77,4.34,1.18,8.72,1.58,13.09s.71,8.76,1,13.13.6,8.78,1.07,13.09c.16,2.18.58,4.3.87,6.45.18,1.06.44,2.11.66,3.16l.34,1.58.45,1.53A30,30,0,0,0,274,651.44a34.84,34.84,0,0,0,9.8,7.73c3.74,2.16,7.67,4.25,11.45,6.67l-2.27-.05a31.08,31.08,0,0,1,6-2.77,48,48,0,0,1,6.28-1.56c2.1-.35,4.22-.6,6.34-.74a57.07,57.07,0,0,1,6.43-.1Z"/></g><path class="cls-18" d="M605.08,180.68a35.07,35.07,0,0,0-1.86-8.51,16.26,16.26,0,0,0-1.94-8.15,17.74,17.74,0,0,0-14.92-9.26l-1.29-.88c-3.44-2.29-7.29-3.64-10.92-5.57-.76-.41-1.5-.84-2.22-1.31-.23-.16-.76-.53-.94-.68-1.76-1.54-3.39-3.21-5-4.88a12.49,12.49,0,0,0-6.65-3.51q-.83-3.48-1.35-7.16c-.44-3.11-2.78-5.73-5.57-7.43a35.91,35.91,0,0,0,.44-4.49c0-.77.91-2.28-.16-.93,2.93-3.69,3.6-8.75,0-12.35-3-3-9.41-3.72-12.36,0-4.79,6-5.41,13.85-5.91,21.46l-.4.6c-5.91,9.83-9.55,23-5.1,33.66a19.41,19.41,0,0,0-.78,3.67,31.13,31.13,0,0,0,1.67,13,12.57,12.57,0,0,0-3.21,1.34c-10.46,6.2-20.76,12.11-30.35,19.28a74.24,74.24,0,0,0-20.15,8.93,13.77,13.77,0,0,0-6.41,10.85c-6.79,4.76-15.06,12-18.53,20.28a13.19,13.19,0,0,0-3.69,4,39.6,39.6,0,0,0-5,15.79c-1.3,4.21-2.71,8.36-4.34,12.3s-3.92,8.32-4.68,12.82c-.84,4.93-.33,9.19-1.56,12.72-1.54,4.38.19,9.53,3.51,12.86-.26,1.69-.49,3.38-.65,5.08a45.94,45.94,0,0,0,.26,11.61,10.19,10.19,0,0,0-.33,3.51c1,12.6,4.05,25.06,7.47,37.37a17,17,0,0,0-5.38,1.13c-8.48,3.28-17.24,6.39-26,9.71-1.13.21-2.25.46-3.35.77a74.94,74.94,0,0,0-20,9c-13.55,6.46-26.22,14.35-36.63,25.3s-18.41,23.58-25.38,36.86q-4.09,3.52-8,7.26c-7-7-13.27-14.67-19.53-22.33l-.49-.6a21.52,21.52,0,0,0-6.34-16.5,180.06,180.06,0,0,0-71.2-43.33,161.63,161.63,0,0,0-17.36-4.55l-10.94-4.84c.27-1.45.48-2.91.62-4.38,5.63-7.77,6.79-17,5.08-26.23a75.94,75.94,0,0,0,1.92-14.19,17.49,17.49,0,0,0-1.2-7.08c.06-.61.13-1.22.19-1.82,1.15-11.79.68-23.65.21-35.46a22.11,22.11,0,0,0-7.58-15.64,21.13,21.13,0,0,0-2.38-7.1q-1.56-2.87-3.17-5.7c-.18-1.6-.38-3.2-.62-4.81-.75-5.16-5-9.75-10-12.4-8.61-12.49-18.82-23.63-32.4-31.47-10.64-6.15-21.9-11.37-32.84-17-3.79-1.94-7.57-3.88-11.4-5.7a16.68,16.68,0,0,0,4.41-5.38c4.61-9.22,4.09-21.59,1.84-31.36-2.47-10.76-10.2-20.16-11-31.3-.46-6.69-11-6.74-10.48,0a38.82,38.82,0,0,0,1.1,6.82,4,4,0,0,0-3,3.58c-.83,5.81-1.56,11.66-2.4,17.48A5,5,0,0,0,74.12,137l-9.3,9.67-7.72,4.54-.2.14a20.3,20.3,0,0,0-4.16.61c-2,.52-4.11,2.84-3.85,5.06,0,0,0,0,0,.06a19.72,19.72,0,0,0-2.86.55c-13.52,3.73-20,20-12.81,32a34.14,34.14,0,0,0,16.1,13.82,27.67,27.67,0,0,0,8.19,1.95c3.68,3.94,21.06,1.75,25.37,5,4.59,3.41,9.18,6.81,13.93,10s-3.14,11.42,2,14.07c2.46,1.27,4.93,2.53,7.33,3.93,1.82,1.07,3.85,3,5.82,4-1.32-.69-1.73-1.6.29.13h0a3.13,3.13,0,0,0,.32.15l-.3-.12c.86.73,1.7,1.48,2.53,2.24,1.67,1.56,3.28,3.19,4.83,4.87s3.09,3.56,4.6,5.39l.12.18c.68.94,1.36,1.88,2,2.83a296.57,296.57,0,0,1,15.53,25.78,17.3,17.3,0,0,0,2.13,3A15.74,15.74,0,0,0,141.43,297c0,.1,0,.2,0,.3a20.19,20.19,0,0,0-4.56,12.93c-1.08,1.65-2.31,3.19-3.31,4.88a49,49,0,0,0-4.27,10l-.2.52c-.19.23-.36.44-.47.55-.77.84-1.57,1.65-2.32,2.51a44.46,44.46,0,0,0-5.91,8,34.1,34.1,0,0,0-4.16,14.84,103.07,103.07,0,0,0-9,18.35c-2,5.37-3.75,11.36-3.36,17.13a25.77,25.77,0,0,0,6.68,16.3,23.49,23.49,0,0,0,2,1.81,26.63,26.63,0,0,0,10.38,11.56,15.69,15.69,0,0,0,3.45,1.67,24.6,24.6,0,0,0,5.36,3.41,19.57,19.57,0,0,0,6.73,4.05,22.74,22.74,0,0,0,4.93,2.81l.65.56h-.15A22.72,22.72,0,0,0,129.11,435a5,5,0,0,0-4.42.41c-.4.3-.82.59-1.23.88a30,30,0,0,0-12.14.86,14.67,14.67,0,0,0-5.66,3.17h0l-.61.06c-5.63-3.8-13.73-3.94-18.61,1.38A15.41,15.41,0,0,0,84,445.3c-4.69,1.06-6.27,8.24-1.44,9.84a12.63,12.63,0,0,0,3.87,7q3.9,3.57,7.59,7.35a13.37,13.37,0,0,0,1.32,3,46.17,46.17,0,0,0,8.6,10.77,58.57,58.57,0,0,0,5.33,4.2c.55.77,1.1,1.52,1.63,2.29a18.84,18.84,0,0,0,2.92,3.27,46.69,46.69,0,0,0,6.81,9.41c4.84,4.9,11,8.9,16.46,13.07q3.12,2.4,6.27,4.74a20.54,20.54,0,0,0,2.72,3.49,21.78,21.78,0,0,0,15.24,6.38,52.36,52.36,0,0,0,20.12,7.54,18.08,18.08,0,0,0,8.56,4.83,84.64,84.64,0,0,0,14.85,1.32A320.83,320.83,0,0,0,228.57,581a17.61,17.61,0,0,0-1.49,7.54,302.43,302.43,0,0,0,2.3,31c-1,1.65-1.92,3.29-2.9,4.91-4.13,6.86-7.65,14.31-7,22.54a57.22,57.22,0,0,0,2,10.43,127.52,127.52,0,0,0-7.21,15.1,11.7,11.7,0,0,0-.63,2.09,13.27,13.27,0,0,0-1,1.46c-3.76,6.43-1.2,14,4.71,17.94,7.63,5.09,16.47,8.07,25.3,10.38,1,1.19,6.9,1.47,8.35,2.17,26.23,12.57,42.7,8.62,77.78,10.48a137.83,137.83,0,0,0,45.91-5.48,155.54,155.54,0,0,0,21-7.53c3-1.41,6.39-.91,9.14-2.72.94-.62,2.48.54,3.49,0,.08.07,2.73-1.76,3.5-1.74,6.83.86,9.83-8.91,9.54-15.38a13,13,0,0,0-3.54-8.73c-.29-4.66-1.56-9.62-2.27-14.15q-1.82-11.64-3.62-23.27c-1.51-9.69-3.3-19.36-6.42-28.58-.7-4.9-1.61-9.79-1.12-14.74a2.12,2.12,0,0,0-1.6-2.09q0-3-.21-6.11a220.33,220.33,0,0,0,30.1-43.71c.14,0,.29-.06.44-.11a50.31,50.31,0,0,0,7.14-2.75,51.36,51.36,0,0,1,11.38-1.56,44.5,44.5,0,0,0,21.43-5.91c5.65-3.32,10.68-7.77,15.7-12S499.31,512,504,507.17a32.06,32.06,0,0,0,2.42-2.76c10.06-7.64,19.64-15.9,27.75-25.6a15.85,15.85,0,0,0,3.48-7.36,75.78,75.78,0,0,0,10.4-8.86c7.9-8,2.19-22.42-9.27-22.37-8.91,0-18-1.85-26.81-3L490,434.38a34.84,34.84,0,0,0-.2-7.78A40.74,40.74,0,0,0,502.21,420c11.07-4.94,20.22-12.55,24.6-24.73a38.63,38.63,0,0,0-1-27.7,14.94,14.94,0,0,0-2.39-10.12c-2.69-4.15-4.75-5.65-7.21-9.23-.43-.63-.84-1.27-1.26-1.91-.43-1-.91-2.06-1.43-3.08a73.83,73.83,0,0,0-4-6.38,55.68,55.68,0,0,1-3.21-7.67,14.89,14.89,0,0,0-5.46-7.34c-.42-1.16-.84-2.34-1.25-3.57C495,304.63,491,292,492.25,278a19.9,19.9,0,0,0,3.84-3.88c3.47-4.57,5.85-9.78,9-14.56,2.59-3.94,7-8.38,10.69-12.51,5.79-6.43,11.47-13,17.57-19.17,4.23,2.45,9.87,2.87,13.63.21l12-8.49a15.32,15.32,0,0,0,5.91-8c12.86-3.31,25.51-8.31,33.32-19.44C602.23,189.91,605.53,185.32,605.08,180.68Z"/><path class="cls-19" d="M345,676.67s1.79,11.77-7.06,31.81"/><path class="cls-19" d="M290.94,677s-2.28,11.47,6.56,31.51"/><path class="cls-7" d="M137,425.17s90.5,6.39,132.63,14.15c40.69,7.49,32.83,16.37,46,14.73,30.07-3.74,54.76-16.39,76-18.86,104.92-12.18,98.63-6.68,98.63-6.68s76.24-20.43,11.59-113c-15-59.24-3.53-64.25,89.31-111.11,35.36-21.22,8-52.46-30.95-65.72-12-11.1-6.48-45.39-6.48-45.39s-22.2,29.61-24.52,73.79C528,191.4,486,198.82,486,198.82s-33.6,24.46-48.34,76.63c-14,49.42-2.82,73.07,4.13,87.24-44.8,11.2-111,64.91-124.28,93.2-21.32-33.08-74.37-81.12-123.88-94.38,15.32-85.47,1.61-143-84.16-181-17.68-8.85,3.4-20.29-3.67-50.35S75.69,80.63,75.69,80.63s12.08,51.58-8.26,62.19-71.91,40.67-4.12,64.25c61.88,21.52,81.93,63.07,78.4,82.53s-47.45,89-34.19,110.22S137,425.17,137,425.17Z"/><g id="barba-2" data-name="barba"><path class="cls-2" d="M342.54,661.74s10.41,21,3.88,33.9c-3.07-8.17-4.09-9.4-4.09-9.4s2.35,8.61-.9,17l-4.83-7.76a37.55,37.55,0,0,1-2.48,17.4c-3.65,9.56-23.23,6.48-23.23,6.48l4.49-57.58Z"/><path class="cls-2" d="M293.48,661.74s-10.42,21-3.88,33.9c3.06-8.17,4.08-9.4,4.08-9.4s-2.28,9.2.87,17l4.74-7.76s-.84,6.35,1.61,16.36,15,.34,15,.34l4.78-50.4Z"/><path class="cls-2" d="M344.48,664.49s20.24-39.3-14-42S315,654.08,315,654.08,311.67,669.6,344.48,664.49Z"/><path class="cls-2" d="M319.68,654.08s3.34,15.52-29.47,10.41c0,0-20.24-39.3,14-42"/></g><path class="cls-12" d="M125.35,251.82A273.45,273.45,0,0,0,44,446.82C44,575,131.9,682.64,250.71,712.75h0a276,276,0,0,0,147.5-3.43h0c2.5-.75,5-1.55,7.45-2.38h0c1.62-.55,3.22-1.1,4.82-1.68a.81.81,0,0,0,.22-.07h0q7.17-2.56,14.15-5.5c98.56-41.61,167.74-139.16,167.74-252.86a273.53,273.53,0,0,0-84-197.59"/><path class="cls-20" d="M283,542.37a34.14,34.14,0,0,1-6.05-2.94,72.71,72.71,0,0,0-6.24-3.86c-4.42-2.12-9.29-3.34-14-4.8a2,2,0,0,0-1.13,0,2.23,2.23,0,0,0-.88-.17c-2.56,0-2.78,3.61-.68,4.26a14.19,14.19,0,0,0,.28,1.56,2,2,0,0,0-.42,1.26,7.12,7.12,0,0,0,2.12,4.85,10.11,10.11,0,0,0,.9,1.17,8.52,8.52,0,0,0,6.31,2.61h.33a44,44,0,0,0,4.41.48,69.1,69.1,0,0,0,10.67,0,2.24,2.24,0,0,0,1.62-.8c.52.21,1,.42,1.55.61a2.19,2.19,0,1,0,1.16-4.22Z"/><path class="cls-20" d="M382,532.4a2.1,2.1,0,0,0-2.64-1.66l-7.74,2a26.28,26.28,0,0,0-7.12,2.58,43.59,43.59,0,0,0-5.46,4.51c-1.59,1.39-3.44,2.56-5.63,2.4a2.1,2.1,0,0,0-1.25.34c-2.37.43-2.23,4.33.43,4.33a2.19,2.19,0,0,0,1.12-.3,5.61,5.61,0,0,0,.71,0c2.67,0,5.34,0,8,0h.19a3,3,0,0,0,1.28.74c1.53.42,3.49-.17,5-.38,3.44-.45,6.93-1.07,9.71-3.3a9,9,0,0,0,3.45-7.63A2.3,2.3,0,0,0,382,532.4Z"/><path class="cls-21" d="M202.05,320.11c6.45-37.17-6.27-77.15-33-103.77-12-12-26.85-22-42.06-29.53-3.94-1.95-33.87-22.8-14.79,1.52,3.37,4.3,8.11,9.47,12.12,12.36a199.14,199.14,0,0,1,60.2,70.21A194.84,194.84,0,0,1,202.05,320.11Z"/><path class="cls-21" d="M437,320.11c-6.45-37.17,6.27-77.15,33-103.77,12-12,26.85-22,42.06-29.53,3.94-1.95,33.87-22.8,14.79,1.52-3.37,4.3-8.11,9.47-12.12,12.36a199.14,199.14,0,0,0-60.2,70.21A194.84,194.84,0,0,0,437,320.11Z"/><path class="cls-21" d="M559.93,152.83c2.23,2.16,4.83,4.13,7.88,4.69s6.61-.7,7.9-3.52c1-2.32.37-5.12-1-7.26a32.36,32.36,0,0,0-5.26-5.53,53.37,53.37,0,0,1-12.37-17.74c-1.3-3-3.7-17.72-8.4-9.62-3,5.14-.87,15.55.63,20.85A40.81,40.81,0,0,0,559.93,152.83Z"/><path class="cls-21" d="M76.67,152.83c-2.23,2.16-4.83,4.13-7.88,4.69s-6.61-.7-7.89-3.52c-1.06-2.32-.38-5.12,1-7.26a32.3,32.3,0,0,1,5.25-5.53,53.37,53.37,0,0,0,12.37-17.74c1.3-3,3.7-17.72,8.4-9.62,3,5.14.88,15.55-.63,20.85A40.81,40.81,0,0,1,76.67,152.83Z"/><path class="cls-21" d="M540.45,454.83c2.76.51,5.6,1.09,8.29.18a8.38,8.38,0,0,0,5.45-7.4c.77-13.13-29.66-6.91-35.75-8.53-9.46-2.53-14-14.87-23.71-14-19.11,1.75-39.49,20.41-45.81,41.46C479.46,455.71,508.69,449,540.45,454.83Z"/><path class="cls-21" d="M95.62,454.83c-2.75.51-5.59,1.09-8.28.18a8.4,8.4,0,0,1-5.46-7.4c-.76-13.13,29.67-6.91,35.76-8.53,9.46-2.53,14-14.87,23.71-14,19.11,1.75,39.49,20.41,45.81,41.46C156.62,455.71,127.39,449,95.62,454.83Z"/><path class="cls-22" d="M439.4,525.4c-4.78,2.12-10.1,4.56-11.85,8.93-1,2.57-.95,5,1.75,7,3.49,2.63,5.9,3.74,9.51,2.82,38.87-10,74.05-33.32,98.93-64.76,4.71-6,14.83-16.49,15.39-24.16-5.75.54-12.18,7.6-16.57,11.07-9.74,7.7-19.68,15.11-30,22A440.82,440.82,0,0,1,439.4,525.4Z"/><path class="cls-22" d="M195.48,525.4c4.77,2.12,10.1,4.56,11.84,8.93,1,2.57,1,5-1.74,7-3.5,2.63-5.91,3.74-9.51,2.82-38.87-10-74.06-33.32-98.93-64.76-4.72-6-14.83-16.49-15.4-24.16,5.75.54,12.18,7.6,16.57,11.07,9.75,7.7,19.69,15.11,30,22A441.4,441.4,0,0,0,195.48,525.4Z"/><path class="cls-22" d="M287.76,593.84a125.77,125.77,0,0,0-1.25-18.91,41.9,41.9,0,0,0-6.78-17.54c-1.6-2.23-7-5.63-6-8.2.86-2.3,6.95-2.36,9.35-2.9a21.7,21.7,0,0,1,6.25-.78,7.33,7.33,0,0,1,5.48,2.72c1.57,2.18,1.31,5.13,1,7.79l-3.23,26.46c-.53,4.37-1.7,9.53-2.24,13.9-.23,1.91,0,7.87-2.38,7.34C286.85,603.37,287.81,597.1,287.76,593.84Z"/><path class="cls-22" d="M347.42,593.84a124.47,124.47,0,0,1,1.25-18.91,41.9,41.9,0,0,1,6.78-17.54c1.6-2.23,6.94-5.63,6-8.2-.86-2.3-6.95-2.36-9.35-2.9a21.78,21.78,0,0,0-6.25-.78,7.35,7.35,0,0,0-5.49,2.72c-1.56,2.18-1.3,5.13-1,7.79l3.22,26.46c.54,4.37,1.36,9.53,1.89,13.9.24,1.91.35,7.87,2.74,7.34C348.33,603.37,347.37,597.1,347.42,593.84Z"/><path class="cls-22" d="M196,368.9c-9.43-1.11-18.93-2.39-27.9-5.52s-17.47-8.29-23.13-15.92a7.59,7.59,0,0,1-1.82-4.12c0-1.52,1-3.17,2.56-3.21a4.58,4.58,0,0,1,2.3.8A84.56,84.56,0,0,0,185.9,351.7c2.68.11,5.48.11,7.88,1.31s4.23,4.05,3.3,6.57Z"/><path class="cls-22" d="M440.73,368.9c9.44-1.11,18.93-2.39,27.9-5.52s17.47-8.29,23.14-15.92a7.5,7.5,0,0,0,1.81-4.12c.05-1.52-1-3.17-2.56-3.21a4.58,4.58,0,0,0-2.3.8,84.56,84.56,0,0,1-37.94,10.77c-2.68.11-5.47.11-7.87,1.31s-4.24,4.05-3.31,6.57Z"/><path class="cls-22" d="M121.34,230c-11.89-11.06-26.6-18.59-41.55-24.95S49.45,193.36,35,186c-3.24,2.35-2.42,7.73.46,10.5s7,3.71,10.81,4.91C63.63,206.81,77.83,219.1,93,229.24c9.3,6.23,19.12,11.73,27.86,18.72a71.48,71.48,0,0,1,13.41,13.73c1.18,1.63,2.56,5.65,4.9,5.55,3.09-.12,2.46-3.58,2.16-5.42C139.32,249.86,129.92,238,121.34,230Z"/><path class="cls-22" d="M514.55,230c11.88-11.06,26.6-18.59,41.54-24.95s30.35-11.69,44.79-19.1c3.24,2.35,2.42,7.73-.46,10.5s-7,3.71-10.8,4.91c-17.37,5.45-31.57,17.74-46.69,27.88-9.3,6.23-19.11,11.73-27.85,18.72a71.82,71.82,0,0,0-13.42,13.73c-1.18,1.63-2.56,5.65-4.9,5.55-3.09-.12-2.45-3.58-2.15-5.42C496.56,249.86,506,238,514.55,230Z"/><path class="cls-22" d="M372.36,597.45c1.71,16.67,3.37,33.82-1.2,49.95s-16.88,31.21-33.42,33.9c1.54-3.65,1.66-10.84,5-14.13s7.49-4,11.31-6.81c14.74-10.67,14.91-18.54,16.66-37.76C371.46,614.76,371.62,606,372.36,597.45Z"/><path class="cls-22" d="M263.46,597.45c-1.7,16.67-3.37,33.82,1.2,49.95s16.89,31.21,33.43,33.9c-1.55-3.65-1.66-10.84-5-14.13s-7.48-4-11.31-6.81c-14.74-10.67-14.9-18.54-16.65-37.76C264.37,614.76,264.21,606,263.46,597.45Z"/><path class="cls-21" d="M301.37,683.68a26.8,26.8,0,0,0,8.11,1.54c6.72.57,13.54,1.14,20.18,0,2.67-.47,5.4-1.28,7.38-3.13,2.71-2.56,3.46-6.51,4.06-10.19.25-1.57.43-3.4-.67-4.54-.68-.71-3.68-1.7-4.64-1.91-10.19-2.22-18.69-2.39-29.11-1.94a21.45,21.45,0,0,0-7.72,1.39c-2.41,1.06-3.78,1.46-4.25,4C293.85,673.78,297,681.82,301.37,683.68Z"/><path class="cls-22" d="M533.31,180.85a67.76,67.76,0,0,0,17-7.38c1.14-.69,2.4-1.69,2.27-3a2.72,2.72,0,0,0-2.33-2.14,23.91,23.91,0,0,0-3.39-.11,15.8,15.8,0,0,1-5.29-1.56,16.58,16.58,0,0,0-5.28-1.58,5.48,5.48,0,0,0-4.89,2c-1,1.53-.71,4,1,4.79"/><path class="cls-22" d="M103.73,181.06a67.37,67.37,0,0,1-17-7.37c-1.14-.69-2.4-1.69-2.27-3a2.73,2.73,0,0,1,2.33-2.14,23.91,23.91,0,0,1,3.39-.1,16.28,16.28,0,0,0,5.29-1.56,16.09,16.09,0,0,1,5.28-1.58,5.49,5.49,0,0,1,4.9,2c1,1.52.7,4-1,4.79"/><g id="direita-6" data-name="direita"><path class="cls-23" d="M424.09,689.6c-4.61-19.76-16.92-75-18.41-106.14,18.3-20.13,25.62-40.25,25.62-40.25s33.88,1.88,75.31-34.18h0c16.34-14.21,33.85-34.32,50.92-62.77-43.91-18.3-73.18-14.64-73.18-14.64s64-18.29,43.91-67.68c-25.61-49.41-32.93-64-32.93-64s-14.64-34.77,40.24-69.52c56.72-29.27,69.52-31.11,71.35-51.23s-34.75-32.93-34.75-32.93-27.45-11-16.47-49.4l1.83-7.31s-42.08,40.24-27.44,76.83l3.66,9.15s-69.52,27.44-86,67.69-18.29,71.34-7.31,111.6l3.65,9.15s-10.07,1.17-25.18,6.53c-27.12,9.61-70.49,32.71-101.05,86.77"/><path class="cls-24" d="M401.94,532.48a46,46,0,0,0-17.69-1.33,47.89,47.89,0,0,0-16.7,5.12,31.78,31.78,0,0,0-3.65,2.24l-1.79,1.33c-.65.5-1.31.92-2,1.35-2.65,1.69-5.37,3.11-8.09,4.53s-5.47,2.77-8.26,4-5.62,2.32-8.54,3.28l-8.53,2.83,5.57-7c.21-.26.54-.68.81-1.06s.54-.79.82-1.2c.52-.82,1-1.66,1.52-2.54a44.24,44.24,0,0,0,2.59-5.42c.39-.93.73-1.89,1.06-2.86s.65-1.94.9-2.94c.6-2,1-4,1.41-6.12h.53a32.56,32.56,0,0,1,.46,6.48,35.18,35.18,0,0,1-.78,6.52,36.72,36.72,0,0,1-1.94,6.36c-.42,1-.9,2-1.42,3-.27.5-.53,1-.84,1.49a16.44,16.44,0,0,1-1,1.53l-3-4.12c2.73-1.12,5.53-2.23,8.31-3.29s5.6-2.08,8.35-3.22a74.69,74.69,0,0,0,8-3.77c.63-.36,1.26-.71,1.83-1.1l.9-.59c.34-.23.68-.46,1-.67a34.73,34.73,0,0,1,4.2-2.25,48.73,48.73,0,0,1,18.07-4.11,45.31,45.31,0,0,1,18,2.93Z"/><path class="cls-25" d="M348,545.69s40.27,10.74,34.09-14"/><path d="M317,617.3s22-11,27.44,1.83-11,20.12-11,20.12-5.48,14.12-15.55,17.12C317,628.28,317,617.3,317,617.3Z"/><polygon class="cls-26" points="341.41 548.47 346.23 602.66 336.22 549.18 341.41 548.47"/><path class="cls-27" d="M317.67,660.62a57.25,57.25,0,0,1,6.44.1q3.18.21,6.34.74a48.4,48.4,0,0,1,6.28,1.56,31.08,31.08,0,0,1,6,2.77l-2.27.05c3.78-2.42,7.7-4.51,11.45-6.67a35.13,35.13,0,0,0,9.8-7.73,30,30,0,0,0,5.51-11.18l.46-1.53.34-1.58c.21-1,.48-2.1.65-3.16.3-2.15.71-4.27.87-6.45.47-4.31.73-8.72,1.08-13.09s.65-8.75,1-13.13.8-8.75,1.58-13.09a38.13,38.13,0,0,1,1.71-6.39,22.1,22.1,0,0,1,3.27-5.7,22.1,22.1,0,0,0-3,5.8,37.41,37.41,0,0,0-1.44,6.37c-.59,4.33-.83,8.71-1,13.09s-.36,8.76-.51,13.14-.25,8.76-.55,13.19c-.07,2.21-.41,4.41-.62,6.62-.14,1.11-.37,2.21-.55,3.31l-.29,1.65-.41,1.64a32.83,32.83,0,0,1-5.58,12.46,38.29,38.29,0,0,1-10.37,8.94c-3.76,2.38-7.5,4.57-11,7l-1,.73-1.23-.68a27.2,27.2,0,0,0-5.18-2.12,42.34,42.34,0,0,0-5.66-1.15,56.73,56.73,0,0,0-5.84-.45c-1.94-.05-4.37-.06-6.2.09Z"/></g><g id="esquerda-6" data-name="esquerda"><path class="cls-28" d="M317.87,457.23c-30.76-54.43-74.52-77.48-101.61-87-14.8-5.19-24.62-6.32-24.62-6.32l3.66-9.15c11-40.26,9.15-71.35-7.32-111.6s-86-67.69-86-67.69l3.66-9.15c14.64-36.59-27.44-76.83-27.44-76.83l1.83,7.31c11,38.42-16.47,49.4-16.47,49.4S27,159,28.83,179.15s14.62,22,71.34,51.23c54.88,34.75,40.25,69.52,40.25,69.52s-7.32,14.62-32.93,64c-20.13,49.39,43.9,67.68,43.9,67.68S122.12,428,78.22,446.25c16.8,28,34,47.92,50.13,62.09,41.79,36.78,76.1,34.87,76.1,34.87s7.31,20.12,25.61,40.25c-1.5,31.42-14,87.34-18.52,106.65"/><path class="cls-29" d="M233.64,532a45.24,45.24,0,0,1,18-2.93,48.74,48.74,0,0,1,18.08,4.11,35.49,35.49,0,0,1,4.2,2.25c.34.21.68.44,1,.67l.91.59c.57.39,1.2.74,1.83,1.1a73.79,73.79,0,0,0,8,3.77c2.74,1.14,5.55,2.16,8.34,3.22s5.58,2.17,8.32,3.29l-3,4.12a16.67,16.67,0,0,1-1-1.53c-.3-.49-.56-1-.84-1.49-.51-1-1-2-1.41-3a37.64,37.64,0,0,1-1.95-6.36,35.18,35.18,0,0,1-.78-6.52,33.32,33.32,0,0,1,.47-6.48h.52c.45,2.09.82,4.14,1.42,6.12.25,1,.57,2,.9,2.94s.67,1.93,1.05,2.86a45.81,45.81,0,0,0,2.6,5.42c.47.88,1,1.72,1.52,2.54.27.41.54.82.82,1.2s.6.8.81,1.06l5.57,7L300.51,553c-2.93-1-5.75-2.06-8.55-3.28s-5.52-2.6-8.25-4-5.44-2.84-8.1-4.53c-.66-.43-1.32-.85-2-1.35l-1.79-1.33a33.61,33.61,0,0,0-3.65-2.24,47.94,47.94,0,0,0-16.71-5.12,46.06,46.06,0,0,0-17.69,1.33Z"/><path d="M318.79,617.3s-22-11-27.44,1.83,11,20.12,11,20.12,5.49,14.12,15.55,17.12C318.79,628.28,318.79,617.3,318.79,617.3Z"/><polygon class="cls-30" points="299.53 549.18 289.52 602.66 294.33 548.47 299.53 549.18"/><path class="cls-31" d="M317.76,665.8a63.89,63.89,0,0,0-11.74.36,42.66,42.66,0,0,0-5.66,1.15,27.47,27.47,0,0,0-5.18,2.12l-1.23.68-1-.73c-3.52-2.46-7.26-4.65-11-7a38.4,38.4,0,0,1-10.36-8.94A32.85,32.85,0,0,1,265.93,641l-.41-1.64-.29-1.65c-.17-1.1-.4-2.2-.54-3.31-.21-2.21-.55-4.41-.63-6.62-.3-4.43-.37-8.8-.54-13.19s-.3-8.77-.51-13.14-.45-8.76-1.05-13.09a35.6,35.6,0,0,0-1.44-6.37,21.52,21.52,0,0,0-3-5.8,21.54,21.54,0,0,1,3.27,5.7,37.22,37.22,0,0,1,1.72,6.39c.77,4.34,1.18,8.72,1.58,13.09s.71,8.76,1,13.13.6,8.78,1.07,13.09c.16,2.18.58,4.3.87,6.45.18,1.06.44,2.11.66,3.16l.34,1.58.45,1.53A30,30,0,0,0,274,651.44a34.84,34.84,0,0,0,9.8,7.73c3.74,2.16,7.67,4.25,11.45,6.67l-2.27-.05a31.08,31.08,0,0,1,6-2.77,48,48,0,0,1,6.28-1.56c2.1-.35,4.22-.6,6.34-.74a57.07,57.07,0,0,1,6.43-.1Z"/></g><path class="cls-25" d="M287.49,545.69s-40.26,10.74-34.08-14"/><line class="cls-32" x1="506.61" y1="509.03" x2="506.61" y2="509.02"/><path d="M341.47,667.6a11.86,11.86,0,0,1,.78,4.42,15.63,15.63,0,0,1-.61,4.34,13.28,13.28,0,0,1-1.87,4,7.36,7.36,0,0,1-3.54,2.92c.44-1.51.73-2.78,1-4.08s.63-2.57,1-3.85.78-2.57,1.27-3.87A21.85,21.85,0,0,1,341.47,667.6Z"/><path d="M294.28,667.6a22.54,22.54,0,0,1,1.92,3.93c.49,1.3.9,2.59,1.27,3.87s.67,2.57,1,3.85.6,2.57,1,4.08a7.31,7.31,0,0,1-3.54-2.92,13.31,13.31,0,0,1-1.88-4,16,16,0,0,1-.6-4.34A11.66,11.66,0,0,1,294.28,667.6Z"/><path class="cls-2" d="M338.88,572.54s-9.73-7.08-18.57-3.15c-7.73,3.44-10.12-5.72-23.28,1.16l-2.14,13.18s4.72-7.14,18-3.13a11.41,11.41,0,0,0,6.32,0c10.63-3,21.36,2.59,21.36,2.59Z"/></g><path d="M343.46,662.35a59.57,59.57,0,0,0,3.59-8.45,48.66,48.66,0,0,0,2.2-9,27.33,27.33,0,0,0-.13-9.2,16.34,16.34,0,0,0-4.2-8.22,16.88,16.88,0,0,1,5.17,8,28.91,28.91,0,0,1,1.16,9.62,52.13,52.13,0,0,1-1.31,9.63,64.07,64.07,0,0,1-2.87,9.36l-.74,1.86-3.8-1.82Z"/><path d="M287.52,664.08a64.07,64.07,0,0,1-2.87-9.36,51.29,51.29,0,0,1-1.31-9.63,28.65,28.65,0,0,1,1.16-9.62,16.88,16.88,0,0,1,5.17-8,16.34,16.34,0,0,0-4.2,8.22,27.33,27.33,0,0,0-.13,9.2,48.66,48.66,0,0,0,2.2,9,59.57,59.57,0,0,0,3.59,8.45l.93,1.77-3.8,1.82Z"/><path d="M525.44,434.6c-17.91.71-35.64,1.62-53.25,2.9-17.51-.75-35.05-.75-52.48.14a327,327,0,0,0-51.56,6.4,165.37,165.37,0,0,0-24.44,7.15,87.66,87.66,0,0,0-21.59,11.6l-4.38,3.34-4.3-3.49c-5.95-4.82-13.38-8.48-21.16-11.37a171,171,0,0,0-24.44-6.76,360,360,0,0,0-51.47-6.07c-17.38-.9-34.86-1.05-52.33-.52-8.76-.79-17.56-1.47-26.39-2.14q-6.63-.51-13.27-.91c-4.43-.33-8.87-.57-13.33-.86,4.32-1.16,8.68-2.12,13-3.12s8.74-1.81,13.13-2.66c8.77-1.7,17.6-3.13,26.46-4.39,17.79-.37,35.6-.34,53.45.62a371.94,371.94,0,0,1,53.52,6.34,182.94,182.94,0,0,1,26.5,7.34c8.7,3.26,17.37,7.38,25.17,13.67l-8.69-.15a101.42,101.42,0,0,1,25-13.53,179.19,179.19,0,0,1,26.51-7.77,339.81,339.81,0,0,1,53.81-6.7c18-.94,35.89-.85,53.77-.21,8.9,1.35,17.75,2.91,26.54,4.75S516.82,432.11,525.44,434.6Z"/></g></g></g></svg>