<svg xmlns="http://www.w3.org/2000/svg" xmlns:xlink="http://www.w3.org/1999/xlink" viewBox="0 0 651.07 688.18"><defs><style>.cls-1,.cls-2{fill:#0a1920;}.cls-1{stroke:#0a1920;stroke-miterlimit:10;stroke-width:20px;}.cls-3{fill:url(#Gradiente_sem_nome_5);}</style><linearGradient id="Gradiente_sem_nome_5" x1="325.53" y1="482.61" x2="325.53" y2="112.42" gradientUnits="userSpaceOnUse"><stop offset="0" stop-color="#efc12e"/><stop offset="1" stop-color="#ff5240"/></linearGradient></defs><title>reduzida_1-dusk</title><g id="Camada_2" data-name="Camada 2"><g id="reduzida"><path class="cls-1" d="M263.68,634.39c0-54.93-103.46-97.08-136.67-136.68,0,0-24.62-22.64-43.38-77.07-18.8,53-9.15,117.45,43.38,153.71,53.64,37,77.91,48.54,115,90.69S263.68,634.39,263.68,634.39Z"/><path class="cls-1" d="M117.42,347s10.71,35.78,21.1,67.87c2.29-25.72,21.84-55.05,22.7-107.77,1.39-84.25-45.75-104.79-88.08-137-17.54-13.36-55-33.35-60.73-87.58C1.1,164.29,30.34,174.75,84.58,224.07,132.16,267.31,131.22,304.16,117.42,347Z"/><path class="cls-1" d="M388.39,634.39c0-54.93,103.46-97.08,136.67-136.68,0,0,24.62-22.64,43.38-77.07,18.8,53,9.14,117.45-43.38,153.71-53.65,37-77.92,48.54-115,90.69S388.39,634.39,388.39,634.39Z"/><path class="cls-1" d="M533.65,347s-10.72,35.78-21.11,67.87c-2.28-25.72-21.83-55.05-22.7-107.77-1.38-84.25,45.76-104.79,88.08-137,17.54-13.36,55-33.35,60.74-87.58,11.31,81.82-17.94,92.28-72.18,141.6C518.91,267.31,519.85,304.16,533.65,347Z"/><polygon class="cls-2" points="223.62 507.68 223.62 87.35 359.61 87.35 427.44 126.49 427.44 468.54 359.61 507.68 223.62 507.68"/><path class="cls-3" d="M352.89,112.42,402.38,141V454.06l-49.49,28.55H248.69V112.42h104.2Zm-4.75,237.91V176.18l-16.66-9.52H302.93V428.37h28.55l16.66-9.52Z"/></g></g></svg>