<svg xmlns="http://www.w3.org/2000/svg" xmlns:xlink="http://www.w3.org/1999/xlink" viewBox="0 0 690.62 1270.18"><defs><style>.cls-1{isolation:isolate;}.cls-2{fill:url(#Gradiente_sem_nome_5);}.cls-3{fill:url(#Gradiente_sem_nome_5-2);}.cls-4{fill:url(#Gradiente_sem_nome_5-3);}.cls-5{fill:url(#Gradiente_sem_nome_5-4);}.cls-6{fill:#fff;}.cls-7{fill:#0a1920;}.cls-10,.cls-11,.cls-12,.cls-19,.cls-23,.cls-24,.cls-25,.cls-26,.cls-27,.cls-28,.cls-29,.cls-30,.cls-31,.cls-32,.cls-8,.cls-9{stroke:#000;}.cls-10,.cls-12,.cls-13,.cls-14,.cls-15,.cls-17,.cls-19,.cls-23,.cls-28,.cls-8,.cls-9{stroke-miterlimit:10;}.cls-10,.cls-11,.cls-12,.cls-13,.cls-14,.cls-15,.cls-16,.cls-17,.cls-8,.cls-9{stroke-width:30px;}.cls-8{fill:url(#Gradiente_sem_nome_5-9);}.cls-11,.cls-12,.cls-14,.cls-16,.cls-17,.cls-19,.cls-23,.cls-25,.cls-28,.cls-32,.cls-9{fill:none;}.cls-11,.cls-14,.cls-16,.cls-23,.cls-24,.cls-25,.cls-26,.cls-32,.cls-9{stroke-linecap:round;}.cls-11,.cls-16,.cls-24,.cls-25,.cls-27,.cls-29,.cls-32{stroke-linejoin:bevel;}.cls-13,.cls-14,.cls-15,.cls-16,.cls-17{stroke:#fff;}.cls-13{fill:url(#Gradiente_sem_nome_5-10);}.cls-18{fill:#562210;}.cls-19{stroke-width:14px;}.cls-20{fill:#efc12e;}.cls-21,.cls-22{fill:#23113f;}.cls-21{opacity:0.7;mix-blend-mode:screen;}.cls-22{mix-blend-mode:overlay;}.cls-23,.cls-28{stroke-width:10px;}.cls-24,.cls-26,.cls-29,.cls-30,.cls-32{stroke-width:4px;}.cls-25{stroke-width:6px;}.cls-26,.cls-30,.cls-31{stroke-linejoin:round;}.cls-27,.cls-31{stroke-width:2px;}</style><linearGradient id="Gradiente_sem_nome_5" x1="147.64" y1="1229.98" x2="147.64" y2="971.03" gradientUnits="userSpaceOnUse"><stop offset="0" stop-color="#efc12e"/><stop offset="1" stop-color="#ff5240"/></linearGradient><linearGradient id="Gradiente_sem_nome_5-2" x1="274.83" y1="1207.66" x2="274.83" y2="971.03" xlink:href="#Gradiente_sem_nome_5"/><linearGradient id="Gradiente_sem_nome_5-3" x1="402.94" y1="1207.66" x2="402.94" y2="971.03" xlink:href="#Gradiente_sem_nome_5"/><linearGradient id="Gradiente_sem_nome_5-4" x1="530.1" y1="1229.98" x2="530.1" y2="971.03" xlink:href="#Gradiente_sem_nome_5"/><linearGradient id="Gradiente_sem_nome_5-9" x1="46.61" y1="483.07" x2="644.97" y2="483.07" xlink:href="#Gradiente_sem_nome_5"/><linearGradient id="Gradiente_sem_nome_5-10" x1="31.61" y1="483.07" x2="659.97" y2="483.07" xlink:href="#Gradiente_sem_nome_5"/></defs><title>vertical-logo_1-dusk</title><g class="cls-1"><g id="Camada_2" data-name="Camada 2"><g id="preview"><g id="laranja"><path class="cls-2" d="M166.81,971q17.28,9.42,34.56,18.44v1.84c0,.93,0,1.85,0,2.77l-.09,33.8c0,1.54,0,3.08,0,4.61l-.06,24q-.1,34.11-.19,68.22,0,12.15-.07,24.28c0,1.54,0,3.07,0,4.61l-.09,33.5c0,1,0,2,0,3.07,0,.51,0,1,0,1.54q-17.34,11.34-34.61,23.61l-.34.06q-17.25,2.88-34.42,6.34-8.41,1.71-16.81,3.54-10.38,2.26-20.72,4.75V971h72.9Zm-3.72,157.34q.09-34.93.17-69.86l.12-45.31c-3.88-2-7.76-4-11.63-6l-19.95.56L131.5,1185q9.93-1.71,19.86-3.25,5.8-4.07,11.62-8Q163,1151,163.09,1128.37Z"/><path class="cls-3" d="M328.83,1201q-19.11.2-38.2,1.07-15.9.72-31.79,1.94-19.06,1.47-38.08,3.62l.09-34.68.54-202h37.94l-.42,198.87q15.87-1,31.77-1.66L291,971H328.9l-.06,196.3Q328.84,1184.19,328.83,1201Z"/><path class="cls-4" d="M456.37,971q.06,17.34.1,34.67,0,19.62.1,39.24-19-.68-38-1.13l-.09-38.64q-15.81-.17-31.64-.28l.06,46.63c23.26,12.35,46.53,25.14,69.77,38.74,0,.4,0,.81,0,1.21v2.13l.09,31.33v3q.07,22.5.13,45l.09,34.68q-19-2.16-38.08-3.62-15.89-1.21-31.8-1.94-19.08-.88-38.19-1.07,0-16.85,0-33.7,0-28.23,0-56.46,19.05.11,38.1.64,0,28.37.08,56.73,15.89.63,31.77,1.66-.08-28.9-.13-57.8,5.85.27,11.68.58l-.66-.34q-5.52-3.15-11-6.23c-23.28-13.12-46.56-25.5-69.82-37.52v-3.25q0-15.22,0-30.45v-3q0-13.59,0-27.2,0-16.85,0-33.7h107.5Z"/><path class="cls-5" d="M583.85,1078.87q-9.09,4.26-18.2,8.42,9.11,6.15,18.2,12.55V1230q-18.71-4.49-37.53-8.29-.08-49.45-.16-98.91,5.79.71,11.59,1.45c-.23-.13-.45-.27-.67-.41q-5.46-3.78-10.93-7.48-15.75-10.69-31.56-20.7l.3,120.21q-18.9-3.21-37.89-5.73-.18-68.85-.38-137.68c0-1.12,0-2.25,0-3.38q0-15.82-.08-31.65c0-1,0-2.05,0-3.07L476.34,971h37.95l.21,85.28q15.81,9.59,31.58,19.75-.09-52.51-.17-105h37.94Z"/></g><g id="fundos_letra" data-name="fundos letra"><path class="cls-6" d="M62.23,939.34H171.06l83.42,0,3.35,1.83a16.41,16.41,0,0,1,8.95,16.48c-1.31,11-12.24,14.8-16.91,16.4-4.51,1.55-10.21,3.08-15.72,4.55l-1.07.29,0,15.31-.55,197.59,0,11c6.36,2.67,12.05,6.77,13.34,14.7.52,3.17.79,11.22-7.93,17.43l-2.93,2.08-59.8,9-3.95.68c-11.21,1.88-22.46,4-33.5,6.18-5.43,1.09-10.92,2.25-16.31,3.43-6.7,1.46-13.46,3-20.09,4.6l-39.08,9.39Z"/><path d="M77.23,954.34h93.83l79.6,0c10.87,5.92-53.77,14-41.55,20.38l9,4.69,0,14.76-.55,197.58v9l-7.54,4.93c-11.62,7.6,30.22,9.14,19.24,17l-56.41,8.48-4.11.71c-11.33,1.89-22.72,4-33.93,6.25-5.47,1.11-11,2.28-16.55,3.48-6.78,1.49-13.64,3.06-20.38,4.68l-20.58,4.94Z"/><path class="cls-6" d="M189.79,939.34H360.6l-.09,293.08-31.38.3c-12.28.12-24.74.47-37,1-10.23.47-20.61,1.11-30.84,1.89-12.25.94-24.68,2.12-36.93,3.5l-35.35,4Z"/><path d="M204.75,954.34H345.59l-.08,263.22-16.52.16c-12.48.12-25.13.47-37.59,1-10.39.48-20.92,1.12-31.29,1.91-12.45,1-25.05,2.15-37.47,3.56L204,1226.35Z"/><path class="cls-6" d="M488.79,1243.15l-35.35-4c-12.25-1.38-24.67-2.56-36.93-3.5-10.23-.78-20.61-1.42-30.83-1.89-12.31-.56-24.77-.91-37.05-1l-31.37-.3,0-138.34h12l-12-6.19,0-22.54,0-126,31.69,0H488l.33,124.58-1.65,7.15,1.72,1v19.45Zm-141.54-40.44h1.67c12.64.12,25.47.48,38.14,1.06,10.52.49,21.2,1.14,31.74,2,12.62,1,25.41,2.18,38,3.6l1.88.22-.32-120.26-.83-.49a9.23,9.23,0,0,0,.83.43V1086c-3.67,4.14-3.87,9.27-3.28,11.38-.13-.45-.46-1.29-.86-2.24a7.27,7.27,0,0,0,.22,1.24c-.08-.27-.37-1-.56-1.54-.28-.74-.62-1.65-.95-2.67l-.31-.7c-1.11-2.51-2.27-5.1-3.1-7.46-3.64-10.31,0-16.42,3.71-19.74a15.68,15.68,0,0,1,4.88-3l.17-.77-.24-91.2H347.18l0,100.28.91.47-.91,1.76v6.89h-3.57l-7.92,15.33h11.49Z"/><g id="fundos_letra-2" data-name="fundos letra"><path d="M77.23,954.34h93.83l79.6,0c10.87,5.92-53.77,14-41.55,20.38l9,4.69,0,14.76-.55,197.58v9l-7.54,4.93c-11.62,7.6,30.22,9.14,19.24,17l-56.41,8.48-4.11.71c-11.33,1.89-22.72,4-33.93,6.25-5.47,1.11-11,2.28-16.55,3.48-6.78,1.49-13.64,3.06-20.38,4.68l-20.58,4.94Z"/><path d="M204.75,954.34H345.59l-.08,263.22-16.52.16c-12.48.12-25.13.47-37.59,1-10.39.48-20.92,1.12-31.29,1.91-12.45,1-25.05,2.15-37.47,3.56L204,1226.35Z"/><path d="M341.23,1083.42l-9-4.66v-13.42l0-111H473l.29,107.89-4.92,21.3c-5.54-.19,4.64,12.23-.92,12.06,8.92,5-10.66-24.6-2.35-19.74l8.26,4.83v10.86l.36,134.81-18.62-2.11c-12.42-1.41-25-2.6-37.47-3.56-10.39-.79-20.91-1.43-31.29-1.91-12.47-.58-25.12-.93-37.59-1l-16.53-.16,0-123.48"/><path d="M600.54,1091.18v160L580,1246.21c-12.19-2.93-24.62-5.67-36.94-8.16l-13.37-2.69v-.07l-17.56-3c-12.34-2.1-24.89-4-37.28-5.64l-14.46-1.92-.74-270.4H600.54v135.15"/></g><path d="M341.23,1083.42l-9-4.66v-13.42l0-111H473l.29,107.89-4.92,21.3c-5.54-.19,4.64,12.23-.92,12.06,8.92,5-10.66-24.6-2.35-19.74l8.26,4.83v10.86l.36,134.81-18.62-2.11c-12.42-1.41-25-2.6-37.47-3.56-10.39-.79-20.91-1.43-31.29-1.91-12.47-.58-25.12-.93-37.59-1l-16.53-.16,0-123.48"/><path class="cls-6" d="M585.54,969.34H474.65l.67,242.26,1.46.19c12.57,1.67,25.3,3.6,37.82,5.73l30.06,5.11v.45l1.33.27c12.47,2.51,25.07,5.3,37.47,8.27l2.08.5"/><path class="cls-6" d="M615.54,1091.18v179l-39.09-9.39c-12-2.89-24.28-5.59-36.39-8l-15.15-3.06-15.34-2.61c-12.17-2.07-24.53-3.94-36.74-5.56l-27.44-3.64-.82-298.55h171v150.15"/><path d="M600.54,1091.18v160L580,1246.21c-12.19-2.93-24.62-5.67-36.94-8.16l-13.37-2.69v-.07l-17.56-3c-12.34-2.1-24.89-4-37.28-5.64l-14.46-1.92-.74-270.4H600.54v135.15"/></g><g id="fundos_letra-3" data-name="fundos letra"><path d="M77.23,954.34h93.83l79.6,0c10.87,5.92-53.77,14-41.55,20.38l9,4.69,0,14.76-.55,197.58v9l-7.54,4.93c-11.62,7.6,30.22,9.14,19.24,17l-56.41,8.48-4.11.71c-11.33,1.89-22.72,4-33.93,6.25-5.47,1.11-11,2.28-16.55,3.48-6.78,1.49-13.64,3.06-20.38,4.68l-20.58,4.94Z"/><path d="M204.75,954.34H345.59l-.08,263.22-16.52.16c-12.48.12-25.13.47-37.59,1-10.39.48-20.92,1.12-31.29,1.91-12.45,1-25.05,2.15-37.47,3.56L204,1226.35Z"/><path d="M341.23,1083.42l-9-4.66v-13.42l0-111H473l.29,107.89-4.92,21.3c-5.54-.19,4.64,12.23-.92,12.06,8.92,5-10.66-24.6-2.35-19.74l8.26,4.83v10.86l.36,134.81-18.62-2.11c-12.42-1.41-25-2.6-37.47-3.56-10.39-.79-20.91-1.43-31.29-1.91-12.47-.58-25.12-.93-37.59-1l-16.53-.16,0-123.48"/><path d="M600.54,1091.18v160L580,1246.21c-12.19-2.93-24.62-5.67-36.94-8.16l-13.37-2.69v-.07l-17.56-3c-12.34-2.1-24.89-4-37.28-5.64l-14.46-1.92-.74-270.4H600.54v135.15"/></g><path class="cls-2" d="M166.81,971q17.28,9.42,34.56,18.44v1.84c0,.93,0,1.85,0,2.77l-.09,33.8c0,1.54,0,3.08,0,4.61l-.06,24q-.1,34.11-.19,68.22,0,12.15-.07,24.28c0,1.54,0,3.07,0,4.61l-.09,33.5c0,1,0,2,0,3.07,0,.51,0,1,0,1.54q-17.34,11.34-34.61,23.61l-.34.06q-17.25,2.88-34.42,6.34-8.41,1.71-16.81,3.54-10.38,2.26-20.72,4.75V971h72.9Zm-3.72,157.34q.09-34.93.17-69.86l.12-45.31c-3.88-2-7.76-4-11.63-6l-19.95.56L131.5,1185q9.93-1.71,19.86-3.25,5.8-4.07,11.62-8Q163,1151,163.09,1128.37Z"/><path class="cls-3" d="M328.83,1201q-19.11.2-38.2,1.07-15.9.72-31.79,1.94-19.06,1.47-38.08,3.62l.09-34.68.54-202h37.94l-.42,198.87q15.87-1,31.77-1.66L291,971H328.9l-.06,196.3Q328.84,1184.19,328.83,1201Z"/><path class="cls-4" d="M456.37,971q.06,17.34.1,34.67,0,19.62.1,39.24-19-.68-38-1.13l-.09-38.64q-15.81-.17-31.64-.28l.06,46.63c23.26,12.35,46.53,25.14,69.77,38.74,0,.4,0,.81,0,1.21v2.13l.09,31.33v3q.07,22.5.13,45l.09,34.68q-19-2.16-38.08-3.62-15.89-1.21-31.8-1.94-19.08-.88-38.19-1.07,0-16.85,0-33.7,0-28.23,0-56.46,19.05.11,38.1.64,0,28.37.08,56.73,15.89.63,31.77,1.66-.08-28.9-.13-57.8,5.85.27,11.68.58l-.66-.34q-5.52-3.15-11-6.23c-23.28-13.12-46.56-25.5-69.82-37.52v-3.25q0-15.22,0-30.45v-3q0-13.59,0-27.2,0-16.85,0-33.7h107.5Z"/><path class="cls-5" d="M583.85,1078.87q-9.09,4.26-18.2,8.42,9.11,6.15,18.2,12.55V1230q-18.71-4.49-37.53-8.29-.08-49.45-.16-98.91,5.79.71,11.59,1.45c-.23-.13-.45-.27-.67-.41q-5.46-3.78-10.93-7.48-15.75-10.69-31.56-20.7l.3,120.21q-18.9-3.21-37.89-5.73-.18-68.85-.38-137.68c0-1.12,0-2.25,0-3.38q0-15.82-.08-31.65c0-1,0-2.05,0-3.07L476.34,971h37.95l.21,85.28q15.81,9.59,31.58,19.75-.09-52.51-.17-105h37.94Z"/><g id="amarelo"><circle class="cls-7" cx="345.79" cy="483.07" r="299.18"/><g id="direita"><path class="cls-7" d="M461.15,747.84c-5-21.54-18.45-81.77-20.07-115.76,20-22,27.93-43.89,27.93-43.89s36.95,2,82.14-37.27h0c17.81-15.5,36.91-37.44,55.53-68.46-47.89-20-79.81-16-79.81-16s69.84-19.94,47.89-73.81c-27.94-53.88-35.91-69.84-35.91-69.84s-16-37.91,43.89-75.81c61.85-31.92,75.81-33.92,77.81-55.86s-37.91-35.93-37.91-35.93-29.93-12-18-53.87l2-8s-45.89,43.89-29.93,83.79l4,10S504.93,217.09,487,261s-20,77.81-8,121.71l4,10s-11,1.27-27.46,7.12c-29.59,10.48-76.89,35.68-110.21,94.63"/><path class="cls-7" d="M437,576.49A50.22,50.22,0,0,0,417.7,575a52.57,52.57,0,0,0-18.22,5.58,34.64,34.64,0,0,0-4,2.45l-2,1.45c-.7.54-1.43,1-2.15,1.47-2.89,1.84-5.86,3.39-8.83,4.94s-6,3-9,4.36-6.13,2.53-9.32,3.58L355,602l6.07-7.58c.23-.28.59-.74.88-1.15s.6-.87.9-1.31c.57-.9,1.14-1.81,1.66-2.77a50.17,50.17,0,0,0,2.83-5.91c.42-1,.79-2.06,1.15-3.12s.71-2.11,1-3.2c.65-2.17,1.05-4.4,1.54-6.68h.57a35.34,35.34,0,0,1,.51,7.06,38.24,38.24,0,0,1-.85,7.12,39.83,39.83,0,0,1-2.12,6.93c-.46,1.13-1,2.24-1.54,3.33-.3.55-.59,1.09-.92,1.63a18.24,18.24,0,0,1-1.1,1.67l-3.22-4.5c3-1.22,6-2.43,9.06-3.59s6.11-2.26,9.11-3.51a80.58,80.58,0,0,0,8.69-4.12c.69-.38,1.37-.77,2-1.19l1-.64c.37-.25.73-.51,1.11-.74a38.85,38.85,0,0,1,4.58-2.45,53.4,53.4,0,0,1,19.71-4.49A49.4,49.4,0,0,1,437.18,576Z"/><path class="cls-7" d="M378.19,590.9s43.91,11.71,37.17-15.25"/><path class="cls-7" d="M344.31,669s23.95-12,29.93,2-12,22-12,22-6,15.39-17,18.66C344.31,681,344.31,669,344.31,669Z"/><polygon class="cls-7" points="370.99 593.92 376.24 653.03 365.32 594.7 370.99 593.92"/><path class="cls-7" d="M345.1,716.24a62.65,62.65,0,0,1,7,.11,67.6,67.6,0,0,1,6.92.81,51.73,51.73,0,0,1,6.84,1.69,34.41,34.41,0,0,1,6.57,3l-2.48.06c4.12-2.63,8.41-4.92,12.49-7.27s7.84-5,10.69-8.44a32.74,32.74,0,0,0,6-12.18l.49-1.68.37-1.72c.23-1.15.52-2.29.71-3.45.32-2.34.78-4.66.95-7,.52-4.7.8-9.51,1.17-14.27s.72-9.55,1.14-14.32.88-9.55,1.73-14.28a40.59,40.59,0,0,1,1.86-7,23.78,23.78,0,0,1,3.57-6.23,23.56,23.56,0,0,0-3.29,6.33,39.28,39.28,0,0,0-1.57,7c-.65,4.72-.91,9.5-1.14,14.27s-.39,9.55-.56,14.34-.27,9.54-.6,14.37c-.08,2.42-.44,4.82-.68,7.23-.15,1.21-.4,2.4-.59,3.61l-.31,1.8-.45,1.79a35.93,35.93,0,0,1-6.09,13.59c-3.08,4.09-7.22,7.15-11.31,9.75s-8.18,5-12,7.66l-1.14.79-1.34-.73a29.25,29.25,0,0,0-5.65-2.31,47,47,0,0,0-6.18-1.26c-2.1-.27-4.23-.43-6.37-.49a60.08,60.08,0,0,0-6.33.15Z"/></g><g id="esquerda"><path class="cls-7" d="M345.31,494.42C311.76,435.06,264,409.93,234.5,399.57c-16.15-5.66-26.85-6.9-26.85-6.9l4-10c12-43.9,10-77.81-8-121.71s-93.77-73.82-93.77-73.82l4-10C129.84,137.28,84,93.39,84,93.39l2,8c12,41.9-18,53.87-18,53.87s-39.9,14-37.9,35.93S46,215.1,107.89,247c59.85,37.9,43.89,75.81,43.89,75.81s-8,16-35.91,69.84c-22,53.87,47.88,73.81,47.88,73.81s-31.92-4-79.8,16c18.31,30.52,37.1,52.26,54.67,67.71,45.57,40.11,83,38,83,38s8,21.94,27.94,43.89c-1.64,34.28-15.29,95.26-20.2,116.32"/><path class="cls-7" d="M253.44,576a49.4,49.4,0,0,1,19.65-3.21,53.31,53.31,0,0,1,19.71,4.49,39,39,0,0,1,4.59,2.45c.37.23.73.49,1.1.74l1,.64c.62.42,1.31.81,2,1.19a80.74,80.74,0,0,0,8.7,4.12c3,1.25,6.05,2.36,9.1,3.51s6.08,2.37,9.07,3.59l-3.23,4.5a18.24,18.24,0,0,1-1.1-1.67c-.33-.54-.61-1.08-.91-1.63-.57-1.09-1.09-2.2-1.55-3.33a41.63,41.63,0,0,1-2.12-6.93,39.1,39.1,0,0,1-.85-7.12,35.34,35.34,0,0,1,.51-7.06h.57c.49,2.28.89,4.51,1.55,6.68.27,1.09.62,2.15,1,3.2s.73,2.1,1.15,3.12a48.64,48.64,0,0,0,2.83,5.91c.51,1,1.08,1.87,1.66,2.77.29.44.58.89.89,1.31s.65.87.88,1.15l6.08,7.58-9.31-3.08c-3.19-1-6.26-2.25-9.32-3.58s-6-2.83-9-4.36-5.93-3.1-8.83-4.94c-.72-.47-1.44-.93-2.15-1.47l-1.95-1.45a34.77,34.77,0,0,0-4-2.45A52.57,52.57,0,0,0,272.92,575a50.24,50.24,0,0,0-19.3,1.45Z"/><path class="cls-7" d="M346.31,669s-23.94-12-29.93,2,12,22,12,22,6,15.39,17,18.66C346.31,681,346.31,669,346.31,669Z"/><polygon class="cls-7" points="325.3 594.7 314.39 653.03 319.64 593.92 325.3 594.7"/><path class="cls-7" d="M345.1,721.94a60.21,60.21,0,0,0-6.34-.15c-2.13.06-4.27.22-6.37.49a46.51,46.51,0,0,0-6.17,1.26,28.74,28.74,0,0,0-5.65,2.31l-1.35.73-1.13-.79c-3.84-2.68-7.92-5.07-12-7.66s-8.23-5.66-11.31-9.75a35.75,35.75,0,0,1-6.08-13.59l-.45-1.79-.32-1.8c-.19-1.21-.44-2.4-.59-3.61-.23-2.41-.6-4.81-.68-7.23-.33-4.83-.41-9.59-.6-14.37s-.33-9.57-.55-14.34-.5-9.55-1.15-14.27a40.16,40.16,0,0,0-1.56-7,23.88,23.88,0,0,0-3.3-6.33,23.78,23.78,0,0,1,3.57,6.23,40.62,40.62,0,0,1,1.87,7c.84,4.73,1.29,9.51,1.72,14.28s.78,9.55,1.14,14.32.66,9.57,1.17,14.27c.17,2.37.63,4.69.95,7,.19,1.16.48,2.3.71,3.45l.37,1.72.5,1.68a32.59,32.59,0,0,0,6,12.18,38.22,38.22,0,0,0,10.68,8.44c4.08,2.35,8.37,4.64,12.49,7.27l-2.48-.06a34.41,34.41,0,0,1,6.57-3,52.12,52.12,0,0,1,6.84-1.69,67.6,67.6,0,0,1,6.92-.81,62.79,62.79,0,0,1,7-.11Z"/></g><path class="cls-7" d="M135.35,270.4A298.25,298.25,0,0,0,46.61,483.07c0,139.78,95.88,257.18,225.46,290h0a301,301,0,0,0,160.86-3.74h0c2.72-.82,5.43-1.7,8.12-2.6h0c1.77-.6,3.51-1.19,5.25-1.82l.24-.08h0q7.81-2.8,15.42-6C569.53,713.46,645,607.07,645,483.07a298.34,298.34,0,0,0-91.64-215.5"/><path class="cls-7" d="M345.79,797.25a314.18,314.18,0,1,1,222.16-92A312.13,312.13,0,0,1,345.79,797.25Z"/><path class="cls-7" d="M446.54,751.25c-5.59-24-18.78-83.57-20.45-118.45l-.29-6.21L430,622a135.2,135.2,0,0,0,24.95-39l3.94-10.62,10.9.81c2.24.06,32.25,0,70.38-32.61l1.16-1c15.11-13.15,29.45-29.77,42.77-49.54-33.55-10.92-55.1-8.71-55.34-8.68l-6-29.31c8.14-2.38,31-12,38.65-27.81,3.59-7.43,3.49-15.72-.29-25.32-27.4-52.85-35.35-68.74-35.68-69.39l-.41-.89c-.85-2-20.09-50.12,49.69-94.31l.56-.35.59-.3c11.9-6.15,21.85-11.09,30.62-15.46,36.86-18.32,38.37-20.09,39.13-28.43.46-5-13.65-15.35-28-20.42l-.59-.22c-8.18-3.27-19.39-11.72-25.6-26-3.33,9.55-4.39,19.51-.79,28.5l9.59,24-14,5.53c-19.44,7.71-72.7,34.51-85.4,65.55-16.49,40.31-18.57,70.56-7.61,111.27l10.93,27.37-19.46,2.27s-9.76,1.24-24.18,6.35c-29.94,10.62-72,34.47-102.16,87.88L332.25,487C367,425.56,415.74,398,450.51,385.65c4.66-1.66,8.92-3,12.69-4-11.49-45.26-8.6-81.13,9.89-126.32,15.28-37.37,64.26-64.53,88.45-76-15.82-47.59,32.65-94.68,34.77-96.71L633.79,46.7l-14.68,58.79c-7.43,26,5.75,34.19,9.13,35.82,7.52,2.72,50.12,19.62,47.24,51.21-2.37,26.09-18,33.84-55.64,52.58-8.53,4.24-18.19,9-29.63,14.94-44.07,28.14-38.6,53.3-37.53,56.91,2,3.91,11.25,22.25,35.39,68.81l.32.61.26.64c7.22,17.73,7.12,35.17-.31,50.44a67.16,67.16,0,0,1-13.86,18.78,241.57,241.57,0,0,1,38,12.37l16,6.68-8.93,14.89c-16.17,26.94-34.1,49.59-53.39,67.43v.14L561,562.23c-34.91,30.38-66.12,38.31-81.93,40.32a172.36,172.36,0,0,1-22.62,34.74c2.74,34.25,15.33,90.07,19.31,107.15Z"/><path class="cls-7" d="M349.32,585l.33-.42.22-.3.36-.56c.36-.55.74-1.17,1-1.69l.18-.34a33.42,33.42,0,0,0,2-4.11c.26-.64.52-1.34.83-2.26.24-.71.49-1.46.63-2l.09-.37.12-.37c.3-1,.57-2.29.87-3.78l.36-1.69,2.54-11.85h25.35l1.92,11.23a56,56,0,0,1,5.5-2.89l.14-.06A68.19,68.19,0,0,1,417,557.75c.8,0,1.59,0,2.38,0A63.82,63.82,0,0,1,442.64,562l13.27,5.19-9.18,27.59L433,591a35,35,0,0,0-9.35-1.26,36.48,36.48,0,0,0-4.18.24,37.64,37.64,0,0,0-12.94,3.94,21.39,21.39,0,0,0-2.19,1.32l-1.76,1.31c-1.11.85-2.12,1.49-2.93,2l-.12.08c-3.39,2.16-6.59,3.83-9.68,5.46l-.43.22c-2.84,1.46-6.22,3.16-9.79,4.73s-7.14,2.94-10.67,4.1l-57.42,19Z"/><path class="cls-7" d="M396.68,608.46a90.78,90.78,0,0,1-22.35-3.07l7.73-29-3.87,14.49L382,576.4c7.85,2.06,18.29,2.69,21.08,1.27a4.07,4.07,0,0,0-1.36,1.38l28.16-7c3.71,14.83-2.42,23.63-6.41,27.55C416.49,606.47,406.21,608.46,396.68,608.46Z"/><path class="cls-7" d="M330.32,712.09c-1-30.53-1-42.6-1-43.1v-9.27l8.3-4.14c2.12-1.06,13.3-6.36,24.8-6.36,12,0,21.3,5.78,25.62,15.86,6.83,15.94-1.49,30.65-14.26,38.68-3.73,7.1-11.45,18.42-24.17,22.22L331,731.55Z"/><polygon class="cls-7" points="347.68 581.99 384.53 576.91 391.18 651.71 361.49 655.79 347.68 581.99"/><path class="cls-7" d="M362.87,739a14.45,14.45,0,0,0-2.63-1.07,32.7,32.7,0,0,0-4-.81c-1.56-.19-3.17-.31-4.79-.36h-1.4c-1.21,0-2.34,0-3.28.12l-15.07,1.25L329,701.9l15.5-.65c1,0,2-.06,3-.06,1.74,0,3.51.06,5.56.18a84.27,84.27,0,0,1,8.49,1l.16,0a69.45,69.45,0,0,1,8.36,2l1.38-.77c1.18-.67,2.36-1.33,3.52-2,3.31-1.92,5.35-3.46,6.57-4.95l.1-.11a18.29,18.29,0,0,0,3.09-6.64l.39-1.31.23-1.1c.09-.46.2-.92.3-1.38s.19-.85.27-1.28c.11-.76.22-1.52.34-2.29.21-1.31.4-2.55.47-3.54l0-.27,0-.26c.33-3,.56-6.15.8-9.45l.33-4.39.09-1.13c.32-4.35.66-8.85,1.06-13.32.49-5.49,1-10.43,1.9-15.6l0-.2a54.81,54.81,0,0,1,2.6-9.52,38.58,38.58,0,0,1,5.78-10.11l23.93,18.07a8.88,8.88,0,0,0-1.22,2.3,27.1,27.1,0,0,0-.95,4.33c-.53,4-.76,8-1,12.87-.21,4.32-.36,8.79-.51,13.12l0,1c-.05,1.47-.1,2.88-.15,4.28-.11,3.34-.22,6.79-.45,10.35-.09,2.15-.31,4.12-.52,5.87-.07.67-.15,1.35-.22,2l0,.39c-.15,1.18-.33,2.22-.5,3.14l-.18,1-.43,2.51-.56,2.25a50.7,50.7,0,0,1-8.72,19.09c-4.73,6.27-10.61,10.42-15.21,13.34-1.29.82-2.55,1.59-3.8,2.37-2.74,1.69-5.32,3.29-7.68,4.93l-8.75,6.11Z"/><path class="cls-7" d="M244,751.8,214.74,745c4-17.18,16.68-73.36,19.44-107.7a171.91,171.91,0,0,1-22.62-34.74c-16-2-47.57-10.07-82.85-41.12-20.9-18.4-40.29-42.37-57.63-71.26l-8.93-14.89,16-6.68a242,242,0,0,1,38-12.37,67.38,67.38,0,0,1-13.87-18.78c-7.42-15.27-7.53-32.71-.31-50.44l.26-.64.32-.61C126.69,339.2,136,320.86,137.94,317c1.07-3.61,6.55-28.77-37.53-56.91-11.44-5.9-21.09-10.7-29.63-14.94-37.67-18.74-53.27-26.49-55.64-52.59-2.88-31.58,39.72-48.48,47.24-51.2,3.39-1.63,16.57-9.82,9.14-35.82l-.13-.49L56.82,46.69,94.31,82.55c2.12,2,50.6,49.12,34.77,96.71,24.2,11.51,73.17,38.67,88.46,76,18.48,45.19,21.37,81.05,9.88,126.32,3.59,1,7.63,2.25,12,3.79a212.74,212.74,0,0,1,58,31.25c24.51,18.55,45,42.23,60.92,70.38L332.25,501.8c-30.32-53.65-72.6-77.51-102.72-88.08-14.1-4.94-23.57-6.15-23.66-6.16l-19.48-2.25,11-27.38c11-40.71,8.88-71-7.61-111.27-12.7-31-66-57.84-85.41-65.55l-14-5.55L100,171.61c3.69-9.24,2.57-19.22-.75-28.6C93,157.4,81.75,165.88,73.55,169.16l-.61.23c-14.28,5.06-28.38,15.36-27.92,20.4.75,8.35,2.27,10.12,39.12,28.44,8.78,4.37,18.72,9.31,30.63,15.46l.58.3.56.35c69.78,44.19,50.54,92.29,49.69,94.31l-.41.89c-.32.65-8.27,16.54-35.67,69.39-3.79,9.6-3.88,17.89-.3,25.32,7.63,15.78,30.51,25.43,38.69,27.82l-6,29.3c-.17,0-21.77-2.25-55.35,8.68,13.09,19.42,27.16,35.81,42,48.85,39.85,35.08,71.92,34.31,72.25,34.32l11.12-.62,3.81,10.47A135.45,135.45,0,0,0,260.64,622l4.19,4.6-.3,6.21C262.86,667.74,249.59,727.66,244,751.8Z"/><path class="cls-7" d="M321.66,613.11c-3.53-1.16-7-2.5-10.61-4.07s-7-3.31-9.85-4.76l-.4-.21c-3.1-1.63-6.3-3.3-9.64-5.43l-.19-.12c-.81-.53-1.81-1.17-2.93-2l-1.76-1.31a20.3,20.3,0,0,0-2.19-1.33,37.73,37.73,0,0,0-13-3.93,35.42,35.42,0,0,0-13.48,1l-13.73,3.8-9.18-27.59L248,562a63.76,63.76,0,0,1,23.24-4.26c.79,0,1.59,0,2.38,0a68.15,68.15,0,0,1,25.26,5.76l.14.06a57.31,57.31,0,0,1,5.51,2.89l1.92-11.23h25.33l2.55,11.84q.19.87.36,1.71c.31,1.48.57,2.76.88,3.77l.11.37.1.38c.13.54.38,1.28.62,2,.32,1,.58,1.66.82,2.25a35.23,35.23,0,0,0,2,4.16l.19.33c.28.53.67,1.14,1,1.69l.15.24.25.36.13.18.09.13.29.37,37.78,47.12Z"/><path class="cls-7" d="M341,726c-12.71-3.8-20.44-15.12-24.16-22.22-12.78-8-21.1-22.74-14.27-38.68,4.32-10.08,13.66-15.86,25.62-15.86,11.51,0,22.68,5.3,24.81,6.36l8.29,4.14V669c0,.5,0,12.57-1,43.1l-.63,19.46Z"/><polygon class="cls-7" points="299.44 651.71 306.09 576.91 342.94 581.99 329.13 655.79 299.44 651.71"/><path class="cls-7" d="M309.5,738.09c-2.35-1.64-4.94-3.24-7.68-4.93l-3.77-2.35c-4.62-2.94-10.5-7.09-15.24-13.36a50.61,50.61,0,0,1-8.71-19.09l-.57-2.24-.43-2.52-.18-1c-.17-.92-.35-2-.5-3.14l0-.39c-.06-.68-.14-1.35-.22-2-.2-1.75-.43-3.72-.51-5.87-.24-3.57-.35-7-.46-10.39-.05-1.39-.09-2.79-.15-4.18l0-1.07c-.15-4.32-.31-8.8-.52-13.14-.23-4.67-.46-8.89-1-12.84a26.24,26.24,0,0,0-.93-4.27,9,9,0,0,0-1.24-2.36l23.93-18.07A38.62,38.62,0,0,1,297.06,625a55.68,55.68,0,0,1,2.58,9.47l0,.19c.93,5.16,1.41,10.11,1.9,15.57.4,4.55.75,9.1,1.08,13.5l.08,1c.11,1.39.21,2.84.32,4.29.24,3.31.47,6.45.8,9.49l0,.26,0,.27c.07,1,.27,2.23.47,3.54.12.77.24,1.53.35,2.3.07.42.17.84.26,1.26s.21.93.3,1.4l.24,1.08.39,1.32a18,18,0,0,0,3.09,6.64l.09.11c1.23,1.49,3.26,3,6.61,5,1.12.65,2.3,1.32,3.48,2l1.39.78a68.54,68.54,0,0,1,8.36-2l.16,0a81.88,81.88,0,0,1,8.41-1c2.12-.13,3.89-.19,5.63-.19q1.49,0,3,.06l15.5.65-2.75,36.24-15.06-1.25c-.94-.08-2.08-.12-3.29-.12h-1.42c-1.59.05-3.2.17-4.76.36a32.49,32.49,0,0,0-4,.81,14.76,14.76,0,0,0-2.63,1.07l-9.5,5.18Z"/><path class="cls-7" d="M345.79,797.25a314.9,314.9,0,0,1-75.56-9.16h0l-1.83-.46A313.89,313.89,0,0,1,31.61,483.07,313.26,313.26,0,0,1,124.8,259.74l21.1,21.32A284.25,284.25,0,0,0,274.82,758.31l.95.24A286,286,0,0,0,428.57,755l2.14-.65c1.44-.45,2.92-.93,4.49-1.45l2.21-1.15h1.2l2.56-.9,2.37-1H444c4.11-1.52,8.22-3.14,12.24-4.83a284.26,284.26,0,0,0,86.71-466.63l20.82-21.61a314.27,314.27,0,0,1-95.87,515.88c-5.33,2.24-10.78,4.36-16.21,6.31l-.11,0h0l-2.37.84-2.15.73-2.23,1.18h-1.28c-2.17.71-4.23,1.36-6.23,2l-2.14.64A314.32,314.32,0,0,1,345.79,797.25Z"/><circle class="cls-7" cx="345.79" cy="483.07" r="299.18"/><g id="direita-2" data-name="direita"><path class="cls-7" d="M461.15,747.84c-5-21.54-18.45-81.77-20.07-115.76,20-22,27.93-43.89,27.93-43.89s36.95,2,82.14-37.27h0c17.81-15.5,36.91-37.44,55.53-68.46-47.89-20-79.81-16-79.81-16s69.84-19.94,47.89-73.81c-27.94-53.88-35.91-69.84-35.91-69.84s-16-37.91,43.89-75.81c61.85-31.92,75.81-33.92,77.81-55.86s-37.91-35.93-37.91-35.93-29.93-12-18-53.87l2-8s-45.89,43.89-29.93,83.79l4,10S504.93,217.09,487,261s-20,77.81-8,121.71l4,10s-11,1.27-27.46,7.12c-29.59,10.48-76.89,35.68-110.21,94.63"/><path class="cls-7" d="M437,576.49A50.22,50.22,0,0,0,417.7,575a52.57,52.57,0,0,0-18.22,5.58,34.64,34.64,0,0,0-4,2.45l-2,1.45c-.7.54-1.43,1-2.15,1.47-2.89,1.84-5.86,3.39-8.83,4.94s-6,3-9,4.36-6.13,2.53-9.32,3.58L355,602l6.07-7.58c.23-.28.59-.74.88-1.15s.6-.87.9-1.31c.57-.9,1.14-1.81,1.66-2.77a50.17,50.17,0,0,0,2.83-5.91c.42-1,.79-2.06,1.15-3.12s.71-2.11,1-3.2c.65-2.17,1.05-4.4,1.54-6.68h.57a35.34,35.34,0,0,1,.51,7.06,38.24,38.24,0,0,1-.85,7.12,39.83,39.83,0,0,1-2.12,6.93c-.46,1.13-1,2.24-1.54,3.33-.3.55-.59,1.09-.92,1.63a18.24,18.24,0,0,1-1.1,1.67l-3.22-4.5c3-1.22,6-2.43,9.06-3.59s6.11-2.26,9.11-3.51a80.58,80.58,0,0,0,8.69-4.12c.69-.38,1.37-.77,2-1.19l1-.64c.37-.25.73-.51,1.11-.74a38.85,38.85,0,0,1,4.58-2.45,53.4,53.4,0,0,1,19.71-4.49A49.4,49.4,0,0,1,437.18,576Z"/><path class="cls-7" d="M378.19,590.9s43.91,11.71,37.17-15.25"/><path class="cls-7" d="M344.31,669s23.95-12,29.93,2-12,22-12,22-6,15.39-17,18.66C344.31,681,344.31,669,344.31,669Z"/><polygon class="cls-7" points="370.99 593.92 376.24 653.03 365.32 594.7 370.99 593.92"/><path class="cls-7" d="M345.1,716.24a62.65,62.65,0,0,1,7,.11,67.6,67.6,0,0,1,6.92.81,51.73,51.73,0,0,1,6.84,1.69,34.41,34.41,0,0,1,6.57,3l-2.48.06c4.12-2.63,8.41-4.92,12.49-7.27s7.84-5,10.69-8.44a32.74,32.74,0,0,0,6-12.18l.49-1.68.37-1.72c.23-1.15.52-2.29.71-3.45.32-2.34.78-4.66.95-7,.52-4.7.8-9.51,1.17-14.27s.72-9.55,1.14-14.32.88-9.55,1.73-14.28a40.59,40.59,0,0,1,1.86-7,23.78,23.78,0,0,1,3.57-6.23,23.56,23.56,0,0,0-3.29,6.33,39.28,39.28,0,0,0-1.57,7c-.65,4.72-.91,9.5-1.14,14.27s-.39,9.55-.56,14.34-.27,9.54-.6,14.37c-.08,2.42-.44,4.82-.68,7.23-.15,1.21-.4,2.4-.59,3.61l-.31,1.8-.45,1.79a35.93,35.93,0,0,1-6.09,13.59c-3.08,4.09-7.22,7.15-11.31,9.75s-8.18,5-12,7.66l-1.14.79-1.34-.73a29.25,29.25,0,0,0-5.65-2.31,47,47,0,0,0-6.18-1.26c-2.1-.27-4.23-.43-6.37-.49a60.08,60.08,0,0,0-6.33.15Z"/></g><g id="esquerda-2" data-name="esquerda"><path class="cls-7" d="M345.31,494.42C311.76,435.06,264,409.93,234.5,399.57c-16.15-5.66-26.85-6.9-26.85-6.9l4-10c12-43.9,10-77.81-8-121.71s-93.77-73.82-93.77-73.82l4-10C129.84,137.28,84,93.39,84,93.39l2,8c12,41.9-18,53.87-18,53.87s-39.9,14-37.9,35.93S46,215.1,107.89,247c59.85,37.9,43.89,75.81,43.89,75.81s-8,16-35.91,69.84c-22,53.87,47.88,73.81,47.88,73.81s-31.92-4-79.8,16c18.31,30.52,37.1,52.26,54.67,67.71,45.57,40.11,83,38,83,38s8,21.94,27.94,43.89c-1.64,34.28-15.29,95.26-20.2,116.32"/><path class="cls-7" d="M253.44,576a49.4,49.4,0,0,1,19.65-3.21,53.31,53.31,0,0,1,19.71,4.49,39,39,0,0,1,4.59,2.45c.37.23.73.49,1.1.74l1,.64c.62.42,1.31.81,2,1.19a80.74,80.74,0,0,0,8.7,4.12c3,1.25,6.05,2.36,9.1,3.51s6.08,2.37,9.07,3.59l-3.23,4.5a18.24,18.24,0,0,1-1.1-1.67c-.33-.54-.61-1.08-.91-1.63-.57-1.09-1.09-2.2-1.55-3.33a41.63,41.63,0,0,1-2.12-6.93,39.1,39.1,0,0,1-.85-7.12,35.34,35.34,0,0,1,.51-7.06h.57c.49,2.28.89,4.51,1.55,6.68.27,1.09.62,2.15,1,3.2s.73,2.1,1.15,3.12a48.64,48.64,0,0,0,2.83,5.91c.51,1,1.08,1.87,1.66,2.77.29.44.58.89.89,1.31s.65.87.88,1.15l6.08,7.58-9.31-3.08c-3.19-1-6.26-2.25-9.32-3.58s-6-2.83-9-4.36-5.93-3.1-8.83-4.94c-.72-.47-1.44-.93-2.15-1.47l-1.95-1.45a34.77,34.77,0,0,0-4-2.45A52.57,52.57,0,0,0,272.92,575a50.24,50.24,0,0,0-19.3,1.45Z"/><path class="cls-7" d="M346.31,669s-23.94-12-29.93,2,12,22,12,22,6,15.39,17,18.66C346.31,681,346.31,669,346.31,669Z"/><polygon class="cls-7" points="325.3 594.7 314.39 653.03 319.64 593.92 325.3 594.7"/><path class="cls-7" d="M345.1,721.94a60.21,60.21,0,0,0-6.34-.15c-2.13.06-4.27.22-6.37.49a46.51,46.51,0,0,0-6.17,1.26,28.74,28.74,0,0,0-5.65,2.31l-1.35.73-1.13-.79c-3.84-2.68-7.92-5.07-12-7.66s-8.23-5.66-11.31-9.75a35.75,35.75,0,0,1-6.08-13.59l-.45-1.79-.32-1.8c-.19-1.21-.44-2.4-.59-3.61-.23-2.41-.6-4.81-.68-7.23-.33-4.83-.41-9.59-.6-14.37s-.33-9.57-.55-14.34-.5-9.55-1.15-14.27a40.16,40.16,0,0,0-1.56-7,23.88,23.88,0,0,0-3.3-6.33,23.78,23.78,0,0,1,3.57,6.23,40.62,40.62,0,0,1,1.87,7c.84,4.73,1.29,9.51,1.72,14.28s.78,9.55,1.14,14.32.66,9.57,1.17,14.27c.17,2.37.63,4.69.95,7,.19,1.16.48,2.3.71,3.45l.37,1.72.5,1.68a32.59,32.59,0,0,0,6,12.18,38.22,38.22,0,0,0,10.68,8.44c4.08,2.35,8.37,4.64,12.49,7.27l-2.48-.06a34.41,34.41,0,0,1,6.57-3,52.12,52.12,0,0,1,6.84-1.69,67.6,67.6,0,0,1,6.92-.81,62.79,62.79,0,0,1,7-.11Z"/></g><path class="cls-7" d="M658.54,192.81a38.77,38.77,0,0,0-2-9.27,17.68,17.68,0,0,0-2.12-8.89,19.29,19.29,0,0,0-16.27-10.09l-1.4-1c-3.76-2.5-8-4-11.91-6.08-.83-.44-1.64-.92-2.42-1.42-.26-.18-.84-.58-1-.75-1.92-1.67-3.7-3.49-5.48-5.31a13.5,13.5,0,0,0-7.25-3.83c-.6-2.54-1.09-5.14-1.47-7.82-.48-3.38-3-6.24-6.07-8.09a40.83,40.83,0,0,0,.48-4.9c0-.84,1-2.49-.18-1,3.2-4,3.93-9.55,0-13.48-3.33-3.32-10.26-4.05-13.48,0-5.22,6.56-2.61,33.18-3.15,41.49-.15.21-6.73,10.06-6.86,10.28-6.45,10.71-7.29-2.62-2.43,9a20.16,20.16,0,0,0-.85,4,34.14,34.14,0,0,0,1.81,14.22,13.55,13.55,0,0,0-3.5,1.46c-11.4,6.75-22.63,13.2-33.09,21a81,81,0,0,0-22,9.73,15,15,0,0,0-7,11.84c-7.4,5.19-16.43,13.09-20.21,22.12a14.23,14.23,0,0,0-4,4.38,42.91,42.91,0,0,0-5.43,17.21c-1.42,4.6-3,9.13-4.74,13.42s-4.27,9.08-5.1,14c-.91,5.37-.36,10-1.71,13.86-1.67,4.79.22,10.4,3.83,14-.28,1.84-.52,3.68-.7,5.54a50.53,50.53,0,0,0,.28,12.66,11.28,11.28,0,0,0-.36,3.83c1.09,13.75,4.42,27.32,8.15,40.76A18.13,18.13,0,0,0,475,397c-9.24,3.58-18.8,7-28.31,10.58q-1.85.35-3.66.84a81.8,81.8,0,0,0-21.82,9.85c-14.77,7.05-28.59,15.66-39.95,27.59s-20.07,25.72-27.67,40.2q-4.47,3.85-8.72,7.92c-7.64-7.61-14.47-16-21.3-24.35-.18-.22-.35-.44-.53-.65a23.48,23.48,0,0,0-6.91-18,196.48,196.48,0,0,0-77.66-47.25,173.26,173.26,0,0,0-18.93-5l-11.94-5.27c.31-1.58.53-3.18.69-4.79,6.13-8.46,7.41-18.59,5.53-28.6a82.85,82.85,0,0,0,2.1-15.48,19,19,0,0,0-1.31-7.71l.21-2c1.25-12.85.74-25.8.22-38.67a24.16,24.16,0,0,0-8.25-17.06,23.43,23.43,0,0,0-2.6-7.75c-1.14-2.07-2.3-4.14-3.46-6.21-.2-1.74-.42-3.48-.67-5.24-.83-5.63-5.45-10.64-10.93-13.53-9.39-13.62-20.52-25.77-35.33-34.32-11.61-6.7-23.88-12.4-35.81-18.5-4.14-2.12-8.26-4.24-12.44-6.22a18.22,18.22,0,0,0,4.81-5.87c5-10.06,4.46-23.54,2-34.2-2.7-11.73-11.13-22-12-34.13-.51-7.3-12-7.36-11.44,0a42.83,42.83,0,0,0,1.21,7.43,4.32,4.32,0,0,0-3.27,3.9c-.91,6.34-1.7,12.72-2.62,19.07a5.46,5.46,0,0,0-4.8,1.59L69.34,155.72l-8.43,5-.22.15a22.66,22.66,0,0,0-4.53.67c-2.19.56-4.48,3.09-4.2,5.52a.13.13,0,0,1,0,.06,20.65,20.65,0,0,0-3.12.6c-14.75,4.06-21.78,21.81-14,34.94a37.08,37.08,0,0,0,17.55,15.07c3,1.25,35.87,6.16,39,6.48,4,4.3,17.37,12.58,22.07,16.07,5,3.72-10.74,4.24-5.57,7.72s-7.17.63-1.6,3.52c2.68,1.39,5.38,2.76,8,4.29,2,1.16,4.2,3.31,6.35,4.35-1.43-.75-1.89-1.75.32.14h0c.11.05.23.12.34.16l-.32-.13c.94.8,1.86,1.61,2.76,2.45,1.82,1.7,3.58,3.47,5.26,5.31s3.38,3.88,5,5.87l.14.2c.73,1,1.48,2.05,2.21,3.09a318.93,318.93,0,0,1,16.93,28.12,19.55,19.55,0,0,0,2.33,3.29,17.16,17.16,0,0,0-2.83,11.08c0,.11,0,.21,0,.32a22,22,0,0,0-5,14.11c-1.18,1.79-2.51,3.48-3.61,5.32a53.73,53.73,0,0,0-4.66,10.89c0,.16-.13.36-.22.57s-.39.49-.5.61c-.84.91-1.71,1.79-2.53,2.73A48.21,48.21,0,0,0,130,363a37.41,37.41,0,0,0-4.54,16.19,112.19,112.19,0,0,0-9.78,20c-2.18,5.86-4.09,12.39-3.66,18.68.44,6.59,2.67,12.93,7.28,17.78a24.48,24.48,0,0,0,2.13,2c2.47,5.46,6.24,9.29,11.32,12.61a17.91,17.91,0,0,0,3.76,1.83,27,27,0,0,0,5.84,3.71,21.48,21.48,0,0,0,7.34,4.42,25.39,25.39,0,0,0,5.38,3.06l.71.62h-.16a24.88,24.88,0,0,0-16.14,6.3,5.5,5.5,0,0,0-4.82.45c-.43.33-.89.64-1.34,1a32.77,32.77,0,0,0-13.24.94,16,16,0,0,0-6.17,3.46h0l-.66.07c-6.14-4.14-15-4.3-20.3,1.51a16.6,16.6,0,0,0-2.65,3.87c-5.11,1.16-6.83,9-1.57,10.73a13.73,13.73,0,0,0,4.22,7.64q4.25,3.89,8.28,8a14.75,14.75,0,0,0,1.44,3.29A50.43,50.43,0,0,0,112,522.82a64.35,64.35,0,0,0,5.81,4.59c.59.83,1.2,1.65,1.78,2.49a20.32,20.32,0,0,0,3.19,3.56,50.35,50.35,0,0,0,7.41,10.26c5.28,5.35,12,9.72,18,14.27q3.4,2.61,6.84,5.17a23.43,23.43,0,0,0,3,3.8,23.78,23.78,0,0,0,16.63,6.95,57.1,57.1,0,0,0,21.94,8.23,19.62,19.62,0,0,0,9.34,5.26c5.19,1.12,10.75,1.27,16.19,1.45a349.84,349.84,0,0,0,25.86,40.58,19.26,19.26,0,0,0-1.62,8.22,328.78,328.78,0,0,0,2.52,33.76c-1.05,1.8-2.1,3.59-3.17,5.36-4.51,7.48-8.35,15.6-7.59,24.58a62.52,62.52,0,0,0,2.19,11.38,140.41,140.41,0,0,0-7.86,16.46,12.87,12.87,0,0,0-.69,2.29,12.63,12.63,0,0,0-1.12,1.59c-4.1,7-1.31,15.26,5.13,19.56,8.33,5.55,18,8.8,27.6,11.33,1,1.29,7.52,1.6,9.1,2.35C301,780,319,775.72,357.23,777.75a150.18,150.18,0,0,0,50.06-6c7.73-2.34,15.57-4.78,22.89-8.21,3.26-1.54,7-1,10-3,1-.68,2.71.58,3.82,0,.08.07,3-1.93,3.81-1.91,7.45.94,10.72-9.72,10.41-16.77a14.21,14.21,0,0,0-3.86-9.52c-.32-5.08-1.71-10.49-2.48-15.44q-2-12.68-3.95-25.37c-1.65-10.57-3.6-21.12-7-31.17-.77-5.34-1.75-10.67-1.22-16.08a2.33,2.33,0,0,0-1.74-2.27c0-2.22-.08-4.44-.24-6.66a239.44,239.44,0,0,0,32.82-47.68l.49-.11a55.1,55.1,0,0,0,7.79-3,55.76,55.76,0,0,1,12.41-1.71c8.42-.34,16.05-2.14,23.37-6.44,6.16-3.62,11.65-8.47,17.12-13s11.5-9.31,16.6-14.54c.92-.94,1.8-2,2.64-3,11-8.34,21.42-17.34,30.26-27.93a17.16,17.16,0,0,0,3.8-8,84.09,84.09,0,0,0,11.34-9.66c8.62-8.78,2.39-24.45-10.11-24.4-9.72,0-19.61-2-29.23-3.26l-23.93-3.11a38.2,38.2,0,0,0-.21-8.49,44.5,44.5,0,0,0,13.5-7.23c12.07-5.4,22-13.69,26.83-27a42.17,42.17,0,0,0-1.06-30.22,16.26,16.26,0,0,0-2.61-11c-2.93-4.52-5.18-6.17-7.86-10.07-.47-.69-.92-1.38-1.37-2.08-.48-1.13-1-2.25-1.57-3.36a79.19,79.19,0,0,0-4.33-7,61.17,61.17,0,0,1-3.51-8.36,16.12,16.12,0,0,0-6-8c-.45-1.27-.9-2.56-1.36-3.9-5-14.83-9.46-28.61-8.06-43.88a21.51,21.51,0,0,0,4.18-4.23c3.79-5,6.38-10.66,9.81-15.87,2.82-4.3,7.61-9.15,11.66-13.65,6.31-7,12.5-14.2,19.16-20.9,4.61,2.67,10.76,3.13,14.86.22l13.06-9.25a16.83,16.83,0,0,0,6.44-8.71c14-3.61,27.82-9.06,36.34-21.2C655.43,202.88,659,197.88,658.54,192.81Z"/><path class="cls-7" d="M658.54,192.81a38.77,38.77,0,0,0-2-9.27,17.68,17.68,0,0,0-2.12-8.89,19.29,19.29,0,0,0-16.27-10.09l-1.4-1c-3.76-2.5-8-4-11.91-6.08-.83-.44-1.64-.92-2.42-1.42-.26-.18-.84-.58-1-.75-1.92-1.67-3.7-3.49-5.48-5.31a13.5,13.5,0,0,0-7.25-3.83c-.6-2.54-1.09-5.14-1.47-7.82-.48-3.38-3-6.24-6.07-8.09a40.83,40.83,0,0,0,.48-4.9c0-.84,1-2.49-.18-1,3.2-4,3.93-9.55,0-13.48-3.33-3.32-10.26-4.05-13.48,0-5.22,6.56-2.61,33.18-3.15,41.49-.15.21-6.73,10.06-6.86,10.28-6.45,10.71-7.29-2.62-2.43,9a20.16,20.16,0,0,0-.85,4,34.14,34.14,0,0,0,1.81,14.22,13.55,13.55,0,0,0-3.5,1.46c-11.4,6.75-22.63,13.2-33.09,21a81,81,0,0,0-22,9.73,15,15,0,0,0-7,11.84c-7.4,5.19-16.43,13.09-20.21,22.12a14.23,14.23,0,0,0-4,4.38,42.91,42.91,0,0,0-5.43,17.21c-1.42,4.6-3,9.13-4.74,13.42s-4.27,9.08-5.1,14c-.91,5.37-.36,10-1.71,13.86-1.67,4.79.22,10.4,3.83,14-.28,1.84-.52,3.68-.7,5.54a50.53,50.53,0,0,0,.28,12.66,11.28,11.28,0,0,0-.36,3.83c1.09,13.75,4.42,27.32,8.15,40.76A18.13,18.13,0,0,0,475,397c-9.24,3.58-18.8,7-28.31,10.58q-1.85.35-3.66.84a81.8,81.8,0,0,0-21.82,9.85c-14.77,7.05-28.59,15.66-39.95,27.59s-20.07,25.72-27.67,40.2q-4.47,3.85-8.72,7.92c-7.64-7.61-14.47-16-21.3-24.35-.18-.22-.35-.44-.53-.65a23.48,23.48,0,0,0-6.91-18,196.48,196.48,0,0,0-77.66-47.25,173.26,173.26,0,0,0-18.93-5l-11.94-5.27c.31-1.58.53-3.18.69-4.79,6.13-8.46,7.41-18.59,5.53-28.6a82.85,82.85,0,0,0,2.1-15.48,19,19,0,0,0-1.31-7.71l.21-2c1.25-12.85.74-25.8.22-38.67a24.16,24.16,0,0,0-8.25-17.06,23.43,23.43,0,0,0-2.6-7.75c-1.14-2.07-2.3-4.14-3.46-6.21-.2-1.74-.42-3.48-.67-5.24-.83-5.63-5.45-10.64-10.93-13.53-9.39-13.62-20.52-25.77-35.33-34.32-11.61-6.7-23.88-12.4-35.81-18.5-4.14-2.12-8.26-4.24-12.44-6.22a18.22,18.22,0,0,0,4.81-5.87c5-10.06,4.46-23.54,2-34.2-2.7-11.73-11.13-22-12-34.13-.51-7.3-12-7.36-11.44,0a42.83,42.83,0,0,0,1.21,7.43,4.32,4.32,0,0,0-3.27,3.9c-.91,6.34-1.7,12.72-2.62,19.07a5.46,5.46,0,0,0-4.8,1.59L69.34,155.72l-8.43,5-.22.15a22.66,22.66,0,0,0-4.53.67c-2.19.56-4.48,3.09-4.2,5.52a.13.13,0,0,1,0,.06,20.65,20.65,0,0,0-3.12.6c-14.75,4.06-21.78,21.81-14,34.94a37.08,37.08,0,0,0,17.55,15.07c3,1.25,35.87,6.16,39,6.48,4,4.3,17.37,12.58,22.07,16.07,5,3.72-10.74,4.24-5.57,7.72s-7.17.63-1.6,3.52c2.68,1.39,5.38,2.76,8,4.29,2,1.16,4.2,3.31,6.35,4.35-1.43-.75-1.89-1.75.32.14h0c.11.05.23.12.34.16l-.32-.13c.94.8,1.86,1.61,2.76,2.45,1.82,1.7,3.58,3.47,5.26,5.31s3.38,3.88,5,5.87l.14.2c.73,1,1.48,2.05,2.21,3.09a318.93,318.93,0,0,1,16.93,28.12,19.55,19.55,0,0,0,2.33,3.29,17.16,17.16,0,0,0-2.83,11.08c0,.11,0,.21,0,.32a22,22,0,0,0-5,14.11c-1.18,1.79-2.51,3.48-3.61,5.32a53.73,53.73,0,0,0-4.66,10.89c0,.16-.13.36-.22.57s-.39.49-.5.61c-.84.91-1.71,1.79-2.53,2.73A48.21,48.21,0,0,0,130,363a37.41,37.41,0,0,0-4.54,16.19,112.19,112.19,0,0,0-9.78,20c-2.18,5.86-4.09,12.39-3.66,18.68.44,6.59,2.67,12.93,7.28,17.78a24.48,24.48,0,0,0,2.13,2c2.47,5.46,6.24,9.29,11.32,12.61a17.91,17.91,0,0,0,3.76,1.83,27,27,0,0,0,5.84,3.71,21.48,21.48,0,0,0,7.34,4.42,25.39,25.39,0,0,0,5.38,3.06l.71.62h-.16a24.88,24.88,0,0,0-16.14,6.3,5.5,5.5,0,0,0-4.82.45c-.43.33-.89.64-1.34,1a32.77,32.77,0,0,0-13.24.94,16,16,0,0,0-6.17,3.46h0l-.66.07c-6.14-4.14-15-4.3-20.3,1.51a16.6,16.6,0,0,0-2.65,3.87c-5.11,1.16-6.83,9-1.57,10.73a13.73,13.73,0,0,0,4.22,7.64q4.25,3.89,8.28,8a14.75,14.75,0,0,0,1.44,3.29A50.43,50.43,0,0,0,112,522.82a64.35,64.35,0,0,0,5.81,4.59c.59.83,1.2,1.65,1.78,2.49a20.32,20.32,0,0,0,3.19,3.56,50.35,50.35,0,0,0,7.41,10.26c5.28,5.35,12,9.72,18,14.27q3.4,2.61,6.84,5.17a23.43,23.43,0,0,0,3,3.8,23.78,23.78,0,0,0,16.63,6.95,57.1,57.1,0,0,0,21.94,8.23,19.62,19.62,0,0,0,9.34,5.26c5.19,1.12,10.75,1.27,16.19,1.45a349.84,349.84,0,0,0,25.86,40.58,19.26,19.26,0,0,0-1.62,8.22,328.78,328.78,0,0,0,2.52,33.76c-1.05,1.8-2.1,3.59-3.17,5.36-4.51,7.48-8.35,15.6-7.59,24.58a62.52,62.52,0,0,0,2.19,11.38,140.41,140.41,0,0,0-7.86,16.46,12.87,12.87,0,0,0-.69,2.29,12.63,12.63,0,0,0-1.12,1.59c-4.1,7-1.31,15.26,5.13,19.56,8.33,5.55,18,8.8,27.6,11.33,1,1.29,7.52,1.6,9.1,2.35C301,780,319,775.72,357.23,777.75a150.18,150.18,0,0,0,50.06-6c7.73-2.34,15.57-4.78,22.89-8.21,3.26-1.54,7-1,10-3,1-.68,2.71.58,3.82,0,.08.07,3-1.93,3.81-1.91,7.45.94,10.72-9.72,10.41-16.77a14.21,14.21,0,0,0-3.86-9.52c-.32-5.08-1.71-10.49-2.48-15.44q-2-12.68-3.95-25.37c-1.65-10.57-3.6-21.12-7-31.17-.77-5.34-1.75-10.67-1.22-16.08a2.33,2.33,0,0,0-1.74-2.27c0-2.22-.08-4.44-.24-6.66a239.44,239.44,0,0,0,32.82-47.68l.49-.11a55.1,55.1,0,0,0,7.79-3,55.76,55.76,0,0,1,12.41-1.71c8.42-.34,16.05-2.14,23.37-6.44,6.16-3.62,11.65-8.47,17.12-13s11.5-9.31,16.6-14.54c.92-.94,1.8-2,2.64-3,11-8.34,21.42-17.34,30.26-27.93a17.16,17.16,0,0,0,3.8-8,84.09,84.09,0,0,0,11.34-9.66c8.62-8.78,2.39-24.45-10.11-24.4-9.72,0-19.61-2-29.23-3.26l-23.93-3.11a38.2,38.2,0,0,0-.21-8.49,44.5,44.5,0,0,0,13.5-7.23c12.07-5.4,22-13.69,26.83-27a42.17,42.17,0,0,0-1.06-30.22,16.26,16.26,0,0,0-2.61-11c-2.93-4.52-5.18-6.17-7.86-10.07-.47-.69-.92-1.38-1.37-2.08-.48-1.13-1-2.25-1.57-3.36a79.19,79.19,0,0,0-4.33-7,61.17,61.17,0,0,1-3.51-8.36,16.12,16.12,0,0,0-6-8c-.45-1.27-.9-2.56-1.36-3.9-5-14.83-9.46-28.61-8.06-43.88a21.51,21.51,0,0,0,4.18-4.23c3.79-5,6.38-10.66,9.81-15.87,2.82-4.3,7.61-9.15,11.66-13.65,6.31-7,12.5-14.2,19.16-20.9,4.61,2.67,10.76,3.13,14.86.22l13.06-9.25a16.83,16.83,0,0,0,6.44-8.71c14-3.61,27.82-9.06,36.34-21.2C655.43,202.88,659,197.88,658.54,192.81Z"/><path class="cls-7" d="M374.86,733.74s1.95,12.83-7.69,34.69"/><path class="cls-7" d="M315.94,734.07s-2.49,12.5,7.16,34.36"/><path class="cls-7" d="M148,459.46s98.7,7,144.65,15.43c44.37,8.16,35.8,17.86,50.14,16.07,32.8-4.09,59.73-17.88,82.93-20.57,114.43-13.29,107.57-7.29,107.57-7.29S616.47,440.82,546,339.89c-16.39-64.61-3.86-70.07,97.39-121.18,38.58-23.14,8.68-57.22-33.75-71.68-13.09-12.1-7.07-49.5-7.07-49.5s-24.21,32.3-26.73,80.48c-1.39,26.5-47.2,34.59-47.2,34.59S492,239.28,475.9,296.17c-15.23,53.9-3.08,79.69,4.5,95.15C431.54,403.53,359.33,462.1,344.86,493c-23.25-36.07-81.1-88.47-135.1-102.93,16.71-93.21,1.75-155.95-91.78-197.41-19.29-9.65,3.71-22.13-4-54.91s-32.78-54-32.78-54,13.17,56.25-9,67.82-78.43,44.36-4.5,70.07c67.48,23.47,89.35,68.79,85.5,90s-51.75,97.07-37.29,120.22S148,459.46,148,459.46Z"/><path class="cls-7" d="M148,459.46s98.7,7,144.65,15.43c44.37,8.16,35.8,17.86,50.14,16.07,32.8-4.09,59.73-17.88,82.93-20.57,114.43-13.29,107.57-7.29,107.57-7.29S616.47,440.82,546,339.89c-16.39-64.61-3.86-70.07,97.39-121.18,38.58-23.14,8.68-57.22-33.75-71.68-13.09-12.1-7.07-49.5-7.07-49.5s-24.21,32.3-26.73,80.48c-1.39,26.5-47.2,34.59-47.2,34.59S492,239.28,475.9,296.17c-15.23,53.9-3.08,79.69,4.5,95.15C431.54,403.53,359.33,462.1,344.86,493c-23.25-36.07-81.1-88.47-135.1-102.93,16.71-93.21,1.75-155.95-91.78-197.41-19.29-9.65,3.71-22.13-4-54.91s-32.78-54-32.78-54,13.17,56.25-9,67.82-78.43,44.36-4.5,70.07c67.48,23.47,89.35,68.79,85.5,90s-51.75,97.07-37.29,120.22S148,459.46,148,459.46Z"/><g id="barba"><path class="cls-7" d="M372.21,717.46s11.36,22.94,4.23,37c-3.34-8.91-4.45-10.25-4.45-10.25s2.55,9.39-1,18.49l-5.28-8.46a40.81,40.81,0,0,1-2.7,19c-4,10.43-25.34,7.07-25.34,7.07l4.9-62.8Z"/><path class="cls-7" d="M318.71,717.46s-11.36,22.94-4.23,37c3.34-8.91,4.45-10.25,4.45-10.25s-2.49,10,.94,18.49l5.17-8.46s-.91,6.93,1.76,17.84,16.31.38,16.31.38l5.22-55Z"/><path class="cls-7" d="M374.33,720.46s22.07-42.86-15.22-45.86-16.92,34.5-16.92,34.5S338.54,726,374.33,720.46Z"/><path class="cls-7" d="M347.28,709.1s3.64,16.93-32.14,11.36c0,0-22.07-42.86,15.21-45.86"/></g><path class="cls-7" d="M135.35,270.4A298.25,298.25,0,0,0,46.61,483.07c0,139.78,95.88,257.18,225.46,290h0a301,301,0,0,0,160.86-3.74h0c2.72-.82,5.43-1.7,8.12-2.6h0c1.77-.6,3.51-1.19,5.25-1.82l.24-.08h0q7.81-2.8,15.42-6C569.53,713.46,645,607.07,645,483.07a298.34,298.34,0,0,0-91.64-215.5"/><path class="cls-7" d="M307.23,587.28a37.7,37.7,0,0,1-6.61-3.21,79.24,79.24,0,0,0-6.8-4.21c-4.82-2.32-10.13-3.64-15.21-5.23a2.1,2.1,0,0,0-1.24,0,2.51,2.51,0,0,0-.95-.19c-2.79,0-3,3.94-.75,4.65a14.1,14.1,0,0,0,.31,1.7,2.1,2.1,0,0,0-.45,1.38,7.72,7.72,0,0,0,2.3,5.29,13.16,13.16,0,0,0,1,1.28,9.38,9.38,0,0,0,6.89,2.85h.35c1.59.29,3.23.4,4.82.53a75.26,75.26,0,0,0,11.63,0,2.46,2.46,0,0,0,1.77-.86c.56.22,1.12.45,1.69.65a2.39,2.39,0,0,0,2.93-1.66A2.43,2.43,0,0,0,307.23,587.28Z"/><path class="cls-7" d="M415.2,576.4a2.29,2.29,0,0,0-2.88-1.81l-8.44,2.23a28.85,28.85,0,0,0-7.76,2.81,46.68,46.68,0,0,0-5.95,4.92c-1.74,1.51-3.76,2.79-6.14,2.61a2.31,2.31,0,0,0-1.37.38c-2.58.47-2.44,4.72.47,4.72a2.36,2.36,0,0,0,1.22-.33c.26,0,.52,0,.78,0,2.91,0,5.82,0,8.73,0h.2a3.28,3.28,0,0,0,1.4.8c1.67.46,3.81-.19,5.5-.41,3.75-.5,7.56-1.17,10.59-3.61a9.79,9.79,0,0,0,3.77-8.32A2.5,2.5,0,0,0,415.2,576.4Z"/><path class="cls-7" d="M219,344.88c7-40.54-6.84-84.14-36-113.17-13.13-13.07-29.28-24-45.87-32.21-4.29-2.12-36.94-24.86-16.13,1.66,3.68,4.69,8.85,10.33,13.22,13.48a217.14,217.14,0,0,1,65.66,76.57A212.55,212.55,0,0,1,219,344.88Z"/><path class="cls-7" d="M475.23,344.88c-7-40.54,6.84-84.14,36-113.17,13.13-13.07,29.28-24,45.87-32.21,4.3-2.12,36.94-24.86,16.13,1.66-3.68,4.69-8.85,10.33-13.22,13.48a217.24,217.24,0,0,0-65.66,76.57A212.52,212.52,0,0,0,475.23,344.88Z"/><path class="cls-7" d="M609.3,162.45c2.43,2.35,5.27,4.5,8.59,5.1s7.21-.75,8.61-3.83c1.16-2.53.41-5.59-1.11-7.92s-3.71-4.12-5.73-6a58.1,58.1,0,0,1-13.49-19.34c-1.42-3.3-4-19.33-9.16-10.49-3.25,5.6-1,17,.68,22.74A44.62,44.62,0,0,0,609.3,162.45Z"/><path class="cls-7" d="M82.26,162.45c-2.43,2.35-5.27,4.5-8.6,5.1s-7.2-.75-8.61-3.83c-1.15-2.53-.4-5.59,1.12-7.92s3.7-4.12,5.73-6a58.1,58.1,0,0,0,13.49-19.34c1.42-3.3,4-19.33,9.16-10.49,3.25,5.6,1,17-.69,22.74A44.6,44.6,0,0,1,82.26,162.45Z"/><path class="cls-7" d="M588.06,491.81c3,.55,6.09,1.18,9,.2a9.17,9.17,0,0,0,5.95-8.08c.83-14.32-32.35-7.53-39-9.31-10.32-2.76-15.3-16.21-25.86-15.25-20.85,1.91-43.07,22.26-50,45.21C521.54,492.76,553.41,485.4,588.06,491.81Z"/><path class="cls-7" d="M102.93,491.81c-3,.55-6.1,1.18-9,.2a9.18,9.18,0,0,1-6-8.08c-.83-14.32,32.36-7.53,39-9.31,10.32-2.76,15.3-16.21,25.85-15.25,20.85,1.91,43.08,22.26,50,45.21C169.45,492.76,137.57,485.4,102.93,491.81Z"/><path class="cls-7" d="M477.85,568.77c-5.21,2.31-11,5-12.93,9.74-1.12,2.8-1,5.41,1.91,7.62,3.81,2.86,6.44,4.08,10.37,3.07,42.39-10.9,80.76-36.34,107.89-70.62,5.15-6.5,16.18-18,16.79-26.35-6.27.59-13.28,8.29-18.07,12.07-10.62,8.4-21.47,16.48-32.71,24A481,481,0,0,1,477.85,568.77Z"/><path class="cls-7" d="M211.83,568.77c5.2,2.31,11,5,12.92,9.74,1.12,2.8,1,5.41-1.91,7.62-3.81,2.86-6.44,4.08-10.37,3.07-42.39-10.9-80.76-36.34-107.89-70.62-5.14-6.5-16.18-18-16.79-26.35,6.27.59,13.29,8.29,18.07,12.07,10.63,8.4,21.47,16.48,32.72,24A480,480,0,0,0,211.83,568.77Z"/><path class="cls-7" d="M312.47,643.41a138,138,0,0,0-1.36-20.63c-1.15-6.8-3.38-13.52-7.4-19.13-1.75-2.43-7.57-6.13-6.53-8.94.93-2.51,7.58-2.57,10.19-3.16a24,24,0,0,1,6.82-.85,8,8,0,0,1,6,3c1.71,2.38,1.43,5.59,1.07,8.49L317.73,631c-.58,4.77-1.86,10.39-2.44,15.16-.25,2.08,0,8.58-2.6,8C311.48,653.8,312.52,647,312.47,643.41Z"/><path class="cls-7" d="M377.54,643.41a136.71,136.71,0,0,1,1.35-20.63c1.15-6.8,3.38-13.52,7.4-19.13,1.75-2.43,7.57-6.13,6.53-8.94-.93-2.51-7.58-2.57-10.19-3.16a23.94,23.94,0,0,0-6.82-.85,8,8,0,0,0-6,3c-1.71,2.38-1.43,5.59-1.07,8.49L372.27,631c.58,4.77,1.48,10.39,2.06,15.16.26,2.08.38,8.58,3,8C378.53,653.8,377.48,647,377.54,643.41Z"/><path class="cls-7" d="M212.35,398.09c-10.29-1.21-20.65-2.6-30.43-6s-19-9-25.23-17.36a8.24,8.24,0,0,1-2-4.49c0-1.66,1.14-3.47,2.8-3.51a4.94,4.94,0,0,1,2.5.88,92.3,92.3,0,0,0,41.38,11.74c2.93.12,6,.13,8.59,1.44s4.62,4.41,3.61,7.15Z"/><path class="cls-7" d="M479.3,398.09c10.29-1.21,20.65-2.6,30.43-6s19-9,25.23-17.36a8.3,8.3,0,0,0,2-4.49c0-1.66-1.13-3.47-2.79-3.51a5,5,0,0,0-2.51.88,92.27,92.27,0,0,1-41.38,11.74c-2.92.12-6,.13-8.59,1.44s-4.62,4.41-3.6,7.15Z"/><path class="cls-7" d="M131,246.61c-13-12.07-29-20.28-45.31-27.21s-33.09-12.75-48.85-20.83c-3.53,2.56-2.63,8.43.51,11.44s7.62,4.06,11.78,5.36C68,221.31,83.52,234.72,100,245.77c10.14,6.8,20.85,12.8,30.38,20.43a78,78,0,0,1,14.63,15c1.29,1.78,2.79,6.16,5.34,6.05,3.38-.13,2.69-3.9,2.36-5.91C150.58,268.27,140.33,255.33,131,246.61Z"/><path class="cls-7" d="M559.8,246.61c13-12.07,29-20.28,45.31-27.21s33.1-12.75,48.85-20.83c3.53,2.56,2.64,8.43-.51,11.44s-7.62,4.06-11.78,5.36c-18.94,5.94-34.42,19.35-50.91,30.4-10.14,6.8-20.85,12.8-30.38,20.43a78.29,78.29,0,0,0-14.63,15c-1.28,1.78-2.79,6.16-5.34,6.05-3.38-.13-2.68-3.9-2.35-5.91C540.19,268.27,550.44,255.33,559.8,246.61Z"/><path class="cls-7" d="M404.74,647.34c1.85,18.19,3.67,36.89-1.31,54.48s-18.41,34-36.45,37c1.68-4,1.81-11.83,5.49-15.42s8.17-4.41,12.34-7.42c16.08-11.64,16.26-20.22,18.16-41.19C403.75,666.23,403.93,656.66,404.74,647.34Z"/><path class="cls-7" d="M286,647.34c-1.86,18.19-3.67,36.89,1.31,54.48s18.41,34,36.45,37c-1.68-4-1.81-11.83-5.5-15.42S310.07,719,305.9,716c-16.08-11.64-16.26-20.22-18.16-41.19C287,666.23,286.78,656.66,286,647.34Z"/><path class="cls-7" d="M327.32,741.38a29,29,0,0,0,8.84,1.69c7.33.62,14.76,1.24,22,0,2.91-.51,5.89-1.39,8-3.41,3-2.79,3.78-7.1,4.43-11.11.28-1.71.48-3.71-.73-5-.74-.78-4-1.86-5.06-2.09-11.11-2.42-20.39-2.6-31.75-2.11a23.55,23.55,0,0,0-8.42,1.51c-2.62,1.16-4.12,1.59-4.63,4.41C319.11,730.59,322.5,739.36,327.32,741.38Z"/><path class="cls-7" d="M577.93,193.22a74,74,0,0,0,18.51-8.05c1.24-.75,2.61-1.84,2.48-3.29a3,3,0,0,0-2.55-2.33,26.82,26.82,0,0,0-3.7-.12,17.26,17.26,0,0,1-5.77-1.7,17.89,17.89,0,0,0-5.76-1.72,6,6,0,0,0-5.33,2.22c-1.15,1.66-.78,4.34,1,5.22"/><path class="cls-7" d="M112.72,193.22a74.12,74.12,0,0,1-18.51-8.05c-1.24-.75-2.61-1.84-2.47-3.29a3,3,0,0,1,2.54-2.33,26.87,26.87,0,0,1,3.7-.12,17.19,17.19,0,0,0,5.77-1.7,17.89,17.89,0,0,1,5.76-1.72,6,6,0,0,1,5.33,2.22c1.15,1.66.78,4.34-1,5.22"/><g id="direita-3" data-name="direita"><path class="cls-7" d="M461.15,747.84c-5-21.54-18.45-81.77-20.07-115.76,20-22,27.93-43.89,27.93-43.89s36.95,2,82.14-37.27h0c17.81-15.5,36.91-37.44,55.53-68.46-47.89-20-79.81-16-79.81-16s69.84-19.94,47.89-73.81c-27.94-53.88-35.91-69.84-35.91-69.84s-16-37.91,43.89-75.81c61.85-31.92,75.81-33.92,77.81-55.86s-37.91-35.93-37.91-35.93-29.93-12-18-53.87l2-8s-45.89,43.89-29.93,83.79l4,10S504.93,217.09,487,261s-20,77.81-8,121.71l4,10s-11,1.27-27.46,7.12c-29.59,10.48-76.89,35.68-110.21,94.63"/><path class="cls-7" d="M437,576.49A50.22,50.22,0,0,0,417.7,575a52.57,52.57,0,0,0-18.22,5.58,34.64,34.64,0,0,0-4,2.45l-2,1.45c-.7.54-1.43,1-2.15,1.47-2.89,1.84-5.86,3.39-8.83,4.94s-6,3-9,4.36-6.13,2.53-9.32,3.58L355,602l6.07-7.58c.23-.28.59-.74.88-1.15s.6-.87.9-1.31c.57-.9,1.14-1.81,1.66-2.77a50.17,50.17,0,0,0,2.83-5.91c.42-1,.79-2.06,1.15-3.12s.71-2.11,1-3.2c.65-2.17,1.05-4.4,1.54-6.68h.57a35.34,35.34,0,0,1,.51,7.06,38.24,38.24,0,0,1-.85,7.12,39.83,39.83,0,0,1-2.12,6.93c-.46,1.13-1,2.24-1.54,3.33-.3.55-.59,1.09-.92,1.63a18.24,18.24,0,0,1-1.1,1.67l-3.22-4.5c3-1.22,6-2.43,9.06-3.59s6.11-2.26,9.11-3.51a80.58,80.58,0,0,0,8.69-4.12c.69-.38,1.37-.77,2-1.19l1-.64c.37-.25.73-.51,1.11-.74a38.85,38.85,0,0,1,4.58-2.45,53.4,53.4,0,0,1,19.71-4.49A49.4,49.4,0,0,1,437.18,576Z"/><path class="cls-7" d="M378.19,590.9s43.91,11.71,37.17-15.25"/><path class="cls-7" d="M344.31,669s23.95-12,29.93,2-12,22-12,22-6,15.39-17,18.66C344.31,681,344.31,669,344.31,669Z"/><polygon class="cls-7" points="370.99 593.92 376.24 653.03 365.32 594.7 370.99 593.92"/><path class="cls-7" d="M345.1,716.24a62.65,62.65,0,0,1,7,.11,67.6,67.6,0,0,1,6.92.81,51.73,51.73,0,0,1,6.84,1.69,34.41,34.41,0,0,1,6.57,3l-2.48.06c4.12-2.63,8.41-4.92,12.49-7.27s7.84-5,10.69-8.44a32.74,32.74,0,0,0,6-12.18l.49-1.68.37-1.72c.23-1.15.52-2.29.71-3.45.32-2.34.78-4.66.95-7,.52-4.7.8-9.51,1.17-14.27s.72-9.55,1.14-14.32.88-9.55,1.73-14.28a40.59,40.59,0,0,1,1.86-7,23.78,23.78,0,0,1,3.57-6.23,23.56,23.56,0,0,0-3.29,6.33,39.28,39.28,0,0,0-1.57,7c-.65,4.72-.91,9.5-1.14,14.27s-.39,9.55-.56,14.34-.27,9.54-.6,14.37c-.08,2.42-.44,4.82-.68,7.23-.15,1.21-.4,2.4-.59,3.61l-.31,1.8-.45,1.79a35.93,35.93,0,0,1-6.09,13.59c-3.08,4.09-7.22,7.15-11.31,9.75s-8.18,5-12,7.66l-1.14.79-1.34-.73a29.25,29.25,0,0,0-5.65-2.31,47,47,0,0,0-6.18-1.26c-2.1-.27-4.23-.43-6.37-.49s-4.76-.06-6.76.1Z"/></g><g id="esquerda-3" data-name="esquerda"><path class="cls-7" d="M345.31,494.42C311.76,435.06,264,409.93,234.5,399.57c-16.15-5.66-26.85-6.9-26.85-6.9l4-10c12-43.9,10-77.81-8-121.71s-93.77-73.82-93.77-73.82l4-10C129.84,137.28,84,93.39,84,93.39l2,8c12,41.9-18,53.87-18,53.87s-39.9,14-37.9,35.93S46,215.1,107.89,247c59.85,37.9,43.89,75.81,43.89,75.81s-8,16-35.91,69.84c-22,53.87,47.88,73.81,47.88,73.81s-31.92-4-79.8,16c18.31,30.52,37.1,52.26,54.67,67.71,45.57,40.11,83,38,83,38s8,21.94,27.94,43.89c-1.64,34.28-15.29,95.26-20.2,116.32"/><path class="cls-7" d="M253.44,576a49.4,49.4,0,0,1,19.65-3.21,53.31,53.31,0,0,1,19.71,4.49,39,39,0,0,1,4.59,2.45c.37.23.73.49,1.1.74l1,.64c.62.42,1.31.81,2,1.19a80.74,80.74,0,0,0,8.7,4.12c3,1.25,6.05,2.36,9.1,3.51s6.08,2.37,9.07,3.59l-3.23,4.5a18.24,18.24,0,0,1-1.1-1.67c-.33-.54-.61-1.08-.91-1.63-.57-1.09-1.09-2.2-1.55-3.33a41.63,41.63,0,0,1-2.12-6.93,39.1,39.1,0,0,1-.85-7.12,35.34,35.34,0,0,1,.51-7.06h.57c.49,2.28.89,4.51,1.55,6.68.27,1.09.62,2.15,1,3.2s.73,2.1,1.15,3.12a48.64,48.64,0,0,0,2.83,5.91c.51,1,1.08,1.87,1.66,2.77.29.44.58.89.89,1.31s.65.87.88,1.15l6.08,7.58-9.31-3.08c-3.19-1-6.26-2.25-9.32-3.58s-6-2.83-9-4.36-5.93-3.1-8.83-4.94c-.72-.47-1.44-.93-2.15-1.47l-1.95-1.45a34.77,34.77,0,0,0-4-2.45A52.57,52.57,0,0,0,272.92,575a50.24,50.24,0,0,0-19.3,1.45Z"/><path class="cls-7" d="M346.31,669s-23.94-12-29.93,2,12,22,12,22,6,15.39,17,18.66C346.31,681,346.31,669,346.31,669Z"/><polygon class="cls-7" points="325.3 594.7 314.39 653.03 319.64 593.92 325.3 594.7"/><path class="cls-7" d="M345.19,721.89c-2-.16-4.31-.15-6.43-.1s-4.27.22-6.37.49a46.51,46.51,0,0,0-6.17,1.26,28.74,28.74,0,0,0-5.65,2.31l-1.35.73-1.13-.79c-3.84-2.68-7.92-5.07-12-7.66s-8.23-5.66-11.31-9.75a35.75,35.75,0,0,1-6.08-13.59l-.45-1.79-.32-1.8c-.19-1.21-.44-2.4-.59-3.61-.23-2.41-.6-4.81-.68-7.23-.33-4.83-.41-9.59-.6-14.37s-.33-9.57-.55-14.34-.5-9.55-1.15-14.27a40.16,40.16,0,0,0-1.56-7,23.88,23.88,0,0,0-3.3-6.33,23.78,23.78,0,0,1,3.57,6.23,40.62,40.62,0,0,1,1.87,7c.84,4.73,1.29,9.51,1.72,14.28s.78,9.55,1.14,14.32.66,9.57,1.17,14.27c.17,2.37.63,4.69.95,7,.19,1.16.48,2.3.71,3.45l.37,1.72.5,1.68a32.59,32.59,0,0,0,6,12.18,38.22,38.22,0,0,0,10.68,8.44c4.08,2.35,8.37,4.64,12.49,7.27l-2.48-.06a34.41,34.41,0,0,1,6.57-3,52.12,52.12,0,0,1,6.84-1.69,67.6,67.6,0,0,1,6.92-.81,62.79,62.79,0,0,1,7-.11Z"/></g><path class="cls-7" d="M312.18,590.9S268.27,602.61,275,575.65"/><line class="cls-7" x1="551.15" y1="550.92" x2="551.15" y2="550.91"/><path class="cls-7" d="M371,723.86a12.54,12.54,0,0,1,.85,4.81,16.88,16.88,0,0,1-.66,4.73,14.45,14.45,0,0,1-2,4.43,8.1,8.1,0,0,1-3.86,3.18c.49-1.65.79-3,1.15-4.45s.68-2.8,1.09-4.2.85-2.8,1.38-4.22A23.4,23.4,0,0,1,371,723.86Z"/><path class="cls-7" d="M319.58,723.86a23.4,23.4,0,0,1,2.09,4.28c.54,1.42,1,2.82,1.39,4.22s.73,2.8,1.09,4.2.66,2.8,1.15,4.45a8.08,8.08,0,0,1-3.87-3.18,14.69,14.69,0,0,1-2-4.43,17.26,17.26,0,0,1-.66-4.73A12.93,12.93,0,0,1,319.58,723.86Z"/><path class="cls-7" d="M368.22,620.17s-10.61-7.71-20.25-3.43c-8.44,3.75-11-6.24-25.39,1.26l-2.33,14.39s5.14-7.8,19.6-3.42a12.36,12.36,0,0,0,6.9-.05c11.59-3.28,23.29,2.82,23.29,2.82Z"/><circle class="cls-8" cx="345.79" cy="483.07" r="299.18"/><g id="direita-4" data-name="direita"><path class="cls-9" d="M461.15,747.84c-5-21.54-18.45-81.77-20.07-115.76,20-22,27.93-43.89,27.93-43.89s36.95,2,82.14-37.27h0c17.81-15.5,36.91-37.44,55.53-68.46-47.89-20-79.81-16-79.81-16s69.84-19.94,47.89-73.81c-27.94-53.88-35.91-69.84-35.91-69.84s-16-37.91,43.89-75.81c61.85-31.92,75.81-33.92,77.81-55.86s-37.91-35.93-37.91-35.93-29.93-12-18-53.87l2-8s-45.89,43.89-29.93,83.79l4,10S504.93,217.09,487,261s-20,77.81-8,121.71l4,10s-11,1.27-27.46,7.12c-29.59,10.48-76.89,35.68-110.21,94.63"/><path class="cls-10" d="M437,576.49A50.22,50.22,0,0,0,417.7,575a52.57,52.57,0,0,0-18.22,5.58,34.64,34.64,0,0,0-4,2.45l-2,1.45c-.7.54-1.43,1-2.15,1.47-2.89,1.84-5.86,3.39-8.83,4.94s-6,3-9,4.36-6.13,2.53-9.32,3.58L355,602l6.07-7.58c.23-.28.59-.74.88-1.15s.6-.87.9-1.31c.57-.9,1.14-1.81,1.66-2.77a50.17,50.17,0,0,0,2.83-5.91c.42-1,.79-2.06,1.15-3.12s.71-2.11,1-3.2c.65-2.17,1.05-4.4,1.54-6.68h.57a35.34,35.34,0,0,1,.51,7.06,38.24,38.24,0,0,1-.85,7.12,39.83,39.83,0,0,1-2.12,6.93c-.46,1.13-1,2.24-1.54,3.33-.3.55-.59,1.09-.92,1.63a18.24,18.24,0,0,1-1.1,1.67l-3.22-4.5c3-1.22,6-2.43,9.06-3.59s6.11-2.26,9.11-3.51a80.58,80.58,0,0,0,8.69-4.12c.69-.38,1.37-.77,2-1.19l1-.64c.37-.25.73-.51,1.11-.74a38.85,38.85,0,0,1,4.58-2.45,53.4,53.4,0,0,1,19.71-4.49A49.4,49.4,0,0,1,437.18,576Z"/><path class="cls-11" d="M378.19,590.9s43.91,11.71,37.17-15.25"/><path class="cls-10" d="M344.31,669s23.95-12,29.93,2-12,22-12,22-6,15.39-17,18.66C344.31,681,344.31,669,344.31,669Z"/><polygon class="cls-10" points="370.99 593.92 376.24 653.03 365.32 594.7 370.99 593.92"/><path class="cls-10" d="M345.1,716.24a62.65,62.65,0,0,1,7,.11,67.6,67.6,0,0,1,6.92.81,51.73,51.73,0,0,1,6.84,1.69,34.41,34.41,0,0,1,6.57,3l-2.48.06c4.12-2.63,8.41-4.92,12.49-7.27s7.84-5,10.69-8.44a32.74,32.74,0,0,0,6-12.18l.49-1.68.37-1.72c.23-1.15.52-2.29.71-3.45.32-2.34.78-4.66.95-7,.52-4.7.8-9.51,1.17-14.27s.72-9.55,1.14-14.32.88-9.55,1.73-14.28a40.59,40.59,0,0,1,1.86-7,23.78,23.78,0,0,1,3.57-6.23,23.56,23.56,0,0,0-3.29,6.33,39.28,39.28,0,0,0-1.57,7c-.65,4.72-.91,9.5-1.14,14.27s-.39,9.55-.56,14.34-.27,9.54-.6,14.37c-.08,2.42-.44,4.82-.68,7.23-.15,1.21-.4,2.4-.59,3.61l-.31,1.8-.45,1.79a35.93,35.93,0,0,1-6.09,13.59c-3.08,4.09-7.22,7.15-11.31,9.75s-8.18,5-12,7.66l-1.14.79-1.34-.73a29.25,29.25,0,0,0-5.65-2.31,47,47,0,0,0-6.18-1.26c-2.1-.27-4.23-.43-6.37-.49a60.08,60.08,0,0,0-6.33.15Z"/></g><g id="esquerda-4" data-name="esquerda"><path class="cls-12" d="M345.31,494.42C311.76,435.06,264,409.93,234.5,399.57c-16.15-5.66-26.85-6.9-26.85-6.9l4-10c12-43.9,10-77.81-8-121.71s-93.77-73.82-93.77-73.82l4-10C129.84,137.28,84,93.39,84,93.39l2,8c12,41.9-18,53.87-18,53.87s-39.9,14-37.9,35.93S46,215.1,107.89,247c59.85,37.9,43.89,75.81,43.89,75.81s-8,16-35.91,69.84c-22,53.87,47.88,73.81,47.88,73.81s-31.92-4-79.8,16c18.31,30.52,37.1,52.26,54.67,67.71,45.57,40.11,83,38,83,38s8,21.94,27.94,43.89c-1.64,34.28-15.29,95.26-20.2,116.32"/><path class="cls-10" d="M253.44,576a49.4,49.4,0,0,1,19.65-3.21,53.31,53.31,0,0,1,19.71,4.49,39,39,0,0,1,4.59,2.45c.37.23.73.49,1.1.74l1,.64c.62.42,1.31.81,2,1.19a80.74,80.74,0,0,0,8.7,4.12c3,1.25,6.05,2.36,9.1,3.51s6.08,2.37,9.07,3.59l-3.23,4.5a18.24,18.24,0,0,1-1.1-1.67c-.33-.54-.61-1.08-.91-1.63-.57-1.09-1.09-2.2-1.55-3.33a41.63,41.63,0,0,1-2.12-6.93,39.1,39.1,0,0,1-.85-7.12,35.34,35.34,0,0,1,.51-7.06h.57c.49,2.28.89,4.51,1.55,6.68.27,1.09.62,2.15,1,3.2s.73,2.1,1.15,3.12a48.64,48.64,0,0,0,2.83,5.91c.51,1,1.08,1.87,1.66,2.77.29.44.58.89.89,1.31s.65.87.88,1.15l6.08,7.58-9.31-3.08c-3.19-1-6.26-2.25-9.32-3.58s-6-2.83-9-4.36-5.93-3.1-8.83-4.94c-.72-.47-1.44-.93-2.15-1.47l-1.95-1.45a34.77,34.77,0,0,0-4-2.45A52.57,52.57,0,0,0,272.92,575a50.24,50.24,0,0,0-19.3,1.45Z"/><path class="cls-10" d="M346.31,669s-23.94-12-29.93,2,12,22,12,22,6,15.39,17,18.66C346.31,681,346.31,669,346.31,669Z"/><polygon class="cls-10" points="325.3 594.7 314.39 653.03 319.64 593.92 325.3 594.7"/><path class="cls-10" d="M345.1,721.94a60.21,60.21,0,0,0-6.34-.15c-2.13.06-4.27.22-6.37.49a46.51,46.51,0,0,0-6.17,1.26,28.74,28.74,0,0,0-5.65,2.31l-1.35.73-1.13-.79c-3.84-2.68-7.92-5.07-12-7.66s-8.23-5.66-11.31-9.75a35.75,35.75,0,0,1-6.08-13.59l-.45-1.79-.32-1.8c-.19-1.21-.44-2.4-.59-3.61-.23-2.41-.6-4.81-.68-7.23-.33-4.83-.41-9.59-.6-14.37s-.33-9.57-.55-14.34-.5-9.55-1.15-14.27a40.16,40.16,0,0,0-1.56-7,23.88,23.88,0,0,0-3.3-6.33,23.78,23.78,0,0,1,3.57,6.23,40.62,40.62,0,0,1,1.87,7c.84,4.73,1.29,9.51,1.72,14.28s.78,9.55,1.14,14.32.66,9.57,1.17,14.27c.17,2.37.63,4.69.95,7,.19,1.16.48,2.3.71,3.45l.37,1.72.5,1.68a32.59,32.59,0,0,0,6,12.18,38.22,38.22,0,0,0,10.68,8.44c4.08,2.35,8.37,4.64,12.49,7.27l-2.48-.06a34.41,34.41,0,0,1,6.57-3,52.12,52.12,0,0,1,6.84-1.69,67.6,67.6,0,0,1,6.92-.81,62.79,62.79,0,0,1,7-.11Z"/></g><path class="cls-12" d="M135.35,270.4A298.25,298.25,0,0,0,46.61,483.07c0,139.78,95.88,257.18,225.46,290h0a301,301,0,0,0,160.86-3.74h0c2.72-.82,5.43-1.7,8.12-2.6h0c1.77-.6,3.51-1.19,5.25-1.82l.24-.08h0q7.81-2.8,15.42-6C569.53,713.46,645,607.07,645,483.07a298.34,298.34,0,0,0-91.64-215.5"/><path class="cls-13" d="M345.79,797.25a314.18,314.18,0,1,1,222.16-92A312.13,312.13,0,0,1,345.79,797.25Z"/><path class="cls-14" d="M446.54,751.25c-5.59-24-18.78-83.57-20.45-118.45l-.29-6.21L430,622a135.2,135.2,0,0,0,24.95-39l3.94-10.62,10.9.81c2.24.06,32.25,0,70.38-32.61l1.16-1c15.11-13.15,29.45-29.77,42.77-49.54-33.55-10.92-55.1-8.71-55.34-8.68l-6-29.31c8.14-2.38,31-12,38.65-27.81,3.59-7.43,3.49-15.72-.29-25.32-27.4-52.85-35.35-68.74-35.68-69.39l-.41-.89c-.85-2-20.09-50.12,49.69-94.31l.56-.35.59-.3c11.9-6.15,21.85-11.09,30.62-15.46,36.86-18.32,38.37-20.09,39.13-28.43.46-5-13.65-15.35-28-20.42l-.59-.22c-8.18-3.27-19.39-11.72-25.6-26-3.33,9.55-4.39,19.51-.79,28.5l9.59,24-14,5.53c-19.44,7.71-72.7,34.51-85.4,65.55-16.49,40.31-18.57,70.56-7.61,111.27l10.93,27.37-19.46,2.27s-9.76,1.24-24.18,6.35c-29.94,10.62-72,34.47-102.16,87.88L332.25,487C367,425.56,415.74,398,450.51,385.65c4.66-1.66,8.92-3,12.69-4-11.49-45.26-8.6-81.13,9.89-126.32,15.28-37.37,64.26-64.53,88.45-76-15.82-47.59,32.65-94.68,34.77-96.71L633.79,46.7l-14.68,58.79c-7.43,26,5.75,34.19,9.13,35.82,7.52,2.72,50.12,19.62,47.24,51.21-2.37,26.09-18,33.84-55.64,52.58-8.53,4.24-18.19,9-29.63,14.94-44.07,28.14-38.6,53.3-37.53,56.91,2,3.91,11.25,22.25,35.39,68.81l.32.61.26.64c7.22,17.73,7.12,35.17-.31,50.44a67.16,67.16,0,0,1-13.86,18.78,241.57,241.57,0,0,1,38,12.37l16,6.68-8.93,14.89c-16.17,26.94-34.1,49.59-53.39,67.43v.14L561,562.23c-34.91,30.38-66.12,38.31-81.93,40.32a172.36,172.36,0,0,1-22.62,34.74c2.74,34.25,15.33,90.07,19.31,107.15Z"/><path class="cls-15" d="M349.32,585l.33-.42.22-.3.36-.56c.36-.55.74-1.17,1-1.69l.18-.34a33.42,33.42,0,0,0,2-4.11c.26-.64.52-1.34.83-2.26.24-.71.49-1.46.63-2l.09-.37.12-.37c.3-1,.57-2.29.87-3.78l.36-1.69,2.54-11.85h25.35l1.92,11.23a56,56,0,0,1,5.5-2.89l.14-.06A68.19,68.19,0,0,1,417,557.75c.8,0,1.59,0,2.38,0A63.82,63.82,0,0,1,442.64,562l13.27,5.19-9.18,27.59L433,591a35,35,0,0,0-9.35-1.26,36.48,36.48,0,0,0-4.18.24,37.64,37.64,0,0,0-12.94,3.94,21.39,21.39,0,0,0-2.19,1.32l-1.76,1.31c-1.11.85-2.12,1.49-2.93,2l-.12.08c-3.39,2.16-6.59,3.83-9.68,5.46l-.43.22c-2.84,1.46-6.22,3.16-9.79,4.73s-7.14,2.94-10.67,4.1l-57.42,19Z"/><path class="cls-16" d="M396.68,608.46a90.78,90.78,0,0,1-22.35-3.07l7.73-29-3.87,14.49L382,576.4c7.85,2.06,18.29,2.69,21.08,1.27a4.07,4.07,0,0,0-1.36,1.38l28.16-7c3.71,14.83-2.42,23.63-6.41,27.55C416.49,606.47,406.21,608.46,396.68,608.46Z"/><path class="cls-15" d="M330.32,712.09c-1-30.53-1-42.6-1-43.1v-9.27l8.3-4.14c2.12-1.06,13.3-6.36,24.8-6.36,12,0,21.3,5.78,25.62,15.86,6.83,15.94-1.49,30.65-14.26,38.68-3.73,7.1-11.45,18.42-24.17,22.22L331,731.55Z"/><polygon class="cls-15" points="347.68 581.99 384.53 576.91 391.18 651.71 361.49 655.79 347.68 581.99"/><path class="cls-15" d="M362.87,739a14.45,14.45,0,0,0-2.63-1.07,32.7,32.7,0,0,0-4-.81c-1.56-.19-3.17-.31-4.79-.36h-1.4c-1.21,0-2.34,0-3.28.12l-15.07,1.25L329,701.9l15.5-.65c1,0,2-.06,3-.06,1.74,0,3.51.06,5.56.18a84.27,84.27,0,0,1,8.49,1l.16,0a69.45,69.45,0,0,1,8.36,2l1.38-.77c1.18-.67,2.36-1.33,3.52-2,3.31-1.92,5.35-3.46,6.57-4.95l.1-.11a18.29,18.29,0,0,0,3.09-6.64l.39-1.31.23-1.1c.09-.46.2-.92.3-1.38s.19-.85.27-1.28c.11-.76.22-1.52.34-2.29.21-1.31.4-2.55.47-3.54l0-.27,0-.26c.33-3,.56-6.15.8-9.45l.33-4.39.09-1.13c.32-4.35.66-8.85,1.06-13.32.49-5.49,1-10.43,1.9-15.6l0-.2a54.81,54.81,0,0,1,2.6-9.52,38.58,38.58,0,0,1,5.78-10.11l23.93,18.07a8.88,8.88,0,0,0-1.22,2.3,27.1,27.1,0,0,0-.95,4.33c-.53,4-.76,8-1,12.87-.21,4.32-.36,8.79-.51,13.12l0,1c-.05,1.47-.1,2.88-.15,4.28-.11,3.34-.22,6.79-.45,10.35-.09,2.15-.31,4.12-.52,5.87-.07.67-.15,1.35-.22,2l0,.39c-.15,1.18-.33,2.22-.5,3.14l-.18,1-.43,2.51-.56,2.25a50.7,50.7,0,0,1-8.72,19.09c-4.73,6.27-10.61,10.42-15.21,13.34-1.29.82-2.55,1.59-3.8,2.37-2.74,1.69-5.32,3.29-7.68,4.93l-8.75,6.11Z"/><path class="cls-17" d="M244,751.8,214.74,745c4-17.18,16.68-73.36,19.44-107.7a171.91,171.91,0,0,1-22.62-34.74c-16-2-47.57-10.07-82.85-41.12-20.9-18.4-40.29-42.37-57.63-71.26l-8.93-14.89,16-6.68a242,242,0,0,1,38-12.37,67.38,67.38,0,0,1-13.87-18.78c-7.42-15.27-7.53-32.71-.31-50.44l.26-.64.32-.61C126.69,339.2,136,320.86,137.94,317c1.07-3.61,6.55-28.77-37.53-56.91-11.44-5.9-21.09-10.7-29.63-14.94-37.67-18.74-53.27-26.49-55.64-52.59-2.88-31.58,39.72-48.48,47.24-51.2,3.39-1.63,16.57-9.82,9.14-35.82l-.13-.49L56.82,46.69,94.31,82.55c2.12,2,50.6,49.12,34.77,96.71,24.2,11.51,73.17,38.67,88.46,76,18.48,45.19,21.37,81.05,9.88,126.32,3.59,1,7.63,2.25,12,3.79a212.74,212.74,0,0,1,58,31.25c24.51,18.55,45,42.23,60.92,70.38L332.25,501.8c-30.32-53.65-72.6-77.51-102.72-88.08-14.1-4.94-23.57-6.15-23.66-6.16l-19.48-2.25,11-27.38c11-40.71,8.88-71-7.61-111.27-12.7-31-66-57.84-85.41-65.55l-14-5.55L100,171.61c3.69-9.24,2.57-19.22-.75-28.6C93,157.4,81.75,165.88,73.55,169.16l-.61.23c-14.28,5.06-28.38,15.36-27.92,20.4.75,8.35,2.27,10.12,39.12,28.44,8.78,4.37,18.72,9.31,30.63,15.46l.58.3.56.35c69.78,44.19,50.54,92.29,49.69,94.31l-.41.89c-.32.65-8.27,16.54-35.67,69.39-3.79,9.6-3.88,17.89-.3,25.32,7.63,15.78,30.51,25.43,38.69,27.82l-6,29.3c-.17,0-21.77-2.25-55.35,8.68,13.09,19.42,27.16,35.81,42,48.85,39.85,35.08,71.92,34.31,72.25,34.32l11.12-.62,3.81,10.47A135.45,135.45,0,0,0,260.64,622l4.19,4.6-.3,6.21C262.86,667.74,249.59,727.66,244,751.8Z"/><path class="cls-15" d="M321.66,613.11c-3.53-1.16-7-2.5-10.61-4.07s-7-3.31-9.85-4.76l-.4-.21c-3.1-1.63-6.3-3.3-9.64-5.43l-.19-.12c-.81-.53-1.81-1.17-2.93-2l-1.76-1.31a20.3,20.3,0,0,0-2.19-1.33,37.73,37.73,0,0,0-13-3.93,35.42,35.42,0,0,0-13.48,1l-13.73,3.8-9.18-27.59L248,562a63.76,63.76,0,0,1,23.24-4.26c.79,0,1.59,0,2.38,0a68.15,68.15,0,0,1,25.26,5.76l.14.06a57.31,57.31,0,0,1,5.51,2.89l1.92-11.23h25.33l2.55,11.84q.19.87.36,1.71c.31,1.48.57,2.76.88,3.77l.11.37.1.38c.13.54.38,1.28.62,2,.32,1,.58,1.66.82,2.25a35.23,35.23,0,0,0,2,4.16l.19.33c.28.53.67,1.14,1,1.69l.15.24.25.36.13.18.09.13.29.37,37.78,47.12Z"/><path class="cls-15" d="M341,726c-12.71-3.8-20.44-15.12-24.16-22.22-12.78-8-21.1-22.74-14.27-38.68,4.32-10.08,13.66-15.86,25.62-15.86,11.51,0,22.68,5.3,24.81,6.36l8.29,4.14V669c0,.5,0,12.57-1,43.1l-.63,19.46Z"/><polygon class="cls-15" points="299.44 651.71 306.09 576.91 342.94 581.99 329.13 655.79 299.44 651.71"/><path class="cls-15" d="M309.5,738.09c-2.35-1.64-4.94-3.24-7.68-4.93l-3.77-2.35c-4.62-2.94-10.5-7.09-15.24-13.36a50.61,50.61,0,0,1-8.71-19.09l-.57-2.24-.43-2.52-.18-1c-.17-.92-.35-2-.5-3.14l0-.39c-.06-.68-.14-1.35-.22-2-.2-1.75-.43-3.72-.51-5.87-.24-3.57-.35-7-.46-10.39-.05-1.39-.09-2.79-.15-4.18l0-1.07c-.15-4.32-.31-8.8-.52-13.14-.23-4.67-.46-8.89-1-12.84a26.24,26.24,0,0,0-.93-4.27,9,9,0,0,0-1.24-2.36l23.93-18.07A38.62,38.62,0,0,1,297.06,625a55.68,55.68,0,0,1,2.58,9.47l0,.19c.93,5.16,1.41,10.11,1.9,15.57.4,4.55.75,9.1,1.08,13.5l.08,1c.11,1.39.21,2.84.32,4.29.24,3.31.47,6.45.8,9.49l0,.26,0,.27c.07,1,.27,2.23.47,3.54.12.77.24,1.53.35,2.3.07.42.17.84.26,1.26s.21.93.3,1.4l.24,1.08.39,1.32a18,18,0,0,0,3.09,6.64l.09.11c1.23,1.49,3.26,3,6.61,5,1.12.65,2.3,1.32,3.48,2l1.39.78a68.54,68.54,0,0,1,8.36-2l.16,0a81.88,81.88,0,0,1,8.41-1c2.12-.13,3.89-.19,5.63-.19q1.49,0,3,.06l15.5.65-2.75,36.24-15.06-1.25c-.94-.08-2.08-.12-3.29-.12h-1.42c-1.59.05-3.2.17-4.76.36a32.49,32.49,0,0,0-4,.81,14.76,14.76,0,0,0-2.63,1.07l-9.5,5.18Z"/><path class="cls-17" d="M345.79,797.25a314.9,314.9,0,0,1-75.56-9.16h0l-1.83-.46A313.89,313.89,0,0,1,31.61,483.07,313.26,313.26,0,0,1,124.8,259.74l21.1,21.32A284.25,284.25,0,0,0,274.82,758.31l.95.24A286,286,0,0,0,428.57,755l2.14-.65c1.44-.45,2.92-.93,4.49-1.45l2.21-1.15h1.2l2.56-.9,2.37-1H444c4.11-1.52,8.22-3.14,12.24-4.83a284.26,284.26,0,0,0,86.71-466.63l20.82-21.61a314.27,314.27,0,0,1-95.87,515.88c-5.33,2.24-10.78,4.36-16.21,6.31l-.11,0h0l-2.37.84-2.15.73-2.23,1.18h-1.28c-2.17.71-4.23,1.36-6.23,2l-2.14.64A314.32,314.32,0,0,1,345.79,797.25Z"/><circle class="cls-8" cx="345.79" cy="483.07" r="299.18"/><g id="direita-5" data-name="direita"><path class="cls-9" d="M461.15,747.84c-5-21.54-18.45-81.77-20.07-115.76,20-22,27.93-43.89,27.93-43.89s36.95,2,82.14-37.27h0c17.81-15.5,36.91-37.44,55.53-68.46-47.89-20-79.81-16-79.81-16s69.84-19.94,47.89-73.81c-27.94-53.88-35.91-69.84-35.91-69.84s-16-37.91,43.89-75.81c61.85-31.92,75.81-33.92,77.81-55.86s-37.91-35.93-37.91-35.93-29.93-12-18-53.87l2-8s-45.89,43.89-29.93,83.79l4,10S504.93,217.09,487,261s-20,77.81-8,121.71l4,10s-11,1.27-27.46,7.12c-29.59,10.48-76.89,35.68-110.21,94.63"/><path class="cls-10" d="M437,576.49A50.22,50.22,0,0,0,417.7,575a52.57,52.57,0,0,0-18.22,5.58,34.64,34.64,0,0,0-4,2.45l-2,1.45c-.7.54-1.43,1-2.15,1.47-2.89,1.84-5.86,3.39-8.83,4.94s-6,3-9,4.36-6.13,2.53-9.32,3.58L355,602l6.07-7.58c.23-.28.59-.74.88-1.15s.6-.87.9-1.31c.57-.9,1.14-1.81,1.66-2.77a50.17,50.17,0,0,0,2.83-5.91c.42-1,.79-2.06,1.15-3.12s.71-2.11,1-3.2c.65-2.17,1.05-4.4,1.54-6.68h.57a35.34,35.34,0,0,1,.51,7.06,38.24,38.24,0,0,1-.85,7.12,39.83,39.83,0,0,1-2.12,6.93c-.46,1.13-1,2.24-1.54,3.33-.3.55-.59,1.09-.92,1.63a18.24,18.24,0,0,1-1.1,1.67l-3.22-4.5c3-1.22,6-2.43,9.06-3.59s6.11-2.26,9.11-3.51a80.58,80.58,0,0,0,8.69-4.12c.69-.38,1.37-.77,2-1.19l1-.64c.37-.25.73-.51,1.11-.74a38.85,38.85,0,0,1,4.58-2.45,53.4,53.4,0,0,1,19.71-4.49A49.4,49.4,0,0,1,437.18,576Z"/><path class="cls-11" d="M378.19,590.9s43.91,11.71,37.17-15.25"/><path class="cls-10" d="M344.31,669s23.95-12,29.93,2-12,22-12,22-6,15.39-17,18.66C344.31,681,344.31,669,344.31,669Z"/><polygon class="cls-10" points="370.99 593.92 376.24 653.03 365.32 594.7 370.99 593.92"/><path class="cls-10" d="M345.1,716.24a62.65,62.65,0,0,1,7,.11,67.6,67.6,0,0,1,6.92.81,51.73,51.73,0,0,1,6.84,1.69,34.41,34.41,0,0,1,6.57,3l-2.48.06c4.12-2.63,8.41-4.92,12.49-7.27s7.84-5,10.69-8.44a32.74,32.74,0,0,0,6-12.18l.49-1.68.37-1.72c.23-1.15.52-2.29.71-3.45.32-2.34.78-4.66.95-7,.52-4.7.8-9.51,1.17-14.27s.72-9.55,1.14-14.32.88-9.55,1.73-14.28a40.59,40.59,0,0,1,1.86-7,23.78,23.78,0,0,1,3.57-6.23,23.56,23.56,0,0,0-3.29,6.33,39.28,39.28,0,0,0-1.57,7c-.65,4.72-.91,9.5-1.14,14.27s-.39,9.55-.56,14.34-.27,9.54-.6,14.37c-.08,2.42-.44,4.82-.68,7.23-.15,1.21-.4,2.4-.59,3.61l-.31,1.8-.45,1.79a35.93,35.93,0,0,1-6.09,13.59c-3.08,4.09-7.22,7.15-11.31,9.75s-8.18,5-12,7.66l-1.14.79-1.34-.73a29.25,29.25,0,0,0-5.65-2.31,47,47,0,0,0-6.18-1.26c-2.1-.27-4.23-.43-6.37-.49a60.08,60.08,0,0,0-6.33.15Z"/></g><g id="esquerda-5" data-name="esquerda"><path class="cls-12" d="M345.31,494.42C311.76,435.06,264,409.93,234.5,399.57c-16.15-5.66-26.85-6.9-26.85-6.9l4-10c12-43.9,10-77.81-8-121.71s-93.77-73.82-93.77-73.82l4-10C129.84,137.28,84,93.39,84,93.39l2,8c12,41.9-18,53.87-18,53.87s-39.9,14-37.9,35.93S46,215.1,107.89,247c59.85,37.9,43.89,75.81,43.89,75.81s-8,16-35.91,69.84c-22,53.87,47.88,73.81,47.88,73.81s-31.92-4-79.8,16c18.31,30.52,37.1,52.26,54.67,67.71,45.57,40.11,83,38,83,38s8,21.94,27.94,43.89c-1.64,34.28-15.29,95.26-20.2,116.32"/><path class="cls-10" d="M253.44,576a49.4,49.4,0,0,1,19.65-3.21,53.31,53.31,0,0,1,19.71,4.49,39,39,0,0,1,4.59,2.45c.37.23.73.49,1.1.74l1,.64c.62.42,1.31.81,2,1.19a80.74,80.74,0,0,0,8.7,4.12c3,1.25,6.05,2.36,9.1,3.51s6.08,2.37,9.07,3.59l-3.23,4.5a18.24,18.24,0,0,1-1.1-1.67c-.33-.54-.61-1.08-.91-1.63-.57-1.09-1.09-2.2-1.55-3.33a41.63,41.63,0,0,1-2.12-6.93,39.1,39.1,0,0,1-.85-7.12,35.34,35.34,0,0,1,.51-7.06h.57c.49,2.28.89,4.51,1.55,6.68.27,1.09.62,2.15,1,3.2s.73,2.1,1.15,3.12a48.64,48.64,0,0,0,2.83,5.91c.51,1,1.08,1.87,1.66,2.77.29.44.58.89.89,1.31s.65.87.88,1.15l6.08,7.58-9.31-3.08c-3.19-1-6.26-2.25-9.32-3.58s-6-2.83-9-4.36-5.93-3.1-8.83-4.94c-.72-.47-1.44-.93-2.15-1.47l-1.95-1.45a34.77,34.77,0,0,0-4-2.45A52.57,52.57,0,0,0,272.92,575a50.24,50.24,0,0,0-19.3,1.45Z"/><path class="cls-10" d="M346.31,669s-23.94-12-29.93,2,12,22,12,22,6,15.39,17,18.66C346.31,681,346.31,669,346.31,669Z"/><polygon class="cls-10" points="325.3 594.7 314.39 653.03 319.64 593.92 325.3 594.7"/><path class="cls-10" d="M345.1,721.94a60.21,60.21,0,0,0-6.34-.15c-2.13.06-4.27.22-6.37.49a46.51,46.51,0,0,0-6.17,1.26,28.74,28.74,0,0,0-5.65,2.31l-1.35.73-1.13-.79c-3.84-2.68-7.92-5.07-12-7.66s-8.23-5.66-11.31-9.75a35.75,35.75,0,0,1-6.08-13.59l-.45-1.79-.32-1.8c-.19-1.21-.44-2.4-.59-3.61-.23-2.41-.6-4.81-.68-7.23-.33-4.83-.41-9.59-.6-14.37s-.33-9.57-.55-14.34-.5-9.55-1.15-14.27a40.16,40.16,0,0,0-1.56-7,23.88,23.88,0,0,0-3.3-6.33,23.78,23.78,0,0,1,3.57,6.23,40.62,40.62,0,0,1,1.87,7c.84,4.73,1.29,9.51,1.72,14.28s.78,9.55,1.14,14.32.66,9.57,1.17,14.27c.17,2.37.63,4.69.95,7,.19,1.16.48,2.3.71,3.45l.37,1.72.5,1.68a32.59,32.59,0,0,0,6,12.18,38.22,38.22,0,0,0,10.68,8.44c4.08,2.35,8.37,4.64,12.49,7.27l-2.48-.06a34.41,34.41,0,0,1,6.57-3,52.12,52.12,0,0,1,6.84-1.69,67.6,67.6,0,0,1,6.92-.81,62.79,62.79,0,0,1,7-.11Z"/></g><path class="cls-18" d="M658.54,192.81a38.77,38.77,0,0,0-2-9.27,17.68,17.68,0,0,0-2.12-8.89,19.29,19.29,0,0,0-16.27-10.09l-1.4-1c-3.76-2.5-8-4-11.91-6.08-.83-.44-1.64-.92-2.42-1.42-.26-.18-.84-.58-1-.75-1.92-1.67-3.7-3.49-5.48-5.31a13.5,13.5,0,0,0-7.25-3.83c-.6-2.54-1.09-5.14-1.47-7.82-.48-3.38-3-6.24-6.07-8.09a40.83,40.83,0,0,0,.48-4.9c0-.84,1-2.49-.18-1,3.2-4,3.93-9.55,0-13.48-3.33-3.32-10.26-4.05-13.48,0-5.22,6.56-2.61,33.18-3.15,41.49-.15.21-6.73,10.06-6.86,10.28-6.45,10.71-7.29-2.62-2.43,9a20.16,20.16,0,0,0-.85,4,34.14,34.14,0,0,0,1.81,14.22,13.55,13.55,0,0,0-3.5,1.46c-11.4,6.75-22.63,13.2-33.09,21a81,81,0,0,0-22,9.73,15,15,0,0,0-7,11.84c-7.4,5.19-16.43,13.09-20.21,22.12a14.23,14.23,0,0,0-4,4.38,42.91,42.91,0,0,0-5.43,17.21c-1.42,4.6-3,9.13-4.74,13.42s-4.27,9.08-5.1,14c-.91,5.37-.36,10-1.71,13.86-1.67,4.79.22,10.4,3.83,14-.28,1.84-.52,3.68-.7,5.54a50.53,50.53,0,0,0,.28,12.66,11.28,11.28,0,0,0-.36,3.83c1.09,13.75,4.42,27.32,8.15,40.76A18.13,18.13,0,0,0,475,397c-9.24,3.58-18.8,7-28.31,10.58q-1.85.35-3.66.84a81.8,81.8,0,0,0-21.82,9.85c-14.77,7.05-28.59,15.66-39.95,27.59s-20.07,25.72-27.67,40.2q-4.47,3.85-8.72,7.92c-7.64-7.61-14.47-16-21.3-24.35-.18-.22-.35-.44-.53-.65a23.48,23.48,0,0,0-6.91-18,196.48,196.48,0,0,0-77.66-47.25,173.26,173.26,0,0,0-18.93-5l-11.94-5.27c.31-1.58.53-3.18.69-4.79,6.13-8.46,7.41-18.59,5.53-28.6a82.85,82.85,0,0,0,2.1-15.48,19,19,0,0,0-1.31-7.71l.21-2c1.25-12.85.74-25.8.22-38.67a24.16,24.16,0,0,0-8.25-17.06,23.43,23.43,0,0,0-2.6-7.75c-1.14-2.07-2.3-4.14-3.46-6.21-.2-1.74-.42-3.48-.67-5.24-.83-5.63-5.45-10.64-10.93-13.53-9.39-13.62-20.52-25.77-35.33-34.32-11.61-6.7-23.88-12.4-35.81-18.5-4.14-2.12-8.26-4.24-12.44-6.22a18.22,18.22,0,0,0,4.81-5.87c5-10.06,4.46-23.54,2-34.2-2.7-11.73-11.13-22-12-34.13-.51-7.3-12-7.36-11.44,0a42.83,42.83,0,0,0,1.21,7.43,4.32,4.32,0,0,0-3.27,3.9c-.91,6.34-1.7,12.72-2.62,19.07a5.46,5.46,0,0,0-4.8,1.59L69.34,155.72l-8.43,5-.22.15a22.66,22.66,0,0,0-4.53.67c-2.19.56-4.48,3.09-4.2,5.52a.13.13,0,0,1,0,.06,20.65,20.65,0,0,0-3.12.6c-14.75,4.06-21.78,21.81-14,34.94a37.08,37.08,0,0,0,17.55,15.07c3,1.25,35.87,6.16,39,6.48,4,4.3,17.37,12.58,22.07,16.07,5,3.72-10.74,4.24-5.57,7.72s-7.17.63-1.6,3.52c2.68,1.39,5.38,2.76,8,4.29,2,1.16,4.2,3.31,6.35,4.35-1.43-.75-1.89-1.75.32.14h0c.11.05.23.12.34.16l-.32-.13c.94.8,1.86,1.61,2.76,2.45,1.82,1.7,3.58,3.47,5.26,5.31s3.38,3.88,5,5.87l.14.2c.73,1,1.48,2.05,2.21,3.09a318.93,318.93,0,0,1,16.93,28.12,19.55,19.55,0,0,0,2.33,3.29,17.16,17.16,0,0,0-2.83,11.08c0,.11,0,.21,0,.32a22,22,0,0,0-5,14.11c-1.18,1.79-2.51,3.48-3.61,5.32a53.73,53.73,0,0,0-4.66,10.89c0,.16-.13.36-.22.57s-.39.49-.5.61c-.84.91-1.71,1.79-2.53,2.73A48.21,48.21,0,0,0,130,363a37.41,37.41,0,0,0-4.54,16.19,112.19,112.19,0,0,0-9.78,20c-2.18,5.86-4.09,12.39-3.66,18.68.44,6.59,2.67,12.93,7.28,17.78a24.48,24.48,0,0,0,2.13,2c2.47,5.46,6.24,9.29,11.32,12.61a17.91,17.91,0,0,0,3.76,1.83,27,27,0,0,0,5.84,3.71,21.48,21.48,0,0,0,7.34,4.42,25.39,25.39,0,0,0,5.38,3.06l.71.62h-.16a24.88,24.88,0,0,0-16.14,6.3,5.5,5.5,0,0,0-4.82.45c-.43.33-.89.64-1.34,1a32.77,32.77,0,0,0-13.24.94,16,16,0,0,0-6.17,3.46h0l-.66.07c-6.14-4.14-15-4.3-20.3,1.51a16.6,16.6,0,0,0-2.65,3.87c-5.11,1.16-6.83,9-1.57,10.73a13.73,13.73,0,0,0,4.22,7.64q4.25,3.89,8.28,8a14.75,14.75,0,0,0,1.44,3.29A50.43,50.43,0,0,0,112,522.82a64.35,64.35,0,0,0,5.81,4.59c.59.83,1.2,1.65,1.78,2.49a20.32,20.32,0,0,0,3.19,3.56,50.35,50.35,0,0,0,7.41,10.26c5.28,5.35,12,9.72,18,14.27q3.4,2.61,6.84,5.17a23.43,23.43,0,0,0,3,3.8,23.78,23.78,0,0,0,16.63,6.95,57.1,57.1,0,0,0,21.94,8.23,19.62,19.62,0,0,0,9.34,5.26c5.19,1.12,10.75,1.27,16.19,1.45a349.84,349.84,0,0,0,25.86,40.58,19.26,19.26,0,0,0-1.62,8.22,328.78,328.78,0,0,0,2.52,33.76c-1.05,1.8-2.1,3.59-3.17,5.36-4.51,7.48-8.35,15.6-7.59,24.58a62.52,62.52,0,0,0,2.19,11.38,140.41,140.41,0,0,0-7.86,16.46,12.87,12.87,0,0,0-.69,2.29,12.63,12.63,0,0,0-1.12,1.59c-4.1,7-1.31,15.26,5.13,19.56,8.33,5.55,18,8.8,27.6,11.33,1,1.29,7.52,1.6,9.1,2.35C301,780,319,775.72,357.23,777.75a150.18,150.18,0,0,0,50.06-6c7.73-2.34,15.57-4.78,22.89-8.21,3.26-1.54,7-1,10-3,1-.68,2.71.58,3.82,0,.08.07,3-1.93,3.81-1.91,7.45.94,10.72-9.72,10.41-16.77a14.21,14.21,0,0,0-3.86-9.52c-.32-5.08-1.71-10.49-2.48-15.44q-2-12.68-3.95-25.37c-1.65-10.57-3.6-21.12-7-31.17-.77-5.34-1.75-10.67-1.22-16.08a2.33,2.33,0,0,0-1.74-2.27c0-2.22-.08-4.44-.24-6.66a239.44,239.44,0,0,0,32.82-47.68l.49-.11a55.1,55.1,0,0,0,7.79-3,55.76,55.76,0,0,1,12.41-1.71c8.42-.34,16.05-2.14,23.37-6.44,6.16-3.62,11.65-8.47,17.12-13s11.5-9.31,16.6-14.54c.92-.94,1.8-2,2.64-3,11-8.34,21.42-17.34,30.26-27.93a17.16,17.16,0,0,0,3.8-8,84.09,84.09,0,0,0,11.34-9.66c8.62-8.78,2.39-24.45-10.11-24.4-9.72,0-19.61-2-29.23-3.26l-23.93-3.11a38.2,38.2,0,0,0-.21-8.49,44.5,44.5,0,0,0,13.5-7.23c12.07-5.4,22-13.69,26.83-27a42.17,42.17,0,0,0-1.06-30.22,16.26,16.26,0,0,0-2.61-11c-2.93-4.52-5.18-6.17-7.86-10.07-.47-.69-.92-1.38-1.37-2.08-.48-1.13-1-2.25-1.57-3.36a79.19,79.19,0,0,0-4.33-7,61.17,61.17,0,0,1-3.51-8.36,16.12,16.12,0,0,0-6-8c-.45-1.27-.9-2.56-1.36-3.9-5-14.83-9.46-28.61-8.06-43.88a21.51,21.51,0,0,0,4.18-4.23c3.79-5,6.38-10.66,9.81-15.87,2.82-4.3,7.61-9.15,11.66-13.65,6.31-7,12.5-14.2,19.16-20.9,4.61,2.67,10.76,3.13,14.86.22l13.06-9.25a16.83,16.83,0,0,0,6.44-8.71c14-3.61,27.82-9.06,36.34-21.2C655.43,202.88,659,197.88,658.54,192.81Z"/><path class="cls-19" d="M374.86,733.74s1.95,12.83-7.69,34.69"/><path class="cls-19" d="M315.94,734.07s-2.49,12.5,7.16,34.36"/><path class="cls-7" d="M148,459.46s98.7,7,144.65,15.43c44.37,8.16,35.8,17.86,50.14,16.07,32.8-4.09,59.73-17.88,82.93-20.57,114.43-13.29,107.57-7.29,107.57-7.29S616.47,440.82,546,339.89c-16.39-64.61-3.86-70.07,97.39-121.18,38.58-23.14,8.68-57.22-33.75-71.68-13.09-12.1-7.07-49.5-7.07-49.5s-24.21,32.3-26.73,80.48c-1.39,26.5-47.2,34.59-47.2,34.59S492,239.28,475.9,296.17c-15.23,53.9-3.08,79.69,4.5,95.15C431.54,403.53,359.33,462.1,344.86,493c-23.25-36.07-81.1-88.47-135.1-102.93,16.71-93.21,1.75-155.95-91.78-197.41-19.29-9.65,3.71-22.13-4-54.91s-32.78-54-32.78-54,13.17,56.25-9,67.82-78.43,44.36-4.5,70.07c67.48,23.47,89.35,68.79,85.5,90s-51.75,97.07-37.29,120.22S148,459.46,148,459.46Z"/><g id="barba-2" data-name="barba"><path class="cls-6" d="M372.21,717.46s11.36,22.94,4.23,37c-3.34-8.91-4.45-10.25-4.45-10.25s2.55,9.39-1,18.49l-5.28-8.46a40.81,40.81,0,0,1-2.7,19c-4,10.43-25.34,7.07-25.34,7.07l4.9-62.8Z"/><path class="cls-6" d="M318.71,717.46s-11.36,22.94-4.23,37c3.34-8.91,4.45-10.25,4.45-10.25s-2.49,10,.94,18.49l5.17-8.46s-.91,6.93,1.76,17.84,16.31.38,16.31.38l5.22-55Z"/><path class="cls-6" d="M374.33,720.46s22.07-42.86-15.22-45.86-16.92,34.5-16.92,34.5S338.54,726,374.33,720.46Z"/><path class="cls-6" d="M347.28,709.1s3.64,16.93-32.14,11.36c0,0-22.07-42.86,15.21-45.86"/></g><path class="cls-12" d="M135.35,270.4A298.25,298.25,0,0,0,46.61,483.07c0,139.78,95.88,257.18,225.46,290h0a301,301,0,0,0,160.86-3.74h0c2.72-.82,5.43-1.7,8.12-2.6h0c1.77-.6,3.51-1.19,5.25-1.82l.24-.08h0q7.81-2.8,15.42-6C569.53,713.46,645,607.07,645,483.07a298.34,298.34,0,0,0-91.64-215.5"/><path class="cls-20" d="M307.23,587.28a37.7,37.7,0,0,1-6.61-3.21,79.24,79.24,0,0,0-6.8-4.21c-4.82-2.32-10.13-3.64-15.21-5.23a2.1,2.1,0,0,0-1.24,0,2.51,2.51,0,0,0-.95-.19c-2.79,0-3,3.94-.75,4.65a14.1,14.1,0,0,0,.31,1.7,2.1,2.1,0,0,0-.45,1.38,7.72,7.72,0,0,0,2.3,5.29,13.16,13.16,0,0,0,1,1.28,9.38,9.38,0,0,0,6.89,2.85h.35c1.59.29,3.23.4,4.82.53a75.26,75.26,0,0,0,11.63,0,2.46,2.46,0,0,0,1.77-.86c.56.22,1.12.45,1.69.65a2.39,2.39,0,0,0,2.93-1.66A2.43,2.43,0,0,0,307.23,587.28Z"/><path class="cls-20" d="M415.2,576.4a2.29,2.29,0,0,0-2.88-1.81l-8.44,2.23a28.85,28.85,0,0,0-7.76,2.81,46.68,46.68,0,0,0-5.95,4.92c-1.74,1.51-3.76,2.79-6.14,2.61a2.31,2.31,0,0,0-1.37.38c-2.58.47-2.44,4.72.47,4.72a2.36,2.36,0,0,0,1.22-.33c.26,0,.52,0,.78,0,2.91,0,5.82,0,8.73,0h.2a3.28,3.28,0,0,0,1.4.8c1.67.46,3.81-.19,5.5-.41,3.75-.5,7.56-1.17,10.59-3.61a9.79,9.79,0,0,0,3.77-8.32A2.5,2.5,0,0,0,415.2,576.4Z"/><path class="cls-21" d="M219,344.88c7-40.54-6.84-84.14-36-113.17-13.13-13.07-29.28-24-45.87-32.21-4.29-2.12-36.94-24.86-16.13,1.66,3.68,4.69,8.85,10.33,13.22,13.48a217.14,217.14,0,0,1,65.66,76.57A212.55,212.55,0,0,1,219,344.88Z"/><path class="cls-21" d="M475.23,344.88c-7-40.54,6.84-84.14,36-113.17,13.13-13.07,29.28-24,45.87-32.21,4.3-2.12,36.94-24.86,16.13,1.66-3.68,4.69-8.85,10.33-13.22,13.48a217.24,217.24,0,0,0-65.66,76.57A212.52,212.52,0,0,0,475.23,344.88Z"/><path class="cls-21" d="M609.3,162.45c2.43,2.35,5.27,4.5,8.59,5.1s7.21-.75,8.61-3.83c1.16-2.53.41-5.59-1.11-7.92s-3.71-4.12-5.73-6a58.1,58.1,0,0,1-13.49-19.34c-1.42-3.3-4-19.33-9.16-10.49-3.25,5.6-1,17,.68,22.74A44.62,44.62,0,0,0,609.3,162.45Z"/><path class="cls-21" d="M82.26,162.45c-2.43,2.35-5.27,4.5-8.6,5.1s-7.2-.75-8.61-3.83c-1.15-2.53-.4-5.59,1.12-7.92s3.7-4.12,5.73-6a58.1,58.1,0,0,0,13.49-19.34c1.42-3.3,4-19.33,9.16-10.49,3.25,5.6,1,17-.69,22.74A44.6,44.6,0,0,1,82.26,162.45Z"/><path class="cls-21" d="M588.06,491.81c3,.55,6.09,1.18,9,.2a9.17,9.17,0,0,0,5.95-8.08c.83-14.32-32.35-7.53-39-9.31-10.32-2.76-15.3-16.21-25.86-15.25-20.85,1.91-43.07,22.26-50,45.21C521.54,492.76,553.41,485.4,588.06,491.81Z"/><path class="cls-21" d="M102.93,491.81c-3,.55-6.1,1.18-9,.2a9.18,9.18,0,0,1-6-8.08c-.83-14.32,32.36-7.53,39-9.31,10.32-2.76,15.3-16.21,25.85-15.25,20.85,1.91,43.08,22.26,50,45.21C169.45,492.76,137.57,485.4,102.93,491.81Z"/><path class="cls-22" d="M477.85,568.77c-5.21,2.31-11,5-12.93,9.74-1.12,2.8-1,5.41,1.91,7.62,3.81,2.86,6.44,4.08,10.37,3.07,42.39-10.9,80.76-36.34,107.89-70.62,5.15-6.5,16.18-18,16.79-26.35-6.27.59-13.28,8.29-18.07,12.07-10.62,8.4-21.47,16.48-32.71,24A481,481,0,0,1,477.85,568.77Z"/><path class="cls-22" d="M211.83,568.77c5.2,2.31,11,5,12.92,9.74,1.12,2.8,1,5.41-1.91,7.62-3.81,2.86-6.44,4.08-10.37,3.07-42.39-10.9-80.76-36.34-107.89-70.62-5.14-6.5-16.18-18-16.79-26.35,6.27.59,13.29,8.29,18.07,12.07,10.63,8.4,21.47,16.48,32.72,24A480,480,0,0,0,211.83,568.77Z"/><path class="cls-22" d="M312.47,643.41a138,138,0,0,0-1.36-20.63c-1.15-6.8-3.38-13.52-7.4-19.13-1.75-2.43-7.57-6.13-6.53-8.94.93-2.51,7.58-2.57,10.19-3.16a24,24,0,0,1,6.82-.85,8,8,0,0,1,6,3c1.71,2.38,1.43,5.59,1.07,8.49L317.73,631c-.58,4.77-1.86,10.39-2.44,15.16-.25,2.08,0,8.58-2.6,8C311.48,653.8,312.52,647,312.47,643.41Z"/><path class="cls-22" d="M377.54,643.41a136.71,136.71,0,0,1,1.35-20.63c1.15-6.8,3.38-13.52,7.4-19.13,1.75-2.43,7.57-6.13,6.53-8.94-.93-2.51-7.58-2.57-10.19-3.16a23.94,23.94,0,0,0-6.82-.85,8,8,0,0,0-6,3c-1.71,2.38-1.43,5.59-1.07,8.49L372.27,631c.58,4.77,1.48,10.39,2.06,15.16.26,2.08.38,8.58,3,8C378.53,653.8,377.48,647,377.54,643.41Z"/><path class="cls-22" d="M212.35,398.09c-10.29-1.21-20.65-2.6-30.43-6s-19-9-25.23-17.36a8.24,8.24,0,0,1-2-4.49c0-1.66,1.14-3.47,2.8-3.51a4.94,4.94,0,0,1,2.5.88,92.3,92.3,0,0,0,41.38,11.74c2.93.12,6,.13,8.59,1.44s4.62,4.41,3.61,7.15Z"/><path class="cls-22" d="M479.3,398.09c10.29-1.21,20.65-2.6,30.43-6s19-9,25.23-17.36a8.3,8.3,0,0,0,2-4.49c0-1.66-1.13-3.47-2.79-3.51a5,5,0,0,0-2.51.88,92.27,92.27,0,0,1-41.38,11.74c-2.92.12-6,.13-8.59,1.44s-4.62,4.41-3.6,7.15Z"/><path class="cls-22" d="M131,246.61c-13-12.07-29-20.28-45.31-27.21s-33.09-12.75-48.85-20.83c-3.53,2.56-2.63,8.43.51,11.44s7.62,4.06,11.78,5.36C68,221.31,83.52,234.72,100,245.77c10.14,6.8,20.85,12.8,30.38,20.43a78,78,0,0,1,14.63,15c1.29,1.78,2.79,6.16,5.34,6.05,3.38-.13,2.69-3.9,2.36-5.91C150.58,268.27,140.33,255.33,131,246.61Z"/><path class="cls-22" d="M559.8,246.61c13-12.07,29-20.28,45.31-27.21s33.1-12.75,48.85-20.83c3.53,2.56,2.64,8.43-.51,11.44s-7.62,4.06-11.78,5.36c-18.94,5.94-34.42,19.35-50.91,30.4-10.14,6.8-20.85,12.8-30.38,20.43a78.29,78.29,0,0,0-14.63,15c-1.28,1.78-2.79,6.16-5.34,6.05-3.38-.13-2.68-3.9-2.35-5.91C540.19,268.27,550.44,255.33,559.8,246.61Z"/><path class="cls-22" d="M404.74,647.34c1.85,18.19,3.67,36.89-1.31,54.48s-18.41,34-36.45,37c1.68-4,1.81-11.83,5.49-15.42s8.17-4.41,12.34-7.42c16.08-11.64,16.26-20.22,18.16-41.19C403.75,666.23,403.93,656.66,404.74,647.34Z"/><path class="cls-22" d="M286,647.34c-1.86,18.19-3.67,36.89,1.31,54.48s18.41,34,36.45,37c-1.68-4-1.81-11.83-5.5-15.42S310.07,719,305.9,716c-16.08-11.64-16.26-20.22-18.16-41.19C287,666.23,286.78,656.66,286,647.34Z"/><path class="cls-21" d="M327.32,741.38a29,29,0,0,0,8.84,1.69c7.33.62,14.76,1.24,22,0,2.91-.51,5.89-1.39,8-3.41,3-2.79,3.78-7.1,4.43-11.11.28-1.71.48-3.71-.73-5-.74-.78-4-1.86-5.06-2.09-11.11-2.42-20.39-2.6-31.75-2.11a23.55,23.55,0,0,0-8.42,1.51c-2.62,1.16-4.12,1.59-4.63,4.41C319.11,730.59,322.5,739.36,327.32,741.38Z"/><path class="cls-22" d="M577.93,193.22a74,74,0,0,0,18.51-8.05c1.24-.75,2.61-1.84,2.48-3.29a3,3,0,0,0-2.55-2.33,26.82,26.82,0,0,0-3.7-.12,17.26,17.26,0,0,1-5.77-1.7,17.89,17.89,0,0,0-5.76-1.72,6,6,0,0,0-5.33,2.22c-1.15,1.66-.78,4.34,1,5.22"/><path class="cls-22" d="M112.72,193.22a74.12,74.12,0,0,1-18.51-8.05c-1.24-.75-2.61-1.84-2.47-3.29a3,3,0,0,1,2.54-2.33,26.87,26.87,0,0,1,3.7-.12,17.19,17.19,0,0,0,5.77-1.7,17.89,17.89,0,0,1,5.76-1.72,6,6,0,0,1,5.33,2.22c1.15,1.66.78,4.34-1,5.22"/><g id="direita-6" data-name="direita"><path class="cls-23" d="M461.15,747.84c-5-21.54-18.45-81.77-20.07-115.76,20-22,27.93-43.89,27.93-43.89s36.95,2,82.14-37.27h0c17.81-15.5,36.91-37.44,55.53-68.46-47.89-20-79.81-16-79.81-16s69.84-19.94,47.89-73.81c-27.94-53.88-35.91-69.84-35.91-69.84s-16-37.91,43.89-75.81c61.85-31.92,75.81-33.92,77.81-55.86s-37.91-35.93-37.91-35.93-29.93-12-18-53.87l2-8s-45.89,43.89-29.93,83.79l4,10S504.93,217.09,487,261s-20,77.81-8,121.71l4,10s-11,1.27-27.46,7.12c-29.59,10.48-76.89,35.68-110.21,94.63"/><path class="cls-24" d="M437,576.49A50.22,50.22,0,0,0,417.7,575a52.57,52.57,0,0,0-18.22,5.58,34.64,34.64,0,0,0-4,2.45l-2,1.45c-.7.54-1.43,1-2.15,1.47-2.89,1.84-5.86,3.39-8.83,4.94s-6,3-9,4.36-6.13,2.53-9.32,3.58L355,602l6.07-7.58c.23-.28.59-.74.88-1.15s.6-.87.9-1.31c.57-.9,1.14-1.81,1.66-2.77a50.17,50.17,0,0,0,2.83-5.91c.42-1,.79-2.06,1.15-3.12s.71-2.11,1-3.2c.65-2.17,1.05-4.4,1.54-6.68h.57a35.34,35.34,0,0,1,.51,7.06,38.24,38.24,0,0,1-.85,7.12,39.83,39.83,0,0,1-2.12,6.93c-.46,1.13-1,2.24-1.54,3.33-.3.55-.59,1.09-.92,1.63a18.24,18.24,0,0,1-1.1,1.67l-3.22-4.5c3-1.22,6-2.43,9.06-3.59s6.11-2.26,9.11-3.51a80.58,80.58,0,0,0,8.69-4.12c.69-.38,1.37-.77,2-1.19l1-.64c.37-.25.73-.51,1.11-.74a38.85,38.85,0,0,1,4.58-2.45,53.4,53.4,0,0,1,19.71-4.49A49.4,49.4,0,0,1,437.18,576Z"/><path class="cls-25" d="M378.19,590.9s43.91,11.71,37.17-15.25"/><path d="M344.31,669s23.95-12,29.93,2-12,22-12,22-6,15.39-17,18.66C344.31,681,344.31,669,344.31,669Z"/><polygon class="cls-26" points="370.99 593.92 376.24 653.03 365.32 594.7 370.99 593.92"/><path class="cls-27" d="M345.1,716.24a62.65,62.65,0,0,1,7,.11,67.6,67.6,0,0,1,6.92.81,51.73,51.73,0,0,1,6.84,1.69,34.41,34.41,0,0,1,6.57,3l-2.48.06c4.12-2.63,8.41-4.92,12.49-7.27s7.84-5,10.69-8.44a32.74,32.74,0,0,0,6-12.18l.49-1.68.37-1.72c.23-1.15.52-2.29.71-3.45.32-2.34.78-4.66.95-7,.52-4.7.8-9.51,1.17-14.27s.72-9.55,1.14-14.32.88-9.55,1.73-14.28a40.59,40.59,0,0,1,1.86-7,23.78,23.78,0,0,1,3.57-6.23,23.56,23.56,0,0,0-3.29,6.33,39.28,39.28,0,0,0-1.57,7c-.65,4.72-.91,9.5-1.14,14.27s-.39,9.55-.56,14.34-.27,9.54-.6,14.37c-.08,2.42-.44,4.82-.68,7.23-.15,1.21-.4,2.4-.59,3.61l-.31,1.8-.45,1.79a35.93,35.93,0,0,1-6.09,13.59c-3.08,4.09-7.22,7.15-11.31,9.75s-8.18,5-12,7.66l-1.14.79-1.34-.73a29.25,29.25,0,0,0-5.65-2.31,47,47,0,0,0-6.18-1.26c-2.1-.27-4.23-.43-6.37-.49s-4.76-.06-6.76.1Z"/></g><g id="esquerda-6" data-name="esquerda"><path class="cls-28" d="M345.31,494.42C311.76,435.06,264,409.93,234.5,399.57c-16.15-5.66-26.85-6.9-26.85-6.9l4-10c12-43.9,10-77.81-8-121.71s-93.77-73.82-93.77-73.82l4-10C129.84,137.28,84,93.39,84,93.39l2,8c12,41.9-18,53.87-18,53.87s-39.9,14-37.9,35.93S46,215.1,107.89,247c59.85,37.9,43.89,75.81,43.89,75.81s-8,16-35.91,69.84c-22,53.87,47.88,73.81,47.88,73.81s-31.92-4-79.8,16c18.31,30.52,37.1,52.26,54.67,67.71,45.57,40.11,83,38,83,38s8,21.94,27.94,43.89c-1.64,34.28-15.29,95.26-20.2,116.32"/><path class="cls-29" d="M253.44,576a49.4,49.4,0,0,1,19.65-3.21,53.31,53.31,0,0,1,19.71,4.49,39,39,0,0,1,4.59,2.45c.37.23.73.49,1.1.74l1,.64c.62.42,1.31.81,2,1.19a80.74,80.74,0,0,0,8.7,4.12c3,1.25,6.05,2.36,9.1,3.51s6.08,2.37,9.07,3.59l-3.23,4.5a18.24,18.24,0,0,1-1.1-1.67c-.33-.54-.61-1.08-.91-1.63-.57-1.09-1.09-2.2-1.55-3.33a41.63,41.63,0,0,1-2.12-6.93,39.1,39.1,0,0,1-.85-7.12,35.34,35.34,0,0,1,.51-7.06h.57c.49,2.28.89,4.51,1.55,6.68.27,1.09.62,2.15,1,3.2s.73,2.1,1.15,3.12a48.64,48.64,0,0,0,2.83,5.91c.51,1,1.08,1.87,1.66,2.77.29.44.58.89.89,1.31s.65.87.88,1.15l6.08,7.58-9.31-3.08c-3.19-1-6.26-2.25-9.32-3.58s-6-2.83-9-4.36-5.93-3.1-8.83-4.94c-.72-.47-1.44-.93-2.15-1.47l-1.95-1.45a34.77,34.77,0,0,0-4-2.45A52.57,52.57,0,0,0,272.92,575a50.24,50.24,0,0,0-19.3,1.45Z"/><path d="M346.31,669s-23.94-12-29.93,2,12,22,12,22,6,15.39,17,18.66C346.31,681,346.31,669,346.31,669Z"/><polygon class="cls-30" points="325.3 594.7 314.39 653.03 319.64 593.92 325.3 594.7"/><path class="cls-31" d="M345.19,721.89c-2-.16-4.31-.15-6.43-.1s-4.27.22-6.37.49a46.51,46.51,0,0,0-6.17,1.26,28.74,28.74,0,0,0-5.65,2.31l-1.35.73-1.13-.79c-3.84-2.68-7.92-5.07-12-7.66s-8.23-5.66-11.31-9.75a35.75,35.75,0,0,1-6.08-13.59l-.45-1.79-.32-1.8c-.19-1.21-.44-2.4-.59-3.61-.23-2.41-.6-4.81-.68-7.23-.33-4.83-.41-9.59-.6-14.37s-.33-9.57-.55-14.34-.5-9.55-1.15-14.27a40.16,40.16,0,0,0-1.56-7,23.88,23.88,0,0,0-3.3-6.33,23.78,23.78,0,0,1,3.57,6.23,40.62,40.62,0,0,1,1.87,7c.84,4.73,1.29,9.51,1.72,14.28s.78,9.55,1.14,14.32.66,9.57,1.17,14.27c.17,2.37.63,4.69.95,7,.19,1.16.48,2.3.71,3.45l.37,1.72.5,1.68a32.59,32.59,0,0,0,6,12.18,38.22,38.22,0,0,0,10.68,8.44c4.08,2.35,8.37,4.64,12.49,7.27l-2.48-.06a34.41,34.41,0,0,1,6.57-3,52.12,52.12,0,0,1,6.84-1.69,67.6,67.6,0,0,1,6.92-.81,62.79,62.79,0,0,1,7-.11Z"/></g><path class="cls-25" d="M312.18,590.9S268.27,602.61,275,575.65"/><line class="cls-32" x1="551.15" y1="550.92" x2="551.15" y2="550.91"/><path d="M371,723.86a12.54,12.54,0,0,1,.85,4.81,16.88,16.88,0,0,1-.66,4.73,14.45,14.45,0,0,1-2,4.43,8.1,8.1,0,0,1-3.86,3.18c.49-1.65.79-3,1.15-4.45s.68-2.8,1.09-4.2.85-2.8,1.38-4.22A23.4,23.4,0,0,1,371,723.86Z"/><path d="M319.58,723.86a23.4,23.4,0,0,1,2.09,4.28c.54,1.42,1,2.82,1.39,4.22s.73,2.8,1.09,4.2.66,2.8,1.15,4.45a8.08,8.08,0,0,1-3.87-3.18,14.69,14.69,0,0,1-2-4.43,17.26,17.26,0,0,1-.66-4.73A12.93,12.93,0,0,1,319.58,723.86Z"/><path class="cls-6" d="M368.22,620.17s-10.61-7.71-20.25-3.43c-8.44,3.75-11-6.24-25.39,1.26l-2.33,14.39s5.14-7.8,19.6-3.42a12.36,12.36,0,0,0,6.9-.05c11.59-3.28,23.29,2.82,23.29,2.82Z"/></g><path d="M373.38,718.2a65.56,65.56,0,0,0,3.89-9.25,54.45,54.45,0,0,0,2.36-9.82,30.07,30.07,0,0,0-.2-10.06,17.87,17.87,0,0,0-4.62-9,18.28,18.28,0,0,1,3.41,3.92,19.52,19.52,0,0,1,2.18,4.78,31.36,31.36,0,0,1,1.22,10.47,56.77,56.77,0,0,1-1.46,10.47A69.77,69.77,0,0,1,377,719.93l-.75,1.86L372.46,720Z"/><path d="M312.37,719.93a69.72,69.72,0,0,1-3.16-10.17,56,56,0,0,1-1.47-10.47A31.36,31.36,0,0,1,309,688.82a19.52,19.52,0,0,1,2.18-4.78,18.56,18.56,0,0,1,3.41-3.92,17.87,17.87,0,0,0-4.62,9,29.81,29.81,0,0,0-.19,10.06,53.59,53.59,0,0,0,2.35,9.82A66.76,66.76,0,0,0,316,718.2l.92,1.78-3.78,1.81Z"/><path d="M571.68,469.74c-19.5.52-38.83,1.31-58,2.53-19.12-.82-38.27-.82-57.3.16s-38,3-56.33,7a181,181,0,0,0-26.75,7.82A96.1,96.1,0,0,0,349.56,500l-4.38,3.34-4.3-3.48c-6.58-5.34-14.74-9.34-23.26-12.51a186.5,186.5,0,0,0-26.75-7.4c-18.36-3.71-37.27-5.59-56.22-6.63s-38.06-1.15-57.12-.58c-9.57-.76-19.16-1.41-28.79-2-4.81-.32-9.64-.59-14.46-.83s-9.67-.51-14.52-.76c4.71-1.2,9.46-2.19,14.22-3.22s9.53-1.87,14.32-2.75c9.57-1.74,19.19-3.21,28.86-4.48,19.38-.42,38.79-.38,58.23.67s38.92,3,58.28,6.9a198.44,198.44,0,0,1,28.81,8c9.44,3.53,18.85,8,27.26,14.8l-8.68-.14a109.72,109.72,0,0,1,27.15-14.68A195.66,195.66,0,0,1,397,465.74c19.42-4.2,39-6.25,58.58-7.29s39.1-.94,58.58-.23q14.56,2.05,28.95,4.89C552.73,465,562.27,467.15,571.68,469.74Z"/></g></g></g></svg>