<svg xmlns="http://www.w3.org/2000/svg" xmlns:xlink="http://www.w3.org/1999/xlink" viewBox="0 0 354.65 429.32"><defs><style>.cls-1{fill:#562210;}.cls-2{fill:url(#Gradiente_sem_nome_5);}</style><linearGradient id="Gradiente_sem_nome_5" x1="177.33" y1="309.01" x2="177.33" y2="72.71" gradientUnits="userSpaceOnUse"><stop offset="0" stop-color="#efc12e"/><stop offset="1" stop-color="#ff5240"/></linearGradient></defs><title>logo-p-marrom-lip</title><g id="Camada_2" data-name="Camada 2"><g id="reduzida"><path class="cls-1" d="M24.8,117.69C7,75.32,35,0,35,0,20,7.91,8.7,39.59,2.75,74.5,6.89,84,15.26,102.19,24.8,117.69Z"/><path class="cls-1" d="M175.34,401.67c0-34.68-65.33-61.3-86.3-86.3,0,0-15.55-14.3-27.39-48.67C49.78,300.19,55.87,340.86,89,363.76c33.87,23.39,49.2,30.65,72.59,57.27S175.34,401.67,175.34,401.67Z"/><path class="cls-1" d="M67.83,249.42S74.6,272,81.16,292.28C82.6,276,95,257.52,95.49,224.23c.87-53.21-28.89-66.18-55.62-86.54C28.8,129.26,5.15,116.63,1.52,82.39c-7.14,51.66,11.32,58.27,45.58,89.41C77.14,199.11,76.55,222.37,67.83,249.42Z"/><path class="cls-1" d="M329.85,117.69C347.66,75.32,319.65,0,319.65,0c15,7.91,26.3,39.59,32.25,74.5C347.76,84,339.39,102.19,329.85,117.69Z"/><path class="cls-1" d="M179.31,401.67c0-34.68,65.33-61.3,86.3-86.3,0,0,15.55-14.3,27.4-48.67,11.86,33.49,5.77,74.16-27.4,97.06C231.74,387.15,216.41,394.41,193,421S179.31,401.67,179.31,401.67Z"/><path class="cls-1" d="M286.82,249.42s-6.76,22.6-13.32,42.86c-1.45-16.25-13.79-34.76-14.34-68-.87-53.21,28.89-66.18,55.62-86.54,11.07-8.43,34.72-21.06,38.35-55.3,7.14,51.66-11.32,58.27-45.57,89.41C277.52,199.11,278.11,222.37,286.82,249.42Z"/><polygon class="cls-1" points="112.28 325.01 112.28 56.71 199.07 56.71 242.38 81.69 242.38 300.02 199.07 325.01 112.28 325.01"/><path class="cls-2" d="M194.79,72.71l31.59,18.22V290.78L194.79,309H128.27V72.71h66.52Zm-3,151.86V113.41l-10.63-6.07H162.9v167h18.22l10.63-6.07Z"/></g></g></svg>