<svg xmlns="http://www.w3.org/2000/svg" xmlns:xlink="http://www.w3.org/1999/xlink" viewBox="0 0 368.33 397.46"><defs><style>.cls-1{fill:#562210;}.cls-2{fill:url(#Gradiente_sem_nome_5);}</style><linearGradient id="Gradiente_sem_nome_5" x1="184.17" y1="283.13" x2="184.17" y2="66.72" gradientUnits="userSpaceOnUse"><stop offset="0" stop-color="#efc12e"/><stop offset="1" stop-color="#ff5240"/></linearGradient></defs><title>logo-p-marrom_1-lip</title><g id="Camada_2" data-name="Camada 2"><g id="reduzida"><path class="cls-1" d="M23,109C6.47,69.73,32.4,0,32.4,0,18.5,7.32,8.05,36.65,2.54,69,6.38,77.75,14.13,94.61,23,109Z"/><path class="cls-1" d="M162.33,371.86c0-32.11-60.48-56.75-79.9-79.9,0,0-14.39-13.23-25.36-45-11,31-5.34,68.66,25.36,89.86,31.36,21.65,45.55,28.37,67.2,53S162.33,371.86,162.33,371.86Z"/><path class="cls-1" d="M62.8,230.91s6.26,20.92,12.33,39.68c1.34-15,12.77-32.18,13.27-63,.81-49.26-26.74-61.27-51.49-80.12C26.66,119.66,4.77,108,1.41,76.27c-6.61,47.83,10.48,54,42.19,82.78C71.41,184.33,70.86,205.87,62.8,230.91Z"/><path class="cls-1" d="M345.37,109C361.86,69.73,335.93,0,335.93,0c13.91,7.32,24.35,36.65,29.86,69C362,77.75,354.21,94.61,345.37,109Z"/><path class="cls-1" d="M206,371.86c0-32.11,60.49-56.75,79.9-79.9,0,0,14.39-13.23,25.36-45,11,31,5.35,68.66-25.36,89.86-31.36,21.65-45.55,28.37-67.2,53S206,371.86,206,371.86Z"/><path class="cls-1" d="M305.54,230.91s-6.27,20.92-12.34,39.68c-1.34-15-12.77-32.18-13.27-63-.81-49.26,26.75-61.27,51.49-80.12,10.25-7.81,32.14-19.5,35.5-51.2,6.62,47.83-10.48,54-42.19,82.78C296.92,184.33,297.47,205.87,305.54,230.91Z"/><polygon class="cls-1" points="124.59 297.79 124.59 52.07 204.09 52.07 243.74 74.95 243.74 274.91 204.09 297.79 124.59 297.79"/><path class="cls-2" d="M200.16,66.72l28.93,16.69v183l-28.93,16.69H139.24V66.72h60.92Zm-2.78,139.09V104l-9.74-5.57H171v153h16.69l9.74-5.56Z"/></g></g></svg>