<svg xmlns="http://www.w3.org/2000/svg" xmlns:xlink="http://www.w3.org/1999/xlink" viewBox="0 0 1287.21 669.97"><defs><style>.cls-1{isolation:isolate;}.cls-2{fill:#562210;}.cls-3{fill:url(#Gradiente_sem_nome_5);}.cls-4{fill:url(#Gradiente_sem_nome_5-2);}.cls-5{fill:url(#Gradiente_sem_nome_5-3);}.cls-6{fill:url(#Gradiente_sem_nome_5-4);}.cls-10,.cls-14,.cls-15,.cls-16,.cls-7{fill:none;}.cls-7{stroke:#562210;stroke-width:40px;}.cls-10,.cls-14,.cls-7,.cls-8{stroke-miterlimit:10;}.cls-10,.cls-14,.cls-15,.cls-16,.cls-8{stroke:#000;}.cls-10,.cls-14,.cls-8{stroke-width:10px;}.cls-8{fill:url(#Gradiente_sem_nome_5-5);}.cls-12,.cls-13,.cls-9{fill:#23113f;}.cls-11{fill:#efc12e;}.cls-12{opacity:0.7;mix-blend-mode:screen;}.cls-13{mix-blend-mode:overlay;}.cls-14,.cls-15,.cls-16{stroke-linecap:round;}.cls-15,.cls-16{stroke-linejoin:bevel;}.cls-15{stroke-width:6px;}.cls-16{stroke-width:4px;}</style><linearGradient id="Gradiente_sem_nome_5" x1="834.31" y1="483.84" x2="834.31" y2="224.89" gradientUnits="userSpaceOnUse"><stop offset="0" stop-color="#efc12e"/><stop offset="1" stop-color="#ff5240"/></linearGradient><linearGradient id="Gradiente_sem_nome_5-2" x1="961.5" y1="461.52" x2="961.5" y2="224.89" xlink:href="#Gradiente_sem_nome_5"/><linearGradient id="Gradiente_sem_nome_5-3" x1="1089.61" y1="461.52" x2="1089.61" y2="224.89" xlink:href="#Gradiente_sem_nome_5"/><linearGradient id="Gradiente_sem_nome_5-4" x1="1216.77" y1="483.84" x2="1216.77" y2="224.89" xlink:href="#Gradiente_sem_nome_5"/><linearGradient id="Gradiente_sem_nome_5-5" x1="49.82" y1="407.83" x2="534.11" y2="407.83" xlink:href="#Gradiente_sem_nome_5"/></defs><title>vertical_1-dusk</title><g class="cls-1"><g id="Camada_2" data-name="Camada 2"><g id="preview"><g id="vertical"><g id="laranja"><path class="cls-2" d="M763.89,208.2h93.84l80.38.32c10.87,5.92-54.55,13.63-42.33,20l9,4.7,0,14.75-.55,197.58,0,9-7.53,4.93c-11.63,7.6,30.22,9.14,19.23,17L859.45,485l-4.11.71c-11.33,1.89-22.72,4-33.93,6.25-5.47,1.11-11,2.28-16.55,3.48-6.79,1.49-13.64,3.06-20.38,4.68L763.89,505Z"/><path class="cls-2" d="M891.41,208.2h140.85l-.08,263.23-16.52.15c-12.48.12-25.13.48-37.59,1.05-10.39.48-20.92,1.12-31.29,1.92-12.45.95-25.06,2.14-37.48,3.55l-18.61,2.11Z"/><path class="cls-2" d="M1027.9,337.28l-9-4.66,0-13.42,0-111h140.85l.29,107.89-4.92,21.3c-5.54-.19,4.64,12.23-.92,12.06,8.92,5-10.66-24.6-2.35-19.74l8.26,4.83V345.4l.37,134.81-18.62-2.11c-12.42-1.41-25-2.6-37.48-3.56-10.38-.79-20.91-1.43-31.29-1.91-12.46-.57-25.11-.93-37.59-1.05l-16.52-.15,0-123.49"/><path class="cls-2" d="M1287.21,345V505l-20.59-4.94c-12.18-2.93-24.61-5.67-36.93-8.16l-13.37-2.69v-.07l-17.56-3c-12.35-2.11-24.89-4-37.28-5.65L1147,478.6l-.74-270.4h140.93V343.35"/><path class="cls-3" d="M853.48,224.89q17.28,9.42,34.56,18.44c0,.62,0,1.23,0,1.84v2.77q0,16.9-.1,33.8c0,1.54,0,3.08,0,4.61q0,12-.07,24l-.18,68.22q0,12.15-.07,24.28c0,1.54,0,3.08,0,4.61q0,16.76-.1,33.5V444c0,.51,0,1,0,1.54q-17.34,11.34-34.62,23.61l-.33.06q-17.25,2.88-34.42,6.34-8.42,1.71-16.82,3.54-10.37,2.27-20.71,4.75V224.89h72.9Zm-3.72,157.34q.09-34.94.17-69.86.06-22.65.11-45.31c-3.87-2-7.75-4-11.62-6l-19.95.56-.3,177.21q9.93-1.71,19.86-3.25,5.81-4.06,11.62-8Q849.71,404.89,849.76,382.23Z"/><path class="cls-4" d="M1015.5,454.9q-19.11.18-38.2,1.06-15.91.74-31.8,1.94-19.05,1.47-38.07,3.62l.09-34.67.54-202H946l-.42,198.87q15.87-1,31.77-1.66l.27-197.21h38l-.06,196.3Q1015.5,438.05,1015.5,454.9Z"/><path class="cls-5" d="M1143,224.89q0,17.34.1,34.67,0,19.62.1,39.24-19-.68-38-1.13,0-19.32-.08-38.64-15.83-.16-31.64-.28l.06,46.63c23.26,12.35,46.53,25.14,69.77,38.74,0,.4,0,.81,0,1.21v2.13l.09,31.33v3l.12,45q.06,17.34.1,34.68-19-2.16-38.08-3.62-15.88-1.22-31.8-1.94-19.08-.88-38.19-1.06,0-16.86,0-33.71,0-28.23,0-56.46,19.05.11,38.1.64,0,28.36.08,56.73,15.88.63,31.76,1.66l-.12-57.8q5.85.27,11.68.58l-.67-.34q-5.51-3.13-11-6.23c-23.28-13.12-46.57-25.5-69.83-37.52V319.2q0-15.22,0-30.45V258.59q0-16.84,0-33.7H1143Z"/><path class="cls-6" d="M1270.52,332.73q-9.11,4.26-18.2,8.42,9.11,6.15,18.2,12.55V483.84q-18.7-4.48-37.53-8.29-.08-49.46-.16-98.91,5.79.71,11.58,1.45l-.66-.41q-5.46-3.78-10.93-7.48-15.77-10.69-31.56-20.7l.3,120.21q-18.9-3.21-37.89-5.73-.18-68.84-.38-137.68c0-1.12,0-2.25,0-3.38q0-15.82-.08-31.65c0-1,0-2,0-3.07l-.18-63.31h38l.21,85.28q15.81,9.58,31.58,19.76-.09-52.53-.17-105h37.94Z"/></g><g id="amarleo"><g id="borda_amarelo" data-name="borda amarelo"><circle class="cls-7" cx="291.96" cy="407.83" r="242.14"/><g id="direita"><path class="cls-7" d="M391.32,625.9c-4.33-18.56-15.9-70.43-17.29-99.7,17.19-18.91,24.06-37.8,24.06-37.8s31.82,1.76,70.74-32.1h0c15.34-13.35,31.79-32.24,47.82-59-41.24-17.19-68.73-13.75-68.73-13.75S508.06,366.4,489.16,320c-24.06-46.41-30.93-60.15-30.93-60.15s-13.75-32.65,37.8-65.29c53.27-27.49,65.29-29.22,67-48.11s-32.64-30.94-32.64-30.94-25.78-10.31-15.47-46.39l1.72-6.87s-39.53,37.8-25.78,72.16l3.44,8.6S429,168.79,413.55,206.59s-17.18,67-6.87,104.82l3.43,8.6s-9.45,1.1-23.65,6.13c-25.47,9-66.21,30.73-94.91,81.5"/><path class="cls-7" d="M370.52,478.32a43.29,43.29,0,0,0-16.62-1.25,45.14,45.14,0,0,0-15.69,4.81,31.1,31.1,0,0,0-3.43,2.1l-1.68,1.25c-.61.47-1.23.87-1.86,1.27-2.49,1.59-5.05,2.92-7.6,4.26s-5.13,2.59-7.75,3.75-5.28,2.18-8,3.09l-8,2.65,5.23-6.53c.2-.25.51-.64.76-1s.52-.75.77-1.13c.5-.77,1-1.56,1.43-2.38a42.69,42.69,0,0,0,2.44-5.1c.36-.87.68-1.77,1-2.68s.61-1.82.84-2.76c.57-1.87.91-3.79,1.33-5.75h.5a30.79,30.79,0,0,1,.43,6.08,33.53,33.53,0,0,1-.73,6.13,34.53,34.53,0,0,1-1.83,6c-.39,1-.84,1.93-1.33,2.87-.25.47-.5.94-.79,1.4a14.54,14.54,0,0,1-.94,1.44l-2.78-3.88c2.57-1.05,5.2-2.09,7.81-3.09s5.26-2,7.84-3a69.53,69.53,0,0,0,7.49-3.55c.59-.33,1.18-.66,1.72-1l.85-.55c.31-.22.63-.43.95-.63a34.12,34.12,0,0,1,3.94-2.12,46,46,0,0,1,17-3.86,42.56,42.56,0,0,1,16.92,2.76Z"/><path class="cls-7" d="M319.87,490.73s37.82,10.08,32-13.13"/><path class="cls-7" d="M290.69,558s20.62-10.31,25.78,1.71-10.31,18.91-10.31,18.91-5.16,13.25-14.61,16.07C290.69,568.3,290.69,558,290.69,558Z"/><polygon class="cls-7" points="313.66 493.33 318.19 544.24 308.78 494 313.66 493.33"/><path class="cls-7" d="M291.37,598.67a55,55,0,0,1,6,.1,57.27,57.27,0,0,1,6,.7,44.43,44.43,0,0,1,5.89,1.46,28.56,28.56,0,0,1,5.66,2.6l-2.14.05c3.55-2.27,7.24-4.24,10.76-6.26a32.72,32.72,0,0,0,9.2-7.27,28,28,0,0,0,5.18-10.5l.43-1.44.32-1.48c.2-1,.45-2,.61-3,.28-2,.67-4,.82-6,.44-4.05.68-8.19,1-12.3s.62-8.22,1-12.33.76-8.23,1.48-12.3a35.67,35.67,0,0,1,1.61-6,20.58,20.58,0,0,1,3.08-5.36,20.38,20.38,0,0,0-2.84,5.45,34,34,0,0,0-1.35,6c-.56,4.07-.78,8.18-1,12.29s-.33,8.23-.47,12.35-.24,8.22-.52,12.38c-.07,2.08-.38,4.15-.59,6.22-.12,1-.34,2.07-.51,3.11l-.27,1.55-.38,1.54a31,31,0,0,1-5.25,11.71,36,36,0,0,1-9.73,8.39c-3.54,2.24-7.05,4.29-10.36,6.6l-1,.68-1.16-.63a26.08,26.08,0,0,0-4.86-2,42.49,42.49,0,0,0-5.32-1.09c-1.81-.23-3.65-.37-5.49-.42a54.36,54.36,0,0,0-5.45.13Z"/></g><g id="esquerda"><path class="cls-7" d="M291.55,407.64c-28.89-51.12-70-72.77-95.44-81.69C182.21,321.07,173,320,173,320l3.43-8.6c10.31-37.81,8.6-67-6.87-104.82S88.79,143,88.79,143l3.44-8.6C106,100.06,66.46,62.26,66.46,62.26l1.71,6.87c10.31,36.08-15.46,46.39-15.46,46.39s-34.37,12-32.65,30.94,13.74,20.62,67,48.11c51.54,32.64,37.79,65.29,37.79,65.29S118,273.6,94,320C75,366.4,135.18,383.58,135.18,383.58s-27.49-3.44-68.72,13.75c15.77,26.29,32,45,47.08,58.32C152.79,490.19,185,488.4,185,488.4s6.87,18.89,24,37.8c-1.41,29.51-13.16,82-17.39,100.17"/><path class="cls-7" d="M212.43,477.85a42.58,42.58,0,0,1,16.92-2.76,45.9,45.9,0,0,1,17,3.86,33.45,33.45,0,0,1,3.95,2.12c.32.2.63.41.95.63l.85.55c.53.37,1.13.7,1.72,1a68.48,68.48,0,0,0,7.48,3.55c2.58,1.07,5.22,2,7.84,3s5.24,2,7.81,3.09l-2.78,3.88a14.54,14.54,0,0,1-.94-1.44c-.29-.46-.53-.93-.79-1.4-.49-.94-.94-1.9-1.33-2.87a35.42,35.42,0,0,1-1.83-6,33.53,33.53,0,0,1-.73-6.13,30.79,30.79,0,0,1,.44-6.08h.49c.42,2,.76,3.88,1.33,5.75.23.94.54,1.85.84,2.76s.63,1.81,1,2.68a41.15,41.15,0,0,0,2.43,5.1c.45.82.94,1.61,1.43,2.38.26.38.51.77.77,1.13s.56.74.76,1l5.23,6.53-8-2.65c-2.75-.91-5.4-1.94-8-3.09s-5.19-2.44-7.75-3.75-5.11-2.67-7.6-4.26c-.62-.4-1.25-.8-1.86-1.27L248.32,484a31,31,0,0,0-3.42-2.1,45.25,45.25,0,0,0-15.7-4.81,43.22,43.22,0,0,0-16.61,1.25Z"/><path class="cls-7" d="M292.41,558s-20.62-10.31-25.77,1.71S277,578.61,277,578.61s5.15,13.25,14.6,16.07C292.41,568.3,292.41,558,292.41,558Z"/><polygon class="cls-7" points="274.32 494 264.92 544.24 269.44 493.33 274.32 494"/><path class="cls-7" d="M291.37,603.58a54.56,54.56,0,0,0-5.46-.13q-2.76.07-5.49.42a42,42,0,0,0-5.31,1.09,26.17,26.17,0,0,0-4.87,2l-1.16.63-1-.68c-3.31-2.31-6.82-4.36-10.36-6.6a35.94,35.94,0,0,1-9.74-8.39,30.94,30.94,0,0,1-5.24-11.71l-.39-1.54-.27-1.55c-.17-1-.38-2.07-.51-3.11-.2-2.07-.52-4.14-.59-6.22-.28-4.16-.35-8.26-.51-12.38s-.29-8.24-.48-12.35-.42-8.22-1-12.29a34.86,34.86,0,0,0-1.35-6,20.67,20.67,0,0,0-2.84-5.45,20.83,20.83,0,0,1,3.07,5.36,34.74,34.74,0,0,1,1.61,6c.73,4.07,1.12,8.19,1.49,12.3s.66,8.22,1,12.33.57,8.25,1,12.3c.15,2,.54,4,.82,6,.16,1,.41,2,.61,3l.32,1.48.43,1.44a28.16,28.16,0,0,0,5.18,10.5,32.9,32.9,0,0,0,9.21,7.27c3.51,2,7.2,4,10.75,6.26l-2.13-.05a28.74,28.74,0,0,1,5.65-2.6,44.19,44.19,0,0,1,5.9-1.46,57.08,57.08,0,0,1,5.95-.7,55.1,55.1,0,0,1,6.05-.1Z"/></g></g><g id="amarelo"><circle class="cls-8" cx="291.96" cy="407.83" r="242.14"/><path class="cls-9" d="M98.11,205l.31.15,0,0Z"/><path class="cls-2" d="M561.31,147a33.46,33.46,0,0,0-1.74-8,15.39,15.39,0,0,0-1.83-7.66,16.65,16.65,0,0,0-14-8.69c-.39-.28-.79-.56-1.2-.83-3.23-2.15-6.85-3.42-10.26-5.24-.71-.38-1.41-.79-2.08-1.22-.22-.16-.72-.51-.88-.65-1.66-1.44-3.19-3-4.73-4.57a11.66,11.66,0,0,0-6.24-3.3c-.51-2.18-.94-4.43-1.27-6.73-.41-2.92-2.61-5.38-5.23-7a35.68,35.68,0,0,0,.42-4.22c0-.73.85-2.15-.16-.87,2.76-3.47,3.38-8.23,0-11.61-2.86-2.86-8.83-3.49-11.61,0-4.49,5.65-5.08,13-5.55,20.16-.13.19-.25.37-.37.57-5.55,9.22-9,21.6-4.79,31.61a17.06,17.06,0,0,0-.73,3.44,29.19,29.19,0,0,0,1.56,12.24,11.89,11.89,0,0,0-3,1.26c-9.83,5.82-19.5,11.37-28.51,18.11a70.07,70.07,0,0,0-18.93,8.38,13,13,0,0,0-6,10.2c-6.37,4.47-14.14,11.28-17.4,19.05a12.17,12.17,0,0,0-3.46,3.77,36.94,36.94,0,0,0-4.68,14.83c-1.22,4-2.55,7.86-4.08,11.55s-3.68,7.82-4.4,12c-.78,4.63-.3,8.63-1.46,11.94-1.44,4.12.18,8.95,3.29,12.09-.24,1.58-.45,3.16-.6,4.76a43.64,43.64,0,0,0,.24,10.91,9.71,9.71,0,0,0-.31,3.3c.94,11.83,3.81,23.53,7,35.1a15.68,15.68,0,0,0-5.05,1.06c-8,3.08-16.2,6-24.39,9.11-1.06.2-2.11.44-3.15.73a70.46,70.46,0,0,0-18.79,8.48c-12.72,6.07-24.62,13.48-34.41,23.76s-17.28,22.15-23.83,34.62c-2.56,2.21-5.07,4.48-7.5,6.82a271,271,0,0,1-18.35-21l-.46-.56a20.26,20.26,0,0,0-5.95-15.5,169.1,169.1,0,0,0-66.88-40.69,147.39,147.39,0,0,0-16.3-4.28L173,319.84c.26-1.37.45-2.74.59-4.13,5.28-7.29,6.37-16,4.76-24.63a72.71,72.71,0,0,0,1.81-13.33A16.5,16.5,0,0,0,179,271.1l.18-1.71c1.08-11.07.64-22.21.19-33.3a20.75,20.75,0,0,0-7.11-14.69,19.71,19.71,0,0,0-2.24-6.67c-1-1.79-2-3.58-3-5.35-.16-1.5-.36-3-.58-4.52-.7-4.84-4.69-9.16-9.41-11.65C149,181.48,139.36,171,126.61,163.65c-10-5.77-20.57-10.68-30.85-15.93-3.56-1.83-7.11-3.65-10.71-5.36a15.58,15.58,0,0,0,4.15-5.06c4.32-8.65,3.84-20.27,1.73-29.45-2.32-10.1-9.59-18.94-10.31-29.39-.43-6.29-10.28-6.34-9.85,0a38.15,38.15,0,0,0,1,6.4A3.7,3.7,0,0,0,69,88.22c-.78,5.46-1.47,11-2.26,16.42A4.69,4.69,0,0,0,62.61,106q-4.36,4.53-8.74,9.07l-7.25,4.27-.19.13a19.16,19.16,0,0,0-3.9.58c-1.89.48-3.86,2.66-3.62,4.75,0,0,0,0,0,0a18.74,18.74,0,0,0-2.69.52c-12.7,3.5-18.75,18.78-12,30.09a32,32,0,0,0,15.12,13A25.64,25.64,0,0,0,47,170.29c3.46,3.7,7.72,6.63,11.77,9.64,4.31,3.21,8.63,6.4,13.08,9.4a145.07,145.07,0,0,0,13.91,8.22c2.31,1.2,4.63,2.38,6.88,3.69,1.72,1,3.62,2.86,5.46,3.75-1.23-.64-1.62-1.5.28.12h0l.3.13-.28-.11c.81.68,1.6,1.39,2.37,2.11,1.57,1.46,3.09,3,4.54,4.57s2.91,3.35,4.32,5.06l.12.17c.63.88,1.28,1.76,1.9,2.66a275,275,0,0,1,14.59,24.21,16.14,16.14,0,0,0,2,2.84,14.77,14.77,0,0,0-2.43,9.54c0,.1,0,.19,0,.28a19,19,0,0,0-4.29,12.15c-1,1.54-2.16,3-3.11,4.58a46.25,46.25,0,0,0-4,9.38,4.83,4.83,0,0,1-.19.5l-.43.51c-.73.79-1.48,1.55-2.18,2.35a41.66,41.66,0,0,0-5.56,7.52,32.21,32.21,0,0,0-3.91,13.94,96.94,96.94,0,0,0-8.42,17.23c-1.88,5.05-3.52,10.68-3.15,16.1a24.15,24.15,0,0,0,6.27,15.3,20.71,20.71,0,0,0,1.83,1.7,25.06,25.06,0,0,0,9.75,10.86,14.46,14.46,0,0,0,3.24,1.57,23,23,0,0,0,5,3.2,18.63,18.63,0,0,0,6.32,3.81,21.78,21.78,0,0,0,4.64,2.64l.61.53h-.14a21.38,21.38,0,0,0-13.9,5.43,4.73,4.73,0,0,0-4.15.38c-.38.29-.77.56-1.15.83a28.39,28.39,0,0,0-11.41.81,13.75,13.75,0,0,0-5.31,3h0l-.57.06c-5.29-3.57-12.9-3.7-17.48,1.3a14.4,14.4,0,0,0-2.29,3.33c-4.4,1-5.88,7.74-1.35,9.25a11.87,11.87,0,0,0,3.64,6.57q3.66,3.36,7.13,6.9a12.24,12.24,0,0,0,1.24,2.83,43.16,43.16,0,0,0,8.08,10.11,54.66,54.66,0,0,0,5,4c.51.71,1,1.42,1.53,2.14a17,17,0,0,0,2.75,3.07,43.53,43.53,0,0,0,6.39,8.84c4.54,4.6,10.35,8.36,15.46,12.28,2,1.5,3.92,3,5.89,4.46a19.78,19.78,0,0,0,2.55,3.27,20.45,20.45,0,0,0,14.32,6,49.26,49.26,0,0,0,18.89,7.08,16.91,16.91,0,0,0,8,4.54,79.25,79.25,0,0,0,13.94,1.24,301.66,301.66,0,0,0,22.28,34.95,16.59,16.59,0,0,0-1.4,7.08,282.74,282.74,0,0,0,2.17,29.08q-1.35,2.32-2.73,4.62c-3.88,6.43-7.19,13.43-6.54,21.16a54.75,54.75,0,0,0,1.89,9.8A121.35,121.35,0,0,0,194.29,609a10.18,10.18,0,0,0-.59,2,11.25,11.25,0,0,0-1,1.37c-3.53,6-1.13,13.14,4.42,16.84,7.17,4.79,15.48,7.58,23.77,9.76.89,1.11,6.48,1.38,7.84,2,24.64,11.81,40.11,8.1,73.05,9.85a129.55,129.55,0,0,0,43.12-5.15,145.91,145.91,0,0,0,19.71-7.07c2.81-1.32,6-.86,8.58-2.55.89-.59,2.33.5,3.29,0,.07.06,2.56-1.66,3.28-1.65,6.42.81,9.24-8.36,9-14.44a12.21,12.21,0,0,0-3.32-8.2c-.27-4.37-1.47-9-2.13-13.29q-1.71-10.94-3.4-21.85c-1.42-9.11-3.1-18.19-6-26.85-.66-4.6-1.51-9.19-1.05-13.85a2,2,0,0,0-1.51-1.95c0-1.91-.06-3.83-.2-5.74a206.88,206.88,0,0,0,28.27-41.06l.41-.1a48,48,0,0,0,6.72-2.58A47.58,47.58,0,0,1,417.19,483a41.8,41.8,0,0,0,20.13-5.55c5.31-3.12,10-7.3,14.74-11.23s9.91-8,14.3-12.52a31.15,31.15,0,0,0,2.27-2.59c9.46-7.18,18.45-14.94,26.07-24.06a14.79,14.79,0,0,0,3.27-6.9,72.48,72.48,0,0,0,9.77-8.32c7.42-7.56,2.05-21.06-8.71-21-8.37,0-16.89-1.73-25.18-2.81l-20.6-2.67a33.64,33.64,0,0,0-.18-7.31,38.53,38.53,0,0,0,11.62-6.23c10.4-4.65,19-11.8,23.11-23.23a36.4,36.4,0,0,0-.91-26,14,14,0,0,0-2.25-9.5c-2.53-3.89-4.47-5.31-6.77-8.67-.4-.59-.79-1.19-1.18-1.79-.41-1-.86-1.94-1.35-2.89a69,69,0,0,0-3.74-6,52.37,52.37,0,0,1-3-7.2,13.94,13.94,0,0,0-5.13-6.89c-.4-1.1-.79-2.2-1.18-3.35-4.34-12.78-8.15-24.65-6.94-37.8a18.28,18.28,0,0,0,3.6-3.64c3.27-4.29,5.5-9.18,8.45-13.67,2.43-3.7,6.55-7.88,10-11.75,5.44-6,10.77-12.23,16.5-18,4,2.31,9.27,2.7,12.8.2l11.24-8a14.42,14.42,0,0,0,5.55-7.5c12.09-3.11,24-7.8,31.3-18.26C558.64,155.7,561.74,151.39,561.31,147Z"/><path class="cls-10" d="M121.64,235.71A241.39,241.39,0,0,0,49.82,407.83C49.82,521,127.42,616,232.3,642.56h0a243.69,243.69,0,0,0,130.2-3h0q3.32-1,6.58-2.1h0c1.43-.48,2.84-1,4.25-1.48a1.06,1.06,0,0,0,.19-.06h0c4.22-1.51,8.37-3.13,12.49-4.86,87-36.73,148.06-122.83,148.06-223.19a241.45,241.45,0,0,0-74.17-174.41"/><path class="cls-10" d="M165.35,201.39a242.31,242.31,0,0,1,251.81-.86"/><path class="cls-11" d="M258.75,487.61a32.38,32.38,0,0,1-5.68-2.76c-2-1.2-3.78-2.63-5.86-3.63-4.15-2-8.72-3.13-13.1-4.51a2,2,0,0,0-1.07,0,2.1,2.1,0,0,0-.82-.16c-2.41,0-2.62,3.39-.64,4a12.58,12.58,0,0,0,.26,1.47,1.81,1.81,0,0,0-.39,1.18,6.65,6.65,0,0,0,2,4.56,11.13,11.13,0,0,0,.85,1.1,8.07,8.07,0,0,0,5.93,2.45h.31c1.36.24,2.78.34,4.14.45a64.59,64.59,0,0,0,10,0,2.12,2.12,0,0,0,1.52-.75c.48.2,1,.39,1.45.57a2.08,2.08,0,0,0,2.53-1.43A2.11,2.11,0,0,0,258.75,487.61Z"/><path class="cls-11" d="M351.74,478.24a2,2,0,0,0-2.48-1.56L342,478.6a24.38,24.38,0,0,0-6.69,2.43,40.74,40.74,0,0,0-5.13,4.23c-1.5,1.3-3.23,2.4-5.29,2.25a1.93,1.93,0,0,0-1.17.33c-2.23.4-2.1,4.06.4,4.06a2,2,0,0,0,1.05-.28h.67c2.51,0,5,0,7.53,0h.17a2.8,2.8,0,0,0,1.2.69c1.44.4,3.28-.16,4.73-.35,3.24-.43,6.52-1,9.13-3.11a8.38,8.38,0,0,0,3.24-7.16A2.16,2.16,0,0,0,351.74,478.24Z"/><path class="cls-12" d="M182.76,278.85c6.06-34.92-5.89-72.47-31-97.46a152.09,152.09,0,0,0-39.51-27.75c-3.7-1.82-31.81-21.41-13.89,1.44,3.17,4,7.63,8.89,11.39,11.6a187,187,0,0,1,56.54,65.95A182.58,182.58,0,0,1,182.76,278.85Z"/><path class="cls-12" d="M403.44,278.85c-6.05-34.92,5.89-72.47,31-97.46A152,152,0,0,1,474,153.64c3.7-1.82,31.82-21.41,13.89,1.44-3.16,4-7.62,8.89-11.38,11.6a187.13,187.13,0,0,0-56.55,65.95A183,183,0,0,0,403.44,278.85Z"/><path class="cls-12" d="M518.91,121.73c2.09,2,4.53,3.88,7.4,4.4s6.2-.65,7.41-3.3c1-2.18.35-4.81-1-6.82a29.56,29.56,0,0,0-4.94-5.19,50.22,50.22,0,0,1-11.61-16.66c-1.23-2.84-3.48-16.65-7.89-9-2.8,4.83-.82,14.61.59,19.59A38.33,38.33,0,0,0,518.91,121.73Z"/><path class="cls-12" d="M65,121.73c-2.09,2-4.53,3.88-7.4,4.4s-6.21-.65-7.41-3.3c-1-2.18-.35-4.81,1-6.82a30.31,30.31,0,0,1,4.94-5.19A50.24,50.24,0,0,0,67.7,94.16c1.22-2.84,3.47-16.65,7.89-9,2.8,4.83.82,14.61-.59,19.59A38.42,38.42,0,0,1,65,121.73Z"/><path class="cls-12" d="M500.61,405.39c2.59.47,5.25,1,7.78.17a7.88,7.88,0,0,0,5.13-6.95c.71-12.34-27.87-6.49-33.59-8-8.88-2.38-13.17-14-22.26-13.13-18,1.64-37.1,19.16-43,38.93C443.32,406.21,470.77,399.87,500.61,405.39Z"/><path class="cls-12" d="M82.8,405.39c-2.58.47-5.25,1-7.78.17a7.88,7.88,0,0,1-5.12-6.95c-.72-12.34,27.86-6.49,33.58-8,8.89-2.38,13.18-14,22.27-13.13,17.95,1.64,37.09,19.16,43,38.93C140.09,406.21,112.64,399.87,82.8,405.39Z"/><path class="cls-13" d="M405.69,471.67c-4.48,2-9.48,4.28-11.12,8.39-1,2.41-.9,4.66,1.64,6.57,3.28,2.46,5.54,3.51,8.93,2.64,36.51-9.39,69.55-31.3,92.92-60.83,4.43-5.59,13.93-15.48,14.46-22.69-5.4.51-11.44,7.14-15.56,10.4-9.16,7.23-18.49,14.19-28.18,20.7A414,414,0,0,1,405.69,471.67Z"/><path class="cls-13" d="M176.59,471.67c4.48,2,9.49,4.28,11.13,8.39,1,2.41.89,4.66-1.64,6.57-3.29,2.46-5.55,3.51-8.93,2.64-36.51-9.39-69.56-31.3-92.92-60.83C79.8,422.85,70.3,413,69.77,405.75c5.4.51,11.44,7.14,15.56,10.4,9.15,7.23,18.49,14.19,28.18,20.7A413.4,413.4,0,0,0,176.59,471.67Z"/><path class="cls-13" d="M263.26,536a118.36,118.36,0,0,0-1.16-17.76,39.41,39.41,0,0,0-6.38-16.48c-1.5-2.09-6.52-5.28-5.62-7.7.8-2.16,6.53-2.21,8.78-2.72a20.5,20.5,0,0,1,5.87-.73,6.87,6.87,0,0,1,5.15,2.56c1.47,2,1.23,4.81.92,7.31l-3,24.85c-.5,4.11-1.6,9-2.1,13.06-.22,1.79,0,7.38-2.25,6.89C262.41,544.9,263.31,539,263.26,536Z"/><path class="cls-13" d="M320.17,536a118.36,118.36,0,0,1,1.16-17.76,39.41,39.41,0,0,1,6.38-16.48c1.5-2.09,6.52-5.28,5.62-7.7-.8-2.16-6.53-2.21-8.78-2.72a20.5,20.5,0,0,0-5.87-.73,6.86,6.86,0,0,0-5.15,2.56c-1.47,2-1.23,4.81-.92,7.31l3,24.85c.5,4.11,1.28,9,1.78,13.06.22,1.79.32,7.38,2.57,6.89C321,544.9,320.12,539,320.17,536Z"/><path class="cls-13" d="M177,324.68c-8.86-1.05-17.78-2.25-26.21-5.19s-16.41-7.79-21.73-14.95a7.22,7.22,0,0,1-1.71-3.87c0-1.43,1-3,2.41-3a4.33,4.33,0,0,1,2.16.76,79.51,79.51,0,0,0,35.64,10.11c2.52.1,5.14.11,7.39,1.24s4,3.8,3.11,6.16Z"/><path class="cls-13" d="M406.94,324.68c8.87-1.05,17.79-2.25,26.21-5.19s16.41-7.79,21.73-14.95a7.15,7.15,0,0,0,1.71-3.87c0-1.43-1-3-2.41-3a4.37,4.37,0,0,0-2.16.76,79.51,79.51,0,0,1-35.63,10.11c-2.52.1-5.15.11-7.4,1.24s-4,3.8-3.11,6.16Z"/><path class="cls-13" d="M107,194.22c-11.16-10.4-25-17.47-39-23.44s-28.5-11-42.07-17.94c-3,2.2-2.27,7.26.44,9.86s6.56,3.49,10.14,4.61C52.76,172.43,66.09,184,80.29,193.5c8.74,5.85,18,11,26.17,17.58a67.82,67.82,0,0,1,12.6,12.9c1.1,1.53,2.4,5.3,4.6,5.21,2.9-.11,2.31-3.36,2-5.09C123.85,212.87,115,201.73,107,194.22Z"/><path class="cls-13" d="M476.28,194.22c11.16-10.4,25-17.47,39-23.44s28.5-11,42.07-17.94c3,2.2,2.27,7.26-.44,9.86s-6.56,3.49-10.14,4.61c-16.31,5.12-29.65,16.67-43.85,26.19-8.73,5.85-18,11-26.16,17.58a67.23,67.23,0,0,0-12.6,12.9c-1.11,1.53-2.41,5.3-4.6,5.21-2.91-.11-2.31-3.36-2-5.09C459.39,212.87,468.22,201.73,476.28,194.22Z"/><path class="cls-13" d="M342.73,539.34c1.6,15.66,3.16,31.77-1.13,46.91s-15.85,29.32-31.39,31.85c1.45-3.43,1.56-10.19,4.74-13.28s7-3.79,10.62-6.39c13.85-10,14-17.41,15.64-35.47C341.88,555.61,342,547.37,342.73,539.34Z"/><path class="cls-13" d="M240.44,539.34c-1.59,15.66-3.16,31.77,1.13,46.91s15.86,29.32,31.4,31.85c-1.46-3.43-1.56-10.19-4.74-13.28s-7-3.79-10.62-6.39c-13.85-10-14-17.41-15.64-35.47C241.3,555.61,241.14,547.37,240.44,539.34Z"/><path class="cls-12" d="M276.05,620.33a25.16,25.16,0,0,0,7.62,1.45c6.31.54,12.71,1.07,18.95,0a13.26,13.26,0,0,0,6.93-2.94c2.55-2.4,3.25-6.12,3.81-9.57.24-1.47.42-3.19-.62-4.26-.64-.67-3.45-1.6-4.36-1.8-9.57-2.08-17.56-2.24-27.34-1.81a19.77,19.77,0,0,0-7.25,1.3c-2.27,1-3.56,1.36-4,3.8C269,611,271.91,618.59,276.05,620.33Z"/><path class="cls-13" d="M491.89,148.05a63.47,63.47,0,0,0,15.94-6.93c1.07-.65,2.25-1.59,2.13-2.83a2.56,2.56,0,0,0-2.19-2,22.53,22.53,0,0,0-3.19-.1,14.85,14.85,0,0,1-5-1.47,15.42,15.42,0,0,0-5-1.48,5.17,5.17,0,0,0-4.6,1.91c-1,1.43-.66,3.74.89,4.5"/><path class="cls-13" d="M91.42,148.05a63.79,63.79,0,0,1-15.94-6.93c-1.06-.65-2.25-1.59-2.13-2.83a2.57,2.57,0,0,1,2.19-2,22.63,22.63,0,0,1,3.19-.1,14.85,14.85,0,0,0,5-1.47,15.4,15.4,0,0,1,5-1.48,5.14,5.14,0,0,1,4.59,1.91c1,1.43.67,3.74-.89,4.5"/><g id="direita-2" data-name="direita"><path class="cls-14" d="M391.32,625.9c-4.33-18.56-15.9-70.43-17.29-99.7,17.19-18.91,24.06-37.8,24.06-37.8s31.82,1.76,70.74-32.1h0c15.34-13.35,31.79-32.24,47.82-59-41.24-17.19-68.73-13.75-68.73-13.75S508.06,366.4,489.16,320c-24.06-46.41-30.93-60.15-30.93-60.15s-13.75-32.65,37.8-65.29c53.27-27.49,65.29-29.22,67-48.11s-32.64-30.94-32.64-30.94-25.78-10.31-15.47-46.39l1.72-6.87s-39.53,37.8-25.78,72.16l3.44,8.6S429,168.79,413.55,206.59s-17.18,67-6.87,104.82l3.43,8.6s-9.45,1.1-23.65,6.13c-25.47,9-66.21,30.73-94.91,81.5"/><path d="M370.52,478.32a43.29,43.29,0,0,0-16.62-1.25,45.14,45.14,0,0,0-15.69,4.81,31.1,31.1,0,0,0-3.43,2.1l-1.68,1.25c-.61.47-1.23.87-1.86,1.27-2.49,1.59-5.05,2.92-7.6,4.26s-5.13,2.59-7.75,3.75-5.28,2.18-8,3.09l-8,2.65,5.23-6.53c.2-.25.51-.64.76-1s.52-.75.77-1.13c.5-.77,1-1.56,1.43-2.38a42.69,42.69,0,0,0,2.44-5.1c.36-.87.68-1.77,1-2.68s.61-1.82.84-2.76c.57-1.87.91-3.79,1.33-5.75h.5a30.79,30.79,0,0,1,.43,6.08,33.53,33.53,0,0,1-.73,6.13,34.53,34.53,0,0,1-1.83,6c-.39,1-.84,1.93-1.33,2.87-.25.47-.5.94-.79,1.4a14.54,14.54,0,0,1-.94,1.44l-2.78-3.88c2.57-1.05,5.2-2.09,7.81-3.09s5.26-2,7.84-3a69.53,69.53,0,0,0,7.49-3.55c.59-.33,1.18-.66,1.72-1l.85-.55c.31-.22.63-.43.95-.63a34.12,34.12,0,0,1,3.94-2.12,46,46,0,0,1,17-3.86,42.56,42.56,0,0,1,16.92,2.76Z"/><path class="cls-15" d="M319.87,490.73s37.82,10.08,32-13.13"/><path d="M290.69,558s20.62-10.31,25.78,1.71-10.31,18.91-10.31,18.91-5.16,13.25-14.61,16.07C290.69,568.3,290.69,558,290.69,558Z"/><polygon points="313.66 493.33 318.19 544.24 308.78 494 313.66 493.33"/><path d="M291.37,598.67a55,55,0,0,1,6,.1,57.27,57.27,0,0,1,6,.7,44.43,44.43,0,0,1,5.89,1.46,28.56,28.56,0,0,1,5.66,2.6l-2.14.05c3.55-2.27,7.24-4.24,10.76-6.26a32.72,32.72,0,0,0,9.2-7.27,28,28,0,0,0,5.18-10.5l.43-1.44.32-1.48c.2-1,.45-2,.61-3,.28-2,.67-4,.82-6,.44-4.05.68-8.19,1-12.3s.62-8.22,1-12.33.76-8.23,1.48-12.3a35.67,35.67,0,0,1,1.61-6,20.58,20.58,0,0,1,3.08-5.36,20.38,20.38,0,0,0-2.84,5.45,34,34,0,0,0-1.35,6c-.56,4.07-.78,8.18-1,12.29s-.33,8.23-.47,12.35-.24,8.22-.52,12.38c-.07,2.08-.38,4.15-.59,6.22-.12,1-.34,2.07-.51,3.11l-.27,1.55-.38,1.54a31,31,0,0,1-5.25,11.71,36,36,0,0,1-9.73,8.39c-3.54,2.24-7.05,4.29-10.36,6.6l-1,.68-1.16-.63a26.08,26.08,0,0,0-4.86-2,42.49,42.49,0,0,0-5.32-1.09c-1.81-.23-3.65-.37-5.49-.42a54.36,54.36,0,0,0-5.45.13Z"/></g><g id="esquerda-2" data-name="esquerda"><path class="cls-10" d="M291.55,407.64c-28.89-51.12-70-72.77-95.44-81.69C182.21,321.07,173,320,173,320l3.43-8.6c10.31-37.81,8.6-67-6.87-104.82S88.79,143,88.79,143l3.44-8.6C106,100.06,66.46,62.26,66.46,62.26l1.71,6.87c10.31,36.08-15.46,46.39-15.46,46.39s-34.37,12-32.65,30.94,13.74,20.62,67,48.11c51.54,32.64,37.79,65.29,37.79,65.29S118,273.6,94,320C75,366.4,135.18,383.58,135.18,383.58s-27.49-3.44-68.72,13.75c15.77,26.29,32,45,47.08,58.32C152.79,490.19,185,488.4,185,488.4s6.87,18.89,24,37.8c-1.41,29.51-13.16,82-17.39,100.17"/><path d="M212.43,477.85a42.58,42.58,0,0,1,16.92-2.76,45.9,45.9,0,0,1,17,3.86,33.45,33.45,0,0,1,3.95,2.12c.32.2.63.41.95.63l.85.55c.53.37,1.13.7,1.72,1a68.48,68.48,0,0,0,7.48,3.55c2.58,1.07,5.22,2,7.84,3s5.24,2,7.81,3.09l-2.78,3.88a14.54,14.54,0,0,1-.94-1.44c-.29-.46-.53-.93-.79-1.4-.49-.94-.94-1.9-1.33-2.87a35.42,35.42,0,0,1-1.83-6,33.53,33.53,0,0,1-.73-6.13,30.79,30.79,0,0,1,.44-6.08h.49c.42,2,.76,3.88,1.33,5.75.23.94.54,1.85.84,2.76s.63,1.81,1,2.68a41.15,41.15,0,0,0,2.43,5.1c.45.82.94,1.61,1.43,2.38.26.38.51.77.77,1.13s.56.74.76,1l5.23,6.53-8-2.65c-2.75-.91-5.4-1.94-8-3.09s-5.19-2.44-7.75-3.75-5.11-2.67-7.6-4.26c-.62-.4-1.25-.8-1.86-1.27L248.32,484a31,31,0,0,0-3.42-2.1,45.25,45.25,0,0,0-15.7-4.81,43.22,43.22,0,0,0-16.61,1.25Z"/><path d="M292.41,558s-20.62-10.31-25.77,1.71S277,578.61,277,578.61s5.15,13.25,14.6,16.07C292.41,568.3,292.41,558,292.41,558Z"/><polygon points="274.32 494 264.92 544.24 269.44 493.33 274.32 494"/><path d="M291.37,603.58a54.56,54.56,0,0,0-5.46-.13q-2.76.07-5.49.42a42,42,0,0,0-5.31,1.09,26.17,26.17,0,0,0-4.87,2l-1.16.63-1-.68c-3.31-2.31-6.82-4.36-10.36-6.6a35.94,35.94,0,0,1-9.74-8.39,30.94,30.94,0,0,1-5.24-11.71l-.39-1.54-.27-1.55c-.17-1-.38-2.07-.51-3.11-.2-2.07-.52-4.14-.59-6.22-.28-4.16-.35-8.26-.51-12.38s-.29-8.24-.48-12.35-.42-8.22-1-12.29a34.86,34.86,0,0,0-1.35-6,20.67,20.67,0,0,0-2.84-5.45,20.83,20.83,0,0,1,3.07,5.36,34.74,34.74,0,0,1,1.61,6c.73,4.07,1.12,8.19,1.49,12.3s.66,8.22,1,12.33.57,8.25,1,12.3c.15,2,.54,4,.82,6,.16,1,.41,2,.61,3l.32,1.48.43,1.44a28.16,28.16,0,0,0,5.18,10.5,32.9,32.9,0,0,0,9.21,7.27c3.51,2,7.2,4,10.75,6.26l-2.13-.05a28.74,28.74,0,0,1,5.65-2.6,44.19,44.19,0,0,1,5.9-1.46,57.08,57.08,0,0,1,5.95-.7,55.1,55.1,0,0,1,6.05-.1Z"/></g><path class="cls-15" d="M263,490.73s-37.82,10.08-32-13.13"/><line class="cls-16" x1="468.83" y1="456.3" x2="468.83" y2="456.29"/><path d="M313.71,605.23a10.83,10.83,0,0,1,.73,4.15,14.75,14.75,0,0,1-.56,4.07,12.59,12.59,0,0,1-1.76,3.82,7,7,0,0,1-3.33,2.74c.42-1.42.68-2.62,1-3.84s.59-2.41.94-3.61.73-2.42,1.19-3.64A21.2,21.2,0,0,1,313.71,605.23Z"/><path d="M269.39,605.23a20.5,20.5,0,0,1,1.8,3.69c.46,1.22.85,2.44,1.19,3.64s.63,2.41.94,3.61.57,2.42,1,3.84a7.11,7.11,0,0,1-3.33-2.74,12.57,12.57,0,0,1-1.75-3.82,14.76,14.76,0,0,1-.57-4.07A11,11,0,0,1,269.39,605.23Z"/></g></g></g></g></g></g></svg>