<svg xmlns="http://www.w3.org/2000/svg" xmlns:xlink="http://www.w3.org/1999/xlink" viewBox="0 0 491.18 900.8"><defs><style>.cls-1{isolation:isolate;}.cls-2{fill:url(#Gradiente_sem_nome_5);}.cls-17,.cls-18,.cls-19,.cls-20,.cls-21,.cls-22,.cls-23,.cls-24,.cls-25,.cls-26,.cls-3,.cls-4,.cls-5,.cls-6,.cls-7{stroke:#000;}.cls-10,.cls-12,.cls-17,.cls-22,.cls-25,.cls-3,.cls-4,.cls-5,.cls-7,.cls-8,.cls-9{stroke-miterlimit:10;}.cls-10,.cls-11,.cls-12,.cls-3,.cls-4,.cls-5,.cls-6,.cls-7,.cls-8,.cls-9{stroke-width:30px;}.cls-3{fill:url(#Gradiente_sem_nome_5-77);}.cls-11,.cls-12,.cls-17,.cls-19,.cls-22,.cls-26,.cls-4,.cls-6,.cls-7,.cls-9{fill:none;}.cls-11,.cls-17,.cls-18,.cls-19,.cls-20,.cls-26,.cls-4,.cls-6,.cls-9{stroke-linecap:round;}.cls-11,.cls-18,.cls-19,.cls-21,.cls-23,.cls-26,.cls-6{stroke-linejoin:bevel;}.cls-10,.cls-11,.cls-12,.cls-8,.cls-9{stroke:#fff;}.cls-8{fill:url(#Gradiente_sem_nome_5-78);}.cls-13{fill:#0a1920;}.cls-14{fill:#efc12e;}.cls-15,.cls-16{fill:#23113f;}.cls-15{opacity:0.7;mix-blend-mode:screen;}.cls-16{mix-blend-mode:overlay;}.cls-17,.cls-22{stroke-width:10px;}.cls-18,.cls-20,.cls-23,.cls-24,.cls-26{stroke-width:4px;}.cls-19{stroke-width:6px;}.cls-20,.cls-24{stroke-linejoin:round;}.cls-21,.cls-25{stroke-width:2px;}.cls-27{fill:url(#Gradiente_sem_nome_5-80);}.cls-28{fill:url(#Gradiente_sem_nome_5-81);}.cls-29{fill:url(#Gradiente_sem_nome_5-82);}.cls-30{fill:url(#Gradiente_sem_nome_5-83);}.cls-31{fill:#fff;}</style><linearGradient id="Gradiente_sem_nome_5" x1="245.59" y1="570.65" x2="245.59" y2="46.69" gradientUnits="userSpaceOnUse"><stop offset="0" stop-color="#efc12e"/><stop offset="1" stop-color="#ff5240"/></linearGradient><linearGradient id="Gradiente_sem_nome_5-77" x1="37.06" y1="351.32" x2="454.78" y2="351.32" xlink:href="#Gradiente_sem_nome_5"/><linearGradient id="Gradiente_sem_nome_5-78" x1="26.59" y1="351.32" x2="465.25" y2="351.32" xlink:href="#Gradiente_sem_nome_5"/><linearGradient id="Gradiente_sem_nome_5-80" x1="112.08" y1="872.74" x2="112.08" y2="691.96" xlink:href="#Gradiente_sem_nome_5"/><linearGradient id="Gradiente_sem_nome_5-81" x1="200.87" y1="857.15" x2="200.87" y2="691.96" xlink:href="#Gradiente_sem_nome_5"/><linearGradient id="Gradiente_sem_nome_5-82" x1="290.3" y1="857.15" x2="290.3" y2="691.96" xlink:href="#Gradiente_sem_nome_5"/><linearGradient id="Gradiente_sem_nome_5-83" x1="379.07" y1="872.74" x2="379.07" y2="691.96" xlink:href="#Gradiente_sem_nome_5"/></defs><title>logo-v</title><g class="cls-1"><g id="Camada_2" data-name="Camada 2"><g id="Camada_3" data-name="Camada 3"><g id="amarelo"><circle class="cls-2" cx="245.92" cy="351.32" r="208.86"/><g id="direita"><path class="cls-2" d="M326.45,536.16c-3.5-15-12.88-57.09-14-80.81a103.49,103.49,0,0,0,19.5-30.64s25.8,1.43,57.34-26h0c12.44-10.82,25.77-26.13,38.76-47.79-33.42-13.93-55.7-11.15-55.7-11.15s48.74-13.92,33.42-51.53c-19.5-37.61-25.07-48.75-25.07-48.75S369.55,213,411.33,186.54c43.18-22.29,52.93-23.68,54.32-39s-26.46-25.08-26.46-25.08-20.89-8.35-12.54-37.6L428,79.29s-32,30.64-20.89,58.5l2.79,7S357,165.64,344.48,196.28s-13.93,54.32-5.57,85l2.78,7a98.09,98.09,0,0,0-19.17,5c-20.65,7.32-53.67,24.91-76.93,66.07"/><path class="cls-2" d="M309.59,416.54a35.28,35.28,0,0,0-13.47-1,37,37,0,0,0-12.72,3.9,26.71,26.71,0,0,0-2.77,1.71l-1.36,1c-.5.38-1,.71-1.51,1-2,1.29-4.09,2.37-6.16,3.45s-4.16,2.11-6.28,3-4.28,1.77-6.51,2.5l-6.5,2.15,4.25-5.29c.16-.2.41-.51.61-.8s.42-.61.62-.91c.41-.63.8-1.27,1.16-1.94a32.69,32.69,0,0,0,2-4.13c.29-.71.55-1.44.8-2.17s.5-1.48.69-2.24c.45-1.51.73-3.07,1.07-4.66h.4a24.59,24.59,0,0,1,.36,4.93,26.26,26.26,0,0,1-.6,5,28.1,28.1,0,0,1-1.48,4.84c-.32.79-.68,1.56-1.07,2.32-.21.38-.41.76-.64,1.14a12.86,12.86,0,0,1-.77,1.16l-2.25-3.14c2.08-.85,4.21-1.69,6.33-2.5s4.26-1.58,6.35-2.45a57.34,57.34,0,0,0,6.07-2.88c.48-.27,1-.53,1.39-.83l.69-.45c.26-.17.51-.35.77-.51a28.27,28.27,0,0,1,3.2-1.72A37.52,37.52,0,0,1,296,413.92a34.49,34.49,0,0,1,13.72,2.24Z"/><path class="cls-2" d="M268.54,426.6s30.66,8.17,25.95-10.65"/><path class="cls-2" d="M244.89,481.12s16.71-8.36,20.89,1.39-8.35,15.32-8.35,15.32-4.18,10.74-11.84,13C244.89,489.47,244.89,481.12,244.89,481.12Z"/><polygon class="cls-2" points="263.51 428.71 267.18 469.97 259.56 429.25 263.51 428.71"/><path class="cls-2" d="M245.44,514.09a46.76,46.76,0,0,1,4.9.08c1.61.11,3.22.3,4.82.57a36.64,36.64,0,0,1,4.78,1.18,23.71,23.71,0,0,1,4.59,2.11l-1.73,0c2.87-1.84,5.86-3.43,8.71-5.07a26.69,26.69,0,0,0,7.46-5.89,22.88,22.88,0,0,0,4.21-8.51l.34-1.17.26-1.2c.16-.8.36-1.6.5-2.41.22-1.63.54-3.25.66-4.91.36-3.28.55-6.64.82-10s.5-6.67.79-10,.61-6.67,1.21-10a27.23,27.23,0,0,1,1.3-4.86,16.71,16.71,0,0,1,2.49-4.34,16.56,16.56,0,0,0-2.3,4.41,27.8,27.8,0,0,0-1.1,4.86c-.45,3.29-.63,6.63-.79,10s-.27,6.67-.39,10-.19,6.66-.42,10c-.05,1.69-.31,3.36-.47,5.05-.11.84-.28,1.68-.42,2.51l-.22,1.26-.31,1.25a25,25,0,0,1-4.25,9.49,29.32,29.32,0,0,1-7.89,6.81c-2.87,1.81-5.72,3.47-8.4,5.35l-.79.55-.94-.51a21,21,0,0,0-3.94-1.62,34.28,34.28,0,0,0-4.31-.88,44,44,0,0,0-4.45-.34,40.2,40.2,0,0,0-4.42.11Z"/></g><g id="esquerda"><path class="cls-2" d="M245.59,359.25c-23.42-41.44-56.74-59-77.36-66.22a96.8,96.8,0,0,0-18.74-4.82l2.78-7c8.35-30.65,7-54.32-5.57-85s-65.47-51.53-65.47-51.53l2.79-7c11.15-27.86-20.89-58.5-20.89-58.5l1.39,5.57C72.88,114.11,52,122.46,52,122.46s-27.86,9.76-26.46,25.08,11.13,16.71,54.31,39c41.79,26.46,30.64,52.92,30.64,52.92s-5.57,11.14-25.07,48.75c-15.32,37.61,33.43,51.53,33.43,51.53S96.56,337,63.13,350.89c12.79,21.31,25.9,36.48,38.16,47.27,31.82,28,57.94,26.55,57.94,26.55a103.49,103.49,0,0,0,19.5,30.64c-1.14,23.92-10.67,66.5-14.09,81.2"/><path class="cls-2" d="M181.46,416.16a34.44,34.44,0,0,1,13.71-2.24,37.48,37.48,0,0,1,13.76,3.13,28.27,28.27,0,0,1,3.2,1.72c.26.16.52.34.77.51l.69.45c.43.3.92.56,1.39.83a58.29,58.29,0,0,0,6.07,2.88c2.09.87,4.23,1.64,6.36,2.45s4.25,1.65,6.33,2.5l-2.26,3.14c-.32-.44-.53-.78-.76-1.16s-.43-.76-.64-1.14c-.39-.76-.76-1.53-1.08-2.32a29,29,0,0,1-1.48-4.84,27.08,27.08,0,0,1-.59-5,24.59,24.59,0,0,1,.35-4.93h.4c.34,1.59.62,3.15,1.08,4.66.19.76.43,1.5.68,2.24s.51,1.46.81,2.17a34.07,34.07,0,0,0,2,4.13c.36.67.76,1.31,1.16,1.94.21.3.41.62.63.91s.45.6.61.8l4.24,5.29-6.49-2.15c-2.23-.73-4.38-1.57-6.51-2.5s-4.21-2-6.28-3-4.15-2.16-6.17-3.45c-.5-.32-1-.65-1.5-1l-1.36-1a25.84,25.84,0,0,0-2.78-1.71,36.93,36.93,0,0,0-12.72-3.9,35.29,35.29,0,0,0-13.47,1Z"/><path class="cls-2" d="M246.28,481.12s-16.71-8.36-20.89,1.39,8.36,15.32,8.36,15.32,4.18,10.74,11.84,13C246.28,489.47,246.28,481.12,246.28,481.12Z"/><polygon class="cls-2" points="231.62 429.25 224 469.97 227.66 428.71 231.62 429.25"/><path class="cls-2" d="M245.44,518.08A40.33,40.33,0,0,0,241,518a43.75,43.75,0,0,0-4.45.34,33.92,33.92,0,0,0-4.31.88,20.86,20.86,0,0,0-3.95,1.62l-.93.51-.8-.55c-2.68-1.88-5.52-3.54-8.39-5.35a29.36,29.36,0,0,1-7.9-6.81,25.12,25.12,0,0,1-4.25-9.49l-.31-1.25-.22-1.26c-.13-.83-.31-1.67-.41-2.51-.17-1.69-.42-3.36-.48-5.05-.23-3.37-.28-6.69-.42-10s-.22-6.68-.38-10-.35-6.67-.8-10a28.71,28.71,0,0,0-1.09-4.86,16.59,16.59,0,0,0-2.31-4.41,16.46,16.46,0,0,1,2.5,4.34,29,29,0,0,1,1.3,4.86c.59,3.3.9,6.64,1.2,10s.55,6.67.8,10,.46,6.68.81,10c.13,1.66.44,3.28.67,4.91.13.81.33,1.61.5,2.41l.25,1.2.35,1.17a22.86,22.86,0,0,0,4.2,8.51,26.83,26.83,0,0,0,7.46,5.89c2.85,1.64,5.84,3.23,8.72,5.07l-1.73,0a23.63,23.63,0,0,1,4.58-2.11,37,37,0,0,1,4.78-1.18q2.42-.4,4.83-.57a46.76,46.76,0,0,1,4.9-.08Z"/></g><path class="cls-2" d="M99,202.86A208.24,208.24,0,0,0,37.06,351.32c0,97.58,66.94,179.54,157.4,202.46h0a210,210,0,0,0,112.3-2.61h0c1.91-.57,3.8-1.18,5.67-1.81h0c1.24-.42,2.45-.83,3.67-1.27l.16-.06h0c3.64-1.3,7.22-2.7,10.77-4.19A208.91,208.91,0,0,0,390.8,200.89"/><path class="cls-2" d="M245.92,570.65A219.33,219.33,0,1,1,401,506.41,217.94,217.94,0,0,1,245.92,570.65Z"/><path class="cls-2" d="M316.26,538.54c-3.91-16.75-13.12-58.34-14.28-82.69l-.21-4.34,2.92-3.21a94.27,94.27,0,0,0,17.42-27.2l2.75-7.42,7.61.57c1.57,0,22.52,0,49.13-22.76l.81-.71C393,381.6,403,370,412.27,356.19c-23.42-7.62-38.47-6.08-38.63-6.06l-4.18-20.45c5.68-1.66,21.65-8.4,27-19.42,2.5-5.18,2.43-11-.21-17.68-19.12-36.89-24.68-48-24.9-48.43l-.29-.62c-.59-1.42-14-35,34.69-65.84l.39-.25.41-.21c8.31-4.29,15.25-7.74,21.38-10.79,25.73-12.79,26.78-14,27.31-19.85.32-3.52-9.53-10.71-19.51-14.25l-.41-.15c-5.71-2.29-13.54-8.18-17.87-18.19-2.33,6.66-3.07,13.62-.56,19.9l6.7,16.73-9.79,3.86c-13.57,5.38-50.75,24.09-59.61,45.76-11.51,28.14-13,49.25-5.31,77.68l7.63,19.1-13.59,1.59A89.89,89.89,0,0,0,326,303.05c-20.9,7.41-50.24,24.07-71.32,61.35l-18.23-10.31c24.26-42.91,58.28-62.17,82.55-70.78,3.26-1.15,6.23-2.07,8.86-2.8-8-31.61-6-56.64,6.91-88.19,10.67-26.09,44.85-45,61.75-53.08-11.05-33.23,22.79-66.1,24.27-67.52L447,46.7l-10.25,41c-5.18,18.15,4,23.86,6.38,25,5.25,1.91,35,13.7,33,35.75-1.66,18.22-12.54,23.63-38.85,36.71-6,3-12.69,6.31-20.68,10.43-30.77,19.65-26.95,37.21-26.2,39.73,1.37,2.73,7.85,15.53,24.71,48l.22.43.18.44c5,12.38,5,24.56-.22,35.21a46.71,46.71,0,0,1-9.68,13.12,169.61,169.61,0,0,1,26.51,8.63l11.19,4.67L437,356.28c-11.28,18.81-23.8,34.62-37.27,47.07v.1l-3.59,3.14C371.78,427.8,350,433.33,339,434.73A119.67,119.67,0,0,1,323.17,459c1.92,23.91,10.7,62.88,13.48,74.8Z"/><path class="cls-2" d="M248.39,422.47l.22-.29.16-.21.25-.39c.25-.38.52-.81.72-1.18l.13-.23a23.26,23.26,0,0,0,1.36-2.88c.18-.44.36-.93.58-1.58.17-.49.35-1,.44-1.4l.07-.27.08-.25c.21-.71.4-1.6.61-2.64.08-.39.16-.78.25-1.18L255,401.7h17.7l1.34,7.84a37.67,37.67,0,0,1,3.84-2l.1,0a47.23,47.23,0,0,1,17.63-4l1.66,0a44.34,44.34,0,0,1,16.23,3L322.8,410l-6.41,19.25-9.59-2.65a24.66,24.66,0,0,0-6.53-.88,25.68,25.68,0,0,0-2.91.17,26.32,26.32,0,0,0-9,2.75,14.34,14.34,0,0,0-1.53.92l-1.22.92c-.78.59-1.48,1-2.05,1.41l-.09.05c-2.36,1.51-4.59,2.68-6.75,3.81l-.3.16c-2,1-4.35,2.2-6.84,3.3s-5,2.05-7.44,2.87L222,455.36Z"/><path class="cls-2" d="M281.45,438.86a63.83,63.83,0,0,1-15.61-2.14l5.4-20.24-2.7,10.12,2.68-10.12c5.48,1.43,12.77,1.87,14.72.88a2.76,2.76,0,0,0-.95,1l19.66-4.92c2.59,10.36-1.69,16.5-4.48,19.24C295.28,437.47,288.1,438.86,281.45,438.86Z"/><path class="cls-2" d="M235.12,511.2c-.69-21.31-.7-29.74-.7-30.08v-6.48l5.79-2.89c1.48-.74,9.28-4.44,17.31-4.44,8.35,0,14.87,4,17.89,11.07,4.77,11.13-1,21.4-10,27-2.6,5-8,12.86-16.87,15.51l-13,3.88Z"/><polygon class="cls-2" points="247.24 420.38 272.97 416.84 277.61 469.05 256.88 471.9 247.24 420.38"/><path class="cls-2" d="M257.84,530a10.46,10.46,0,0,0-1.83-.75,24.57,24.57,0,0,0-2.79-.56,33.21,33.21,0,0,0-3.34-.25h-1c-.85,0-1.64,0-2.3.08l-10.51.88-1.92-25.3,10.81-.46c.73,0,1.43,0,2.12,0,1.21,0,2.45,0,3.88.13q3.06.21,5.92.69l.12,0a49.66,49.66,0,0,1,5.83,1.43l1-.54,2.46-1.4a16.67,16.67,0,0,0,4.59-3.45l.07-.08a12.74,12.74,0,0,0,2.16-4.63l.27-.92.16-.76.21-1c.06-.29.13-.59.19-.89.07-.53.15-1.06.24-1.6.14-.91.28-1.78.33-2.47V488l0-.18c.23-2.11.39-4.29.56-6.6.07-1,.15-2,.23-3.06l.06-.79c.23-3,.46-6.18.74-9.3.34-3.83.68-7.28,1.33-10.89l0-.14a38.88,38.88,0,0,1,1.82-6.64,27,27,0,0,1,4-7.06L300,455.92a6.23,6.23,0,0,0-.85,1.6,18.15,18.15,0,0,0-.66,3c-.38,2.76-.54,5.58-.7,9-.15,3-.25,6.13-.36,9.15l0,.7c0,1-.08,2-.11,3-.07,2.33-.15,4.74-.32,7.22-.06,1.5-.21,2.88-.36,4.1l-.15,1.42,0,.27c-.1.83-.23,1.55-.35,2.19l-.12.72-.31,1.76-.39,1.57a35.36,35.36,0,0,1-6.08,13.32,39.34,39.34,0,0,1-10.62,9.32L276,525.91c-1.91,1.18-3.72,2.29-5.36,3.44l-6.12,4.27Z"/><path class="cls-2" d="M174.83,538.92l-20.39-4.75c2.79-12,11.64-51.22,13.57-75.19a120.25,120.25,0,0,1-15.8-24.25c-11.13-1.41-33.2-7-57.83-28.71-14.59-12.84-28.13-29.57-40.23-49.74l-6.23-10.39,11.18-4.67a169.61,169.61,0,0,1,26.51-8.63,46.9,46.9,0,0,1-9.68-13.12c-5.18-10.65-5.26-22.83-.21-35.21l.18-.44.22-.43c16.85-32.5,23.33-45.3,24.71-48,.74-2.52,4.56-20.08-26.21-39.73-8-4.12-14.72-7.47-20.68-10.43-26.3-13.08-37.19-18.49-38.84-36.71-2-22.05,27.73-33.84,33-35.75,2.36-1.14,11.56-6.85,6.37-25l-.09-.34L44.2,46.69l26.17,25c1.48,1.42,35.32,34.3,24.27,67.52,16.89,8,51.08,27,61.75,53.08,12.9,31.55,14.92,56.58,6.9,88.18,2.51.7,5.33,1.57,8.4,2.65A148.59,148.59,0,0,1,212.18,305a159.25,159.25,0,0,1,42.52,49.13L236.47,364.4c-21.17-37.46-50.68-54.11-71.71-61.49a89.14,89.14,0,0,0-16.52-4.3L134.65,297l7.67-19.11c7.65-28.42,6.2-49.54-5.31-77.68-8.87-21.67-46-40.38-59.63-45.76l-9.76-3.87L74.3,133.9c2.58-6.45,1.8-13.42-.52-20-4.33,10-12.18,16-17.9,18.26l-.43.16c-10,3.53-19.82,10.72-19.5,14.24.53,5.83,1.59,7.06,27.32,19.85,6.12,3.05,13.07,6.5,21.38,10.79l.41.21.39.25c48.71,30.85,35.28,64.42,34.68,65.84l-.28.62c-.23.45-5.78,11.54-24.91,48.43-2.64,6.71-2.7,12.5-.2,17.68,5.32,11,21.3,17.76,27,19.42l-4.2,20.45c-.12,0-15.2-1.56-38.63,6.07a176.87,176.87,0,0,0,29.3,34.1c27.83,24.49,50.21,23.95,50.44,23.95l7.77-.43,2.65,7.31a94.61,94.61,0,0,0,17.41,27.17l2.92,3.21-.21,4.34C188,480.24,178.76,522.07,174.83,538.92Z"/><path class="cls-2" d="M229.08,442.11c-2.47-.82-4.89-1.75-7.41-2.85s-4.9-2.31-6.88-3.32l-.27-.15c-2.17-1.13-4.41-2.3-6.74-3.79l-.13-.08c-.56-.37-1.26-.82-2-1.41l-1.23-.92a13.4,13.4,0,0,0-1.53-.92,26.28,26.28,0,0,0-9.07-2.75,24.61,24.61,0,0,0-9.41.71l-9.58,2.65L168.38,410l9.27-3.62a44.25,44.25,0,0,1,16.22-3c.56,0,1.11,0,1.66,0a47.28,47.28,0,0,1,17.64,4l.09,0a36.81,36.81,0,0,1,3.85,2l1.34-7.84h17.69l1.78,8.27c.08.4.17.79.25,1.19.21,1,.4,1.92.61,2.63l.08.26.06.27c.1.37.27.88.44,1.38.22.66.4,1.15.57,1.56a24.54,24.54,0,0,0,1.38,2.91l.13.23c.2.37.47.8.71,1.18l.11.16c.05.09.11.17.17.26l.09.13.07.09a2.43,2.43,0,0,0,.2.25l26.37,32.89Z"/><path class="cls-2" d="M242.59,520.9c-8.87-2.65-14.26-10.55-16.87-15.51-8.91-5.61-14.72-15.88-9.95-27,3-7,9.53-11.07,17.88-11.07,8,0,15.83,3.7,17.32,4.44l5.79,2.89v6.48c0,.34,0,8.77-.71,30.08l-.44,13.58Z"/><polygon class="cls-2" points="213.57 469.05 218.21 416.84 243.93 420.38 234.29 471.9 213.57 469.05"/><path class="cls-2" d="M220.59,529.35c-1.64-1.15-3.45-2.26-5.36-3.44-.87-.54-1.75-1.08-2.63-1.64A39.18,39.18,0,0,1,202,514.94a35.38,35.38,0,0,1-6.09-13.32l-.39-1.57-.3-1.76c0-.24-.09-.48-.13-.72-.11-.64-.24-1.36-.35-2.19l0-.27c-.05-.47-.11-.94-.16-1.42-.14-1.22-.3-2.6-.36-4.1-.16-2.49-.24-4.91-.32-7.25,0-1-.06-1.94-.1-2.92l0-.74c-.11-3-.22-6.14-.36-9.18-.16-3.26-.33-6.2-.7-9a19.09,19.09,0,0,0-.65-3,6.2,6.2,0,0,0-.87-1.64l16.71-12.62a27,27,0,0,1,4.05,7.1,37.81,37.81,0,0,1,1.8,6.6l0,.14c.64,3.6,1,7.05,1.32,10.87.28,3.18.52,6.35.75,9.42l.06.73c.08,1,.15,2,.22,3,.17,2.32.33,4.51.56,6.63l0,.18,0,.19c0,.69.18,1.56.33,2.47l.24,1.61c.05.29.12.58.18.88s.15.65.21,1l.17.76.27.92a12.58,12.58,0,0,0,2.16,4.63l.06.08a17.23,17.23,0,0,0,4.61,3.47l2.44,1.38,1,.54a49.83,49.83,0,0,1,5.84-1.43l.11,0c1.91-.32,3.89-.55,5.87-.69,1.49-.09,2.72-.13,3.94-.13.69,0,1.39,0,2.11,0l10.82.46-1.92,25.3-10.52-.88c-.65,0-1.44-.08-2.29-.08h-1c-1.11,0-2.24.11-3.33.25a24.57,24.57,0,0,0-2.79.56,11.15,11.15,0,0,0-1.83.75l-6.63,3.62Z"/><path class="cls-2" d="M245.92,570.65a220.07,220.07,0,0,1-52.75-6.39h0l-1.28-.33A219.12,219.12,0,0,1,26.59,351.32a218.7,218.7,0,0,1,65.06-155.9l14.73,14.89a198.42,198.42,0,0,0,90,333.16l.66.16a199.43,199.43,0,0,0,106.67-2.48l1.49-.45c1-.31,2-.65,3.14-1l1.54-.8h.84l1.78-.62,1.66-.71h.3c2.87-1.06,5.74-2.19,8.55-3.37a198.44,198.44,0,0,0,60.53-325.75l14.53-15.08a219.39,219.39,0,0,1-66.93,360.13c-3.72,1.56-7.52,3-11.31,4.4l-.08,0h0l-1.66.58-1.5.52-1.56.82h-.89c-1.52.5-2.95.95-4.35,1.37l-1.49.44A219.33,219.33,0,0,1,245.92,570.65Z"/><circle class="cls-2" cx="245.92" cy="351.32" r="208.86"/><g id="direita-2" data-name="direita"><path class="cls-2" d="M326.45,536.16c-3.5-15-12.88-57.09-14-80.81a103.49,103.49,0,0,0,19.5-30.64s25.8,1.43,57.34-26h0c12.44-10.82,25.77-26.13,38.76-47.79-33.42-13.93-55.7-11.15-55.7-11.15s48.74-13.92,33.42-51.53c-19.5-37.61-25.07-48.75-25.07-48.75S369.55,213,411.33,186.54c43.18-22.29,52.93-23.68,54.32-39s-26.46-25.08-26.46-25.08-20.89-8.35-12.54-37.6L428,79.29s-32,30.64-20.89,58.5l2.79,7S357,165.64,344.48,196.28s-13.93,54.32-5.57,85l2.78,7a98.09,98.09,0,0,0-19.17,5c-20.65,7.32-53.67,24.91-76.93,66.07"/><path class="cls-2" d="M309.59,416.54a35.28,35.28,0,0,0-13.47-1,37,37,0,0,0-12.72,3.9,26.71,26.71,0,0,0-2.77,1.71l-1.36,1c-.5.38-1,.71-1.51,1-2,1.29-4.09,2.37-6.16,3.45s-4.16,2.11-6.28,3-4.28,1.77-6.51,2.5l-6.5,2.15,4.25-5.29c.16-.2.41-.51.61-.8s.42-.61.62-.91c.41-.63.8-1.27,1.16-1.94a32.69,32.69,0,0,0,2-4.13c.29-.71.55-1.44.8-2.17s.5-1.48.69-2.24c.45-1.51.73-3.07,1.07-4.66h.4a24.59,24.59,0,0,1,.36,4.93,26.26,26.26,0,0,1-.6,5,28.1,28.1,0,0,1-1.48,4.84c-.32.79-.68,1.56-1.07,2.32-.21.38-.41.76-.64,1.14a12.86,12.86,0,0,1-.77,1.16l-2.25-3.14c2.08-.85,4.21-1.69,6.33-2.5s4.26-1.58,6.35-2.45a57.34,57.34,0,0,0,6.07-2.88c.48-.27,1-.53,1.39-.83l.69-.45c.26-.17.51-.35.77-.51a28.27,28.27,0,0,1,3.2-1.72A37.52,37.52,0,0,1,296,413.92a34.49,34.49,0,0,1,13.72,2.24Z"/><path class="cls-2" d="M268.54,426.6s30.66,8.17,25.95-10.65"/><path class="cls-2" d="M244.89,481.12s16.71-8.36,20.89,1.39-8.35,15.32-8.35,15.32-4.18,10.74-11.84,13C244.89,489.47,244.89,481.12,244.89,481.12Z"/><polygon class="cls-2" points="263.51 428.71 267.18 469.97 259.56 429.25 263.51 428.71"/><path class="cls-2" d="M245.44,514.09a46.76,46.76,0,0,1,4.9.08c1.61.11,3.22.3,4.82.57a36.64,36.64,0,0,1,4.78,1.18,23.71,23.71,0,0,1,4.59,2.11l-1.73,0c2.87-1.84,5.86-3.43,8.71-5.07a26.69,26.69,0,0,0,7.46-5.89,22.88,22.88,0,0,0,4.21-8.51l.34-1.17.26-1.2c.16-.8.36-1.6.5-2.41.22-1.63.54-3.25.66-4.91.36-3.28.55-6.64.82-10s.5-6.67.79-10,.61-6.67,1.21-10a27.23,27.23,0,0,1,1.3-4.86,16.71,16.71,0,0,1,2.49-4.34,16.56,16.56,0,0,0-2.3,4.41,27.8,27.8,0,0,0-1.1,4.86c-.45,3.29-.63,6.63-.79,10s-.27,6.67-.39,10-.19,6.66-.42,10c-.05,1.69-.31,3.36-.47,5.05-.11.84-.28,1.68-.42,2.51l-.22,1.26-.31,1.25a25,25,0,0,1-4.25,9.49,29.32,29.32,0,0,1-7.89,6.81c-2.87,1.81-5.72,3.47-8.4,5.35l-.79.55-.94-.51a21,21,0,0,0-3.94-1.62,34.28,34.28,0,0,0-4.31-.88,44,44,0,0,0-4.45-.34,40.2,40.2,0,0,0-4.42.11Z"/></g><g id="esquerda-2" data-name="esquerda"><path class="cls-2" d="M245.59,359.25c-23.42-41.44-56.74-59-77.36-66.22a96.8,96.8,0,0,0-18.74-4.82l2.78-7c8.35-30.65,7-54.32-5.57-85s-65.47-51.53-65.47-51.53l2.79-7c11.15-27.86-20.89-58.5-20.89-58.5l1.39,5.57C72.88,114.11,52,122.46,52,122.46s-27.86,9.76-26.46,25.08,11.13,16.71,54.31,39c41.79,26.46,30.64,52.92,30.64,52.92s-5.57,11.14-25.07,48.75c-15.32,37.61,33.43,51.53,33.43,51.53S96.56,337,63.13,350.89c12.79,21.31,25.9,36.48,38.16,47.27,31.82,28,57.94,26.55,57.94,26.55a103.49,103.49,0,0,0,19.5,30.64c-1.14,23.92-10.67,66.5-14.09,81.2"/><path class="cls-2" d="M181.46,416.16a34.44,34.44,0,0,1,13.71-2.24,37.48,37.48,0,0,1,13.76,3.13,28.27,28.27,0,0,1,3.2,1.72c.26.16.52.34.77.51l.69.45c.43.3.92.56,1.39.83a58.29,58.29,0,0,0,6.07,2.88c2.09.87,4.23,1.64,6.36,2.45s4.25,1.65,6.33,2.5l-2.26,3.14c-.32-.44-.53-.78-.76-1.16s-.43-.76-.64-1.14c-.39-.76-.76-1.53-1.08-2.32a29,29,0,0,1-1.48-4.84,27.08,27.08,0,0,1-.59-5,24.59,24.59,0,0,1,.35-4.93h.4c.34,1.59.62,3.15,1.08,4.66.19.76.43,1.5.68,2.24s.51,1.46.81,2.17a34.07,34.07,0,0,0,2,4.13c.36.67.76,1.31,1.16,1.94.21.3.41.62.63.91s.45.6.61.8l4.24,5.29-6.49-2.15c-2.23-.73-4.38-1.57-6.51-2.5s-4.21-2-6.28-3-4.15-2.16-6.17-3.45c-.5-.32-1-.65-1.5-1l-1.36-1a25.84,25.84,0,0,0-2.78-1.71,36.93,36.93,0,0,0-12.72-3.9,35.29,35.29,0,0,0-13.47,1Z"/><path class="cls-2" d="M246.28,481.12s-16.71-8.36-20.89,1.39,8.36,15.32,8.36,15.32,4.18,10.74,11.84,13C246.28,489.47,246.28,481.12,246.28,481.12Z"/><polygon class="cls-2" points="231.62 429.25 224 469.97 227.66 428.71 231.62 429.25"/><path class="cls-2" d="M245.44,518.08A40.33,40.33,0,0,0,241,518a43.75,43.75,0,0,0-4.45.34,33.92,33.92,0,0,0-4.31.88,20.86,20.86,0,0,0-3.95,1.62l-.93.51-.8-.55c-2.68-1.88-5.52-3.54-8.39-5.35a29.36,29.36,0,0,1-7.9-6.81,25.12,25.12,0,0,1-4.25-9.49l-.31-1.25-.22-1.26c-.13-.83-.31-1.67-.41-2.51-.17-1.69-.42-3.36-.48-5.05-.23-3.37-.28-6.69-.42-10s-.22-6.68-.38-10-.35-6.67-.8-10a28.71,28.71,0,0,0-1.09-4.86,16.59,16.59,0,0,0-2.31-4.41,16.46,16.46,0,0,1,2.5,4.34,29,29,0,0,1,1.3,4.86c.59,3.3.9,6.64,1.2,10s.55,6.67.8,10,.46,6.68.81,10c.13,1.66.44,3.28.67,4.91.13.81.33,1.61.5,2.41l.25,1.2.35,1.17a22.86,22.86,0,0,0,4.2,8.51,26.83,26.83,0,0,0,7.46,5.89c2.85,1.64,5.84,3.23,8.72,5.07l-1.73,0a23.63,23.63,0,0,1,4.58-2.11,37,37,0,0,1,4.78-1.18q2.42-.4,4.83-.57a46.76,46.76,0,0,1,4.9-.08Z"/></g><path class="cls-2" d="M464.25,148a27.44,27.44,0,0,0-1.42-6.48,12.35,12.35,0,0,0-1.48-6.2,13.48,13.48,0,0,0-11.36-7l-1-.67c-2.62-1.74-5.56-2.77-8.32-4.24-.58-.31-1.14-.64-1.69-1a8.73,8.73,0,0,1-.71-.52c-1.35-1.16-2.59-2.44-3.83-3.71a9.45,9.45,0,0,0-5.06-2.67q-.63-2.65-1-5.46a8.38,8.38,0,0,0-4.24-5.65,28.29,28.29,0,0,0,.34-3.42c0-.59.69-1.73-.13-.7,2.24-2.81,2.74-6.67,0-9.41-2.32-2.32-7.16-2.83-9.41,0-3.64,4.58-4.12,10.54-4.5,16.34l-.3.46c-4.5,7.48-7.27,17.51-3.88,25.63a13.57,13.57,0,0,0-.59,2.78,23.84,23.84,0,0,0,1.26,9.93,9.37,9.37,0,0,0-2.44,1c-8,4.71-15.8,9.21-23.11,14.68A56.34,56.34,0,0,0,366,168.45a10.51,10.51,0,0,0-4.88,8.27c-5.17,3.62-11.47,9.14-14.11,15.44a9.9,9.9,0,0,0-2.8,3.06,30.06,30.06,0,0,0-3.8,12c-1,3.21-2.06,6.37-3.3,9.37s-3,6.34-3.56,9.76c-.64,3.75-.26,7-1.19,9.68-1.17,3.34.14,7.26,2.67,9.8-.2,1.28-.37,2.56-.49,3.86a35.61,35.61,0,0,0,.19,8.84,8.18,8.18,0,0,0-.25,2.68c.77,9.59,3.09,19.07,5.69,28.45a12.74,12.74,0,0,0-4.09.86c-6.46,2.5-13.13,4.86-19.77,7.39-.86.16-1.71.35-2.55.58a57.43,57.43,0,0,0-15.24,6.88c-10.31,4.91-19.95,10.93-27.88,19.26s-14,17.95-19.32,28.06q-3.12,2.69-6.09,5.53a224.68,224.68,0,0,1-14.87-17c-.12-.15-.24-.31-.37-.46a16.41,16.41,0,0,0-4.82-12.56,137.15,137.15,0,0,0-54.22-33,119.29,119.29,0,0,0-13.21-3.47l-8.33-3.68c.21-1.11.36-2.22.48-3.34,4.28-5.91,5.17-13,3.86-20A57.62,57.62,0,0,0,155.25,254a13.12,13.12,0,0,0-.91-5.38c0-.47.1-.93.14-1.39.88-9,.52-18,.16-27a16.88,16.88,0,0,0-5.76-11.91,16.05,16.05,0,0,0-1.82-5.4c-.79-1.45-1.6-2.9-2.41-4.34-.14-1.21-.29-2.43-.47-3.66-.58-3.93-3.81-7.43-7.63-9.44-6.55-9.51-14.33-18-24.66-24-8.11-4.68-16.67-8.66-25-12.92-2.89-1.48-5.77-2.95-8.69-4.34a12.68,12.68,0,0,0,3.37-4.1c3.5-7,3.11-16.43,1.4-23.87-1.89-8.19-7.77-15.35-8.36-23.83-.35-5.1-8.33-5.13-8,0a29.43,29.43,0,0,0,.84,5.19,3,3,0,0,0-2.28,2.72c-.63,4.43-1.18,8.88-1.83,13.32a3.8,3.8,0,0,0-3.35,1.1l-7.08,7.36-5.88,3.46-.15.1a16.09,16.09,0,0,0-3.17.47A4,4,0,0,0,40.8,130a.09.09,0,0,1,0,0,13.28,13.28,0,0,0-2.18.42c-10.29,2.83-15.2,15.22-9.75,24.39a26,26,0,0,0,12.25,10.52,20.75,20.75,0,0,0,6.24,1.48c2.81,3,6.26,5.39,9.54,7.83,3.49,2.59,7,5.18,10.6,7.61A116.13,116.13,0,0,0,78.78,189c1.88,1,3.76,1.93,5.58,3,1.39.81,2.94,2.31,4.43,3-1-.53-1.31-1.22.23.09h0l.25.11-.23-.1c.65.56,1.3,1.13,1.92,1.72,1.28,1.18,2.5,2.42,3.68,3.7s2.36,2.71,3.5,4.1l.1.14c.51.72,1,1.43,1.54,2.16a224.27,224.27,0,0,1,11.82,19.62,12.92,12.92,0,0,0,1.63,2.3,11.94,11.94,0,0,0-2,7.74c0,.07,0,.15,0,.22a15.4,15.4,0,0,0-3.47,9.85c-.82,1.25-1.76,2.43-2.52,3.72A36.71,36.71,0,0,0,102,258c0,.11-.09.25-.16.4s-.27.34-.35.42c-.59.63-1.2,1.25-1.77,1.9a33.87,33.87,0,0,0-4.5,6.09,26.11,26.11,0,0,0-3.17,11.31,78.57,78.57,0,0,0-6.82,14c-1.53,4.1-2.86,8.66-2.56,13.05a19.61,19.61,0,0,0,5.08,12.41,17.26,17.26,0,0,0,1.49,1.37,20.16,20.16,0,0,0,7.9,8.8A11.85,11.85,0,0,0,99.8,329a18.08,18.08,0,0,0,4.08,2.59,14.85,14.85,0,0,0,5.12,3.09,17.29,17.29,0,0,0,3.76,2.14l.49.43h-.11a17.36,17.36,0,0,0-11.27,4.4,3.83,3.83,0,0,0-3.36.31l-.94.67a22.88,22.88,0,0,0-9.24.66A11.05,11.05,0,0,0,84,345.66h0l-.46,0c-4.28-2.89-10.45-3-14.17,1.05a11.87,11.87,0,0,0-1.85,2.7c-3.57.82-4.77,6.28-1.1,7.5a9.63,9.63,0,0,0,2.95,5.33c2,1.81,3.91,3.68,5.78,5.59a10,10,0,0,0,1,2.3,35,35,0,0,0,6.54,8.19,44.7,44.7,0,0,0,4.06,3.21c.42.58.84,1.15,1.24,1.74a14.55,14.55,0,0,0,2.23,2.48A35.26,35.26,0,0,0,95.42,393c3.68,3.73,8.39,6.78,12.53,9.95,1.58,1.22,3.18,2.42,4.78,3.61a15.53,15.53,0,0,0,2.06,2.66A16.61,16.61,0,0,0,126.4,414a39.91,39.91,0,0,0,15.31,5.75,13.76,13.76,0,0,0,6.53,3.67,64.79,64.79,0,0,0,11.3,1A244.12,244.12,0,0,0,177.6,452.8a13.45,13.45,0,0,0-1.14,5.74,229.22,229.22,0,0,0,1.76,23.56c-.73,1.26-1.46,2.51-2.21,3.75-3.15,5.22-5.83,10.89-5.3,17.15a43.46,43.46,0,0,0,1.53,7.95,96.88,96.88,0,0,0-5.49,11.49,8.69,8.69,0,0,0-.48,1.6,8.82,8.82,0,0,0-.78,1.11c-2.86,4.89-.92,10.65,3.58,13.65,5.81,3.88,12.54,6.15,19.26,7.91.72.9,5.25,1.12,6.36,1.65,20,9.57,32.51,6.56,59.21,8a105.11,105.11,0,0,0,35-4.17,118.68,118.68,0,0,0,16-5.74c2.28-1.07,4.86-.69,7-2.07.72-.47,1.89.41,2.66,0,.06,0,2.08-1.34,2.66-1.33,5.2.66,7.49-6.78,7.27-11.7a10,10,0,0,0-2.7-6.65c-.22-3.54-1.19-7.32-1.73-10.78q-1.38-8.85-2.75-17.71a130.87,130.87,0,0,0-4.89-21.76c-.54-3.72-1.22-7.45-.85-11.22a1.63,1.63,0,0,0-1.22-1.59c0-1.55-.05-3.1-.17-4.65A167.07,167.07,0,0,0,333,423.69l.34-.08a39.66,39.66,0,0,0,5.44-2.09,39.14,39.14,0,0,1,8.66-1.2,33.8,33.8,0,0,0,16.31-4.49c4.3-2.53,8.14-5.92,11.95-9.11a153.44,153.44,0,0,0,11.6-10.15,26.83,26.83,0,0,0,1.84-2.1A128.07,128.07,0,0,0,410.26,375a12.23,12.23,0,0,0,2.65-5.6,58.82,58.82,0,0,0,7.91-6.74c6-6.13,1.67-17.08-7.05-17-6.79,0-13.7-1.41-20.41-2.28l-16.7-2.17a27.19,27.19,0,0,0-.15-5.92,31.1,31.1,0,0,0,9.42-5.05c8.43-3.77,15.39-9.56,18.73-18.83a29.39,29.39,0,0,0-.74-21.09,11.38,11.38,0,0,0-1.82-7.71c-2.05-3.15-3.62-4.3-5.49-7-.32-.47-.64-1-1-1.45-.33-.78-.69-1.57-1.09-2.34-.88-1.7-2-3.26-3-4.86a42.46,42.46,0,0,1-2.44-5.84,11.29,11.29,0,0,0-4.16-5.58c-.32-.89-.64-1.79-.95-2.72-3.52-10.36-6.61-20-5.63-30.63a15.48,15.48,0,0,0,2.92-3c2.65-3.48,4.45-7.44,6.85-11.08,2-3,5.31-6.38,8.13-9.52,4.41-4.9,8.73-9.92,13.38-14.6,3.22,1.87,7.51,2.19,10.38.16q4.55-3.24,9.11-6.46a11.75,11.75,0,0,0,4.5-6.08c9.79-2.52,19.42-6.33,25.37-14.8C462.08,155,464.59,151.54,464.25,148Z"/><path class="cls-2" d="M99,202.86A208.24,208.24,0,0,0,37.06,351.32c0,97.58,66.94,179.54,157.4,202.46h0a210,210,0,0,0,112.3-2.61h0c1.91-.57,3.8-1.18,5.67-1.81h0c1.24-.42,2.45-.83,3.67-1.27l.16-.06h0c3.64-1.3,7.22-2.7,10.77-4.19A208.91,208.91,0,0,0,390.8,200.89"/><path class="cls-2" d="M219,424.07a25.49,25.49,0,0,1-4.61-2.24,55.17,55.17,0,0,0-4.75-2.94A77.36,77.36,0,0,0,199,415.24a1.41,1.41,0,0,0-.86,0,1.7,1.7,0,0,0-.67-.13,1.67,1.67,0,0,0-.52,3.24,9.94,9.94,0,0,0,.22,1.19,1.48,1.48,0,0,0-.32,1,5.41,5.41,0,0,0,1.61,3.69,7.31,7.31,0,0,0,.69.89,6.45,6.45,0,0,0,4.8,2h.25a31.92,31.92,0,0,0,3.36.36,52.41,52.41,0,0,0,8.12,0,1.74,1.74,0,0,0,1.24-.61l1.18.46a1.67,1.67,0,0,0,2-1.16A1.69,1.69,0,0,0,219,424.07Z"/><path class="cls-2" d="M294.38,416.48a1.6,1.6,0,0,0-2-1.27l-5.89,1.56a19.74,19.74,0,0,0-5.43,2,32.3,32.3,0,0,0-4.15,3.43,6,6,0,0,1-4.29,1.82,1.64,1.64,0,0,0-.95.26,1.67,1.67,0,0,0,.33,3.3,1.6,1.6,0,0,0,.85-.23h.54q3.06,0,6.1,0h.14a2.24,2.24,0,0,0,1,.56c1.16.32,2.65-.13,3.83-.29,2.62-.34,5.28-.81,7.4-2.51a6.85,6.85,0,0,0,2.63-5.81A1.75,1.75,0,0,0,294.38,416.48Z"/><path class="cls-2" d="M157.41,254.85a91.38,91.38,0,0,0-25.14-79,123.28,123.28,0,0,0-32-22.48c-3-1.49-25.79-17.36-11.26,1.16a52.81,52.81,0,0,0,9.23,9.4,151.78,151.78,0,0,1,45.84,53.46A149,149,0,0,1,157.41,254.85Z"/><path class="cls-2" d="M336.28,254.85a91.38,91.38,0,0,1,25.14-79,123.28,123.28,0,0,1,32-22.48c3-1.49,25.79-17.36,11.26,1.16a52.81,52.81,0,0,1-9.23,9.4,151.78,151.78,0,0,0-45.84,53.46A149,149,0,0,0,336.28,254.85Z"/><path class="cls-2" d="M429.88,127.5a12.16,12.16,0,0,0,6,3.57c2.33.42,5-.53,6-2.68a5.9,5.9,0,0,0-.77-5.53,24.19,24.19,0,0,0-4-4.21,40.69,40.69,0,0,1-9.41-13.5c-1-2.3-2.82-13.5-6.4-7.33-2.27,3.92-.66,11.84.48,15.88A31.15,31.15,0,0,0,429.88,127.5Z"/><path class="cls-2" d="M62,127.5a12.14,12.14,0,0,1-6,3.57c-2.32.42-5-.53-6-2.68a5.93,5.93,0,0,1,.78-5.53,24.5,24.5,0,0,1,4-4.21,40.72,40.72,0,0,0,9.42-13.5c1-2.3,2.81-13.5,6.39-7.33,2.27,3.92.67,11.84-.48,15.88A31,31,0,0,1,62,127.5Z"/><path class="cls-2" d="M415.05,357.42c2.09.39,4.25.83,6.3.14a6.4,6.4,0,0,0,4.16-5.63c.58-10-22.59-5.26-27.23-6.5-7.2-1.93-10.68-11.32-18-10.65-14.56,1.33-30.07,15.54-34.89,31.56C368.61,358.09,390.86,353,415.05,357.42Z"/><path class="cls-2" d="M76.38,357.42c-2.1.39-4.25.83-6.31.14a6.39,6.39,0,0,1-4.15-5.63c-.58-10,22.59-5.26,27.22-6.5,7.21-1.93,10.68-11.32,18-10.65,14.56,1.33,30.07,15.54,34.88,31.56C122.82,358.09,100.57,353,76.38,357.42Z"/><path class="cls-2" d="M338.11,411.15c-3.64,1.61-7.69,3.47-9,6.8-.78,1.95-.73,3.78,1.33,5.32,2.66,2,4.49,2.85,7.24,2.14A142.21,142.21,0,0,0,413,376.11c3.59-4.54,11.29-12.55,11.72-18.39-4.38.41-9.28,5.79-12.62,8.43-7.42,5.86-15,11.5-22.84,16.77A335.79,335.79,0,0,1,338.11,411.15Z"/><path class="cls-2" d="M152.4,411.15c3.64,1.61,7.69,3.47,9,6.8.78,1.95.73,3.78-1.33,5.32-2.66,2-4.49,2.85-7.24,2.14a142.21,142.21,0,0,1-75.32-49.3c-3.59-4.54-11.29-12.55-11.72-18.39,4.38.41,9.28,5.79,12.62,8.43,7.42,5.86,15,11.5,22.84,16.77A335.79,335.79,0,0,0,152.4,411.15Z"/><path class="cls-2" d="M222.66,463.26a94.76,94.76,0,0,0-.95-14.4,31.82,31.82,0,0,0-5.17-13.36c-1.21-1.7-5.28-4.28-4.55-6.24.65-1.75,5.29-1.8,7.11-2.21a16.75,16.75,0,0,1,4.76-.59,5.62,5.62,0,0,1,4.18,2.07c1.19,1.66,1,3.9.75,5.93l-2.46,20.15c-.4,3.32-1.3,7.25-1.7,10.58-.18,1.45,0,6-1.82,5.59C222,470.51,222.7,465.73,222.66,463.26Z"/><path class="cls-2" d="M268.08,463.26a96.06,96.06,0,0,1,.95-14.4,31.82,31.82,0,0,1,5.17-13.36c1.21-1.7,5.28-4.28,4.55-6.24-.65-1.75-5.29-1.8-7.11-2.21a16.75,16.75,0,0,0-4.76-.59,5.62,5.62,0,0,0-4.18,2.07c-1.19,1.66-1,3.9-.75,5.93l2.46,20.15c.4,3.32,1,7.25,1.44,10.58.17,1.45.26,6,2.08,5.59C268.77,470.51,268.05,465.73,268.08,463.26Z"/><path class="cls-2" d="M152.77,292c-7.19-.85-14.42-1.82-21.25-4.2s-13.3-6.32-17.61-12.12a5.76,5.76,0,0,1-1.38-3.14,2.3,2.3,0,0,1,2-2.45,3.6,3.6,0,0,1,1.75.62,64.54,64.54,0,0,0,28.88,8.2c2,.08,4.17.08,6,1s3.22,3.08,2.52,5Z"/><path class="cls-2" d="M339.12,292c7.19-.85,14.42-1.82,21.24-4.2s13.3-6.32,17.62-12.12a5.76,5.76,0,0,0,1.38-3.14,2.3,2.3,0,0,0-1.95-2.45,3.56,3.56,0,0,0-1.75.62,64.54,64.54,0,0,1-28.89,8.2c-2,.08-4.16.08-6,1s-3.22,3.08-2.52,5Z"/><path class="cls-2" d="M96,186.25c-9-8.42-20.25-14.16-31.63-19s-23.11-8.9-34.1-14.54c-2.47,1.78-1.84,5.88.35,8s5.32,2.83,8.22,3.74c13.23,4.14,24,13.51,35.55,21.22,7.08,4.74,14.55,8.93,21.2,14.26a54.39,54.39,0,0,1,10.22,10.45c.89,1.24,2,4.3,3.73,4.23,2.35-.1,1.87-2.73,1.64-4.13C109.65,201.37,102.49,192.34,96,186.25Z"/><path class="cls-2" d="M395.32,186.25c9.05-8.42,20.25-14.16,31.63-19s23.1-8.9,34.1-14.54c2.47,1.78,1.84,5.88-.35,8s-5.32,2.83-8.22,3.74c-13.23,4.14-24,13.51-35.55,21.22-7.08,4.74-14.55,8.93-21.2,14.26a54.39,54.39,0,0,0-10.22,10.45c-.89,1.24-1.95,4.3-3.73,4.23-2.35-.1-1.87-2.73-1.64-4.13C381.63,201.37,388.79,192.34,395.32,186.25Z"/><path class="cls-2" d="M287.07,466c1.3,12.7,2.57,25.75-.91,38s-12.86,23.76-25.45,25.81c1.18-2.77,1.27-8.25,3.84-10.76s5.7-3.07,8.61-5.18c11.23-8.12,11.35-14.11,12.68-28.75C286.38,479.19,286.51,472.51,287.07,466Z"/><path class="cls-2" d="M204.16,466c-1.29,12.7-2.56,25.75.92,38s12.85,23.76,25.44,25.81c-1.17-2.77-1.26-8.25-3.84-10.76s-5.7-3.07-8.61-5.18c-11.22-8.12-11.35-14.11-12.68-28.75C204.85,479.19,204.73,472.51,204.16,466Z"/><path class="cls-2" d="M233,531.65a20.52,20.52,0,0,0,6.18,1.18c5.12.43,10.3.86,15.36,0a10.8,10.8,0,0,0,5.62-2.38c2.07-1.95,2.63-5,3.09-7.76.19-1.19.33-2.58-.51-3.46a11.34,11.34,0,0,0-3.53-1.45c-7.76-1.69-14.23-1.82-22.16-1.47a16.2,16.2,0,0,0-5.88,1.05c-1.84.81-2.88,1.11-3.23,3.08C227.3,524.12,229.67,530.24,233,531.65Z"/><path class="cls-2" d="M408,148.83a51.85,51.85,0,0,0,12.92-5.61c.86-.53,1.82-1.29,1.73-2.3a2.09,2.09,0,0,0-1.78-1.63,18.49,18.49,0,0,0-2.58-.08,12.23,12.23,0,0,1-4-1.19,12.51,12.51,0,0,0-4-1.2,4.19,4.19,0,0,0-3.73,1.55,2.56,2.56,0,0,0,.73,3.64"/><path class="cls-2" d="M83.37,148.83a51.53,51.53,0,0,1-12.92-5.61c-.87-.53-1.83-1.29-1.73-2.3a2.08,2.08,0,0,1,1.78-1.63,18.44,18.44,0,0,1,2.58-.08,12.25,12.25,0,0,0,4-1.19,12.57,12.57,0,0,1,4-1.2,4.17,4.17,0,0,1,3.72,1.55,2.56,2.56,0,0,1-.72,3.64"/><g id="direita-3" data-name="direita"><path class="cls-2" d="M326.45,536.16c-3.5-15-12.88-57.09-14-80.81a103.49,103.49,0,0,0,19.5-30.64s25.8,1.43,57.34-26h0c12.44-10.82,25.77-26.13,38.76-47.79-33.42-13.93-55.7-11.15-55.7-11.15s48.74-13.92,33.42-51.53c-19.5-37.61-25.07-48.75-25.07-48.75S369.55,213,411.33,186.54c43.18-22.29,52.93-23.68,54.32-39s-26.46-25.08-26.46-25.08-20.89-8.35-12.54-37.6L428,79.29s-32,30.64-20.89,58.5l2.79,7S357,165.64,344.48,196.28s-13.93,54.32-5.57,85l2.78,7a98.09,98.09,0,0,0-19.17,5c-20.65,7.32-53.67,24.91-76.93,66.07"/><path class="cls-2" d="M309.59,416.54a35.28,35.28,0,0,0-13.47-1,37,37,0,0,0-12.72,3.9,26.71,26.71,0,0,0-2.77,1.71l-1.36,1c-.5.38-1,.71-1.51,1-2,1.29-4.09,2.37-6.16,3.45s-4.16,2.11-6.28,3-4.28,1.77-6.51,2.5l-6.5,2.15,4.25-5.29c.16-.2.41-.51.61-.8s.42-.61.62-.91c.41-.63.8-1.27,1.16-1.94a32.69,32.69,0,0,0,2-4.13c.29-.71.55-1.44.8-2.17s.5-1.48.69-2.24c.45-1.51.73-3.07,1.07-4.66h.4a24.59,24.59,0,0,1,.36,4.93,26.26,26.26,0,0,1-.6,5,28.1,28.1,0,0,1-1.48,4.84c-.32.79-.68,1.56-1.07,2.32-.21.38-.41.76-.64,1.14a12.86,12.86,0,0,1-.77,1.16l-2.25-3.14c2.08-.85,4.21-1.69,6.33-2.5s4.26-1.58,6.35-2.45a57.34,57.34,0,0,0,6.07-2.88c.48-.27,1-.53,1.39-.83l.69-.45c.26-.17.51-.35.77-.51a28.27,28.27,0,0,1,3.2-1.72A37.52,37.52,0,0,1,296,413.92a34.49,34.49,0,0,1,13.72,2.24Z"/><path class="cls-2" d="M268.54,426.6s30.66,8.17,25.95-10.65"/><path class="cls-2" d="M244.89,481.12s16.71-8.36,20.89,1.39-8.35,15.32-8.35,15.32-4.18,10.74-11.84,13C244.89,489.47,244.89,481.12,244.89,481.12Z"/><polygon class="cls-2" points="263.51 428.71 267.18 469.97 259.56 429.25 263.51 428.71"/><path class="cls-2" d="M245.44,514.09a46.76,46.76,0,0,1,4.9.08c1.61.11,3.22.3,4.82.57a36.64,36.64,0,0,1,4.78,1.18,23.71,23.71,0,0,1,4.59,2.11l-1.73,0c2.87-1.84,5.86-3.43,8.71-5.07a26.69,26.69,0,0,0,7.46-5.89,22.88,22.88,0,0,0,4.21-8.51l.34-1.17.26-1.2c.16-.8.36-1.6.5-2.41.22-1.63.54-3.25.66-4.91.36-3.28.55-6.64.82-10s.5-6.67.79-10,.61-6.67,1.21-10a27.23,27.23,0,0,1,1.3-4.86,16.71,16.71,0,0,1,2.49-4.34,16.56,16.56,0,0,0-2.3,4.41,27.8,27.8,0,0,0-1.1,4.86c-.45,3.29-.63,6.63-.79,10s-.27,6.67-.39,10-.19,6.66-.42,10c-.05,1.69-.31,3.36-.47,5.05-.11.84-.28,1.68-.42,2.51l-.22,1.26-.31,1.25a25,25,0,0,1-4.25,9.49,29.32,29.32,0,0,1-7.89,6.81c-2.87,1.81-5.72,3.47-8.4,5.35l-.79.55-.94-.51a21,21,0,0,0-3.94-1.62,34.28,34.28,0,0,0-4.31-.88,44,44,0,0,0-4.45-.34c-1.48,0-3.32,0-4.72.07Z"/></g><g id="esquerda-3" data-name="esquerda"><path class="cls-2" d="M245.59,359.25c-23.42-41.44-56.74-59-77.36-66.22a96.8,96.8,0,0,0-18.74-4.82l2.78-7c8.35-30.65,7-54.32-5.57-85s-65.47-51.53-65.47-51.53l2.79-7c11.15-27.86-20.89-58.5-20.89-58.5l1.39,5.57C72.88,114.11,52,122.46,52,122.46s-27.86,9.76-26.46,25.08,11.13,16.71,54.31,39c41.79,26.46,30.64,52.92,30.64,52.92s-5.57,11.14-25.07,48.75c-15.32,37.61,33.43,51.53,33.43,51.53S96.56,337,63.13,350.89c12.79,21.31,25.9,36.48,38.16,47.27,31.82,28,57.94,26.55,57.94,26.55a103.49,103.49,0,0,0,19.5,30.64c-1.14,23.92-10.67,66.5-14.09,81.2"/><path class="cls-2" d="M181.46,416.16a34.44,34.44,0,0,1,13.71-2.24,37.48,37.48,0,0,1,13.76,3.13,28.27,28.27,0,0,1,3.2,1.72c.26.16.52.34.77.51l.69.45c.43.3.92.56,1.39.83a58.29,58.29,0,0,0,6.07,2.88c2.09.87,4.23,1.64,6.36,2.45s4.25,1.65,6.33,2.5l-2.26,3.14c-.32-.44-.53-.78-.76-1.16s-.43-.76-.64-1.14c-.39-.76-.76-1.53-1.08-2.32a29,29,0,0,1-1.48-4.84,27.08,27.08,0,0,1-.59-5,24.59,24.59,0,0,1,.35-4.93h.4c.34,1.59.62,3.15,1.08,4.66.19.76.43,1.5.68,2.24s.51,1.46.81,2.17a34.07,34.07,0,0,0,2,4.13c.36.67.76,1.31,1.16,1.94.21.3.41.62.63.91s.45.6.61.8l4.24,5.29-6.49-2.15c-2.23-.73-4.38-1.57-6.51-2.5s-4.21-2-6.28-3-4.15-2.16-6.17-3.45c-.5-.32-1-.65-1.5-1l-1.36-1a25.84,25.84,0,0,0-2.78-1.71,36.93,36.93,0,0,0-12.72-3.9,35.29,35.29,0,0,0-13.47,1Z"/><path class="cls-2" d="M246.28,481.12s-16.71-8.36-20.89,1.39,8.36,15.32,8.36,15.32,4.18,10.74,11.84,13C246.28,489.47,246.28,481.12,246.28,481.12Z"/><polygon class="cls-2" points="231.62 429.25 224 469.97 227.66 428.71 231.62 429.25"/><path class="cls-2" d="M245.5,518A44.32,44.32,0,0,0,241,518a43.75,43.75,0,0,0-4.45.34,33.92,33.92,0,0,0-4.31.88,20.86,20.86,0,0,0-3.95,1.62l-.93.51-.8-.55c-2.68-1.88-5.52-3.54-8.39-5.35a29.36,29.36,0,0,1-7.9-6.81,25.12,25.12,0,0,1-4.25-9.49l-.31-1.25-.22-1.26c-.13-.83-.31-1.67-.41-2.51-.17-1.69-.42-3.36-.48-5.05-.23-3.37-.28-6.69-.42-10s-.22-6.68-.38-10-.35-6.67-.8-10a28.71,28.71,0,0,0-1.09-4.86,16.59,16.59,0,0,0-2.31-4.41,16.46,16.46,0,0,1,2.5,4.34,29,29,0,0,1,1.3,4.86c.59,3.3.9,6.64,1.2,10s.55,6.67.8,10,.46,6.68.81,10c.13,1.66.44,3.28.67,4.91.13.81.33,1.61.5,2.41l.25,1.2.35,1.17a22.86,22.86,0,0,0,4.2,8.51,26.83,26.83,0,0,0,7.46,5.89c2.85,1.64,5.84,3.23,8.72,5.07l-1.73,0a23.63,23.63,0,0,1,4.58-2.11,37,37,0,0,1,4.78-1.18q2.42-.4,4.83-.57a46.76,46.76,0,0,1,4.9-.08Z"/></g><path class="cls-2" d="M222.46,426.6s-30.65,8.17-26-10.65"/><line class="cls-2" x1="389.28" y1="398.69" x2="389.28" y2="398.68"/><path class="cls-2" d="M263.55,519.41a8.87,8.87,0,0,1,.59,3.36,12,12,0,0,1-.46,3.31,10.16,10.16,0,0,1-1.42,3.09,5.73,5.73,0,0,1-2.7,2.22c.34-1.15.56-2.12.8-3.11s.48-1.95.76-2.93.6-2,1-3A17.84,17.84,0,0,1,263.55,519.41Z"/><path class="cls-2" d="M227.62,519.41a16.42,16.42,0,0,1,1.46,3c.38,1,.69,2,1,3s.51,2,.76,2.93.46,2,.81,3.11a5.68,5.68,0,0,1-2.7-2.22,10.19,10.19,0,0,1-1.43-3.09,12,12,0,0,1-.46-3.31A9.06,9.06,0,0,1,227.62,519.41Z"/><circle class="cls-3" cx="245.92" cy="351.32" r="208.86"/><g id="direita-4" data-name="direita"><path class="cls-4" d="M326.45,536.16c-3.5-15-12.88-57.09-14-80.81a103.49,103.49,0,0,0,19.5-30.64s25.8,1.43,57.34-26h0c12.44-10.82,25.77-26.13,38.76-47.79-33.42-13.93-55.7-11.15-55.7-11.15s48.74-13.92,33.42-51.53c-19.5-37.61-25.07-48.75-25.07-48.75S369.55,213,411.33,186.54c43.18-22.29,52.93-23.68,54.32-39s-26.46-25.08-26.46-25.08-20.89-8.35-12.54-37.6L428,79.29s-32,30.64-20.89,58.5l2.79,7S357,165.64,344.48,196.28s-13.93,54.32-5.57,85l2.78,7a98.09,98.09,0,0,0-19.17,5c-20.65,7.32-53.67,24.91-76.93,66.07"/><path class="cls-5" d="M309.59,416.54a35.28,35.28,0,0,0-13.47-1,37,37,0,0,0-12.72,3.9,26.71,26.71,0,0,0-2.77,1.71l-1.36,1c-.5.38-1,.71-1.51,1-2,1.29-4.09,2.37-6.16,3.45s-4.16,2.11-6.28,3-4.28,1.77-6.51,2.5l-6.5,2.15,4.25-5.29c.16-.2.41-.51.61-.8s.42-.61.62-.91c.41-.63.8-1.27,1.16-1.94a32.69,32.69,0,0,0,2-4.13c.29-.71.55-1.44.8-2.17s.5-1.48.69-2.24c.45-1.51.73-3.07,1.07-4.66h.4a24.59,24.59,0,0,1,.36,4.93,26.26,26.26,0,0,1-.6,5,28.1,28.1,0,0,1-1.48,4.84c-.32.79-.68,1.56-1.07,2.32-.21.38-.41.76-.64,1.14a12.86,12.86,0,0,1-.77,1.16l-2.25-3.14c2.08-.85,4.21-1.69,6.33-2.5s4.26-1.58,6.35-2.45a57.34,57.34,0,0,0,6.07-2.88c.48-.27,1-.53,1.39-.83l.69-.45c.26-.17.51-.35.77-.51a28.27,28.27,0,0,1,3.2-1.72A37.52,37.52,0,0,1,296,413.92a34.49,34.49,0,0,1,13.72,2.24Z"/><path class="cls-6" d="M268.54,426.6s30.66,8.17,25.95-10.65"/><path class="cls-5" d="M244.89,481.12s16.71-8.36,20.89,1.39-8.35,15.32-8.35,15.32-4.18,10.74-11.84,13C244.89,489.47,244.89,481.12,244.89,481.12Z"/><polygon class="cls-5" points="263.51 428.71 267.18 469.97 259.56 429.25 263.51 428.71"/><path class="cls-5" d="M245.44,514.09a46.76,46.76,0,0,1,4.9.08c1.61.11,3.22.3,4.82.57a36.64,36.64,0,0,1,4.78,1.18,23.71,23.71,0,0,1,4.59,2.11l-1.73,0c2.87-1.84,5.86-3.43,8.71-5.07a26.69,26.69,0,0,0,7.46-5.89,22.88,22.88,0,0,0,4.21-8.51l.34-1.17.26-1.2c.16-.8.36-1.6.5-2.41.22-1.63.54-3.25.66-4.91.36-3.28.55-6.64.82-10s.5-6.67.79-10,.61-6.67,1.21-10a27.23,27.23,0,0,1,1.3-4.86,16.71,16.71,0,0,1,2.49-4.34,16.56,16.56,0,0,0-2.3,4.41,27.8,27.8,0,0,0-1.1,4.86c-.45,3.29-.63,6.63-.79,10s-.27,6.67-.39,10-.19,6.66-.42,10c-.05,1.69-.31,3.36-.47,5.05-.11.84-.28,1.68-.42,2.51l-.22,1.26-.31,1.25a25,25,0,0,1-4.25,9.49,29.32,29.32,0,0,1-7.89,6.81c-2.87,1.81-5.72,3.47-8.4,5.35l-.79.55-.94-.51a21,21,0,0,0-3.94-1.62,34.28,34.28,0,0,0-4.31-.88,44,44,0,0,0-4.45-.34,40.2,40.2,0,0,0-4.42.11Z"/></g><g id="esquerda-4" data-name="esquerda"><path class="cls-7" d="M245.59,359.25c-23.42-41.44-56.74-59-77.36-66.22a96.8,96.8,0,0,0-18.74-4.82l2.78-7c8.35-30.65,7-54.32-5.57-85s-65.47-51.53-65.47-51.53l2.79-7c11.15-27.86-20.89-58.5-20.89-58.5l1.39,5.57C72.88,114.11,52,122.46,52,122.46s-27.86,9.76-26.46,25.08,11.13,16.71,54.31,39c41.79,26.46,30.64,52.92,30.64,52.92s-5.57,11.14-25.07,48.75c-15.32,37.61,33.43,51.53,33.43,51.53S96.56,337,63.13,350.89c12.79,21.31,25.9,36.48,38.16,47.27,31.82,28,57.94,26.55,57.94,26.55a103.49,103.49,0,0,0,19.5,30.64c-1.14,23.92-10.67,66.5-14.09,81.2"/><path class="cls-5" d="M181.46,416.16a34.44,34.44,0,0,1,13.71-2.24,37.48,37.48,0,0,1,13.76,3.13,28.27,28.27,0,0,1,3.2,1.72c.26.16.52.34.77.51l.69.45c.43.3.92.56,1.39.83a58.29,58.29,0,0,0,6.07,2.88c2.09.87,4.23,1.64,6.36,2.45s4.25,1.65,6.33,2.5l-2.26,3.14c-.32-.44-.53-.78-.76-1.16s-.43-.76-.64-1.14c-.39-.76-.76-1.53-1.08-2.32a29,29,0,0,1-1.48-4.84,27.08,27.08,0,0,1-.59-5,24.59,24.59,0,0,1,.35-4.93h.4c.34,1.59.62,3.15,1.08,4.66.19.76.43,1.5.68,2.24s.51,1.46.81,2.17a34.07,34.07,0,0,0,2,4.13c.36.67.76,1.31,1.16,1.94.21.3.41.62.63.91s.45.6.61.8l4.24,5.29-6.49-2.15c-2.23-.73-4.38-1.57-6.51-2.5s-4.21-2-6.28-3-4.15-2.16-6.17-3.45c-.5-.32-1-.65-1.5-1l-1.36-1a25.84,25.84,0,0,0-2.78-1.71,36.93,36.93,0,0,0-12.72-3.9,35.29,35.29,0,0,0-13.47,1Z"/><path class="cls-5" d="M246.28,481.12s-16.71-8.36-20.89,1.39,8.36,15.32,8.36,15.32,4.18,10.74,11.84,13C246.28,489.47,246.28,481.12,246.28,481.12Z"/><polygon class="cls-5" points="231.62 429.25 224 469.97 227.66 428.71 231.62 429.25"/><path class="cls-5" d="M245.44,518.08A40.33,40.33,0,0,0,241,518a43.75,43.75,0,0,0-4.45.34,33.92,33.92,0,0,0-4.31.88,20.86,20.86,0,0,0-3.95,1.62l-.93.51-.8-.55c-2.68-1.88-5.52-3.54-8.39-5.35a29.36,29.36,0,0,1-7.9-6.81,25.12,25.12,0,0,1-4.25-9.49l-.31-1.25-.22-1.26c-.13-.83-.31-1.67-.41-2.51-.17-1.69-.42-3.36-.48-5.05-.23-3.37-.28-6.69-.42-10s-.22-6.68-.38-10-.35-6.67-.8-10a28.71,28.71,0,0,0-1.09-4.86,16.59,16.59,0,0,0-2.31-4.41,16.46,16.46,0,0,1,2.5,4.34,29,29,0,0,1,1.3,4.86c.59,3.3.9,6.64,1.2,10s.55,6.67.8,10,.46,6.68.81,10c.13,1.66.44,3.28.67,4.91.13.81.33,1.61.5,2.41l.25,1.2.35,1.17a22.86,22.86,0,0,0,4.2,8.51,26.83,26.83,0,0,0,7.46,5.89c2.85,1.64,5.84,3.23,8.72,5.07l-1.73,0a23.63,23.63,0,0,1,4.58-2.11,37,37,0,0,1,4.78-1.18q2.42-.4,4.83-.57a46.76,46.76,0,0,1,4.9-.08Z"/></g><path class="cls-7" d="M99,202.86A208.24,208.24,0,0,0,37.06,351.32c0,97.58,66.94,179.54,157.4,202.46h0a210,210,0,0,0,112.3-2.61h0c1.91-.57,3.8-1.18,5.67-1.81h0c1.24-.42,2.45-.83,3.67-1.27l.16-.06h0c3.64-1.3,7.22-2.7,10.77-4.19A208.91,208.91,0,0,0,390.8,200.89"/><path class="cls-8" d="M245.92,570.65A219.33,219.33,0,1,1,401,506.41,217.94,217.94,0,0,1,245.92,570.65Z"/><path class="cls-9" d="M316.26,538.54c-3.91-16.75-13.12-58.34-14.28-82.69l-.21-4.34,2.92-3.21a94.27,94.27,0,0,0,17.42-27.2l2.75-7.42,7.61.57c1.57,0,22.52,0,49.13-22.76l.81-.71C393,381.6,403,370,412.27,356.19c-23.42-7.62-38.47-6.08-38.63-6.06l-4.18-20.45c5.68-1.66,21.65-8.4,27-19.42,2.5-5.18,2.43-11-.21-17.68-19.12-36.89-24.68-48-24.9-48.43l-.29-.62c-.59-1.42-14-35,34.69-65.84l.39-.25.41-.21c8.31-4.29,15.25-7.74,21.38-10.79,25.73-12.79,26.78-14,27.31-19.85.32-3.52-9.53-10.71-19.51-14.25l-.41-.15c-5.71-2.29-13.54-8.18-17.87-18.19-2.33,6.66-3.07,13.62-.56,19.9l6.7,16.73-9.79,3.86c-13.57,5.38-50.75,24.09-59.61,45.76-11.51,28.14-13,49.25-5.31,77.68l7.63,19.1-13.59,1.59A89.89,89.89,0,0,0,326,303.05c-20.9,7.41-50.24,24.07-71.32,61.35l-18.23-10.31c24.26-42.91,58.28-62.17,82.55-70.78,3.26-1.15,6.23-2.07,8.86-2.8-8-31.61-6-56.64,6.91-88.19,10.67-26.09,44.85-45,61.75-53.08-11.05-33.23,22.79-66.1,24.27-67.52L447,46.7l-10.25,41c-5.18,18.15,4,23.86,6.38,25,5.25,1.91,35,13.7,33,35.75-1.66,18.22-12.54,23.63-38.85,36.71-6,3-12.69,6.31-20.68,10.43-30.77,19.65-26.95,37.21-26.2,39.73,1.37,2.73,7.85,15.53,24.71,48l.22.43.18.44c5,12.38,5,24.56-.22,35.21a46.71,46.71,0,0,1-9.68,13.12,169.61,169.61,0,0,1,26.51,8.63l11.19,4.67L437,356.28c-11.28,18.81-23.8,34.62-37.27,47.07v.1l-3.59,3.14C371.78,427.8,350,433.33,339,434.73A119.67,119.67,0,0,1,323.17,459c1.92,23.91,10.7,62.88,13.48,74.8Z"/><path class="cls-10" d="M248.39,422.47l.22-.29.16-.21.25-.39c.25-.38.52-.81.72-1.18l.13-.23a23.26,23.26,0,0,0,1.36-2.88c.18-.44.36-.93.58-1.58.17-.49.35-1,.44-1.4l.07-.27.08-.25c.21-.71.4-1.6.61-2.64.08-.39.16-.78.25-1.18L255,401.7h17.7l1.34,7.84a37.67,37.67,0,0,1,3.84-2l.1,0a47.23,47.23,0,0,1,17.63-4l1.66,0a44.34,44.34,0,0,1,16.23,3L322.8,410l-6.41,19.25-9.59-2.65a24.66,24.66,0,0,0-6.53-.88,25.68,25.68,0,0,0-2.91.17,26.32,26.32,0,0,0-9,2.75,14.34,14.34,0,0,0-1.53.92l-1.22.92c-.78.59-1.48,1-2.05,1.41l-.09.05c-2.36,1.51-4.59,2.68-6.75,3.81l-.3.16c-2,1-4.35,2.2-6.84,3.3s-5,2.05-7.44,2.87L222,455.36Z"/><path class="cls-11" d="M281.45,438.86a63.83,63.83,0,0,1-15.61-2.14l5.4-20.24-2.7,10.12,2.68-10.12c5.48,1.43,12.77,1.87,14.72.88a2.76,2.76,0,0,0-.95,1l19.66-4.92c2.59,10.36-1.69,16.5-4.48,19.24C295.28,437.47,288.1,438.86,281.45,438.86Z"/><path class="cls-10" d="M235.12,511.2c-.69-21.31-.7-29.74-.7-30.08v-6.48l5.79-2.89c1.48-.74,9.28-4.44,17.31-4.44,8.35,0,14.87,4,17.89,11.07,4.77,11.13-1,21.4-10,27-2.6,5-8,12.86-16.87,15.51l-13,3.88Z"/><polygon class="cls-10" points="247.24 420.38 272.97 416.84 277.61 469.05 256.88 471.9 247.24 420.38"/><path class="cls-10" d="M257.84,530a10.46,10.46,0,0,0-1.83-.75,24.57,24.57,0,0,0-2.79-.56,33.21,33.21,0,0,0-3.34-.25h-1c-.85,0-1.64,0-2.3.08l-10.51.88-1.92-25.3,10.81-.46c.73,0,1.43,0,2.12,0,1.21,0,2.45,0,3.88.13q3.06.21,5.92.69l.12,0a49.66,49.66,0,0,1,5.83,1.43l1-.54,2.46-1.4a16.67,16.67,0,0,0,4.59-3.45l.07-.08a12.74,12.74,0,0,0,2.16-4.63l.27-.92.16-.76.21-1c.06-.29.13-.59.19-.89.07-.53.15-1.06.24-1.6.14-.91.28-1.78.33-2.47V488l0-.18c.23-2.11.39-4.29.56-6.6.07-1,.15-2,.23-3.06l.06-.79c.23-3,.46-6.18.74-9.3.34-3.83.68-7.28,1.33-10.89l0-.14a38.88,38.88,0,0,1,1.82-6.64,27,27,0,0,1,4-7.06L300,455.92a6.23,6.23,0,0,0-.85,1.6,18.15,18.15,0,0,0-.66,3c-.38,2.76-.54,5.58-.7,9-.15,3-.25,6.13-.36,9.15l0,.7c0,1-.08,2-.11,3-.07,2.33-.15,4.74-.32,7.22-.06,1.5-.21,2.88-.36,4.1l-.15,1.42,0,.27c-.1.83-.23,1.55-.35,2.19l-.12.72-.31,1.76-.39,1.57a35.36,35.36,0,0,1-6.08,13.32,39.34,39.34,0,0,1-10.62,9.32L276,525.91c-1.91,1.18-3.72,2.29-5.36,3.44l-6.12,4.27Z"/><path class="cls-12" d="M174.83,538.92l-20.39-4.75c2.79-12,11.64-51.22,13.57-75.19a120.25,120.25,0,0,1-15.8-24.25c-11.13-1.41-33.2-7-57.83-28.71-14.59-12.84-28.13-29.57-40.23-49.74l-6.23-10.39,11.18-4.67a169.61,169.61,0,0,1,26.51-8.63,46.9,46.9,0,0,1-9.68-13.12c-5.18-10.65-5.26-22.83-.21-35.21l.18-.44.22-.43c16.85-32.5,23.33-45.3,24.71-48,.74-2.52,4.56-20.08-26.21-39.73-8-4.12-14.72-7.47-20.68-10.43-26.3-13.08-37.19-18.49-38.84-36.71-2-22.05,27.73-33.84,33-35.75,2.36-1.14,11.56-6.85,6.37-25l-.09-.34L44.2,46.69l26.17,25c1.48,1.42,35.32,34.3,24.27,67.52,16.89,8,51.08,27,61.75,53.08,12.9,31.55,14.92,56.58,6.9,88.18,2.51.7,5.33,1.57,8.4,2.65A148.59,148.59,0,0,1,212.18,305a159.25,159.25,0,0,1,42.52,49.13L236.47,364.4c-21.17-37.46-50.68-54.11-71.71-61.49a89.14,89.14,0,0,0-16.52-4.3L134.65,297l7.67-19.11c7.65-28.42,6.2-49.54-5.31-77.68-8.87-21.67-46-40.38-59.63-45.76l-9.76-3.87L74.3,133.9c2.58-6.45,1.8-13.42-.52-20-4.33,10-12.18,16-17.9,18.26l-.43.16c-10,3.53-19.82,10.72-19.5,14.24.53,5.83,1.59,7.06,27.32,19.85,6.12,3.05,13.07,6.5,21.38,10.79l.41.21.39.25c48.71,30.85,35.28,64.42,34.68,65.84l-.28.62c-.23.45-5.78,11.54-24.91,48.43-2.64,6.71-2.7,12.5-.2,17.68,5.32,11,21.3,17.76,27,19.42l-4.2,20.45c-.12,0-15.2-1.56-38.63,6.07a176.87,176.87,0,0,0,29.3,34.1c27.83,24.49,50.21,23.95,50.44,23.95l7.77-.43,2.65,7.31a94.61,94.61,0,0,0,17.41,27.17l2.92,3.21-.21,4.34C188,480.24,178.76,522.07,174.83,538.92Z"/><path class="cls-10" d="M229.08,442.11c-2.47-.82-4.89-1.75-7.41-2.85s-4.9-2.31-6.88-3.32l-.27-.15c-2.17-1.13-4.41-2.3-6.74-3.79l-.13-.08c-.56-.37-1.26-.82-2-1.41l-1.23-.92a13.4,13.4,0,0,0-1.53-.92,26.28,26.28,0,0,0-9.07-2.75,24.61,24.61,0,0,0-9.41.71l-9.58,2.65L168.38,410l9.27-3.62a44.25,44.25,0,0,1,16.22-3c.56,0,1.11,0,1.66,0a47.28,47.28,0,0,1,17.64,4l.09,0a36.81,36.81,0,0,1,3.85,2l1.34-7.84h17.69l1.78,8.27c.08.4.17.79.25,1.19.21,1,.4,1.92.61,2.63l.08.26.06.27c.1.37.27.88.44,1.38.22.66.4,1.15.57,1.56a24.54,24.54,0,0,0,1.38,2.91l.13.23c.2.37.47.8.71,1.18l.11.16c.05.09.11.17.17.26l.09.13.07.09a2.43,2.43,0,0,0,.2.25l26.37,32.89Z"/><path class="cls-10" d="M242.59,520.9c-8.87-2.65-14.26-10.55-16.87-15.51-8.91-5.61-14.72-15.88-9.95-27,3-7,9.53-11.07,17.88-11.07,8,0,15.83,3.7,17.32,4.44l5.79,2.89v6.48c0,.34,0,8.77-.71,30.08l-.44,13.58Z"/><polygon class="cls-10" points="213.57 469.05 218.21 416.84 243.93 420.38 234.29 471.9 213.57 469.05"/><path class="cls-10" d="M220.59,529.35c-1.64-1.15-3.45-2.26-5.36-3.44-.87-.54-1.75-1.08-2.63-1.64A39.18,39.18,0,0,1,202,514.94a35.38,35.38,0,0,1-6.09-13.32l-.39-1.57-.3-1.76c0-.24-.09-.48-.13-.72-.11-.64-.24-1.36-.35-2.19l0-.27c-.05-.47-.11-.94-.16-1.42-.14-1.22-.3-2.6-.36-4.1-.16-2.49-.24-4.91-.32-7.25,0-1-.06-1.94-.1-2.92l0-.74c-.11-3-.22-6.14-.36-9.18-.16-3.26-.33-6.2-.7-9a19.09,19.09,0,0,0-.65-3,6.2,6.2,0,0,0-.87-1.64l16.71-12.62a27,27,0,0,1,4.05,7.1,37.81,37.81,0,0,1,1.8,6.6l0,.14c.64,3.6,1,7.05,1.32,10.87.28,3.18.52,6.35.75,9.42l.06.73c.08,1,.15,2,.22,3,.17,2.32.33,4.51.56,6.63l0,.18,0,.19c0,.69.18,1.56.33,2.47l.24,1.61c.05.29.12.58.18.88s.15.65.21,1l.17.76.27.92a12.58,12.58,0,0,0,2.16,4.63l.06.08a17.23,17.23,0,0,0,4.61,3.47l2.44,1.38,1,.54a49.83,49.83,0,0,1,5.84-1.43l.11,0c1.91-.32,3.89-.55,5.87-.69,1.49-.09,2.72-.13,3.94-.13.69,0,1.39,0,2.11,0l10.82.46-1.92,25.3-10.52-.88c-.65,0-1.44-.08-2.29-.08h-1c-1.11,0-2.24.11-3.33.25a24.57,24.57,0,0,0-2.79.56,11.15,11.15,0,0,0-1.83.75l-6.63,3.62Z"/><path class="cls-12" d="M245.92,570.65a220.07,220.07,0,0,1-52.75-6.39h0l-1.28-.33A219.12,219.12,0,0,1,26.59,351.32a218.7,218.7,0,0,1,65.06-155.9l14.73,14.89a198.42,198.42,0,0,0,90,333.16l.66.16a199.43,199.43,0,0,0,106.67-2.48l1.49-.45c1-.31,2-.65,3.14-1l1.54-.8h.84l1.78-.62,1.66-.71h.3c2.87-1.06,5.74-2.19,8.55-3.37a198.44,198.44,0,0,0,60.53-325.75l14.53-15.08a219.39,219.39,0,0,1-66.93,360.13c-3.72,1.56-7.52,3-11.31,4.4l-.08,0h0l-1.66.58-1.5.52-1.56.82h-.89c-1.52.5-2.95.95-4.35,1.37l-1.49.44A219.33,219.33,0,0,1,245.92,570.65Z"/><circle class="cls-3" cx="245.92" cy="351.32" r="208.86"/><g id="direita-5" data-name="direita"><path class="cls-4" d="M326.45,536.16c-3.5-15-12.88-57.09-14-80.81a103.49,103.49,0,0,0,19.5-30.64s25.8,1.43,57.34-26h0c12.44-10.82,25.77-26.13,38.76-47.79-33.42-13.93-55.7-11.15-55.7-11.15s48.74-13.92,33.42-51.53c-19.5-37.61-25.07-48.75-25.07-48.75S369.55,213,411.33,186.54c43.18-22.29,52.93-23.68,54.32-39s-26.46-25.08-26.46-25.08-20.89-8.35-12.54-37.6L428,79.29s-32,30.64-20.89,58.5l2.79,7S357,165.64,344.48,196.28s-13.93,54.32-5.57,85l2.78,7a98.09,98.09,0,0,0-19.17,5c-20.65,7.32-53.67,24.91-76.93,66.07"/><path class="cls-5" d="M309.59,416.54a35.28,35.28,0,0,0-13.47-1,37,37,0,0,0-12.72,3.9,26.71,26.71,0,0,0-2.77,1.71l-1.36,1c-.5.38-1,.71-1.51,1-2,1.29-4.09,2.37-6.16,3.45s-4.16,2.11-6.28,3-4.28,1.77-6.51,2.5l-6.5,2.15,4.25-5.29c.16-.2.41-.51.61-.8s.42-.61.62-.91c.41-.63.8-1.27,1.16-1.94a32.69,32.69,0,0,0,2-4.13c.29-.71.55-1.44.8-2.17s.5-1.48.69-2.24c.45-1.51.73-3.07,1.07-4.66h.4a24.59,24.59,0,0,1,.36,4.93,26.26,26.26,0,0,1-.6,5,28.1,28.1,0,0,1-1.48,4.84c-.32.79-.68,1.56-1.07,2.32-.21.38-.41.76-.64,1.14a12.86,12.86,0,0,1-.77,1.16l-2.25-3.14c2.08-.85,4.21-1.69,6.33-2.5s4.26-1.58,6.35-2.45a57.34,57.34,0,0,0,6.07-2.88c.48-.27,1-.53,1.39-.83l.69-.45c.26-.17.51-.35.77-.51a28.27,28.27,0,0,1,3.2-1.72A37.52,37.52,0,0,1,296,413.92a34.49,34.49,0,0,1,13.72,2.24Z"/><path class="cls-6" d="M268.54,426.6s30.66,8.17,25.95-10.65"/><path class="cls-5" d="M244.89,481.12s16.71-8.36,20.89,1.39-8.35,15.32-8.35,15.32-4.18,10.74-11.84,13C244.89,489.47,244.89,481.12,244.89,481.12Z"/><polygon class="cls-5" points="263.51 428.71 267.18 469.97 259.56 429.25 263.51 428.71"/><path class="cls-5" d="M245.44,514.09a46.76,46.76,0,0,1,4.9.08c1.61.11,3.22.3,4.82.57a36.64,36.64,0,0,1,4.78,1.18,23.71,23.71,0,0,1,4.59,2.11l-1.73,0c2.87-1.84,5.86-3.43,8.71-5.07a26.69,26.69,0,0,0,7.46-5.89,22.88,22.88,0,0,0,4.21-8.51l.34-1.17.26-1.2c.16-.8.36-1.6.5-2.41.22-1.63.54-3.25.66-4.91.36-3.28.55-6.64.82-10s.5-6.67.79-10,.61-6.67,1.21-10a27.23,27.23,0,0,1,1.3-4.86,16.71,16.71,0,0,1,2.49-4.34,16.56,16.56,0,0,0-2.3,4.41,27.8,27.8,0,0,0-1.1,4.86c-.45,3.29-.63,6.63-.79,10s-.27,6.67-.39,10-.19,6.66-.42,10c-.05,1.69-.31,3.36-.47,5.05-.11.84-.28,1.68-.42,2.51l-.22,1.26-.31,1.25a25,25,0,0,1-4.25,9.49,29.32,29.32,0,0,1-7.89,6.81c-2.87,1.81-5.72,3.47-8.4,5.35l-.79.55-.94-.51a21,21,0,0,0-3.94-1.62,34.28,34.28,0,0,0-4.31-.88,44,44,0,0,0-4.45-.34,40.2,40.2,0,0,0-4.42.11Z"/></g><g id="esquerda-5" data-name="esquerda"><path class="cls-7" d="M245.59,359.25c-23.42-41.44-56.74-59-77.36-66.22a96.8,96.8,0,0,0-18.74-4.82l2.78-7c8.35-30.65,7-54.32-5.57-85s-65.47-51.53-65.47-51.53l2.79-7c11.15-27.86-20.89-58.5-20.89-58.5l1.39,5.57C72.88,114.11,52,122.46,52,122.46s-27.86,9.76-26.46,25.08,11.13,16.71,54.31,39c41.79,26.46,30.64,52.92,30.64,52.92s-5.57,11.14-25.07,48.75c-15.32,37.61,33.43,51.53,33.43,51.53S96.56,337,63.13,350.89c12.79,21.31,25.9,36.48,38.16,47.27,31.82,28,57.94,26.55,57.94,26.55a103.49,103.49,0,0,0,19.5,30.64c-1.14,23.92-10.67,66.5-14.09,81.2"/><path class="cls-5" d="M181.46,416.16a34.44,34.44,0,0,1,13.71-2.24,37.48,37.48,0,0,1,13.76,3.13,28.27,28.27,0,0,1,3.2,1.72c.26.16.52.34.77.51l.69.45c.43.3.92.56,1.39.83a58.29,58.29,0,0,0,6.07,2.88c2.09.87,4.23,1.64,6.36,2.45s4.25,1.65,6.33,2.5l-2.26,3.14c-.32-.44-.53-.78-.76-1.16s-.43-.76-.64-1.14c-.39-.76-.76-1.53-1.08-2.32a29,29,0,0,1-1.48-4.84,27.08,27.08,0,0,1-.59-5,24.59,24.59,0,0,1,.35-4.93h.4c.34,1.59.62,3.15,1.08,4.66.19.76.43,1.5.68,2.24s.51,1.46.81,2.17a34.07,34.07,0,0,0,2,4.13c.36.67.76,1.31,1.16,1.94.21.3.41.62.63.91s.45.6.61.8l4.24,5.29-6.49-2.15c-2.23-.73-4.38-1.57-6.51-2.5s-4.21-2-6.28-3-4.15-2.16-6.17-3.45c-.5-.32-1-.65-1.5-1l-1.36-1a25.84,25.84,0,0,0-2.78-1.71,36.93,36.93,0,0,0-12.72-3.9,35.29,35.29,0,0,0-13.47,1Z"/><path class="cls-5" d="M246.28,481.12s-16.71-8.36-20.89,1.39,8.36,15.32,8.36,15.32,4.18,10.74,11.84,13C246.28,489.47,246.28,481.12,246.28,481.12Z"/><polygon class="cls-5" points="231.62 429.25 224 469.97 227.66 428.71 231.62 429.25"/><path class="cls-5" d="M245.44,518.08A40.33,40.33,0,0,0,241,518a43.75,43.75,0,0,0-4.45.34,33.92,33.92,0,0,0-4.31.88,20.86,20.86,0,0,0-3.95,1.62l-.93.51-.8-.55c-2.68-1.88-5.52-3.54-8.39-5.35a29.36,29.36,0,0,1-7.9-6.81,25.12,25.12,0,0,1-4.25-9.49l-.31-1.25-.22-1.26c-.13-.83-.31-1.67-.41-2.51-.17-1.69-.42-3.36-.48-5.05-.23-3.37-.28-6.69-.42-10s-.22-6.68-.38-10-.35-6.67-.8-10a28.71,28.71,0,0,0-1.09-4.86,16.59,16.59,0,0,0-2.31-4.41,16.46,16.46,0,0,1,2.5,4.34,29,29,0,0,1,1.3,4.86c.59,3.3.9,6.64,1.2,10s.55,6.67.8,10,.46,6.68.81,10c.13,1.66.44,3.28.67,4.91.13.81.33,1.61.5,2.41l.25,1.2.35,1.17a22.86,22.86,0,0,0,4.2,8.51,26.83,26.83,0,0,0,7.46,5.89c2.85,1.64,5.84,3.23,8.72,5.07l-1.73,0a23.63,23.63,0,0,1,4.58-2.11,37,37,0,0,1,4.78-1.18q2.42-.4,4.83-.57a46.76,46.76,0,0,1,4.9-.08Z"/></g><path class="cls-13" d="M464.25,148a27.44,27.44,0,0,0-1.42-6.48,12.35,12.35,0,0,0-1.48-6.2,13.48,13.48,0,0,0-11.36-7l-1-.67c-2.62-1.74-5.56-2.77-8.32-4.24-.58-.31-1.14-.64-1.69-1a8.73,8.73,0,0,1-.71-.52c-1.35-1.16-2.59-2.44-3.83-3.71a9.45,9.45,0,0,0-5.06-2.67q-.63-2.65-1-5.46a8.38,8.38,0,0,0-4.24-5.65,28.29,28.29,0,0,0,.34-3.42c0-.59.69-1.73-.13-.7,2.24-2.81,2.74-6.67,0-9.41-2.32-2.32-7.16-2.83-9.41,0-3.64,4.58-4.12,10.54-4.5,16.34l-.3.46c-4.5,7.48-7.27,17.51-3.88,25.63a13.57,13.57,0,0,0-.59,2.78,23.84,23.84,0,0,0,1.26,9.93,9.37,9.37,0,0,0-2.44,1c-8,4.71-15.8,9.21-23.11,14.68A56.34,56.34,0,0,0,366,168.45a10.51,10.51,0,0,0-4.88,8.27c-5.17,3.62-11.47,9.14-14.11,15.44a9.9,9.9,0,0,0-2.8,3.06,30.06,30.06,0,0,0-3.8,12c-1,3.21-2.06,6.37-3.3,9.37s-3,6.34-3.56,9.76c-.64,3.75-.26,7-1.19,9.68-1.17,3.34.14,7.26,2.67,9.8-.2,1.28-.37,2.56-.49,3.86a35.61,35.61,0,0,0,.19,8.84,8.18,8.18,0,0,0-.25,2.68c.77,9.59,3.09,19.07,5.69,28.45a12.74,12.74,0,0,0-4.09.86c-6.46,2.5-13.13,4.86-19.77,7.39-.86.16-1.71.35-2.55.58a57.43,57.43,0,0,0-15.24,6.88c-10.31,4.91-19.95,10.93-27.88,19.26s-14,17.95-19.32,28.06q-3.12,2.69-6.09,5.53a224.68,224.68,0,0,1-14.87-17c-.12-.15-.24-.31-.37-.46a16.41,16.41,0,0,0-4.82-12.56,137.15,137.15,0,0,0-54.22-33,119.29,119.29,0,0,0-13.21-3.47l-8.33-3.68c.21-1.11.36-2.22.48-3.34,4.28-5.91,5.17-13,3.86-20A57.62,57.62,0,0,0,155.25,254a13.12,13.12,0,0,0-.91-5.38c0-.47.1-.93.14-1.39.88-9,.52-18,.16-27a16.88,16.88,0,0,0-5.76-11.91,16.05,16.05,0,0,0-1.82-5.4c-.79-1.45-1.6-2.9-2.41-4.34-.14-1.21-.29-2.43-.47-3.66-.58-3.93-3.81-7.43-7.63-9.44-6.55-9.51-14.33-18-24.66-24-8.11-4.68-16.67-8.66-25-12.92-2.89-1.48-5.77-2.95-8.69-4.34a12.68,12.68,0,0,0,3.37-4.1c3.5-7,3.11-16.43,1.4-23.87-1.89-8.19-7.77-15.35-8.36-23.83-.35-5.1-8.33-5.13-8,0a29.43,29.43,0,0,0,.84,5.19,3,3,0,0,0-2.28,2.72c-.63,4.43-1.18,8.88-1.83,13.32a3.8,3.8,0,0,0-3.35,1.1l-7.08,7.36-5.88,3.46-.15.1a16.09,16.09,0,0,0-3.17.47A4,4,0,0,0,40.8,130a.09.09,0,0,1,0,0,13.28,13.28,0,0,0-2.18.42c-10.29,2.83-15.2,15.22-9.75,24.39a26,26,0,0,0,12.25,10.52,20.75,20.75,0,0,0,6.24,1.48c2.81,3,6.26,5.39,9.54,7.83,3.49,2.59,7,5.18,10.6,7.61A116.13,116.13,0,0,0,78.78,189c1.88,1,3.76,1.93,5.58,3,1.39.81,2.94,2.31,4.43,3-1-.53-1.31-1.22.23.09h0l.25.11-.23-.1c.65.56,1.3,1.13,1.92,1.72,1.28,1.18,2.5,2.42,3.68,3.7s2.36,2.71,3.5,4.1l.1.14c.51.72,1,1.43,1.54,2.16a224.27,224.27,0,0,1,11.82,19.62,12.92,12.92,0,0,0,1.63,2.3,11.94,11.94,0,0,0-2,7.74c0,.07,0,.15,0,.22a15.4,15.4,0,0,0-3.47,9.85c-.82,1.25-1.76,2.43-2.52,3.72A36.71,36.71,0,0,0,102,258c0,.11-.09.25-.16.4s-.27.34-.35.42c-.59.63-1.2,1.25-1.77,1.9a33.87,33.87,0,0,0-4.5,6.09,26.11,26.11,0,0,0-3.17,11.31,78.57,78.57,0,0,0-6.82,14c-1.53,4.1-2.86,8.66-2.56,13.05a19.61,19.61,0,0,0,5.08,12.41,17.26,17.26,0,0,0,1.49,1.37,20.16,20.16,0,0,0,7.9,8.8A11.85,11.85,0,0,0,99.8,329a18.08,18.08,0,0,0,4.08,2.59,14.85,14.85,0,0,0,5.12,3.09,17.29,17.29,0,0,0,3.76,2.14l.49.43h-.11a17.36,17.36,0,0,0-11.27,4.4,3.83,3.83,0,0,0-3.36.31l-.94.67a22.88,22.88,0,0,0-9.24.66A11.05,11.05,0,0,0,84,345.66h0l-.46,0c-4.28-2.89-10.45-3-14.17,1.05a11.87,11.87,0,0,0-1.85,2.7c-3.57.82-4.77,6.28-1.1,7.5a9.63,9.63,0,0,0,2.95,5.33c2,1.81,3.91,3.68,5.78,5.59a10,10,0,0,0,1,2.3,35,35,0,0,0,6.54,8.19,44.7,44.7,0,0,0,4.06,3.21c.42.58.84,1.15,1.24,1.74a14.55,14.55,0,0,0,2.23,2.48A35.26,35.26,0,0,0,95.42,393c3.68,3.73,8.39,6.78,12.53,9.95,1.58,1.22,3.18,2.42,4.78,3.61a15.53,15.53,0,0,0,2.06,2.66A16.61,16.61,0,0,0,126.4,414a39.91,39.91,0,0,0,15.31,5.75,13.76,13.76,0,0,0,6.53,3.67,64.79,64.79,0,0,0,11.3,1A244.12,244.12,0,0,0,177.6,452.8a13.45,13.45,0,0,0-1.14,5.74,229.22,229.22,0,0,0,1.76,23.56c-.73,1.26-1.46,2.51-2.21,3.75-3.15,5.22-5.83,10.89-5.3,17.15a43.46,43.46,0,0,0,1.53,7.95,96.88,96.88,0,0,0-5.49,11.49,8.69,8.69,0,0,0-.48,1.6,8.82,8.82,0,0,0-.78,1.11c-2.86,4.89-.92,10.65,3.58,13.65,5.81,3.88,12.54,6.15,19.26,7.91.72.9,5.25,1.12,6.36,1.65,20,9.57,32.51,6.56,59.21,8a105.11,105.11,0,0,0,35-4.17,118.68,118.68,0,0,0,16-5.74c2.28-1.07,4.86-.69,7-2.07.72-.47,1.89.41,2.66,0,.06,0,2.08-1.34,2.66-1.33,5.2.66,7.49-6.78,7.27-11.7a10,10,0,0,0-2.7-6.65c-.22-3.54-1.19-7.32-1.73-10.78q-1.38-8.85-2.75-17.71a130.87,130.87,0,0,0-4.89-21.76c-.54-3.72-1.22-7.45-.85-11.22a1.63,1.63,0,0,0-1.22-1.59c0-1.55-.05-3.1-.17-4.65A167.07,167.07,0,0,0,333,423.69l.34-.08a39.66,39.66,0,0,0,5.44-2.09,39.14,39.14,0,0,1,8.66-1.2,33.8,33.8,0,0,0,16.31-4.49c4.3-2.53,8.14-5.92,11.95-9.11a153.44,153.44,0,0,0,11.6-10.15,26.83,26.83,0,0,0,1.84-2.1A128.07,128.07,0,0,0,410.26,375a12.23,12.23,0,0,0,2.65-5.6,58.82,58.82,0,0,0,7.91-6.74c6-6.13,1.67-17.08-7.05-17-6.79,0-13.7-1.41-20.41-2.28l-16.7-2.17a27.19,27.19,0,0,0-.15-5.92,31.1,31.1,0,0,0,9.42-5.05c8.43-3.77,15.39-9.56,18.73-18.83a29.39,29.39,0,0,0-.74-21.09,11.38,11.38,0,0,0-1.82-7.71c-2.05-3.15-3.62-4.3-5.49-7-.32-.47-.64-1-1-1.45-.33-.78-.69-1.57-1.09-2.34-.88-1.7-2-3.26-3-4.86a42.46,42.46,0,0,1-2.44-5.84,11.29,11.29,0,0,0-4.16-5.58c-.32-.89-.64-1.79-.95-2.72-3.52-10.36-6.61-20-5.63-30.63a15.48,15.48,0,0,0,2.92-3c2.65-3.48,4.45-7.44,6.85-11.08,2-3,5.31-6.38,8.13-9.52,4.41-4.9,8.73-9.92,13.38-14.6,3.22,1.87,7.51,2.19,10.38.16q4.55-3.24,9.11-6.46a11.75,11.75,0,0,0,4.5-6.08c9.79-2.52,19.42-6.33,25.37-14.8C462.08,155,464.59,151.54,464.25,148Z"/><path class="cls-7" d="M99,202.86A208.24,208.24,0,0,0,37.06,351.32c0,97.58,66.94,179.54,157.4,202.46h0a210,210,0,0,0,112.3-2.61h0c1.91-.57,3.8-1.18,5.67-1.81h0c1.24-.42,2.45-.83,3.67-1.27l.16-.06h0c3.64-1.3,7.22-2.7,10.77-4.19A208.91,208.91,0,0,0,390.8,200.89"/><path class="cls-14" d="M219,424.07a25.49,25.49,0,0,1-4.61-2.24,55.17,55.17,0,0,0-4.75-2.94A77.36,77.36,0,0,0,199,415.24a1.41,1.41,0,0,0-.86,0,1.7,1.7,0,0,0-.67-.13,1.67,1.67,0,0,0-.52,3.24,9.94,9.94,0,0,0,.22,1.19,1.48,1.48,0,0,0-.32,1,5.41,5.41,0,0,0,1.61,3.69,7.31,7.31,0,0,0,.69.89,6.45,6.45,0,0,0,4.8,2h.25a31.92,31.92,0,0,0,3.36.36,52.41,52.41,0,0,0,8.12,0,1.74,1.74,0,0,0,1.24-.61l1.18.46a1.67,1.67,0,0,0,2-1.16A1.69,1.69,0,0,0,219,424.07Z"/><path class="cls-14" d="M294.38,416.48a1.6,1.6,0,0,0-2-1.27l-5.89,1.56a19.74,19.74,0,0,0-5.43,2,32.3,32.3,0,0,0-4.15,3.43,6,6,0,0,1-4.29,1.82,1.64,1.64,0,0,0-.95.26,1.67,1.67,0,0,0,.33,3.3,1.6,1.6,0,0,0,.85-.23h.54q3.06,0,6.1,0h.14a2.24,2.24,0,0,0,1,.56c1.16.32,2.65-.13,3.83-.29,2.62-.34,5.28-.81,7.4-2.51a6.85,6.85,0,0,0,2.63-5.81A1.75,1.75,0,0,0,294.38,416.48Z"/><path class="cls-15" d="M157.41,254.85a91.38,91.38,0,0,0-25.14-79,123.28,123.28,0,0,0-32-22.48c-3-1.49-25.79-17.36-11.26,1.16a52.81,52.81,0,0,0,9.23,9.4,151.78,151.78,0,0,1,45.84,53.46A149,149,0,0,1,157.41,254.85Z"/><path class="cls-15" d="M336.28,254.85a91.38,91.38,0,0,1,25.14-79,123.28,123.28,0,0,1,32-22.48c3-1.49,25.79-17.36,11.26,1.16a52.81,52.81,0,0,1-9.23,9.4,151.78,151.78,0,0,0-45.84,53.46A149,149,0,0,0,336.28,254.85Z"/><path class="cls-15" d="M429.88,127.5a12.16,12.16,0,0,0,6,3.57c2.33.42,5-.53,6-2.68a5.9,5.9,0,0,0-.77-5.53,24.19,24.19,0,0,0-4-4.21,40.69,40.69,0,0,1-9.41-13.5c-1-2.3-2.82-13.5-6.4-7.33-2.27,3.92-.66,11.84.48,15.88A31.15,31.15,0,0,0,429.88,127.5Z"/><path class="cls-15" d="M62,127.5a12.14,12.14,0,0,1-6,3.57c-2.32.42-5-.53-6-2.68a5.93,5.93,0,0,1,.78-5.53,24.5,24.5,0,0,1,4-4.21,40.72,40.72,0,0,0,9.42-13.5c1-2.3,2.81-13.5,6.39-7.33,2.27,3.92.67,11.84-.48,15.88A31,31,0,0,1,62,127.5Z"/><path class="cls-15" d="M415.05,357.42c2.09.39,4.25.83,6.3.14a6.4,6.4,0,0,0,4.16-5.63c.58-10-22.59-5.26-27.23-6.5-7.2-1.93-10.68-11.32-18-10.65-14.56,1.33-30.07,15.54-34.89,31.56C368.61,358.09,390.86,353,415.05,357.42Z"/><path class="cls-15" d="M76.38,357.42c-2.1.39-4.25.83-6.31.14a6.39,6.39,0,0,1-4.15-5.63c-.58-10,22.59-5.26,27.22-6.5,7.21-1.93,10.68-11.32,18-10.65,14.56,1.33,30.07,15.54,34.88,31.56C122.82,358.09,100.57,353,76.38,357.42Z"/><path class="cls-16" d="M338.11,411.15c-3.64,1.61-7.69,3.47-9,6.8-.78,1.95-.73,3.78,1.33,5.32,2.66,2,4.49,2.85,7.24,2.14A142.21,142.21,0,0,0,413,376.11c3.59-4.54,11.29-12.55,11.72-18.39-4.38.41-9.28,5.79-12.62,8.43-7.42,5.86-15,11.5-22.84,16.77A335.79,335.79,0,0,1,338.11,411.15Z"/><path class="cls-16" d="M152.4,411.15c3.64,1.61,7.69,3.47,9,6.8.78,1.95.73,3.78-1.33,5.32-2.66,2-4.49,2.85-7.24,2.14a142.21,142.21,0,0,1-75.32-49.3c-3.59-4.54-11.29-12.55-11.72-18.39,4.38.41,9.28,5.79,12.62,8.43,7.42,5.86,15,11.5,22.84,16.77A335.79,335.79,0,0,0,152.4,411.15Z"/><path class="cls-16" d="M222.66,463.26a94.76,94.76,0,0,0-.95-14.4,31.82,31.82,0,0,0-5.17-13.36c-1.21-1.7-5.28-4.28-4.55-6.24.65-1.75,5.29-1.8,7.11-2.21a16.75,16.75,0,0,1,4.76-.59,5.62,5.62,0,0,1,4.18,2.07c1.19,1.66,1,3.9.75,5.93l-2.46,20.15c-.4,3.32-1.3,7.25-1.7,10.58-.18,1.45,0,6-1.82,5.59C222,470.51,222.7,465.73,222.66,463.26Z"/><path class="cls-16" d="M268.08,463.26a96.06,96.06,0,0,1,.95-14.4,31.82,31.82,0,0,1,5.17-13.36c1.21-1.7,5.28-4.28,4.55-6.24-.65-1.75-5.29-1.8-7.11-2.21a16.75,16.75,0,0,0-4.76-.59,5.62,5.62,0,0,0-4.18,2.07c-1.19,1.66-1,3.9-.75,5.93l2.46,20.15c.4,3.32,1,7.25,1.44,10.58.17,1.45.26,6,2.08,5.59C268.77,470.51,268.05,465.73,268.08,463.26Z"/><path class="cls-16" d="M152.77,292c-7.19-.85-14.42-1.82-21.25-4.2s-13.3-6.32-17.61-12.12a5.76,5.76,0,0,1-1.38-3.14,2.3,2.3,0,0,1,2-2.45,3.6,3.6,0,0,1,1.75.62,64.54,64.54,0,0,0,28.88,8.2c2,.08,4.17.08,6,1s3.22,3.08,2.52,5Z"/><path class="cls-16" d="M339.12,292c7.19-.85,14.42-1.82,21.24-4.2s13.3-6.32,17.62-12.12a5.76,5.76,0,0,0,1.38-3.14,2.3,2.3,0,0,0-1.95-2.45,3.56,3.56,0,0,0-1.75.62,64.54,64.54,0,0,1-28.89,8.2c-2,.08-4.16.08-6,1s-3.22,3.08-2.52,5Z"/><path class="cls-16" d="M96,186.25c-9-8.42-20.25-14.16-31.63-19s-23.11-8.9-34.1-14.54c-2.47,1.78-1.84,5.88.35,8s5.32,2.83,8.22,3.74c13.23,4.14,24,13.51,35.55,21.22,7.08,4.74,14.55,8.93,21.2,14.26a54.39,54.39,0,0,1,10.22,10.45c.89,1.24,2,4.3,3.73,4.23,2.35-.1,1.87-2.73,1.64-4.13C109.65,201.37,102.49,192.34,96,186.25Z"/><path class="cls-16" d="M395.32,186.25c9.05-8.42,20.25-14.16,31.63-19s23.1-8.9,34.1-14.54c2.47,1.78,1.84,5.88-.35,8s-5.32,2.83-8.22,3.74c-13.23,4.14-24,13.51-35.55,21.22-7.08,4.74-14.55,8.93-21.2,14.26a54.39,54.39,0,0,0-10.22,10.45c-.89,1.24-1.95,4.3-3.73,4.23-2.35-.1-1.87-2.73-1.64-4.13C381.63,201.37,388.79,192.34,395.32,186.25Z"/><path class="cls-16" d="M287.07,466c1.3,12.7,2.57,25.75-.91,38s-12.86,23.76-25.45,25.81c1.18-2.77,1.27-8.25,3.84-10.76s5.7-3.07,8.61-5.18c11.23-8.12,11.35-14.11,12.68-28.75C286.38,479.19,286.51,472.51,287.07,466Z"/><path class="cls-16" d="M204.16,466c-1.29,12.7-2.56,25.75.92,38s12.85,23.76,25.44,25.81c-1.17-2.77-1.26-8.25-3.84-10.76s-5.7-3.07-8.61-5.18c-11.22-8.12-11.35-14.11-12.68-28.75C204.85,479.19,204.73,472.51,204.16,466Z"/><path class="cls-15" d="M233,531.65a20.52,20.52,0,0,0,6.18,1.18c5.12.43,10.3.86,15.36,0a10.8,10.8,0,0,0,5.62-2.38c2.07-1.95,2.63-5,3.09-7.76.19-1.19.33-2.58-.51-3.46a11.34,11.34,0,0,0-3.53-1.45c-7.76-1.69-14.23-1.82-22.16-1.47a16.2,16.2,0,0,0-5.88,1.05c-1.84.81-2.88,1.11-3.23,3.08C227.3,524.12,229.67,530.24,233,531.65Z"/><path class="cls-16" d="M408,148.83a51.85,51.85,0,0,0,12.92-5.61c.86-.53,1.82-1.29,1.73-2.3a2.09,2.09,0,0,0-1.78-1.63,18.49,18.49,0,0,0-2.58-.08,12.23,12.23,0,0,1-4-1.19,12.51,12.51,0,0,0-4-1.2,4.19,4.19,0,0,0-3.73,1.55,2.56,2.56,0,0,0,.73,3.64"/><path class="cls-16" d="M83.37,148.83a51.53,51.53,0,0,1-12.92-5.61c-.87-.53-1.83-1.29-1.73-2.3a2.08,2.08,0,0,1,1.78-1.63,18.44,18.44,0,0,1,2.58-.08,12.25,12.25,0,0,0,4-1.19,12.57,12.57,0,0,1,4-1.2,4.17,4.17,0,0,1,3.72,1.55,2.56,2.56,0,0,1-.72,3.64"/><g id="direita-6" data-name="direita"><path class="cls-17" d="M326.45,536.16c-3.5-15-12.88-57.09-14-80.81a103.49,103.49,0,0,0,19.5-30.64s25.8,1.43,57.34-26h0c12.44-10.82,25.77-26.13,38.76-47.79-33.42-13.93-55.7-11.15-55.7-11.15s48.74-13.92,33.42-51.53c-19.5-37.61-25.07-48.75-25.07-48.75S369.55,213,411.33,186.54c43.18-22.29,52.93-23.68,54.32-39s-26.46-25.08-26.46-25.08-20.89-8.35-12.54-37.6L428,79.29s-32,30.64-20.89,58.5l2.79,7S357,165.64,344.48,196.28s-13.93,54.32-5.57,85l2.78,7a98.09,98.09,0,0,0-19.17,5c-20.65,7.32-53.67,24.91-76.93,66.07"/><path class="cls-18" d="M309.59,416.54a35.28,35.28,0,0,0-13.47-1,37,37,0,0,0-12.72,3.9,26.71,26.71,0,0,0-2.77,1.71l-1.36,1c-.5.38-1,.71-1.51,1-2,1.29-4.09,2.37-6.16,3.45s-4.16,2.11-6.28,3-4.28,1.77-6.51,2.5l-6.5,2.15,4.25-5.29c.16-.2.41-.51.61-.8s.42-.61.62-.91c.41-.63.8-1.27,1.16-1.94a32.69,32.69,0,0,0,2-4.13c.29-.71.55-1.44.8-2.17s.5-1.48.69-2.24c.45-1.51.73-3.07,1.07-4.66h.4a24.59,24.59,0,0,1,.36,4.93,26.26,26.26,0,0,1-.6,5,28.1,28.1,0,0,1-1.48,4.84c-.32.79-.68,1.56-1.07,2.32-.21.38-.41.76-.64,1.14a12.86,12.86,0,0,1-.77,1.16l-2.25-3.14c2.08-.85,4.21-1.69,6.33-2.5s4.26-1.58,6.35-2.45a57.34,57.34,0,0,0,6.07-2.88c.48-.27,1-.53,1.39-.83l.69-.45c.26-.17.51-.35.77-.51a28.27,28.27,0,0,1,3.2-1.72A37.52,37.52,0,0,1,296,413.92a34.49,34.49,0,0,1,13.72,2.24Z"/><path class="cls-19" d="M268.54,426.6s30.66,8.17,25.95-10.65"/><path d="M244.89,481.12s16.71-8.36,20.89,1.39-8.35,15.32-8.35,15.32-4.18,10.74-11.84,13C244.89,489.47,244.89,481.12,244.89,481.12Z"/><polygon class="cls-20" points="263.51 428.71 267.18 469.97 259.56 429.25 263.51 428.71"/><path class="cls-21" d="M245.44,514.09a46.76,46.76,0,0,1,4.9.08c1.61.11,3.22.3,4.82.57a36.64,36.64,0,0,1,4.78,1.18,23.71,23.71,0,0,1,4.59,2.11l-1.73,0c2.87-1.84,5.86-3.43,8.71-5.07a26.69,26.69,0,0,0,7.46-5.89,22.88,22.88,0,0,0,4.21-8.51l.34-1.17.26-1.2c.16-.8.36-1.6.5-2.41.22-1.63.54-3.25.66-4.91.36-3.28.55-6.64.82-10s.5-6.67.79-10,.61-6.67,1.21-10a27.23,27.23,0,0,1,1.3-4.86,16.71,16.71,0,0,1,2.49-4.34,16.56,16.56,0,0,0-2.3,4.41,27.8,27.8,0,0,0-1.1,4.86c-.45,3.29-.63,6.63-.79,10s-.27,6.67-.39,10-.19,6.66-.42,10c-.05,1.69-.31,3.36-.47,5.05-.11.84-.28,1.68-.42,2.51l-.22,1.26-.31,1.25a25,25,0,0,1-4.25,9.49,29.32,29.32,0,0,1-7.89,6.81c-2.87,1.81-5.72,3.47-8.4,5.35l-.79.55-.94-.51a21,21,0,0,0-3.94-1.62,34.28,34.28,0,0,0-4.31-.88,44,44,0,0,0-4.45-.34c-1.48,0-3.32,0-4.72.07Z"/></g><g id="esquerda-6" data-name="esquerda"><path class="cls-22" d="M245.59,359.25c-23.42-41.44-56.74-59-77.36-66.22a96.8,96.8,0,0,0-18.74-4.82l2.78-7c8.35-30.65,7-54.32-5.57-85s-65.47-51.53-65.47-51.53l2.79-7c11.15-27.86-20.89-58.5-20.89-58.5l1.39,5.57C72.88,114.11,52,122.46,52,122.46s-27.86,9.76-26.46,25.08,11.13,16.71,54.31,39c41.79,26.46,30.64,52.92,30.64,52.92s-5.57,11.14-25.07,48.75c-15.32,37.61,33.43,51.53,33.43,51.53S96.56,337,63.13,350.89c12.79,21.31,25.9,36.48,38.16,47.27,31.82,28,57.94,26.55,57.94,26.55a103.49,103.49,0,0,0,19.5,30.64c-1.14,23.92-10.67,66.5-14.09,81.2"/><path class="cls-23" d="M181.46,416.16a34.44,34.44,0,0,1,13.71-2.24,37.48,37.48,0,0,1,13.76,3.13,28.27,28.27,0,0,1,3.2,1.72c.26.16.52.34.77.51l.69.45c.43.3.92.56,1.39.83a58.29,58.29,0,0,0,6.07,2.88c2.09.87,4.23,1.64,6.36,2.45s4.25,1.65,6.33,2.5l-2.26,3.14c-.32-.44-.53-.78-.76-1.16s-.43-.76-.64-1.14c-.39-.76-.76-1.53-1.08-2.32a29,29,0,0,1-1.48-4.84,27.08,27.08,0,0,1-.59-5,24.59,24.59,0,0,1,.35-4.93h.4c.34,1.59.62,3.15,1.08,4.66.19.76.43,1.5.68,2.24s.51,1.46.81,2.17a34.07,34.07,0,0,0,2,4.13c.36.67.76,1.31,1.16,1.94.21.3.41.62.63.91s.45.6.61.8l4.24,5.29-6.49-2.15c-2.23-.73-4.38-1.57-6.51-2.5s-4.21-2-6.28-3-4.15-2.16-6.17-3.45c-.5-.32-1-.65-1.5-1l-1.36-1a25.84,25.84,0,0,0-2.78-1.71,36.93,36.93,0,0,0-12.72-3.9,35.29,35.29,0,0,0-13.47,1Z"/><path d="M246.28,481.12s-16.71-8.36-20.89,1.39,8.36,15.32,8.36,15.32,4.18,10.74,11.84,13C246.28,489.47,246.28,481.12,246.28,481.12Z"/><polygon class="cls-24" points="231.62 429.25 224 469.97 227.66 428.71 231.62 429.25"/><path class="cls-25" d="M245.5,518A44.32,44.32,0,0,0,241,518a43.75,43.75,0,0,0-4.45.34,33.92,33.92,0,0,0-4.31.88,20.86,20.86,0,0,0-3.95,1.62l-.93.51-.8-.55c-2.68-1.88-5.52-3.54-8.39-5.35a29.36,29.36,0,0,1-7.9-6.81,25.12,25.12,0,0,1-4.25-9.49l-.31-1.25-.22-1.26c-.13-.83-.31-1.67-.41-2.51-.17-1.69-.42-3.36-.48-5.05-.23-3.37-.28-6.69-.42-10s-.22-6.68-.38-10-.35-6.67-.8-10a28.71,28.71,0,0,0-1.09-4.86,16.59,16.59,0,0,0-2.31-4.41,16.46,16.46,0,0,1,2.5,4.34,29,29,0,0,1,1.3,4.86c.59,3.3.9,6.64,1.2,10s.55,6.67.8,10,.46,6.68.81,10c.13,1.66.44,3.28.67,4.91.13.81.33,1.61.5,2.41l.25,1.2.35,1.17a22.86,22.86,0,0,0,4.2,8.51,26.83,26.83,0,0,0,7.46,5.89c2.85,1.64,5.84,3.23,8.72,5.07l-1.73,0a23.63,23.63,0,0,1,4.58-2.11,37,37,0,0,1,4.78-1.18q2.42-.4,4.83-.57a46.76,46.76,0,0,1,4.9-.08Z"/></g><path class="cls-19" d="M222.46,426.6s-30.65,8.17-26-10.65"/><line class="cls-26" x1="389.28" y1="398.69" x2="389.28" y2="398.68"/><path d="M263.55,519.41a8.87,8.87,0,0,1,.59,3.36,12,12,0,0,1-.46,3.31,10.16,10.16,0,0,1-1.42,3.09,5.73,5.73,0,0,1-2.7,2.22c.34-1.15.56-2.12.8-3.11s.48-1.95.76-2.93.6-2,1-3A17.84,17.84,0,0,1,263.55,519.41Z"/><path d="M227.62,519.41a16.42,16.42,0,0,1,1.46,3c.38,1,.69,2,1,3s.51,2,.76,2.93.46,2,.81,3.11a5.68,5.68,0,0,1-2.7-2.22,10.19,10.19,0,0,1-1.43-3.09,12,12,0,0,1-.46-3.31A9.06,9.06,0,0,1,227.62,519.41Z"/></g><g id="laranja"><path class="cls-27" d="M125.46,692q12.08,6.59,24.13,12.88v1.28c0,.65,0,1.29,0,1.93l-.06,23.6c0,1.08,0,2.15,0,3.22q0,8.37,0,16.73-.06,23.82-.13,47.63,0,8.47-.05,16.95v3.21q0,11.7-.07,23.39v2.14c0,.36,0,.72,0,1.08q-12.1,7.9-24.16,16.48l-.24,0q-12,2-24,4.43Q94.9,868.14,89,869.42q-7.25,1.58-14.46,3.32V692h50.88ZM122.87,801.8,123,753q0-15.81.08-31.63-4.06-2.07-8.12-4.18-7,.18-13.93.39-.09,61.85-.2,123.7,6.92-1.18,13.86-2.26,4-2.85,8.11-5.61Q122.83,817.62,122.87,801.8Z"/><path class="cls-28" d="M238.57,852.53q-13.33.12-26.67.74-11.1.51-22.19,1.36-13.31,1-26.59,2.52,0-12.1.07-24.2.19-70.5.38-141h26.49l-.3,138.83q11.09-.72,22.18-1.16.09-68.83.19-137.67h26.49q0,68.52,0,137Q238.57,840.76,238.57,852.53Z"/><path class="cls-29" d="M327.61,692l.06,24.21q0,13.7.08,27.39-13.26-.46-26.52-.79l-.06-27q-11-.12-22.09-.2l0,32.55c16.24,8.63,32.48,17.56,48.71,27.05V776c0,.5,0,1,0,1.49q0,10.94.05,21.87c0,.71,0,1.41,0,2.12q0,15.72.08,31.43,0,12.09.07,24.2-13.28-1.5-26.58-2.52-11.1-.86-22.2-1.36-13.32-.62-26.66-.74,0-11.76,0-23.53,0-19.71,0-39.42,13.29.07,26.59.45l.06,39.6q11.08.45,22.18,1.16l-.09-40.35c2.72.13,5.44.26,8.15.41l-.46-.24q-3.86-2.19-7.7-4.35c-16.25-9.15-32.51-17.8-48.74-26.19V757.8q0-10.63,0-21.26v-2.06q0-9.5,0-19V692h75.05Z"/><path class="cls-30" d="M416.6,767.25q-6.36,3-12.71,5.87,6.36,4.3,12.71,8.77v90.85q-13.07-3.13-26.2-5.79l-.12-69.05,8.09,1-.46-.28q-3.81-2.65-7.63-5.23-11-7.46-22-14.44.11,42,.2,83.91-13.18-2.24-26.44-4l-.27-96.11V760.4l-.06-22.1c0-.71,0-1.43,0-2.14l-.12-44.2H368q.06,29.77.14,59.54,11,6.69,22.05,13.79L390.11,692H416.6Z"/></g><g id="fundos_letra" data-name="fundos letra"><path class="cls-31" d="M52.46,669.84h76l58.23,0,2.35,1.28a11.49,11.49,0,0,1,6.25,11.51c-.92,7.7-8.55,10.32-11.81,11.44s-7.13,2.15-11,3.18l-.76.21,0,10.68-.38,137.94v7.64c4.44,1.87,8.41,4.73,9.31,10.26.37,2.22.55,7.83-5.54,12.17l-2,1.45-41.74,6.28-2.76.48c-7.83,1.3-15.68,2.75-23.39,4.31-3.79.76-7.62,1.57-11.39,2.39-4.67,1-9.39,2.1-14,3.22l-27.28,6.54Z"/><path d="M62.93,680.31h65.5l55.57,0c7.59,4.14-37.54,9.77-29,14.23l6.26,3.28,0,10.3L160.85,846v6.29l-5.26,3.44c-8.11,5.3,21.1,6.38,13.43,11.84l-39.38,5.92-2.87.5c-7.9,1.32-15.86,2.78-23.68,4.36-3.82.77-7.71,1.59-11.56,2.43-4.73,1-9.52,2.14-14.22,3.26l-14.37,3.45Z"/><path class="cls-31" d="M141.5,669.84H260.75l-.07,204.6-21.9.21c-8.57.08-17.27.32-25.86.72-7.14.33-14.38.77-21.53,1.32-8.55.65-17.22,1.47-25.78,2.44l-24.67,2.8Z"/><path d="M152,680.31h98.32l-.05,183.76-11.54.11c-8.71.08-17.54.33-26.24.73-7.25.33-14.6.78-21.84,1.34-8.69.66-17.49,1.5-26.16,2.48l-13,1.47Z"/><path class="cls-31" d="M350.24,881.93l-24.68-2.8c-8.55-1-17.22-1.79-25.78-2.44-7.15-.55-14.39-1-21.53-1.32-8.58-.4-17.28-.64-25.86-.72l-21.9-.21,0-96.57h8.37l-8.36-4.31,0-15.74,0-87.95,22.12,0h97.12l.23,87-1.15,5,1.2.7v13.59ZM251.43,853.7h1.16c8.83.08,17.79.33,26.63.74,7.34.34,14.8.79,22.16,1.35,8.81.68,17.74,1.53,26.54,2.52l1.31.15-.22-84-.59-.34a6.54,6.54,0,0,0,.59.3v-2.26a9.34,9.34,0,0,0-2.29,7.95c-.09-.31-.32-.9-.6-1.56a4.39,4.39,0,0,0,.15.86c0-.19-.26-.72-.39-1.07-.2-.53-.43-1.16-.66-1.87l-.22-.48c-.78-1.76-1.58-3.57-2.17-5.22-2.54-7.19,0-11.46,2.6-13.77a10.79,10.79,0,0,1,3.4-2.07l.12-.54-.17-63.66h-77.4l0,70,.64.33-.64,1.23v4.81h-2.5l-5.53,10.7h8Z"/><g id="fundos_letra-2" data-name="fundos letra"><path d="M62.93,680.31h65.5l55.57,0c7.59,4.14-37.54,9.77-29,14.23l6.26,3.28,0,10.3L160.85,846v6.29l-5.26,3.44c-8.11,5.3,21.1,6.38,13.43,11.84l-39.38,5.92-2.87.5c-7.9,1.32-15.86,2.78-23.68,4.36-3.82.77-7.71,1.59-11.56,2.43-4.73,1-9.52,2.14-14.22,3.26l-14.37,3.45Z"/><path d="M152,680.31h98.32l-.05,183.76-11.54.11c-8.71.08-17.54.33-26.24.73-7.25.33-14.6.78-21.84,1.34-8.69.66-17.49,1.5-26.16,2.48l-13,1.47Z"/><path d="M247.23,770.42l-6.29-3.25V757.8l0-77.48h98.33l.2,75.32L336,770.5c-3.87-.13,3.24,8.53-.65,8.42,6.23,3.49-7.44-17.17-1.64-13.78l5.77,3.37v7.58l.25,94.11-13-1.47c-8.67-1-17.47-1.82-26.16-2.48-7.25-.56-14.6-1-21.84-1.34-8.71-.4-17.54-.65-26.25-.73L241,864.07l0-86.21"/><path d="M428.25,775.84V887.51l-14.37-3.45c-8.51-2-17.18-3.95-25.79-5.69l-9.33-1.88v0l-12.26-2.08c-8.62-1.47-17.37-2.79-26-3.94l-10.08-1.34-.53-188.77h98.39v94.35"/></g><path d="M247.23,770.42l-6.29-3.25V757.8l0-77.48h98.33l.2,75.32L336,770.5c-3.87-.13,3.24,8.53-.65,8.42,6.23,3.49-7.44-17.17-1.64-13.78l5.77,3.37v7.58l.25,94.11-13-1.47c-8.67-1-17.47-1.82-26.16-2.48-7.25-.56-14.6-1-21.84-1.34-8.71-.4-17.54-.65-26.25-.73L241,864.07l0-86.21"/><path class="cls-31" d="M417.78,690.79H340.36l.47,169.11,1,.14c8.78,1.16,17.66,2.51,26.41,4l21,3.56v.32l.93.19c8.7,1.75,17.5,3.69,26.15,5.77l1.46.35"/><path class="cls-31" d="M438.72,775.84v125l-27.29-6.55c-8.4-2-16.95-3.91-25.41-5.61l-10.57-2.14-10.71-1.82c-8.49-1.45-17.12-2.75-25.64-3.88l-19.16-2.55-.58-208.41H438.72V774.66"/><path d="M428.25,775.84V887.51l-14.37-3.45c-8.51-2-17.18-3.95-25.79-5.69l-9.33-1.88v0l-12.26-2.08c-8.62-1.47-17.37-2.79-26-3.94l-10.08-1.34-.53-188.77h98.39v94.35"/></g><g id="fundos_letra-3" data-name="fundos letra"><path d="M62.93,680.31h65.5l55.57,0c7.59,4.14-37.54,9.77-29,14.23l6.26,3.28,0,10.3L160.85,846v6.29l-5.26,3.44c-8.11,5.3,21.1,6.38,13.43,11.84l-39.38,5.92-2.87.5c-7.9,1.32-15.86,2.78-23.68,4.36-3.82.77-7.71,1.59-11.56,2.43-4.73,1-9.52,2.14-14.22,3.26l-14.37,3.45Z"/><path d="M152,680.31h98.32l-.05,183.76-11.54.11c-8.71.08-17.54.33-26.24.73-7.25.33-14.6.78-21.84,1.34-8.69.66-17.49,1.5-26.16,2.48l-13,1.47Z"/><path d="M247.23,770.42l-6.29-3.25V757.8l0-77.48h98.33l.2,75.32L336,770.5c-3.87-.13,3.24,8.53-.65,8.42,6.23,3.49-7.44-17.17-1.64-13.78l5.77,3.37v7.58l.25,94.11-13-1.47c-8.67-1-17.47-1.82-26.16-2.48-7.25-.56-14.6-1-21.84-1.34-8.71-.4-17.54-.65-26.25-.73L241,864.07l0-86.21"/><path d="M428.25,775.84V887.51l-14.37-3.45c-8.51-2-17.18-3.95-25.79-5.69l-9.33-1.88v0l-12.26-2.08c-8.62-1.47-17.37-2.79-26-3.94l-10.08-1.34-.53-188.77h98.39v94.35"/></g><path class="cls-27" d="M125.46,692q12.08,6.59,24.13,12.88v1.28c0,.65,0,1.29,0,1.93l-.06,23.6c0,1.08,0,2.15,0,3.22q0,8.37,0,16.73-.06,23.82-.13,47.63,0,8.47-.05,16.95v3.21q0,11.7-.07,23.39v2.14c0,.36,0,.72,0,1.08q-12.1,7.9-24.16,16.48l-.24,0q-12,2-24,4.43Q94.9,868.14,89,869.42q-7.25,1.58-14.46,3.32V692h50.88ZM122.87,801.8,123,753q0-15.81.08-31.63-4.06-2.07-8.12-4.18-7,.18-13.93.39-.09,61.85-.2,123.7,6.92-1.18,13.86-2.26,4-2.85,8.11-5.61Q122.83,817.62,122.87,801.8Z"/><path class="cls-28" d="M238.57,852.53q-13.33.12-26.67.74-11.1.51-22.19,1.36-13.31,1-26.59,2.52,0-12.1.07-24.2.19-70.5.38-141h26.49l-.3,138.83q11.09-.72,22.18-1.16.09-68.83.19-137.67h26.49q0,68.52,0,137Q238.57,840.76,238.57,852.53Z"/><path class="cls-29" d="M327.61,692l.06,24.21q0,13.7.08,27.39-13.26-.46-26.52-.79l-.06-27q-11-.12-22.09-.2l0,32.55c16.24,8.63,32.48,17.56,48.71,27.05V776c0,.5,0,1,0,1.49q0,10.94.05,21.87c0,.71,0,1.41,0,2.12q0,15.72.08,31.43,0,12.09.07,24.2-13.28-1.5-26.58-2.52-11.1-.86-22.2-1.36-13.32-.62-26.66-.74,0-11.76,0-23.53,0-19.71,0-39.42,13.29.07,26.59.45l.06,39.6q11.08.45,22.18,1.16l-.09-40.35c2.72.13,5.44.26,8.15.41l-.46-.24q-3.86-2.19-7.7-4.35c-16.25-9.15-32.51-17.8-48.74-26.19V757.8q0-10.63,0-21.26v-2.06q0-9.5,0-19V692h75.05Z"/><path class="cls-30" d="M416.6,767.25q-6.36,3-12.71,5.87,6.36,4.3,12.71,8.77v90.85q-13.07-3.13-26.2-5.79l-.12-69.05,8.09,1-.46-.28q-3.81-2.65-7.63-5.23-11-7.46-22-14.44.11,42,.2,83.91-13.18-2.24-26.44-4l-.27-96.11V760.4l-.06-22.1c0-.71,0-1.43,0-2.14l-.12-44.2H368q.06,29.77.14,59.54,11,6.69,22.05,13.79L390.11,692H416.6Z"/></g></g></g></svg>