<svg xmlns="http://www.w3.org/2000/svg" xmlns:xlink="http://www.w3.org/1999/xlink" viewBox="0 0 690.62 892.36"><defs><style>.cls-1{isolation:isolate;}.cls-2{fill:url(#Gradiente_sem_nome_5);}.cls-18,.cls-23,.cls-24,.cls-25,.cls-26,.cls-27,.cls-28,.cls-29,.cls-3,.cls-30,.cls-31,.cls-32,.cls-4,.cls-5,.cls-6,.cls-7{stroke:#000;}.cls-10,.cls-11,.cls-13,.cls-18,.cls-23,.cls-28,.cls-3,.cls-31,.cls-4,.cls-5,.cls-7,.cls-9{stroke-miterlimit:10;}.cls-10,.cls-11,.cls-12,.cls-13,.cls-18,.cls-3,.cls-4,.cls-5,.cls-6,.cls-7,.cls-9{stroke-width:30px;}.cls-3{fill:url(#Gradiente_sem_nome_5-93);}.cls-10,.cls-12,.cls-13,.cls-23,.cls-25,.cls-28,.cls-32,.cls-4,.cls-6,.cls-7{fill:none;}.cls-10,.cls-12,.cls-23,.cls-24,.cls-25,.cls-26,.cls-32,.cls-4,.cls-6{stroke-linecap:round;}.cls-12,.cls-24,.cls-25,.cls-27,.cls-29,.cls-32,.cls-6{stroke-linejoin:bevel;}.cls-8{fill:#fff;}.cls-10,.cls-11,.cls-12,.cls-13,.cls-9{stroke:#fff;}.cls-9{fill:url(#Gradiente_sem_nome_5-94);}.cls-14{fill:url(#Gradiente_sem_nome_5-95);}.cls-15{fill:url(#Gradiente_sem_nome_5-96);}.cls-16{fill:url(#Gradiente_sem_nome_5-97);}.cls-17{fill:url(#Gradiente_sem_nome_5-98);}.cls-18{fill:url(#Gradiente_sem_nome_5-99);}.cls-19{fill:#0a1920;}.cls-20{fill:#efc12e;}.cls-21,.cls-22{fill:#23113f;}.cls-21{opacity:0.7;mix-blend-mode:screen;}.cls-22{mix-blend-mode:overlay;}.cls-23,.cls-28{stroke-width:10px;}.cls-24,.cls-26,.cls-29,.cls-30,.cls-32{stroke-width:4px;}.cls-25{stroke-width:6px;}.cls-26,.cls-30{stroke-linejoin:round;}.cls-27,.cls-31{stroke-width:2px;}</style><linearGradient id="Gradiente_sem_nome_5" x1="345.31" y1="877.36" x2="345.31" gradientUnits="userSpaceOnUse"><stop offset="0" stop-color="#efc12e"/><stop offset="1" stop-color="#ff5240"/></linearGradient><linearGradient id="Gradiente_sem_nome_5-93" x1="46.61" y1="563.18" x2="644.97" y2="563.18" xlink:href="#Gradiente_sem_nome_5"/><linearGradient id="Gradiente_sem_nome_5-94" x1="31.61" y1="563.18" x2="659.97" y2="563.18" xlink:href="#Gradiente_sem_nome_5"/><linearGradient id="Gradiente_sem_nome_5-95" x1="165.49" y1="280.28" x2="165.49" y2="36.79" xlink:href="#Gradiente_sem_nome_5"/><linearGradient id="Gradiente_sem_nome_5-96" x1="285.08" y1="259.29" x2="285.08" y2="36.79" xlink:href="#Gradiente_sem_nome_5"/><linearGradient id="Gradiente_sem_nome_5-97" x1="405.54" y1="259.29" x2="405.54" y2="36.79" xlink:href="#Gradiente_sem_nome_5"/><linearGradient id="Gradiente_sem_nome_5-98" x1="525.11" y1="280.28" x2="525.11" y2="36.79" xlink:href="#Gradiente_sem_nome_5"/><linearGradient id="Gradiente_sem_nome_5-99" x1="46.13" y1="563.18" x2="644.49" y2="563.18" xlink:href="#Gradiente_sem_nome_5"/></defs><title>logo-full</title><g class="cls-1"><g id="Camada_2" data-name="Camada 2"><g id="Camada_4" data-name="Camada 4"><g id="cópia"><circle class="cls-2" cx="345.79" cy="563.18" r="299.18"/><g id="direita"><path class="cls-2" d="M461.15,828c-5-21.55-18.45-81.78-20.07-115.76,20-22,27.93-43.89,27.93-43.89s36.95,2,82.14-37.28h0c17.81-15.5,36.91-37.44,55.53-68.46-47.89-20-79.8-16-79.8-16s69.83-20,47.88-73.82C546.82,418.9,538.85,403,538.85,403s-16-37.92,43.89-75.82c61.85-31.92,75.81-33.92,77.81-55.86s-37.91-35.92-37.91-35.92-29.93-12-17.95-53.87l2-8s-45.89,43.89-29.93,83.8l4,10S504.93,297.2,487,341.09s-20,77.81-8,121.71l4,10s-11,1.28-27.46,7.12c-29.59,10.48-76.89,35.68-110.21,94.63"/><path class="cls-2" d="M437,656.6a50.38,50.38,0,0,0-19.29-1.45,52.42,52.42,0,0,0-18.23,5.59,34.57,34.57,0,0,0-4,2.44l-2,1.45c-.7.55-1.43,1-2.15,1.47-2.89,1.85-5.86,3.39-8.83,4.95s-6,3-9,4.35-6.13,2.53-9.32,3.59l-9.3,3.07,6.07-7.57c.23-.29.59-.74.88-1.16s.6-.86.9-1.3c.57-.9,1.14-1.82,1.66-2.77a48.78,48.78,0,0,0,2.83-5.92c.42-1,.79-2.06,1.15-3.11s.71-2.12,1-3.21c.66-2.16,1.05-4.39,1.54-6.67h.57a35.29,35.29,0,0,1,.51,7,38,38,0,0,1-.85,7.12,40.2,40.2,0,0,1-2.12,6.94c-.46,1.12-1,2.23-1.54,3.33-.3.54-.59,1.08-.92,1.62a18.24,18.24,0,0,1-1.1,1.67l-3.22-4.5c3-1.22,6-2.43,9.07-3.59s6.1-2.26,9.1-3.5a82.52,82.52,0,0,0,8.69-4.12c.69-.39,1.38-.77,2-1.2l1-.64c.37-.25.73-.5,1.11-.73a37.51,37.51,0,0,1,4.58-2.46,53.38,53.38,0,0,1,19.71-4.48,49.57,49.57,0,0,1,19.65,3.2Z"/><path class="cls-2" d="M378.19,671s43.91,11.71,37.17-15.25"/><path class="cls-2" d="M344.31,749.11s23.95-12,29.93,2-12,21.95-12,21.95-6,15.39-17,18.67C344.31,761.08,344.31,749.11,344.31,749.11Z"/><polygon class="cls-2" points="370.99 674.03 376.24 733.14 365.32 674.82 370.99 674.03"/><path class="cls-2" d="M345.1,796.35a62.65,62.65,0,0,1,7,.11,67.6,67.6,0,0,1,6.92.81,55.06,55.06,0,0,1,6.84,1.69,34.41,34.41,0,0,1,6.57,3L370,802c4.12-2.63,8.41-4.91,12.49-7.27a38.23,38.23,0,0,0,10.69-8.43,32.86,32.86,0,0,0,6-12.19l.49-1.68.37-1.71c.23-1.15.52-2.29.71-3.46.32-2.33.78-4.65.95-7,.52-4.71.8-9.51,1.17-14.28s.72-9.54,1.14-14.32.88-9.55,1.73-14.28a40.83,40.83,0,0,1,1.86-7,23.72,23.72,0,0,1,3.57-6.22,23.35,23.35,0,0,0-3.29,6.32,39.28,39.28,0,0,0-1.57,7c-.65,4.72-.91,9.5-1.14,14.27s-.39,9.56-.56,14.34-.27,9.55-.6,14.38c-.07,2.41-.44,4.81-.68,7.22-.15,1.21-.4,2.41-.59,3.61l-.31,1.8L402,774.9a35.86,35.86,0,0,1-6.09,13.59,41.73,41.73,0,0,1-11.31,9.75c-4.11,2.59-8.18,5-12,7.66l-1.14.8-1.34-.74a29.9,29.9,0,0,0-5.65-2.31,48.87,48.87,0,0,0-6.17-1.26q-3.17-.4-6.38-.49a60.08,60.08,0,0,0-6.33.15Z"/></g><g id="esquerda"><path class="cls-2" d="M345.31,574.53C311.76,515.17,264,490,234.5,479.68c-16.15-5.66-26.85-6.9-26.85-6.9l4-10c12-43.9,10-77.81-8-121.71s-93.77-73.82-93.77-73.82l4-10c16-39.91-29.92-83.8-29.92-83.8l2,8c12,41.9-18,53.87-18,53.87s-39.9,14-37.9,35.92,16,23.94,77.81,55.86C167.74,365,151.78,403,151.78,403s-8,15.95-35.91,69.83c-22,53.87,47.88,73.82,47.88,73.82s-31.92-4-79.8,16c18.31,30.53,37.1,52.26,54.67,67.72,45.57,40.1,83,38,83,38s8,21.94,27.94,43.89c-1.64,34.27-15.29,95.26-20.2,116.31"/><path class="cls-2" d="M253.44,656.06a49.57,49.57,0,0,1,19.65-3.2,53.29,53.29,0,0,1,19.71,4.48,37.63,37.63,0,0,1,4.59,2.46c.37.23.73.48,1.1.73l1,.64c.62.43,1.31.81,2,1.2a82.69,82.69,0,0,0,8.7,4.12c3,1.24,6.05,2.35,9.1,3.5s6.09,2.37,9.07,3.59l-3.23,4.5a18.24,18.24,0,0,1-1.1-1.67c-.33-.54-.61-1.08-.91-1.62-.57-1.1-1.09-2.21-1.55-3.33a42,42,0,0,1-2.12-6.94,38.89,38.89,0,0,1-.85-7.12,35.29,35.29,0,0,1,.51-7h.57c.49,2.28.89,4.51,1.55,6.67.27,1.09.62,2.15,1,3.21s.73,2.09,1.15,3.11a48.78,48.78,0,0,0,2.83,5.92c.51,1,1.08,1.87,1.66,2.77.29.44.58.89.89,1.3s.65.87.88,1.16l6.08,7.57L326.37,679c-3.19-1.06-6.26-2.25-9.32-3.59s-6-2.83-9-4.35-5.93-3.1-8.83-4.95c-.72-.46-1.44-.92-2.15-1.47l-1.95-1.45a34.7,34.7,0,0,0-4-2.44,52.37,52.37,0,0,0-18.22-5.59,50.43,50.43,0,0,0-19.3,1.45Z"/><path class="cls-2" d="M346.31,749.11s-23.94-12-29.93,2,12,21.95,12,21.95,6,15.39,17,18.67C346.31,761.08,346.31,749.11,346.31,749.11Z"/><polygon class="cls-2" points="325.3 674.82 314.39 733.14 319.64 674.03 325.3 674.82"/><path class="cls-2" d="M345.1,802.05a60.21,60.21,0,0,0-6.34-.15c-2.13.06-4.27.22-6.37.49a48.16,48.16,0,0,0-6.17,1.26,29.36,29.36,0,0,0-5.65,2.31l-1.35.74-1.13-.8c-3.84-2.68-7.92-5.07-12-7.66s-8.23-5.66-11.31-9.75a35.69,35.69,0,0,1-6.08-13.59l-.45-1.79-.32-1.8c-.19-1.2-.44-2.4-.59-3.61-.23-2.41-.6-4.81-.68-7.22-.33-4.83-.41-9.59-.6-14.38s-.33-9.56-.55-14.34-.5-9.55-1.14-14.27a41.13,41.13,0,0,0-1.57-7,23.67,23.67,0,0,0-3.3-6.32,23.72,23.72,0,0,1,3.57,6.22,40.86,40.86,0,0,1,1.87,7c.84,4.73,1.29,9.51,1.72,14.28s.78,9.55,1.14,14.32.66,9.57,1.17,14.28c.17,2.37.63,4.69.95,7,.19,1.17.48,2.31.71,3.46l.37,1.71.5,1.68a32.71,32.71,0,0,0,6,12.19,38.18,38.18,0,0,0,10.68,8.43c4.08,2.36,8.37,4.64,12.49,7.27l-2.48-.06a34.69,34.69,0,0,1,6.57-3,55.5,55.5,0,0,1,6.84-1.69,67.6,67.6,0,0,1,6.92-.81,62.79,62.79,0,0,1,7-.11Z"/></g><path class="cls-2" d="M135.35,350.52A298.23,298.23,0,0,0,46.61,563.18c0,139.78,95.88,257.18,225.46,290h0a301,301,0,0,0,160.86-3.74h0c2.73-.82,5.43-1.69,8.12-2.59l0,0c1.77-.59,3.51-1.19,5.25-1.82l.24-.08h0q7.81-2.81,15.42-6C569.53,793.57,645,687.18,645,563.18a298.33,298.33,0,0,0-91.64-215.49"/><path class="cls-2" d="M74.86,0H181.47L264,.35l3.46,2c6.12,3.55,9.39,9.87,8.53,16.49-1.41,10.89-12.16,14.68-16.75,16.3s-10.15,3.13-15.62,4.63l-1.26.35,0,16.26-.53,205.42,0,12c6.16,2.73,11.68,6.84,13,14.64.53,3.11.86,11-7.51,17.38l-3,2.27-58.61,9.38-3.84.71c-10.93,1.94-21.9,4.1-32.68,6.41-5.32,1.15-10.67,2.34-15.9,3.56-6.53,1.52-13.12,3.13-19.59,4.79l-38.81,9.92Z"/><path class="cls-2" d="M89.86,15h91.61l78.47.33c10.61,6.16-53.25,14.17-41.32,20.82L227.37,41l0,15.33-.53,205.41,0,9.37-7.35,5.12c-11.35,7.91,29.5,9.51,18.78,17.64l-55.07,8.82-4,.73c-11,2-22.18,4.16-33.12,6.51-5.34,1.14-10.77,2.36-16.16,3.61-6.62,1.55-13.32,3.18-19.89,4.86l-20.1,5.14Z"/><path class="cls-2" d="M199.39,0H366.87l-.09,303.5-31,.32c-12,.12-24.13.48-36.12,1.07-10,.49-20.08,1.15-30.07,2-12,1-24.07,2.2-36,3.64l-35,4.22Z"/><path class="cls-2" d="M214.36,15h137.5l-.08,273.65-16.13.17c-12.18.12-24.53.49-36.7,1.09-10.14.49-20.42,1.16-30.54,2-12.15,1-24.46,2.23-36.59,3.69l-18.17,2.2Z"/><path class="cls-2" d="M492,314.71l-35-4.22c-11.91-1.44-24-2.67-36-3.64-10-.82-20.12-1.47-30.06-2-12-.59-24.15-.95-36.12-1.07l-31-.32,0-143.22h12.84l-12.82-7.06,0-22.81L323.76,0l31.29,0H491.23l.32,128.75-1.76,8.13,1.83,1.14v19.61Zm-138.18-40.9h1.28c12.36.13,24.91.5,37.28,1.1,10.27.51,20.71,1.19,31,2,12.36,1,24.87,2.27,37.17,3.75l1.33.16-.26-107L413.4,145l38.66,1.25c-1.87-8.66,1.56-13.86,5-16.77a15.63,15.63,0,0,1,4.22-2.56l.29-1.32L461.3,30H353.76l0,105.48,1,.57-1,1.89v6.39h-3.53l-8.77,15.93H353.8Z"/><path class="cls-2" d="M347.61,149.19l-8.8-4.84,0-13.95,0-115.39h137.5l.29,112.16-4.8,22.15c-5.41-.2,4.53,12.71-.9,12.53,8.71,5.21-10.41-25.57-2.3-20.52l8.07,5v11.28L477,297.79l-18.18-2.2c-12.12-1.46-24.43-2.7-36.58-3.69-10.14-.83-20.42-1.5-30.55-2-12.17-.6-24.52-1-36.7-1.09l-16.13-.17,0-128.37"/><path class="cls-2" d="M615.76,342.89,577,333c-11.71-3-23.65-5.81-35.49-8.35l-14.76-3.17-15-2.71c-11.84-2.15-23.89-4.09-35.82-5.78l-27-3.81L448.13,0H615.76V155.5h-30V30H478.21l.66,253.08,1.24.18c12.32,1.74,24.76,3.74,37,6l29.48,5.34V295l1.2.26c12.22,2.62,24.54,5.52,36.62,8.61l1.38.35v-147h30Z"/><path class="cls-2" d="M600.76,157.27v166.3l-20.09-5.14c-11.9-3-24-5.89-36.06-8.47l-13.05-2.81v-.06L514.41,304c-12-2.18-24.3-4.16-36.4-5.87l-14.11-2L463.17,15H600.76V155.5"/><path class="cls-2" d="M345.79,877.36a314.18,314.18,0,1,1,222.16-92A312.13,312.13,0,0,1,345.79,877.36Z"/><path class="cls-2" d="M446.54,831.36c-5.59-24-18.78-83.57-20.45-118.45l-.29-6.21,4.18-4.6a135.05,135.05,0,0,0,24.95-39l3.94-10.62,10.9.81c2.24.06,32.25,0,70.38-32.61l1.16-1c15.11-13.15,29.45-29.76,42.77-49.54-33.55-10.92-55.1-8.71-55.34-8.68l-6-29.31c8.14-2.37,31-12,38.65-27.81,3.59-7.43,3.49-15.71-.29-25.32-27.4-52.85-35.35-68.73-35.68-69.39l-.41-.88c-.85-2-20.09-50.12,49.69-94.31l.56-.36.59-.3c11.9-6.14,21.85-11.09,30.62-15.45,36.86-18.32,38.37-20.09,39.13-28.44.46-5-13.65-15.34-28-20.42l-.59-.22c-8.18-3.27-19.39-11.71-25.6-26-3.33,9.54-4.39,19.5-.79,28.49l9.59,24-14,5.54c-19.44,7.7-72.7,34.5-85.4,65.54-16.49,40.32-18.57,70.56-7.61,111.27l10.93,27.38-19.46,2.26S475,488.93,460.53,494c-29.94,10.61-72,34.47-102.16,87.87l-26.12-14.76c34.75-61.48,83.49-89.07,118.26-101.39,4.66-1.65,8.92-3,12.69-4-11.49-45.27-8.6-81.14,9.89-126.33,15.28-37.36,64.26-64.53,88.45-76-15.82-47.6,32.65-94.69,34.77-96.72l37.48-35.85L619.11,185.6c-7.43,26,5.75,34.19,9.13,35.82,7.52,2.73,50.12,19.63,47.24,51.21-2.37,26.09-18,33.85-55.64,52.58-8.53,4.24-18.19,9-29.63,14.94-44.07,28.15-38.6,53.31-37.53,56.92,2,3.9,11.25,22.24,35.39,68.81l.32.6.26.64c7.22,17.73,7.12,35.17-.31,50.44a67.16,67.16,0,0,1-13.86,18.78,242.62,242.62,0,0,1,38,12.37l16,6.68-8.93,14.89c-16.17,26.94-34.1,49.59-53.39,67.43v.14l-5.15,4.5c-34.91,30.38-66.12,38.3-81.93,40.31a171.8,171.8,0,0,1-22.62,34.74c2.74,34.25,15.33,90.08,19.31,107.15Z"/><path class="cls-2" d="M349.32,665.1c.09-.1.21-.26.33-.41l.22-.31.36-.55c.36-.55.74-1.17,1-1.7l.18-.33a34.35,34.35,0,0,0,2-4.12c.26-.63.52-1.34.83-2.26.24-.7.49-1.46.63-2L355,653l.12-.37c.3-1,.57-2.29.87-3.78l.36-1.69,2.54-11.84h25.35l1.92,11.22a56,56,0,0,1,5.5-2.89l.14-.06A68,68,0,0,1,417,637.87c.8,0,1.59,0,2.38,0a63.61,63.61,0,0,1,23.25,4.26l13.27,5.18-9.18,27.59L433,671.06a35,35,0,0,0-9.35-1.26,34.35,34.35,0,0,0-4.18.25A37.42,37.42,0,0,0,406.53,674a21.39,21.39,0,0,0-2.19,1.32l-1.76,1.31c-1.11.85-2.12,1.5-2.93,2l-.12.08c-3.39,2.16-6.59,3.84-9.68,5.46l-.43.22c-2.84,1.46-6.22,3.16-9.79,4.74s-7.14,2.93-10.67,4.1l-57.42,19Z"/><path class="cls-2" d="M396.68,688.58a91.27,91.27,0,0,1-22.35-3.07l7.73-29L378.19,671l3.84-14.5c7.85,2.06,18.29,2.69,21.08,1.27a4.11,4.11,0,0,0-1.36,1.39l28.16-7c3.71,14.83-2.42,23.62-6.41,27.55C416.49,686.58,406.21,688.58,396.68,688.58Z"/><path class="cls-2" d="M330.32,792.21c-1-30.54-1-42.6-1-43.1v-9.27l8.3-4.15c2.12-1.06,13.3-6.36,24.8-6.36,12,0,21.3,5.78,25.62,15.86,6.83,15.94-1.49,30.65-14.26,38.68C370,791,362.32,802.29,349.6,806.09L331,811.66Z"/><polygon class="cls-2" points="347.68 662.1 384.53 657.03 391.18 731.82 361.49 735.9 347.68 662.1"/><path class="cls-2" d="M362.87,819.13a14.45,14.45,0,0,0-2.63-1.07,34.74,34.74,0,0,0-4-.8,46.91,46.91,0,0,0-4.79-.36c-.44,0-.92,0-1.4,0-1.21,0-2.34,0-3.28.12l-15.07,1.26L329,782l15.5-.66c1,0,2-.06,3-.06,1.74,0,3.51.06,5.56.19a84.3,84.3,0,0,1,8.49,1l.16,0a67.62,67.62,0,0,1,8.36,2l1.38-.78c1.18-.67,2.36-1.33,3.52-2,3.31-1.92,5.35-3.45,6.57-4.95l.1-.11a18.2,18.2,0,0,0,3.09-6.64l.39-1.31.23-1.1c.09-.46.2-.92.3-1.38s.19-.85.27-1.27c.11-.77.22-1.53.34-2.3.21-1.31.4-2.55.47-3.54l0-.26,0-.26c.33-3,.56-6.16.8-9.46l.33-4.39.09-1.13c.32-4.35.66-8.84,1.06-13.31.49-5.49,1-10.44,1.9-15.61l0-.2a55,55,0,0,1,2.6-9.51,38.42,38.42,0,0,1,5.78-10.11L423.3,713a8.72,8.72,0,0,0-1.22,2.3,27,27,0,0,0-.95,4.32c-.53,4-.76,8-1,12.87-.21,4.32-.36,8.79-.51,13.12l0,1c-.05,1.47-.1,2.88-.15,4.29-.11,3.34-.22,6.79-.45,10.34-.09,2.15-.31,4.12-.52,5.87-.07.68-.15,1.36-.22,2l0,.38c-.15,1.18-.33,2.22-.5,3.14l-.18,1-.43,2.52-.56,2.24a50.75,50.75,0,0,1-8.72,19.1c-4.73,6.27-10.61,10.42-15.21,13.33-1.29.82-2.55,1.6-3.8,2.37-2.74,1.69-5.32,3.29-7.68,4.93l-8.75,6.11Z"/><path class="cls-2" d="M244,831.92l-29.22-6.82c4-17.18,16.68-73.36,19.44-107.7a171.36,171.36,0,0,1-22.62-34.74c-16-2-47.57-10.07-82.85-41.12-20.9-18.39-40.29-42.37-57.63-71.26l-8.93-14.89,16-6.68a242,242,0,0,1,38-12.37,67.38,67.38,0,0,1-13.87-18.78c-7.42-15.27-7.53-32.71-.31-50.44l.26-.64.32-.6C126.69,419.31,136,401,137.94,397.07c1.07-3.61,6.55-28.77-37.53-56.92-11.44-5.9-21.09-10.7-29.63-14.94-37.67-18.73-53.27-26.49-55.64-52.59-2.88-31.57,39.72-48.47,47.24-51.2,3.39-1.63,16.57-9.82,9.14-35.82l-.13-.49-14.57-58.3,37.49,35.85c2.12,2,50.6,49.12,34.77,96.72,24.2,11.5,73.17,38.67,88.46,76,18.48,45.19,21.37,81.06,9.88,126.32,3.59,1,7.63,2.25,12,3.79a212.74,212.74,0,0,1,58,31.25c24.51,18.55,45,42.23,60.92,70.38l-26.12,14.76c-30.32-53.65-72.6-77.51-102.72-88.08-14.1-4.94-23.57-6.15-23.66-6.16l-19.48-2.25,11-27.38c11-40.71,8.88-71-7.61-111.27-12.7-31-66-57.84-85.41-65.55l-14-5.54,9.58-24c3.69-9.24,2.57-19.22-.75-28.6C93,237.51,81.75,246,73.55,249.27l-.61.23C58.66,254.57,44.56,264.87,45,269.91c.75,8.35,2.27,10.12,39.12,28.44,8.78,4.36,18.72,9.31,30.63,15.45l.58.3.56.36c69.78,44.19,50.54,92.28,49.69,94.31l-.41.88c-.32.66-8.27,16.54-35.67,69.39-3.79,9.61-3.88,17.9-.3,25.32,7.63,15.79,30.51,25.44,38.69,27.82l-6,29.3c-.17,0-21.77-2.24-55.35,8.68,13.09,19.43,27.16,35.81,42,48.86,39.85,35.07,71.92,34.3,72.25,34.31l11.12-.62,3.81,10.47a135.31,135.31,0,0,0,24.93,38.92l4.19,4.6-.3,6.21C262.86,747.85,249.59,807.77,244,831.92Z"/><path class="cls-2" d="M321.66,693.23c-3.53-1.17-7-2.5-10.61-4.08s-7-3.31-9.85-4.76l-.4-.21c-3.1-1.62-6.3-3.3-9.64-5.43l-.19-.12c-.81-.52-1.81-1.17-2.93-2l-1.76-1.31a22,22,0,0,0-2.19-1.33,37.73,37.73,0,0,0-13-3.93,35.42,35.42,0,0,0-13.48,1l-13.73,3.8-9.18-27.59L248,642.09a63.56,63.56,0,0,1,23.24-4.26c.79,0,1.59,0,2.38,0a67.94,67.94,0,0,1,25.26,5.75l.14.06a57.31,57.31,0,0,1,5.51,2.89l1.92-11.22h25.33l2.55,11.84c.13.57.25,1.14.36,1.7.31,1.49.57,2.76.88,3.77l.11.38.1.38c.13.53.38,1.27.62,2,.32.94.58,1.65.82,2.24a35.23,35.23,0,0,0,2,4.16l.19.33c.28.53.67,1.15,1,1.69l.15.24.25.36.13.18.09.13.29.37,37.78,47.12Z"/><path class="cls-2" d="M341,806.09c-12.71-3.8-20.44-15.11-24.16-22.22-12.78-8-21.1-22.74-14.27-38.68,4.32-10.08,13.66-15.86,25.62-15.86,11.51,0,22.68,5.3,24.81,6.36l8.29,4.15v9.27c0,.5,0,12.56-1,43.1l-.63,19.45Z"/><polygon class="cls-2" points="299.44 731.82 306.09 657.03 342.94 662.1 329.13 735.9 299.44 731.82"/><path class="cls-2" d="M309.5,818.2c-2.35-1.64-4.94-3.24-7.68-4.93l-3.77-2.35c-4.62-2.93-10.5-7.08-15.24-13.35a50.61,50.61,0,0,1-8.71-19.09l-.57-2.25-.43-2.52-.18-1c-.17-.92-.35-2-.5-3.14l0-.38c-.06-.68-.14-1.36-.22-2-.2-1.75-.43-3.72-.51-5.87-.24-3.57-.35-7-.46-10.39-.05-1.39-.09-2.78-.15-4.18l0-1.06c-.15-4.33-.31-8.8-.52-13.15-.23-4.67-.46-8.88-1-12.84a25.9,25.9,0,0,0-.93-4.26,8.8,8.8,0,0,0-1.24-2.36l23.93-18.08a38.78,38.78,0,0,1,5.81,10.17,56.18,56.18,0,0,1,2.58,9.47l0,.19c.93,5.16,1.41,10.11,1.9,15.57.4,4.56.75,9.11,1.08,13.5l.08,1c.11,1.39.21,2.84.32,4.29.24,3.32.47,6.45.8,9.49l0,.27,0,.26c.07,1,.27,2.23.47,3.54.12.77.24,1.54.35,2.3.07.43.17.84.26,1.26s.21.93.3,1.4l.24,1.08.39,1.32a17.88,17.88,0,0,0,3.09,6.64l.09.11c1.23,1.5,3.26,3,6.61,5,1.12.65,2.3,1.31,3.48,2l1.39.78a66.75,66.75,0,0,1,8.36-2l.16,0c2.73-.46,5.56-.8,8.41-1,2.12-.13,3.89-.19,5.63-.19q1.49,0,3,.06l15.5.66-2.75,36.24L343.85,817c-.94-.08-2.08-.12-3.29-.12-.48,0-.95,0-1.42,0a47,47,0,0,0-4.76.36,34.5,34.5,0,0,0-4,.8,14.76,14.76,0,0,0-2.63,1.07l-9.5,5.18Z"/><path class="cls-2" d="M345.79,877.36a314.9,314.9,0,0,1-75.56-9.16h0l-1.83-.46A313.89,313.89,0,0,1,31.61,563.18,313.26,313.26,0,0,1,124.8,339.85l21.1,21.33A284.24,284.24,0,0,0,274.82,838.42l.95.24a286,286,0,0,0,152.8-3.55l2.14-.65c1.44-.45,2.92-.93,4.49-1.45l2.21-1.15h1.2l2.56-.9,2.37-1H444c4.11-1.52,8.22-3.14,12.24-4.83a284.26,284.26,0,0,0,86.71-466.63l20.82-21.61a314.27,314.27,0,0,1-95.87,515.88c-5.33,2.25-10.78,4.37-16.21,6.31l-.11,0h0l-2.37.84-2.15.74-2.23,1.17h-1.28c-2.17.72-4.23,1.36-6.23,2l-2.14.64A314.32,314.32,0,0,1,345.79,877.36Z"/><g id="cópia-2" data-name="cópia"><path class="cls-2" d="M89.86,15h91.61l78.47.33c10.61,6.16-53.25,14.17-41.32,20.82L227.37,41l0,15.33-.53,205.41,0,9.37-7.35,5.12c-11.35,7.91,29.5,9.51,18.78,17.64l-55.07,8.82-4,.73c-11,2-22.18,4.16-33.12,6.51-5.34,1.14-10.77,2.36-16.16,3.61-6.62,1.55-13.32,3.18-19.89,4.86l-20.1,5.14Z"/><path class="cls-2" d="M214.36,15h137.5l-.08,273.65-16.13.17c-12.18.12-24.53.49-36.7,1.09-10.14.49-20.42,1.16-30.54,2-12.15,1-24.46,2.23-36.59,3.69l-18.17,2.2Z"/><path class="cls-2" d="M347.61,149.19l-8.8-4.84,0-13.95,0-115.39h137.5l.29,112.16-4.8,22.15c-5.41-.2,4.53,12.71-.9,12.53,8.71,5.21-10.41-25.57-2.3-20.52l8.07,5v11.28L477,297.79l-18.18-2.2c-12.12-1.46-24.43-2.7-36.58-3.69-10.14-.83-20.42-1.5-30.55-2-12.17-.6-24.52-1-36.7-1.09l-16.13-.17,0-128.37"/><path class="cls-2" d="M600.76,157.27v166.3l-20.09-5.14c-11.9-3-24-5.89-36.06-8.47l-13.05-2.81v-.06L514.41,304c-12-2.18-24.3-4.16-36.4-5.87l-14.11-2L463.17,15H600.76V155.5"/><path class="cls-2" d="M183.51,36.79q16.25,8.87,32.5,17.34v1.74c0,.86,0,1.73,0,2.6l-.09,31.78c0,1.45,0,2.89,0,4.34l-.06,22.54-.18,64.14-.06,22.83c0,1.45,0,2.89,0,4.34q0,15.75-.08,31.49c0,1,0,1.93,0,2.89v1.45q-16.31,10.66-32.55,22.2l-.32.06q-16.22,2.7-32.36,6-7.92,1.61-15.82,3.33Q124.69,278,115,280.28V36.79h68.54Zm-3.49,148q.07-32.85.16-65.69,0-21.3.1-42.61-5.46-2.79-10.93-5.63-9.37.24-18.76.52L150.32,238q9.31-1.61,18.67-3.06,5.46-3.83,10.92-7.55Q180,206.05,180,184.74Z"/><path class="cls-2" d="M335.86,253.07q-18,.17-35.92,1-15,.69-29.9,1.84-17.93,1.36-35.8,3.39l.09-32.6q.25-95,.5-189.9h35.68q-.19,93.51-.4,187,14.92-1,29.88-1.56.12-92.71.25-185.44h35.68q0,92.29-.05,184.59Q335.86,237.22,335.86,253.07Z"/><path class="cls-2" d="M455.79,36.79l.09,32.61.09,36.89q-17.85-.63-35.71-1.06,0-18.17-.08-36.33-14.88-.16-29.76-.27l.06,43.85c21.87,11.61,43.75,23.64,65.61,36.42v1.15c0,.66,0,1.33,0,2q0,14.73.08,29.45v2.86l.12,42.33q0,16.31.08,32.6-17.88-2-35.8-3.39-14.94-1.16-29.9-1.84-18-.83-35.91-1,0-15.85,0-31.69,0-26.55,0-53.1,17.91.1,35.82.61,0,26.67.08,53.34,14.94.59,29.87,1.56l-.12-54.35q5.5.26,11,.55l-.63-.32q-5.19-3-10.37-5.86c-21.89-12.33-43.78-24-65.65-35.28v-3.06q0-14.31,0-28.63V94.06q0-12.78,0-25.57,0-15.85,0-31.7H455.79Z"/><path class="cls-2" d="M575.65,138.2q-8.55,4-17.11,7.91,8.57,5.79,17.11,11.8V280.28q-17.58-4.21-35.28-7.79-.09-46.5-.16-93,5.44.66,10.9,1.36l-.63-.39q-5.13-3.56-10.28-7Q525.4,163.37,510.53,154q.14,56.5.28,113-17.78-3-35.62-5.39l-.36-129.46c0-1.06,0-2.12,0-3.18q0-14.88-.08-29.76c0-1,0-1.93,0-2.89q-.09-29.76-.16-59.53h35.67q.11,40.1.2,80.19,14.87,9,29.7,18.58-.09-49.38-.16-98.77h35.67Z"/></g><circle class="cls-2" cx="345.31" cy="563.18" r="299.18"/><g id="direita-2" data-name="direita"><path class="cls-2" d="M461.15,828c-5-21.55-18.45-81.78-20.07-115.76,20-22,27.93-43.89,27.93-43.89s36.95,2,82.14-37.28h0c17.81-15.5,36.91-37.44,55.53-68.46-47.89-20-79.8-16-79.8-16s69.83-20,47.88-73.82C546.82,418.9,538.85,403,538.85,403s-16-37.92,43.89-75.82c61.85-31.92,75.81-33.92,77.81-55.86s-37.91-35.92-37.91-35.92-29.93-12-17.95-53.87l2-8s-45.89,43.89-29.93,83.8l4,10S504.93,297.2,487,341.09s-20,77.81-8,121.71l4,10s-11,1.28-27.46,7.12c-29.59,10.48-76.89,35.68-110.21,94.63"/><path class="cls-2" d="M437,656.6a50.38,50.38,0,0,0-19.29-1.45,52.42,52.42,0,0,0-18.23,5.59,34.57,34.57,0,0,0-4,2.44l-2,1.45c-.7.55-1.43,1-2.15,1.47-2.89,1.85-5.86,3.39-8.83,4.95s-6,3-9,4.35-6.13,2.53-9.32,3.59l-9.3,3.07,6.07-7.57c.23-.29.59-.74.88-1.16s.6-.86.9-1.3c.57-.9,1.14-1.82,1.66-2.77a48.78,48.78,0,0,0,2.83-5.92c.42-1,.79-2.06,1.15-3.11s.71-2.12,1-3.21c.66-2.16,1.05-4.39,1.54-6.67h.57a35.29,35.29,0,0,1,.51,7,38,38,0,0,1-.85,7.12,40.2,40.2,0,0,1-2.12,6.94c-.46,1.12-1,2.23-1.54,3.33-.3.54-.59,1.08-.92,1.62a18.24,18.24,0,0,1-1.1,1.67l-3.22-4.5c3-1.22,6-2.43,9.07-3.59s6.1-2.26,9.1-3.5a82.52,82.52,0,0,0,8.69-4.12c.69-.39,1.38-.77,2-1.2l1-.64c.37-.25.73-.5,1.11-.73a37.51,37.51,0,0,1,4.58-2.46,53.38,53.38,0,0,1,19.71-4.48,49.57,49.57,0,0,1,19.65,3.2Z"/><path class="cls-2" d="M378.19,671s43.91,11.71,37.17-15.25"/><path class="cls-2" d="M344.31,749.11s23.95-12,29.93,2-12,21.95-12,21.95-6,15.39-17,18.67C344.31,761.08,344.31,749.11,344.31,749.11Z"/><polygon class="cls-2" points="370.99 674.03 376.24 733.14 365.32 674.82 370.99 674.03"/><path class="cls-2" d="M345.1,796.35a62.65,62.65,0,0,1,7,.11,67.6,67.6,0,0,1,6.92.81,55.06,55.06,0,0,1,6.84,1.69,34.41,34.41,0,0,1,6.57,3L370,802c4.12-2.63,8.41-4.91,12.49-7.27a38.23,38.23,0,0,0,10.69-8.43,32.86,32.86,0,0,0,6-12.19l.49-1.68.37-1.71c.23-1.15.52-2.29.71-3.46.32-2.33.78-4.65.95-7,.52-4.71.8-9.51,1.17-14.28s.72-9.54,1.14-14.32.88-9.55,1.73-14.28a40.83,40.83,0,0,1,1.86-7,23.72,23.72,0,0,1,3.57-6.22,23.35,23.35,0,0,0-3.29,6.32,39.28,39.28,0,0,0-1.57,7c-.65,4.72-.91,9.5-1.14,14.27s-.39,9.56-.56,14.34-.27,9.55-.6,14.38c-.07,2.41-.44,4.81-.68,7.22-.15,1.21-.4,2.41-.59,3.61l-.31,1.8L402,774.9a35.86,35.86,0,0,1-6.09,13.59,41.73,41.73,0,0,1-11.31,9.75c-4.11,2.59-8.18,5-12,7.66l-1.14.8-1.34-.74a29.9,29.9,0,0,0-5.65-2.31,48.87,48.87,0,0,0-6.17-1.26q-3.17-.4-6.38-.49a60.08,60.08,0,0,0-6.33.15Z"/></g><g id="esquerda-2" data-name="esquerda"><path class="cls-2" d="M345.31,574.53C311.76,515.17,264,490,234.5,479.68c-16.15-5.66-26.85-6.9-26.85-6.9l4-10c12-43.9,10-77.81-8-121.71s-93.77-73.82-93.77-73.82l4-10c16-39.91-29.92-83.8-29.92-83.8l2,8c12,41.9-18,53.87-18,53.87s-39.9,14-37.9,35.92,16,23.94,77.81,55.86C167.74,365,151.78,403,151.78,403s-8,15.95-35.91,69.83c-22,53.87,47.88,73.82,47.88,73.82s-31.92-4-79.8,16c18.31,30.53,37.1,52.26,54.67,67.72,45.57,40.1,83,38,83,38s8,21.94,27.94,43.89c-1.64,34.27-15.29,95.26-20.2,116.31"/><path class="cls-2" d="M253.44,656.06a49.57,49.57,0,0,1,19.65-3.2,53.29,53.29,0,0,1,19.71,4.48,37.63,37.63,0,0,1,4.59,2.46c.37.23.73.48,1.1.73l1,.64c.62.43,1.31.81,2,1.2a82.69,82.69,0,0,0,8.7,4.12c3,1.24,6.05,2.35,9.1,3.5s6.09,2.37,9.07,3.59l-3.23,4.5a18.24,18.24,0,0,1-1.1-1.67c-.33-.54-.61-1.08-.91-1.62-.57-1.1-1.09-2.21-1.55-3.33a42,42,0,0,1-2.12-6.94,38.89,38.89,0,0,1-.85-7.12,35.29,35.29,0,0,1,.51-7h.57c.49,2.28.89,4.51,1.55,6.67.27,1.09.62,2.15,1,3.21s.73,2.09,1.15,3.11a48.78,48.78,0,0,0,2.83,5.92c.51,1,1.08,1.87,1.66,2.77.29.44.58.89.89,1.3s.65.87.88,1.16l6.08,7.57L326.37,679c-3.19-1.06-6.26-2.25-9.32-3.59s-6-2.83-9-4.35-5.93-3.1-8.83-4.95c-.72-.46-1.44-.92-2.15-1.47l-1.95-1.45a34.7,34.7,0,0,0-4-2.44,52.37,52.37,0,0,0-18.22-5.59,50.43,50.43,0,0,0-19.3,1.45Z"/><path class="cls-2" d="M346.31,749.11s-23.94-12-29.93,2,12,21.95,12,21.95,6,15.39,17,18.67C346.31,761.08,346.31,749.11,346.31,749.11Z"/><polygon class="cls-2" points="325.3 674.82 314.39 733.14 319.64 674.03 325.3 674.82"/><path class="cls-2" d="M345.1,802.05a60.21,60.21,0,0,0-6.34-.15c-2.13.06-4.27.22-6.37.49a48.16,48.16,0,0,0-6.17,1.26,29.36,29.36,0,0,0-5.65,2.31l-1.35.74-1.13-.8c-3.84-2.68-7.92-5.07-12-7.66s-8.23-5.66-11.31-9.75a35.69,35.69,0,0,1-6.08-13.59l-.45-1.79-.32-1.8c-.19-1.2-.44-2.4-.59-3.61-.23-2.41-.6-4.81-.68-7.22-.33-4.83-.41-9.59-.6-14.38s-.33-9.56-.55-14.34-.5-9.55-1.14-14.27a41.13,41.13,0,0,0-1.57-7,23.67,23.67,0,0,0-3.3-6.32,23.72,23.72,0,0,1,3.57,6.22,40.86,40.86,0,0,1,1.87,7c.84,4.73,1.29,9.51,1.72,14.28s.78,9.55,1.14,14.32.66,9.57,1.17,14.28c.17,2.37.63,4.69.95,7,.19,1.17.48,2.31.71,3.46l.37,1.71.5,1.68a32.71,32.71,0,0,0,6,12.19,38.18,38.18,0,0,0,10.68,8.43c4.08,2.36,8.37,4.64,12.49,7.27l-2.48-.06a34.69,34.69,0,0,1,6.57-3,55.5,55.5,0,0,1,6.84-1.69,67.6,67.6,0,0,1,6.92-.81,62.79,62.79,0,0,1,7-.11Z"/></g><path class="cls-2" d="M658.73,271.93a38.27,38.27,0,0,0-2-9.28,17.68,17.68,0,0,0-2.12-8.89,19.33,19.33,0,0,0-16.27-10.09c-.46-.33-.93-.65-1.4-1-3.75-2.5-7.95-4-11.91-6.09-.83-.44-1.64-.91-2.42-1.42-.26-.18-.83-.58-1-.75-1.92-1.67-3.7-3.49-5.48-5.31a13.57,13.57,0,0,0-7.25-3.83q-.9-3.8-1.47-7.82c-.48-3.38-3-6.24-6.07-8.09a40.63,40.63,0,0,0,.48-4.9c0-.84,1-2.49-.18-1,3.2-4,3.93-9.55,0-13.48-3.32-3.32-10.26-4-13.48,0-5.22,6.56-5.9,15.11-6.45,23.41-.14.22-.29.43-.43.66-6.45,10.71-10.42,25.08-5.56,36.71a21.07,21.07,0,0,0-.85,4A34,34,0,0,0,576.63,269a13.47,13.47,0,0,0-3.51,1.46c-11.4,6.76-22.63,13.2-33.09,21a81,81,0,0,0-22,9.73,15,15,0,0,0-7,11.84c-7.4,5.19-16.43,13.1-20.21,22.12a14.23,14.23,0,0,0-4,4.38,42.91,42.91,0,0,0-5.43,17.22c-1.42,4.59-3,9.12-4.74,13.41s-4.27,9.08-5.1,14c-.91,5.37-.36,10-1.7,13.86-1.68,4.79.21,10.4,3.82,14-.28,1.83-.52,3.67-.7,5.53a50.52,50.52,0,0,0,.28,12.66,11.32,11.32,0,0,0-.36,3.84c1.09,13.74,4.42,27.32,8.15,40.75a18.68,18.68,0,0,0-5.87,1.23c-9.24,3.58-18.8,7-28.31,10.59-1.23.23-2.45.5-3.66.84a81.77,81.77,0,0,0-21.82,9.84C406.62,504.41,392.8,513,381.44,525s-20.07,25.71-27.67,40.2q-4.47,3.84-8.72,7.91c-7.64-7.61-14.47-16-21.3-24.35-.17-.22-.35-.43-.53-.65a23.51,23.51,0,0,0-6.91-18,196.59,196.59,0,0,0-77.66-47.25,173.64,173.64,0,0,0-18.92-5c-4-1.76-8-3.51-11.94-5.28.3-1.58.52-3.18.68-4.78,6.13-8.47,7.41-18.6,5.53-28.61a82.86,82.86,0,0,0,2.1-15.47,18.86,18.86,0,0,0-1.31-7.72l.21-2c1.25-12.85.74-25.79.22-38.67A24.16,24.16,0,0,0,207,358.28a23.3,23.3,0,0,0-2.6-7.74q-1.71-3.12-3.46-6.21c-.2-1.74-.42-3.49-.67-5.25-.83-5.62-5.45-10.64-10.93-13.52-9.39-13.62-20.52-25.77-35.33-34.33-11.61-6.7-23.88-12.4-35.81-18.5-4.14-2.12-8.26-4.23-12.44-6.22a18.28,18.28,0,0,0,4.82-5.87c5-10,4.45-23.54,2-34.2-2.69-11.73-11.13-22-12-34.13-.51-7.3-12-7.36-11.44,0a42.83,42.83,0,0,0,1.21,7.43,4.32,4.32,0,0,0-3.27,3.9c-.91,6.34-1.7,12.72-2.62,19.07a5.46,5.46,0,0,0-4.8,1.59L69.53,234.84q-4.22,2.47-8.42,5l-.23.14a22.76,22.76,0,0,0-4.53.67c-2.19.57-4.48,3.1-4.2,5.52a.15.15,0,0,1,0,.07,19.91,19.91,0,0,0-3.12.6c-14.74,4.06-21.77,21.8-14,34.94a37.19,37.19,0,0,0,17.55,15.07,30,30,0,0,0,8.93,2.13c4,4.29,9,7.7,13.67,11.2,5,3.72,10,7.43,15.19,10.91a167.59,167.59,0,0,0,16.14,9.54c2.69,1.39,5.38,2.76,8,4.29,2,1.17,4.2,3.32,6.35,4.35-1.43-.75-1.89-1.74.32.14h0a3.68,3.68,0,0,0,.35.15l-.33-.13c.94.8,1.86,1.62,2.76,2.45,1.82,1.7,3.58,3.48,5.26,5.31s3.38,3.89,5,5.87l.14.2c.73,1,1.48,2,2.21,3.09a323,323,0,0,1,16.94,28.12,19,19,0,0,0,2.32,3.29,17.09,17.09,0,0,0-2.82,11.08c0,.11,0,.22,0,.33a22,22,0,0,0-5,14.1c-1.18,1.79-2.51,3.48-3.61,5.32a53.22,53.22,0,0,0-4.65,10.9c-.06.15-.14.35-.22.57l-.51.6c-.84.91-1.71,1.8-2.53,2.73a48.21,48.21,0,0,0-6.45,8.72,37.41,37.41,0,0,0-4.54,16.19,112.87,112.87,0,0,0-9.78,20c-2.18,5.86-4.09,12.4-3.66,18.69.45,6.58,2.67,12.92,7.28,17.77a24.48,24.48,0,0,0,2.13,2c2.47,5.46,6.24,9.29,11.32,12.61a17.43,17.43,0,0,0,3.76,1.83,27,27,0,0,0,5.84,3.71,21.48,21.48,0,0,0,7.34,4.42,24.39,24.39,0,0,0,5.39,3.06c.23.21.46.42.7.62h-.16a24.88,24.88,0,0,0-16.14,6.3,5.51,5.51,0,0,0-4.82.45c-.43.33-.89.65-1.33,1a33,33,0,0,0-13.25.94,16,16,0,0,0-6.17,3.46h0l-.66.06c-6.14-4.14-15-4.29-20.3,1.51a17,17,0,0,0-2.65,3.87c-5.11,1.16-6.83,9-1.57,10.74a13.8,13.8,0,0,0,4.22,7.63c2.84,2.6,5.59,5.27,8.28,8a14.75,14.75,0,0,0,1.44,3.29,50.43,50.43,0,0,0,9.38,11.74,64.35,64.35,0,0,0,5.81,4.59c.6.83,1.2,1.65,1.78,2.49a20.75,20.75,0,0,0,3.19,3.57,50.56,50.56,0,0,0,7.42,10.26c5.27,5.34,12,9.71,18,14.26q3.41,2.61,6.84,5.17a23,23,0,0,0,3,3.8A23.74,23.74,0,0,0,174.77,653a57.1,57.1,0,0,0,21.94,8.23,19.53,19.53,0,0,0,9.34,5.26c5.19,1.12,10.75,1.27,16.19,1.45a349.92,349.92,0,0,0,25.87,40.58,19.3,19.3,0,0,0-1.63,8.22A328.36,328.36,0,0,0,249,750.52c-1.05,1.8-2.1,3.6-3.17,5.37-4.51,7.47-8.35,15.59-7.59,24.57a63,63,0,0,0,2.19,11.38,140.55,140.55,0,0,0-7.86,16.47,12.77,12.77,0,0,0-.69,2.28,14.67,14.67,0,0,0-1.12,1.59c-4.1,7-1.31,15.26,5.13,19.56,8.33,5.55,18,8.8,27.6,11.33,1,1.29,7.52,1.6,9.1,2.36,28.61,13.71,46.58,9.41,84.83,11.43a150.43,150.43,0,0,0,50.06-6c7.73-2.35,15.57-4.78,22.89-8.22,3.27-1.53,7-1,10-3,1-.68,2.7.58,3.81,0,.09.07,3-1.93,3.81-1.91,7.45.94,10.72-9.71,10.41-16.76a14.23,14.23,0,0,0-3.86-9.53c-.32-5.08-1.71-10.48-2.48-15.43q-2-12.69-3.95-25.37c-1.65-10.58-3.6-21.12-7-31.18-.77-5.33-1.75-10.67-1.22-16.08a2.32,2.32,0,0,0-1.74-2.27q0-3.33-.24-6.66a239.91,239.91,0,0,0,32.83-47.68c.16,0,.32-.06.48-.11a54.63,54.63,0,0,0,7.79-3,55.75,55.75,0,0,1,12.41-1.7c8.43-.35,16.05-2.15,23.37-6.45,6.16-3.62,11.65-8.47,17.12-13s11.5-9.31,16.6-14.54a34.66,34.66,0,0,0,2.64-3c11-8.33,21.42-17.34,30.27-27.93a17.24,17.24,0,0,0,3.79-8,82.69,82.69,0,0,0,11.34-9.65c8.62-8.78,2.39-24.46-10.1-24.41-9.73,0-19.62-2-29.24-3.26l-23.92-3.1a38.78,38.78,0,0,0-.22-8.49,44.75,44.75,0,0,0,13.5-7.24c12.08-5.39,22.05-13.69,26.83-27a42.19,42.19,0,0,0-1-30.21,16.34,16.34,0,0,0-2.62-11c-2.93-4.52-5.18-6.16-7.86-10.07-.47-.68-.92-1.38-1.37-2.08-.47-1.12-1-2.24-1.56-3.35-1.26-2.44-2.85-4.67-4.34-7a61.17,61.17,0,0,1-3.51-8.36,16.2,16.2,0,0,0-5.95-8c-.46-1.27-.91-2.56-1.37-3.89-5-14.84-9.46-28.62-8.06-43.88a21.3,21.3,0,0,0,4.18-4.24c3.79-5,6.38-10.66,9.81-15.87,2.83-4.29,7.61-9.15,11.66-13.64,6.31-7,12.5-14.2,19.16-20.91,4.61,2.67,10.76,3.13,14.86.23l13.06-9.26a16.73,16.73,0,0,0,6.44-8.71c14-3.61,27.82-9.06,36.34-21.19C655.62,282,659.22,277,658.73,271.93Z"/><path class="cls-2" d="M134.87,350.52A298.23,298.23,0,0,0,46.13,563.18c0,139.78,95.88,257.18,225.46,290h0a301,301,0,0,0,160.86-3.74h0c2.73-.82,5.44-1.69,8.12-2.59l0,0c1.77-.59,3.51-1.19,5.26-1.82l.23-.08h0q7.81-2.81,15.43-6c107.49-45.37,182.93-151.76,182.93-275.76a298.33,298.33,0,0,0-91.64-215.49"/><path class="cls-2" d="M307.6,667.39a38,38,0,0,1-6.6-3.21c-2.28-1.39-4.38-3-6.8-4.21-4.82-2.31-10.13-3.64-15.21-5.23a2.1,2.1,0,0,0-1.24,0,2.38,2.38,0,0,0-1-.19c-2.79,0-3,3.93-.74,4.64a17,17,0,0,0,.3,1.71,2.11,2.11,0,0,0-.45,1.37,7.71,7.71,0,0,0,2.31,5.29,11.75,11.75,0,0,0,1,1.28,9.38,9.38,0,0,0,6.89,2.85h.35c1.58.28,3.23.4,4.81.52a75.38,75.38,0,0,0,11.64,0,2.47,2.47,0,0,0,1.77-.87c.56.23,1.12.45,1.69.66a2.41,2.41,0,0,0,2.93-1.67A2.44,2.44,0,0,0,307.6,667.39Z"/><path class="cls-2" d="M415.58,656.51a2.29,2.29,0,0,0-2.88-1.81l-8.44,2.23a28.48,28.48,0,0,0-7.77,2.82,47.39,47.39,0,0,0-5.95,4.92c-1.74,1.5-3.75,2.78-6.14,2.61a2.21,2.21,0,0,0-1.36.38c-2.59.46-2.44,4.71.46,4.71a2.3,2.3,0,0,0,1.22-.33c.26,0,.53,0,.79,0,2.91,0,5.82,0,8.73,0h.2a3.23,3.23,0,0,0,1.4.8c1.67.46,3.8-.18,5.49-.41,3.75-.49,7.56-1.16,10.6-3.6a9.77,9.77,0,0,0,3.76-8.32A2.52,2.52,0,0,0,415.58,656.51Z"/><path class="cls-2" d="M219.37,425c7-40.54-6.84-84.14-36-113.16-13.13-13.07-29.28-24-45.87-32.22-4.3-2.12-36.94-24.86-16.13,1.67,3.68,4.68,8.85,10.32,13.22,13.47a217.26,217.26,0,0,1,65.66,76.58A212.32,212.32,0,0,1,219.37,425Z"/><path class="cls-2" d="M475.61,425c-7-40.54,6.84-84.14,36-113.16,13.13-13.07,29.28-24,45.87-32.22,4.29-2.12,36.94-24.86,16.13,1.67-3.68,4.68-8.85,10.32-13.22,13.47a217.26,217.26,0,0,0-65.66,76.58A212.32,212.32,0,0,0,475.61,425Z"/><path class="cls-2" d="M609.68,242.56c2.42,2.36,5.26,4.5,8.59,5.11s7.2-.76,8.61-3.84c1.15-2.53.4-5.58-1.11-7.91s-3.71-4.13-5.74-6a58.24,58.24,0,0,1-13.49-19.35c-1.42-3.3-4-19.33-9.16-10.49-3.25,5.61-1,17,.69,22.74A44.52,44.52,0,0,0,609.68,242.56Z"/><path class="cls-2" d="M82.63,242.56c-2.42,2.36-5.26,4.5-8.59,5.11s-7.21-.76-8.61-3.84c-1.15-2.53-.41-5.58,1.11-7.91s3.71-4.13,5.74-6a58.38,58.38,0,0,0,13.49-19.35c1.42-3.3,4-19.33,9.15-10.49,3.26,5.61,1,17-.68,22.74A44.52,44.52,0,0,1,82.63,242.56Z"/><path class="cls-2" d="M588.43,571.92c3,.55,6.1,1.19,9,.2a9.16,9.16,0,0,0,5.95-8.07c.83-14.33-32.36-7.54-39-9.31-10.31-2.76-15.3-16.22-25.85-15.25-20.85,1.9-43.07,22.25-50,45.21C521.91,572.87,553.79,565.52,588.43,571.92Z"/><path class="cls-2" d="M103.3,571.92c-3,.55-6.09,1.19-9,.2a9.16,9.16,0,0,1-6-8.07c-.83-14.33,32.36-7.54,39-9.31,10.31-2.76,15.3-16.22,25.85-15.25,20.85,1.9,43.07,22.25,50,45.21C169.83,572.87,138,565.52,103.3,571.92Z"/><path class="cls-2" d="M478.22,648.88c-5.21,2.31-11,5-12.92,9.74-1.12,2.8-1,5.42,1.91,7.63,3.81,2.86,6.43,4.08,10.37,3.07C520,658.41,558.34,633,585.47,598.69c5.14-6.5,16.17-18,16.79-26.35-6.27.59-13.29,8.29-18.07,12.08-10.63,8.39-21.47,16.48-32.72,24A480.52,480.52,0,0,1,478.22,648.88Z"/><path class="cls-2" d="M212.2,648.88c5.21,2.31,11,5,12.92,9.74,1.12,2.8,1,5.42-1.9,7.63-3.81,2.86-6.44,4.08-10.37,3.07C170.45,658.41,132.09,633,105,598.69c-5.15-6.5-16.18-18-16.8-26.35,6.28.59,13.29,8.29,18.07,12.08,10.63,8.39,21.47,16.48,32.72,24A480.52,480.52,0,0,0,212.2,648.88Z"/><path class="cls-2" d="M312.84,723.52c-.1-6.89-.21-13.82-1.36-20.62s-3.38-13.53-7.4-19.14c-1.74-2.43-7.57-6.13-6.52-8.94.93-2.5,7.58-2.57,10.19-3.15a23.21,23.21,0,0,1,6.82-.85,8,8,0,0,1,6,3c1.7,2.38,1.42,5.59,1.07,8.49l-3.51,28.86c-.58,4.77-1.86,10.39-2.44,15.16-.26,2.08,0,8.58-2.61,8C311.85,733.92,312.9,727.07,312.84,723.52Z"/><path class="cls-2" d="M377.91,723.52c.11-6.89.21-13.82,1.36-20.62s3.38-13.53,7.4-19.14c1.74-2.43,7.57-6.13,6.53-8.94-.94-2.5-7.58-2.57-10.19-3.15a23.29,23.29,0,0,0-6.82-.85,8,8,0,0,0-6,3c-1.71,2.38-1.43,5.59-1.08,8.49l3.52,28.86c.58,4.77,1.48,10.39,2.06,15.16.25,2.08.38,8.58,3,8C378.9,733.92,377.86,727.07,377.91,723.52Z"/><path class="cls-2" d="M212.72,478.2c-10.29-1.21-20.65-2.6-30.43-6s-19-9-25.23-17.36a8.27,8.27,0,0,1-2-4.49c-.05-1.66,1.13-3.46,2.79-3.51a5.07,5.07,0,0,1,2.51.88,92.41,92.41,0,0,0,41.38,11.75c2.92.11,6,.12,8.59,1.43S215,465.29,214,468Z"/><path class="cls-2" d="M479.67,478.2c10.29-1.21,20.65-2.6,30.43-6s19.06-9,25.23-17.36a8.21,8.21,0,0,0,2-4.49c0-1.66-1.14-3.46-2.8-3.51a5.06,5.06,0,0,0-2.5.88,92.44,92.44,0,0,1-41.38,11.75c-2.93.11-6,.12-8.59,1.43s-4.62,4.41-3.61,7.16Z"/><path class="cls-2" d="M131.34,326.72c-13-12.06-29-20.28-45.3-27.21s-33.1-12.74-48.85-20.83c-3.53,2.56-2.64,8.43.5,11.45s7.63,4.05,11.79,5.35c18.94,5.94,34.42,19.36,50.91,30.41,10.14,6.79,20.85,12.79,30.38,20.42a78.29,78.29,0,0,1,14.63,15c1.28,1.78,2.79,6.16,5.34,6.06,3.38-.14,2.68-3.91,2.35-5.92C151,348.38,140.71,335.44,131.34,326.72Z"/><path class="cls-2" d="M560.18,326.72c13-12.06,29-20.28,45.31-27.21s33.09-12.74,48.85-20.83c3.53,2.56,2.63,8.43-.51,11.45s-7.62,4.05-11.78,5.35c-18.94,5.94-34.42,19.36-50.91,30.41-10.14,6.79-20.85,12.79-30.38,20.42a78,78,0,0,0-14.63,15c-1.29,1.78-2.79,6.16-5.35,6.06-3.37-.14-2.68-3.91-2.35-5.92C540.56,348.38,550.82,335.44,560.18,326.72Z"/><path class="cls-2" d="M405.11,727.46c1.86,18.18,3.68,36.88-1.3,54.47s-18.42,34-36.46,37c1.69-4,1.81-11.83,5.5-15.42s8.17-4.4,12.34-7.42c16.08-11.63,16.25-20.22,18.16-41.19C404.13,746.34,404.3,736.78,405.11,727.46Z"/><path class="cls-2" d="M286.35,727.46c-1.86,18.18-3.68,36.88,1.3,54.47s18.42,34,36.46,37c-1.69-4-1.81-11.83-5.5-15.42s-8.17-4.4-12.33-7.42c-16.09-11.63-16.26-20.22-18.17-41.19C287.33,746.34,287.16,736.78,286.35,727.46Z"/><path class="cls-2" d="M327.69,821.49a28.75,28.75,0,0,0,8.84,1.69c7.34.62,14.77,1.24,22,0,2.92-.52,5.9-1.4,8-3.42,3-2.78,3.77-7.1,4.42-11.11.28-1.71.48-3.7-.72-5-.75-.78-4-1.85-5.06-2.08-11.11-2.43-20.39-2.61-31.75-2.11a23.08,23.08,0,0,0-8.42,1.51c-2.63,1.15-4.13,1.58-4.63,4.41C319.48,810.71,322.88,819.48,327.69,821.49Z"/><path class="cls-2" d="M578.31,273.12a73.89,73.89,0,0,0,18.5-8.05c1.24-.75,2.62-1.84,2.48-3.29a3,3,0,0,0-2.55-2.33,26.67,26.67,0,0,0-3.69-.12,17.35,17.35,0,0,1-5.77-1.7,17.89,17.89,0,0,0-5.76-1.72,6,6,0,0,0-5.34,2.22c-1.14,1.66-.77,4.33,1,5.22"/><path class="cls-2" d="M113.31,273.12a74.12,74.12,0,0,1-18.51-8.05c-1.23-.75-2.61-1.84-2.47-3.29a3,3,0,0,1,2.54-2.33,26.87,26.87,0,0,1,3.7-.12,17.42,17.42,0,0,0,5.77-1.7,17.89,17.89,0,0,1,5.76-1.72,6,6,0,0,1,5.33,2.22c1.15,1.66.78,4.33-1,5.22"/><g id="direita-3" data-name="direita"><path class="cls-2" d="M461.53,828c-5-21.55-18.46-81.78-20.08-115.76,20-22,27.94-43.89,27.94-43.89s36.95,2,82.14-37.28h0c17.81-15.5,36.91-37.44,55.52-68.46-47.88-20-79.8-16-79.8-16s69.83-20,47.88-73.82C547.2,418.9,539.22,403,539.22,403s-16-37.92,43.89-75.82c61.86-31.92,75.82-33.92,77.81-55.86S623,235.35,623,235.35s-29.93-12-18-53.87l2-8s-45.89,43.89-29.92,83.8l4,10s-75.82,29.93-93.77,73.82-20,77.81-8,121.71l4,10s-11,1.28-27.46,7.12c-29.58,10.48-76.88,35.68-110.2,94.63"/><path class="cls-2" d="M437.37,656.6a50.37,50.37,0,0,0-19.29-1.45,52.37,52.37,0,0,0-18.22,5.59,34.7,34.7,0,0,0-4,2.44l-1.95,1.45c-.71.55-1.43,1-2.15,1.47-2.9,1.85-5.87,3.39-8.83,4.95s-6,3-9,4.35-6.13,2.53-9.32,3.59l-9.31,3.07,6.08-7.57c.23-.29.59-.74.88-1.16s.6-.86.89-1.3c.58-.9,1.15-1.82,1.66-2.77a48.78,48.78,0,0,0,2.83-5.92c.42-1,.8-2.06,1.15-3.11s.71-2.12,1-3.21c.66-2.16,1.06-4.39,1.55-6.67h.57a35.29,35.29,0,0,1,.51,7,38.89,38.89,0,0,1-.85,7.12,42,42,0,0,1-2.12,6.94c-.46,1.12-1,2.23-1.55,3.33-.3.54-.58,1.08-.91,1.62a18.24,18.24,0,0,1-1.1,1.67l-3.23-4.5c3-1.22,6-2.43,9.07-3.59s6.11-2.26,9.1-3.5a82.69,82.69,0,0,0,8.7-4.12c.68-.39,1.37-.77,2-1.2l1-.64c.36-.25.73-.5,1.1-.73a37.63,37.63,0,0,1,4.59-2.46,53.29,53.29,0,0,1,19.71-4.48,49.57,49.57,0,0,1,19.65,3.2Z"/><path class="cls-2" d="M378.57,671s43.91,11.71,37.17-15.25"/><path class="cls-2" d="M344.69,749.11s23.94-12,29.93,2-12,21.95-12,21.95-6,15.39-17,18.67C344.69,761.08,344.69,749.11,344.69,749.11Z"/><polygon class="cls-2" points="371.36 674.03 376.61 733.14 365.7 674.82 371.36 674.03"/><path class="cls-2" d="M345.47,796.35a62.79,62.79,0,0,1,7,.11,67.08,67.08,0,0,1,6.91.81,55.21,55.21,0,0,1,6.85,1.69,34.69,34.69,0,0,1,6.57,3l-2.48.06c4.12-2.63,8.4-4.91,12.48-7.27a38.09,38.09,0,0,0,10.69-8.43,32.71,32.71,0,0,0,6-12.19l.5-1.68.37-1.71c.23-1.15.52-2.29.71-3.46.32-2.33.78-4.65.95-7,.51-4.71.79-9.51,1.17-14.28s.72-9.54,1.14-14.32.88-9.55,1.72-14.28a40.86,40.86,0,0,1,1.87-7,23.72,23.72,0,0,1,3.57-6.22,23.38,23.38,0,0,0-3.3,6.32,41.13,41.13,0,0,0-1.57,7c-.64,4.72-.9,9.5-1.14,14.27s-.39,9.56-.55,14.34-.27,9.55-.6,14.38c-.08,2.41-.45,4.81-.68,7.22-.15,1.21-.4,2.41-.6,3.61l-.31,1.8-.45,1.79a35.56,35.56,0,0,1-6.09,13.59c-3.07,4.09-7.22,7.16-11.3,9.75s-8.19,5-12,7.66l-1.13.8-1.35-.74a29.63,29.63,0,0,0-5.65-2.31,48.16,48.16,0,0,0-6.17-1.26c-2.11-.27-4.24-.43-6.37-.49s-4.76-.06-6.76.1Z"/></g><g id="esquerda-3" data-name="esquerda"><path class="cls-2" d="M345.69,574.53c-33.55-59.36-81.28-84.49-110.82-94.85-16.14-5.66-26.85-6.9-26.85-6.9l4-10c12-43.9,10-77.81-8-121.71s-93.77-73.82-93.77-73.82l4-10c16-39.91-29.93-83.8-29.93-83.8l2,8c12,41.9-18,53.87-18,53.87s-39.91,14-37.91,35.92,16,23.94,77.81,55.86C168.12,365,152.15,403,152.15,403s-8,15.95-35.91,69.83c-21.95,53.87,47.88,73.82,47.88,73.82s-31.91-4-79.8,16c18.32,30.53,37.11,52.26,54.67,67.72,45.58,40.1,83,38,83,38s8,21.94,27.93,43.89c-1.64,34.27-15.29,95.26-20.19,116.31"/><path class="cls-2" d="M253.82,656.06a49.57,49.57,0,0,1,19.65-3.2,53.38,53.38,0,0,1,19.71,4.48,38.26,38.26,0,0,1,4.58,2.46c.38.23.74.48,1.11.73l1,.64c.62.43,1.31.81,2,1.2a82.52,82.52,0,0,0,8.69,4.12c3,1.24,6.06,2.35,9.1,3.5s6.09,2.37,9.07,3.59l-3.22,4.5a18.24,18.24,0,0,1-1.1-1.67c-.33-.54-.62-1.08-.92-1.62-.56-1.1-1.08-2.21-1.54-3.33a40.2,40.2,0,0,1-2.12-6.94,38,38,0,0,1-.85-7.12,36,36,0,0,1,.5-7H320c.49,2.28.88,4.51,1.54,6.67.27,1.09.62,2.15,1,3.21s.73,2.09,1.15,3.11a48.78,48.78,0,0,0,2.83,5.92c.52,1,1.09,1.87,1.66,2.77.3.44.59.89.9,1.3s.65.87.88,1.16l6.07,7.57-9.3-3.07c-3.19-1.06-6.27-2.25-9.32-3.59s-6-2.83-9-4.35-5.94-3.1-8.83-4.95c-.72-.46-1.45-.92-2.16-1.47l-1.95-1.45a34.57,34.57,0,0,0-4-2.44,52.42,52.42,0,0,0-18.23-5.59A50.38,50.38,0,0,0,254,656.6Z"/><path class="cls-2" d="M346.69,749.11s-23.95-12-29.93,2,12,21.95,12,21.95,6,15.39,17,18.67C346.69,761.08,346.69,749.11,346.69,749.11Z"/><polygon class="cls-2" points="325.68 674.82 314.76 733.14 320.01 674.03 325.68 674.82"/><path class="cls-2" d="M345.56,802c-2-.16-4.31-.15-6.42-.1s-4.27.22-6.38.49a48.52,48.52,0,0,0-6.17,1.26,29.9,29.9,0,0,0-5.65,2.31l-1.34.74-1.14-.8c-3.84-2.68-7.91-5.07-12-7.66a41.73,41.73,0,0,1-11.31-9.75A35.86,35.86,0,0,1,289,774.9l-.45-1.79-.31-1.8c-.2-1.2-.45-2.4-.59-3.61-.24-2.41-.61-4.81-.69-7.22-.32-4.83-.41-9.59-.59-14.38s-.33-9.56-.56-14.34-.49-9.55-1.14-14.27a39.28,39.28,0,0,0-1.57-7,23.35,23.35,0,0,0-3.29-6.32,23.41,23.41,0,0,1,3.56,6.22,40,40,0,0,1,1.87,7c.85,4.73,1.3,9.51,1.73,14.28s.77,9.55,1.13,14.32.66,9.57,1.18,14.28c.17,2.37.62,4.69.95,7,.19,1.17.47,2.31.71,3.46l.37,1.71.49,1.68a32.71,32.71,0,0,0,6,12.19,38.09,38.09,0,0,0,10.69,8.43c4.08,2.36,8.37,4.64,12.49,7.27l-2.48-.06a34.41,34.41,0,0,1,6.57-3,55.06,55.06,0,0,1,6.84-1.69,67.4,67.4,0,0,1,6.91-.81,62.87,62.87,0,0,1,7-.11Z"/></g><path class="cls-2" d="M312.56,671s-43.91,11.71-37.17-15.25"/><line class="cls-2" x1="551.53" y1="631.03" x2="551.53" y2="631.02"/><path class="cls-2" d="M371.42,804a12.93,12.93,0,0,1,.85,4.81,17.2,17.2,0,0,1-.66,4.73,14.58,14.58,0,0,1-2,4.43,8.08,8.08,0,0,1-3.87,3.18c.49-1.65.8-3,1.15-4.45s.69-2.8,1.09-4.2.85-2.8,1.39-4.22A24,24,0,0,1,371.42,804Z"/><path class="cls-2" d="M320,804a24.12,24.12,0,0,1,2.1,4.28c.53,1.42,1,2.83,1.38,4.22s.73,2.8,1.09,4.2.66,2.8,1.15,4.45a8.1,8.1,0,0,1-3.86-3.18,14.12,14.12,0,0,1-2-4.43,16.83,16.83,0,0,1-.66-4.73A12.72,12.72,0,0,1,320,804Z"/><circle class="cls-3" cx="345.79" cy="563.18" r="299.18"/><g id="direita-4" data-name="direita"><path class="cls-4" d="M461.15,828c-5-21.55-18.45-81.78-20.07-115.76,20-22,27.93-43.89,27.93-43.89s36.95,2,82.14-37.28h0c17.81-15.5,36.91-37.44,55.53-68.46-47.89-20-79.8-16-79.8-16s69.83-20,47.88-73.82C546.82,418.9,538.85,403,538.85,403s-16-37.92,43.89-75.82c61.85-31.92,75.81-33.92,77.81-55.86s-37.91-35.92-37.91-35.92-29.93-12-17.95-53.87l2-8s-45.89,43.89-29.93,83.8l4,10S504.93,297.2,487,341.09s-20,77.81-8,121.71l4,10s-11,1.28-27.46,7.12c-29.59,10.48-76.89,35.68-110.21,94.63"/><path class="cls-5" d="M437,656.6a50.38,50.38,0,0,0-19.29-1.45,52.42,52.42,0,0,0-18.23,5.59,34.57,34.57,0,0,0-4,2.44l-2,1.45c-.7.55-1.43,1-2.15,1.47-2.89,1.85-5.86,3.39-8.83,4.95s-6,3-9,4.35-6.13,2.53-9.32,3.59l-9.3,3.07,6.07-7.57c.23-.29.59-.74.88-1.16s.6-.86.9-1.3c.57-.9,1.14-1.82,1.66-2.77a48.78,48.78,0,0,0,2.83-5.92c.42-1,.79-2.06,1.15-3.11s.71-2.12,1-3.21c.66-2.16,1.05-4.39,1.54-6.67h.57a35.29,35.29,0,0,1,.51,7,38,38,0,0,1-.85,7.12,40.2,40.2,0,0,1-2.12,6.94c-.46,1.12-1,2.23-1.54,3.33-.3.54-.59,1.08-.92,1.62a18.24,18.24,0,0,1-1.1,1.67l-3.22-4.5c3-1.22,6-2.43,9.07-3.59s6.1-2.26,9.1-3.5a82.52,82.52,0,0,0,8.69-4.12c.69-.39,1.38-.77,2-1.2l1-.64c.37-.25.73-.5,1.11-.73a37.51,37.51,0,0,1,4.58-2.46,53.38,53.38,0,0,1,19.71-4.48,49.57,49.57,0,0,1,19.65,3.2Z"/><path class="cls-6" d="M378.19,671s43.91,11.71,37.17-15.25"/><path class="cls-5" d="M344.31,749.11s23.95-12,29.93,2-12,21.95-12,21.95-6,15.39-17,18.67C344.31,761.08,344.31,749.11,344.31,749.11Z"/><polygon class="cls-5" points="370.99 674.03 376.24 733.14 365.32 674.82 370.99 674.03"/><path class="cls-5" d="M345.1,796.35a62.65,62.65,0,0,1,7,.11,67.6,67.6,0,0,1,6.92.81,55.06,55.06,0,0,1,6.84,1.69,34.41,34.41,0,0,1,6.57,3L370,802c4.12-2.63,8.41-4.91,12.49-7.27a38.23,38.23,0,0,0,10.69-8.43,32.86,32.86,0,0,0,6-12.19l.49-1.68.37-1.71c.23-1.15.52-2.29.71-3.46.32-2.33.78-4.65.95-7,.52-4.71.8-9.51,1.17-14.28s.72-9.54,1.14-14.32.88-9.55,1.73-14.28a40.83,40.83,0,0,1,1.86-7,23.72,23.72,0,0,1,3.57-6.22,23.35,23.35,0,0,0-3.29,6.32,39.28,39.28,0,0,0-1.57,7c-.65,4.72-.91,9.5-1.14,14.27s-.39,9.56-.56,14.34-.27,9.55-.6,14.38c-.07,2.41-.44,4.81-.68,7.22-.15,1.21-.4,2.41-.59,3.61l-.31,1.8L402,774.9a35.86,35.86,0,0,1-6.09,13.59,41.73,41.73,0,0,1-11.31,9.75c-4.11,2.59-8.18,5-12,7.66l-1.14.8-1.34-.74a29.9,29.9,0,0,0-5.65-2.31,48.87,48.87,0,0,0-6.17-1.26q-3.17-.4-6.38-.49a60.08,60.08,0,0,0-6.33.15Z"/></g><g id="esquerda-4" data-name="esquerda"><path class="cls-7" d="M345.31,574.53C311.76,515.17,264,490,234.5,479.68c-16.15-5.66-26.85-6.9-26.85-6.9l4-10c12-43.9,10-77.81-8-121.71s-93.77-73.82-93.77-73.82l4-10c16-39.91-29.92-83.8-29.92-83.8l2,8c12,41.9-18,53.87-18,53.87s-39.9,14-37.9,35.92,16,23.94,77.81,55.86C167.74,365,151.78,403,151.78,403s-8,15.95-35.91,69.83c-22,53.87,47.88,73.82,47.88,73.82s-31.92-4-79.8,16c18.31,30.53,37.1,52.26,54.67,67.72,45.57,40.1,83,38,83,38s8,21.94,27.94,43.89c-1.64,34.27-15.29,95.26-20.2,116.31"/><path class="cls-5" d="M253.44,656.06a49.57,49.57,0,0,1,19.65-3.2,53.29,53.29,0,0,1,19.71,4.48,37.63,37.63,0,0,1,4.59,2.46c.37.23.73.48,1.1.73l1,.64c.62.43,1.31.81,2,1.2a82.69,82.69,0,0,0,8.7,4.12c3,1.24,6.05,2.35,9.1,3.5s6.09,2.37,9.07,3.59l-3.23,4.5a18.24,18.24,0,0,1-1.1-1.67c-.33-.54-.61-1.08-.91-1.62-.57-1.1-1.09-2.21-1.55-3.33a42,42,0,0,1-2.12-6.94,38.89,38.89,0,0,1-.85-7.12,35.29,35.29,0,0,1,.51-7h.57c.49,2.28.89,4.51,1.55,6.67.27,1.09.62,2.15,1,3.21s.73,2.09,1.15,3.11a48.78,48.78,0,0,0,2.83,5.92c.51,1,1.08,1.87,1.66,2.77.29.44.58.89.89,1.3s.65.87.88,1.16l6.08,7.57L326.37,679c-3.19-1.06-6.26-2.25-9.32-3.59s-6-2.83-9-4.35-5.93-3.1-8.83-4.95c-.72-.46-1.44-.92-2.15-1.47l-1.95-1.45a34.7,34.7,0,0,0-4-2.44,52.37,52.37,0,0,0-18.22-5.59,50.43,50.43,0,0,0-19.3,1.45Z"/><path class="cls-5" d="M346.31,749.11s-23.94-12-29.93,2,12,21.95,12,21.95,6,15.39,17,18.67C346.31,761.08,346.31,749.11,346.31,749.11Z"/><polygon class="cls-5" points="325.3 674.82 314.39 733.14 319.64 674.03 325.3 674.82"/><path class="cls-5" d="M345.1,802.05a60.21,60.21,0,0,0-6.34-.15c-2.13.06-4.27.22-6.37.49a48.16,48.16,0,0,0-6.17,1.26,29.36,29.36,0,0,0-5.65,2.31l-1.35.74-1.13-.8c-3.84-2.68-7.92-5.07-12-7.66s-8.23-5.66-11.31-9.75a35.69,35.69,0,0,1-6.08-13.59l-.45-1.79-.32-1.8c-.19-1.2-.44-2.4-.59-3.61-.23-2.41-.6-4.81-.68-7.22-.33-4.83-.41-9.59-.6-14.38s-.33-9.56-.55-14.34-.5-9.55-1.14-14.27a41.13,41.13,0,0,0-1.57-7,23.67,23.67,0,0,0-3.3-6.32,23.72,23.72,0,0,1,3.57,6.22,40.86,40.86,0,0,1,1.87,7c.84,4.73,1.29,9.51,1.72,14.28s.78,9.55,1.14,14.32.66,9.57,1.17,14.28c.17,2.37.63,4.69.95,7,.19,1.17.48,2.31.71,3.46l.37,1.71.5,1.68a32.71,32.71,0,0,0,6,12.19,38.18,38.18,0,0,0,10.68,8.43c4.08,2.36,8.37,4.64,12.49,7.27l-2.48-.06a34.69,34.69,0,0,1,6.57-3,55.5,55.5,0,0,1,6.84-1.69,67.6,67.6,0,0,1,6.92-.81,62.79,62.79,0,0,1,7-.11Z"/></g><path class="cls-7" d="M135.35,350.52A298.23,298.23,0,0,0,46.61,563.18c0,139.78,95.88,257.18,225.46,290h0a301,301,0,0,0,160.86-3.74h0c2.73-.82,5.43-1.69,8.12-2.59l0,0c1.77-.59,3.51-1.19,5.25-1.82l.24-.08h0q7.81-2.81,15.42-6C569.53,793.57,645,687.18,645,563.18a298.33,298.33,0,0,0-91.64-215.49"/><path class="cls-8" d="M74.86,0H181.47L264,.35l3.46,2c6.12,3.55,9.39,9.87,8.53,16.49-1.41,10.89-12.16,14.68-16.75,16.3s-10.15,3.13-15.62,4.63l-1.26.35,0,16.26-.53,205.42,0,12c6.16,2.73,11.68,6.84,13,14.64.53,3.11.86,11-7.51,17.38l-3,2.27-58.61,9.38-3.84.71c-10.93,1.94-21.9,4.1-32.68,6.41-5.32,1.15-10.67,2.34-15.9,3.56-6.53,1.52-13.12,3.13-19.59,4.79l-38.81,9.92Z"/><path d="M89.86,15h91.61l78.47.33c10.61,6.16-53.25,14.17-41.32,20.82L227.37,41l0,15.33-.53,205.41,0,9.37-7.35,5.12c-11.35,7.91,29.5,9.51,18.78,17.64l-55.07,8.82-4,.73c-11,2-22.18,4.16-33.12,6.51-5.34,1.14-10.77,2.36-16.16,3.61-6.62,1.55-13.32,3.18-19.89,4.86l-20.1,5.14Z"/><path class="cls-8" d="M199.39,0H366.87l-.09,303.5-31,.32c-12,.12-24.13.48-36.12,1.07-10,.49-20.08,1.15-30.07,2-12,1-24.07,2.2-36,3.64l-35,4.22Z"/><path d="M214.36,15h137.5l-.08,273.65-16.13.17c-12.18.12-24.53.49-36.7,1.09-10.14.49-20.42,1.16-30.54,2-12.15,1-24.46,2.23-36.59,3.69l-18.17,2.2Z"/><path class="cls-8" d="M492,314.71l-35-4.22c-11.91-1.44-24-2.67-36-3.64-10-.82-20.12-1.47-30.06-2-12-.59-24.15-.95-36.12-1.07l-31-.32,0-143.22h12.84l-12.82-7.06,0-22.81L323.76,0l31.29,0H491.23l.32,128.75-1.76,8.13,1.83,1.14v19.61Zm-138.18-40.9h1.28c12.36.13,24.91.5,37.28,1.1,10.27.51,20.71,1.19,31,2,12.36,1,24.87,2.27,37.17,3.75l1.33.16-.26-107L413.4,145l38.66,1.25c-1.87-8.66,1.56-13.86,5-16.77a15.63,15.63,0,0,1,4.22-2.56l.29-1.32L461.3,30H353.76l0,105.48,1,.57-1,1.89v6.39h-3.53l-8.77,15.93H353.8Z"/><path d="M347.61,149.19l-8.8-4.84,0-13.95,0-115.39h137.5l.29,112.16-4.8,22.15c-5.41-.2,4.53,12.71-.9,12.53,8.71,5.21-10.41-25.57-2.3-20.52l8.07,5v11.28L477,297.79l-18.18-2.2c-12.12-1.46-24.43-2.7-36.58-3.69-10.14-.83-20.42-1.5-30.55-2-12.17-.6-24.52-1-36.7-1.09l-16.13-.17,0-128.37"/><path class="cls-8" d="M615.76,342.89,577,333c-11.71-3-23.65-5.81-35.49-8.35l-14.76-3.17-15-2.71c-11.84-2.15-23.89-4.09-35.82-5.78l-27-3.81L448.13,0H615.76V155.5h-30V30H478.21l.66,253.08,1.24.18c12.32,1.74,24.76,3.74,37,6l29.48,5.34V295l1.2.26c12.22,2.62,24.54,5.52,36.62,8.61l1.38.35v-147h30Z"/><path d="M600.76,157.27v166.3l-20.09-5.14c-11.9-3-24-5.89-36.06-8.47l-13.05-2.81v-.06L514.41,304c-12-2.18-24.3-4.16-36.4-5.87l-14.11-2L463.17,15H600.76V155.5"/><path class="cls-9" d="M345.79,877.36a314.18,314.18,0,1,1,222.16-92A312.13,312.13,0,0,1,345.79,877.36Z"/><path class="cls-10" d="M446.54,831.36c-5.59-24-18.78-83.57-20.45-118.45l-.29-6.21,4.18-4.6a135.05,135.05,0,0,0,24.95-39l3.94-10.62,10.9.81c2.24.06,32.25,0,70.38-32.61l1.16-1c15.11-13.15,29.45-29.76,42.77-49.54-33.55-10.92-55.1-8.71-55.34-8.68l-6-29.31c8.14-2.37,31-12,38.65-27.81,3.59-7.43,3.49-15.71-.29-25.32-27.4-52.85-35.35-68.73-35.68-69.39l-.41-.88c-.85-2-20.09-50.12,49.69-94.31l.56-.36.59-.3c11.9-6.14,21.85-11.09,30.62-15.45,36.86-18.32,38.37-20.09,39.13-28.44.46-5-13.65-15.34-28-20.42l-.59-.22c-8.18-3.27-19.39-11.71-25.6-26-3.33,9.54-4.39,19.5-.79,28.49l9.59,24-14,5.54c-19.44,7.7-72.7,34.5-85.4,65.54-16.49,40.32-18.57,70.56-7.61,111.27l10.93,27.38-19.46,2.26S475,488.93,460.53,494c-29.94,10.61-72,34.47-102.16,87.87l-26.12-14.76c34.75-61.48,83.49-89.07,118.26-101.39,4.66-1.65,8.92-3,12.69-4-11.49-45.27-8.6-81.14,9.89-126.33,15.28-37.36,64.26-64.53,88.45-76-15.82-47.6,32.65-94.69,34.77-96.72l37.48-35.85L619.11,185.6c-7.43,26,5.75,34.19,9.13,35.82,7.52,2.73,50.12,19.63,47.24,51.21-2.37,26.09-18,33.85-55.64,52.58-8.53,4.24-18.19,9-29.63,14.94-44.07,28.15-38.6,53.31-37.53,56.92,2,3.9,11.25,22.24,35.39,68.81l.32.6.26.64c7.22,17.73,7.12,35.17-.31,50.44a67.16,67.16,0,0,1-13.86,18.78,242.62,242.62,0,0,1,38,12.37l16,6.68-8.93,14.89c-16.17,26.94-34.1,49.59-53.39,67.43v.14l-5.15,4.5c-34.91,30.38-66.12,38.3-81.93,40.31a171.8,171.8,0,0,1-22.62,34.74c2.74,34.25,15.33,90.08,19.31,107.15Z"/><path class="cls-11" d="M349.32,665.1c.09-.1.21-.26.33-.41l.22-.31.36-.55c.36-.55.74-1.17,1-1.7l.18-.33a34.35,34.35,0,0,0,2-4.12c.26-.63.52-1.34.83-2.26.24-.7.49-1.46.63-2L355,653l.12-.37c.3-1,.57-2.29.87-3.78l.36-1.69,2.54-11.84h25.35l1.92,11.22a56,56,0,0,1,5.5-2.89l.14-.06A68,68,0,0,1,417,637.87c.8,0,1.59,0,2.38,0a63.61,63.61,0,0,1,23.25,4.26l13.27,5.18-9.18,27.59L433,671.06a35,35,0,0,0-9.35-1.26,34.35,34.35,0,0,0-4.18.25A37.42,37.42,0,0,0,406.53,674a21.39,21.39,0,0,0-2.19,1.32l-1.76,1.31c-1.11.85-2.12,1.5-2.93,2l-.12.08c-3.39,2.16-6.59,3.84-9.68,5.46l-.43.22c-2.84,1.46-6.22,3.16-9.79,4.74s-7.14,2.93-10.67,4.1l-57.42,19Z"/><path class="cls-12" d="M396.68,688.58a91.27,91.27,0,0,1-22.35-3.07l7.73-29L378.19,671l3.84-14.5c7.85,2.06,18.29,2.69,21.08,1.27a4.11,4.11,0,0,0-1.36,1.39l28.16-7c3.71,14.83-2.42,23.62-6.41,27.55C416.49,686.58,406.21,688.58,396.68,688.58Z"/><path class="cls-11" d="M330.32,792.21c-1-30.54-1-42.6-1-43.1v-9.27l8.3-4.15c2.12-1.06,13.3-6.36,24.8-6.36,12,0,21.3,5.78,25.62,15.86,6.83,15.94-1.49,30.65-14.26,38.68C370,791,362.32,802.29,349.6,806.09L331,811.66Z"/><polygon class="cls-11" points="347.68 662.1 384.53 657.03 391.18 731.82 361.49 735.9 347.68 662.1"/><path class="cls-11" d="M362.87,819.13a14.45,14.45,0,0,0-2.63-1.07,34.74,34.74,0,0,0-4-.8,46.91,46.91,0,0,0-4.79-.36c-.44,0-.92,0-1.4,0-1.21,0-2.34,0-3.28.12l-15.07,1.26L329,782l15.5-.66c1,0,2-.06,3-.06,1.74,0,3.51.06,5.56.19a84.3,84.3,0,0,1,8.49,1l.16,0a67.62,67.62,0,0,1,8.36,2l1.38-.78c1.18-.67,2.36-1.33,3.52-2,3.31-1.92,5.35-3.45,6.57-4.95l.1-.11a18.2,18.2,0,0,0,3.09-6.64l.39-1.31.23-1.1c.09-.46.2-.92.3-1.38s.19-.85.27-1.27c.11-.77.22-1.53.34-2.3.21-1.31.4-2.55.47-3.54l0-.26,0-.26c.33-3,.56-6.16.8-9.46l.33-4.39.09-1.13c.32-4.35.66-8.84,1.06-13.31.49-5.49,1-10.44,1.9-15.61l0-.2a55,55,0,0,1,2.6-9.51,38.42,38.42,0,0,1,5.78-10.11L423.3,713a8.72,8.72,0,0,0-1.22,2.3,27,27,0,0,0-.95,4.32c-.53,4-.76,8-1,12.87-.21,4.32-.36,8.79-.51,13.12l0,1c-.05,1.47-.1,2.88-.15,4.29-.11,3.34-.22,6.79-.45,10.34-.09,2.15-.31,4.12-.52,5.87-.07.68-.15,1.36-.22,2l0,.38c-.15,1.18-.33,2.22-.5,3.14l-.18,1-.43,2.52-.56,2.24a50.75,50.75,0,0,1-8.72,19.1c-4.73,6.27-10.61,10.42-15.21,13.33-1.29.82-2.55,1.6-3.8,2.37-2.74,1.69-5.32,3.29-7.68,4.93l-8.75,6.11Z"/><path class="cls-13" d="M244,831.92l-29.22-6.82c4-17.18,16.68-73.36,19.44-107.7a171.36,171.36,0,0,1-22.62-34.74c-16-2-47.57-10.07-82.85-41.12-20.9-18.39-40.29-42.37-57.63-71.26l-8.93-14.89,16-6.68a242,242,0,0,1,38-12.37,67.38,67.38,0,0,1-13.87-18.78c-7.42-15.27-7.53-32.71-.31-50.44l.26-.64.32-.6C126.69,419.31,136,401,137.94,397.07c1.07-3.61,6.55-28.77-37.53-56.92-11.44-5.9-21.09-10.7-29.63-14.94-37.67-18.73-53.27-26.49-55.64-52.59-2.88-31.57,39.72-48.47,47.24-51.2,3.39-1.63,16.57-9.82,9.14-35.82l-.13-.49-14.57-58.3,37.49,35.85c2.12,2,50.6,49.12,34.77,96.72,24.2,11.5,73.17,38.67,88.46,76,18.48,45.19,21.37,81.06,9.88,126.32,3.59,1,7.63,2.25,12,3.79a212.74,212.74,0,0,1,58,31.25c24.51,18.55,45,42.23,60.92,70.38l-26.12,14.76c-30.32-53.65-72.6-77.51-102.72-88.08-14.1-4.94-23.57-6.15-23.66-6.16l-19.48-2.25,11-27.38c11-40.71,8.88-71-7.61-111.27-12.7-31-66-57.84-85.41-65.55l-14-5.54,9.58-24c3.69-9.24,2.57-19.22-.75-28.6C93,237.51,81.75,246,73.55,249.27l-.61.23C58.66,254.57,44.56,264.87,45,269.91c.75,8.35,2.27,10.12,39.12,28.44,8.78,4.36,18.72,9.31,30.63,15.45l.58.3.56.36c69.78,44.19,50.54,92.28,49.69,94.31l-.41.88c-.32.66-8.27,16.54-35.67,69.39-3.79,9.61-3.88,17.9-.3,25.32,7.63,15.79,30.51,25.44,38.69,27.82l-6,29.3c-.17,0-21.77-2.24-55.35,8.68,13.09,19.43,27.16,35.81,42,48.86,39.85,35.07,71.92,34.3,72.25,34.31l11.12-.62,3.81,10.47a135.31,135.31,0,0,0,24.93,38.92l4.19,4.6-.3,6.21C262.86,747.85,249.59,807.77,244,831.92Z"/><path class="cls-11" d="M321.66,693.23c-3.53-1.17-7-2.5-10.61-4.08s-7-3.31-9.85-4.76l-.4-.21c-3.1-1.62-6.3-3.3-9.64-5.43l-.19-.12c-.81-.52-1.81-1.17-2.93-2l-1.76-1.31a22,22,0,0,0-2.19-1.33,37.73,37.73,0,0,0-13-3.93,35.42,35.42,0,0,0-13.48,1l-13.73,3.8-9.18-27.59L248,642.09a63.56,63.56,0,0,1,23.24-4.26c.79,0,1.59,0,2.38,0a67.94,67.94,0,0,1,25.26,5.75l.14.06a57.31,57.31,0,0,1,5.51,2.89l1.92-11.22h25.33l2.55,11.84c.13.57.25,1.14.36,1.7.31,1.49.57,2.76.88,3.77l.11.38.1.38c.13.53.38,1.27.62,2,.32.94.58,1.65.82,2.24a35.23,35.23,0,0,0,2,4.16l.19.33c.28.53.67,1.15,1,1.69l.15.24.25.36.13.18.09.13.29.37,37.78,47.12Z"/><path class="cls-11" d="M341,806.09c-12.71-3.8-20.44-15.11-24.16-22.22-12.78-8-21.1-22.74-14.27-38.68,4.32-10.08,13.66-15.86,25.62-15.86,11.51,0,22.68,5.3,24.81,6.36l8.29,4.15v9.27c0,.5,0,12.56-1,43.1l-.63,19.45Z"/><polygon class="cls-11" points="299.44 731.82 306.09 657.03 342.94 662.1 329.13 735.9 299.44 731.82"/><path class="cls-11" d="M309.5,818.2c-2.35-1.64-4.94-3.24-7.68-4.93l-3.77-2.35c-4.62-2.93-10.5-7.08-15.24-13.35a50.61,50.61,0,0,1-8.71-19.09l-.57-2.25-.43-2.52-.18-1c-.17-.92-.35-2-.5-3.14l0-.38c-.06-.68-.14-1.36-.22-2-.2-1.75-.43-3.72-.51-5.87-.24-3.57-.35-7-.46-10.39-.05-1.39-.09-2.78-.15-4.18l0-1.06c-.15-4.33-.31-8.8-.52-13.15-.23-4.67-.46-8.88-1-12.84a25.9,25.9,0,0,0-.93-4.26,8.8,8.8,0,0,0-1.24-2.36l23.93-18.08a38.78,38.78,0,0,1,5.81,10.17,56.18,56.18,0,0,1,2.58,9.47l0,.19c.93,5.16,1.41,10.11,1.9,15.57.4,4.56.75,9.11,1.08,13.5l.08,1c.11,1.39.21,2.84.32,4.29.24,3.32.47,6.45.8,9.49l0,.27,0,.26c.07,1,.27,2.23.47,3.54.12.77.24,1.54.35,2.3.07.43.17.84.26,1.26s.21.93.3,1.4l.24,1.08.39,1.32a17.88,17.88,0,0,0,3.09,6.64l.09.11c1.23,1.5,3.26,3,6.61,5,1.12.65,2.3,1.31,3.48,2l1.39.78a66.75,66.75,0,0,1,8.36-2l.16,0c2.73-.46,5.56-.8,8.41-1,2.12-.13,3.89-.19,5.63-.19q1.49,0,3,.06l15.5.66-2.75,36.24L343.85,817c-.94-.08-2.08-.12-3.29-.12-.48,0-.95,0-1.42,0a47,47,0,0,0-4.76.36,34.5,34.5,0,0,0-4,.8,14.76,14.76,0,0,0-2.63,1.07l-9.5,5.18Z"/><path class="cls-13" d="M345.79,877.36a314.9,314.9,0,0,1-75.56-9.16h0l-1.83-.46A313.89,313.89,0,0,1,31.61,563.18,313.26,313.26,0,0,1,124.8,339.85l21.1,21.33A284.24,284.24,0,0,0,274.82,838.42l.95.24a286,286,0,0,0,152.8-3.55l2.14-.65c1.44-.45,2.92-.93,4.49-1.45l2.21-1.15h1.2l2.56-.9,2.37-1H444c4.11-1.52,8.22-3.14,12.24-4.83a284.26,284.26,0,0,0,86.71-466.63l20.82-21.61a314.27,314.27,0,0,1-95.87,515.88c-5.33,2.25-10.78,4.37-16.21,6.31l-.11,0h0l-2.37.84-2.15.74-2.23,1.17h-1.28c-2.17.72-4.23,1.36-6.23,2l-2.14.64A314.32,314.32,0,0,1,345.79,877.36Z"/><g id="cópia-3" data-name="cópia"><path d="M89.86,15h91.61l78.47.33c10.61,6.16-53.25,14.17-41.32,20.82L227.37,41l0,15.33-.53,205.41,0,9.37-7.35,5.12c-11.35,7.91,29.5,9.51,18.78,17.64l-55.07,8.82-4,.73c-11,2-22.18,4.16-33.12,6.51-5.34,1.14-10.77,2.36-16.16,3.61-6.62,1.55-13.32,3.18-19.89,4.86l-20.1,5.14Z"/><path d="M214.36,15h137.5l-.08,273.65-16.13.17c-12.18.12-24.53.49-36.7,1.09-10.14.49-20.42,1.16-30.54,2-12.15,1-24.46,2.23-36.59,3.69l-18.17,2.2Z"/><path d="M347.61,149.19l-8.8-4.84,0-13.95,0-115.39h137.5l.29,112.16-4.8,22.15c-5.41-.2,4.53,12.71-.9,12.53,8.71,5.21-10.41-25.57-2.3-20.52l8.07,5v11.28L477,297.79l-18.18-2.2c-12.12-1.46-24.43-2.7-36.58-3.69-10.14-.83-20.42-1.5-30.55-2-12.17-.6-24.52-1-36.7-1.09l-16.13-.17,0-128.37"/><path d="M600.76,157.27v166.3l-20.09-5.14c-11.9-3-24-5.89-36.06-8.47l-13.05-2.81v-.06L514.41,304c-12-2.18-24.3-4.16-36.4-5.87l-14.11-2L463.17,15H600.76V155.5"/><path class="cls-14" d="M183.51,36.79q16.25,8.87,32.5,17.34v1.74c0,.86,0,1.73,0,2.6l-.09,31.78c0,1.45,0,2.89,0,4.34l-.06,22.54-.18,64.14-.06,22.83c0,1.45,0,2.89,0,4.34q0,15.75-.08,31.49c0,1,0,1.93,0,2.89v1.45q-16.31,10.66-32.55,22.2l-.32.06q-16.22,2.7-32.36,6-7.92,1.61-15.82,3.33Q124.69,278,115,280.28V36.79h68.54Zm-3.49,148q.07-32.85.16-65.69,0-21.3.1-42.61-5.46-2.79-10.93-5.63-9.37.24-18.76.52L150.32,238q9.31-1.61,18.67-3.06,5.46-3.83,10.92-7.55Q180,206.05,180,184.74Z"/><path class="cls-15" d="M335.86,253.07q-18,.17-35.92,1-15,.69-29.9,1.84-17.93,1.36-35.8,3.39l.09-32.6q.25-95,.5-189.9h35.68q-.19,93.51-.4,187,14.92-1,29.88-1.56.12-92.71.25-185.44h35.68q0,92.29-.05,184.59Q335.86,237.22,335.86,253.07Z"/><path class="cls-16" d="M455.79,36.79l.09,32.61.09,36.89q-17.85-.63-35.71-1.06,0-18.17-.08-36.33-14.88-.16-29.76-.27l.06,43.85c21.87,11.61,43.75,23.64,65.61,36.42v1.15c0,.66,0,1.33,0,2q0,14.73.08,29.45v2.86l.12,42.33q0,16.31.08,32.6-17.88-2-35.8-3.39-14.94-1.16-29.9-1.84-18-.83-35.91-1,0-15.85,0-31.69,0-26.55,0-53.1,17.91.1,35.82.61,0,26.67.08,53.34,14.94.59,29.87,1.56l-.12-54.35q5.5.26,11,.55l-.63-.32q-5.19-3-10.37-5.86c-21.89-12.33-43.78-24-65.65-35.28v-3.06q0-14.31,0-28.63V94.06q0-12.78,0-25.57,0-15.85,0-31.7H455.79Z"/><path class="cls-17" d="M575.65,138.2q-8.55,4-17.11,7.91,8.57,5.79,17.11,11.8V280.28q-17.58-4.21-35.28-7.79-.09-46.5-.16-93,5.44.66,10.9,1.36l-.63-.39q-5.13-3.56-10.28-7Q525.4,163.37,510.53,154q.14,56.5.28,113-17.78-3-35.62-5.39l-.36-129.46c0-1.06,0-2.12,0-3.18q0-14.88-.08-29.76c0-1,0-1.93,0-2.89q-.09-29.76-.16-59.53h35.67q.11,40.1.2,80.19,14.87,9,29.7,18.58-.09-49.38-.16-98.77h35.67Z"/></g><circle class="cls-18" cx="345.31" cy="563.18" r="299.18"/><g id="direita-5" data-name="direita"><path class="cls-4" d="M461.15,828c-5-21.55-18.45-81.78-20.07-115.76,20-22,27.93-43.89,27.93-43.89s36.95,2,82.14-37.28h0c17.81-15.5,36.91-37.44,55.53-68.46-47.89-20-79.8-16-79.8-16s69.83-20,47.88-73.82C546.82,418.9,538.85,403,538.85,403s-16-37.92,43.89-75.82c61.85-31.92,75.81-33.92,77.81-55.86s-37.91-35.92-37.91-35.92-29.93-12-17.95-53.87l2-8s-45.89,43.89-29.93,83.8l4,10S504.93,297.2,487,341.09s-20,77.81-8,121.71l4,10s-11,1.28-27.46,7.12c-29.59,10.48-76.89,35.68-110.21,94.63"/><path class="cls-5" d="M437,656.6a50.38,50.38,0,0,0-19.29-1.45,52.42,52.42,0,0,0-18.23,5.59,34.57,34.57,0,0,0-4,2.44l-2,1.45c-.7.55-1.43,1-2.15,1.47-2.89,1.85-5.86,3.39-8.83,4.95s-6,3-9,4.35-6.13,2.53-9.32,3.59l-9.3,3.07,6.07-7.57c.23-.29.59-.74.88-1.16s.6-.86.9-1.3c.57-.9,1.14-1.82,1.66-2.77a48.78,48.78,0,0,0,2.83-5.92c.42-1,.79-2.06,1.15-3.11s.71-2.12,1-3.21c.66-2.16,1.05-4.39,1.54-6.67h.57a35.29,35.29,0,0,1,.51,7,38,38,0,0,1-.85,7.12,40.2,40.2,0,0,1-2.12,6.94c-.46,1.12-1,2.23-1.54,3.33-.3.54-.59,1.08-.92,1.62a18.24,18.24,0,0,1-1.1,1.67l-3.22-4.5c3-1.22,6-2.43,9.07-3.59s6.1-2.26,9.1-3.5a82.52,82.52,0,0,0,8.69-4.12c.69-.39,1.38-.77,2-1.2l1-.64c.37-.25.73-.5,1.11-.73a37.51,37.51,0,0,1,4.58-2.46,53.38,53.38,0,0,1,19.71-4.48,49.57,49.57,0,0,1,19.65,3.2Z"/><path class="cls-6" d="M378.19,671s43.91,11.71,37.17-15.25"/><path class="cls-5" d="M344.31,749.11s23.95-12,29.93,2-12,21.95-12,21.95-6,15.39-17,18.67C344.31,761.08,344.31,749.11,344.31,749.11Z"/><polygon class="cls-5" points="370.99 674.03 376.24 733.14 365.32 674.82 370.99 674.03"/><path class="cls-5" d="M345.1,796.35a62.65,62.65,0,0,1,7,.11,67.6,67.6,0,0,1,6.92.81,55.06,55.06,0,0,1,6.84,1.69,34.41,34.41,0,0,1,6.57,3L370,802c4.12-2.63,8.41-4.91,12.49-7.27a38.23,38.23,0,0,0,10.69-8.43,32.86,32.86,0,0,0,6-12.19l.49-1.68.37-1.71c.23-1.15.52-2.29.71-3.46.32-2.33.78-4.65.95-7,.52-4.71.8-9.51,1.17-14.28s.72-9.54,1.14-14.32.88-9.55,1.73-14.28a40.83,40.83,0,0,1,1.86-7,23.72,23.72,0,0,1,3.57-6.22,23.35,23.35,0,0,0-3.29,6.32,39.28,39.28,0,0,0-1.57,7c-.65,4.72-.91,9.5-1.14,14.27s-.39,9.56-.56,14.34-.27,9.55-.6,14.38c-.07,2.41-.44,4.81-.68,7.22-.15,1.21-.4,2.41-.59,3.61l-.31,1.8L402,774.9a35.86,35.86,0,0,1-6.09,13.59,41.73,41.73,0,0,1-11.31,9.75c-4.11,2.59-8.18,5-12,7.66l-1.14.8-1.34-.74a29.9,29.9,0,0,0-5.65-2.31,48.87,48.87,0,0,0-6.17-1.26q-3.17-.4-6.38-.49a60.08,60.08,0,0,0-6.33.15Z"/></g><g id="esquerda-5" data-name="esquerda"><path class="cls-7" d="M345.31,574.53C311.76,515.17,264,490,234.5,479.68c-16.15-5.66-26.85-6.9-26.85-6.9l4-10c12-43.9,10-77.81-8-121.71s-93.77-73.82-93.77-73.82l4-10c16-39.91-29.92-83.8-29.92-83.8l2,8c12,41.9-18,53.87-18,53.87s-39.9,14-37.9,35.92,16,23.94,77.81,55.86C167.74,365,151.78,403,151.78,403s-8,15.95-35.91,69.83c-22,53.87,47.88,73.82,47.88,73.82s-31.92-4-79.8,16c18.31,30.53,37.1,52.26,54.67,67.72,45.57,40.1,83,38,83,38s8,21.94,27.94,43.89c-1.64,34.27-15.29,95.26-20.2,116.31"/><path class="cls-5" d="M253.44,656.06a49.57,49.57,0,0,1,19.65-3.2,53.29,53.29,0,0,1,19.71,4.48,37.63,37.63,0,0,1,4.59,2.46c.37.23.73.48,1.1.73l1,.64c.62.43,1.31.81,2,1.2a82.69,82.69,0,0,0,8.7,4.12c3,1.24,6.05,2.35,9.1,3.5s6.09,2.37,9.07,3.59l-3.23,4.5a18.24,18.24,0,0,1-1.1-1.67c-.33-.54-.61-1.08-.91-1.62-.57-1.1-1.09-2.21-1.55-3.33a42,42,0,0,1-2.12-6.94,38.89,38.89,0,0,1-.85-7.12,35.29,35.29,0,0,1,.51-7h.57c.49,2.28.89,4.51,1.55,6.67.27,1.09.62,2.15,1,3.21s.73,2.09,1.15,3.11a48.78,48.78,0,0,0,2.83,5.92c.51,1,1.08,1.87,1.66,2.77.29.44.58.89.89,1.3s.65.87.88,1.16l6.08,7.57L326.37,679c-3.19-1.06-6.26-2.25-9.32-3.59s-6-2.83-9-4.35-5.93-3.1-8.83-4.95c-.72-.46-1.44-.92-2.15-1.47l-1.95-1.45a34.7,34.7,0,0,0-4-2.44,52.37,52.37,0,0,0-18.22-5.59,50.43,50.43,0,0,0-19.3,1.45Z"/><path class="cls-5" d="M346.31,749.11s-23.94-12-29.93,2,12,21.95,12,21.95,6,15.39,17,18.67C346.31,761.08,346.31,749.11,346.31,749.11Z"/><polygon class="cls-5" points="325.3 674.82 314.39 733.14 319.64 674.03 325.3 674.82"/><path class="cls-5" d="M345.1,802.05a60.21,60.21,0,0,0-6.34-.15c-2.13.06-4.27.22-6.37.49a48.16,48.16,0,0,0-6.17,1.26,29.36,29.36,0,0,0-5.65,2.31l-1.35.74-1.13-.8c-3.84-2.68-7.92-5.07-12-7.66s-8.23-5.66-11.31-9.75a35.69,35.69,0,0,1-6.08-13.59l-.45-1.79-.32-1.8c-.19-1.2-.44-2.4-.59-3.61-.23-2.41-.6-4.81-.68-7.22-.33-4.83-.41-9.59-.6-14.38s-.33-9.56-.55-14.34-.5-9.55-1.14-14.27a41.13,41.13,0,0,0-1.57-7,23.67,23.67,0,0,0-3.3-6.32,23.72,23.72,0,0,1,3.57,6.22,40.86,40.86,0,0,1,1.87,7c.84,4.73,1.29,9.51,1.72,14.28s.78,9.55,1.14,14.32.66,9.57,1.17,14.28c.17,2.37.63,4.69.95,7,.19,1.17.48,2.31.71,3.46l.37,1.71.5,1.68a32.71,32.71,0,0,0,6,12.19,38.18,38.18,0,0,0,10.68,8.43c4.08,2.36,8.37,4.64,12.49,7.27l-2.48-.06a34.69,34.69,0,0,1,6.57-3,55.5,55.5,0,0,1,6.84-1.69,67.6,67.6,0,0,1,6.92-.81,62.79,62.79,0,0,1,7-.11Z"/></g><path class="cls-19" d="M658.73,271.93a38.27,38.27,0,0,0-2-9.28,17.68,17.68,0,0,0-2.12-8.89,19.33,19.33,0,0,0-16.27-10.09c-.46-.33-.93-.65-1.4-1-3.75-2.5-7.95-4-11.91-6.09-.83-.44-1.64-.91-2.42-1.42-.26-.18-.83-.58-1-.75-1.92-1.67-3.7-3.49-5.48-5.31a13.57,13.57,0,0,0-7.25-3.83q-.9-3.8-1.47-7.82c-.48-3.38-3-6.24-6.07-8.09a40.63,40.63,0,0,0,.48-4.9c0-.84,1-2.49-.18-1,3.2-4,3.93-9.55,0-13.48-3.32-3.32-10.26-4-13.48,0-5.22,6.56-5.9,15.11-6.45,23.41-.14.22-.29.43-.43.66-6.45,10.71-10.42,25.08-5.56,36.71a21.07,21.07,0,0,0-.85,4A34,34,0,0,0,576.63,269a13.47,13.47,0,0,0-3.51,1.46c-11.4,6.76-22.63,13.2-33.09,21a81,81,0,0,0-22,9.73,15,15,0,0,0-7,11.84c-7.4,5.19-16.43,13.1-20.21,22.12a14.23,14.23,0,0,0-4,4.38,42.91,42.91,0,0,0-5.43,17.22c-1.42,4.59-3,9.12-4.74,13.41s-4.27,9.08-5.1,14c-.91,5.37-.36,10-1.7,13.86-1.68,4.79.21,10.4,3.82,14-.28,1.83-.52,3.67-.7,5.53a50.52,50.52,0,0,0,.28,12.66,11.32,11.32,0,0,0-.36,3.84c1.09,13.74,4.42,27.32,8.15,40.75a18.68,18.68,0,0,0-5.87,1.23c-9.24,3.58-18.8,7-28.31,10.59-1.23.23-2.45.5-3.66.84a81.77,81.77,0,0,0-21.82,9.84C406.62,504.41,392.8,513,381.44,525s-20.07,25.71-27.67,40.2q-4.47,3.84-8.72,7.91c-7.64-7.61-14.47-16-21.3-24.35-.17-.22-.35-.43-.53-.65a23.51,23.51,0,0,0-6.91-18,196.59,196.59,0,0,0-77.66-47.25,173.64,173.64,0,0,0-18.92-5c-4-1.76-8-3.51-11.94-5.28.3-1.58.52-3.18.68-4.78,6.13-8.47,7.41-18.6,5.53-28.61a82.86,82.86,0,0,0,2.1-15.47,18.86,18.86,0,0,0-1.31-7.72l.21-2c1.25-12.85.74-25.79.22-38.67A24.16,24.16,0,0,0,207,358.28a23.3,23.3,0,0,0-2.6-7.74q-1.71-3.12-3.46-6.21c-.2-1.74-.42-3.49-.67-5.25-.83-5.62-5.45-10.64-10.93-13.52-9.39-13.62-20.52-25.77-35.33-34.33-11.61-6.7-23.88-12.4-35.81-18.5-4.14-2.12-8.26-4.23-12.44-6.22a18.28,18.28,0,0,0,4.82-5.87c5-10,4.45-23.54,2-34.2-2.69-11.73-11.13-22-12-34.13-.51-7.3-12-7.36-11.44,0a42.83,42.83,0,0,0,1.21,7.43,4.32,4.32,0,0,0-3.27,3.9c-.91,6.34-1.7,12.72-2.62,19.07a5.46,5.46,0,0,0-4.8,1.59L69.53,234.84q-4.22,2.47-8.42,5l-.23.14a22.76,22.76,0,0,0-4.53.67c-2.19.57-4.48,3.1-4.2,5.52a.15.15,0,0,1,0,.07,19.91,19.91,0,0,0-3.12.6c-14.74,4.06-21.77,21.8-14,34.94a37.19,37.19,0,0,0,17.55,15.07,30,30,0,0,0,8.93,2.13c4,4.29,9,7.7,13.67,11.2,5,3.72,10,7.43,15.19,10.91a167.59,167.59,0,0,0,16.14,9.54c2.69,1.39,5.38,2.76,8,4.29,2,1.17,4.2,3.32,6.35,4.35-1.43-.75-1.89-1.74.32.14h0a3.68,3.68,0,0,0,.35.15l-.33-.13c.94.8,1.86,1.62,2.76,2.45,1.82,1.7,3.58,3.48,5.26,5.31s3.38,3.89,5,5.87l.14.2c.73,1,1.48,2,2.21,3.09a323,323,0,0,1,16.94,28.12,19,19,0,0,0,2.32,3.29,17.09,17.09,0,0,0-2.82,11.08c0,.11,0,.22,0,.33a22,22,0,0,0-5,14.1c-1.18,1.79-2.51,3.48-3.61,5.32a53.22,53.22,0,0,0-4.65,10.9c-.06.15-.14.35-.22.57l-.51.6c-.84.91-1.71,1.8-2.53,2.73a48.21,48.21,0,0,0-6.45,8.72,37.41,37.41,0,0,0-4.54,16.19,112.87,112.87,0,0,0-9.78,20c-2.18,5.86-4.09,12.4-3.66,18.69.45,6.58,2.67,12.92,7.28,17.77a24.48,24.48,0,0,0,2.13,2c2.47,5.46,6.24,9.29,11.32,12.61a17.43,17.43,0,0,0,3.76,1.83,27,27,0,0,0,5.84,3.71,21.48,21.48,0,0,0,7.34,4.42,24.39,24.39,0,0,0,5.39,3.06c.23.21.46.42.7.62h-.16a24.88,24.88,0,0,0-16.14,6.3,5.51,5.51,0,0,0-4.82.45c-.43.33-.89.65-1.33,1a33,33,0,0,0-13.25.94,16,16,0,0,0-6.17,3.46h0l-.66.06c-6.14-4.14-15-4.29-20.3,1.51a17,17,0,0,0-2.65,3.87c-5.11,1.16-6.83,9-1.57,10.74a13.8,13.8,0,0,0,4.22,7.63c2.84,2.6,5.59,5.27,8.28,8a14.75,14.75,0,0,0,1.44,3.29,50.43,50.43,0,0,0,9.38,11.74,64.35,64.35,0,0,0,5.81,4.59c.6.83,1.2,1.65,1.78,2.49a20.75,20.75,0,0,0,3.19,3.57,50.56,50.56,0,0,0,7.42,10.26c5.27,5.34,12,9.71,18,14.26q3.41,2.61,6.84,5.17a23,23,0,0,0,3,3.8A23.74,23.74,0,0,0,174.77,653a57.1,57.1,0,0,0,21.94,8.23,19.53,19.53,0,0,0,9.34,5.26c5.19,1.12,10.75,1.27,16.19,1.45a349.92,349.92,0,0,0,25.87,40.58,19.3,19.3,0,0,0-1.63,8.22A328.36,328.36,0,0,0,249,750.52c-1.05,1.8-2.1,3.6-3.17,5.37-4.51,7.47-8.35,15.59-7.59,24.57a63,63,0,0,0,2.19,11.38,140.55,140.55,0,0,0-7.86,16.47,12.77,12.77,0,0,0-.69,2.28,14.67,14.67,0,0,0-1.12,1.59c-4.1,7-1.31,15.26,5.13,19.56,8.33,5.55,18,8.8,27.6,11.33,1,1.29,7.52,1.6,9.1,2.36,28.61,13.71,46.58,9.41,84.83,11.43a150.43,150.43,0,0,0,50.06-6c7.73-2.35,15.57-4.78,22.89-8.22,3.27-1.53,7-1,10-3,1-.68,2.7.58,3.81,0,.09.07,3-1.93,3.81-1.91,7.45.94,10.72-9.71,10.41-16.76a14.23,14.23,0,0,0-3.86-9.53c-.32-5.08-1.71-10.48-2.48-15.43q-2-12.69-3.95-25.37c-1.65-10.58-3.6-21.12-7-31.18-.77-5.33-1.75-10.67-1.22-16.08a2.32,2.32,0,0,0-1.74-2.27q0-3.33-.24-6.66a239.91,239.91,0,0,0,32.83-47.68c.16,0,.32-.06.48-.11a54.63,54.63,0,0,0,7.79-3,55.75,55.75,0,0,1,12.41-1.7c8.43-.35,16.05-2.15,23.37-6.45,6.16-3.62,11.65-8.47,17.12-13s11.5-9.31,16.6-14.54a34.66,34.66,0,0,0,2.64-3c11-8.33,21.42-17.34,30.27-27.93a17.24,17.24,0,0,0,3.79-8,82.69,82.69,0,0,0,11.34-9.65c8.62-8.78,2.39-24.46-10.1-24.41-9.73,0-19.62-2-29.24-3.26l-23.92-3.1a38.78,38.78,0,0,0-.22-8.49,44.75,44.75,0,0,0,13.5-7.24c12.08-5.39,22.05-13.69,26.83-27a42.19,42.19,0,0,0-1-30.21,16.34,16.34,0,0,0-2.62-11c-2.93-4.52-5.18-6.16-7.86-10.07-.47-.68-.92-1.38-1.37-2.08-.47-1.12-1-2.24-1.56-3.35-1.26-2.44-2.85-4.67-4.34-7a61.17,61.17,0,0,1-3.51-8.36,16.2,16.2,0,0,0-5.95-8c-.46-1.27-.91-2.56-1.37-3.89-5-14.84-9.46-28.62-8.06-43.88a21.3,21.3,0,0,0,4.18-4.24c3.79-5,6.38-10.66,9.81-15.87,2.83-4.29,7.61-9.15,11.66-13.64,6.31-7,12.5-14.2,19.16-20.91,4.61,2.67,10.76,3.13,14.86.23l13.06-9.26a16.73,16.73,0,0,0,6.44-8.71c14-3.61,27.82-9.06,36.34-21.19C655.62,282,659.22,277,658.73,271.93Z"/><path class="cls-7" d="M134.87,350.52A298.23,298.23,0,0,0,46.13,563.18c0,139.78,95.88,257.18,225.46,290h0a301,301,0,0,0,160.86-3.74h0c2.73-.82,5.44-1.69,8.12-2.59l0,0c1.77-.59,3.51-1.19,5.26-1.82l.23-.08h0q7.81-2.81,15.43-6c107.49-45.37,182.93-151.76,182.93-275.76a298.33,298.33,0,0,0-91.64-215.49"/><path class="cls-20" d="M307.6,667.39a38,38,0,0,1-6.6-3.21c-2.28-1.39-4.38-3-6.8-4.21-4.82-2.31-10.13-3.64-15.21-5.23a2.1,2.1,0,0,0-1.24,0,2.38,2.38,0,0,0-1-.19c-2.79,0-3,3.93-.74,4.64a17,17,0,0,0,.3,1.71,2.11,2.11,0,0,0-.45,1.37,7.71,7.71,0,0,0,2.31,5.29,11.75,11.75,0,0,0,1,1.28,9.38,9.38,0,0,0,6.89,2.85h.35c1.58.28,3.23.4,4.81.52a75.38,75.38,0,0,0,11.64,0,2.47,2.47,0,0,0,1.77-.87c.56.23,1.12.45,1.69.66a2.41,2.41,0,0,0,2.93-1.67A2.44,2.44,0,0,0,307.6,667.39Z"/><path class="cls-20" d="M415.58,656.51a2.29,2.29,0,0,0-2.88-1.81l-8.44,2.23a28.48,28.48,0,0,0-7.77,2.82,47.39,47.39,0,0,0-5.95,4.92c-1.74,1.5-3.75,2.78-6.14,2.61a2.21,2.21,0,0,0-1.36.38c-2.59.46-2.44,4.71.46,4.71a2.3,2.3,0,0,0,1.22-.33c.26,0,.53,0,.79,0,2.91,0,5.82,0,8.73,0h.2a3.23,3.23,0,0,0,1.4.8c1.67.46,3.8-.18,5.49-.41,3.75-.49,7.56-1.16,10.6-3.6a9.77,9.77,0,0,0,3.76-8.32A2.52,2.52,0,0,0,415.58,656.51Z"/><path class="cls-21" d="M219.37,425c7-40.54-6.84-84.14-36-113.16-13.13-13.07-29.28-24-45.87-32.22-4.3-2.12-36.94-24.86-16.13,1.67,3.68,4.68,8.85,10.32,13.22,13.47a217.26,217.26,0,0,1,65.66,76.58A212.32,212.32,0,0,1,219.37,425Z"/><path class="cls-21" d="M475.61,425c-7-40.54,6.84-84.14,36-113.16,13.13-13.07,29.28-24,45.87-32.22,4.29-2.12,36.94-24.86,16.13,1.67-3.68,4.68-8.85,10.32-13.22,13.47a217.26,217.26,0,0,0-65.66,76.58A212.32,212.32,0,0,0,475.61,425Z"/><path class="cls-21" d="M609.68,242.56c2.42,2.36,5.26,4.5,8.59,5.11s7.2-.76,8.61-3.84c1.15-2.53.4-5.58-1.11-7.91s-3.71-4.13-5.74-6a58.24,58.24,0,0,1-13.49-19.35c-1.42-3.3-4-19.33-9.16-10.49-3.25,5.61-1,17,.69,22.74A44.52,44.52,0,0,0,609.68,242.56Z"/><path class="cls-21" d="M82.63,242.56c-2.42,2.36-5.26,4.5-8.59,5.11s-7.21-.76-8.61-3.84c-1.15-2.53-.41-5.58,1.11-7.91s3.71-4.13,5.74-6a58.38,58.38,0,0,0,13.49-19.35c1.42-3.3,4-19.33,9.15-10.49,3.26,5.61,1,17-.68,22.74A44.52,44.52,0,0,1,82.63,242.56Z"/><path class="cls-21" d="M588.43,571.92c3,.55,6.1,1.19,9,.2a9.16,9.16,0,0,0,5.95-8.07c.83-14.33-32.36-7.54-39-9.31-10.31-2.76-15.3-16.22-25.85-15.25-20.85,1.9-43.07,22.25-50,45.21C521.91,572.87,553.79,565.52,588.43,571.92Z"/><path class="cls-21" d="M103.3,571.92c-3,.55-6.09,1.19-9,.2a9.16,9.16,0,0,1-6-8.07c-.83-14.33,32.36-7.54,39-9.31,10.31-2.76,15.3-16.22,25.85-15.25,20.85,1.9,43.07,22.25,50,45.21C169.83,572.87,138,565.52,103.3,571.92Z"/><path class="cls-22" d="M478.22,648.88c-5.21,2.31-11,5-12.92,9.74-1.12,2.8-1,5.42,1.91,7.63,3.81,2.86,6.43,4.08,10.37,3.07C520,658.41,558.34,633,585.47,598.69c5.14-6.5,16.17-18,16.79-26.35-6.27.59-13.29,8.29-18.07,12.08-10.63,8.39-21.47,16.48-32.72,24A480.52,480.52,0,0,1,478.22,648.88Z"/><path class="cls-22" d="M212.2,648.88c5.21,2.31,11,5,12.92,9.74,1.12,2.8,1,5.42-1.9,7.63-3.81,2.86-6.44,4.08-10.37,3.07C170.45,658.41,132.09,633,105,598.69c-5.15-6.5-16.18-18-16.8-26.35,6.28.59,13.29,8.29,18.07,12.08,10.63,8.39,21.47,16.48,32.72,24A480.52,480.52,0,0,0,212.2,648.88Z"/><path class="cls-22" d="M312.84,723.52c-.1-6.89-.21-13.82-1.36-20.62s-3.38-13.53-7.4-19.14c-1.74-2.43-7.57-6.13-6.52-8.94.93-2.5,7.58-2.57,10.19-3.15a23.21,23.21,0,0,1,6.82-.85,8,8,0,0,1,6,3c1.7,2.38,1.42,5.59,1.07,8.49l-3.51,28.86c-.58,4.77-1.86,10.39-2.44,15.16-.26,2.08,0,8.58-2.61,8C311.85,733.92,312.9,727.07,312.84,723.52Z"/><path class="cls-22" d="M377.91,723.52c.11-6.89.21-13.82,1.36-20.62s3.38-13.53,7.4-19.14c1.74-2.43,7.57-6.13,6.53-8.94-.94-2.5-7.58-2.57-10.19-3.15a23.29,23.29,0,0,0-6.82-.85,8,8,0,0,0-6,3c-1.71,2.38-1.43,5.59-1.08,8.49l3.52,28.86c.58,4.77,1.48,10.39,2.06,15.16.25,2.08.38,8.58,3,8C378.9,733.92,377.86,727.07,377.91,723.52Z"/><path class="cls-22" d="M212.72,478.2c-10.29-1.21-20.65-2.6-30.43-6s-19-9-25.23-17.36a8.27,8.27,0,0,1-2-4.49c-.05-1.66,1.13-3.46,2.79-3.51a5.07,5.07,0,0,1,2.51.88,92.41,92.41,0,0,0,41.38,11.75c2.92.11,6,.12,8.59,1.43S215,465.29,214,468Z"/><path class="cls-22" d="M479.67,478.2c10.29-1.21,20.65-2.6,30.43-6s19.06-9,25.23-17.36a8.21,8.21,0,0,0,2-4.49c0-1.66-1.14-3.46-2.8-3.51a5.06,5.06,0,0,0-2.5.88,92.44,92.44,0,0,1-41.38,11.75c-2.93.11-6,.12-8.59,1.43s-4.62,4.41-3.61,7.16Z"/><path class="cls-22" d="M131.34,326.72c-13-12.06-29-20.28-45.3-27.21s-33.1-12.74-48.85-20.83c-3.53,2.56-2.64,8.43.5,11.45s7.63,4.05,11.79,5.35c18.94,5.94,34.42,19.36,50.91,30.41,10.14,6.79,20.85,12.79,30.38,20.42a78.29,78.29,0,0,1,14.63,15c1.28,1.78,2.79,6.16,5.34,6.06,3.38-.14,2.68-3.91,2.35-5.92C151,348.38,140.71,335.44,131.34,326.72Z"/><path class="cls-22" d="M560.18,326.72c13-12.06,29-20.28,45.31-27.21s33.09-12.74,48.85-20.83c3.53,2.56,2.63,8.43-.51,11.45s-7.62,4.05-11.78,5.35c-18.94,5.94-34.42,19.36-50.91,30.41-10.14,6.79-20.85,12.79-30.38,20.42a78,78,0,0,0-14.63,15c-1.29,1.78-2.79,6.16-5.35,6.06-3.37-.14-2.68-3.91-2.35-5.92C540.56,348.38,550.82,335.44,560.18,326.72Z"/><path class="cls-22" d="M405.11,727.46c1.86,18.18,3.68,36.88-1.3,54.47s-18.42,34-36.46,37c1.69-4,1.81-11.83,5.5-15.42s8.17-4.4,12.34-7.42c16.08-11.63,16.25-20.22,18.16-41.19C404.13,746.34,404.3,736.78,405.11,727.46Z"/><path class="cls-22" d="M286.35,727.46c-1.86,18.18-3.68,36.88,1.3,54.47s18.42,34,36.46,37c-1.69-4-1.81-11.83-5.5-15.42s-8.17-4.4-12.33-7.42c-16.09-11.63-16.26-20.22-18.17-41.19C287.33,746.34,287.16,736.78,286.35,727.46Z"/><path class="cls-21" d="M327.69,821.49a28.75,28.75,0,0,0,8.84,1.69c7.34.62,14.77,1.24,22,0,2.92-.52,5.9-1.4,8-3.42,3-2.78,3.77-7.1,4.42-11.11.28-1.71.48-3.7-.72-5-.75-.78-4-1.85-5.06-2.08-11.11-2.43-20.39-2.61-31.75-2.11a23.08,23.08,0,0,0-8.42,1.51c-2.63,1.15-4.13,1.58-4.63,4.41C319.48,810.71,322.88,819.48,327.69,821.49Z"/><path class="cls-22" d="M578.31,273.12a73.89,73.89,0,0,0,18.5-8.05c1.24-.75,2.62-1.84,2.48-3.29a3,3,0,0,0-2.55-2.33,26.67,26.67,0,0,0-3.69-.12,17.35,17.35,0,0,1-5.77-1.7,17.89,17.89,0,0,0-5.76-1.72,6,6,0,0,0-5.34,2.22c-1.14,1.66-.77,4.33,1,5.22"/><path class="cls-22" d="M113.31,273.12a74.12,74.12,0,0,1-18.51-8.05c-1.23-.75-2.61-1.84-2.47-3.29a3,3,0,0,1,2.54-2.33,26.87,26.87,0,0,1,3.7-.12,17.42,17.42,0,0,0,5.77-1.7,17.89,17.89,0,0,1,5.76-1.72,6,6,0,0,1,5.33,2.22c1.15,1.66.78,4.33-1,5.22"/><g id="direita-6" data-name="direita"><path class="cls-23" d="M461.53,828c-5-21.55-18.46-81.78-20.08-115.76,20-22,27.94-43.89,27.94-43.89s36.95,2,82.14-37.28h0c17.81-15.5,36.91-37.44,55.52-68.46-47.88-20-79.8-16-79.8-16s69.83-20,47.88-73.82C547.2,418.9,539.22,403,539.22,403s-16-37.92,43.89-75.82c61.86-31.92,75.82-33.92,77.81-55.86S623,235.35,623,235.35s-29.93-12-18-53.87l2-8s-45.89,43.89-29.92,83.8l4,10s-75.82,29.93-93.77,73.82-20,77.81-8,121.71l4,10s-11,1.28-27.46,7.12c-29.58,10.48-76.88,35.68-110.2,94.63"/><path class="cls-24" d="M437.37,656.6a50.37,50.37,0,0,0-19.29-1.45,52.37,52.37,0,0,0-18.22,5.59,34.7,34.7,0,0,0-4,2.44l-1.95,1.45c-.71.55-1.43,1-2.15,1.47-2.9,1.85-5.87,3.39-8.83,4.95s-6,3-9,4.35-6.13,2.53-9.32,3.59l-9.31,3.07,6.08-7.57c.23-.29.59-.74.88-1.16s.6-.86.89-1.3c.58-.9,1.15-1.82,1.66-2.77a48.78,48.78,0,0,0,2.83-5.92c.42-1,.8-2.06,1.15-3.11s.71-2.12,1-3.21c.66-2.16,1.06-4.39,1.55-6.67h.57a35.29,35.29,0,0,1,.51,7,38.89,38.89,0,0,1-.85,7.12,42,42,0,0,1-2.12,6.94c-.46,1.12-1,2.23-1.55,3.33-.3.54-.58,1.08-.91,1.62a18.24,18.24,0,0,1-1.1,1.67l-3.23-4.5c3-1.22,6-2.43,9.07-3.59s6.11-2.26,9.1-3.5a82.69,82.69,0,0,0,8.7-4.12c.68-.39,1.37-.77,2-1.2l1-.64c.36-.25.73-.5,1.1-.73a37.63,37.63,0,0,1,4.59-2.46,53.29,53.29,0,0,1,19.71-4.48,49.57,49.57,0,0,1,19.65,3.2Z"/><path class="cls-25" d="M378.57,671s43.91,11.71,37.17-15.25"/><path d="M344.69,749.11s23.94-12,29.93,2-12,21.95-12,21.95-6,15.39-17,18.67C344.69,761.08,344.69,749.11,344.69,749.11Z"/><polygon class="cls-26" points="371.36 674.03 376.61 733.14 365.7 674.82 371.36 674.03"/><path class="cls-27" d="M345.47,796.35a62.79,62.79,0,0,1,7,.11,67.08,67.08,0,0,1,6.91.81,55.21,55.21,0,0,1,6.85,1.69,34.69,34.69,0,0,1,6.57,3l-2.48.06c4.12-2.63,8.4-4.91,12.48-7.27a38.09,38.09,0,0,0,10.69-8.43,32.71,32.71,0,0,0,6-12.19l.5-1.68.37-1.71c.23-1.15.52-2.29.71-3.46.32-2.33.78-4.65.95-7,.51-4.71.79-9.51,1.17-14.28s.72-9.54,1.14-14.32.88-9.55,1.72-14.28a40.86,40.86,0,0,1,1.87-7,23.72,23.72,0,0,1,3.57-6.22,23.38,23.38,0,0,0-3.3,6.32,41.13,41.13,0,0,0-1.57,7c-.64,4.72-.9,9.5-1.14,14.27s-.39,9.56-.55,14.34-.27,9.55-.6,14.38c-.08,2.41-.45,4.81-.68,7.22-.15,1.21-.4,2.41-.6,3.61l-.31,1.8-.45,1.79a35.56,35.56,0,0,1-6.09,13.59c-3.07,4.09-7.22,7.16-11.3,9.75s-8.19,5-12,7.66l-1.13.8-1.35-.74a29.63,29.63,0,0,0-5.65-2.31,48.16,48.16,0,0,0-6.17-1.26c-2.11-.27-4.24-.43-6.37-.49s-4.76-.06-6.76.1Z"/></g><g id="esquerda-6" data-name="esquerda"><path class="cls-28" d="M345.69,574.53c-33.55-59.36-81.28-84.49-110.82-94.85-16.14-5.66-26.85-6.9-26.85-6.9l4-10c12-43.9,10-77.81-8-121.71s-93.77-73.82-93.77-73.82l4-10c16-39.91-29.93-83.8-29.93-83.8l2,8c12,41.9-18,53.87-18,53.87s-39.91,14-37.91,35.92,16,23.94,77.81,55.86C168.12,365,152.15,403,152.15,403s-8,15.95-35.91,69.83c-21.95,53.87,47.88,73.82,47.88,73.82s-31.91-4-79.8,16c18.32,30.53,37.11,52.26,54.67,67.72,45.58,40.1,83,38,83,38s8,21.94,27.93,43.89c-1.64,34.27-15.29,95.26-20.19,116.31"/><path class="cls-29" d="M253.82,656.06a49.57,49.57,0,0,1,19.65-3.2,53.38,53.38,0,0,1,19.71,4.48,38.26,38.26,0,0,1,4.58,2.46c.38.23.74.48,1.11.73l1,.64c.62.43,1.31.81,2,1.2a82.52,82.52,0,0,0,8.69,4.12c3,1.24,6.06,2.35,9.1,3.5s6.09,2.37,9.07,3.59l-3.22,4.5a18.24,18.24,0,0,1-1.1-1.67c-.33-.54-.62-1.08-.92-1.62-.56-1.1-1.08-2.21-1.54-3.33a40.2,40.2,0,0,1-2.12-6.94,38,38,0,0,1-.85-7.12,36,36,0,0,1,.5-7H320c.49,2.28.88,4.51,1.54,6.67.27,1.09.62,2.15,1,3.21s.73,2.09,1.15,3.11a48.78,48.78,0,0,0,2.83,5.92c.52,1,1.09,1.87,1.66,2.77.3.44.59.89.9,1.3s.65.87.88,1.16l6.07,7.57-9.3-3.07c-3.19-1.06-6.27-2.25-9.32-3.59s-6-2.83-9-4.35-5.94-3.1-8.83-4.95c-.72-.46-1.45-.92-2.16-1.47l-1.95-1.45a34.57,34.57,0,0,0-4-2.44,52.42,52.42,0,0,0-18.23-5.59A50.38,50.38,0,0,0,254,656.6Z"/><path d="M346.69,749.11s-23.95-12-29.93,2,12,21.95,12,21.95,6,15.39,17,18.67C346.69,761.08,346.69,749.11,346.69,749.11Z"/><polygon class="cls-30" points="325.68 674.82 314.76 733.14 320.01 674.03 325.68 674.82"/><path class="cls-31" d="M345.56,802c-2-.16-4.31-.15-6.42-.1s-4.27.22-6.38.49a48.52,48.52,0,0,0-6.17,1.26,29.9,29.9,0,0,0-5.65,2.31l-1.34.74-1.14-.8c-3.84-2.68-7.91-5.07-12-7.66a41.73,41.73,0,0,1-11.31-9.75A35.86,35.86,0,0,1,289,774.9l-.45-1.79-.31-1.8c-.2-1.2-.45-2.4-.59-3.61-.24-2.41-.61-4.81-.69-7.22-.32-4.83-.41-9.59-.59-14.38s-.33-9.56-.56-14.34-.49-9.55-1.14-14.27a39.28,39.28,0,0,0-1.57-7,23.35,23.35,0,0,0-3.29-6.32,23.41,23.41,0,0,1,3.56,6.22,40,40,0,0,1,1.87,7c.85,4.73,1.3,9.51,1.73,14.28s.77,9.55,1.13,14.32.66,9.57,1.18,14.28c.17,2.37.62,4.69.95,7,.19,1.17.47,2.31.71,3.46l.37,1.71.49,1.68a32.71,32.71,0,0,0,6,12.19,38.09,38.09,0,0,0,10.69,8.43c4.08,2.36,8.37,4.64,12.49,7.27l-2.48-.06a34.41,34.41,0,0,1,6.57-3,55.06,55.06,0,0,1,6.84-1.69,67.4,67.4,0,0,1,6.91-.81,62.87,62.87,0,0,1,7-.11Z"/></g><path class="cls-25" d="M312.56,671s-43.91,11.71-37.17-15.25"/><line class="cls-32" x1="551.53" y1="631.03" x2="551.53" y2="631.02"/><path d="M371.42,804a12.93,12.93,0,0,1,.85,4.81,17.2,17.2,0,0,1-.66,4.73,14.58,14.58,0,0,1-2,4.43,8.08,8.08,0,0,1-3.87,3.18c.49-1.65.8-3,1.15-4.45s.69-2.8,1.09-4.2.85-2.8,1.39-4.22A24,24,0,0,1,371.42,804Z"/><path d="M320,804a24.12,24.12,0,0,1,2.1,4.28c.53,1.42,1,2.83,1.38,4.22s.73,2.8,1.09,4.2.66,2.8,1.15,4.45a8.1,8.1,0,0,1-3.86-3.18,14.12,14.12,0,0,1-2-4.43,16.83,16.83,0,0,1-.66-4.73A12.72,12.72,0,0,1,320,804Z"/></g></g></g></g></svg>