<svg xmlns="http://www.w3.org/2000/svg" xmlns:xlink="http://www.w3.org/1999/xlink" viewBox="0 0 1332.6 685.63"><defs><style>.cls-1{isolation:isolate;}.cls-2{fill:#fff;}.cls-3{fill:url(#Gradiente_sem_nome_5);}.cls-4{fill:url(#Gradiente_sem_nome_5-2);}.cls-5{fill:url(#Gradiente_sem_nome_5-3);}.cls-6{fill:url(#Gradiente_sem_nome_5-4);}.cls-7{fill:url(#Gradiente_sem_nome_5-5);}.cls-10,.cls-11,.cls-12,.cls-22,.cls-23,.cls-24,.cls-25,.cls-26,.cls-27,.cls-28,.cls-29,.cls-30,.cls-31,.cls-8,.cls-9{stroke:#000;}.cls-10,.cls-12,.cls-13,.cls-14,.cls-15,.cls-17,.cls-22,.cls-27,.cls-30,.cls-8,.cls-9{stroke-miterlimit:10;}.cls-10,.cls-11,.cls-12,.cls-13,.cls-14,.cls-15,.cls-16,.cls-17,.cls-8,.cls-9{stroke-width:30px;}.cls-8{fill:url(#Gradiente_sem_nome_5-81);}.cls-11,.cls-12,.cls-14,.cls-16,.cls-17,.cls-22,.cls-24,.cls-27,.cls-31,.cls-9{fill:none;}.cls-11,.cls-14,.cls-16,.cls-22,.cls-23,.cls-24,.cls-25,.cls-31,.cls-9{stroke-linecap:round;}.cls-11,.cls-16,.cls-23,.cls-24,.cls-26,.cls-28,.cls-31{stroke-linejoin:bevel;}.cls-13,.cls-14,.cls-15,.cls-16,.cls-17{stroke:#fff;}.cls-13{fill:url(#Gradiente_sem_nome_5-82);}.cls-18{fill:#0a1920;}.cls-19{fill:#efc12e;}.cls-20,.cls-21{fill:#23113f;}.cls-20{opacity:0.7;mix-blend-mode:screen;}.cls-21{mix-blend-mode:overlay;}.cls-22,.cls-27{stroke-width:10px;}.cls-23,.cls-25,.cls-28,.cls-29,.cls-31{stroke-width:4px;}.cls-24{stroke-width:6px;}.cls-25,.cls-29{stroke-linejoin:round;}.cls-26,.cls-30{stroke-width:2px;}</style><linearGradient id="Gradiente_sem_nome_5" x1="862.06" y1="483.88" x2="862.06" y2="224.93" gradientUnits="userSpaceOnUse"><stop offset="0" stop-color="#efc12e"/><stop offset="1" stop-color="#ff5240"/></linearGradient><linearGradient id="Gradiente_sem_nome_5-2" x1="989.25" y1="461.56" x2="989.25" y2="224.93" xlink:href="#Gradiente_sem_nome_5"/><linearGradient id="Gradiente_sem_nome_5-3" x1="1117.36" y1="461.56" x2="1117.36" y2="224.93" xlink:href="#Gradiente_sem_nome_5"/><linearGradient id="Gradiente_sem_nome_5-4" x1="1244.52" y1="483.88" x2="1244.52" y2="224.93" xlink:href="#Gradiente_sem_nome_5"/><linearGradient id="Gradiente_sem_nome_5-5" x1="289.59" y1="670.63" x2="289.59" y2="46.69" xlink:href="#Gradiente_sem_nome_5"/><linearGradient id="Gradiente_sem_nome_5-81" x1="41.27" y1="409.45" x2="538.69" y2="409.45" xlink:href="#Gradiente_sem_nome_5"/><linearGradient id="Gradiente_sem_nome_5-82" x1="28.8" y1="409.45" x2="551.16" y2="409.45" xlink:href="#Gradiente_sem_nome_5"/></defs><title>logo-h</title><g class="cls-1"><g id="Camada_2" data-name="Camada 2"><g id="Camada_2-2" data-name="Camada 2"><g id="preto"><g id="vertical"><g id="laranja"><path class="cls-2" d="M774,191.74H883.78l85,.34,3.33,1.81a16.42,16.42,0,0,1,8.94,16.55c-1.38,11.1-12.5,14.79-17.25,16.36s-10.46,3-16.11,4.49l-1.46.38,0,15.29-.55,199.59,0,11.16c6.42,2.69,12.18,6.8,13.48,14.78.52,3.17.79,11.23-8,17.45L948.27,492,887.9,501.1l-4,.69c-11.32,1.89-22.69,4-33.85,6.24-5.5,1.11-11,2.27-16.48,3.46-6.72,1.47-13.55,3-20.29,4.66L774,525.58Z"/><path d="M789,206.74h94.78l81.19.32c11,6-55.1,13.77-42.75,20.23l9,4.74,0,14.9-.55,199.58v9.1l-7.62,5c-11.74,7.67,30.53,9.23,19.44,17.13l-57,8.57-4.15.72c-11.44,1.91-23,4-34.27,6.31-5.53,1.12-11.15,2.3-16.72,3.52-6.85,1.5-13.78,3.09-20.59,4.72l-20.79,5Z"/><path class="cls-2" d="M902.85,191.74h172.23L1075,487.48l-31.54.31c-12.42.12-25,.46-37.42,1-10.33.47-20.81,1.11-31.15,1.9-12.4.95-25,2.14-37.31,3.54l-35.54,4Z"/><path d="M917.81,206.74h142.27L1060,472.63l-16.69.16c-12.61.12-25.38.47-38,1-10.5.49-21.13,1.14-31.61,1.94-12.57,1-25.3,2.17-37.85,3.59l-18.81,2.13Z"/><path class="cls-2" d="M1204.57,498.3l-35.54-4c-12.35-1.4-24.9-2.59-37.31-3.54-10.35-.79-20.83-1.43-31.14-1.9-12.42-.58-25-.92-37.43-1l-31.54-.31,0-139.58h12.28l-12.27-6.34,0-22.67,0-127.11,31.86,0h140.37l.34,125.67-1.69,7.32,1.76,1v19.57Zm-143-40.53,1.84,0c12.78.12,25.74.48,38.52,1.07,10.61.49,21.39,1.15,32,2,12.77,1,25.69,2.2,38.4,3.64l2.07.24L1174.16,343l-.92-.54c.29.17.6.32.92.47v-3.11c-3.7,4.14-3.91,9.28-3.32,11.4-.13-.45-.46-1.3-.86-2.26a7.44,7.44,0,0,0,.21,1.24c-.08-.27-.37-1.05-.56-1.56-.29-.75-.63-1.66-1-2.7l-.31-.71c-1.13-2.53-2.29-5.15-3.13-7.53-3.65-10.33,0-16.45,3.71-19.77a15.62,15.62,0,0,1,5-3l.2-.88-.25-92.29h-112.3l0,101.54,1,.52-1,1.93v6.67h-3.45l-8,15.49h11.46Z"/><path d="M1055.68,337.12l-9.11-4.7V318.86l0-112.11h142.27l.3,109-5,21.52c-5.6-.2,4.69,12.35-.93,12.18,9,5.06-10.77-24.85-2.38-19.94l8.35,4.88v11l.37,136.18-18.81-2.13c-12.54-1.42-25.27-2.63-37.85-3.59-10.49-.8-21.12-1.46-31.61-1.94-12.59-.58-25.36-.93-38-1l-16.69-.16,0-124.74"/><path class="cls-2" d="M1332.6,525.58l-39.29-9.43c-12.13-2.92-24.5-5.65-36.77-8.12l-15.32-3.09-15.48-2.64c-12.27-2.09-24.76-4-37.11-5.62L1161,493l-.83-301.28H1332.6V343.26h-30V221.74H1190.29l.67,245,1.61.21c12.72,1.69,25.58,3.64,38.2,5.79l30.23,5.14v.45l1.47.3c12.62,2.55,25.36,5.36,37.84,8.35l2.29.55V345h30Z"/><path d="M1317.6,345V506.55l-20.79-5c-12.31-3-24.86-5.73-37.31-8.24L1246,490.6v-.07l-17.74-3c-12.47-2.13-25.14-4-37.66-5.71l-14.6-1.93-.75-273.14H1317.6V343.26"/><path d="M789,206.74h94.78l81.19.32c11,6-55.1,13.77-42.75,20.23l9,4.74,0,14.9-.55,199.58v9.1l-7.62,5c-11.74,7.67,30.53,9.23,19.44,17.13l-57,8.57-4.15.72c-11.44,1.91-23,4-34.27,6.31-5.53,1.12-11.15,2.3-16.72,3.52-6.85,1.5-13.78,3.09-20.59,4.72l-20.79,5Z"/><path d="M917.81,206.74h142.27L1060,472.63l-16.69.16c-12.61.12-25.38.47-38,1-10.5.49-21.13,1.14-31.61,1.94-12.57,1-25.3,2.17-37.85,3.59l-18.81,2.13Z"/><path d="M1055.68,337.12l-9.11-4.7V318.86l0-112.11h142.27l.3,109-5,21.52c-5.6-.2,4.69,12.35-.93,12.18,9,5.06-10.77-24.85-2.38-19.94l8.35,4.88v11l.37,136.18-18.81-2.13c-12.54-1.42-25.27-2.63-37.85-3.59-10.49-.8-21.12-1.46-31.61-1.94-12.59-.58-25.36-.93-38-1l-16.69-.16,0-124.74"/><path d="M1317.6,345V506.55l-20.79-5c-12.31-3-24.86-5.73-37.31-8.24L1246,490.6v-.07l-17.74-3c-12.47-2.13-25.14-4-37.66-5.71l-14.6-1.93-.75-273.14H1317.6V343.26"/><path class="cls-3" d="M881.23,224.93q17.28,9.42,34.56,18.44c0,.62,0,1.23,0,1.84V248q0,16.91-.1,33.8c0,1.54,0,3.08,0,4.61q0,12-.07,24l-.18,68.23q0,12.14-.07,24.27c0,1.54,0,3.08,0,4.61q0,16.75-.1,33.5V444c0,.51,0,1,0,1.54q-17.34,11.34-34.62,23.61l-.33.06q-17.25,2.88-34.42,6.35-8.42,1.69-16.82,3.53-10.37,2.26-20.71,4.75V224.93h72.9Zm-3.72,157.34q.09-34.92.17-69.86.06-22.65.11-45.31c-3.87-2-7.75-4-11.62-6l-19.95.56-.3,177.21q9.93-1.71,19.86-3.25,5.81-4.06,11.62-8Q877.46,404.93,877.51,382.27Z"/><path class="cls-4" d="M1043.25,454.94q-19.11.18-38.2,1.06-15.91.74-31.8,1.95-19.05,1.46-38.07,3.61l.09-34.67.54-202h37.94l-.42,198.87q15.87-1,31.77-1.66l.27-197.21h37.95l-.06,196.3Q1043.24,438.09,1043.25,454.94Z"/><path class="cls-5" d="M1170.79,224.93q0,17.34.1,34.67,0,19.62.1,39.24-19-.68-38-1.13,0-19.32-.08-38.63-15.83-.18-31.64-.29l.06,46.63c23.26,12.35,46.53,25.14,69.77,38.74,0,.4,0,.81,0,1.21v2.13l.09,31.33v3l.12,45q.06,17.33.1,34.67-19-2.16-38.08-3.61-15.88-1.23-31.8-1.95-19.08-.88-38.19-1.06,0-16.86,0-33.71,0-28.23,0-56.46,19.05.11,38.1.64,0,28.36.08,56.73,15.88.63,31.76,1.66l-.12-57.8q5.85.27,11.68.58l-.67-.34q-5.51-3.14-11-6.23c-23.28-13.12-46.57-25.5-69.83-37.52v-3.25q0-15.23,0-30.45V258.63q0-16.84,0-33.7h107.5Z"/><path class="cls-6" d="M1298.27,332.77q-9.11,4.26-18.2,8.42,9.11,6.15,18.2,12.55V483.88q-18.7-4.49-37.53-8.28-.08-49.47-.16-98.92,5.79.7,11.58,1.45l-.66-.41q-5.46-3.78-10.93-7.48-15.77-10.69-31.56-20.69l.3,120.2q-18.9-3.21-37.89-5.73-.18-68.83-.38-137.68c0-1.12,0-2.25,0-3.38q0-15.82-.08-31.65c0-1,0-2.05,0-3.07l-.18-63.31h38l.21,85.28q15.81,9.59,31.58,19.76-.09-52.53-.17-105h37.94Z"/></g></g><g id="preto-2" data-name="preto"><circle class="cls-7" cx="289.98" cy="409.45" r="248.71"/><g id="direita"><path class="cls-7" d="M385.88,629.56c-4.17-17.91-15.34-68-16.68-96.23,16.59-18.25,23.22-36.49,23.22-36.49s30.72,1.7,68.28-31h0c14.81-12.89,30.69-31.13,46.16-56.91-39.81-16.6-66.34-13.28-66.34-13.28s58.05-16.58,39.81-61.36c-23.23-44.79-29.86-58.05-29.86-58.05s-13.27-31.52,36.49-63c51.42-26.53,63-28.2,64.68-46.44s-31.51-29.86-31.51-29.86S495.25,127,505.2,92.14l1.66-6.63S468.71,122,482,155.17l3.32,8.29s-63,24.88-77.95,61.37S390.76,289.51,400.72,326l3.31,8.3s-9.13,1.06-22.83,5.92c-24.59,8.71-63.91,29.66-91.61,78.67"/><path class="cls-7" d="M365.81,487.11a41.87,41.87,0,0,0-16-1.21,43.53,43.53,0,0,0-15.15,4.65,28.85,28.85,0,0,0-3.3,2l-1.63,1.21c-.59.45-1.19.83-1.79,1.22-2.4,1.53-4.87,2.82-7.34,4.11s-4.95,2.5-7.48,3.62-5.1,2.1-7.75,3l-7.73,2.56,5-6.3c.19-.24.49-.62.73-1s.5-.72.74-1.09c.48-.74.95-1.51,1.38-2.3a41.86,41.86,0,0,0,2.36-4.91c.34-.85.66-1.72.95-2.59s.59-1.77.82-2.67c.54-1.8.87-3.65,1.28-5.55h.48a29.43,29.43,0,0,1,.42,5.87,32.12,32.12,0,0,1-.71,5.92,33.83,33.83,0,0,1-1.76,5.76c-.38.94-.82,1.86-1.28,2.77-.25.45-.49.9-.77,1.35a14.79,14.79,0,0,1-.91,1.39l-2.68-3.74c2.48-1,5-2,7.54-3s5.07-1.88,7.56-2.91A66.63,66.63,0,0,0,326,491.9c.57-.32,1.14-.64,1.66-1l.82-.53c.3-.21.61-.42.92-.61a31.08,31.08,0,0,1,3.81-2A44.17,44.17,0,0,1,349.62,484,41.14,41.14,0,0,1,366,486.66Z"/><path class="cls-7" d="M316.92,499.09s36.5,9.74,30.9-12.68"/><path class="cls-7" d="M288.76,564s19.9-10,24.88,1.66-9.95,18.24-9.95,18.24-5,12.8-14.1,15.52C288.76,574,288.76,564,288.76,564Z"/><polygon class="cls-7" points="310.93 501.6 315.3 550.74 306.22 502.25 310.93 501.6"/><path class="cls-7" d="M289.41,603.28a56.31,56.31,0,0,1,5.83.09q2.88.2,5.75.68a42.59,42.59,0,0,1,5.69,1.41,28,28,0,0,1,5.46,2.51l-2.06,0c3.43-2.19,7-4.09,10.38-6a31.57,31.57,0,0,0,8.88-7,27,27,0,0,0,5-10.13l.41-1.39.31-1.43c.19-1,.43-1.9.59-2.87.27-1.95.65-3.87.79-5.84.42-3.91.66-7.91,1-11.87s.6-7.94.95-11.9.73-7.94,1.43-11.88a33.76,33.76,0,0,1,1.55-5.78,19.87,19.87,0,0,1,3-5.18,19.54,19.54,0,0,0-2.74,5.26,32.46,32.46,0,0,0-1.3,5.78c-.54,3.93-.76,7.89-.95,11.86s-.32,7.94-.46,11.92-.23,7.94-.5,12c-.07,2-.37,4-.57,6-.12,1-.33,2-.49,3l-.26,1.5-.37,1.48a30,30,0,0,1-5.06,11.3,35,35,0,0,1-9.4,8.11c-3.42,2.15-6.81,4.14-10,6.37l-1,.65-1.11-.6a24.67,24.67,0,0,0-4.7-1.93,41.25,41.25,0,0,0-5.13-1.05c-1.75-.22-3.52-.35-5.3-.4a48,48,0,0,0-5.26.12Z"/></g><g id="esquerda"><path class="cls-7" d="M289.59,418.89C261.7,369.54,222,348.65,197.47,340c-13.42-4.71-22.32-5.74-22.32-5.74l3.31-8.3c9.95-36.49,8.29-64.68-6.63-101.17s-78-61.37-78-61.37l3.32-8.29C110.46,122,72.31,85.51,72.31,85.51L74,92.14C83.92,127,59,136.92,59,136.92s-33.17,11.62-31.51,29.86,13.27,19.91,64.69,46.44c49.75,31.51,36.48,63,36.48,63s-6.63,13.26-29.85,58.05c-18.25,44.78,39.8,61.36,39.8,61.36s-26.53-3.32-66.34,13.28c15.23,25.37,30.85,43.44,45.45,56.29,37.89,33.34,69,31.61,69,31.61s6.64,18.24,23.23,36.49c-1.37,28.49-12.71,79.19-16.79,96.69"/><path class="cls-7" d="M213.22,486.66A41.12,41.12,0,0,1,229.55,484a44.22,44.22,0,0,1,16.39,3.73,31.83,31.83,0,0,1,3.81,2c.31.19.61.4.92.61l.81.53c.52.35,1.09.67,1.66,1a66.63,66.63,0,0,0,7.23,3.43c2.49,1,5,2,7.57,2.91s5.06,2,7.54,3L272.79,505c-.38-.53-.63-.93-.91-1.39s-.51-.9-.76-1.35c-.47-.91-.9-1.83-1.28-2.77a33.87,33.87,0,0,1-1.77-5.76,32.1,32.1,0,0,1-.7-5.92,29.43,29.43,0,0,1,.42-5.87h.47c.41,1.9.74,3.75,1.29,5.55.22.9.51,1.79.81,2.67s.61,1.74,1,2.59a41.8,41.8,0,0,0,2.35,4.91c.43.79.9,1.56,1.38,2.3.25.37.49.74.75,1.09s.54.72.73,1l5.05,6.3-7.74-2.56c-2.65-.88-5.21-1.87-7.74-3s-5-2.35-7.49-3.62-4.93-2.58-7.34-4.11c-.6-.39-1.2-.77-1.79-1.22l-1.62-1.21a29,29,0,0,0-3.31-2,43.54,43.54,0,0,0-15.14-4.65,41.87,41.87,0,0,0-16,1.21Z"/><path class="cls-7" d="M290.42,564s-19.91-10-24.88,1.66,9.95,18.24,9.95,18.24,5,12.8,14.1,15.52C290.42,574,290.42,564,290.42,564Z"/><polygon class="cls-7" points="272.95 502.25 263.88 550.74 268.25 501.6 272.95 502.25"/><path class="cls-7" d="M289.41,608a48.21,48.21,0,0,0-5.27-.12c-1.77.05-3.55.18-5.3.4a41.63,41.63,0,0,0-5.13,1.05,24.58,24.58,0,0,0-4.69,1.93l-1.12.6-.94-.65c-3.2-2.23-6.59-4.22-10-6.37a34.81,34.81,0,0,1-9.4-8.11,29.64,29.64,0,0,1-5.06-11.3l-.37-1.48-.27-1.5c-.16-1-.37-2-.49-3-.19-2-.5-4-.57-6-.27-4-.34-8-.49-12s-.28-8-.46-11.92-.41-7.93-.95-11.86a33.38,33.38,0,0,0-1.31-5.78,19.26,19.26,0,0,0-2.74-5.26,19.59,19.59,0,0,1,3,5.18,32.87,32.87,0,0,1,1.55,5.78c.71,3.94,1.08,7.91,1.44,11.88s.64,7.93.94,11.9.55,8,1,11.87c.14,2,.52,3.89.78,5.84.16,1,.4,1.91.6,2.87l.3,1.43.42,1.39a27.18,27.18,0,0,0,5,10.13,31.76,31.76,0,0,0,8.89,7c3.39,2,6.95,3.86,10.38,6L267,608a27.78,27.78,0,0,1,5.47-2.51,42.07,42.07,0,0,1,5.68-1.41q2.86-.48,5.75-.68a56.46,56.46,0,0,1,5.84-.09Z"/></g><path class="cls-7" d="M115,232.66A248,248,0,0,0,41.27,409.45c0,116.2,79.71,213.8,187.43,241.1h0a250.31,250.31,0,0,0,133.72-3.11h0c2.26-.69,4.52-1.41,6.75-2.16h0c1.46-.5,2.91-1,4.36-1.52l.2-.07h0c4.34-1.55,8.6-3.21,12.83-5C476,601,538.69,512.53,538.69,409.45a248,248,0,0,0-76.18-179.14"/><path class="cls-7" d="M290,670.63a261.17,261.17,0,1,1,184.69-76.5A259.47,259.47,0,0,1,290,670.63Z"/><path class="cls-7" d="M373.74,632.39c-4.65-19.95-15.62-69.47-17-98.47l-.24-5.16,3.47-3.82a112.61,112.61,0,0,0,20.74-32.4l3.28-8.83,9.06.68c1.87.05,26.81,0,58.5-27.11l1-.84c12.56-10.93,24.48-24.75,35.56-41.19-27.89-9.08-45.81-7.24-46-7.21l-5-24.37c6.76-2,25.78-10,32.12-23.12,3-6.17,2.9-13.06-.24-21.05-22.78-43.93-29.39-57.13-29.66-57.68l-.34-.73c-.71-1.69-16.7-41.67,41.31-78.4l.46-.3.49-.25c9.89-5.11,18.16-9.22,25.46-12.85,30.63-15.23,31.89-16.7,32.52-23.63.39-4.2-11.34-12.76-23.23-17l-.49-.18c-6.8-2.72-16.12-9.74-21.28-21.65-2.77,7.93-3.65,16.21-.66,23.69l8,19.92-11.65,4.6c-16.16,6.41-60.44,28.69-71,54.49-13.71,33.51-15.44,58.65-6.33,92.5l9.09,22.75-16.18,1.89a106.22,106.22,0,0,0-20.1,5.28c-24.89,8.82-59.83,28.66-84.93,73l-21.71-12.27c28.89-51.11,69.41-74,98.31-84.28,3.87-1.38,7.42-2.48,10.55-3.35-9.55-37.63-7.15-67.45,8.22-105,12.7-31.06,53.41-53.65,73.53-63.21-13.16-39.57,27.14-78.72,28.9-80.4L529.4,46.7,517.19,95.57C511,117.19,522,124,524.79,125.34c6.25,2.27,41.66,16.32,39.27,42.58-2,21.69-14.93,28.13-46.26,43.71-7.09,3.52-15.12,7.51-24.63,12.42-36.64,23.39-32.09,44.31-31.2,47.31,1.64,3.25,9.36,18.49,29.43,57.2l.26.51.21.52c6,14.75,5.92,29.24-.25,41.94a55.84,55.84,0,0,1-11.53,15.61,201,201,0,0,1,31.57,10.29L525,403l-7.43,12.37c-13.44,22.4-28.35,41.23-44.38,56.06v.11l-4.28,3.74c-29,25.26-55,31.85-68.11,33.51A142.51,142.51,0,0,1,382,537.65c2.29,28.48,12.75,74.88,16.06,89.08Z"/><path class="cls-7" d="M292.92,494.18c.07-.09.18-.22.27-.35l.19-.25.3-.46c.29-.46.61-1,.85-1.41l.15-.28a29.27,29.27,0,0,0,1.63-3.42c.21-.53.43-1.11.69-1.88.2-.58.41-1.21.52-1.68l.08-.31.1-.31c.25-.83.47-1.9.73-3.13.09-.47.19-.94.29-1.41l2.12-9.85H321.9l1.6,9.33a47.08,47.08,0,0,1,4.58-2.4l.11-.05a56.47,56.47,0,0,1,21-4.78c.66,0,1.32,0,2,0a52.69,52.69,0,0,1,19.32,3.55l11,4.31-7.63,22.93-11.42-3.16a29,29,0,0,0-7.77-1.05,28.61,28.61,0,0,0-3.47.21,31,31,0,0,0-10.76,3.27,15.84,15.84,0,0,0-1.82,1.1l-1.46,1.09c-.93.7-1.77,1.24-2.44,1.67l-.1.07c-2.82,1.8-5.48,3.19-8.05,4.54l-.36.18c-2.36,1.21-5.17,2.63-8.14,3.94s-5.93,2.44-8.86,3.41l-47.73,15.79Z"/><path class="cls-7" d="M332.29,513.69a75.48,75.48,0,0,1-18.58-2.55l6.42-24.1-3.21,12,3.19-12c6.53,1.71,15.21,2.23,17.53,1a3.36,3.36,0,0,0-1.13,1.15l23.41-5.85c3.08,12.33-2,19.64-5.33,22.9C348.76,512,340.21,513.69,332.29,513.69Z"/><path class="cls-7" d="M277.12,599.84c-.82-25.38-.83-35.41-.83-35.83V556.3l6.89-3.44c1.77-.89,11.06-5.29,20.62-5.29,9.94,0,17.71,4.81,21.3,13.19,5.68,13.25-1.24,25.48-11.86,32.15-3.1,5.91-9.52,15.32-20.08,18.47L277.65,616Z"/><polygon class="cls-7" points="291.56 491.69 322.19 487.46 327.72 549.64 303.04 553.04 291.56 491.69"/><path class="cls-7" d="M304.18,622.22a12.42,12.42,0,0,0-2.18-.89,28.64,28.64,0,0,0-3.32-.67c-1.3-.16-2.64-.26-4-.3h-1.16c-1,0-2,0-2.73.1l-12.53,1L276,591.37l12.88-.55c.86,0,1.7-.05,2.52-.05,1.45,0,2.92.05,4.62.16a68,68,0,0,1,7.05.83l.14,0a55.56,55.56,0,0,1,7,1.7l1.14-.65c1-.55,2-1.1,2.93-1.66a20.11,20.11,0,0,0,5.47-4.11l.08-.09a15.29,15.29,0,0,0,2.57-5.52l.32-1.09.19-.91c.08-.39.17-.77.25-1.15s.16-.71.23-1.06c.08-.64.18-1.27.28-1.91.17-1.09.33-2.12.39-3l0-.21,0-.22c.28-2.52.47-5.12.67-7.86l.27-3.65.07-.94c.28-3.61.56-7.35.89-11.07.41-4.56.81-8.67,1.58-13l0-.17a46.05,46.05,0,0,1,2.16-7.91,32.18,32.18,0,0,1,4.8-8.4l19.9,15a7.59,7.59,0,0,0-1,1.91,23.43,23.43,0,0,0-.78,3.6c-.45,3.28-.64,6.65-.84,10.7-.17,3.59-.3,7.31-.42,10.9l0,.84c-.05,1.22-.09,2.39-.13,3.56-.09,2.77-.18,5.64-.38,8.6-.06,1.78-.25,3.42-.42,4.87-.07.57-.13,1.13-.19,1.7l0,.32c-.12,1-.28,1.85-.41,2.61,0,.29-.11.57-.15.86l-.36,2.08-.47,1.87a42.07,42.07,0,0,1-7.25,15.88,46.54,46.54,0,0,1-12.64,11.08l-3.16,2c-2.27,1.41-4.42,2.73-6.38,4.1l-7.28,5.08Z"/><path class="cls-7" d="M205.33,632.85,181,627.19c3.33-14.29,13.87-61,16.16-89.54a142.38,142.38,0,0,1-18.8-28.88c-13.26-1.68-39.54-8.37-68.88-34.18C92.15,459.3,76,439.37,61.62,415.35L54.2,403l13.32-5.55a200.62,200.62,0,0,1,31.56-10.29,55.81,55.81,0,0,1-11.52-15.61c-6.18-12.69-6.26-27.19-.26-41.94l.22-.52.26-.51c20.07-38.71,27.79-53.95,29.42-57.2.89-3,5.44-23.92-31.2-47.31-9.51-4.91-17.53-8.9-24.63-12.42-31.32-15.58-44.28-22-46.25-43.72-2.4-26.25,33-40.3,39.27-42.57C57.2,124,68.16,117.19,62,95.57l-.11-.41L49.77,46.69,80.93,76.5c1.77,1.68,42.06,40.83,28.9,80.4,20.12,9.56,60.83,32.14,73.54,63.21,15.37,37.56,17.77,67.38,8.22,105,3,.83,6.34,1.86,10,3.15a176.63,176.63,0,0,1,48.21,26,189.73,189.73,0,0,1,50.64,58.51L278.73,425c-25.21-44.6-60.35-64.43-85.39-73.22a106.1,106.1,0,0,0-19.67-5.12l-16.19-1.87,9.13-22.76c9.12-33.84,7.39-59-6.32-92.5-10.56-25.8-54.83-48.08-71-54.49l-11.63-4.61,8-19.91c3.07-7.69,2.13-16-.62-23.78-5.15,12-14.51,19-21.32,21.74l-.52.19c-11.86,4.21-23.59,12.77-23.21,17,.63,6.94,1.89,8.41,32.53,23.65C79.77,192.92,88,197,97.94,202.14l.48.25.47.3c58,36.73,42,76.71,41.3,78.4l-.33.73c-.28.55-6.89,13.75-29.66,57.68-3.15,8-3.23,14.88-.25,21.05,6.34,13.13,25.37,21.15,32.16,23.13l-5,24.36c-.14,0-18.1-1.87-46,7.21C102,431.4,113.68,445,126,455.87c33.13,29.15,59.79,28.51,60.06,28.52l9.25-.51,3.16,8.7a112.86,112.86,0,0,0,20.73,32.36l3.48,3.82-.25,5.16C221,563,210,612.78,205.33,632.85Z"/><path class="cls-7" d="M269.93,517.56c-2.94-1-5.82-2.08-8.82-3.39s-5.84-2.75-8.19-4l-.33-.17c-2.58-1.35-5.25-2.75-8-4.52l-.15-.1c-.68-.43-1.51-1-2.44-1.67l-1.46-1.09a17.57,17.57,0,0,0-1.83-1.11,31.36,31.36,0,0,0-10.8-3.27,29.5,29.5,0,0,0-3.42-.2,29,29,0,0,0-7.78,1.05l-11.41,3.16-7.63-22.93,11-4.31A52.69,52.69,0,0,1,228,471.5c.66,0,1.32,0,2,0a56.47,56.47,0,0,1,21,4.78l.12.05a45.94,45.94,0,0,1,4.57,2.41l1.61-9.34h21.05l2.12,9.84c.11.48.2,1,.3,1.42.26,1.24.48,2.3.73,3.13l.09.32.08.31c.11.45.32,1.06.52,1.65.26.79.48,1.37.68,1.87a30.12,30.12,0,0,0,1.64,3.46l.15.27c.24.44.56,1,.85,1.41l.13.19.21.3.11.15.07.11c.07.1.18.22.24.31l31.41,39.17Z"/><path class="cls-7" d="M286,611.38c-10.57-3.15-17-12.56-20.09-18.47-10.61-6.67-17.53-18.9-11.85-32.15,3.59-8.38,11.35-13.19,21.29-13.19,9.57,0,18.86,4.4,20.62,5.29l6.9,3.44V564c0,.42,0,10.45-.84,35.83L301.52,616Z"/><polygon class="cls-7" points="251.46 549.64 256.98 487.46 287.62 491.69 276.14 553.04 251.46 549.64"/><path class="cls-7" d="M259.82,621.45c-2-1.37-4.11-2.69-6.38-4.1l-3.14-2a46.78,46.78,0,0,1-12.67-11.1,42.08,42.08,0,0,1-7.24-15.87l-.47-1.87-.36-2.09-.15-.86c-.14-.76-.29-1.63-.42-2.61l0-.32c-.05-.57-.12-1.13-.19-1.69-.16-1.46-.35-3.1-.42-4.89-.2-3-.29-5.84-.38-8.63l-.12-3.47,0-.89c-.13-3.6-.26-7.32-.43-10.93-.19-3.88-.39-7.39-.84-10.67a21.8,21.8,0,0,0-.76-3.55,7.45,7.45,0,0,0-1-2l19.9-15a32,32,0,0,1,4.82,8.45,45.55,45.55,0,0,1,2.15,7.87l0,.16c.77,4.29,1.17,8.4,1.58,12.94.33,3.79.62,7.57.89,11.23l.07.86c.09,1.16.18,2.36.26,3.56.21,2.76.4,5.37.67,7.9l0,.21v.22c.06.83.22,1.86.39,3,.1.64.2,1.27.29,1.91.06.35.15.7.22,1s.17.77.25,1.16l.2.9.32,1.1A15.12,15.12,0,0,0,259.4,587l.08.09a20.34,20.34,0,0,0,5.49,4.13l2.9,1.64,1.15.65a55.13,55.13,0,0,1,7-1.7l.13,0a69.49,69.49,0,0,1,7-.83c1.77-.11,3.24-.16,4.69-.16.82,0,1.65,0,2.51.05l12.89.55-2.29,30.13-12.52-1c-.78-.07-1.73-.1-2.73-.1h-1.19c-1.32,0-2.66.14-3.95.3a28.82,28.82,0,0,0-3.33.67,13.09,13.09,0,0,0-2.18.89l-7.9,4.31Z"/><path class="cls-7" d="M290,670.63A262,262,0,0,1,227.17,663h0l-1.51-.39A260.94,260.94,0,0,1,28.8,409.45,260.5,260.5,0,0,1,106.27,223.8l17.54,17.73A236.29,236.29,0,0,0,231,638.26l.79.2a237.78,237.78,0,0,0,127-3l1.78-.54,3.73-1.21,1.83-1h1c.71-.24,1.41-.49,2.12-.75l2-.84h.35c3.42-1.25,6.83-2.6,10.18-4a236.31,236.31,0,0,0,72.08-387.91l17.3-18a261.24,261.24,0,0,1-79.69,428.85c-4.43,1.87-9,3.63-13.47,5.24l-.1,0h0l-2,.69-1.78.62-1.86,1h-1.06c-1.81.6-3.52,1.14-5.18,1.64l-1.78.52A261.15,261.15,0,0,1,290,670.63Z"/><circle class="cls-7" cx="289.98" cy="409.45" r="248.71"/><g id="direita-2" data-name="direita"><path class="cls-7" d="M385.88,629.56c-4.17-17.91-15.34-68-16.68-96.23,16.59-18.25,23.22-36.49,23.22-36.49s30.72,1.7,68.28-31h0c14.81-12.89,30.69-31.13,46.16-56.91-39.81-16.6-66.34-13.28-66.34-13.28s58.05-16.58,39.81-61.36c-23.23-44.79-29.86-58.05-29.86-58.05s-13.27-31.52,36.49-63c51.42-26.53,63-28.2,64.68-46.44s-31.51-29.86-31.51-29.86S495.25,127,505.2,92.14l1.66-6.63S468.71,122,482,155.17l3.32,8.29s-63,24.88-77.95,61.37S390.76,289.51,400.72,326l3.31,8.3s-9.13,1.06-22.83,5.92c-24.59,8.71-63.91,29.66-91.61,78.67"/><path class="cls-7" d="M365.81,487.11a41.87,41.87,0,0,0-16-1.21,43.53,43.53,0,0,0-15.15,4.65,28.85,28.85,0,0,0-3.3,2l-1.63,1.21c-.59.45-1.19.83-1.79,1.22-2.4,1.53-4.87,2.82-7.34,4.11s-4.95,2.5-7.48,3.62-5.1,2.1-7.75,3l-7.73,2.56,5-6.3c.19-.24.49-.62.73-1s.5-.72.74-1.09c.48-.74.95-1.51,1.38-2.3a41.86,41.86,0,0,0,2.36-4.91c.34-.85.66-1.72.95-2.59s.59-1.77.82-2.67c.54-1.8.87-3.65,1.28-5.55h.48a29.43,29.43,0,0,1,.42,5.87,32.12,32.12,0,0,1-.71,5.92,33.83,33.83,0,0,1-1.76,5.76c-.38.94-.82,1.86-1.28,2.77-.25.45-.49.9-.77,1.35a14.79,14.79,0,0,1-.91,1.39l-2.68-3.74c2.48-1,5-2,7.54-3s5.07-1.88,7.56-2.91A66.63,66.63,0,0,0,326,491.9c.57-.32,1.14-.64,1.66-1l.82-.53c.3-.21.61-.42.92-.61a31.08,31.08,0,0,1,3.81-2A44.17,44.17,0,0,1,349.62,484,41.14,41.14,0,0,1,366,486.66Z"/><path class="cls-7" d="M316.92,499.09s36.5,9.74,30.9-12.68"/><path class="cls-7" d="M288.76,564s19.9-10,24.88,1.66-9.95,18.24-9.95,18.24-5,12.8-14.1,15.52C288.76,574,288.76,564,288.76,564Z"/><polygon class="cls-7" points="310.93 501.6 315.3 550.74 306.22 502.25 310.93 501.6"/><path class="cls-7" d="M289.41,603.28a56.31,56.31,0,0,1,5.83.09q2.88.2,5.75.68a42.59,42.59,0,0,1,5.69,1.41,28,28,0,0,1,5.46,2.51l-2.06,0c3.43-2.19,7-4.09,10.38-6a31.57,31.57,0,0,0,8.88-7,27,27,0,0,0,5-10.13l.41-1.39.31-1.43c.19-1,.43-1.9.59-2.87.27-1.95.65-3.87.79-5.84.42-3.91.66-7.91,1-11.87s.6-7.94.95-11.9.73-7.94,1.43-11.88a33.76,33.76,0,0,1,1.55-5.78,19.87,19.87,0,0,1,3-5.18,19.54,19.54,0,0,0-2.74,5.26,32.46,32.46,0,0,0-1.3,5.78c-.54,3.93-.76,7.89-.95,11.86s-.32,7.94-.46,11.92-.23,7.94-.5,12c-.07,2-.37,4-.57,6-.12,1-.33,2-.49,3l-.26,1.5-.37,1.48a30,30,0,0,1-5.06,11.3,35,35,0,0,1-9.4,8.11c-3.42,2.15-6.81,4.14-10,6.37l-1,.65-1.11-.6a24.67,24.67,0,0,0-4.7-1.93,41.25,41.25,0,0,0-5.13-1.05c-1.75-.22-3.52-.35-5.3-.4a48,48,0,0,0-5.26.12Z"/></g><g id="esquerda-2" data-name="esquerda"><path class="cls-7" d="M289.59,418.89C261.7,369.54,222,348.65,197.47,340c-13.42-4.71-22.32-5.74-22.32-5.74l3.31-8.3c9.95-36.49,8.29-64.68-6.63-101.17s-78-61.37-78-61.37l3.32-8.29C110.46,122,72.31,85.51,72.31,85.51L74,92.14C83.92,127,59,136.92,59,136.92s-33.17,11.62-31.51,29.86,13.27,19.91,64.69,46.44c49.75,31.51,36.48,63,36.48,63s-6.63,13.26-29.85,58.05c-18.25,44.78,39.8,61.36,39.8,61.36s-26.53-3.32-66.34,13.28c15.23,25.37,30.85,43.44,45.45,56.29,37.89,33.34,69,31.61,69,31.61s6.64,18.24,23.23,36.49c-1.37,28.49-12.71,79.19-16.79,96.69"/><path class="cls-7" d="M213.22,486.66A41.12,41.12,0,0,1,229.55,484a44.22,44.22,0,0,1,16.39,3.73,31.83,31.83,0,0,1,3.81,2c.31.19.61.4.92.61l.81.53c.52.35,1.09.67,1.66,1a66.63,66.63,0,0,0,7.23,3.43c2.49,1,5,2,7.57,2.91s5.06,2,7.54,3L272.79,505c-.38-.53-.63-.93-.91-1.39s-.51-.9-.76-1.35c-.47-.91-.9-1.83-1.28-2.77a33.87,33.87,0,0,1-1.77-5.76,32.1,32.1,0,0,1-.7-5.92,29.43,29.43,0,0,1,.42-5.87h.47c.41,1.9.74,3.75,1.29,5.55.22.9.51,1.79.81,2.67s.61,1.74,1,2.59a41.8,41.8,0,0,0,2.35,4.91c.43.79.9,1.56,1.38,2.3.25.37.49.74.75,1.09s.54.72.73,1l5.05,6.3-7.74-2.56c-2.65-.88-5.21-1.87-7.74-3s-5-2.35-7.49-3.62-4.93-2.58-7.34-4.11c-.6-.39-1.2-.77-1.79-1.22l-1.62-1.21a29,29,0,0,0-3.31-2,43.54,43.54,0,0,0-15.14-4.65,41.87,41.87,0,0,0-16,1.21Z"/><path class="cls-7" d="M290.42,564s-19.91-10-24.88,1.66,9.95,18.24,9.95,18.24,5,12.8,14.1,15.52C290.42,574,290.42,564,290.42,564Z"/><polygon class="cls-7" points="272.95 502.25 263.88 550.74 268.25 501.6 272.95 502.25"/><path class="cls-7" d="M289.41,608a48.21,48.21,0,0,0-5.27-.12c-1.77.05-3.55.18-5.3.4a41.63,41.63,0,0,0-5.13,1.05,24.58,24.58,0,0,0-4.69,1.93l-1.12.6-.94-.65c-3.2-2.23-6.59-4.22-10-6.37a34.81,34.81,0,0,1-9.4-8.11,29.64,29.64,0,0,1-5.06-11.3l-.37-1.48-.27-1.5c-.16-1-.37-2-.49-3-.19-2-.5-4-.57-6-.27-4-.34-8-.49-12s-.28-8-.46-11.92-.41-7.93-.95-11.86a33.38,33.38,0,0,0-1.31-5.78,19.26,19.26,0,0,0-2.74-5.26,19.59,19.59,0,0,1,3,5.18,32.87,32.87,0,0,1,1.55,5.78c.71,3.94,1.08,7.91,1.44,11.88s.64,7.93.94,11.9.55,8,1,11.87c.14,2,.52,3.89.78,5.84.16,1,.4,1.91.6,2.87l.3,1.43.42,1.39a27.18,27.18,0,0,0,5,10.13,31.76,31.76,0,0,0,8.89,7c3.39,2,6.95,3.86,10.38,6L267,608a27.78,27.78,0,0,1,5.47-2.51,42.07,42.07,0,0,1,5.68-1.41q2.86-.48,5.75-.68a56.46,56.46,0,0,1,5.84-.09Z"/></g><path class="cls-7" d="M550,167.33a32.2,32.2,0,0,0-1.68-7.71,14.8,14.8,0,0,0-1.77-7.39A16.05,16.05,0,0,0,533,143.84l-1.17-.8c-3.12-2.08-6.61-3.3-9.9-5.06-.69-.36-1.36-.76-2-1.18-.21-.15-.69-.48-.85-.62-1.6-1.39-3.08-2.91-4.56-4.42a11.25,11.25,0,0,0-6-3.18c-.49-2.11-.9-4.27-1.22-6.5-.4-2.81-2.52-5.19-5.05-6.73a33,33,0,0,0,.4-4.07c0-.7.83-2.07-.15-.84,2.66-3.34,3.27-7.94,0-11.2-2.76-2.77-8.52-3.37-11.2,0-4.34,5.45-4.91,12.55-5.36,19.46-.12.18-.25.36-.36.54-5.36,8.91-8.66,20.85-4.62,30.52a16.56,16.56,0,0,0-.71,3.32,28.19,28.19,0,0,0,1.51,11.82,11.44,11.44,0,0,0-2.91,1.21c-9.48,5.62-18.82,11-27.51,17.48a67.37,67.37,0,0,0-18.27,8.1,12.5,12.5,0,0,0-5.82,9.84c-6.15,4.31-13.65,10.88-16.8,18.38a11.81,11.81,0,0,0-3.33,3.65,35.68,35.68,0,0,0-4.52,14.31c-1.18,3.82-2.46,7.58-3.94,11.15s-3.55,7.55-4.24,11.63c-.76,4.46-.3,8.32-1.42,11.52-1.39,4,.18,8.64,3.18,11.67-.23,1.52-.43,3.05-.58,4.6a41.94,41.94,0,0,0,.23,10.52,9.37,9.37,0,0,0-.3,3.19c.91,11.43,3.68,22.71,6.78,33.88a15.49,15.49,0,0,0-4.88,1c-7.68,3-15.63,5.8-23.54,8.8-1,.19-2,.42-3,.7a68.25,68.25,0,0,0-18.14,8.19c-12.28,5.85-23.76,13-33.21,22.93s-16.68,21.38-23,33.42q-3.7,3.21-7.24,6.59a260.25,260.25,0,0,1-17.71-20.25l-.45-.54a19.52,19.52,0,0,0-5.74-15,163.32,163.32,0,0,0-64.56-39.28A143.74,143.74,0,0,0,185,338.52l-9.93-4.38c.26-1.32.44-2.65.57-4,5.1-7,6.16-15.46,4.6-23.78A69.44,69.44,0,0,0,182,293.51a15.83,15.83,0,0,0-1.09-6.41c.06-.55.11-1.1.17-1.65,1-10.69.62-21.45.19-32.15a20.06,20.06,0,0,0-6.87-14.18,19.08,19.08,0,0,0-2.16-6.44q-1.41-2.6-2.87-5.16c-.17-1.45-.35-2.9-.56-4.36-.69-4.68-4.53-8.85-9.08-11.25-7.81-11.32-17.06-21.42-29.38-28.53-9.64-5.57-19.85-10.31-29.77-15.38-3.44-1.76-6.86-3.52-10.34-5.17a15.07,15.07,0,0,0,4-4.88c4.17-8.36,3.7-19.57,1.67-28.43-2.25-9.75-9.25-18.28-10-28.37-.42-6.07-9.93-6.12-9.51,0a35.74,35.74,0,0,0,1,6.18,3.58,3.58,0,0,0-2.72,3.24c-.75,5.27-1.41,10.57-2.18,15.85a4.54,4.54,0,0,0-4,1.32l-8.43,8.76-7,4.12-.19.12a19.21,19.21,0,0,0-3.76.56c-1.83.47-3.73,2.57-3.49,4.59a.09.09,0,0,0,0,.05,17.5,17.5,0,0,0-2.6.5c-12.26,3.38-18.1,18.13-11.61,29.05A30.9,30.9,0,0,0,46.12,188a24.58,24.58,0,0,0,7.43,1.77c3.34,3.58,7.45,6.41,11.36,9.32,4.16,3.09,8.32,6.17,12.62,9.06A137.24,137.24,0,0,0,91,216.1c2.23,1.16,4.47,2.29,6.64,3.57,1.65,1,3.49,2.75,5.27,3.61-1.19-.62-1.56-1.45.27.12h0a2.55,2.55,0,0,0,.29.13,2.18,2.18,0,0,1-.27-.11c.78.67,1.54,1.35,2.29,2,1.52,1.41,3,2.89,4.38,4.41s2.8,3.23,4.17,4.89a1.11,1.11,0,0,1,.11.16c.61.86,1.24,1.71,1.84,2.57A266.14,266.14,0,0,1,130,260.86,15.54,15.54,0,0,0,132,263.6a14.31,14.31,0,0,0-2.35,9.21,2.45,2.45,0,0,1,0,.27,18.3,18.3,0,0,0-4.13,11.73c-1,1.49-2.09,2.89-3,4.42a45.18,45.18,0,0,0-3.87,9c0,.13-.11.3-.18.48l-.42.5c-.7.76-1.42,1.49-2.1,2.27a40,40,0,0,0-5.37,7.25,31.09,31.09,0,0,0-3.77,13.46,94,94,0,0,0-8.13,16.63c-1.81,4.88-3.4,10.31-3,15.54a23.36,23.36,0,0,0,6,14.77,20.84,20.84,0,0,0,1.77,1.64,24.05,24.05,0,0,0,9.41,10.48,14.37,14.37,0,0,0,3.13,1.52,21.81,21.81,0,0,0,4.85,3.09,17.83,17.83,0,0,0,6.1,3.67,20.54,20.54,0,0,0,4.48,2.55l.59.51h-.14a20.65,20.65,0,0,0-13.41,5.24,4.6,4.6,0,0,0-4,.37c-.36.28-.74.54-1.11.8a27.48,27.48,0,0,0-11,.78,13.42,13.42,0,0,0-5.13,2.88h0l-.55.06c-5.1-3.44-12.44-3.57-16.87,1.25a14.27,14.27,0,0,0-2.21,3.22c-4.24,1-5.68,7.47-1.3,8.92a11.42,11.42,0,0,0,3.51,6.35q3.52,3.24,6.88,6.66a12,12,0,0,0,1.2,2.73,41.57,41.57,0,0,0,7.8,9.76,51,51,0,0,0,4.83,3.82c.49.69,1,1.37,1.48,2.07a16.85,16.85,0,0,0,2.64,3,41.93,41.93,0,0,0,6.17,8.53c4.39,4.45,10,8.08,14.93,11.86q2.82,2.18,5.69,4.3a18.35,18.35,0,0,0,2.46,3.16,19.74,19.74,0,0,0,13.82,5.78A47.61,47.61,0,0,0,165.89,491a16.29,16.29,0,0,0,7.77,4.37,77.62,77.62,0,0,0,13.46,1.21,291.54,291.54,0,0,0,21.5,33.73,16.06,16.06,0,0,0-1.35,6.83,274.55,274.55,0,0,0,2.09,28.07c-.87,1.49-1.74,3-2.63,4.46-3.75,6.21-6.94,13-6.31,20.42a51.69,51.69,0,0,0,1.82,9.46,117.76,117.76,0,0,0-6.54,13.69,10.37,10.37,0,0,0-.56,1.9,12.16,12.16,0,0,0-.94,1.32c-3.4,5.83-1.09,12.69,4.27,16.26,6.92,4.62,14.94,7.32,22.94,9.42.86,1.07,6.25,1.33,7.57,2,23.78,11.4,38.71,7.82,70.51,9.51a125.07,125.07,0,0,0,41.62-5,141,141,0,0,0,19-6.83c2.71-1.27,5.79-.82,8.28-2.46.86-.57,2.25.48,3.17,0,.07.06,2.48-1.6,3.17-1.59,6.19.78,8.91-8.07,8.65-13.93a11.77,11.77,0,0,0-3.21-7.92c-.26-4.22-1.42-8.72-2.06-12.83q-1.63-10.54-3.28-21.09c-1.37-8.79-3-17.56-5.82-25.92-.64-4.43-1.46-8.87-1-13.36a1.93,1.93,0,0,0-1.45-1.89c0-1.85-.06-3.69-.2-5.54a199.78,199.78,0,0,0,27.29-39.63l.4-.1a45.8,45.8,0,0,0,6.48-2.49,46,46,0,0,1,10.31-1.42,40.25,40.25,0,0,0,19.43-5.36c5.12-3,9.69-7,14.23-10.84a182.36,182.36,0,0,0,13.8-12.08,33.19,33.19,0,0,0,2.2-2.51c9.12-6.93,17.8-14.41,25.16-23.21a14.43,14.43,0,0,0,3.15-6.67,69.51,69.51,0,0,0,9.43-8c7.16-7.3,2-20.33-8.4-20.29-8.09,0-16.31-1.67-24.31-2.71l-19.88-2.58a32.51,32.51,0,0,0-.18-7,37.15,37.15,0,0,0,11.22-6c10-4.48,18.33-11.38,22.3-22.42a35.1,35.1,0,0,0-.87-25.12,13.59,13.59,0,0,0-2.17-9.17c-2.45-3.76-4.32-5.12-6.54-8.37-.39-.57-.77-1.15-1.14-1.73-.39-.94-.83-1.87-1.3-2.79-1.05-2-2.37-3.88-3.61-5.79a50.51,50.51,0,0,1-2.91-6.95,13.45,13.45,0,0,0-5-6.65c-.38-1.06-.76-2.13-1.13-3.24-4.2-12.33-7.88-23.79-6.71-36.48a17.82,17.82,0,0,0,3.48-3.51c3.15-4.14,5.3-8.86,8.15-13.2,2.35-3.57,6.33-7.6,9.69-11.34,5.25-5.83,10.4-11.81,15.93-17.38,3.83,2.22,8.95,2.6,12.36.19l10.85-7.7a14,14,0,0,0,5.36-7.24c11.66-3,23.13-7.53,30.21-17.62C547.39,175.7,550.38,171.55,550,167.33Z"/><path class="cls-7" d="M115,232.66A248,248,0,0,0,41.27,409.45c0,116.2,79.71,213.8,187.43,241.1h0a250.31,250.31,0,0,0,133.72-3.11h0c2.26-.69,4.52-1.41,6.75-2.16h0c1.46-.5,2.91-1,4.36-1.52l.2-.07h0c4.34-1.55,8.6-3.21,12.83-5C476,601,538.69,512.53,538.69,409.45a248,248,0,0,0-76.18-179.14"/><path class="cls-7" d="M257.93,496.08a30.27,30.27,0,0,1-5.49-2.67c-1.9-1.15-3.64-2.53-5.66-3.5-4-1.92-8.41-3-12.64-4.35a1.81,1.81,0,0,0-1,0,2,2,0,0,0-.79-.15c-2.32,0-2.53,3.27-.62,3.86a13.89,13.89,0,0,0,.25,1.41,1.82,1.82,0,0,0-.38,1.14,6.43,6.43,0,0,0,1.92,4.4,10.47,10.47,0,0,0,.82,1.07,7.83,7.83,0,0,0,5.72,2.37h.3c1.31.24,2.68.33,4,.44a63.7,63.7,0,0,0,9.67,0,2.06,2.06,0,0,0,1.47-.73c.47.19.93.38,1.41.55a2,2,0,0,0,2.43-1.38A2,2,0,0,0,257.93,496.08Z"/><path class="cls-7" d="M347.69,487a1.91,1.91,0,0,0-2.4-1.51l-7,1.85a23.82,23.82,0,0,0-6.46,2.35,37.91,37.91,0,0,0-4.94,4.09,7.14,7.14,0,0,1-5.11,2.16,2,2,0,0,0-1.14.32c-2.14.39-2,3.92.39,3.92a1.91,1.91,0,0,0,1-.27h.65c2.42,0,4.84,0,7.26,0h.17a2.66,2.66,0,0,0,1.16.67c1.39.38,3.16-.16,4.56-.34,3.12-.41,6.29-1,8.81-3a8.11,8.11,0,0,0,3.13-6.91A2.09,2.09,0,0,0,347.69,487Z"/><path class="cls-7" d="M184.58,294.57c5.85-33.7-5.69-69.94-29.93-94.07a146.8,146.8,0,0,0-38.13-26.78C113,172,85.81,153.05,103.11,175.1c3.06,3.9,7.36,8.59,11,11.2A180.54,180.54,0,0,1,168.68,250,176.54,176.54,0,0,1,184.58,294.57Z"/><path class="cls-7" d="M397.59,294.57c-5.85-33.7,5.68-69.94,29.93-94.07a146.8,146.8,0,0,1,38.13-26.78c3.57-1.76,30.71-20.67,13.41,1.38-3.06,3.9-7.36,8.59-11,11.2A180.54,180.54,0,0,0,413.49,250,176.54,176.54,0,0,0,397.59,294.57Z"/><path class="cls-7" d="M509,142.92c2,2,4.38,3.74,7.14,4.25s6-.63,7.16-3.19a7,7,0,0,0-.92-6.58,29.79,29.79,0,0,0-4.77-5,48.3,48.3,0,0,1-11.21-16.08c-1.19-2.74-3.36-16.07-7.62-8.72-2.7,4.66-.79,14.1.57,18.91A37.11,37.11,0,0,0,509,142.92Z"/><path class="cls-7" d="M70.91,142.92c-2,2-4.38,3.74-7.14,4.25s-6-.63-7.16-3.19a7,7,0,0,1,.92-6.58,29.79,29.79,0,0,1,4.77-5A48.3,48.3,0,0,0,73.51,116.3c1.19-2.74,3.36-16.07,7.62-8.72,2.7,4.66.79,14.1-.57,18.91A37.11,37.11,0,0,1,70.91,142.92Z"/><path class="cls-7" d="M491.38,416.71c2.5.47,5.07,1,7.51.17a7.6,7.6,0,0,0,4.95-6.71c.69-11.91-26.9-6.26-32.42-7.74-8.58-2.29-12.72-13.48-21.49-12.68-17.33,1.59-35.81,18.5-41.54,37.59C436.08,417.51,462.58,411.39,491.38,416.71Z"/><path class="cls-7" d="M88.09,416.71c-2.49.47-5.06,1-7.51.17a7.61,7.61,0,0,1-4.94-6.71c-.69-11.91,26.9-6.26,32.42-7.74,8.57-2.29,12.71-13.48,21.49-12.68,17.33,1.59,35.8,18.5,41.53,37.59C143.39,417.51,116.89,411.39,88.09,416.71Z"/><path class="cls-7" d="M399.76,480.69c-4.33,1.92-9.15,4.14-10.74,8.1-.93,2.33-.86,4.5,1.59,6.34,3.16,2.38,5.35,3.39,8.62,2.55,35.24-9.07,67.13-30.21,89.69-58.71,4.27-5.4,13.44-15,14-21.91-5.22.5-11.05,6.9-15,10-8.83,7-17.84,13.7-27.19,20A399.82,399.82,0,0,1,399.76,480.69Z"/><path class="cls-7" d="M178.62,480.69c4.33,1.92,9.16,4.14,10.74,8.1.93,2.33.87,4.5-1.58,6.34-3.17,2.38-5.35,3.39-8.62,2.55A169.41,169.41,0,0,1,89.47,439c-4.28-5.4-13.45-15-14-21.91,5.21.5,11,6.9,15,10,8.84,7,17.85,13.7,27.2,20A399.72,399.72,0,0,0,178.62,480.69Z"/><path class="cls-7" d="M262.28,542.74a111.5,111.5,0,0,0-1.13-17.14A37.93,37.93,0,0,0,255,509.69c-1.45-2-6.29-5.1-5.42-7.43.77-2.09,6.3-2.14,8.47-2.63a19.47,19.47,0,0,1,5.67-.7,6.62,6.62,0,0,1,5,2.46c1.42,2,1.18,4.65.89,7.06l-2.92,24c-.48,4-1.55,8.64-2,12.6-.21,1.73,0,7.14-2.16,6.66C261.46,551.38,262.33,545.69,262.28,542.74Z"/><path class="cls-7" d="M316.38,542.74a112.77,112.77,0,0,1,1.12-17.14,38,38,0,0,1,6.16-15.91c1.45-2,6.29-5.1,5.42-7.43-.77-2.09-6.3-2.14-8.47-2.63a19.47,19.47,0,0,0-5.67-.7,6.62,6.62,0,0,0-5,2.46c-1.42,2-1.19,4.65-.89,7.06l2.92,24c.48,4,1.23,8.64,1.71,12.6.21,1.73.32,7.14,2.48,6.66C317.2,551.38,316.33,545.69,316.38,542.74Z"/><path class="cls-7" d="M179.05,338.81c-8.55-1-17.16-2.16-25.29-5s-15.84-7.51-21-14.43a6.88,6.88,0,0,1-1.64-3.73,2.74,2.74,0,0,1,2.32-2.92,4.24,4.24,0,0,1,2.08.73,76.75,76.75,0,0,0,34.4,9.77c2.43.09,5,.1,7.14,1.19s3.84,3.66,3,5.95Z"/><path class="cls-7" d="M401,338.81c8.55-1,17.17-2.16,25.3-5s15.83-7.51,21-14.43a6.82,6.82,0,0,0,1.65-3.73,2.75,2.75,0,0,0-2.33-2.92,4.24,4.24,0,0,0-2.08.73,76.71,76.71,0,0,1-34.4,9.77c-2.43.09-5,.1-7.14,1.19s-3.84,3.66-3,5.95Z"/><path class="cls-7" d="M111.4,212.88c-10.77-10-24.11-16.86-37.66-22.62S46.23,179.67,33.13,173c-2.93,2.12-2.19,7,.42,9.51s6.34,3.37,9.8,4.45C59.09,191.85,72,203,85.67,212.19c8.43,5.65,17.33,10.63,25.25,17a64.89,64.89,0,0,1,12.17,12.44c1.07,1.48,2.32,5.12,4.44,5,2.8-.12,2.23-3.25,1.95-4.92C127.71,230.89,119.19,220.13,111.4,212.88Z"/><path class="cls-7" d="M467.89,212.88c10.78-10,24.12-16.86,37.67-22.62s27.51-10.59,40.61-17.31c2.93,2.12,2.19,7-.42,9.51s-6.34,3.37-9.8,4.45c-15.74,4.94-28.61,16.09-42.32,25.28-8.43,5.65-17.33,10.63-25.25,17a64.89,64.89,0,0,0-12.17,12.44c-1.07,1.48-2.32,5.12-4.44,5-2.8-.12-2.23-3.25-1.95-4.92C451.59,230.89,460.11,220.13,467.89,212.88Z"/><path class="cls-7" d="M339,546c1.54,15.12,3.05,30.67-1.09,45.28s-15.31,28.3-30.3,30.75c1.4-3.31,1.5-9.84,4.57-12.82s6.79-3.66,10.25-6.17c13.37-9.67,13.52-16.81,15.1-34.24C338.17,561.71,338.31,553.76,339,546Z"/><path class="cls-7" d="M240.26,546c-1.55,15.12-3.06,30.67,1.08,45.28s15.31,28.3,30.31,30.75c-1.4-3.31-1.51-9.84-4.57-12.82s-6.79-3.66-10.26-6.17c-13.36-9.67-13.51-16.81-15.1-34.24C241.08,561.71,240.93,553.76,240.26,546Z"/><path class="cls-7" d="M274.63,624.19a24,24,0,0,0,7.35,1.4c6.09.52,12.27,1,18.3,0a12.83,12.83,0,0,0,6.68-2.84c2.46-2.31,3.14-5.9,3.68-9.24.23-1.42.4-3.07-.6-4.11-.62-.65-3.33-1.54-4.21-1.73-9.24-2-16.95-2.17-26.39-1.76a19.5,19.5,0,0,0-7,1.26c-2.18,1-3.43,1.32-3.85,3.67C267.8,615.22,270.63,622.51,274.63,624.19Z"/><path class="cls-7" d="M483,168.32a61.23,61.23,0,0,0,15.39-6.69c1-.62,2.17-1.53,2.06-2.73a2.48,2.48,0,0,0-2.12-1.94,22.45,22.45,0,0,0-3.07-.1,14.34,14.34,0,0,1-4.8-1.41,14.55,14.55,0,0,0-4.79-1.43,5,5,0,0,0-4.43,1.84c-.95,1.38-.64,3.61.86,4.34"/><path class="cls-7" d="M96.41,168.32A61.32,61.32,0,0,1,81,161.63c-1-.62-2.17-1.53-2.06-2.73A2.47,2.47,0,0,1,81.09,157a22.4,22.4,0,0,1,3.07-.1A14.35,14.35,0,0,0,89,155.45,14.62,14.62,0,0,1,93.74,154a5,5,0,0,1,4.44,1.84c.95,1.38.64,3.61-.86,4.34"/><g id="direita-3" data-name="direita"><path class="cls-7" d="M385.88,629.56c-4.17-17.91-15.34-68-16.68-96.23,16.59-18.25,23.22-36.49,23.22-36.49s30.72,1.7,68.28-31h0c14.81-12.89,30.69-31.13,46.16-56.91-39.81-16.6-66.34-13.28-66.34-13.28s58.05-16.58,39.81-61.36c-23.23-44.79-29.86-58.05-29.86-58.05s-13.27-31.52,36.49-63c51.42-26.53,63-28.2,64.68-46.44s-31.51-29.86-31.51-29.86S495.25,127,505.2,92.14l1.66-6.63S468.71,122,482,155.17l3.32,8.29s-63,24.88-77.95,61.37S390.76,289.51,400.72,326l3.31,8.3s-9.13,1.06-22.83,5.92c-24.59,8.71-63.91,29.66-91.61,78.67"/><path class="cls-7" d="M365.81,487.11a41.87,41.87,0,0,0-16-1.21,43.53,43.53,0,0,0-15.15,4.65,28.85,28.85,0,0,0-3.3,2l-1.63,1.21c-.59.45-1.19.83-1.79,1.22-2.4,1.53-4.87,2.82-7.34,4.11s-4.95,2.5-7.48,3.62-5.1,2.1-7.75,3l-7.73,2.56,5-6.3c.19-.24.49-.62.73-1s.5-.72.74-1.09c.48-.74.95-1.51,1.38-2.3a41.86,41.86,0,0,0,2.36-4.91c.34-.85.66-1.72.95-2.59s.59-1.77.82-2.67c.54-1.8.87-3.65,1.28-5.55h.48a29.43,29.43,0,0,1,.42,5.87,32.12,32.12,0,0,1-.71,5.92,33.83,33.83,0,0,1-1.76,5.76c-.38.94-.82,1.86-1.28,2.77-.25.45-.49.9-.77,1.35a14.79,14.79,0,0,1-.91,1.39l-2.68-3.74c2.48-1,5-2,7.54-3s5.07-1.88,7.56-2.91A66.63,66.63,0,0,0,326,491.9c.57-.32,1.14-.64,1.66-1l.82-.53c.3-.21.61-.42.92-.61a31.08,31.08,0,0,1,3.81-2A44.17,44.17,0,0,1,349.62,484,41.14,41.14,0,0,1,366,486.66Z"/><path class="cls-7" d="M316.92,499.09s36.5,9.74,30.9-12.68"/><path class="cls-7" d="M288.76,564s19.9-10,24.88,1.66-9.95,18.24-9.95,18.24-5,12.8-14.1,15.52C288.76,574,288.76,564,288.76,564Z"/><polygon class="cls-7" points="310.93 501.6 315.3 550.74 306.22 502.25 310.93 501.6"/><path class="cls-7" d="M289.41,603.28a56.31,56.31,0,0,1,5.83.09q2.88.2,5.75.68a42.59,42.59,0,0,1,5.69,1.41,28,28,0,0,1,5.46,2.51l-2.06,0c3.43-2.19,7-4.09,10.38-6a31.57,31.57,0,0,0,8.88-7,27,27,0,0,0,5-10.13l.41-1.39.31-1.43c.19-1,.43-1.9.59-2.87.27-1.95.65-3.87.79-5.84.42-3.91.66-7.91,1-11.87s.6-7.94.95-11.9.73-7.94,1.43-11.88a33.76,33.76,0,0,1,1.55-5.78,19.87,19.87,0,0,1,3-5.18,19.54,19.54,0,0,0-2.74,5.26,32.46,32.46,0,0,0-1.3,5.78c-.54,3.93-.76,7.89-.95,11.86s-.32,7.94-.46,11.92-.23,7.94-.5,12c-.07,2-.37,4-.57,6-.12,1-.33,2-.49,3l-.26,1.5-.37,1.48a30,30,0,0,1-5.06,11.3,35,35,0,0,1-9.4,8.11c-3.42,2.15-6.81,4.14-10,6.37l-1,.65-1.11-.6a24.67,24.67,0,0,0-4.7-1.93,41.25,41.25,0,0,0-5.13-1.05c-1.75-.22-3.52-.35-5.3-.4s-3.95,0-5.61.08Z"/></g><g id="esquerda-3" data-name="esquerda"><path class="cls-7" d="M289.59,418.89C261.7,369.54,222,348.65,197.47,340c-13.42-4.71-22.32-5.74-22.32-5.74l3.31-8.3c9.95-36.49,8.29-64.68-6.63-101.17s-78-61.37-78-61.37l3.32-8.29C110.46,122,72.31,85.51,72.31,85.51L74,92.14C83.92,127,59,136.92,59,136.92s-33.17,11.62-31.51,29.86,13.27,19.91,64.69,46.44c49.75,31.51,36.48,63,36.48,63s-6.63,13.26-29.85,58.05c-18.25,44.78,39.8,61.36,39.8,61.36s-26.53-3.32-66.34,13.28c15.23,25.37,30.85,43.44,45.45,56.29,37.89,33.34,69,31.61,69,31.61s6.64,18.24,23.23,36.49c-1.37,28.49-12.71,79.19-16.79,96.69"/><path class="cls-7" d="M213.22,486.66A41.12,41.12,0,0,1,229.55,484a44.22,44.22,0,0,1,16.39,3.73,31.83,31.83,0,0,1,3.81,2c.31.19.61.4.92.61l.81.53c.52.35,1.09.67,1.66,1a66.63,66.63,0,0,0,7.23,3.43c2.49,1,5,2,7.57,2.91s5.06,2,7.54,3L272.79,505c-.38-.53-.63-.93-.91-1.39s-.51-.9-.76-1.35c-.47-.91-.9-1.83-1.28-2.77a33.87,33.87,0,0,1-1.77-5.76,32.1,32.1,0,0,1-.7-5.92,29.43,29.43,0,0,1,.42-5.87h.47c.41,1.9.74,3.75,1.29,5.55.22.9.51,1.79.81,2.67s.61,1.74,1,2.59a41.8,41.8,0,0,0,2.35,4.91c.43.79.9,1.56,1.38,2.3.25.37.49.74.75,1.09s.54.72.73,1l5.05,6.3-7.74-2.56c-2.65-.88-5.21-1.87-7.74-3s-5-2.35-7.49-3.62-4.93-2.58-7.34-4.11c-.6-.39-1.2-.77-1.79-1.22l-1.62-1.21a29,29,0,0,0-3.31-2,43.54,43.54,0,0,0-15.14-4.65,41.87,41.87,0,0,0-16,1.21Z"/><path class="cls-7" d="M290.42,564s-19.91-10-24.88,1.66,9.95,18.24,9.95,18.24,5,12.8,14.1,15.52C290.42,574,290.42,564,290.42,564Z"/><polygon class="cls-7" points="272.95 502.25 263.88 550.74 268.25 501.6 272.95 502.25"/><path class="cls-7" d="M289.48,608a52.41,52.41,0,0,0-5.34-.08c-1.77.05-3.55.18-5.3.4a41.63,41.63,0,0,0-5.13,1.05,24.58,24.58,0,0,0-4.69,1.93l-1.12.6-.94-.65c-3.2-2.23-6.59-4.22-10-6.37a34.81,34.81,0,0,1-9.4-8.11,29.64,29.64,0,0,1-5.06-11.3l-.37-1.48-.27-1.5c-.16-1-.37-2-.49-3-.19-2-.5-4-.57-6-.27-4-.34-8-.49-12s-.28-8-.46-11.92-.41-7.93-.95-11.86a33.38,33.38,0,0,0-1.31-5.78,19.26,19.26,0,0,0-2.74-5.26,19.59,19.59,0,0,1,3,5.18,32.87,32.87,0,0,1,1.55,5.78c.71,3.94,1.08,7.91,1.44,11.88s.64,7.93.94,11.9.55,8,1,11.87c.14,2,.52,3.89.78,5.84.16,1,.4,1.91.6,2.87l.3,1.43.42,1.39a27.18,27.18,0,0,0,5,10.13,31.76,31.76,0,0,0,8.89,7c3.39,2,6.95,3.86,10.38,6L267,608a27.78,27.78,0,0,1,5.47-2.51,42.07,42.07,0,0,1,5.68-1.41q2.86-.48,5.75-.68a56.46,56.46,0,0,1,5.84-.09Z"/></g><path class="cls-7" d="M262.05,499.09s-36.51,9.74-30.9-12.68"/><line class="cls-7" x1="460.7" y1="465.85" x2="460.7" y2="465.85"/><path class="cls-7" d="M311,609.62a10.62,10.62,0,0,1,.7,4,14.5,14.5,0,0,1-.54,3.93,12.28,12.28,0,0,1-1.7,3.68,6.74,6.74,0,0,1-3.21,2.65c.4-1.37.66-2.53.95-3.7s.57-2.33.91-3.49.7-2.33,1.15-3.51A19.44,19.44,0,0,1,311,609.62Z"/><path class="cls-7" d="M268.2,609.62a19.37,19.37,0,0,1,1.73,3.56c.45,1.18.82,2.35,1.16,3.51s.6,2.32.9,3.49.55,2.33,1,3.7a6.77,6.77,0,0,1-3.22-2.65,12.25,12.25,0,0,1-1.69-3.68,14.13,14.13,0,0,1-.55-3.93A10.44,10.44,0,0,1,268.2,609.62Z"/><circle class="cls-8" cx="289.98" cy="409.45" r="248.71"/><g id="direita-4" data-name="direita"><path class="cls-9" d="M385.88,629.56c-4.17-17.91-15.34-68-16.68-96.23,16.59-18.25,23.22-36.49,23.22-36.49s30.72,1.7,68.28-31h0c14.81-12.89,30.69-31.13,46.16-56.91-39.81-16.6-66.34-13.28-66.34-13.28s58.05-16.58,39.81-61.36c-23.23-44.79-29.86-58.05-29.86-58.05s-13.27-31.52,36.49-63c51.42-26.53,63-28.2,64.68-46.44s-31.51-29.86-31.51-29.86S495.25,127,505.2,92.14l1.66-6.63S468.71,122,482,155.17l3.32,8.29s-63,24.88-77.95,61.37S390.76,289.51,400.72,326l3.31,8.3s-9.13,1.06-22.83,5.92c-24.59,8.71-63.91,29.66-91.61,78.67"/><path class="cls-10" d="M365.81,487.11a41.87,41.87,0,0,0-16-1.21,43.53,43.53,0,0,0-15.15,4.65,28.85,28.85,0,0,0-3.3,2l-1.63,1.21c-.59.45-1.19.83-1.79,1.22-2.4,1.53-4.87,2.82-7.34,4.11s-4.95,2.5-7.48,3.62-5.1,2.1-7.75,3l-7.73,2.56,5-6.3c.19-.24.49-.62.73-1s.5-.72.74-1.09c.48-.74.95-1.51,1.38-2.3a41.86,41.86,0,0,0,2.36-4.91c.34-.85.66-1.72.95-2.59s.59-1.77.82-2.67c.54-1.8.87-3.65,1.28-5.55h.48a29.43,29.43,0,0,1,.42,5.87,32.12,32.12,0,0,1-.71,5.92,33.83,33.83,0,0,1-1.76,5.76c-.38.94-.82,1.86-1.28,2.77-.25.45-.49.9-.77,1.35a14.79,14.79,0,0,1-.91,1.39l-2.68-3.74c2.48-1,5-2,7.54-3s5.07-1.88,7.56-2.91A66.63,66.63,0,0,0,326,491.9c.57-.32,1.14-.64,1.66-1l.82-.53c.3-.21.61-.42.92-.61a31.08,31.08,0,0,1,3.81-2A44.17,44.17,0,0,1,349.62,484,41.14,41.14,0,0,1,366,486.66Z"/><path class="cls-11" d="M316.92,499.09s36.5,9.74,30.9-12.68"/><path class="cls-10" d="M288.76,564s19.9-10,24.88,1.66-9.95,18.24-9.95,18.24-5,12.8-14.1,15.52C288.76,574,288.76,564,288.76,564Z"/><polygon class="cls-10" points="310.93 501.6 315.3 550.74 306.22 502.25 310.93 501.6"/><path class="cls-10" d="M289.41,603.28a56.31,56.31,0,0,1,5.83.09q2.88.2,5.75.68a42.59,42.59,0,0,1,5.69,1.41,28,28,0,0,1,5.46,2.51l-2.06,0c3.43-2.19,7-4.09,10.38-6a31.57,31.57,0,0,0,8.88-7,27,27,0,0,0,5-10.13l.41-1.39.31-1.43c.19-1,.43-1.9.59-2.87.27-1.95.65-3.87.79-5.84.42-3.91.66-7.91,1-11.87s.6-7.94.95-11.9.73-7.94,1.43-11.88a33.76,33.76,0,0,1,1.55-5.78,19.87,19.87,0,0,1,3-5.18,19.54,19.54,0,0,0-2.74,5.26,32.46,32.46,0,0,0-1.3,5.78c-.54,3.93-.76,7.89-.95,11.86s-.32,7.94-.46,11.92-.23,7.94-.5,12c-.07,2-.37,4-.57,6-.12,1-.33,2-.49,3l-.26,1.5-.37,1.48a30,30,0,0,1-5.06,11.3,35,35,0,0,1-9.4,8.11c-3.42,2.15-6.81,4.14-10,6.37l-1,.65-1.11-.6a24.67,24.67,0,0,0-4.7-1.93,41.25,41.25,0,0,0-5.13-1.05c-1.75-.22-3.52-.35-5.3-.4a48,48,0,0,0-5.26.12Z"/></g><g id="esquerda-4" data-name="esquerda"><path class="cls-12" d="M289.59,418.89C261.7,369.54,222,348.65,197.47,340c-13.42-4.71-22.32-5.74-22.32-5.74l3.31-8.3c9.95-36.49,8.29-64.68-6.63-101.17s-78-61.37-78-61.37l3.32-8.29C110.46,122,72.31,85.51,72.31,85.51L74,92.14C83.92,127,59,136.92,59,136.92s-33.17,11.62-31.51,29.86,13.27,19.91,64.69,46.44c49.75,31.51,36.48,63,36.48,63s-6.63,13.26-29.85,58.05c-18.25,44.78,39.8,61.36,39.8,61.36s-26.53-3.32-66.34,13.28c15.23,25.37,30.85,43.44,45.45,56.29,37.89,33.34,69,31.61,69,31.61s6.64,18.24,23.23,36.49c-1.37,28.49-12.71,79.19-16.79,96.69"/><path class="cls-10" d="M213.22,486.66A41.12,41.12,0,0,1,229.55,484a44.22,44.22,0,0,1,16.39,3.73,31.83,31.83,0,0,1,3.81,2c.31.19.61.4.92.61l.81.53c.52.35,1.09.67,1.66,1a66.63,66.63,0,0,0,7.23,3.43c2.49,1,5,2,7.57,2.91s5.06,2,7.54,3L272.79,505c-.38-.53-.63-.93-.91-1.39s-.51-.9-.76-1.35c-.47-.91-.9-1.83-1.28-2.77a33.87,33.87,0,0,1-1.77-5.76,32.1,32.1,0,0,1-.7-5.92,29.43,29.43,0,0,1,.42-5.87h.47c.41,1.9.74,3.75,1.29,5.55.22.9.51,1.79.81,2.67s.61,1.74,1,2.59a41.8,41.8,0,0,0,2.35,4.91c.43.79.9,1.56,1.38,2.3.25.37.49.74.75,1.09s.54.72.73,1l5.05,6.3-7.74-2.56c-2.65-.88-5.21-1.87-7.74-3s-5-2.35-7.49-3.62-4.93-2.58-7.34-4.11c-.6-.39-1.2-.77-1.79-1.22l-1.62-1.21a29,29,0,0,0-3.31-2,43.54,43.54,0,0,0-15.14-4.65,41.87,41.87,0,0,0-16,1.21Z"/><path class="cls-10" d="M290.42,564s-19.91-10-24.88,1.66,9.95,18.24,9.95,18.24,5,12.8,14.1,15.52C290.42,574,290.42,564,290.42,564Z"/><polygon class="cls-10" points="272.95 502.25 263.88 550.74 268.25 501.6 272.95 502.25"/><path class="cls-10" d="M289.41,608a48.21,48.21,0,0,0-5.27-.12c-1.77.05-3.55.18-5.3.4a41.63,41.63,0,0,0-5.13,1.05,24.58,24.58,0,0,0-4.69,1.93l-1.12.6-.94-.65c-3.2-2.23-6.59-4.22-10-6.37a34.81,34.81,0,0,1-9.4-8.11,29.64,29.64,0,0,1-5.06-11.3l-.37-1.48-.27-1.5c-.16-1-.37-2-.49-3-.19-2-.5-4-.57-6-.27-4-.34-8-.49-12s-.28-8-.46-11.92-.41-7.93-.95-11.86a33.38,33.38,0,0,0-1.31-5.78,19.26,19.26,0,0,0-2.74-5.26,19.59,19.59,0,0,1,3,5.18,32.87,32.87,0,0,1,1.55,5.78c.71,3.94,1.08,7.91,1.44,11.88s.64,7.93.94,11.9.55,8,1,11.87c.14,2,.52,3.89.78,5.84.16,1,.4,1.91.6,2.87l.3,1.43.42,1.39a27.18,27.18,0,0,0,5,10.13,31.76,31.76,0,0,0,8.89,7c3.39,2,6.95,3.86,10.38,6L267,608a27.78,27.78,0,0,1,5.47-2.51,42.07,42.07,0,0,1,5.68-1.41q2.86-.48,5.75-.68a56.46,56.46,0,0,1,5.84-.09Z"/></g><path class="cls-12" d="M115,232.66A248,248,0,0,0,41.27,409.45c0,116.2,79.71,213.8,187.43,241.1h0a250.31,250.31,0,0,0,133.72-3.11h0c2.26-.69,4.52-1.41,6.75-2.16h0c1.46-.5,2.91-1,4.36-1.52l.2-.07h0c4.34-1.55,8.6-3.21,12.83-5C476,601,538.69,512.53,538.69,409.45a248,248,0,0,0-76.18-179.14"/><path class="cls-13" d="M290,670.63a261.17,261.17,0,1,1,184.69-76.5A259.47,259.47,0,0,1,290,670.63Z"/><path class="cls-14" d="M373.74,632.39c-4.65-19.95-15.62-69.47-17-98.47l-.24-5.16,3.47-3.82a112.61,112.61,0,0,0,20.74-32.4l3.28-8.83,9.06.68c1.87.05,26.81,0,58.5-27.11l1-.84c12.56-10.93,24.48-24.75,35.56-41.19-27.89-9.08-45.81-7.24-46-7.21l-5-24.37c6.76-2,25.78-10,32.12-23.12,3-6.17,2.9-13.06-.24-21.05-22.78-43.93-29.39-57.13-29.66-57.68l-.34-.73c-.71-1.69-16.7-41.67,41.31-78.4l.46-.3.49-.25c9.89-5.11,18.16-9.22,25.46-12.85,30.63-15.23,31.89-16.7,32.52-23.63.39-4.2-11.34-12.76-23.23-17l-.49-.18c-6.8-2.72-16.12-9.74-21.28-21.65-2.77,7.93-3.65,16.21-.66,23.69l8,19.92-11.65,4.6c-16.16,6.41-60.44,28.69-71,54.49-13.71,33.51-15.44,58.65-6.33,92.5l9.09,22.75-16.18,1.89a106.22,106.22,0,0,0-20.1,5.28c-24.89,8.82-59.83,28.66-84.93,73l-21.71-12.27c28.89-51.11,69.41-74,98.31-84.28,3.87-1.38,7.42-2.48,10.55-3.35-9.55-37.63-7.15-67.45,8.22-105,12.7-31.06,53.41-53.65,73.53-63.21-13.16-39.57,27.14-78.72,28.9-80.4L529.4,46.7,517.19,95.57C511,117.19,522,124,524.79,125.34c6.25,2.27,41.66,16.32,39.27,42.58-2,21.69-14.93,28.13-46.26,43.71-7.09,3.52-15.12,7.51-24.63,12.42-36.64,23.39-32.09,44.31-31.2,47.31,1.64,3.25,9.36,18.49,29.43,57.2l.26.51.21.52c6,14.75,5.92,29.24-.25,41.94a55.84,55.84,0,0,1-11.53,15.61,201,201,0,0,1,31.57,10.29L525,403l-7.43,12.37c-13.44,22.4-28.35,41.23-44.38,56.06v.11l-4.28,3.74c-29,25.26-55,31.85-68.11,33.51A142.51,142.51,0,0,1,382,537.65c2.29,28.48,12.75,74.88,16.06,89.08Z"/><path class="cls-15" d="M292.92,494.18c.07-.09.18-.22.27-.35l.19-.25.3-.46c.29-.46.61-1,.85-1.41l.15-.28a29.27,29.27,0,0,0,1.63-3.42c.21-.53.43-1.11.69-1.88.2-.58.41-1.21.52-1.68l.08-.31.1-.31c.25-.83.47-1.9.73-3.13.09-.47.19-.94.29-1.41l2.12-9.85H321.9l1.6,9.33a47.08,47.08,0,0,1,4.58-2.4l.11-.05a56.47,56.47,0,0,1,21-4.78c.66,0,1.32,0,2,0a52.69,52.69,0,0,1,19.32,3.55l11,4.31-7.63,22.93-11.42-3.16a29,29,0,0,0-7.77-1.05,28.61,28.61,0,0,0-3.47.21,31,31,0,0,0-10.76,3.27,15.84,15.84,0,0,0-1.82,1.1l-1.46,1.09c-.93.7-1.77,1.24-2.44,1.67l-.1.07c-2.82,1.8-5.48,3.19-8.05,4.54l-.36.18c-2.36,1.21-5.17,2.63-8.14,3.94s-5.93,2.44-8.86,3.41l-47.73,15.79Z"/><path class="cls-16" d="M332.29,513.69a75.48,75.48,0,0,1-18.58-2.55l6.42-24.1-3.21,12,3.19-12c6.53,1.71,15.21,2.23,17.53,1a3.36,3.36,0,0,0-1.13,1.15l23.41-5.85c3.08,12.33-2,19.64-5.33,22.9C348.76,512,340.21,513.69,332.29,513.69Z"/><path class="cls-15" d="M277.12,599.84c-.82-25.38-.83-35.41-.83-35.83V556.3l6.89-3.44c1.77-.89,11.06-5.29,20.62-5.29,9.94,0,17.71,4.81,21.3,13.19,5.68,13.25-1.24,25.48-11.86,32.15-3.1,5.91-9.52,15.32-20.08,18.47L277.65,616Z"/><polygon class="cls-15" points="291.56 491.69 322.19 487.46 327.72 549.64 303.04 553.04 291.56 491.69"/><path class="cls-15" d="M304.18,622.22a12.42,12.42,0,0,0-2.18-.89,28.64,28.64,0,0,0-3.32-.67c-1.3-.16-2.64-.26-4-.3h-1.16c-1,0-2,0-2.73.1l-12.53,1L276,591.37l12.88-.55c.86,0,1.7-.05,2.52-.05,1.45,0,2.92.05,4.62.16a68,68,0,0,1,7.05.83l.14,0a55.56,55.56,0,0,1,7,1.7l1.14-.65c1-.55,2-1.1,2.93-1.66a20.11,20.11,0,0,0,5.47-4.11l.08-.09a15.29,15.29,0,0,0,2.57-5.52l.32-1.09.19-.91c.08-.39.17-.77.25-1.15s.16-.71.23-1.06c.08-.64.18-1.27.28-1.91.17-1.09.33-2.12.39-3l0-.21,0-.22c.28-2.52.47-5.12.67-7.86l.27-3.65.07-.94c.28-3.61.56-7.35.89-11.07.41-4.56.81-8.67,1.58-13l0-.17a46.05,46.05,0,0,1,2.16-7.91,32.18,32.18,0,0,1,4.8-8.4l19.9,15a7.59,7.59,0,0,0-1,1.91,23.43,23.43,0,0,0-.78,3.6c-.45,3.28-.64,6.65-.84,10.7-.17,3.59-.3,7.31-.42,10.9l0,.84c-.05,1.22-.09,2.39-.13,3.56-.09,2.77-.18,5.64-.38,8.6-.06,1.78-.25,3.42-.42,4.87-.07.57-.13,1.13-.19,1.7l0,.32c-.12,1-.28,1.85-.41,2.61,0,.29-.11.57-.15.86l-.36,2.08-.47,1.87a42.07,42.07,0,0,1-7.25,15.88,46.54,46.54,0,0,1-12.64,11.08l-3.16,2c-2.27,1.41-4.42,2.73-6.38,4.1l-7.28,5.08Z"/><path class="cls-17" d="M205.33,632.85,181,627.19c3.33-14.29,13.87-61,16.16-89.54a142.38,142.38,0,0,1-18.8-28.88c-13.26-1.68-39.54-8.37-68.88-34.18C92.15,459.3,76,439.37,61.62,415.35L54.2,403l13.32-5.55a200.62,200.62,0,0,1,31.56-10.29,55.81,55.81,0,0,1-11.52-15.61c-6.18-12.69-6.26-27.19-.26-41.94l.22-.52.26-.51c20.07-38.71,27.79-53.95,29.42-57.2.89-3,5.44-23.92-31.2-47.31-9.51-4.91-17.53-8.9-24.63-12.42-31.32-15.58-44.28-22-46.25-43.72-2.4-26.25,33-40.3,39.27-42.57C57.2,124,68.16,117.19,62,95.57l-.11-.41L49.77,46.69,80.93,76.5c1.77,1.68,42.06,40.83,28.9,80.4,20.12,9.56,60.83,32.14,73.54,63.21,15.37,37.56,17.77,67.38,8.22,105,3,.83,6.34,1.86,10,3.15a176.63,176.63,0,0,1,48.21,26,189.73,189.73,0,0,1,50.64,58.51L278.73,425c-25.21-44.6-60.35-64.43-85.39-73.22a106.1,106.1,0,0,0-19.67-5.12l-16.19-1.87,9.13-22.76c9.12-33.84,7.39-59-6.32-92.5-10.56-25.8-54.83-48.08-71-54.49l-11.63-4.61,8-19.91c3.07-7.69,2.13-16-.62-23.78-5.15,12-14.51,19-21.32,21.74l-.52.19c-11.86,4.21-23.59,12.77-23.21,17,.63,6.94,1.89,8.41,32.53,23.65C79.77,192.92,88,197,97.94,202.14l.48.25.47.3c58,36.73,42,76.71,41.3,78.4l-.33.73c-.28.55-6.89,13.75-29.66,57.68-3.15,8-3.23,14.88-.25,21.05,6.34,13.13,25.37,21.15,32.16,23.13l-5,24.36c-.14,0-18.1-1.87-46,7.21C102,431.4,113.68,445,126,455.87c33.13,29.15,59.79,28.51,60.06,28.52l9.25-.51,3.16,8.7a112.86,112.86,0,0,0,20.73,32.36l3.48,3.82-.25,5.16C221,563,210,612.78,205.33,632.85Z"/><path class="cls-15" d="M269.93,517.56c-2.94-1-5.82-2.08-8.82-3.39s-5.84-2.75-8.19-4l-.33-.17c-2.58-1.35-5.25-2.75-8-4.52l-.15-.1c-.68-.43-1.51-1-2.44-1.67l-1.46-1.09a17.57,17.57,0,0,0-1.83-1.11,31.36,31.36,0,0,0-10.8-3.27,29.5,29.5,0,0,0-3.42-.2,29,29,0,0,0-7.78,1.05l-11.41,3.16-7.63-22.93,11-4.31A52.69,52.69,0,0,1,228,471.5c.66,0,1.32,0,2,0a56.47,56.47,0,0,1,21,4.78l.12.05a45.94,45.94,0,0,1,4.57,2.41l1.61-9.34h21.05l2.12,9.84c.11.48.2,1,.3,1.42.26,1.24.48,2.3.73,3.13l.09.32.08.31c.11.45.32,1.06.52,1.65.26.79.48,1.37.68,1.87a30.12,30.12,0,0,0,1.64,3.46l.15.27c.24.44.56,1,.85,1.41l.13.19.21.3.11.15.07.11c.07.1.18.22.24.31l31.41,39.17Z"/><path class="cls-15" d="M286,611.38c-10.57-3.15-17-12.56-20.09-18.47-10.61-6.67-17.53-18.9-11.85-32.15,3.59-8.38,11.35-13.19,21.29-13.19,9.57,0,18.86,4.4,20.62,5.29l6.9,3.44V564c0,.42,0,10.45-.84,35.83L301.52,616Z"/><polygon class="cls-15" points="251.46 549.64 256.98 487.46 287.62 491.69 276.14 553.04 251.46 549.64"/><path class="cls-15" d="M259.82,621.45c-2-1.37-4.11-2.69-6.38-4.1l-3.14-2a46.78,46.78,0,0,1-12.67-11.1,42.08,42.08,0,0,1-7.24-15.87l-.47-1.87-.36-2.09-.15-.86c-.14-.76-.29-1.63-.42-2.61l0-.32c-.05-.57-.12-1.13-.19-1.69-.16-1.46-.35-3.1-.42-4.89-.2-3-.29-5.84-.38-8.63l-.12-3.47,0-.89c-.13-3.6-.26-7.32-.43-10.93-.19-3.88-.39-7.39-.84-10.67a21.8,21.8,0,0,0-.76-3.55,7.45,7.45,0,0,0-1-2l19.9-15a32,32,0,0,1,4.82,8.45,45.55,45.55,0,0,1,2.15,7.87l0,.16c.77,4.29,1.17,8.4,1.58,12.94.33,3.79.62,7.57.89,11.23l.07.86c.09,1.16.18,2.36.26,3.56.21,2.76.4,5.37.67,7.9l0,.21v.22c.06.83.22,1.86.39,3,.1.64.2,1.27.29,1.91.06.35.15.7.22,1s.17.77.25,1.16l.2.9.32,1.1A15.12,15.12,0,0,0,259.4,587l.08.09a20.34,20.34,0,0,0,5.49,4.13l2.9,1.64,1.15.65a55.13,55.13,0,0,1,7-1.7l.13,0a69.49,69.49,0,0,1,7-.83c1.77-.11,3.24-.16,4.69-.16.82,0,1.65,0,2.51.05l12.89.55-2.29,30.13-12.52-1c-.78-.07-1.73-.1-2.73-.1h-1.19c-1.32,0-2.66.14-3.95.3a28.82,28.82,0,0,0-3.33.67,13.09,13.09,0,0,0-2.18.89l-7.9,4.31Z"/><path class="cls-17" d="M290,670.63A262,262,0,0,1,227.17,663h0l-1.51-.39A260.94,260.94,0,0,1,28.8,409.45,260.5,260.5,0,0,1,106.27,223.8l17.54,17.73A236.29,236.29,0,0,0,231,638.26l.79.2a237.78,237.78,0,0,0,127-3l1.78-.54,3.73-1.21,1.83-1h1c.71-.24,1.41-.49,2.12-.75l2-.84h.35c3.42-1.25,6.83-2.6,10.18-4a236.31,236.31,0,0,0,72.08-387.91l17.3-18a261.24,261.24,0,0,1-79.69,428.85c-4.43,1.87-9,3.63-13.47,5.24l-.1,0h0l-2,.69-1.78.62-1.86,1h-1.06c-1.81.6-3.52,1.14-5.18,1.64l-1.78.52A261.15,261.15,0,0,1,290,670.63Z"/><circle class="cls-8" cx="289.98" cy="409.45" r="248.71"/><g id="direita-5" data-name="direita"><path class="cls-9" d="M385.88,629.56c-4.17-17.91-15.34-68-16.68-96.23,16.59-18.25,23.22-36.49,23.22-36.49s30.72,1.7,68.28-31h0c14.81-12.89,30.69-31.13,46.16-56.91-39.81-16.6-66.34-13.28-66.34-13.28s58.05-16.58,39.81-61.36c-23.23-44.79-29.86-58.05-29.86-58.05s-13.27-31.52,36.49-63c51.42-26.53,63-28.2,64.68-46.44s-31.51-29.86-31.51-29.86S495.25,127,505.2,92.14l1.66-6.63S468.71,122,482,155.17l3.32,8.29s-63,24.88-77.95,61.37S390.76,289.51,400.72,326l3.31,8.3s-9.13,1.06-22.83,5.92c-24.59,8.71-63.91,29.66-91.61,78.67"/><path class="cls-10" d="M365.81,487.11a41.87,41.87,0,0,0-16-1.21,43.53,43.53,0,0,0-15.15,4.65,28.85,28.85,0,0,0-3.3,2l-1.63,1.21c-.59.45-1.19.83-1.79,1.22-2.4,1.53-4.87,2.82-7.34,4.11s-4.95,2.5-7.48,3.62-5.1,2.1-7.75,3l-7.73,2.56,5-6.3c.19-.24.49-.62.73-1s.5-.72.74-1.09c.48-.74.95-1.51,1.38-2.3a41.86,41.86,0,0,0,2.36-4.91c.34-.85.66-1.72.95-2.59s.59-1.77.82-2.67c.54-1.8.87-3.65,1.28-5.55h.48a29.43,29.43,0,0,1,.42,5.87,32.12,32.12,0,0,1-.71,5.92,33.83,33.83,0,0,1-1.76,5.76c-.38.94-.82,1.86-1.28,2.77-.25.45-.49.9-.77,1.35a14.79,14.79,0,0,1-.91,1.39l-2.68-3.74c2.48-1,5-2,7.54-3s5.07-1.88,7.56-2.91A66.63,66.63,0,0,0,326,491.9c.57-.32,1.14-.64,1.66-1l.82-.53c.3-.21.61-.42.92-.61a31.08,31.08,0,0,1,3.81-2A44.17,44.17,0,0,1,349.62,484,41.14,41.14,0,0,1,366,486.66Z"/><path class="cls-11" d="M316.92,499.09s36.5,9.74,30.9-12.68"/><path class="cls-10" d="M288.76,564s19.9-10,24.88,1.66-9.95,18.24-9.95,18.24-5,12.8-14.1,15.52C288.76,574,288.76,564,288.76,564Z"/><polygon class="cls-10" points="310.93 501.6 315.3 550.74 306.22 502.25 310.93 501.6"/><path class="cls-10" d="M289.41,603.28a56.31,56.31,0,0,1,5.83.09q2.88.2,5.75.68a42.59,42.59,0,0,1,5.69,1.41,28,28,0,0,1,5.46,2.51l-2.06,0c3.43-2.19,7-4.09,10.38-6a31.57,31.57,0,0,0,8.88-7,27,27,0,0,0,5-10.13l.41-1.39.31-1.43c.19-1,.43-1.9.59-2.87.27-1.95.65-3.87.79-5.84.42-3.91.66-7.91,1-11.87s.6-7.94.95-11.9.73-7.94,1.43-11.88a33.76,33.76,0,0,1,1.55-5.78,19.87,19.87,0,0,1,3-5.18,19.54,19.54,0,0,0-2.74,5.26,32.46,32.46,0,0,0-1.3,5.78c-.54,3.93-.76,7.89-.95,11.86s-.32,7.94-.46,11.92-.23,7.94-.5,12c-.07,2-.37,4-.57,6-.12,1-.33,2-.49,3l-.26,1.5-.37,1.48a30,30,0,0,1-5.06,11.3,35,35,0,0,1-9.4,8.11c-3.42,2.15-6.81,4.14-10,6.37l-1,.65-1.11-.6a24.67,24.67,0,0,0-4.7-1.93,41.25,41.25,0,0,0-5.13-1.05c-1.75-.22-3.52-.35-5.3-.4a48,48,0,0,0-5.26.12Z"/></g><g id="esquerda-5" data-name="esquerda"><path class="cls-12" d="M289.59,418.89C261.7,369.54,222,348.65,197.47,340c-13.42-4.71-22.32-5.74-22.32-5.74l3.31-8.3c9.95-36.49,8.29-64.68-6.63-101.17s-78-61.37-78-61.37l3.32-8.29C110.46,122,72.31,85.51,72.31,85.51L74,92.14C83.92,127,59,136.92,59,136.92s-33.17,11.62-31.51,29.86,13.27,19.91,64.69,46.44c49.75,31.51,36.48,63,36.48,63s-6.63,13.26-29.85,58.05c-18.25,44.78,39.8,61.36,39.8,61.36s-26.53-3.32-66.34,13.28c15.23,25.37,30.85,43.44,45.45,56.29,37.89,33.34,69,31.61,69,31.61s6.64,18.24,23.23,36.49c-1.37,28.49-12.71,79.19-16.79,96.69"/><path class="cls-10" d="M213.22,486.66A41.12,41.12,0,0,1,229.55,484a44.22,44.22,0,0,1,16.39,3.73,31.83,31.83,0,0,1,3.81,2c.31.19.61.4.92.61l.81.53c.52.35,1.09.67,1.66,1a66.63,66.63,0,0,0,7.23,3.43c2.49,1,5,2,7.57,2.91s5.06,2,7.54,3L272.79,505c-.38-.53-.63-.93-.91-1.39s-.51-.9-.76-1.35c-.47-.91-.9-1.83-1.28-2.77a33.87,33.87,0,0,1-1.77-5.76,32.1,32.1,0,0,1-.7-5.92,29.43,29.43,0,0,1,.42-5.87h.47c.41,1.9.74,3.75,1.29,5.55.22.9.51,1.79.81,2.67s.61,1.74,1,2.59a41.8,41.8,0,0,0,2.35,4.91c.43.79.9,1.56,1.38,2.3.25.37.49.74.75,1.09s.54.72.73,1l5.05,6.3-7.74-2.56c-2.65-.88-5.21-1.87-7.74-3s-5-2.35-7.49-3.62-4.93-2.58-7.34-4.11c-.6-.39-1.2-.77-1.79-1.22l-1.62-1.21a29,29,0,0,0-3.31-2,43.54,43.54,0,0,0-15.14-4.65,41.87,41.87,0,0,0-16,1.21Z"/><path class="cls-10" d="M290.42,564s-19.91-10-24.88,1.66,9.95,18.24,9.95,18.24,5,12.8,14.1,15.52C290.42,574,290.42,564,290.42,564Z"/><polygon class="cls-10" points="272.95 502.25 263.88 550.74 268.25 501.6 272.95 502.25"/><path class="cls-10" d="M289.41,608a48.21,48.21,0,0,0-5.27-.12c-1.77.05-3.55.18-5.3.4a41.63,41.63,0,0,0-5.13,1.05,24.58,24.58,0,0,0-4.69,1.93l-1.12.6-.94-.65c-3.2-2.23-6.59-4.22-10-6.37a34.81,34.81,0,0,1-9.4-8.11,29.64,29.64,0,0,1-5.06-11.3l-.37-1.48-.27-1.5c-.16-1-.37-2-.49-3-.19-2-.5-4-.57-6-.27-4-.34-8-.49-12s-.28-8-.46-11.92-.41-7.93-.95-11.86a33.38,33.38,0,0,0-1.31-5.78,19.26,19.26,0,0,0-2.74-5.26,19.59,19.59,0,0,1,3,5.18,32.87,32.87,0,0,1,1.55,5.78c.71,3.94,1.08,7.91,1.44,11.88s.64,7.93.94,11.9.55,8,1,11.87c.14,2,.52,3.89.78,5.84.16,1,.4,1.91.6,2.87l.3,1.43.42,1.39a27.18,27.18,0,0,0,5,10.13,31.76,31.76,0,0,0,8.89,7c3.39,2,6.95,3.86,10.38,6L267,608a27.78,27.78,0,0,1,5.47-2.51,42.07,42.07,0,0,1,5.68-1.41q2.86-.48,5.75-.68a56.46,56.46,0,0,1,5.84-.09Z"/></g><path class="cls-18" d="M550,167.33a32.2,32.2,0,0,0-1.68-7.71,14.8,14.8,0,0,0-1.77-7.39A16.05,16.05,0,0,0,533,143.84l-1.17-.8c-3.12-2.08-6.61-3.3-9.9-5.06-.69-.36-1.36-.76-2-1.18-.21-.15-.69-.48-.85-.62-1.6-1.39-3.08-2.91-4.56-4.42a11.25,11.25,0,0,0-6-3.18c-.49-2.11-.9-4.27-1.22-6.5-.4-2.81-2.52-5.19-5.05-6.73a33,33,0,0,0,.4-4.07c0-.7.83-2.07-.15-.84,2.66-3.34,3.27-7.94,0-11.2-2.76-2.77-8.52-3.37-11.2,0-4.34,5.45-4.91,12.55-5.36,19.46-.12.18-.25.36-.36.54-5.36,8.91-8.66,20.85-4.62,30.52a16.56,16.56,0,0,0-.71,3.32,28.19,28.19,0,0,0,1.51,11.82,11.44,11.44,0,0,0-2.91,1.21c-9.48,5.62-18.82,11-27.51,17.48a67.37,67.37,0,0,0-18.27,8.1,12.5,12.5,0,0,0-5.82,9.84c-6.15,4.31-13.65,10.88-16.8,18.38a11.81,11.81,0,0,0-3.33,3.65,35.68,35.68,0,0,0-4.52,14.31c-1.18,3.82-2.46,7.58-3.94,11.15s-3.55,7.55-4.24,11.63c-.76,4.46-.3,8.32-1.42,11.52-1.39,4,.18,8.64,3.18,11.67-.23,1.52-.43,3.05-.58,4.6a41.94,41.94,0,0,0,.23,10.52,9.37,9.37,0,0,0-.3,3.19c.91,11.43,3.68,22.71,6.78,33.88a15.49,15.49,0,0,0-4.88,1c-7.68,3-15.63,5.8-23.54,8.8-1,.19-2,.42-3,.7a68.25,68.25,0,0,0-18.14,8.19c-12.28,5.85-23.76,13-33.21,22.93s-16.68,21.38-23,33.42q-3.7,3.21-7.24,6.59a260.25,260.25,0,0,1-17.71-20.25l-.45-.54a19.52,19.52,0,0,0-5.74-15,163.32,163.32,0,0,0-64.56-39.28A143.74,143.74,0,0,0,185,338.52l-9.93-4.38c.26-1.32.44-2.65.57-4,5.1-7,6.16-15.46,4.6-23.78A69.44,69.44,0,0,0,182,293.51a15.83,15.83,0,0,0-1.09-6.41c.06-.55.11-1.1.17-1.65,1-10.69.62-21.45.19-32.15a20.06,20.06,0,0,0-6.87-14.18,19.08,19.08,0,0,0-2.16-6.44q-1.41-2.6-2.87-5.16c-.17-1.45-.35-2.9-.56-4.36-.69-4.68-4.53-8.85-9.08-11.25-7.81-11.32-17.06-21.42-29.38-28.53-9.64-5.57-19.85-10.31-29.77-15.38-3.44-1.76-6.86-3.52-10.34-5.17a15.07,15.07,0,0,0,4-4.88c4.17-8.36,3.7-19.57,1.67-28.43-2.25-9.75-9.25-18.28-10-28.37-.42-6.07-9.93-6.12-9.51,0a35.74,35.74,0,0,0,1,6.18,3.58,3.58,0,0,0-2.72,3.24c-.75,5.27-1.41,10.57-2.18,15.85a4.54,4.54,0,0,0-4,1.32l-8.43,8.76-7,4.12-.19.12a19.21,19.21,0,0,0-3.76.56c-1.83.47-3.73,2.57-3.49,4.59a.09.09,0,0,0,0,.05,17.5,17.5,0,0,0-2.6.5c-12.26,3.38-18.1,18.13-11.61,29.05A30.9,30.9,0,0,0,46.12,188a24.58,24.58,0,0,0,7.43,1.77c3.34,3.58,7.45,6.41,11.36,9.32,4.16,3.09,8.32,6.17,12.62,9.06A137.24,137.24,0,0,0,91,216.1c2.23,1.16,4.47,2.29,6.64,3.57,1.65,1,3.49,2.75,5.27,3.61-1.19-.62-1.56-1.45.27.12h0a2.55,2.55,0,0,0,.29.13,2.18,2.18,0,0,1-.27-.11c.78.67,1.54,1.35,2.29,2,1.52,1.41,3,2.89,4.38,4.41s2.8,3.23,4.17,4.89a1.11,1.11,0,0,1,.11.16c.61.86,1.24,1.71,1.84,2.57A266.14,266.14,0,0,1,130,260.86,15.54,15.54,0,0,0,132,263.6a14.31,14.31,0,0,0-2.35,9.21,2.45,2.45,0,0,1,0,.27,18.3,18.3,0,0,0-4.13,11.73c-1,1.49-2.09,2.89-3,4.42a45.18,45.18,0,0,0-3.87,9c0,.13-.11.3-.18.48l-.42.5c-.7.76-1.42,1.49-2.1,2.27a40,40,0,0,0-5.37,7.25,31.09,31.09,0,0,0-3.77,13.46,94,94,0,0,0-8.13,16.63c-1.81,4.88-3.4,10.31-3,15.54a23.36,23.36,0,0,0,6,14.77,20.84,20.84,0,0,0,1.77,1.64,24.05,24.05,0,0,0,9.41,10.48,14.37,14.37,0,0,0,3.13,1.52,21.81,21.81,0,0,0,4.85,3.09,17.83,17.83,0,0,0,6.1,3.67,20.54,20.54,0,0,0,4.48,2.55l.59.51h-.14a20.65,20.65,0,0,0-13.41,5.24,4.6,4.6,0,0,0-4,.37c-.36.28-.74.54-1.11.8a27.48,27.48,0,0,0-11,.78,13.42,13.42,0,0,0-5.13,2.88h0l-.55.06c-5.1-3.44-12.44-3.57-16.87,1.25a14.27,14.27,0,0,0-2.21,3.22c-4.24,1-5.68,7.47-1.3,8.92a11.42,11.42,0,0,0,3.51,6.35q3.52,3.24,6.88,6.66a12,12,0,0,0,1.2,2.73,41.57,41.57,0,0,0,7.8,9.76,51,51,0,0,0,4.83,3.82c.49.69,1,1.37,1.48,2.07a16.85,16.85,0,0,0,2.64,3,41.93,41.93,0,0,0,6.17,8.53c4.39,4.45,10,8.08,14.93,11.86q2.82,2.18,5.69,4.3a18.35,18.35,0,0,0,2.46,3.16,19.74,19.74,0,0,0,13.82,5.78A47.61,47.61,0,0,0,165.89,491a16.29,16.29,0,0,0,7.77,4.37,77.62,77.62,0,0,0,13.46,1.21,291.54,291.54,0,0,0,21.5,33.73,16.06,16.06,0,0,0-1.35,6.83,274.55,274.55,0,0,0,2.09,28.07c-.87,1.49-1.74,3-2.63,4.46-3.75,6.21-6.94,13-6.31,20.42a51.69,51.69,0,0,0,1.82,9.46,117.76,117.76,0,0,0-6.54,13.69,10.37,10.37,0,0,0-.56,1.9,12.16,12.16,0,0,0-.94,1.32c-3.4,5.83-1.09,12.69,4.27,16.26,6.92,4.62,14.94,7.32,22.94,9.42.86,1.07,6.25,1.33,7.57,2,23.78,11.4,38.71,7.82,70.51,9.51a125.07,125.07,0,0,0,41.62-5,141,141,0,0,0,19-6.83c2.71-1.27,5.79-.82,8.28-2.46.86-.57,2.25.48,3.17,0,.07.06,2.48-1.6,3.17-1.59,6.19.78,8.91-8.07,8.65-13.93a11.77,11.77,0,0,0-3.21-7.92c-.26-4.22-1.42-8.72-2.06-12.83q-1.63-10.54-3.28-21.09c-1.37-8.79-3-17.56-5.82-25.92-.64-4.43-1.46-8.87-1-13.36a1.93,1.93,0,0,0-1.45-1.89c0-1.85-.06-3.69-.2-5.54a199.78,199.78,0,0,0,27.29-39.63l.4-.1a45.8,45.8,0,0,0,6.48-2.49,46,46,0,0,1,10.31-1.42,40.25,40.25,0,0,0,19.43-5.36c5.12-3,9.69-7,14.23-10.84a182.36,182.36,0,0,0,13.8-12.08,33.19,33.19,0,0,0,2.2-2.51c9.12-6.93,17.8-14.41,25.16-23.21a14.43,14.43,0,0,0,3.15-6.67,69.51,69.51,0,0,0,9.43-8c7.16-7.3,2-20.33-8.4-20.29-8.09,0-16.31-1.67-24.31-2.71l-19.88-2.58a32.51,32.51,0,0,0-.18-7,37.15,37.15,0,0,0,11.22-6c10-4.48,18.33-11.38,22.3-22.42a35.1,35.1,0,0,0-.87-25.12,13.59,13.59,0,0,0-2.17-9.17c-2.45-3.76-4.32-5.12-6.54-8.37-.39-.57-.77-1.15-1.14-1.73-.39-.94-.83-1.87-1.3-2.79-1.05-2-2.37-3.88-3.61-5.79a50.51,50.51,0,0,1-2.91-6.95,13.45,13.45,0,0,0-5-6.65c-.38-1.06-.76-2.13-1.13-3.24-4.2-12.33-7.88-23.79-6.71-36.48a17.82,17.82,0,0,0,3.48-3.51c3.15-4.14,5.3-8.86,8.15-13.2,2.35-3.57,6.33-7.6,9.69-11.34,5.25-5.83,10.4-11.81,15.93-17.38,3.83,2.22,8.95,2.6,12.36.19l10.85-7.7a14,14,0,0,0,5.36-7.24c11.66-3,23.13-7.53,30.21-17.62C547.39,175.7,550.38,171.55,550,167.33Z"/><path class="cls-12" d="M115,232.66A248,248,0,0,0,41.27,409.45c0,116.2,79.71,213.8,187.43,241.1h0a250.31,250.31,0,0,0,133.72-3.11h0c2.26-.69,4.52-1.41,6.75-2.16h0c1.46-.5,2.91-1,4.36-1.52l.2-.07h0c4.34-1.55,8.6-3.21,12.83-5C476,601,538.69,512.53,538.69,409.45a248,248,0,0,0-76.18-179.14"/><path class="cls-19" d="M257.93,496.08a30.27,30.27,0,0,1-5.49-2.67c-1.9-1.15-3.64-2.53-5.66-3.5-4-1.92-8.41-3-12.64-4.35a1.81,1.81,0,0,0-1,0,2,2,0,0,0-.79-.15c-2.32,0-2.53,3.27-.62,3.86a13.89,13.89,0,0,0,.25,1.41,1.82,1.82,0,0,0-.38,1.14,6.43,6.43,0,0,0,1.92,4.4,10.47,10.47,0,0,0,.82,1.07,7.83,7.83,0,0,0,5.72,2.37h.3c1.31.24,2.68.33,4,.44a63.7,63.7,0,0,0,9.67,0,2.06,2.06,0,0,0,1.47-.73c.47.19.93.38,1.41.55a2,2,0,0,0,2.43-1.38A2,2,0,0,0,257.93,496.08Z"/><path class="cls-19" d="M347.69,487a1.91,1.91,0,0,0-2.4-1.51l-7,1.85a23.82,23.82,0,0,0-6.46,2.35,37.91,37.91,0,0,0-4.94,4.09,7.14,7.14,0,0,1-5.11,2.16,2,2,0,0,0-1.14.32c-2.14.39-2,3.92.39,3.92a1.91,1.91,0,0,0,1-.27h.65c2.42,0,4.84,0,7.26,0h.17a2.66,2.66,0,0,0,1.16.67c1.39.38,3.16-.16,4.56-.34,3.12-.41,6.29-1,8.81-3a8.11,8.11,0,0,0,3.13-6.91A2.09,2.09,0,0,0,347.69,487Z"/><path class="cls-20" d="M184.58,294.57c5.85-33.7-5.69-69.94-29.93-94.07a146.8,146.8,0,0,0-38.13-26.78C113,172,85.81,153.05,103.11,175.1c3.06,3.9,7.36,8.59,11,11.2A180.54,180.54,0,0,1,168.68,250,176.54,176.54,0,0,1,184.58,294.57Z"/><path class="cls-20" d="M397.59,294.57c-5.85-33.7,5.68-69.94,29.93-94.07a146.8,146.8,0,0,1,38.13-26.78c3.57-1.76,30.71-20.67,13.41,1.38-3.06,3.9-7.36,8.59-11,11.2A180.54,180.54,0,0,0,413.49,250,176.54,176.54,0,0,0,397.59,294.57Z"/><path class="cls-20" d="M509,142.92c2,2,4.38,3.74,7.14,4.25s6-.63,7.16-3.19a7,7,0,0,0-.92-6.58,29.79,29.79,0,0,0-4.77-5,48.3,48.3,0,0,1-11.21-16.08c-1.19-2.74-3.36-16.07-7.62-8.72-2.7,4.66-.79,14.1.57,18.91A37.11,37.11,0,0,0,509,142.92Z"/><path class="cls-20" d="M70.91,142.92c-2,2-4.38,3.74-7.14,4.25s-6-.63-7.16-3.19a7,7,0,0,1,.92-6.58,29.79,29.79,0,0,1,4.77-5A48.3,48.3,0,0,0,73.51,116.3c1.19-2.74,3.36-16.07,7.62-8.72,2.7,4.66.79,14.1-.57,18.91A37.11,37.11,0,0,1,70.91,142.92Z"/><path class="cls-20" d="M491.38,416.71c2.5.47,5.07,1,7.51.17a7.6,7.6,0,0,0,4.95-6.71c.69-11.91-26.9-6.26-32.42-7.74-8.58-2.29-12.72-13.48-21.49-12.68-17.33,1.59-35.81,18.5-41.54,37.59C436.08,417.51,462.58,411.39,491.38,416.71Z"/><path class="cls-20" d="M88.09,416.71c-2.49.47-5.06,1-7.51.17a7.61,7.61,0,0,1-4.94-6.71c-.69-11.91,26.9-6.26,32.42-7.74,8.57-2.29,12.71-13.48,21.49-12.68,17.33,1.59,35.8,18.5,41.53,37.59C143.39,417.51,116.89,411.39,88.09,416.71Z"/><path class="cls-21" d="M399.76,480.69c-4.33,1.92-9.15,4.14-10.74,8.1-.93,2.33-.86,4.5,1.59,6.34,3.16,2.38,5.35,3.39,8.62,2.55,35.24-9.07,67.13-30.21,89.69-58.71,4.27-5.4,13.44-15,14-21.91-5.22.5-11.05,6.9-15,10-8.83,7-17.84,13.7-27.19,20A399.82,399.82,0,0,1,399.76,480.69Z"/><path class="cls-21" d="M178.62,480.69c4.33,1.92,9.16,4.14,10.74,8.1.93,2.33.87,4.5-1.58,6.34-3.17,2.38-5.35,3.39-8.62,2.55A169.41,169.41,0,0,1,89.47,439c-4.28-5.4-13.45-15-14-21.91,5.21.5,11,6.9,15,10,8.84,7,17.85,13.7,27.2,20A399.72,399.72,0,0,0,178.62,480.69Z"/><path class="cls-21" d="M262.28,542.74a111.5,111.5,0,0,0-1.13-17.14A37.93,37.93,0,0,0,255,509.69c-1.45-2-6.29-5.1-5.42-7.43.77-2.09,6.3-2.14,8.47-2.63a19.47,19.47,0,0,1,5.67-.7,6.62,6.62,0,0,1,5,2.46c1.42,2,1.18,4.65.89,7.06l-2.92,24c-.48,4-1.55,8.64-2,12.6-.21,1.73,0,7.14-2.16,6.66C261.46,551.38,262.33,545.69,262.28,542.74Z"/><path class="cls-21" d="M316.38,542.74a112.77,112.77,0,0,1,1.12-17.14,38,38,0,0,1,6.16-15.91c1.45-2,6.29-5.1,5.42-7.43-.77-2.09-6.3-2.14-8.47-2.63a19.47,19.47,0,0,0-5.67-.7,6.62,6.62,0,0,0-5,2.46c-1.42,2-1.19,4.65-.89,7.06l2.92,24c.48,4,1.23,8.64,1.71,12.6.21,1.73.32,7.14,2.48,6.66C317.2,551.38,316.33,545.69,316.38,542.74Z"/><path class="cls-21" d="M179.05,338.81c-8.55-1-17.16-2.16-25.29-5s-15.84-7.51-21-14.43a6.88,6.88,0,0,1-1.64-3.73,2.74,2.74,0,0,1,2.32-2.92,4.24,4.24,0,0,1,2.08.73,76.75,76.75,0,0,0,34.4,9.77c2.43.09,5,.1,7.14,1.19s3.84,3.66,3,5.95Z"/><path class="cls-21" d="M401,338.81c8.55-1,17.17-2.16,25.3-5s15.83-7.51,21-14.43a6.82,6.82,0,0,0,1.65-3.73,2.75,2.75,0,0,0-2.33-2.92,4.24,4.24,0,0,0-2.08.73,76.71,76.71,0,0,1-34.4,9.77c-2.43.09-5,.1-7.14,1.19s-3.84,3.66-3,5.95Z"/><path class="cls-21" d="M111.4,212.88c-10.77-10-24.11-16.86-37.66-22.62S46.23,179.67,33.13,173c-2.93,2.12-2.19,7,.42,9.51s6.34,3.37,9.8,4.45C59.09,191.85,72,203,85.67,212.19c8.43,5.65,17.33,10.63,25.25,17a64.89,64.89,0,0,1,12.17,12.44c1.07,1.48,2.32,5.12,4.44,5,2.8-.12,2.23-3.25,1.95-4.92C127.71,230.89,119.19,220.13,111.4,212.88Z"/><path class="cls-21" d="M467.89,212.88c10.78-10,24.12-16.86,37.67-22.62s27.51-10.59,40.61-17.31c2.93,2.12,2.19,7-.42,9.51s-6.34,3.37-9.8,4.45c-15.74,4.94-28.61,16.09-42.32,25.28-8.43,5.65-17.33,10.63-25.25,17a64.89,64.89,0,0,0-12.17,12.44c-1.07,1.48-2.32,5.12-4.44,5-2.8-.12-2.23-3.25-1.95-4.92C451.59,230.89,460.11,220.13,467.89,212.88Z"/><path class="cls-21" d="M339,546c1.54,15.12,3.05,30.67-1.09,45.28s-15.31,28.3-30.3,30.75c1.4-3.31,1.5-9.84,4.57-12.82s6.79-3.66,10.25-6.17c13.37-9.67,13.52-16.81,15.1-34.24C338.17,561.71,338.31,553.76,339,546Z"/><path class="cls-21" d="M240.26,546c-1.55,15.12-3.06,30.67,1.08,45.28s15.31,28.3,30.31,30.75c-1.4-3.31-1.51-9.84-4.57-12.82s-6.79-3.66-10.26-6.17c-13.36-9.67-13.51-16.81-15.1-34.24C241.08,561.71,240.93,553.76,240.26,546Z"/><path class="cls-20" d="M274.63,624.19a24,24,0,0,0,7.35,1.4c6.09.52,12.27,1,18.3,0a12.83,12.83,0,0,0,6.68-2.84c2.46-2.31,3.14-5.9,3.68-9.24.23-1.42.4-3.07-.6-4.11-.62-.65-3.33-1.54-4.21-1.73-9.24-2-16.95-2.17-26.39-1.76a19.5,19.5,0,0,0-7,1.26c-2.18,1-3.43,1.32-3.85,3.67C267.8,615.22,270.63,622.51,274.63,624.19Z"/><path class="cls-21" d="M483,168.32a61.23,61.23,0,0,0,15.39-6.69c1-.62,2.17-1.53,2.06-2.73a2.48,2.48,0,0,0-2.12-1.94,22.45,22.45,0,0,0-3.07-.1,14.34,14.34,0,0,1-4.8-1.41,14.55,14.55,0,0,0-4.79-1.43,5,5,0,0,0-4.43,1.84c-.95,1.38-.64,3.61.86,4.34"/><path class="cls-21" d="M96.41,168.32A61.32,61.32,0,0,1,81,161.63c-1-.62-2.17-1.53-2.06-2.73A2.47,2.47,0,0,1,81.09,157a22.4,22.4,0,0,1,3.07-.1A14.35,14.35,0,0,0,89,155.45,14.62,14.62,0,0,1,93.74,154a5,5,0,0,1,4.44,1.84c.95,1.38.64,3.61-.86,4.34"/><g id="direita-6" data-name="direita"><path class="cls-22" d="M385.88,629.56c-4.17-17.91-15.34-68-16.68-96.23,16.59-18.25,23.22-36.49,23.22-36.49s30.72,1.7,68.28-31h0c14.81-12.89,30.69-31.13,46.16-56.91-39.81-16.6-66.34-13.28-66.34-13.28s58.05-16.58,39.81-61.36c-23.23-44.79-29.86-58.05-29.86-58.05s-13.27-31.52,36.49-63c51.42-26.53,63-28.2,64.68-46.44s-31.51-29.86-31.51-29.86S495.25,127,505.2,92.14l1.66-6.63S468.71,122,482,155.17l3.32,8.29s-63,24.88-77.95,61.37S390.76,289.51,400.72,326l3.31,8.3s-9.13,1.06-22.83,5.92c-24.59,8.71-63.91,29.66-91.61,78.67"/><path class="cls-23" d="M365.81,487.11a41.87,41.87,0,0,0-16-1.21,43.53,43.53,0,0,0-15.15,4.65,28.85,28.85,0,0,0-3.3,2l-1.63,1.21c-.59.45-1.19.83-1.79,1.22-2.4,1.53-4.87,2.82-7.34,4.11s-4.95,2.5-7.48,3.62-5.1,2.1-7.75,3l-7.73,2.56,5-6.3c.19-.24.49-.62.73-1s.5-.72.74-1.09c.48-.74.95-1.51,1.38-2.3a41.86,41.86,0,0,0,2.36-4.91c.34-.85.66-1.72.95-2.59s.59-1.77.82-2.67c.54-1.8.87-3.65,1.28-5.55h.48a29.43,29.43,0,0,1,.42,5.87,32.12,32.12,0,0,1-.71,5.92,33.83,33.83,0,0,1-1.76,5.76c-.38.94-.82,1.86-1.28,2.77-.25.45-.49.9-.77,1.35a14.79,14.79,0,0,1-.91,1.39l-2.68-3.74c2.48-1,5-2,7.54-3s5.07-1.88,7.56-2.91A66.63,66.63,0,0,0,326,491.9c.57-.32,1.14-.64,1.66-1l.82-.53c.3-.21.61-.42.92-.61a31.08,31.08,0,0,1,3.81-2A44.17,44.17,0,0,1,349.62,484,41.14,41.14,0,0,1,366,486.66Z"/><path class="cls-24" d="M316.92,499.09s36.5,9.74,30.9-12.68"/><path d="M288.76,564s19.9-10,24.88,1.66-9.95,18.24-9.95,18.24-5,12.8-14.1,15.52C288.76,574,288.76,564,288.76,564Z"/><polygon class="cls-25" points="310.93 501.6 315.3 550.74 306.22 502.25 310.93 501.6"/><path class="cls-26" d="M289.41,603.28a56.31,56.31,0,0,1,5.83.09q2.88.2,5.75.68a42.59,42.59,0,0,1,5.69,1.41,28,28,0,0,1,5.46,2.51l-2.06,0c3.43-2.19,7-4.09,10.38-6a31.57,31.57,0,0,0,8.88-7,27,27,0,0,0,5-10.13l.41-1.39.31-1.43c.19-1,.43-1.9.59-2.87.27-1.95.65-3.87.79-5.84.42-3.91.66-7.91,1-11.87s.6-7.94.95-11.9.73-7.94,1.43-11.88a33.76,33.76,0,0,1,1.55-5.78,19.87,19.87,0,0,1,3-5.18,19.54,19.54,0,0,0-2.74,5.26,32.46,32.46,0,0,0-1.3,5.78c-.54,3.93-.76,7.89-.95,11.86s-.32,7.94-.46,11.92-.23,7.94-.5,12c-.07,2-.37,4-.57,6-.12,1-.33,2-.49,3l-.26,1.5-.37,1.48a30,30,0,0,1-5.06,11.3,35,35,0,0,1-9.4,8.11c-3.42,2.15-6.81,4.14-10,6.37l-1,.65-1.11-.6a24.67,24.67,0,0,0-4.7-1.93,41.25,41.25,0,0,0-5.13-1.05c-1.75-.22-3.52-.35-5.3-.4s-3.95,0-5.61.08Z"/></g><g id="esquerda-6" data-name="esquerda"><path class="cls-27" d="M289.59,418.89C261.7,369.54,222,348.65,197.47,340c-13.42-4.71-22.32-5.74-22.32-5.74l3.31-8.3c9.95-36.49,8.29-64.68-6.63-101.17s-78-61.37-78-61.37l3.32-8.29C110.46,122,72.31,85.51,72.31,85.51L74,92.14C83.92,127,59,136.92,59,136.92s-33.17,11.62-31.51,29.86,13.27,19.91,64.69,46.44c49.75,31.51,36.48,63,36.48,63s-6.63,13.26-29.85,58.05c-18.25,44.78,39.8,61.36,39.8,61.36s-26.53-3.32-66.34,13.28c15.23,25.37,30.85,43.44,45.45,56.29,37.89,33.34,69,31.61,69,31.61s6.64,18.24,23.23,36.49c-1.37,28.49-12.71,79.19-16.79,96.69"/><path class="cls-28" d="M213.22,486.66A41.12,41.12,0,0,1,229.55,484a44.22,44.22,0,0,1,16.39,3.73,31.83,31.83,0,0,1,3.81,2c.31.19.61.4.92.61l.81.53c.52.35,1.09.67,1.66,1a66.63,66.63,0,0,0,7.23,3.43c2.49,1,5,2,7.57,2.91s5.06,2,7.54,3L272.79,505c-.38-.53-.63-.93-.91-1.39s-.51-.9-.76-1.35c-.47-.91-.9-1.83-1.28-2.77a33.87,33.87,0,0,1-1.77-5.76,32.1,32.1,0,0,1-.7-5.92,29.43,29.43,0,0,1,.42-5.87h.47c.41,1.9.74,3.75,1.29,5.55.22.9.51,1.79.81,2.67s.61,1.74,1,2.59a41.8,41.8,0,0,0,2.35,4.91c.43.79.9,1.56,1.38,2.3.25.37.49.74.75,1.09s.54.72.73,1l5.05,6.3-7.74-2.56c-2.65-.88-5.21-1.87-7.74-3s-5-2.35-7.49-3.62-4.93-2.58-7.34-4.11c-.6-.39-1.2-.77-1.79-1.22l-1.62-1.21a29,29,0,0,0-3.31-2,43.54,43.54,0,0,0-15.14-4.65,41.87,41.87,0,0,0-16,1.21Z"/><path d="M290.42,564s-19.91-10-24.88,1.66,9.95,18.24,9.95,18.24,5,12.8,14.1,15.52C290.42,574,290.42,564,290.42,564Z"/><polygon class="cls-29" points="272.95 502.25 263.88 550.74 268.25 501.6 272.95 502.25"/><path class="cls-30" d="M289.48,608a52.41,52.41,0,0,0-5.34-.08c-1.77.05-3.55.18-5.3.4a41.63,41.63,0,0,0-5.13,1.05,24.58,24.58,0,0,0-4.69,1.93l-1.12.6-.94-.65c-3.2-2.23-6.59-4.22-10-6.37a34.81,34.81,0,0,1-9.4-8.11,29.64,29.64,0,0,1-5.06-11.3l-.37-1.48-.27-1.5c-.16-1-.37-2-.49-3-.19-2-.5-4-.57-6-.27-4-.34-8-.49-12s-.28-8-.46-11.92-.41-7.93-.95-11.86a33.38,33.38,0,0,0-1.31-5.78,19.26,19.26,0,0,0-2.74-5.26,19.59,19.59,0,0,1,3,5.18,32.87,32.87,0,0,1,1.55,5.78c.71,3.94,1.08,7.91,1.44,11.88s.64,7.93.94,11.9.55,8,1,11.87c.14,2,.52,3.89.78,5.84.16,1,.4,1.91.6,2.87l.3,1.43.42,1.39a27.18,27.18,0,0,0,5,10.13,31.76,31.76,0,0,0,8.89,7c3.39,2,6.95,3.86,10.38,6L267,608a27.78,27.78,0,0,1,5.47-2.51,42.07,42.07,0,0,1,5.68-1.41q2.86-.48,5.75-.68a56.46,56.46,0,0,1,5.84-.09Z"/></g><path class="cls-24" d="M262.05,499.09s-36.51,9.74-30.9-12.68"/><line class="cls-31" x1="460.7" y1="465.85" x2="460.7" y2="465.85"/><path d="M311,609.62a10.62,10.62,0,0,1,.7,4,14.5,14.5,0,0,1-.54,3.93,12.28,12.28,0,0,1-1.7,3.68,6.74,6.74,0,0,1-3.21,2.65c.4-1.37.66-2.53.95-3.7s.57-2.33.91-3.49.7-2.33,1.15-3.51A19.44,19.44,0,0,1,311,609.62Z"/><path d="M268.2,609.62a19.37,19.37,0,0,1,1.73,3.56c.45,1.18.82,2.35,1.16,3.51s.6,2.32.9,3.49.55,2.33,1,3.7a6.77,6.77,0,0,1-3.22-2.65,12.25,12.25,0,0,1-1.69-3.68,14.13,14.13,0,0,1-.55-3.93A10.44,10.44,0,0,1,268.2,609.62Z"/></g></g></g></g></g></svg>